G75*
%MOIN*%
%OFA0B0*%
%FSLAX25Y25*%
%IPPOS*%
%LPD*%
%AMOC8*
5,1,8,0,0,1.08239X$1,22.5*
%
%ADD10C,0.00800*%
%ADD11C,0.01500*%
%ADD12C,0.01100*%
%ADD13C,0.01000*%
%ADD14C,0.00000*%
D10*
X0143333Y0295783D02*
X0143333Y0445783D01*
X0243333Y0445783D01*
X0243333Y0295783D01*
X0143333Y0295783D01*
X0245333Y0295783D02*
X0245333Y0445783D01*
X0345333Y0445783D01*
X0345333Y0295783D01*
X0245333Y0295783D01*
X0347333Y0295783D02*
X0347333Y0445783D01*
X0447333Y0445783D01*
X0447333Y0295783D01*
X0347333Y0295783D01*
X0347333Y0447783D02*
X0347333Y0597783D01*
X0447333Y0597783D01*
X0447333Y0447783D01*
X0347333Y0447783D01*
X0345333Y0447783D02*
X0345333Y0597783D01*
X0245333Y0597783D01*
X0245333Y0447783D01*
X0345333Y0447783D01*
X0243333Y0447783D02*
X0243333Y0597783D01*
X0143333Y0597783D01*
X0143333Y0447783D01*
X0243333Y0447783D01*
D11*
X0116333Y0446783D02*
X0499333Y0446783D01*
X0499333Y0598783D02*
X0116333Y0598783D01*
X0142333Y0649783D02*
X0142333Y0268783D01*
X0116333Y0294783D02*
X0499333Y0294783D01*
X0448333Y0268783D02*
X0448333Y0649783D01*
X0346333Y0649783D02*
X0346333Y0268783D01*
X0244333Y0268783D02*
X0244333Y0649783D01*
D12*
X0245554Y0655833D02*
X0246866Y0655833D01*
X0245554Y0655834D02*
X0245492Y0655836D01*
X0245431Y0655842D01*
X0245370Y0655851D01*
X0245310Y0655865D01*
X0245250Y0655882D01*
X0245192Y0655903D01*
X0245135Y0655928D01*
X0245080Y0655956D01*
X0245027Y0655987D01*
X0244976Y0656022D01*
X0244927Y0656060D01*
X0244881Y0656100D01*
X0244837Y0656144D01*
X0244797Y0656190D01*
X0244759Y0656239D01*
X0244724Y0656290D01*
X0244693Y0656343D01*
X0244665Y0656398D01*
X0244640Y0656455D01*
X0244619Y0656513D01*
X0244602Y0656573D01*
X0244588Y0656633D01*
X0244579Y0656694D01*
X0244573Y0656755D01*
X0244571Y0656817D01*
X0244571Y0658783D01*
X0244573Y0658845D01*
X0244579Y0658906D01*
X0244588Y0658967D01*
X0244602Y0659027D01*
X0244619Y0659087D01*
X0244640Y0659145D01*
X0244665Y0659202D01*
X0244693Y0659257D01*
X0244724Y0659310D01*
X0244759Y0659361D01*
X0244797Y0659410D01*
X0244837Y0659456D01*
X0244881Y0659500D01*
X0244927Y0659540D01*
X0244976Y0659578D01*
X0245027Y0659613D01*
X0245080Y0659644D01*
X0245135Y0659672D01*
X0245192Y0659697D01*
X0245250Y0659718D01*
X0245310Y0659735D01*
X0245370Y0659749D01*
X0245431Y0659758D01*
X0245492Y0659764D01*
X0245554Y0659766D01*
X0245554Y0659767D02*
X0246866Y0659767D01*
X0249279Y0658455D02*
X0249279Y0657144D01*
X0249281Y0657073D01*
X0249287Y0657002D01*
X0249296Y0656932D01*
X0249310Y0656862D01*
X0249327Y0656793D01*
X0249348Y0656725D01*
X0249372Y0656659D01*
X0249400Y0656594D01*
X0249432Y0656530D01*
X0249467Y0656468D01*
X0249505Y0656408D01*
X0249546Y0656351D01*
X0249591Y0656295D01*
X0249638Y0656242D01*
X0249688Y0656192D01*
X0249741Y0656145D01*
X0249797Y0656100D01*
X0249854Y0656059D01*
X0249914Y0656021D01*
X0249976Y0655986D01*
X0250040Y0655954D01*
X0250105Y0655926D01*
X0250171Y0655902D01*
X0250239Y0655881D01*
X0250308Y0655864D01*
X0250378Y0655850D01*
X0250448Y0655841D01*
X0250519Y0655835D01*
X0250590Y0655833D01*
X0250661Y0655835D01*
X0250732Y0655841D01*
X0250802Y0655850D01*
X0250872Y0655864D01*
X0250941Y0655881D01*
X0251009Y0655902D01*
X0251075Y0655926D01*
X0251140Y0655954D01*
X0251204Y0655986D01*
X0251266Y0656021D01*
X0251326Y0656059D01*
X0251383Y0656100D01*
X0251439Y0656145D01*
X0251492Y0656192D01*
X0251542Y0656242D01*
X0251589Y0656295D01*
X0251634Y0656351D01*
X0251675Y0656408D01*
X0251713Y0656468D01*
X0251748Y0656530D01*
X0251780Y0656594D01*
X0251808Y0656659D01*
X0251832Y0656725D01*
X0251853Y0656793D01*
X0251870Y0656862D01*
X0251884Y0656932D01*
X0251893Y0657002D01*
X0251899Y0657073D01*
X0251901Y0657144D01*
X0251901Y0658455D01*
X0251899Y0658526D01*
X0251893Y0658597D01*
X0251884Y0658667D01*
X0251870Y0658737D01*
X0251853Y0658806D01*
X0251832Y0658874D01*
X0251808Y0658940D01*
X0251780Y0659005D01*
X0251748Y0659069D01*
X0251713Y0659131D01*
X0251675Y0659191D01*
X0251634Y0659248D01*
X0251589Y0659304D01*
X0251542Y0659357D01*
X0251492Y0659407D01*
X0251439Y0659454D01*
X0251383Y0659499D01*
X0251326Y0659540D01*
X0251266Y0659578D01*
X0251204Y0659613D01*
X0251140Y0659645D01*
X0251075Y0659673D01*
X0251009Y0659697D01*
X0250941Y0659718D01*
X0250872Y0659735D01*
X0250802Y0659749D01*
X0250732Y0659758D01*
X0250661Y0659764D01*
X0250590Y0659766D01*
X0250519Y0659764D01*
X0250448Y0659758D01*
X0250378Y0659749D01*
X0250308Y0659735D01*
X0250239Y0659718D01*
X0250171Y0659697D01*
X0250105Y0659673D01*
X0250040Y0659645D01*
X0249976Y0659613D01*
X0249914Y0659578D01*
X0249854Y0659540D01*
X0249797Y0659499D01*
X0249741Y0659454D01*
X0249688Y0659407D01*
X0249638Y0659357D01*
X0249591Y0659304D01*
X0249546Y0659248D01*
X0249505Y0659191D01*
X0249467Y0659131D01*
X0249432Y0659069D01*
X0249400Y0659005D01*
X0249372Y0658940D01*
X0249348Y0658874D01*
X0249327Y0658806D01*
X0249310Y0658737D01*
X0249296Y0658667D01*
X0249287Y0658597D01*
X0249281Y0658526D01*
X0249279Y0658455D01*
X0254868Y0659767D02*
X0256834Y0659767D01*
X0256834Y0659111D01*
X0254868Y0659767D02*
X0254868Y0655833D01*
X0258920Y0656817D02*
X0258920Y0658455D01*
X0258920Y0657800D02*
X0261542Y0657800D01*
X0261542Y0658455D01*
X0261540Y0658526D01*
X0261534Y0658597D01*
X0261525Y0658667D01*
X0261511Y0658737D01*
X0261494Y0658806D01*
X0261473Y0658874D01*
X0261449Y0658940D01*
X0261421Y0659005D01*
X0261389Y0659069D01*
X0261354Y0659131D01*
X0261316Y0659191D01*
X0261275Y0659248D01*
X0261230Y0659304D01*
X0261183Y0659357D01*
X0261133Y0659407D01*
X0261080Y0659454D01*
X0261024Y0659499D01*
X0260967Y0659540D01*
X0260907Y0659578D01*
X0260845Y0659613D01*
X0260781Y0659645D01*
X0260716Y0659673D01*
X0260650Y0659697D01*
X0260582Y0659718D01*
X0260513Y0659735D01*
X0260443Y0659749D01*
X0260373Y0659758D01*
X0260302Y0659764D01*
X0260231Y0659766D01*
X0260160Y0659764D01*
X0260089Y0659758D01*
X0260019Y0659749D01*
X0259949Y0659735D01*
X0259880Y0659718D01*
X0259812Y0659697D01*
X0259746Y0659673D01*
X0259681Y0659645D01*
X0259617Y0659613D01*
X0259555Y0659578D01*
X0259495Y0659540D01*
X0259438Y0659499D01*
X0259382Y0659454D01*
X0259329Y0659407D01*
X0259279Y0659357D01*
X0259232Y0659304D01*
X0259187Y0659248D01*
X0259146Y0659191D01*
X0259108Y0659131D01*
X0259073Y0659069D01*
X0259041Y0659005D01*
X0259013Y0658940D01*
X0258989Y0658874D01*
X0258968Y0658806D01*
X0258951Y0658737D01*
X0258937Y0658667D01*
X0258928Y0658597D01*
X0258922Y0658526D01*
X0258920Y0658455D01*
X0258920Y0656817D02*
X0258922Y0656755D01*
X0258928Y0656694D01*
X0258937Y0656633D01*
X0258951Y0656573D01*
X0258968Y0656513D01*
X0258989Y0656455D01*
X0259014Y0656398D01*
X0259042Y0656343D01*
X0259073Y0656290D01*
X0259108Y0656239D01*
X0259146Y0656190D01*
X0259186Y0656144D01*
X0259230Y0656100D01*
X0259276Y0656060D01*
X0259325Y0656022D01*
X0259376Y0655987D01*
X0259429Y0655956D01*
X0259484Y0655928D01*
X0259541Y0655903D01*
X0259599Y0655882D01*
X0259659Y0655865D01*
X0259719Y0655851D01*
X0259780Y0655842D01*
X0259841Y0655836D01*
X0259903Y0655834D01*
X0259903Y0655833D02*
X0261542Y0655833D01*
X0241358Y0657472D02*
X0239719Y0658128D01*
X0239667Y0658151D01*
X0239616Y0658178D01*
X0239567Y0658208D01*
X0239520Y0658241D01*
X0239475Y0658277D01*
X0239433Y0658317D01*
X0239394Y0658359D01*
X0239358Y0658403D01*
X0239325Y0658450D01*
X0239295Y0658500D01*
X0239268Y0658551D01*
X0239245Y0658603D01*
X0239226Y0658657D01*
X0239210Y0658713D01*
X0239198Y0658769D01*
X0239190Y0658826D01*
X0239186Y0658883D01*
X0239185Y0658941D01*
X0239189Y0658998D01*
X0239196Y0659055D01*
X0239208Y0659112D01*
X0239223Y0659167D01*
X0239241Y0659222D01*
X0239264Y0659275D01*
X0239290Y0659326D01*
X0239319Y0659375D01*
X0239352Y0659423D01*
X0239388Y0659468D01*
X0239426Y0659510D01*
X0239468Y0659550D01*
X0239512Y0659587D01*
X0239559Y0659621D01*
X0239607Y0659652D01*
X0239658Y0659679D01*
X0239710Y0659703D01*
X0239764Y0659723D01*
X0239819Y0659739D01*
X0239875Y0659752D01*
X0239932Y0659761D01*
X0239990Y0659766D01*
X0240047Y0659767D01*
X0239227Y0656161D02*
X0239361Y0656115D01*
X0239496Y0656072D01*
X0239632Y0656033D01*
X0239769Y0655997D01*
X0239906Y0655965D01*
X0240045Y0655936D01*
X0240184Y0655910D01*
X0240324Y0655889D01*
X0240465Y0655870D01*
X0240605Y0655856D01*
X0240747Y0655845D01*
X0240888Y0655837D01*
X0241030Y0655834D01*
X0241030Y0655833D02*
X0241087Y0655834D01*
X0241145Y0655839D01*
X0241202Y0655848D01*
X0241258Y0655861D01*
X0241313Y0655877D01*
X0241367Y0655897D01*
X0241419Y0655921D01*
X0241470Y0655948D01*
X0241518Y0655979D01*
X0241565Y0656013D01*
X0241609Y0656050D01*
X0241651Y0656090D01*
X0241689Y0656132D01*
X0241725Y0656177D01*
X0241758Y0656225D01*
X0241787Y0656274D01*
X0241813Y0656325D01*
X0241836Y0656378D01*
X0241854Y0656433D01*
X0241869Y0656488D01*
X0241881Y0656545D01*
X0241888Y0656602D01*
X0241892Y0656659D01*
X0241891Y0656717D01*
X0241887Y0656774D01*
X0241879Y0656831D01*
X0241867Y0656887D01*
X0241851Y0656943D01*
X0241832Y0656997D01*
X0241809Y0657049D01*
X0241782Y0657100D01*
X0241752Y0657150D01*
X0241719Y0657197D01*
X0241683Y0657241D01*
X0241644Y0657283D01*
X0241602Y0657323D01*
X0241557Y0657359D01*
X0241510Y0657392D01*
X0241461Y0657422D01*
X0241410Y0657449D01*
X0241358Y0657472D01*
X0241521Y0659439D02*
X0241414Y0659485D01*
X0241305Y0659528D01*
X0241195Y0659568D01*
X0241083Y0659604D01*
X0240971Y0659636D01*
X0240857Y0659665D01*
X0240743Y0659691D01*
X0240628Y0659712D01*
X0240513Y0659731D01*
X0240396Y0659745D01*
X0240280Y0659756D01*
X0240163Y0659763D01*
X0240046Y0659767D01*
X0236351Y0658128D02*
X0232418Y0658128D01*
X0229747Y0659767D02*
X0228435Y0655833D01*
X0227124Y0659767D01*
X0159542Y0658455D02*
X0159542Y0657800D01*
X0156920Y0657800D01*
X0156920Y0658455D02*
X0156920Y0656817D01*
X0156922Y0656755D01*
X0156928Y0656694D01*
X0156937Y0656633D01*
X0156951Y0656573D01*
X0156968Y0656513D01*
X0156989Y0656455D01*
X0157014Y0656398D01*
X0157042Y0656343D01*
X0157073Y0656290D01*
X0157108Y0656239D01*
X0157146Y0656190D01*
X0157186Y0656144D01*
X0157230Y0656100D01*
X0157276Y0656060D01*
X0157325Y0656022D01*
X0157376Y0655987D01*
X0157429Y0655956D01*
X0157484Y0655928D01*
X0157541Y0655903D01*
X0157599Y0655882D01*
X0157659Y0655865D01*
X0157719Y0655851D01*
X0157780Y0655842D01*
X0157841Y0655836D01*
X0157903Y0655834D01*
X0157903Y0655833D02*
X0159542Y0655833D01*
X0159542Y0658455D02*
X0159540Y0658526D01*
X0159534Y0658597D01*
X0159525Y0658667D01*
X0159511Y0658737D01*
X0159494Y0658806D01*
X0159473Y0658874D01*
X0159449Y0658940D01*
X0159421Y0659005D01*
X0159389Y0659069D01*
X0159354Y0659131D01*
X0159316Y0659191D01*
X0159275Y0659248D01*
X0159230Y0659304D01*
X0159183Y0659357D01*
X0159133Y0659407D01*
X0159080Y0659454D01*
X0159024Y0659499D01*
X0158967Y0659540D01*
X0158907Y0659578D01*
X0158845Y0659613D01*
X0158781Y0659645D01*
X0158716Y0659673D01*
X0158650Y0659697D01*
X0158582Y0659718D01*
X0158513Y0659735D01*
X0158443Y0659749D01*
X0158373Y0659758D01*
X0158302Y0659764D01*
X0158231Y0659766D01*
X0158160Y0659764D01*
X0158089Y0659758D01*
X0158019Y0659749D01*
X0157949Y0659735D01*
X0157880Y0659718D01*
X0157812Y0659697D01*
X0157746Y0659673D01*
X0157681Y0659645D01*
X0157617Y0659613D01*
X0157555Y0659578D01*
X0157495Y0659540D01*
X0157438Y0659499D01*
X0157382Y0659454D01*
X0157329Y0659407D01*
X0157279Y0659357D01*
X0157232Y0659304D01*
X0157187Y0659248D01*
X0157146Y0659191D01*
X0157108Y0659131D01*
X0157073Y0659069D01*
X0157041Y0659005D01*
X0157013Y0658940D01*
X0156989Y0658874D01*
X0156968Y0658806D01*
X0156951Y0658737D01*
X0156937Y0658667D01*
X0156928Y0658597D01*
X0156922Y0658526D01*
X0156920Y0658455D01*
X0154834Y0659111D02*
X0154834Y0659767D01*
X0152868Y0659767D01*
X0152868Y0655833D01*
X0149901Y0657144D02*
X0149901Y0658455D01*
X0149899Y0658526D01*
X0149893Y0658597D01*
X0149884Y0658667D01*
X0149870Y0658737D01*
X0149853Y0658806D01*
X0149832Y0658874D01*
X0149808Y0658940D01*
X0149780Y0659005D01*
X0149748Y0659069D01*
X0149713Y0659131D01*
X0149675Y0659191D01*
X0149634Y0659248D01*
X0149589Y0659304D01*
X0149542Y0659357D01*
X0149492Y0659407D01*
X0149439Y0659454D01*
X0149383Y0659499D01*
X0149326Y0659540D01*
X0149266Y0659578D01*
X0149204Y0659613D01*
X0149140Y0659645D01*
X0149075Y0659673D01*
X0149009Y0659697D01*
X0148941Y0659718D01*
X0148872Y0659735D01*
X0148802Y0659749D01*
X0148732Y0659758D01*
X0148661Y0659764D01*
X0148590Y0659766D01*
X0148519Y0659764D01*
X0148448Y0659758D01*
X0148378Y0659749D01*
X0148308Y0659735D01*
X0148239Y0659718D01*
X0148171Y0659697D01*
X0148105Y0659673D01*
X0148040Y0659645D01*
X0147976Y0659613D01*
X0147914Y0659578D01*
X0147854Y0659540D01*
X0147797Y0659499D01*
X0147741Y0659454D01*
X0147688Y0659407D01*
X0147638Y0659357D01*
X0147591Y0659304D01*
X0147546Y0659248D01*
X0147505Y0659191D01*
X0147467Y0659131D01*
X0147432Y0659069D01*
X0147400Y0659005D01*
X0147372Y0658940D01*
X0147348Y0658874D01*
X0147327Y0658806D01*
X0147310Y0658737D01*
X0147296Y0658667D01*
X0147287Y0658597D01*
X0147281Y0658526D01*
X0147279Y0658455D01*
X0147279Y0657144D01*
X0147281Y0657073D01*
X0147287Y0657002D01*
X0147296Y0656932D01*
X0147310Y0656862D01*
X0147327Y0656793D01*
X0147348Y0656725D01*
X0147372Y0656659D01*
X0147400Y0656594D01*
X0147432Y0656530D01*
X0147467Y0656468D01*
X0147505Y0656408D01*
X0147546Y0656351D01*
X0147591Y0656295D01*
X0147638Y0656242D01*
X0147688Y0656192D01*
X0147741Y0656145D01*
X0147797Y0656100D01*
X0147854Y0656059D01*
X0147914Y0656021D01*
X0147976Y0655986D01*
X0148040Y0655954D01*
X0148105Y0655926D01*
X0148171Y0655902D01*
X0148239Y0655881D01*
X0148308Y0655864D01*
X0148378Y0655850D01*
X0148448Y0655841D01*
X0148519Y0655835D01*
X0148590Y0655833D01*
X0148661Y0655835D01*
X0148732Y0655841D01*
X0148802Y0655850D01*
X0148872Y0655864D01*
X0148941Y0655881D01*
X0149009Y0655902D01*
X0149075Y0655926D01*
X0149140Y0655954D01*
X0149204Y0655986D01*
X0149266Y0656021D01*
X0149326Y0656059D01*
X0149383Y0656100D01*
X0149439Y0656145D01*
X0149492Y0656192D01*
X0149542Y0656242D01*
X0149589Y0656295D01*
X0149634Y0656351D01*
X0149675Y0656408D01*
X0149713Y0656468D01*
X0149748Y0656530D01*
X0149780Y0656594D01*
X0149808Y0656659D01*
X0149832Y0656725D01*
X0149853Y0656793D01*
X0149870Y0656862D01*
X0149884Y0656932D01*
X0149893Y0657002D01*
X0149899Y0657073D01*
X0149901Y0657144D01*
X0144866Y0655833D02*
X0143554Y0655833D01*
X0143554Y0655834D02*
X0143492Y0655836D01*
X0143431Y0655842D01*
X0143370Y0655851D01*
X0143310Y0655865D01*
X0143250Y0655882D01*
X0143192Y0655903D01*
X0143135Y0655928D01*
X0143080Y0655956D01*
X0143027Y0655987D01*
X0142976Y0656022D01*
X0142927Y0656060D01*
X0142881Y0656100D01*
X0142837Y0656144D01*
X0142797Y0656190D01*
X0142759Y0656239D01*
X0142724Y0656290D01*
X0142693Y0656343D01*
X0142665Y0656398D01*
X0142640Y0656455D01*
X0142619Y0656513D01*
X0142602Y0656573D01*
X0142588Y0656633D01*
X0142579Y0656694D01*
X0142573Y0656755D01*
X0142571Y0656817D01*
X0142571Y0658783D01*
X0142573Y0658845D01*
X0142579Y0658906D01*
X0142588Y0658967D01*
X0142602Y0659027D01*
X0142619Y0659087D01*
X0142640Y0659145D01*
X0142665Y0659202D01*
X0142693Y0659257D01*
X0142724Y0659310D01*
X0142759Y0659361D01*
X0142797Y0659410D01*
X0142837Y0659456D01*
X0142881Y0659500D01*
X0142927Y0659540D01*
X0142976Y0659578D01*
X0143027Y0659613D01*
X0143080Y0659644D01*
X0143135Y0659672D01*
X0143192Y0659697D01*
X0143250Y0659718D01*
X0143310Y0659735D01*
X0143370Y0659749D01*
X0143431Y0659758D01*
X0143492Y0659764D01*
X0143554Y0659766D01*
X0143554Y0659767D02*
X0144866Y0659767D01*
X0139358Y0657472D02*
X0137719Y0658128D01*
X0137667Y0658151D01*
X0137616Y0658178D01*
X0137567Y0658208D01*
X0137520Y0658241D01*
X0137475Y0658277D01*
X0137433Y0658317D01*
X0137394Y0658359D01*
X0137358Y0658403D01*
X0137325Y0658450D01*
X0137295Y0658500D01*
X0137268Y0658551D01*
X0137245Y0658603D01*
X0137226Y0658657D01*
X0137210Y0658713D01*
X0137198Y0658769D01*
X0137190Y0658826D01*
X0137186Y0658883D01*
X0137185Y0658941D01*
X0137189Y0658998D01*
X0137196Y0659055D01*
X0137208Y0659112D01*
X0137223Y0659167D01*
X0137241Y0659222D01*
X0137264Y0659275D01*
X0137290Y0659326D01*
X0137319Y0659375D01*
X0137352Y0659423D01*
X0137388Y0659468D01*
X0137426Y0659510D01*
X0137468Y0659550D01*
X0137512Y0659587D01*
X0137559Y0659621D01*
X0137607Y0659652D01*
X0137658Y0659679D01*
X0137710Y0659703D01*
X0137764Y0659723D01*
X0137819Y0659739D01*
X0137875Y0659752D01*
X0137932Y0659761D01*
X0137990Y0659766D01*
X0138047Y0659767D01*
X0137227Y0656161D02*
X0137361Y0656115D01*
X0137496Y0656072D01*
X0137632Y0656033D01*
X0137769Y0655997D01*
X0137906Y0655965D01*
X0138045Y0655936D01*
X0138184Y0655910D01*
X0138324Y0655889D01*
X0138465Y0655870D01*
X0138605Y0655856D01*
X0138747Y0655845D01*
X0138888Y0655837D01*
X0139030Y0655834D01*
X0139030Y0655833D02*
X0139087Y0655834D01*
X0139145Y0655839D01*
X0139202Y0655848D01*
X0139258Y0655861D01*
X0139313Y0655877D01*
X0139367Y0655897D01*
X0139419Y0655921D01*
X0139470Y0655948D01*
X0139518Y0655979D01*
X0139565Y0656013D01*
X0139609Y0656050D01*
X0139651Y0656090D01*
X0139689Y0656132D01*
X0139725Y0656177D01*
X0139758Y0656225D01*
X0139787Y0656274D01*
X0139813Y0656325D01*
X0139836Y0656378D01*
X0139854Y0656433D01*
X0139869Y0656488D01*
X0139881Y0656545D01*
X0139888Y0656602D01*
X0139892Y0656659D01*
X0139891Y0656717D01*
X0139887Y0656774D01*
X0139879Y0656831D01*
X0139867Y0656887D01*
X0139851Y0656943D01*
X0139832Y0656997D01*
X0139809Y0657049D01*
X0139782Y0657100D01*
X0139752Y0657150D01*
X0139719Y0657197D01*
X0139683Y0657241D01*
X0139644Y0657283D01*
X0139602Y0657323D01*
X0139557Y0657359D01*
X0139510Y0657392D01*
X0139461Y0657422D01*
X0139410Y0657449D01*
X0139358Y0657472D01*
X0139521Y0659439D02*
X0139414Y0659485D01*
X0139305Y0659528D01*
X0139195Y0659568D01*
X0139083Y0659604D01*
X0138971Y0659636D01*
X0138857Y0659665D01*
X0138743Y0659691D01*
X0138628Y0659712D01*
X0138513Y0659731D01*
X0138396Y0659745D01*
X0138280Y0659756D01*
X0138163Y0659763D01*
X0138046Y0659767D01*
X0134351Y0658128D02*
X0130418Y0658128D01*
X0127747Y0659767D02*
X0126435Y0655833D01*
X0125124Y0659767D01*
X0329124Y0659767D02*
X0330435Y0655833D01*
X0331747Y0659767D01*
X0334418Y0658128D02*
X0338351Y0658128D01*
X0341719Y0658128D02*
X0343358Y0657472D01*
X0343410Y0657449D01*
X0343461Y0657422D01*
X0343510Y0657392D01*
X0343557Y0657359D01*
X0343602Y0657323D01*
X0343644Y0657283D01*
X0343683Y0657241D01*
X0343719Y0657197D01*
X0343752Y0657150D01*
X0343782Y0657100D01*
X0343809Y0657049D01*
X0343832Y0656997D01*
X0343851Y0656943D01*
X0343867Y0656887D01*
X0343879Y0656831D01*
X0343887Y0656774D01*
X0343891Y0656717D01*
X0343892Y0656659D01*
X0343888Y0656602D01*
X0343881Y0656545D01*
X0343869Y0656488D01*
X0343854Y0656433D01*
X0343836Y0656378D01*
X0343813Y0656325D01*
X0343787Y0656274D01*
X0343758Y0656225D01*
X0343725Y0656177D01*
X0343689Y0656132D01*
X0343651Y0656090D01*
X0343609Y0656050D01*
X0343565Y0656013D01*
X0343518Y0655979D01*
X0343470Y0655948D01*
X0343419Y0655921D01*
X0343367Y0655897D01*
X0343313Y0655877D01*
X0343258Y0655861D01*
X0343202Y0655848D01*
X0343145Y0655839D01*
X0343087Y0655834D01*
X0343030Y0655833D01*
X0343521Y0659439D02*
X0343414Y0659485D01*
X0343305Y0659528D01*
X0343195Y0659568D01*
X0343083Y0659604D01*
X0342971Y0659636D01*
X0342857Y0659665D01*
X0342743Y0659691D01*
X0342628Y0659712D01*
X0342513Y0659731D01*
X0342396Y0659745D01*
X0342280Y0659756D01*
X0342163Y0659763D01*
X0342046Y0659767D01*
X0342047Y0659767D02*
X0341990Y0659766D01*
X0341932Y0659761D01*
X0341875Y0659752D01*
X0341819Y0659739D01*
X0341764Y0659723D01*
X0341710Y0659703D01*
X0341658Y0659679D01*
X0341607Y0659652D01*
X0341559Y0659621D01*
X0341512Y0659587D01*
X0341468Y0659550D01*
X0341426Y0659510D01*
X0341388Y0659468D01*
X0341352Y0659423D01*
X0341319Y0659375D01*
X0341290Y0659326D01*
X0341264Y0659275D01*
X0341241Y0659222D01*
X0341223Y0659167D01*
X0341208Y0659112D01*
X0341196Y0659055D01*
X0341189Y0658998D01*
X0341185Y0658941D01*
X0341186Y0658883D01*
X0341190Y0658826D01*
X0341198Y0658769D01*
X0341210Y0658713D01*
X0341226Y0658657D01*
X0341245Y0658603D01*
X0341268Y0658551D01*
X0341295Y0658500D01*
X0341325Y0658450D01*
X0341358Y0658403D01*
X0341394Y0658359D01*
X0341433Y0658317D01*
X0341475Y0658277D01*
X0341520Y0658241D01*
X0341567Y0658208D01*
X0341616Y0658178D01*
X0341667Y0658151D01*
X0341719Y0658128D01*
X0341227Y0656161D02*
X0341361Y0656115D01*
X0341496Y0656072D01*
X0341632Y0656033D01*
X0341769Y0655997D01*
X0341906Y0655965D01*
X0342045Y0655936D01*
X0342184Y0655910D01*
X0342324Y0655889D01*
X0342465Y0655870D01*
X0342605Y0655856D01*
X0342747Y0655845D01*
X0342888Y0655837D01*
X0343030Y0655834D01*
X0346571Y0656817D02*
X0346571Y0658783D01*
X0346573Y0658845D01*
X0346579Y0658906D01*
X0346588Y0658967D01*
X0346602Y0659027D01*
X0346619Y0659087D01*
X0346640Y0659145D01*
X0346665Y0659202D01*
X0346693Y0659257D01*
X0346724Y0659310D01*
X0346759Y0659361D01*
X0346797Y0659410D01*
X0346837Y0659456D01*
X0346881Y0659500D01*
X0346927Y0659540D01*
X0346976Y0659578D01*
X0347027Y0659613D01*
X0347080Y0659644D01*
X0347135Y0659672D01*
X0347192Y0659697D01*
X0347250Y0659718D01*
X0347310Y0659735D01*
X0347370Y0659749D01*
X0347431Y0659758D01*
X0347492Y0659764D01*
X0347554Y0659766D01*
X0347554Y0659767D02*
X0348866Y0659767D01*
X0351279Y0658455D02*
X0351279Y0657144D01*
X0351281Y0657073D01*
X0351287Y0657002D01*
X0351296Y0656932D01*
X0351310Y0656862D01*
X0351327Y0656793D01*
X0351348Y0656725D01*
X0351372Y0656659D01*
X0351400Y0656594D01*
X0351432Y0656530D01*
X0351467Y0656468D01*
X0351505Y0656408D01*
X0351546Y0656351D01*
X0351591Y0656295D01*
X0351638Y0656242D01*
X0351688Y0656192D01*
X0351741Y0656145D01*
X0351797Y0656100D01*
X0351854Y0656059D01*
X0351914Y0656021D01*
X0351976Y0655986D01*
X0352040Y0655954D01*
X0352105Y0655926D01*
X0352171Y0655902D01*
X0352239Y0655881D01*
X0352308Y0655864D01*
X0352378Y0655850D01*
X0352448Y0655841D01*
X0352519Y0655835D01*
X0352590Y0655833D01*
X0352661Y0655835D01*
X0352732Y0655841D01*
X0352802Y0655850D01*
X0352872Y0655864D01*
X0352941Y0655881D01*
X0353009Y0655902D01*
X0353075Y0655926D01*
X0353140Y0655954D01*
X0353204Y0655986D01*
X0353266Y0656021D01*
X0353326Y0656059D01*
X0353383Y0656100D01*
X0353439Y0656145D01*
X0353492Y0656192D01*
X0353542Y0656242D01*
X0353589Y0656295D01*
X0353634Y0656351D01*
X0353675Y0656408D01*
X0353713Y0656468D01*
X0353748Y0656530D01*
X0353780Y0656594D01*
X0353808Y0656659D01*
X0353832Y0656725D01*
X0353853Y0656793D01*
X0353870Y0656862D01*
X0353884Y0656932D01*
X0353893Y0657002D01*
X0353899Y0657073D01*
X0353901Y0657144D01*
X0353901Y0658455D01*
X0353899Y0658526D01*
X0353893Y0658597D01*
X0353884Y0658667D01*
X0353870Y0658737D01*
X0353853Y0658806D01*
X0353832Y0658874D01*
X0353808Y0658940D01*
X0353780Y0659005D01*
X0353748Y0659069D01*
X0353713Y0659131D01*
X0353675Y0659191D01*
X0353634Y0659248D01*
X0353589Y0659304D01*
X0353542Y0659357D01*
X0353492Y0659407D01*
X0353439Y0659454D01*
X0353383Y0659499D01*
X0353326Y0659540D01*
X0353266Y0659578D01*
X0353204Y0659613D01*
X0353140Y0659645D01*
X0353075Y0659673D01*
X0353009Y0659697D01*
X0352941Y0659718D01*
X0352872Y0659735D01*
X0352802Y0659749D01*
X0352732Y0659758D01*
X0352661Y0659764D01*
X0352590Y0659766D01*
X0352519Y0659764D01*
X0352448Y0659758D01*
X0352378Y0659749D01*
X0352308Y0659735D01*
X0352239Y0659718D01*
X0352171Y0659697D01*
X0352105Y0659673D01*
X0352040Y0659645D01*
X0351976Y0659613D01*
X0351914Y0659578D01*
X0351854Y0659540D01*
X0351797Y0659499D01*
X0351741Y0659454D01*
X0351688Y0659407D01*
X0351638Y0659357D01*
X0351591Y0659304D01*
X0351546Y0659248D01*
X0351505Y0659191D01*
X0351467Y0659131D01*
X0351432Y0659069D01*
X0351400Y0659005D01*
X0351372Y0658940D01*
X0351348Y0658874D01*
X0351327Y0658806D01*
X0351310Y0658737D01*
X0351296Y0658667D01*
X0351287Y0658597D01*
X0351281Y0658526D01*
X0351279Y0658455D01*
X0348866Y0655833D02*
X0347554Y0655833D01*
X0347554Y0655834D02*
X0347492Y0655836D01*
X0347431Y0655842D01*
X0347370Y0655851D01*
X0347310Y0655865D01*
X0347250Y0655882D01*
X0347192Y0655903D01*
X0347135Y0655928D01*
X0347080Y0655956D01*
X0347027Y0655987D01*
X0346976Y0656022D01*
X0346927Y0656060D01*
X0346881Y0656100D01*
X0346837Y0656144D01*
X0346797Y0656190D01*
X0346759Y0656239D01*
X0346724Y0656290D01*
X0346693Y0656343D01*
X0346665Y0656398D01*
X0346640Y0656455D01*
X0346619Y0656513D01*
X0346602Y0656573D01*
X0346588Y0656633D01*
X0346579Y0656694D01*
X0346573Y0656755D01*
X0346571Y0656817D01*
X0356868Y0655833D02*
X0356868Y0659767D01*
X0358834Y0659767D01*
X0358834Y0659111D01*
X0360920Y0658455D02*
X0360920Y0656817D01*
X0360920Y0657800D02*
X0363542Y0657800D01*
X0363542Y0658455D01*
X0363540Y0658526D01*
X0363534Y0658597D01*
X0363525Y0658667D01*
X0363511Y0658737D01*
X0363494Y0658806D01*
X0363473Y0658874D01*
X0363449Y0658940D01*
X0363421Y0659005D01*
X0363389Y0659069D01*
X0363354Y0659131D01*
X0363316Y0659191D01*
X0363275Y0659248D01*
X0363230Y0659304D01*
X0363183Y0659357D01*
X0363133Y0659407D01*
X0363080Y0659454D01*
X0363024Y0659499D01*
X0362967Y0659540D01*
X0362907Y0659578D01*
X0362845Y0659613D01*
X0362781Y0659645D01*
X0362716Y0659673D01*
X0362650Y0659697D01*
X0362582Y0659718D01*
X0362513Y0659735D01*
X0362443Y0659749D01*
X0362373Y0659758D01*
X0362302Y0659764D01*
X0362231Y0659766D01*
X0362160Y0659764D01*
X0362089Y0659758D01*
X0362019Y0659749D01*
X0361949Y0659735D01*
X0361880Y0659718D01*
X0361812Y0659697D01*
X0361746Y0659673D01*
X0361681Y0659645D01*
X0361617Y0659613D01*
X0361555Y0659578D01*
X0361495Y0659540D01*
X0361438Y0659499D01*
X0361382Y0659454D01*
X0361329Y0659407D01*
X0361279Y0659357D01*
X0361232Y0659304D01*
X0361187Y0659248D01*
X0361146Y0659191D01*
X0361108Y0659131D01*
X0361073Y0659069D01*
X0361041Y0659005D01*
X0361013Y0658940D01*
X0360989Y0658874D01*
X0360968Y0658806D01*
X0360951Y0658737D01*
X0360937Y0658667D01*
X0360928Y0658597D01*
X0360922Y0658526D01*
X0360920Y0658455D01*
X0360920Y0656817D02*
X0360922Y0656755D01*
X0360928Y0656694D01*
X0360937Y0656633D01*
X0360951Y0656573D01*
X0360968Y0656513D01*
X0360989Y0656455D01*
X0361014Y0656398D01*
X0361042Y0656343D01*
X0361073Y0656290D01*
X0361108Y0656239D01*
X0361146Y0656190D01*
X0361186Y0656144D01*
X0361230Y0656100D01*
X0361276Y0656060D01*
X0361325Y0656022D01*
X0361376Y0655987D01*
X0361429Y0655956D01*
X0361484Y0655928D01*
X0361541Y0655903D01*
X0361599Y0655882D01*
X0361659Y0655865D01*
X0361719Y0655851D01*
X0361780Y0655842D01*
X0361841Y0655836D01*
X0361903Y0655834D01*
X0361903Y0655833D02*
X0363542Y0655833D01*
X0431124Y0659767D02*
X0432435Y0655833D01*
X0433747Y0659767D01*
X0436418Y0658128D02*
X0440351Y0658128D01*
X0443719Y0658128D02*
X0445358Y0657472D01*
X0445410Y0657449D01*
X0445461Y0657422D01*
X0445510Y0657392D01*
X0445557Y0657359D01*
X0445602Y0657323D01*
X0445644Y0657283D01*
X0445683Y0657241D01*
X0445719Y0657197D01*
X0445752Y0657150D01*
X0445782Y0657100D01*
X0445809Y0657049D01*
X0445832Y0656997D01*
X0445851Y0656943D01*
X0445867Y0656887D01*
X0445879Y0656831D01*
X0445887Y0656774D01*
X0445891Y0656717D01*
X0445892Y0656659D01*
X0445888Y0656602D01*
X0445881Y0656545D01*
X0445869Y0656488D01*
X0445854Y0656433D01*
X0445836Y0656378D01*
X0445813Y0656325D01*
X0445787Y0656274D01*
X0445758Y0656225D01*
X0445725Y0656177D01*
X0445689Y0656132D01*
X0445651Y0656090D01*
X0445609Y0656050D01*
X0445565Y0656013D01*
X0445518Y0655979D01*
X0445470Y0655948D01*
X0445419Y0655921D01*
X0445367Y0655897D01*
X0445313Y0655877D01*
X0445258Y0655861D01*
X0445202Y0655848D01*
X0445145Y0655839D01*
X0445087Y0655834D01*
X0445030Y0655833D01*
X0445521Y0659439D02*
X0445414Y0659485D01*
X0445305Y0659528D01*
X0445195Y0659568D01*
X0445083Y0659604D01*
X0444971Y0659636D01*
X0444857Y0659665D01*
X0444743Y0659691D01*
X0444628Y0659712D01*
X0444513Y0659731D01*
X0444396Y0659745D01*
X0444280Y0659756D01*
X0444163Y0659763D01*
X0444046Y0659767D01*
X0444047Y0659767D02*
X0443990Y0659766D01*
X0443932Y0659761D01*
X0443875Y0659752D01*
X0443819Y0659739D01*
X0443764Y0659723D01*
X0443710Y0659703D01*
X0443658Y0659679D01*
X0443607Y0659652D01*
X0443559Y0659621D01*
X0443512Y0659587D01*
X0443468Y0659550D01*
X0443426Y0659510D01*
X0443388Y0659468D01*
X0443352Y0659423D01*
X0443319Y0659375D01*
X0443290Y0659326D01*
X0443264Y0659275D01*
X0443241Y0659222D01*
X0443223Y0659167D01*
X0443208Y0659112D01*
X0443196Y0659055D01*
X0443189Y0658998D01*
X0443185Y0658941D01*
X0443186Y0658883D01*
X0443190Y0658826D01*
X0443198Y0658769D01*
X0443210Y0658713D01*
X0443226Y0658657D01*
X0443245Y0658603D01*
X0443268Y0658551D01*
X0443295Y0658500D01*
X0443325Y0658450D01*
X0443358Y0658403D01*
X0443394Y0658359D01*
X0443433Y0658317D01*
X0443475Y0658277D01*
X0443520Y0658241D01*
X0443567Y0658208D01*
X0443616Y0658178D01*
X0443667Y0658151D01*
X0443719Y0658128D01*
X0443227Y0656161D02*
X0443361Y0656115D01*
X0443496Y0656072D01*
X0443632Y0656033D01*
X0443769Y0655997D01*
X0443906Y0655965D01*
X0444045Y0655936D01*
X0444184Y0655910D01*
X0444324Y0655889D01*
X0444465Y0655870D01*
X0444605Y0655856D01*
X0444747Y0655845D01*
X0444888Y0655837D01*
X0445030Y0655834D01*
X0448571Y0656817D02*
X0448571Y0658783D01*
X0448573Y0658845D01*
X0448579Y0658906D01*
X0448588Y0658967D01*
X0448602Y0659027D01*
X0448619Y0659087D01*
X0448640Y0659145D01*
X0448665Y0659202D01*
X0448693Y0659257D01*
X0448724Y0659310D01*
X0448759Y0659361D01*
X0448797Y0659410D01*
X0448837Y0659456D01*
X0448881Y0659500D01*
X0448927Y0659540D01*
X0448976Y0659578D01*
X0449027Y0659613D01*
X0449080Y0659644D01*
X0449135Y0659672D01*
X0449192Y0659697D01*
X0449250Y0659718D01*
X0449310Y0659735D01*
X0449370Y0659749D01*
X0449431Y0659758D01*
X0449492Y0659764D01*
X0449554Y0659766D01*
X0449554Y0659767D02*
X0450866Y0659767D01*
X0453279Y0658455D02*
X0453279Y0657144D01*
X0453281Y0657073D01*
X0453287Y0657002D01*
X0453296Y0656932D01*
X0453310Y0656862D01*
X0453327Y0656793D01*
X0453348Y0656725D01*
X0453372Y0656659D01*
X0453400Y0656594D01*
X0453432Y0656530D01*
X0453467Y0656468D01*
X0453505Y0656408D01*
X0453546Y0656351D01*
X0453591Y0656295D01*
X0453638Y0656242D01*
X0453688Y0656192D01*
X0453741Y0656145D01*
X0453797Y0656100D01*
X0453854Y0656059D01*
X0453914Y0656021D01*
X0453976Y0655986D01*
X0454040Y0655954D01*
X0454105Y0655926D01*
X0454171Y0655902D01*
X0454239Y0655881D01*
X0454308Y0655864D01*
X0454378Y0655850D01*
X0454448Y0655841D01*
X0454519Y0655835D01*
X0454590Y0655833D01*
X0454661Y0655835D01*
X0454732Y0655841D01*
X0454802Y0655850D01*
X0454872Y0655864D01*
X0454941Y0655881D01*
X0455009Y0655902D01*
X0455075Y0655926D01*
X0455140Y0655954D01*
X0455204Y0655986D01*
X0455266Y0656021D01*
X0455326Y0656059D01*
X0455383Y0656100D01*
X0455439Y0656145D01*
X0455492Y0656192D01*
X0455542Y0656242D01*
X0455589Y0656295D01*
X0455634Y0656351D01*
X0455675Y0656408D01*
X0455713Y0656468D01*
X0455748Y0656530D01*
X0455780Y0656594D01*
X0455808Y0656659D01*
X0455832Y0656725D01*
X0455853Y0656793D01*
X0455870Y0656862D01*
X0455884Y0656932D01*
X0455893Y0657002D01*
X0455899Y0657073D01*
X0455901Y0657144D01*
X0455901Y0658455D01*
X0455899Y0658526D01*
X0455893Y0658597D01*
X0455884Y0658667D01*
X0455870Y0658737D01*
X0455853Y0658806D01*
X0455832Y0658874D01*
X0455808Y0658940D01*
X0455780Y0659005D01*
X0455748Y0659069D01*
X0455713Y0659131D01*
X0455675Y0659191D01*
X0455634Y0659248D01*
X0455589Y0659304D01*
X0455542Y0659357D01*
X0455492Y0659407D01*
X0455439Y0659454D01*
X0455383Y0659499D01*
X0455326Y0659540D01*
X0455266Y0659578D01*
X0455204Y0659613D01*
X0455140Y0659645D01*
X0455075Y0659673D01*
X0455009Y0659697D01*
X0454941Y0659718D01*
X0454872Y0659735D01*
X0454802Y0659749D01*
X0454732Y0659758D01*
X0454661Y0659764D01*
X0454590Y0659766D01*
X0454519Y0659764D01*
X0454448Y0659758D01*
X0454378Y0659749D01*
X0454308Y0659735D01*
X0454239Y0659718D01*
X0454171Y0659697D01*
X0454105Y0659673D01*
X0454040Y0659645D01*
X0453976Y0659613D01*
X0453914Y0659578D01*
X0453854Y0659540D01*
X0453797Y0659499D01*
X0453741Y0659454D01*
X0453688Y0659407D01*
X0453638Y0659357D01*
X0453591Y0659304D01*
X0453546Y0659248D01*
X0453505Y0659191D01*
X0453467Y0659131D01*
X0453432Y0659069D01*
X0453400Y0659005D01*
X0453372Y0658940D01*
X0453348Y0658874D01*
X0453327Y0658806D01*
X0453310Y0658737D01*
X0453296Y0658667D01*
X0453287Y0658597D01*
X0453281Y0658526D01*
X0453279Y0658455D01*
X0450866Y0655833D02*
X0449554Y0655833D01*
X0449554Y0655834D02*
X0449492Y0655836D01*
X0449431Y0655842D01*
X0449370Y0655851D01*
X0449310Y0655865D01*
X0449250Y0655882D01*
X0449192Y0655903D01*
X0449135Y0655928D01*
X0449080Y0655956D01*
X0449027Y0655987D01*
X0448976Y0656022D01*
X0448927Y0656060D01*
X0448881Y0656100D01*
X0448837Y0656144D01*
X0448797Y0656190D01*
X0448759Y0656239D01*
X0448724Y0656290D01*
X0448693Y0656343D01*
X0448665Y0656398D01*
X0448640Y0656455D01*
X0448619Y0656513D01*
X0448602Y0656573D01*
X0448588Y0656633D01*
X0448579Y0656694D01*
X0448573Y0656755D01*
X0448571Y0656817D01*
X0458868Y0655833D02*
X0458868Y0659767D01*
X0460834Y0659767D01*
X0460834Y0659111D01*
X0462920Y0658455D02*
X0462920Y0656817D01*
X0462920Y0657800D02*
X0465542Y0657800D01*
X0465542Y0658455D01*
X0465540Y0658526D01*
X0465534Y0658597D01*
X0465525Y0658667D01*
X0465511Y0658737D01*
X0465494Y0658806D01*
X0465473Y0658874D01*
X0465449Y0658940D01*
X0465421Y0659005D01*
X0465389Y0659069D01*
X0465354Y0659131D01*
X0465316Y0659191D01*
X0465275Y0659248D01*
X0465230Y0659304D01*
X0465183Y0659357D01*
X0465133Y0659407D01*
X0465080Y0659454D01*
X0465024Y0659499D01*
X0464967Y0659540D01*
X0464907Y0659578D01*
X0464845Y0659613D01*
X0464781Y0659645D01*
X0464716Y0659673D01*
X0464650Y0659697D01*
X0464582Y0659718D01*
X0464513Y0659735D01*
X0464443Y0659749D01*
X0464373Y0659758D01*
X0464302Y0659764D01*
X0464231Y0659766D01*
X0464160Y0659764D01*
X0464089Y0659758D01*
X0464019Y0659749D01*
X0463949Y0659735D01*
X0463880Y0659718D01*
X0463812Y0659697D01*
X0463746Y0659673D01*
X0463681Y0659645D01*
X0463617Y0659613D01*
X0463555Y0659578D01*
X0463495Y0659540D01*
X0463438Y0659499D01*
X0463382Y0659454D01*
X0463329Y0659407D01*
X0463279Y0659357D01*
X0463232Y0659304D01*
X0463187Y0659248D01*
X0463146Y0659191D01*
X0463108Y0659131D01*
X0463073Y0659069D01*
X0463041Y0659005D01*
X0463013Y0658940D01*
X0462989Y0658874D01*
X0462968Y0658806D01*
X0462951Y0658737D01*
X0462937Y0658667D01*
X0462928Y0658597D01*
X0462922Y0658526D01*
X0462920Y0658455D01*
X0462920Y0656817D02*
X0462922Y0656755D01*
X0462928Y0656694D01*
X0462937Y0656633D01*
X0462951Y0656573D01*
X0462968Y0656513D01*
X0462989Y0656455D01*
X0463014Y0656398D01*
X0463042Y0656343D01*
X0463073Y0656290D01*
X0463108Y0656239D01*
X0463146Y0656190D01*
X0463186Y0656144D01*
X0463230Y0656100D01*
X0463276Y0656060D01*
X0463325Y0656022D01*
X0463376Y0655987D01*
X0463429Y0655956D01*
X0463484Y0655928D01*
X0463541Y0655903D01*
X0463599Y0655882D01*
X0463659Y0655865D01*
X0463719Y0655851D01*
X0463780Y0655842D01*
X0463841Y0655836D01*
X0463903Y0655834D01*
X0463903Y0655833D02*
X0465542Y0655833D01*
X0512124Y0599767D02*
X0513435Y0595833D01*
X0514747Y0599767D01*
X0517418Y0598128D02*
X0521351Y0598128D01*
X0524719Y0598128D02*
X0526358Y0597472D01*
X0526410Y0597449D01*
X0526461Y0597422D01*
X0526510Y0597392D01*
X0526557Y0597359D01*
X0526602Y0597323D01*
X0526644Y0597283D01*
X0526683Y0597241D01*
X0526719Y0597197D01*
X0526752Y0597150D01*
X0526782Y0597100D01*
X0526809Y0597049D01*
X0526832Y0596997D01*
X0526851Y0596943D01*
X0526867Y0596887D01*
X0526879Y0596831D01*
X0526887Y0596774D01*
X0526891Y0596717D01*
X0526892Y0596659D01*
X0526888Y0596602D01*
X0526881Y0596545D01*
X0526869Y0596488D01*
X0526854Y0596433D01*
X0526836Y0596378D01*
X0526813Y0596325D01*
X0526787Y0596274D01*
X0526758Y0596225D01*
X0526725Y0596177D01*
X0526689Y0596132D01*
X0526651Y0596090D01*
X0526609Y0596050D01*
X0526565Y0596013D01*
X0526518Y0595979D01*
X0526470Y0595948D01*
X0526419Y0595921D01*
X0526367Y0595897D01*
X0526313Y0595877D01*
X0526258Y0595861D01*
X0526202Y0595848D01*
X0526145Y0595839D01*
X0526087Y0595834D01*
X0526030Y0595833D01*
X0526521Y0599439D02*
X0526414Y0599485D01*
X0526305Y0599528D01*
X0526195Y0599568D01*
X0526083Y0599604D01*
X0525971Y0599636D01*
X0525857Y0599665D01*
X0525743Y0599691D01*
X0525628Y0599712D01*
X0525513Y0599731D01*
X0525396Y0599745D01*
X0525280Y0599756D01*
X0525163Y0599763D01*
X0525046Y0599767D01*
X0525047Y0599767D02*
X0524990Y0599766D01*
X0524932Y0599761D01*
X0524875Y0599752D01*
X0524819Y0599739D01*
X0524764Y0599723D01*
X0524710Y0599703D01*
X0524658Y0599679D01*
X0524607Y0599652D01*
X0524559Y0599621D01*
X0524512Y0599587D01*
X0524468Y0599550D01*
X0524426Y0599510D01*
X0524388Y0599468D01*
X0524352Y0599423D01*
X0524319Y0599375D01*
X0524290Y0599326D01*
X0524264Y0599275D01*
X0524241Y0599222D01*
X0524223Y0599167D01*
X0524208Y0599112D01*
X0524196Y0599055D01*
X0524189Y0598998D01*
X0524185Y0598941D01*
X0524186Y0598883D01*
X0524190Y0598826D01*
X0524198Y0598769D01*
X0524210Y0598713D01*
X0524226Y0598657D01*
X0524245Y0598603D01*
X0524268Y0598551D01*
X0524295Y0598500D01*
X0524325Y0598450D01*
X0524358Y0598403D01*
X0524394Y0598359D01*
X0524433Y0598317D01*
X0524475Y0598277D01*
X0524520Y0598241D01*
X0524567Y0598208D01*
X0524616Y0598178D01*
X0524667Y0598151D01*
X0524719Y0598128D01*
X0524227Y0596161D02*
X0524361Y0596115D01*
X0524496Y0596072D01*
X0524632Y0596033D01*
X0524769Y0595997D01*
X0524906Y0595965D01*
X0525045Y0595936D01*
X0525184Y0595910D01*
X0525324Y0595889D01*
X0525465Y0595870D01*
X0525605Y0595856D01*
X0525747Y0595845D01*
X0525888Y0595837D01*
X0526030Y0595834D01*
X0529571Y0596817D02*
X0529571Y0598783D01*
X0529573Y0598845D01*
X0529579Y0598906D01*
X0529588Y0598967D01*
X0529602Y0599027D01*
X0529619Y0599087D01*
X0529640Y0599145D01*
X0529665Y0599202D01*
X0529693Y0599257D01*
X0529724Y0599310D01*
X0529759Y0599361D01*
X0529797Y0599410D01*
X0529837Y0599456D01*
X0529881Y0599500D01*
X0529927Y0599540D01*
X0529976Y0599578D01*
X0530027Y0599613D01*
X0530080Y0599644D01*
X0530135Y0599672D01*
X0530192Y0599697D01*
X0530250Y0599718D01*
X0530310Y0599735D01*
X0530370Y0599749D01*
X0530431Y0599758D01*
X0530492Y0599764D01*
X0530554Y0599766D01*
X0530554Y0599767D02*
X0531866Y0599767D01*
X0534279Y0598455D02*
X0534279Y0597144D01*
X0534281Y0597073D01*
X0534287Y0597002D01*
X0534296Y0596932D01*
X0534310Y0596862D01*
X0534327Y0596793D01*
X0534348Y0596725D01*
X0534372Y0596659D01*
X0534400Y0596594D01*
X0534432Y0596530D01*
X0534467Y0596468D01*
X0534505Y0596408D01*
X0534546Y0596351D01*
X0534591Y0596295D01*
X0534638Y0596242D01*
X0534688Y0596192D01*
X0534741Y0596145D01*
X0534797Y0596100D01*
X0534854Y0596059D01*
X0534914Y0596021D01*
X0534976Y0595986D01*
X0535040Y0595954D01*
X0535105Y0595926D01*
X0535171Y0595902D01*
X0535239Y0595881D01*
X0535308Y0595864D01*
X0535378Y0595850D01*
X0535448Y0595841D01*
X0535519Y0595835D01*
X0535590Y0595833D01*
X0535661Y0595835D01*
X0535732Y0595841D01*
X0535802Y0595850D01*
X0535872Y0595864D01*
X0535941Y0595881D01*
X0536009Y0595902D01*
X0536075Y0595926D01*
X0536140Y0595954D01*
X0536204Y0595986D01*
X0536266Y0596021D01*
X0536326Y0596059D01*
X0536383Y0596100D01*
X0536439Y0596145D01*
X0536492Y0596192D01*
X0536542Y0596242D01*
X0536589Y0596295D01*
X0536634Y0596351D01*
X0536675Y0596408D01*
X0536713Y0596468D01*
X0536748Y0596530D01*
X0536780Y0596594D01*
X0536808Y0596659D01*
X0536832Y0596725D01*
X0536853Y0596793D01*
X0536870Y0596862D01*
X0536884Y0596932D01*
X0536893Y0597002D01*
X0536899Y0597073D01*
X0536901Y0597144D01*
X0536901Y0598455D01*
X0536899Y0598526D01*
X0536893Y0598597D01*
X0536884Y0598667D01*
X0536870Y0598737D01*
X0536853Y0598806D01*
X0536832Y0598874D01*
X0536808Y0598940D01*
X0536780Y0599005D01*
X0536748Y0599069D01*
X0536713Y0599131D01*
X0536675Y0599191D01*
X0536634Y0599248D01*
X0536589Y0599304D01*
X0536542Y0599357D01*
X0536492Y0599407D01*
X0536439Y0599454D01*
X0536383Y0599499D01*
X0536326Y0599540D01*
X0536266Y0599578D01*
X0536204Y0599613D01*
X0536140Y0599645D01*
X0536075Y0599673D01*
X0536009Y0599697D01*
X0535941Y0599718D01*
X0535872Y0599735D01*
X0535802Y0599749D01*
X0535732Y0599758D01*
X0535661Y0599764D01*
X0535590Y0599766D01*
X0535519Y0599764D01*
X0535448Y0599758D01*
X0535378Y0599749D01*
X0535308Y0599735D01*
X0535239Y0599718D01*
X0535171Y0599697D01*
X0535105Y0599673D01*
X0535040Y0599645D01*
X0534976Y0599613D01*
X0534914Y0599578D01*
X0534854Y0599540D01*
X0534797Y0599499D01*
X0534741Y0599454D01*
X0534688Y0599407D01*
X0534638Y0599357D01*
X0534591Y0599304D01*
X0534546Y0599248D01*
X0534505Y0599191D01*
X0534467Y0599131D01*
X0534432Y0599069D01*
X0534400Y0599005D01*
X0534372Y0598940D01*
X0534348Y0598874D01*
X0534327Y0598806D01*
X0534310Y0598737D01*
X0534296Y0598667D01*
X0534287Y0598597D01*
X0534281Y0598526D01*
X0534279Y0598455D01*
X0531866Y0595833D02*
X0530554Y0595833D01*
X0530554Y0595834D02*
X0530492Y0595836D01*
X0530431Y0595842D01*
X0530370Y0595851D01*
X0530310Y0595865D01*
X0530250Y0595882D01*
X0530192Y0595903D01*
X0530135Y0595928D01*
X0530080Y0595956D01*
X0530027Y0595987D01*
X0529976Y0596022D01*
X0529927Y0596060D01*
X0529881Y0596100D01*
X0529837Y0596144D01*
X0529797Y0596190D01*
X0529759Y0596239D01*
X0529724Y0596290D01*
X0529693Y0596343D01*
X0529665Y0596398D01*
X0529640Y0596455D01*
X0529619Y0596513D01*
X0529602Y0596573D01*
X0529588Y0596633D01*
X0529579Y0596694D01*
X0529573Y0596755D01*
X0529571Y0596817D01*
X0539868Y0595833D02*
X0539868Y0599767D01*
X0541834Y0599767D01*
X0541834Y0599111D01*
X0543920Y0598455D02*
X0543920Y0596817D01*
X0543920Y0597800D02*
X0546542Y0597800D01*
X0546542Y0598455D01*
X0546540Y0598526D01*
X0546534Y0598597D01*
X0546525Y0598667D01*
X0546511Y0598737D01*
X0546494Y0598806D01*
X0546473Y0598874D01*
X0546449Y0598940D01*
X0546421Y0599005D01*
X0546389Y0599069D01*
X0546354Y0599131D01*
X0546316Y0599191D01*
X0546275Y0599248D01*
X0546230Y0599304D01*
X0546183Y0599357D01*
X0546133Y0599407D01*
X0546080Y0599454D01*
X0546024Y0599499D01*
X0545967Y0599540D01*
X0545907Y0599578D01*
X0545845Y0599613D01*
X0545781Y0599645D01*
X0545716Y0599673D01*
X0545650Y0599697D01*
X0545582Y0599718D01*
X0545513Y0599735D01*
X0545443Y0599749D01*
X0545373Y0599758D01*
X0545302Y0599764D01*
X0545231Y0599766D01*
X0545160Y0599764D01*
X0545089Y0599758D01*
X0545019Y0599749D01*
X0544949Y0599735D01*
X0544880Y0599718D01*
X0544812Y0599697D01*
X0544746Y0599673D01*
X0544681Y0599645D01*
X0544617Y0599613D01*
X0544555Y0599578D01*
X0544495Y0599540D01*
X0544438Y0599499D01*
X0544382Y0599454D01*
X0544329Y0599407D01*
X0544279Y0599357D01*
X0544232Y0599304D01*
X0544187Y0599248D01*
X0544146Y0599191D01*
X0544108Y0599131D01*
X0544073Y0599069D01*
X0544041Y0599005D01*
X0544013Y0598940D01*
X0543989Y0598874D01*
X0543968Y0598806D01*
X0543951Y0598737D01*
X0543937Y0598667D01*
X0543928Y0598597D01*
X0543922Y0598526D01*
X0543920Y0598455D01*
X0543920Y0596817D02*
X0543922Y0596755D01*
X0543928Y0596694D01*
X0543937Y0596633D01*
X0543951Y0596573D01*
X0543968Y0596513D01*
X0543989Y0596455D01*
X0544014Y0596398D01*
X0544042Y0596343D01*
X0544073Y0596290D01*
X0544108Y0596239D01*
X0544146Y0596190D01*
X0544186Y0596144D01*
X0544230Y0596100D01*
X0544276Y0596060D01*
X0544325Y0596022D01*
X0544376Y0595987D01*
X0544429Y0595956D01*
X0544484Y0595928D01*
X0544541Y0595903D01*
X0544599Y0595882D01*
X0544659Y0595865D01*
X0544719Y0595851D01*
X0544780Y0595842D01*
X0544841Y0595836D01*
X0544903Y0595834D01*
X0544903Y0595833D02*
X0546542Y0595833D01*
X0524227Y0444161D02*
X0524361Y0444115D01*
X0524496Y0444072D01*
X0524632Y0444033D01*
X0524769Y0443997D01*
X0524906Y0443965D01*
X0525045Y0443936D01*
X0525184Y0443910D01*
X0525324Y0443889D01*
X0525465Y0443870D01*
X0525605Y0443856D01*
X0525747Y0443845D01*
X0525888Y0443837D01*
X0526030Y0443834D01*
X0526030Y0443833D02*
X0526087Y0443834D01*
X0526145Y0443839D01*
X0526202Y0443848D01*
X0526258Y0443861D01*
X0526313Y0443877D01*
X0526367Y0443897D01*
X0526419Y0443921D01*
X0526470Y0443948D01*
X0526518Y0443979D01*
X0526565Y0444013D01*
X0526609Y0444050D01*
X0526651Y0444090D01*
X0526689Y0444132D01*
X0526725Y0444177D01*
X0526758Y0444225D01*
X0526787Y0444274D01*
X0526813Y0444325D01*
X0526836Y0444378D01*
X0526854Y0444433D01*
X0526869Y0444488D01*
X0526881Y0444545D01*
X0526888Y0444602D01*
X0526892Y0444659D01*
X0526891Y0444717D01*
X0526887Y0444774D01*
X0526879Y0444831D01*
X0526867Y0444887D01*
X0526851Y0444943D01*
X0526832Y0444997D01*
X0526809Y0445049D01*
X0526782Y0445100D01*
X0526752Y0445150D01*
X0526719Y0445197D01*
X0526683Y0445241D01*
X0526644Y0445283D01*
X0526602Y0445323D01*
X0526557Y0445359D01*
X0526510Y0445392D01*
X0526461Y0445422D01*
X0526410Y0445449D01*
X0526358Y0445472D01*
X0524719Y0446128D01*
X0524667Y0446151D01*
X0524616Y0446178D01*
X0524567Y0446208D01*
X0524520Y0446241D01*
X0524475Y0446277D01*
X0524433Y0446317D01*
X0524394Y0446359D01*
X0524358Y0446403D01*
X0524325Y0446450D01*
X0524295Y0446500D01*
X0524268Y0446551D01*
X0524245Y0446603D01*
X0524226Y0446657D01*
X0524210Y0446713D01*
X0524198Y0446769D01*
X0524190Y0446826D01*
X0524186Y0446883D01*
X0524185Y0446941D01*
X0524189Y0446998D01*
X0524196Y0447055D01*
X0524208Y0447112D01*
X0524223Y0447167D01*
X0524241Y0447222D01*
X0524264Y0447275D01*
X0524290Y0447326D01*
X0524319Y0447375D01*
X0524352Y0447423D01*
X0524388Y0447468D01*
X0524426Y0447510D01*
X0524468Y0447550D01*
X0524512Y0447587D01*
X0524559Y0447621D01*
X0524607Y0447652D01*
X0524658Y0447679D01*
X0524710Y0447703D01*
X0524764Y0447723D01*
X0524819Y0447739D01*
X0524875Y0447752D01*
X0524932Y0447761D01*
X0524990Y0447766D01*
X0525047Y0447767D01*
X0525046Y0447767D02*
X0525163Y0447763D01*
X0525280Y0447756D01*
X0525396Y0447745D01*
X0525513Y0447731D01*
X0525628Y0447712D01*
X0525743Y0447691D01*
X0525857Y0447665D01*
X0525971Y0447636D01*
X0526083Y0447604D01*
X0526195Y0447568D01*
X0526305Y0447528D01*
X0526414Y0447485D01*
X0526521Y0447439D01*
X0529571Y0446783D02*
X0529571Y0444817D01*
X0529573Y0444755D01*
X0529579Y0444694D01*
X0529588Y0444633D01*
X0529602Y0444573D01*
X0529619Y0444513D01*
X0529640Y0444455D01*
X0529665Y0444398D01*
X0529693Y0444343D01*
X0529724Y0444290D01*
X0529759Y0444239D01*
X0529797Y0444190D01*
X0529837Y0444144D01*
X0529881Y0444100D01*
X0529927Y0444060D01*
X0529976Y0444022D01*
X0530027Y0443987D01*
X0530080Y0443956D01*
X0530135Y0443928D01*
X0530192Y0443903D01*
X0530250Y0443882D01*
X0530310Y0443865D01*
X0530370Y0443851D01*
X0530431Y0443842D01*
X0530492Y0443836D01*
X0530554Y0443834D01*
X0530554Y0443833D02*
X0531866Y0443833D01*
X0534279Y0445144D02*
X0534279Y0446455D01*
X0534281Y0446526D01*
X0534287Y0446597D01*
X0534296Y0446667D01*
X0534310Y0446737D01*
X0534327Y0446806D01*
X0534348Y0446874D01*
X0534372Y0446940D01*
X0534400Y0447005D01*
X0534432Y0447069D01*
X0534467Y0447131D01*
X0534505Y0447191D01*
X0534546Y0447248D01*
X0534591Y0447304D01*
X0534638Y0447357D01*
X0534688Y0447407D01*
X0534741Y0447454D01*
X0534797Y0447499D01*
X0534854Y0447540D01*
X0534914Y0447578D01*
X0534976Y0447613D01*
X0535040Y0447645D01*
X0535105Y0447673D01*
X0535171Y0447697D01*
X0535239Y0447718D01*
X0535308Y0447735D01*
X0535378Y0447749D01*
X0535448Y0447758D01*
X0535519Y0447764D01*
X0535590Y0447766D01*
X0535661Y0447764D01*
X0535732Y0447758D01*
X0535802Y0447749D01*
X0535872Y0447735D01*
X0535941Y0447718D01*
X0536009Y0447697D01*
X0536075Y0447673D01*
X0536140Y0447645D01*
X0536204Y0447613D01*
X0536266Y0447578D01*
X0536326Y0447540D01*
X0536383Y0447499D01*
X0536439Y0447454D01*
X0536492Y0447407D01*
X0536542Y0447357D01*
X0536589Y0447304D01*
X0536634Y0447248D01*
X0536675Y0447191D01*
X0536713Y0447131D01*
X0536748Y0447069D01*
X0536780Y0447005D01*
X0536808Y0446940D01*
X0536832Y0446874D01*
X0536853Y0446806D01*
X0536870Y0446737D01*
X0536884Y0446667D01*
X0536893Y0446597D01*
X0536899Y0446526D01*
X0536901Y0446455D01*
X0536901Y0445144D01*
X0536899Y0445073D01*
X0536893Y0445002D01*
X0536884Y0444932D01*
X0536870Y0444862D01*
X0536853Y0444793D01*
X0536832Y0444725D01*
X0536808Y0444659D01*
X0536780Y0444594D01*
X0536748Y0444530D01*
X0536713Y0444468D01*
X0536675Y0444408D01*
X0536634Y0444351D01*
X0536589Y0444295D01*
X0536542Y0444242D01*
X0536492Y0444192D01*
X0536439Y0444145D01*
X0536383Y0444100D01*
X0536326Y0444059D01*
X0536266Y0444021D01*
X0536204Y0443986D01*
X0536140Y0443954D01*
X0536075Y0443926D01*
X0536009Y0443902D01*
X0535941Y0443881D01*
X0535872Y0443864D01*
X0535802Y0443850D01*
X0535732Y0443841D01*
X0535661Y0443835D01*
X0535590Y0443833D01*
X0535519Y0443835D01*
X0535448Y0443841D01*
X0535378Y0443850D01*
X0535308Y0443864D01*
X0535239Y0443881D01*
X0535171Y0443902D01*
X0535105Y0443926D01*
X0535040Y0443954D01*
X0534976Y0443986D01*
X0534914Y0444021D01*
X0534854Y0444059D01*
X0534797Y0444100D01*
X0534741Y0444145D01*
X0534688Y0444192D01*
X0534638Y0444242D01*
X0534591Y0444295D01*
X0534546Y0444351D01*
X0534505Y0444408D01*
X0534467Y0444468D01*
X0534432Y0444530D01*
X0534400Y0444594D01*
X0534372Y0444659D01*
X0534348Y0444725D01*
X0534327Y0444793D01*
X0534310Y0444862D01*
X0534296Y0444932D01*
X0534287Y0445002D01*
X0534281Y0445073D01*
X0534279Y0445144D01*
X0531866Y0447767D02*
X0530554Y0447767D01*
X0530554Y0447766D02*
X0530492Y0447764D01*
X0530431Y0447758D01*
X0530370Y0447749D01*
X0530310Y0447735D01*
X0530250Y0447718D01*
X0530192Y0447697D01*
X0530135Y0447672D01*
X0530080Y0447644D01*
X0530027Y0447613D01*
X0529976Y0447578D01*
X0529927Y0447540D01*
X0529881Y0447500D01*
X0529837Y0447456D01*
X0529797Y0447410D01*
X0529759Y0447361D01*
X0529724Y0447310D01*
X0529693Y0447257D01*
X0529665Y0447202D01*
X0529640Y0447145D01*
X0529619Y0447087D01*
X0529602Y0447027D01*
X0529588Y0446967D01*
X0529579Y0446906D01*
X0529573Y0446845D01*
X0529571Y0446783D01*
X0521351Y0446128D02*
X0517418Y0446128D01*
X0514747Y0447767D02*
X0513435Y0443833D01*
X0512124Y0447767D01*
X0539868Y0447767D02*
X0539868Y0443833D01*
X0541834Y0447111D02*
X0541834Y0447767D01*
X0539868Y0447767D01*
X0543920Y0446455D02*
X0543920Y0444817D01*
X0543920Y0445800D02*
X0546542Y0445800D01*
X0546542Y0446455D01*
X0546540Y0446526D01*
X0546534Y0446597D01*
X0546525Y0446667D01*
X0546511Y0446737D01*
X0546494Y0446806D01*
X0546473Y0446874D01*
X0546449Y0446940D01*
X0546421Y0447005D01*
X0546389Y0447069D01*
X0546354Y0447131D01*
X0546316Y0447191D01*
X0546275Y0447248D01*
X0546230Y0447304D01*
X0546183Y0447357D01*
X0546133Y0447407D01*
X0546080Y0447454D01*
X0546024Y0447499D01*
X0545967Y0447540D01*
X0545907Y0447578D01*
X0545845Y0447613D01*
X0545781Y0447645D01*
X0545716Y0447673D01*
X0545650Y0447697D01*
X0545582Y0447718D01*
X0545513Y0447735D01*
X0545443Y0447749D01*
X0545373Y0447758D01*
X0545302Y0447764D01*
X0545231Y0447766D01*
X0545160Y0447764D01*
X0545089Y0447758D01*
X0545019Y0447749D01*
X0544949Y0447735D01*
X0544880Y0447718D01*
X0544812Y0447697D01*
X0544746Y0447673D01*
X0544681Y0447645D01*
X0544617Y0447613D01*
X0544555Y0447578D01*
X0544495Y0447540D01*
X0544438Y0447499D01*
X0544382Y0447454D01*
X0544329Y0447407D01*
X0544279Y0447357D01*
X0544232Y0447304D01*
X0544187Y0447248D01*
X0544146Y0447191D01*
X0544108Y0447131D01*
X0544073Y0447069D01*
X0544041Y0447005D01*
X0544013Y0446940D01*
X0543989Y0446874D01*
X0543968Y0446806D01*
X0543951Y0446737D01*
X0543937Y0446667D01*
X0543928Y0446597D01*
X0543922Y0446526D01*
X0543920Y0446455D01*
X0543920Y0444817D02*
X0543922Y0444755D01*
X0543928Y0444694D01*
X0543937Y0444633D01*
X0543951Y0444573D01*
X0543968Y0444513D01*
X0543989Y0444455D01*
X0544014Y0444398D01*
X0544042Y0444343D01*
X0544073Y0444290D01*
X0544108Y0444239D01*
X0544146Y0444190D01*
X0544186Y0444144D01*
X0544230Y0444100D01*
X0544276Y0444060D01*
X0544325Y0444022D01*
X0544376Y0443987D01*
X0544429Y0443956D01*
X0544484Y0443928D01*
X0544541Y0443903D01*
X0544599Y0443882D01*
X0544659Y0443865D01*
X0544719Y0443851D01*
X0544780Y0443842D01*
X0544841Y0443836D01*
X0544903Y0443834D01*
X0544903Y0443833D02*
X0546542Y0443833D01*
X0524227Y0292161D02*
X0524361Y0292115D01*
X0524496Y0292072D01*
X0524632Y0292033D01*
X0524769Y0291997D01*
X0524906Y0291965D01*
X0525045Y0291936D01*
X0525184Y0291910D01*
X0525324Y0291889D01*
X0525465Y0291870D01*
X0525605Y0291856D01*
X0525747Y0291845D01*
X0525888Y0291837D01*
X0526030Y0291834D01*
X0526030Y0291833D02*
X0526087Y0291834D01*
X0526145Y0291839D01*
X0526202Y0291848D01*
X0526258Y0291861D01*
X0526313Y0291877D01*
X0526367Y0291897D01*
X0526419Y0291921D01*
X0526470Y0291948D01*
X0526518Y0291979D01*
X0526565Y0292013D01*
X0526609Y0292050D01*
X0526651Y0292090D01*
X0526689Y0292132D01*
X0526725Y0292177D01*
X0526758Y0292225D01*
X0526787Y0292274D01*
X0526813Y0292325D01*
X0526836Y0292378D01*
X0526854Y0292433D01*
X0526869Y0292488D01*
X0526881Y0292545D01*
X0526888Y0292602D01*
X0526892Y0292659D01*
X0526891Y0292717D01*
X0526887Y0292774D01*
X0526879Y0292831D01*
X0526867Y0292887D01*
X0526851Y0292943D01*
X0526832Y0292997D01*
X0526809Y0293049D01*
X0526782Y0293100D01*
X0526752Y0293150D01*
X0526719Y0293197D01*
X0526683Y0293241D01*
X0526644Y0293283D01*
X0526602Y0293323D01*
X0526557Y0293359D01*
X0526510Y0293392D01*
X0526461Y0293422D01*
X0526410Y0293449D01*
X0526358Y0293472D01*
X0524719Y0294128D01*
X0524667Y0294151D01*
X0524616Y0294178D01*
X0524567Y0294208D01*
X0524520Y0294241D01*
X0524475Y0294277D01*
X0524433Y0294317D01*
X0524394Y0294359D01*
X0524358Y0294403D01*
X0524325Y0294450D01*
X0524295Y0294500D01*
X0524268Y0294551D01*
X0524245Y0294603D01*
X0524226Y0294657D01*
X0524210Y0294713D01*
X0524198Y0294769D01*
X0524190Y0294826D01*
X0524186Y0294883D01*
X0524185Y0294941D01*
X0524189Y0294998D01*
X0524196Y0295055D01*
X0524208Y0295112D01*
X0524223Y0295167D01*
X0524241Y0295222D01*
X0524264Y0295275D01*
X0524290Y0295326D01*
X0524319Y0295375D01*
X0524352Y0295423D01*
X0524388Y0295468D01*
X0524426Y0295510D01*
X0524468Y0295550D01*
X0524512Y0295587D01*
X0524559Y0295621D01*
X0524607Y0295652D01*
X0524658Y0295679D01*
X0524710Y0295703D01*
X0524764Y0295723D01*
X0524819Y0295739D01*
X0524875Y0295752D01*
X0524932Y0295761D01*
X0524990Y0295766D01*
X0525047Y0295767D01*
X0525046Y0295767D02*
X0525163Y0295763D01*
X0525280Y0295756D01*
X0525396Y0295745D01*
X0525513Y0295731D01*
X0525628Y0295712D01*
X0525743Y0295691D01*
X0525857Y0295665D01*
X0525971Y0295636D01*
X0526083Y0295604D01*
X0526195Y0295568D01*
X0526305Y0295528D01*
X0526414Y0295485D01*
X0526521Y0295439D01*
X0529571Y0294783D02*
X0529571Y0292817D01*
X0529573Y0292755D01*
X0529579Y0292694D01*
X0529588Y0292633D01*
X0529602Y0292573D01*
X0529619Y0292513D01*
X0529640Y0292455D01*
X0529665Y0292398D01*
X0529693Y0292343D01*
X0529724Y0292290D01*
X0529759Y0292239D01*
X0529797Y0292190D01*
X0529837Y0292144D01*
X0529881Y0292100D01*
X0529927Y0292060D01*
X0529976Y0292022D01*
X0530027Y0291987D01*
X0530080Y0291956D01*
X0530135Y0291928D01*
X0530192Y0291903D01*
X0530250Y0291882D01*
X0530310Y0291865D01*
X0530370Y0291851D01*
X0530431Y0291842D01*
X0530492Y0291836D01*
X0530554Y0291834D01*
X0530554Y0291833D02*
X0531866Y0291833D01*
X0534279Y0293144D02*
X0534279Y0294455D01*
X0534281Y0294526D01*
X0534287Y0294597D01*
X0534296Y0294667D01*
X0534310Y0294737D01*
X0534327Y0294806D01*
X0534348Y0294874D01*
X0534372Y0294940D01*
X0534400Y0295005D01*
X0534432Y0295069D01*
X0534467Y0295131D01*
X0534505Y0295191D01*
X0534546Y0295248D01*
X0534591Y0295304D01*
X0534638Y0295357D01*
X0534688Y0295407D01*
X0534741Y0295454D01*
X0534797Y0295499D01*
X0534854Y0295540D01*
X0534914Y0295578D01*
X0534976Y0295613D01*
X0535040Y0295645D01*
X0535105Y0295673D01*
X0535171Y0295697D01*
X0535239Y0295718D01*
X0535308Y0295735D01*
X0535378Y0295749D01*
X0535448Y0295758D01*
X0535519Y0295764D01*
X0535590Y0295766D01*
X0535661Y0295764D01*
X0535732Y0295758D01*
X0535802Y0295749D01*
X0535872Y0295735D01*
X0535941Y0295718D01*
X0536009Y0295697D01*
X0536075Y0295673D01*
X0536140Y0295645D01*
X0536204Y0295613D01*
X0536266Y0295578D01*
X0536326Y0295540D01*
X0536383Y0295499D01*
X0536439Y0295454D01*
X0536492Y0295407D01*
X0536542Y0295357D01*
X0536589Y0295304D01*
X0536634Y0295248D01*
X0536675Y0295191D01*
X0536713Y0295131D01*
X0536748Y0295069D01*
X0536780Y0295005D01*
X0536808Y0294940D01*
X0536832Y0294874D01*
X0536853Y0294806D01*
X0536870Y0294737D01*
X0536884Y0294667D01*
X0536893Y0294597D01*
X0536899Y0294526D01*
X0536901Y0294455D01*
X0536901Y0293144D01*
X0536899Y0293073D01*
X0536893Y0293002D01*
X0536884Y0292932D01*
X0536870Y0292862D01*
X0536853Y0292793D01*
X0536832Y0292725D01*
X0536808Y0292659D01*
X0536780Y0292594D01*
X0536748Y0292530D01*
X0536713Y0292468D01*
X0536675Y0292408D01*
X0536634Y0292351D01*
X0536589Y0292295D01*
X0536542Y0292242D01*
X0536492Y0292192D01*
X0536439Y0292145D01*
X0536383Y0292100D01*
X0536326Y0292059D01*
X0536266Y0292021D01*
X0536204Y0291986D01*
X0536140Y0291954D01*
X0536075Y0291926D01*
X0536009Y0291902D01*
X0535941Y0291881D01*
X0535872Y0291864D01*
X0535802Y0291850D01*
X0535732Y0291841D01*
X0535661Y0291835D01*
X0535590Y0291833D01*
X0535519Y0291835D01*
X0535448Y0291841D01*
X0535378Y0291850D01*
X0535308Y0291864D01*
X0535239Y0291881D01*
X0535171Y0291902D01*
X0535105Y0291926D01*
X0535040Y0291954D01*
X0534976Y0291986D01*
X0534914Y0292021D01*
X0534854Y0292059D01*
X0534797Y0292100D01*
X0534741Y0292145D01*
X0534688Y0292192D01*
X0534638Y0292242D01*
X0534591Y0292295D01*
X0534546Y0292351D01*
X0534505Y0292408D01*
X0534467Y0292468D01*
X0534432Y0292530D01*
X0534400Y0292594D01*
X0534372Y0292659D01*
X0534348Y0292725D01*
X0534327Y0292793D01*
X0534310Y0292862D01*
X0534296Y0292932D01*
X0534287Y0293002D01*
X0534281Y0293073D01*
X0534279Y0293144D01*
X0531866Y0295767D02*
X0530554Y0295767D01*
X0530554Y0295766D02*
X0530492Y0295764D01*
X0530431Y0295758D01*
X0530370Y0295749D01*
X0530310Y0295735D01*
X0530250Y0295718D01*
X0530192Y0295697D01*
X0530135Y0295672D01*
X0530080Y0295644D01*
X0530027Y0295613D01*
X0529976Y0295578D01*
X0529927Y0295540D01*
X0529881Y0295500D01*
X0529837Y0295456D01*
X0529797Y0295410D01*
X0529759Y0295361D01*
X0529724Y0295310D01*
X0529693Y0295257D01*
X0529665Y0295202D01*
X0529640Y0295145D01*
X0529619Y0295087D01*
X0529602Y0295027D01*
X0529588Y0294967D01*
X0529579Y0294906D01*
X0529573Y0294845D01*
X0529571Y0294783D01*
X0521351Y0294128D02*
X0517418Y0294128D01*
X0514747Y0295767D02*
X0513435Y0291833D01*
X0512124Y0295767D01*
X0539868Y0295767D02*
X0539868Y0291833D01*
X0541834Y0295111D02*
X0541834Y0295767D01*
X0539868Y0295767D01*
X0543920Y0294455D02*
X0543920Y0292817D01*
X0543920Y0293800D02*
X0546542Y0293800D01*
X0546542Y0294455D01*
X0546540Y0294526D01*
X0546534Y0294597D01*
X0546525Y0294667D01*
X0546511Y0294737D01*
X0546494Y0294806D01*
X0546473Y0294874D01*
X0546449Y0294940D01*
X0546421Y0295005D01*
X0546389Y0295069D01*
X0546354Y0295131D01*
X0546316Y0295191D01*
X0546275Y0295248D01*
X0546230Y0295304D01*
X0546183Y0295357D01*
X0546133Y0295407D01*
X0546080Y0295454D01*
X0546024Y0295499D01*
X0545967Y0295540D01*
X0545907Y0295578D01*
X0545845Y0295613D01*
X0545781Y0295645D01*
X0545716Y0295673D01*
X0545650Y0295697D01*
X0545582Y0295718D01*
X0545513Y0295735D01*
X0545443Y0295749D01*
X0545373Y0295758D01*
X0545302Y0295764D01*
X0545231Y0295766D01*
X0545160Y0295764D01*
X0545089Y0295758D01*
X0545019Y0295749D01*
X0544949Y0295735D01*
X0544880Y0295718D01*
X0544812Y0295697D01*
X0544746Y0295673D01*
X0544681Y0295645D01*
X0544617Y0295613D01*
X0544555Y0295578D01*
X0544495Y0295540D01*
X0544438Y0295499D01*
X0544382Y0295454D01*
X0544329Y0295407D01*
X0544279Y0295357D01*
X0544232Y0295304D01*
X0544187Y0295248D01*
X0544146Y0295191D01*
X0544108Y0295131D01*
X0544073Y0295069D01*
X0544041Y0295005D01*
X0544013Y0294940D01*
X0543989Y0294874D01*
X0543968Y0294806D01*
X0543951Y0294737D01*
X0543937Y0294667D01*
X0543928Y0294597D01*
X0543922Y0294526D01*
X0543920Y0294455D01*
X0543920Y0292817D02*
X0543922Y0292755D01*
X0543928Y0292694D01*
X0543937Y0292633D01*
X0543951Y0292573D01*
X0543968Y0292513D01*
X0543989Y0292455D01*
X0544014Y0292398D01*
X0544042Y0292343D01*
X0544073Y0292290D01*
X0544108Y0292239D01*
X0544146Y0292190D01*
X0544186Y0292144D01*
X0544230Y0292100D01*
X0544276Y0292060D01*
X0544325Y0292022D01*
X0544376Y0291987D01*
X0544429Y0291956D01*
X0544484Y0291928D01*
X0544541Y0291903D01*
X0544599Y0291882D01*
X0544659Y0291865D01*
X0544719Y0291851D01*
X0544780Y0291842D01*
X0544841Y0291836D01*
X0544903Y0291834D01*
X0544903Y0291833D02*
X0546542Y0291833D01*
D13*
X0116333Y0293783D02*
X0116333Y0268783D01*
X0474333Y0268783D01*
X0474333Y0293783D01*
X0116333Y0293783D01*
X0116333Y0295783D02*
X0116333Y0597783D01*
X0141333Y0597783D01*
X0141333Y0295783D01*
X0116333Y0295783D01*
X0116333Y0599783D02*
X0116333Y0624783D01*
X0474333Y0624783D01*
X0474333Y0599783D01*
X0116333Y0599783D01*
X0449333Y0597783D02*
X0449333Y0295783D01*
X0474333Y0295783D01*
X0474333Y0597783D01*
X0449333Y0597783D01*
D14*
X0430833Y0587783D02*
X0430835Y0587944D01*
X0430841Y0588104D01*
X0430851Y0588265D01*
X0430865Y0588425D01*
X0430883Y0588585D01*
X0430904Y0588744D01*
X0430930Y0588903D01*
X0430960Y0589061D01*
X0430993Y0589218D01*
X0431031Y0589375D01*
X0431072Y0589530D01*
X0431117Y0589684D01*
X0431166Y0589837D01*
X0431219Y0589989D01*
X0431275Y0590140D01*
X0431336Y0590289D01*
X0431399Y0590437D01*
X0431467Y0590583D01*
X0431538Y0590727D01*
X0431612Y0590869D01*
X0431690Y0591010D01*
X0431772Y0591148D01*
X0431857Y0591285D01*
X0431945Y0591419D01*
X0432037Y0591551D01*
X0432132Y0591681D01*
X0432230Y0591809D01*
X0432331Y0591934D01*
X0432435Y0592056D01*
X0432542Y0592176D01*
X0432652Y0592293D01*
X0432765Y0592408D01*
X0432881Y0592519D01*
X0433000Y0592628D01*
X0433121Y0592733D01*
X0433245Y0592836D01*
X0433371Y0592936D01*
X0433499Y0593032D01*
X0433630Y0593125D01*
X0433764Y0593215D01*
X0433899Y0593302D01*
X0434037Y0593385D01*
X0434176Y0593465D01*
X0434318Y0593541D01*
X0434461Y0593614D01*
X0434606Y0593683D01*
X0434753Y0593749D01*
X0434901Y0593811D01*
X0435051Y0593869D01*
X0435202Y0593924D01*
X0435355Y0593975D01*
X0435509Y0594022D01*
X0435664Y0594065D01*
X0435820Y0594104D01*
X0435976Y0594140D01*
X0436134Y0594171D01*
X0436292Y0594199D01*
X0436451Y0594223D01*
X0436611Y0594243D01*
X0436771Y0594259D01*
X0436931Y0594271D01*
X0437092Y0594279D01*
X0437253Y0594283D01*
X0437413Y0594283D01*
X0437574Y0594279D01*
X0437735Y0594271D01*
X0437895Y0594259D01*
X0438055Y0594243D01*
X0438215Y0594223D01*
X0438374Y0594199D01*
X0438532Y0594171D01*
X0438690Y0594140D01*
X0438846Y0594104D01*
X0439002Y0594065D01*
X0439157Y0594022D01*
X0439311Y0593975D01*
X0439464Y0593924D01*
X0439615Y0593869D01*
X0439765Y0593811D01*
X0439913Y0593749D01*
X0440060Y0593683D01*
X0440205Y0593614D01*
X0440348Y0593541D01*
X0440490Y0593465D01*
X0440629Y0593385D01*
X0440767Y0593302D01*
X0440902Y0593215D01*
X0441036Y0593125D01*
X0441167Y0593032D01*
X0441295Y0592936D01*
X0441421Y0592836D01*
X0441545Y0592733D01*
X0441666Y0592628D01*
X0441785Y0592519D01*
X0441901Y0592408D01*
X0442014Y0592293D01*
X0442124Y0592176D01*
X0442231Y0592056D01*
X0442335Y0591934D01*
X0442436Y0591809D01*
X0442534Y0591681D01*
X0442629Y0591551D01*
X0442721Y0591419D01*
X0442809Y0591285D01*
X0442894Y0591148D01*
X0442976Y0591010D01*
X0443054Y0590869D01*
X0443128Y0590727D01*
X0443199Y0590583D01*
X0443267Y0590437D01*
X0443330Y0590289D01*
X0443391Y0590140D01*
X0443447Y0589989D01*
X0443500Y0589837D01*
X0443549Y0589684D01*
X0443594Y0589530D01*
X0443635Y0589375D01*
X0443673Y0589218D01*
X0443706Y0589061D01*
X0443736Y0588903D01*
X0443762Y0588744D01*
X0443783Y0588585D01*
X0443801Y0588425D01*
X0443815Y0588265D01*
X0443825Y0588104D01*
X0443831Y0587944D01*
X0443833Y0587783D01*
X0443831Y0587622D01*
X0443825Y0587462D01*
X0443815Y0587301D01*
X0443801Y0587141D01*
X0443783Y0586981D01*
X0443762Y0586822D01*
X0443736Y0586663D01*
X0443706Y0586505D01*
X0443673Y0586348D01*
X0443635Y0586191D01*
X0443594Y0586036D01*
X0443549Y0585882D01*
X0443500Y0585729D01*
X0443447Y0585577D01*
X0443391Y0585426D01*
X0443330Y0585277D01*
X0443267Y0585129D01*
X0443199Y0584983D01*
X0443128Y0584839D01*
X0443054Y0584697D01*
X0442976Y0584556D01*
X0442894Y0584418D01*
X0442809Y0584281D01*
X0442721Y0584147D01*
X0442629Y0584015D01*
X0442534Y0583885D01*
X0442436Y0583757D01*
X0442335Y0583632D01*
X0442231Y0583510D01*
X0442124Y0583390D01*
X0442014Y0583273D01*
X0441901Y0583158D01*
X0441785Y0583047D01*
X0441666Y0582938D01*
X0441545Y0582833D01*
X0441421Y0582730D01*
X0441295Y0582630D01*
X0441167Y0582534D01*
X0441036Y0582441D01*
X0440902Y0582351D01*
X0440767Y0582264D01*
X0440629Y0582181D01*
X0440490Y0582101D01*
X0440348Y0582025D01*
X0440205Y0581952D01*
X0440060Y0581883D01*
X0439913Y0581817D01*
X0439765Y0581755D01*
X0439615Y0581697D01*
X0439464Y0581642D01*
X0439311Y0581591D01*
X0439157Y0581544D01*
X0439002Y0581501D01*
X0438846Y0581462D01*
X0438690Y0581426D01*
X0438532Y0581395D01*
X0438374Y0581367D01*
X0438215Y0581343D01*
X0438055Y0581323D01*
X0437895Y0581307D01*
X0437735Y0581295D01*
X0437574Y0581287D01*
X0437413Y0581283D01*
X0437253Y0581283D01*
X0437092Y0581287D01*
X0436931Y0581295D01*
X0436771Y0581307D01*
X0436611Y0581323D01*
X0436451Y0581343D01*
X0436292Y0581367D01*
X0436134Y0581395D01*
X0435976Y0581426D01*
X0435820Y0581462D01*
X0435664Y0581501D01*
X0435509Y0581544D01*
X0435355Y0581591D01*
X0435202Y0581642D01*
X0435051Y0581697D01*
X0434901Y0581755D01*
X0434753Y0581817D01*
X0434606Y0581883D01*
X0434461Y0581952D01*
X0434318Y0582025D01*
X0434176Y0582101D01*
X0434037Y0582181D01*
X0433899Y0582264D01*
X0433764Y0582351D01*
X0433630Y0582441D01*
X0433499Y0582534D01*
X0433371Y0582630D01*
X0433245Y0582730D01*
X0433121Y0582833D01*
X0433000Y0582938D01*
X0432881Y0583047D01*
X0432765Y0583158D01*
X0432652Y0583273D01*
X0432542Y0583390D01*
X0432435Y0583510D01*
X0432331Y0583632D01*
X0432230Y0583757D01*
X0432132Y0583885D01*
X0432037Y0584015D01*
X0431945Y0584147D01*
X0431857Y0584281D01*
X0431772Y0584418D01*
X0431690Y0584556D01*
X0431612Y0584697D01*
X0431538Y0584839D01*
X0431467Y0584983D01*
X0431399Y0585129D01*
X0431336Y0585277D01*
X0431275Y0585426D01*
X0431219Y0585577D01*
X0431166Y0585729D01*
X0431117Y0585882D01*
X0431072Y0586036D01*
X0431031Y0586191D01*
X0430993Y0586348D01*
X0430960Y0586505D01*
X0430930Y0586663D01*
X0430904Y0586822D01*
X0430883Y0586981D01*
X0430865Y0587141D01*
X0430851Y0587301D01*
X0430841Y0587462D01*
X0430835Y0587622D01*
X0430833Y0587783D01*
X0430833Y0507783D02*
X0430835Y0507944D01*
X0430841Y0508104D01*
X0430851Y0508265D01*
X0430865Y0508425D01*
X0430883Y0508585D01*
X0430904Y0508744D01*
X0430930Y0508903D01*
X0430960Y0509061D01*
X0430993Y0509218D01*
X0431031Y0509375D01*
X0431072Y0509530D01*
X0431117Y0509684D01*
X0431166Y0509837D01*
X0431219Y0509989D01*
X0431275Y0510140D01*
X0431336Y0510289D01*
X0431399Y0510437D01*
X0431467Y0510583D01*
X0431538Y0510727D01*
X0431612Y0510869D01*
X0431690Y0511010D01*
X0431772Y0511148D01*
X0431857Y0511285D01*
X0431945Y0511419D01*
X0432037Y0511551D01*
X0432132Y0511681D01*
X0432230Y0511809D01*
X0432331Y0511934D01*
X0432435Y0512056D01*
X0432542Y0512176D01*
X0432652Y0512293D01*
X0432765Y0512408D01*
X0432881Y0512519D01*
X0433000Y0512628D01*
X0433121Y0512733D01*
X0433245Y0512836D01*
X0433371Y0512936D01*
X0433499Y0513032D01*
X0433630Y0513125D01*
X0433764Y0513215D01*
X0433899Y0513302D01*
X0434037Y0513385D01*
X0434176Y0513465D01*
X0434318Y0513541D01*
X0434461Y0513614D01*
X0434606Y0513683D01*
X0434753Y0513749D01*
X0434901Y0513811D01*
X0435051Y0513869D01*
X0435202Y0513924D01*
X0435355Y0513975D01*
X0435509Y0514022D01*
X0435664Y0514065D01*
X0435820Y0514104D01*
X0435976Y0514140D01*
X0436134Y0514171D01*
X0436292Y0514199D01*
X0436451Y0514223D01*
X0436611Y0514243D01*
X0436771Y0514259D01*
X0436931Y0514271D01*
X0437092Y0514279D01*
X0437253Y0514283D01*
X0437413Y0514283D01*
X0437574Y0514279D01*
X0437735Y0514271D01*
X0437895Y0514259D01*
X0438055Y0514243D01*
X0438215Y0514223D01*
X0438374Y0514199D01*
X0438532Y0514171D01*
X0438690Y0514140D01*
X0438846Y0514104D01*
X0439002Y0514065D01*
X0439157Y0514022D01*
X0439311Y0513975D01*
X0439464Y0513924D01*
X0439615Y0513869D01*
X0439765Y0513811D01*
X0439913Y0513749D01*
X0440060Y0513683D01*
X0440205Y0513614D01*
X0440348Y0513541D01*
X0440490Y0513465D01*
X0440629Y0513385D01*
X0440767Y0513302D01*
X0440902Y0513215D01*
X0441036Y0513125D01*
X0441167Y0513032D01*
X0441295Y0512936D01*
X0441421Y0512836D01*
X0441545Y0512733D01*
X0441666Y0512628D01*
X0441785Y0512519D01*
X0441901Y0512408D01*
X0442014Y0512293D01*
X0442124Y0512176D01*
X0442231Y0512056D01*
X0442335Y0511934D01*
X0442436Y0511809D01*
X0442534Y0511681D01*
X0442629Y0511551D01*
X0442721Y0511419D01*
X0442809Y0511285D01*
X0442894Y0511148D01*
X0442976Y0511010D01*
X0443054Y0510869D01*
X0443128Y0510727D01*
X0443199Y0510583D01*
X0443267Y0510437D01*
X0443330Y0510289D01*
X0443391Y0510140D01*
X0443447Y0509989D01*
X0443500Y0509837D01*
X0443549Y0509684D01*
X0443594Y0509530D01*
X0443635Y0509375D01*
X0443673Y0509218D01*
X0443706Y0509061D01*
X0443736Y0508903D01*
X0443762Y0508744D01*
X0443783Y0508585D01*
X0443801Y0508425D01*
X0443815Y0508265D01*
X0443825Y0508104D01*
X0443831Y0507944D01*
X0443833Y0507783D01*
X0443831Y0507622D01*
X0443825Y0507462D01*
X0443815Y0507301D01*
X0443801Y0507141D01*
X0443783Y0506981D01*
X0443762Y0506822D01*
X0443736Y0506663D01*
X0443706Y0506505D01*
X0443673Y0506348D01*
X0443635Y0506191D01*
X0443594Y0506036D01*
X0443549Y0505882D01*
X0443500Y0505729D01*
X0443447Y0505577D01*
X0443391Y0505426D01*
X0443330Y0505277D01*
X0443267Y0505129D01*
X0443199Y0504983D01*
X0443128Y0504839D01*
X0443054Y0504697D01*
X0442976Y0504556D01*
X0442894Y0504418D01*
X0442809Y0504281D01*
X0442721Y0504147D01*
X0442629Y0504015D01*
X0442534Y0503885D01*
X0442436Y0503757D01*
X0442335Y0503632D01*
X0442231Y0503510D01*
X0442124Y0503390D01*
X0442014Y0503273D01*
X0441901Y0503158D01*
X0441785Y0503047D01*
X0441666Y0502938D01*
X0441545Y0502833D01*
X0441421Y0502730D01*
X0441295Y0502630D01*
X0441167Y0502534D01*
X0441036Y0502441D01*
X0440902Y0502351D01*
X0440767Y0502264D01*
X0440629Y0502181D01*
X0440490Y0502101D01*
X0440348Y0502025D01*
X0440205Y0501952D01*
X0440060Y0501883D01*
X0439913Y0501817D01*
X0439765Y0501755D01*
X0439615Y0501697D01*
X0439464Y0501642D01*
X0439311Y0501591D01*
X0439157Y0501544D01*
X0439002Y0501501D01*
X0438846Y0501462D01*
X0438690Y0501426D01*
X0438532Y0501395D01*
X0438374Y0501367D01*
X0438215Y0501343D01*
X0438055Y0501323D01*
X0437895Y0501307D01*
X0437735Y0501295D01*
X0437574Y0501287D01*
X0437413Y0501283D01*
X0437253Y0501283D01*
X0437092Y0501287D01*
X0436931Y0501295D01*
X0436771Y0501307D01*
X0436611Y0501323D01*
X0436451Y0501343D01*
X0436292Y0501367D01*
X0436134Y0501395D01*
X0435976Y0501426D01*
X0435820Y0501462D01*
X0435664Y0501501D01*
X0435509Y0501544D01*
X0435355Y0501591D01*
X0435202Y0501642D01*
X0435051Y0501697D01*
X0434901Y0501755D01*
X0434753Y0501817D01*
X0434606Y0501883D01*
X0434461Y0501952D01*
X0434318Y0502025D01*
X0434176Y0502101D01*
X0434037Y0502181D01*
X0433899Y0502264D01*
X0433764Y0502351D01*
X0433630Y0502441D01*
X0433499Y0502534D01*
X0433371Y0502630D01*
X0433245Y0502730D01*
X0433121Y0502833D01*
X0433000Y0502938D01*
X0432881Y0503047D01*
X0432765Y0503158D01*
X0432652Y0503273D01*
X0432542Y0503390D01*
X0432435Y0503510D01*
X0432331Y0503632D01*
X0432230Y0503757D01*
X0432132Y0503885D01*
X0432037Y0504015D01*
X0431945Y0504147D01*
X0431857Y0504281D01*
X0431772Y0504418D01*
X0431690Y0504556D01*
X0431612Y0504697D01*
X0431538Y0504839D01*
X0431467Y0504983D01*
X0431399Y0505129D01*
X0431336Y0505277D01*
X0431275Y0505426D01*
X0431219Y0505577D01*
X0431166Y0505729D01*
X0431117Y0505882D01*
X0431072Y0506036D01*
X0431031Y0506191D01*
X0430993Y0506348D01*
X0430960Y0506505D01*
X0430930Y0506663D01*
X0430904Y0506822D01*
X0430883Y0506981D01*
X0430865Y0507141D01*
X0430851Y0507301D01*
X0430841Y0507462D01*
X0430835Y0507622D01*
X0430833Y0507783D01*
X0430833Y0435783D02*
X0430835Y0435944D01*
X0430841Y0436104D01*
X0430851Y0436265D01*
X0430865Y0436425D01*
X0430883Y0436585D01*
X0430904Y0436744D01*
X0430930Y0436903D01*
X0430960Y0437061D01*
X0430993Y0437218D01*
X0431031Y0437375D01*
X0431072Y0437530D01*
X0431117Y0437684D01*
X0431166Y0437837D01*
X0431219Y0437989D01*
X0431275Y0438140D01*
X0431336Y0438289D01*
X0431399Y0438437D01*
X0431467Y0438583D01*
X0431538Y0438727D01*
X0431612Y0438869D01*
X0431690Y0439010D01*
X0431772Y0439148D01*
X0431857Y0439285D01*
X0431945Y0439419D01*
X0432037Y0439551D01*
X0432132Y0439681D01*
X0432230Y0439809D01*
X0432331Y0439934D01*
X0432435Y0440056D01*
X0432542Y0440176D01*
X0432652Y0440293D01*
X0432765Y0440408D01*
X0432881Y0440519D01*
X0433000Y0440628D01*
X0433121Y0440733D01*
X0433245Y0440836D01*
X0433371Y0440936D01*
X0433499Y0441032D01*
X0433630Y0441125D01*
X0433764Y0441215D01*
X0433899Y0441302D01*
X0434037Y0441385D01*
X0434176Y0441465D01*
X0434318Y0441541D01*
X0434461Y0441614D01*
X0434606Y0441683D01*
X0434753Y0441749D01*
X0434901Y0441811D01*
X0435051Y0441869D01*
X0435202Y0441924D01*
X0435355Y0441975D01*
X0435509Y0442022D01*
X0435664Y0442065D01*
X0435820Y0442104D01*
X0435976Y0442140D01*
X0436134Y0442171D01*
X0436292Y0442199D01*
X0436451Y0442223D01*
X0436611Y0442243D01*
X0436771Y0442259D01*
X0436931Y0442271D01*
X0437092Y0442279D01*
X0437253Y0442283D01*
X0437413Y0442283D01*
X0437574Y0442279D01*
X0437735Y0442271D01*
X0437895Y0442259D01*
X0438055Y0442243D01*
X0438215Y0442223D01*
X0438374Y0442199D01*
X0438532Y0442171D01*
X0438690Y0442140D01*
X0438846Y0442104D01*
X0439002Y0442065D01*
X0439157Y0442022D01*
X0439311Y0441975D01*
X0439464Y0441924D01*
X0439615Y0441869D01*
X0439765Y0441811D01*
X0439913Y0441749D01*
X0440060Y0441683D01*
X0440205Y0441614D01*
X0440348Y0441541D01*
X0440490Y0441465D01*
X0440629Y0441385D01*
X0440767Y0441302D01*
X0440902Y0441215D01*
X0441036Y0441125D01*
X0441167Y0441032D01*
X0441295Y0440936D01*
X0441421Y0440836D01*
X0441545Y0440733D01*
X0441666Y0440628D01*
X0441785Y0440519D01*
X0441901Y0440408D01*
X0442014Y0440293D01*
X0442124Y0440176D01*
X0442231Y0440056D01*
X0442335Y0439934D01*
X0442436Y0439809D01*
X0442534Y0439681D01*
X0442629Y0439551D01*
X0442721Y0439419D01*
X0442809Y0439285D01*
X0442894Y0439148D01*
X0442976Y0439010D01*
X0443054Y0438869D01*
X0443128Y0438727D01*
X0443199Y0438583D01*
X0443267Y0438437D01*
X0443330Y0438289D01*
X0443391Y0438140D01*
X0443447Y0437989D01*
X0443500Y0437837D01*
X0443549Y0437684D01*
X0443594Y0437530D01*
X0443635Y0437375D01*
X0443673Y0437218D01*
X0443706Y0437061D01*
X0443736Y0436903D01*
X0443762Y0436744D01*
X0443783Y0436585D01*
X0443801Y0436425D01*
X0443815Y0436265D01*
X0443825Y0436104D01*
X0443831Y0435944D01*
X0443833Y0435783D01*
X0443831Y0435622D01*
X0443825Y0435462D01*
X0443815Y0435301D01*
X0443801Y0435141D01*
X0443783Y0434981D01*
X0443762Y0434822D01*
X0443736Y0434663D01*
X0443706Y0434505D01*
X0443673Y0434348D01*
X0443635Y0434191D01*
X0443594Y0434036D01*
X0443549Y0433882D01*
X0443500Y0433729D01*
X0443447Y0433577D01*
X0443391Y0433426D01*
X0443330Y0433277D01*
X0443267Y0433129D01*
X0443199Y0432983D01*
X0443128Y0432839D01*
X0443054Y0432697D01*
X0442976Y0432556D01*
X0442894Y0432418D01*
X0442809Y0432281D01*
X0442721Y0432147D01*
X0442629Y0432015D01*
X0442534Y0431885D01*
X0442436Y0431757D01*
X0442335Y0431632D01*
X0442231Y0431510D01*
X0442124Y0431390D01*
X0442014Y0431273D01*
X0441901Y0431158D01*
X0441785Y0431047D01*
X0441666Y0430938D01*
X0441545Y0430833D01*
X0441421Y0430730D01*
X0441295Y0430630D01*
X0441167Y0430534D01*
X0441036Y0430441D01*
X0440902Y0430351D01*
X0440767Y0430264D01*
X0440629Y0430181D01*
X0440490Y0430101D01*
X0440348Y0430025D01*
X0440205Y0429952D01*
X0440060Y0429883D01*
X0439913Y0429817D01*
X0439765Y0429755D01*
X0439615Y0429697D01*
X0439464Y0429642D01*
X0439311Y0429591D01*
X0439157Y0429544D01*
X0439002Y0429501D01*
X0438846Y0429462D01*
X0438690Y0429426D01*
X0438532Y0429395D01*
X0438374Y0429367D01*
X0438215Y0429343D01*
X0438055Y0429323D01*
X0437895Y0429307D01*
X0437735Y0429295D01*
X0437574Y0429287D01*
X0437413Y0429283D01*
X0437253Y0429283D01*
X0437092Y0429287D01*
X0436931Y0429295D01*
X0436771Y0429307D01*
X0436611Y0429323D01*
X0436451Y0429343D01*
X0436292Y0429367D01*
X0436134Y0429395D01*
X0435976Y0429426D01*
X0435820Y0429462D01*
X0435664Y0429501D01*
X0435509Y0429544D01*
X0435355Y0429591D01*
X0435202Y0429642D01*
X0435051Y0429697D01*
X0434901Y0429755D01*
X0434753Y0429817D01*
X0434606Y0429883D01*
X0434461Y0429952D01*
X0434318Y0430025D01*
X0434176Y0430101D01*
X0434037Y0430181D01*
X0433899Y0430264D01*
X0433764Y0430351D01*
X0433630Y0430441D01*
X0433499Y0430534D01*
X0433371Y0430630D01*
X0433245Y0430730D01*
X0433121Y0430833D01*
X0433000Y0430938D01*
X0432881Y0431047D01*
X0432765Y0431158D01*
X0432652Y0431273D01*
X0432542Y0431390D01*
X0432435Y0431510D01*
X0432331Y0431632D01*
X0432230Y0431757D01*
X0432132Y0431885D01*
X0432037Y0432015D01*
X0431945Y0432147D01*
X0431857Y0432281D01*
X0431772Y0432418D01*
X0431690Y0432556D01*
X0431612Y0432697D01*
X0431538Y0432839D01*
X0431467Y0432983D01*
X0431399Y0433129D01*
X0431336Y0433277D01*
X0431275Y0433426D01*
X0431219Y0433577D01*
X0431166Y0433729D01*
X0431117Y0433882D01*
X0431072Y0434036D01*
X0431031Y0434191D01*
X0430993Y0434348D01*
X0430960Y0434505D01*
X0430930Y0434663D01*
X0430904Y0434822D01*
X0430883Y0434981D01*
X0430865Y0435141D01*
X0430851Y0435301D01*
X0430841Y0435462D01*
X0430835Y0435622D01*
X0430833Y0435783D01*
X0430833Y0355783D02*
X0430835Y0355944D01*
X0430841Y0356104D01*
X0430851Y0356265D01*
X0430865Y0356425D01*
X0430883Y0356585D01*
X0430904Y0356744D01*
X0430930Y0356903D01*
X0430960Y0357061D01*
X0430993Y0357218D01*
X0431031Y0357375D01*
X0431072Y0357530D01*
X0431117Y0357684D01*
X0431166Y0357837D01*
X0431219Y0357989D01*
X0431275Y0358140D01*
X0431336Y0358289D01*
X0431399Y0358437D01*
X0431467Y0358583D01*
X0431538Y0358727D01*
X0431612Y0358869D01*
X0431690Y0359010D01*
X0431772Y0359148D01*
X0431857Y0359285D01*
X0431945Y0359419D01*
X0432037Y0359551D01*
X0432132Y0359681D01*
X0432230Y0359809D01*
X0432331Y0359934D01*
X0432435Y0360056D01*
X0432542Y0360176D01*
X0432652Y0360293D01*
X0432765Y0360408D01*
X0432881Y0360519D01*
X0433000Y0360628D01*
X0433121Y0360733D01*
X0433245Y0360836D01*
X0433371Y0360936D01*
X0433499Y0361032D01*
X0433630Y0361125D01*
X0433764Y0361215D01*
X0433899Y0361302D01*
X0434037Y0361385D01*
X0434176Y0361465D01*
X0434318Y0361541D01*
X0434461Y0361614D01*
X0434606Y0361683D01*
X0434753Y0361749D01*
X0434901Y0361811D01*
X0435051Y0361869D01*
X0435202Y0361924D01*
X0435355Y0361975D01*
X0435509Y0362022D01*
X0435664Y0362065D01*
X0435820Y0362104D01*
X0435976Y0362140D01*
X0436134Y0362171D01*
X0436292Y0362199D01*
X0436451Y0362223D01*
X0436611Y0362243D01*
X0436771Y0362259D01*
X0436931Y0362271D01*
X0437092Y0362279D01*
X0437253Y0362283D01*
X0437413Y0362283D01*
X0437574Y0362279D01*
X0437735Y0362271D01*
X0437895Y0362259D01*
X0438055Y0362243D01*
X0438215Y0362223D01*
X0438374Y0362199D01*
X0438532Y0362171D01*
X0438690Y0362140D01*
X0438846Y0362104D01*
X0439002Y0362065D01*
X0439157Y0362022D01*
X0439311Y0361975D01*
X0439464Y0361924D01*
X0439615Y0361869D01*
X0439765Y0361811D01*
X0439913Y0361749D01*
X0440060Y0361683D01*
X0440205Y0361614D01*
X0440348Y0361541D01*
X0440490Y0361465D01*
X0440629Y0361385D01*
X0440767Y0361302D01*
X0440902Y0361215D01*
X0441036Y0361125D01*
X0441167Y0361032D01*
X0441295Y0360936D01*
X0441421Y0360836D01*
X0441545Y0360733D01*
X0441666Y0360628D01*
X0441785Y0360519D01*
X0441901Y0360408D01*
X0442014Y0360293D01*
X0442124Y0360176D01*
X0442231Y0360056D01*
X0442335Y0359934D01*
X0442436Y0359809D01*
X0442534Y0359681D01*
X0442629Y0359551D01*
X0442721Y0359419D01*
X0442809Y0359285D01*
X0442894Y0359148D01*
X0442976Y0359010D01*
X0443054Y0358869D01*
X0443128Y0358727D01*
X0443199Y0358583D01*
X0443267Y0358437D01*
X0443330Y0358289D01*
X0443391Y0358140D01*
X0443447Y0357989D01*
X0443500Y0357837D01*
X0443549Y0357684D01*
X0443594Y0357530D01*
X0443635Y0357375D01*
X0443673Y0357218D01*
X0443706Y0357061D01*
X0443736Y0356903D01*
X0443762Y0356744D01*
X0443783Y0356585D01*
X0443801Y0356425D01*
X0443815Y0356265D01*
X0443825Y0356104D01*
X0443831Y0355944D01*
X0443833Y0355783D01*
X0443831Y0355622D01*
X0443825Y0355462D01*
X0443815Y0355301D01*
X0443801Y0355141D01*
X0443783Y0354981D01*
X0443762Y0354822D01*
X0443736Y0354663D01*
X0443706Y0354505D01*
X0443673Y0354348D01*
X0443635Y0354191D01*
X0443594Y0354036D01*
X0443549Y0353882D01*
X0443500Y0353729D01*
X0443447Y0353577D01*
X0443391Y0353426D01*
X0443330Y0353277D01*
X0443267Y0353129D01*
X0443199Y0352983D01*
X0443128Y0352839D01*
X0443054Y0352697D01*
X0442976Y0352556D01*
X0442894Y0352418D01*
X0442809Y0352281D01*
X0442721Y0352147D01*
X0442629Y0352015D01*
X0442534Y0351885D01*
X0442436Y0351757D01*
X0442335Y0351632D01*
X0442231Y0351510D01*
X0442124Y0351390D01*
X0442014Y0351273D01*
X0441901Y0351158D01*
X0441785Y0351047D01*
X0441666Y0350938D01*
X0441545Y0350833D01*
X0441421Y0350730D01*
X0441295Y0350630D01*
X0441167Y0350534D01*
X0441036Y0350441D01*
X0440902Y0350351D01*
X0440767Y0350264D01*
X0440629Y0350181D01*
X0440490Y0350101D01*
X0440348Y0350025D01*
X0440205Y0349952D01*
X0440060Y0349883D01*
X0439913Y0349817D01*
X0439765Y0349755D01*
X0439615Y0349697D01*
X0439464Y0349642D01*
X0439311Y0349591D01*
X0439157Y0349544D01*
X0439002Y0349501D01*
X0438846Y0349462D01*
X0438690Y0349426D01*
X0438532Y0349395D01*
X0438374Y0349367D01*
X0438215Y0349343D01*
X0438055Y0349323D01*
X0437895Y0349307D01*
X0437735Y0349295D01*
X0437574Y0349287D01*
X0437413Y0349283D01*
X0437253Y0349283D01*
X0437092Y0349287D01*
X0436931Y0349295D01*
X0436771Y0349307D01*
X0436611Y0349323D01*
X0436451Y0349343D01*
X0436292Y0349367D01*
X0436134Y0349395D01*
X0435976Y0349426D01*
X0435820Y0349462D01*
X0435664Y0349501D01*
X0435509Y0349544D01*
X0435355Y0349591D01*
X0435202Y0349642D01*
X0435051Y0349697D01*
X0434901Y0349755D01*
X0434753Y0349817D01*
X0434606Y0349883D01*
X0434461Y0349952D01*
X0434318Y0350025D01*
X0434176Y0350101D01*
X0434037Y0350181D01*
X0433899Y0350264D01*
X0433764Y0350351D01*
X0433630Y0350441D01*
X0433499Y0350534D01*
X0433371Y0350630D01*
X0433245Y0350730D01*
X0433121Y0350833D01*
X0433000Y0350938D01*
X0432881Y0351047D01*
X0432765Y0351158D01*
X0432652Y0351273D01*
X0432542Y0351390D01*
X0432435Y0351510D01*
X0432331Y0351632D01*
X0432230Y0351757D01*
X0432132Y0351885D01*
X0432037Y0352015D01*
X0431945Y0352147D01*
X0431857Y0352281D01*
X0431772Y0352418D01*
X0431690Y0352556D01*
X0431612Y0352697D01*
X0431538Y0352839D01*
X0431467Y0352983D01*
X0431399Y0353129D01*
X0431336Y0353277D01*
X0431275Y0353426D01*
X0431219Y0353577D01*
X0431166Y0353729D01*
X0431117Y0353882D01*
X0431072Y0354036D01*
X0431031Y0354191D01*
X0430993Y0354348D01*
X0430960Y0354505D01*
X0430930Y0354663D01*
X0430904Y0354822D01*
X0430883Y0354981D01*
X0430865Y0355141D01*
X0430851Y0355301D01*
X0430841Y0355462D01*
X0430835Y0355622D01*
X0430833Y0355783D01*
X0350833Y0355783D02*
X0350835Y0355944D01*
X0350841Y0356104D01*
X0350851Y0356265D01*
X0350865Y0356425D01*
X0350883Y0356585D01*
X0350904Y0356744D01*
X0350930Y0356903D01*
X0350960Y0357061D01*
X0350993Y0357218D01*
X0351031Y0357375D01*
X0351072Y0357530D01*
X0351117Y0357684D01*
X0351166Y0357837D01*
X0351219Y0357989D01*
X0351275Y0358140D01*
X0351336Y0358289D01*
X0351399Y0358437D01*
X0351467Y0358583D01*
X0351538Y0358727D01*
X0351612Y0358869D01*
X0351690Y0359010D01*
X0351772Y0359148D01*
X0351857Y0359285D01*
X0351945Y0359419D01*
X0352037Y0359551D01*
X0352132Y0359681D01*
X0352230Y0359809D01*
X0352331Y0359934D01*
X0352435Y0360056D01*
X0352542Y0360176D01*
X0352652Y0360293D01*
X0352765Y0360408D01*
X0352881Y0360519D01*
X0353000Y0360628D01*
X0353121Y0360733D01*
X0353245Y0360836D01*
X0353371Y0360936D01*
X0353499Y0361032D01*
X0353630Y0361125D01*
X0353764Y0361215D01*
X0353899Y0361302D01*
X0354037Y0361385D01*
X0354176Y0361465D01*
X0354318Y0361541D01*
X0354461Y0361614D01*
X0354606Y0361683D01*
X0354753Y0361749D01*
X0354901Y0361811D01*
X0355051Y0361869D01*
X0355202Y0361924D01*
X0355355Y0361975D01*
X0355509Y0362022D01*
X0355664Y0362065D01*
X0355820Y0362104D01*
X0355976Y0362140D01*
X0356134Y0362171D01*
X0356292Y0362199D01*
X0356451Y0362223D01*
X0356611Y0362243D01*
X0356771Y0362259D01*
X0356931Y0362271D01*
X0357092Y0362279D01*
X0357253Y0362283D01*
X0357413Y0362283D01*
X0357574Y0362279D01*
X0357735Y0362271D01*
X0357895Y0362259D01*
X0358055Y0362243D01*
X0358215Y0362223D01*
X0358374Y0362199D01*
X0358532Y0362171D01*
X0358690Y0362140D01*
X0358846Y0362104D01*
X0359002Y0362065D01*
X0359157Y0362022D01*
X0359311Y0361975D01*
X0359464Y0361924D01*
X0359615Y0361869D01*
X0359765Y0361811D01*
X0359913Y0361749D01*
X0360060Y0361683D01*
X0360205Y0361614D01*
X0360348Y0361541D01*
X0360490Y0361465D01*
X0360629Y0361385D01*
X0360767Y0361302D01*
X0360902Y0361215D01*
X0361036Y0361125D01*
X0361167Y0361032D01*
X0361295Y0360936D01*
X0361421Y0360836D01*
X0361545Y0360733D01*
X0361666Y0360628D01*
X0361785Y0360519D01*
X0361901Y0360408D01*
X0362014Y0360293D01*
X0362124Y0360176D01*
X0362231Y0360056D01*
X0362335Y0359934D01*
X0362436Y0359809D01*
X0362534Y0359681D01*
X0362629Y0359551D01*
X0362721Y0359419D01*
X0362809Y0359285D01*
X0362894Y0359148D01*
X0362976Y0359010D01*
X0363054Y0358869D01*
X0363128Y0358727D01*
X0363199Y0358583D01*
X0363267Y0358437D01*
X0363330Y0358289D01*
X0363391Y0358140D01*
X0363447Y0357989D01*
X0363500Y0357837D01*
X0363549Y0357684D01*
X0363594Y0357530D01*
X0363635Y0357375D01*
X0363673Y0357218D01*
X0363706Y0357061D01*
X0363736Y0356903D01*
X0363762Y0356744D01*
X0363783Y0356585D01*
X0363801Y0356425D01*
X0363815Y0356265D01*
X0363825Y0356104D01*
X0363831Y0355944D01*
X0363833Y0355783D01*
X0363831Y0355622D01*
X0363825Y0355462D01*
X0363815Y0355301D01*
X0363801Y0355141D01*
X0363783Y0354981D01*
X0363762Y0354822D01*
X0363736Y0354663D01*
X0363706Y0354505D01*
X0363673Y0354348D01*
X0363635Y0354191D01*
X0363594Y0354036D01*
X0363549Y0353882D01*
X0363500Y0353729D01*
X0363447Y0353577D01*
X0363391Y0353426D01*
X0363330Y0353277D01*
X0363267Y0353129D01*
X0363199Y0352983D01*
X0363128Y0352839D01*
X0363054Y0352697D01*
X0362976Y0352556D01*
X0362894Y0352418D01*
X0362809Y0352281D01*
X0362721Y0352147D01*
X0362629Y0352015D01*
X0362534Y0351885D01*
X0362436Y0351757D01*
X0362335Y0351632D01*
X0362231Y0351510D01*
X0362124Y0351390D01*
X0362014Y0351273D01*
X0361901Y0351158D01*
X0361785Y0351047D01*
X0361666Y0350938D01*
X0361545Y0350833D01*
X0361421Y0350730D01*
X0361295Y0350630D01*
X0361167Y0350534D01*
X0361036Y0350441D01*
X0360902Y0350351D01*
X0360767Y0350264D01*
X0360629Y0350181D01*
X0360490Y0350101D01*
X0360348Y0350025D01*
X0360205Y0349952D01*
X0360060Y0349883D01*
X0359913Y0349817D01*
X0359765Y0349755D01*
X0359615Y0349697D01*
X0359464Y0349642D01*
X0359311Y0349591D01*
X0359157Y0349544D01*
X0359002Y0349501D01*
X0358846Y0349462D01*
X0358690Y0349426D01*
X0358532Y0349395D01*
X0358374Y0349367D01*
X0358215Y0349343D01*
X0358055Y0349323D01*
X0357895Y0349307D01*
X0357735Y0349295D01*
X0357574Y0349287D01*
X0357413Y0349283D01*
X0357253Y0349283D01*
X0357092Y0349287D01*
X0356931Y0349295D01*
X0356771Y0349307D01*
X0356611Y0349323D01*
X0356451Y0349343D01*
X0356292Y0349367D01*
X0356134Y0349395D01*
X0355976Y0349426D01*
X0355820Y0349462D01*
X0355664Y0349501D01*
X0355509Y0349544D01*
X0355355Y0349591D01*
X0355202Y0349642D01*
X0355051Y0349697D01*
X0354901Y0349755D01*
X0354753Y0349817D01*
X0354606Y0349883D01*
X0354461Y0349952D01*
X0354318Y0350025D01*
X0354176Y0350101D01*
X0354037Y0350181D01*
X0353899Y0350264D01*
X0353764Y0350351D01*
X0353630Y0350441D01*
X0353499Y0350534D01*
X0353371Y0350630D01*
X0353245Y0350730D01*
X0353121Y0350833D01*
X0353000Y0350938D01*
X0352881Y0351047D01*
X0352765Y0351158D01*
X0352652Y0351273D01*
X0352542Y0351390D01*
X0352435Y0351510D01*
X0352331Y0351632D01*
X0352230Y0351757D01*
X0352132Y0351885D01*
X0352037Y0352015D01*
X0351945Y0352147D01*
X0351857Y0352281D01*
X0351772Y0352418D01*
X0351690Y0352556D01*
X0351612Y0352697D01*
X0351538Y0352839D01*
X0351467Y0352983D01*
X0351399Y0353129D01*
X0351336Y0353277D01*
X0351275Y0353426D01*
X0351219Y0353577D01*
X0351166Y0353729D01*
X0351117Y0353882D01*
X0351072Y0354036D01*
X0351031Y0354191D01*
X0350993Y0354348D01*
X0350960Y0354505D01*
X0350930Y0354663D01*
X0350904Y0354822D01*
X0350883Y0354981D01*
X0350865Y0355141D01*
X0350851Y0355301D01*
X0350841Y0355462D01*
X0350835Y0355622D01*
X0350833Y0355783D01*
X0328833Y0355783D02*
X0328835Y0355944D01*
X0328841Y0356104D01*
X0328851Y0356265D01*
X0328865Y0356425D01*
X0328883Y0356585D01*
X0328904Y0356744D01*
X0328930Y0356903D01*
X0328960Y0357061D01*
X0328993Y0357218D01*
X0329031Y0357375D01*
X0329072Y0357530D01*
X0329117Y0357684D01*
X0329166Y0357837D01*
X0329219Y0357989D01*
X0329275Y0358140D01*
X0329336Y0358289D01*
X0329399Y0358437D01*
X0329467Y0358583D01*
X0329538Y0358727D01*
X0329612Y0358869D01*
X0329690Y0359010D01*
X0329772Y0359148D01*
X0329857Y0359285D01*
X0329945Y0359419D01*
X0330037Y0359551D01*
X0330132Y0359681D01*
X0330230Y0359809D01*
X0330331Y0359934D01*
X0330435Y0360056D01*
X0330542Y0360176D01*
X0330652Y0360293D01*
X0330765Y0360408D01*
X0330881Y0360519D01*
X0331000Y0360628D01*
X0331121Y0360733D01*
X0331245Y0360836D01*
X0331371Y0360936D01*
X0331499Y0361032D01*
X0331630Y0361125D01*
X0331764Y0361215D01*
X0331899Y0361302D01*
X0332037Y0361385D01*
X0332176Y0361465D01*
X0332318Y0361541D01*
X0332461Y0361614D01*
X0332606Y0361683D01*
X0332753Y0361749D01*
X0332901Y0361811D01*
X0333051Y0361869D01*
X0333202Y0361924D01*
X0333355Y0361975D01*
X0333509Y0362022D01*
X0333664Y0362065D01*
X0333820Y0362104D01*
X0333976Y0362140D01*
X0334134Y0362171D01*
X0334292Y0362199D01*
X0334451Y0362223D01*
X0334611Y0362243D01*
X0334771Y0362259D01*
X0334931Y0362271D01*
X0335092Y0362279D01*
X0335253Y0362283D01*
X0335413Y0362283D01*
X0335574Y0362279D01*
X0335735Y0362271D01*
X0335895Y0362259D01*
X0336055Y0362243D01*
X0336215Y0362223D01*
X0336374Y0362199D01*
X0336532Y0362171D01*
X0336690Y0362140D01*
X0336846Y0362104D01*
X0337002Y0362065D01*
X0337157Y0362022D01*
X0337311Y0361975D01*
X0337464Y0361924D01*
X0337615Y0361869D01*
X0337765Y0361811D01*
X0337913Y0361749D01*
X0338060Y0361683D01*
X0338205Y0361614D01*
X0338348Y0361541D01*
X0338490Y0361465D01*
X0338629Y0361385D01*
X0338767Y0361302D01*
X0338902Y0361215D01*
X0339036Y0361125D01*
X0339167Y0361032D01*
X0339295Y0360936D01*
X0339421Y0360836D01*
X0339545Y0360733D01*
X0339666Y0360628D01*
X0339785Y0360519D01*
X0339901Y0360408D01*
X0340014Y0360293D01*
X0340124Y0360176D01*
X0340231Y0360056D01*
X0340335Y0359934D01*
X0340436Y0359809D01*
X0340534Y0359681D01*
X0340629Y0359551D01*
X0340721Y0359419D01*
X0340809Y0359285D01*
X0340894Y0359148D01*
X0340976Y0359010D01*
X0341054Y0358869D01*
X0341128Y0358727D01*
X0341199Y0358583D01*
X0341267Y0358437D01*
X0341330Y0358289D01*
X0341391Y0358140D01*
X0341447Y0357989D01*
X0341500Y0357837D01*
X0341549Y0357684D01*
X0341594Y0357530D01*
X0341635Y0357375D01*
X0341673Y0357218D01*
X0341706Y0357061D01*
X0341736Y0356903D01*
X0341762Y0356744D01*
X0341783Y0356585D01*
X0341801Y0356425D01*
X0341815Y0356265D01*
X0341825Y0356104D01*
X0341831Y0355944D01*
X0341833Y0355783D01*
X0341831Y0355622D01*
X0341825Y0355462D01*
X0341815Y0355301D01*
X0341801Y0355141D01*
X0341783Y0354981D01*
X0341762Y0354822D01*
X0341736Y0354663D01*
X0341706Y0354505D01*
X0341673Y0354348D01*
X0341635Y0354191D01*
X0341594Y0354036D01*
X0341549Y0353882D01*
X0341500Y0353729D01*
X0341447Y0353577D01*
X0341391Y0353426D01*
X0341330Y0353277D01*
X0341267Y0353129D01*
X0341199Y0352983D01*
X0341128Y0352839D01*
X0341054Y0352697D01*
X0340976Y0352556D01*
X0340894Y0352418D01*
X0340809Y0352281D01*
X0340721Y0352147D01*
X0340629Y0352015D01*
X0340534Y0351885D01*
X0340436Y0351757D01*
X0340335Y0351632D01*
X0340231Y0351510D01*
X0340124Y0351390D01*
X0340014Y0351273D01*
X0339901Y0351158D01*
X0339785Y0351047D01*
X0339666Y0350938D01*
X0339545Y0350833D01*
X0339421Y0350730D01*
X0339295Y0350630D01*
X0339167Y0350534D01*
X0339036Y0350441D01*
X0338902Y0350351D01*
X0338767Y0350264D01*
X0338629Y0350181D01*
X0338490Y0350101D01*
X0338348Y0350025D01*
X0338205Y0349952D01*
X0338060Y0349883D01*
X0337913Y0349817D01*
X0337765Y0349755D01*
X0337615Y0349697D01*
X0337464Y0349642D01*
X0337311Y0349591D01*
X0337157Y0349544D01*
X0337002Y0349501D01*
X0336846Y0349462D01*
X0336690Y0349426D01*
X0336532Y0349395D01*
X0336374Y0349367D01*
X0336215Y0349343D01*
X0336055Y0349323D01*
X0335895Y0349307D01*
X0335735Y0349295D01*
X0335574Y0349287D01*
X0335413Y0349283D01*
X0335253Y0349283D01*
X0335092Y0349287D01*
X0334931Y0349295D01*
X0334771Y0349307D01*
X0334611Y0349323D01*
X0334451Y0349343D01*
X0334292Y0349367D01*
X0334134Y0349395D01*
X0333976Y0349426D01*
X0333820Y0349462D01*
X0333664Y0349501D01*
X0333509Y0349544D01*
X0333355Y0349591D01*
X0333202Y0349642D01*
X0333051Y0349697D01*
X0332901Y0349755D01*
X0332753Y0349817D01*
X0332606Y0349883D01*
X0332461Y0349952D01*
X0332318Y0350025D01*
X0332176Y0350101D01*
X0332037Y0350181D01*
X0331899Y0350264D01*
X0331764Y0350351D01*
X0331630Y0350441D01*
X0331499Y0350534D01*
X0331371Y0350630D01*
X0331245Y0350730D01*
X0331121Y0350833D01*
X0331000Y0350938D01*
X0330881Y0351047D01*
X0330765Y0351158D01*
X0330652Y0351273D01*
X0330542Y0351390D01*
X0330435Y0351510D01*
X0330331Y0351632D01*
X0330230Y0351757D01*
X0330132Y0351885D01*
X0330037Y0352015D01*
X0329945Y0352147D01*
X0329857Y0352281D01*
X0329772Y0352418D01*
X0329690Y0352556D01*
X0329612Y0352697D01*
X0329538Y0352839D01*
X0329467Y0352983D01*
X0329399Y0353129D01*
X0329336Y0353277D01*
X0329275Y0353426D01*
X0329219Y0353577D01*
X0329166Y0353729D01*
X0329117Y0353882D01*
X0329072Y0354036D01*
X0329031Y0354191D01*
X0328993Y0354348D01*
X0328960Y0354505D01*
X0328930Y0354663D01*
X0328904Y0354822D01*
X0328883Y0354981D01*
X0328865Y0355141D01*
X0328851Y0355301D01*
X0328841Y0355462D01*
X0328835Y0355622D01*
X0328833Y0355783D01*
X0328833Y0435783D02*
X0328835Y0435944D01*
X0328841Y0436104D01*
X0328851Y0436265D01*
X0328865Y0436425D01*
X0328883Y0436585D01*
X0328904Y0436744D01*
X0328930Y0436903D01*
X0328960Y0437061D01*
X0328993Y0437218D01*
X0329031Y0437375D01*
X0329072Y0437530D01*
X0329117Y0437684D01*
X0329166Y0437837D01*
X0329219Y0437989D01*
X0329275Y0438140D01*
X0329336Y0438289D01*
X0329399Y0438437D01*
X0329467Y0438583D01*
X0329538Y0438727D01*
X0329612Y0438869D01*
X0329690Y0439010D01*
X0329772Y0439148D01*
X0329857Y0439285D01*
X0329945Y0439419D01*
X0330037Y0439551D01*
X0330132Y0439681D01*
X0330230Y0439809D01*
X0330331Y0439934D01*
X0330435Y0440056D01*
X0330542Y0440176D01*
X0330652Y0440293D01*
X0330765Y0440408D01*
X0330881Y0440519D01*
X0331000Y0440628D01*
X0331121Y0440733D01*
X0331245Y0440836D01*
X0331371Y0440936D01*
X0331499Y0441032D01*
X0331630Y0441125D01*
X0331764Y0441215D01*
X0331899Y0441302D01*
X0332037Y0441385D01*
X0332176Y0441465D01*
X0332318Y0441541D01*
X0332461Y0441614D01*
X0332606Y0441683D01*
X0332753Y0441749D01*
X0332901Y0441811D01*
X0333051Y0441869D01*
X0333202Y0441924D01*
X0333355Y0441975D01*
X0333509Y0442022D01*
X0333664Y0442065D01*
X0333820Y0442104D01*
X0333976Y0442140D01*
X0334134Y0442171D01*
X0334292Y0442199D01*
X0334451Y0442223D01*
X0334611Y0442243D01*
X0334771Y0442259D01*
X0334931Y0442271D01*
X0335092Y0442279D01*
X0335253Y0442283D01*
X0335413Y0442283D01*
X0335574Y0442279D01*
X0335735Y0442271D01*
X0335895Y0442259D01*
X0336055Y0442243D01*
X0336215Y0442223D01*
X0336374Y0442199D01*
X0336532Y0442171D01*
X0336690Y0442140D01*
X0336846Y0442104D01*
X0337002Y0442065D01*
X0337157Y0442022D01*
X0337311Y0441975D01*
X0337464Y0441924D01*
X0337615Y0441869D01*
X0337765Y0441811D01*
X0337913Y0441749D01*
X0338060Y0441683D01*
X0338205Y0441614D01*
X0338348Y0441541D01*
X0338490Y0441465D01*
X0338629Y0441385D01*
X0338767Y0441302D01*
X0338902Y0441215D01*
X0339036Y0441125D01*
X0339167Y0441032D01*
X0339295Y0440936D01*
X0339421Y0440836D01*
X0339545Y0440733D01*
X0339666Y0440628D01*
X0339785Y0440519D01*
X0339901Y0440408D01*
X0340014Y0440293D01*
X0340124Y0440176D01*
X0340231Y0440056D01*
X0340335Y0439934D01*
X0340436Y0439809D01*
X0340534Y0439681D01*
X0340629Y0439551D01*
X0340721Y0439419D01*
X0340809Y0439285D01*
X0340894Y0439148D01*
X0340976Y0439010D01*
X0341054Y0438869D01*
X0341128Y0438727D01*
X0341199Y0438583D01*
X0341267Y0438437D01*
X0341330Y0438289D01*
X0341391Y0438140D01*
X0341447Y0437989D01*
X0341500Y0437837D01*
X0341549Y0437684D01*
X0341594Y0437530D01*
X0341635Y0437375D01*
X0341673Y0437218D01*
X0341706Y0437061D01*
X0341736Y0436903D01*
X0341762Y0436744D01*
X0341783Y0436585D01*
X0341801Y0436425D01*
X0341815Y0436265D01*
X0341825Y0436104D01*
X0341831Y0435944D01*
X0341833Y0435783D01*
X0341831Y0435622D01*
X0341825Y0435462D01*
X0341815Y0435301D01*
X0341801Y0435141D01*
X0341783Y0434981D01*
X0341762Y0434822D01*
X0341736Y0434663D01*
X0341706Y0434505D01*
X0341673Y0434348D01*
X0341635Y0434191D01*
X0341594Y0434036D01*
X0341549Y0433882D01*
X0341500Y0433729D01*
X0341447Y0433577D01*
X0341391Y0433426D01*
X0341330Y0433277D01*
X0341267Y0433129D01*
X0341199Y0432983D01*
X0341128Y0432839D01*
X0341054Y0432697D01*
X0340976Y0432556D01*
X0340894Y0432418D01*
X0340809Y0432281D01*
X0340721Y0432147D01*
X0340629Y0432015D01*
X0340534Y0431885D01*
X0340436Y0431757D01*
X0340335Y0431632D01*
X0340231Y0431510D01*
X0340124Y0431390D01*
X0340014Y0431273D01*
X0339901Y0431158D01*
X0339785Y0431047D01*
X0339666Y0430938D01*
X0339545Y0430833D01*
X0339421Y0430730D01*
X0339295Y0430630D01*
X0339167Y0430534D01*
X0339036Y0430441D01*
X0338902Y0430351D01*
X0338767Y0430264D01*
X0338629Y0430181D01*
X0338490Y0430101D01*
X0338348Y0430025D01*
X0338205Y0429952D01*
X0338060Y0429883D01*
X0337913Y0429817D01*
X0337765Y0429755D01*
X0337615Y0429697D01*
X0337464Y0429642D01*
X0337311Y0429591D01*
X0337157Y0429544D01*
X0337002Y0429501D01*
X0336846Y0429462D01*
X0336690Y0429426D01*
X0336532Y0429395D01*
X0336374Y0429367D01*
X0336215Y0429343D01*
X0336055Y0429323D01*
X0335895Y0429307D01*
X0335735Y0429295D01*
X0335574Y0429287D01*
X0335413Y0429283D01*
X0335253Y0429283D01*
X0335092Y0429287D01*
X0334931Y0429295D01*
X0334771Y0429307D01*
X0334611Y0429323D01*
X0334451Y0429343D01*
X0334292Y0429367D01*
X0334134Y0429395D01*
X0333976Y0429426D01*
X0333820Y0429462D01*
X0333664Y0429501D01*
X0333509Y0429544D01*
X0333355Y0429591D01*
X0333202Y0429642D01*
X0333051Y0429697D01*
X0332901Y0429755D01*
X0332753Y0429817D01*
X0332606Y0429883D01*
X0332461Y0429952D01*
X0332318Y0430025D01*
X0332176Y0430101D01*
X0332037Y0430181D01*
X0331899Y0430264D01*
X0331764Y0430351D01*
X0331630Y0430441D01*
X0331499Y0430534D01*
X0331371Y0430630D01*
X0331245Y0430730D01*
X0331121Y0430833D01*
X0331000Y0430938D01*
X0330881Y0431047D01*
X0330765Y0431158D01*
X0330652Y0431273D01*
X0330542Y0431390D01*
X0330435Y0431510D01*
X0330331Y0431632D01*
X0330230Y0431757D01*
X0330132Y0431885D01*
X0330037Y0432015D01*
X0329945Y0432147D01*
X0329857Y0432281D01*
X0329772Y0432418D01*
X0329690Y0432556D01*
X0329612Y0432697D01*
X0329538Y0432839D01*
X0329467Y0432983D01*
X0329399Y0433129D01*
X0329336Y0433277D01*
X0329275Y0433426D01*
X0329219Y0433577D01*
X0329166Y0433729D01*
X0329117Y0433882D01*
X0329072Y0434036D01*
X0329031Y0434191D01*
X0328993Y0434348D01*
X0328960Y0434505D01*
X0328930Y0434663D01*
X0328904Y0434822D01*
X0328883Y0434981D01*
X0328865Y0435141D01*
X0328851Y0435301D01*
X0328841Y0435462D01*
X0328835Y0435622D01*
X0328833Y0435783D01*
X0350833Y0435783D02*
X0350835Y0435944D01*
X0350841Y0436104D01*
X0350851Y0436265D01*
X0350865Y0436425D01*
X0350883Y0436585D01*
X0350904Y0436744D01*
X0350930Y0436903D01*
X0350960Y0437061D01*
X0350993Y0437218D01*
X0351031Y0437375D01*
X0351072Y0437530D01*
X0351117Y0437684D01*
X0351166Y0437837D01*
X0351219Y0437989D01*
X0351275Y0438140D01*
X0351336Y0438289D01*
X0351399Y0438437D01*
X0351467Y0438583D01*
X0351538Y0438727D01*
X0351612Y0438869D01*
X0351690Y0439010D01*
X0351772Y0439148D01*
X0351857Y0439285D01*
X0351945Y0439419D01*
X0352037Y0439551D01*
X0352132Y0439681D01*
X0352230Y0439809D01*
X0352331Y0439934D01*
X0352435Y0440056D01*
X0352542Y0440176D01*
X0352652Y0440293D01*
X0352765Y0440408D01*
X0352881Y0440519D01*
X0353000Y0440628D01*
X0353121Y0440733D01*
X0353245Y0440836D01*
X0353371Y0440936D01*
X0353499Y0441032D01*
X0353630Y0441125D01*
X0353764Y0441215D01*
X0353899Y0441302D01*
X0354037Y0441385D01*
X0354176Y0441465D01*
X0354318Y0441541D01*
X0354461Y0441614D01*
X0354606Y0441683D01*
X0354753Y0441749D01*
X0354901Y0441811D01*
X0355051Y0441869D01*
X0355202Y0441924D01*
X0355355Y0441975D01*
X0355509Y0442022D01*
X0355664Y0442065D01*
X0355820Y0442104D01*
X0355976Y0442140D01*
X0356134Y0442171D01*
X0356292Y0442199D01*
X0356451Y0442223D01*
X0356611Y0442243D01*
X0356771Y0442259D01*
X0356931Y0442271D01*
X0357092Y0442279D01*
X0357253Y0442283D01*
X0357413Y0442283D01*
X0357574Y0442279D01*
X0357735Y0442271D01*
X0357895Y0442259D01*
X0358055Y0442243D01*
X0358215Y0442223D01*
X0358374Y0442199D01*
X0358532Y0442171D01*
X0358690Y0442140D01*
X0358846Y0442104D01*
X0359002Y0442065D01*
X0359157Y0442022D01*
X0359311Y0441975D01*
X0359464Y0441924D01*
X0359615Y0441869D01*
X0359765Y0441811D01*
X0359913Y0441749D01*
X0360060Y0441683D01*
X0360205Y0441614D01*
X0360348Y0441541D01*
X0360490Y0441465D01*
X0360629Y0441385D01*
X0360767Y0441302D01*
X0360902Y0441215D01*
X0361036Y0441125D01*
X0361167Y0441032D01*
X0361295Y0440936D01*
X0361421Y0440836D01*
X0361545Y0440733D01*
X0361666Y0440628D01*
X0361785Y0440519D01*
X0361901Y0440408D01*
X0362014Y0440293D01*
X0362124Y0440176D01*
X0362231Y0440056D01*
X0362335Y0439934D01*
X0362436Y0439809D01*
X0362534Y0439681D01*
X0362629Y0439551D01*
X0362721Y0439419D01*
X0362809Y0439285D01*
X0362894Y0439148D01*
X0362976Y0439010D01*
X0363054Y0438869D01*
X0363128Y0438727D01*
X0363199Y0438583D01*
X0363267Y0438437D01*
X0363330Y0438289D01*
X0363391Y0438140D01*
X0363447Y0437989D01*
X0363500Y0437837D01*
X0363549Y0437684D01*
X0363594Y0437530D01*
X0363635Y0437375D01*
X0363673Y0437218D01*
X0363706Y0437061D01*
X0363736Y0436903D01*
X0363762Y0436744D01*
X0363783Y0436585D01*
X0363801Y0436425D01*
X0363815Y0436265D01*
X0363825Y0436104D01*
X0363831Y0435944D01*
X0363833Y0435783D01*
X0363831Y0435622D01*
X0363825Y0435462D01*
X0363815Y0435301D01*
X0363801Y0435141D01*
X0363783Y0434981D01*
X0363762Y0434822D01*
X0363736Y0434663D01*
X0363706Y0434505D01*
X0363673Y0434348D01*
X0363635Y0434191D01*
X0363594Y0434036D01*
X0363549Y0433882D01*
X0363500Y0433729D01*
X0363447Y0433577D01*
X0363391Y0433426D01*
X0363330Y0433277D01*
X0363267Y0433129D01*
X0363199Y0432983D01*
X0363128Y0432839D01*
X0363054Y0432697D01*
X0362976Y0432556D01*
X0362894Y0432418D01*
X0362809Y0432281D01*
X0362721Y0432147D01*
X0362629Y0432015D01*
X0362534Y0431885D01*
X0362436Y0431757D01*
X0362335Y0431632D01*
X0362231Y0431510D01*
X0362124Y0431390D01*
X0362014Y0431273D01*
X0361901Y0431158D01*
X0361785Y0431047D01*
X0361666Y0430938D01*
X0361545Y0430833D01*
X0361421Y0430730D01*
X0361295Y0430630D01*
X0361167Y0430534D01*
X0361036Y0430441D01*
X0360902Y0430351D01*
X0360767Y0430264D01*
X0360629Y0430181D01*
X0360490Y0430101D01*
X0360348Y0430025D01*
X0360205Y0429952D01*
X0360060Y0429883D01*
X0359913Y0429817D01*
X0359765Y0429755D01*
X0359615Y0429697D01*
X0359464Y0429642D01*
X0359311Y0429591D01*
X0359157Y0429544D01*
X0359002Y0429501D01*
X0358846Y0429462D01*
X0358690Y0429426D01*
X0358532Y0429395D01*
X0358374Y0429367D01*
X0358215Y0429343D01*
X0358055Y0429323D01*
X0357895Y0429307D01*
X0357735Y0429295D01*
X0357574Y0429287D01*
X0357413Y0429283D01*
X0357253Y0429283D01*
X0357092Y0429287D01*
X0356931Y0429295D01*
X0356771Y0429307D01*
X0356611Y0429323D01*
X0356451Y0429343D01*
X0356292Y0429367D01*
X0356134Y0429395D01*
X0355976Y0429426D01*
X0355820Y0429462D01*
X0355664Y0429501D01*
X0355509Y0429544D01*
X0355355Y0429591D01*
X0355202Y0429642D01*
X0355051Y0429697D01*
X0354901Y0429755D01*
X0354753Y0429817D01*
X0354606Y0429883D01*
X0354461Y0429952D01*
X0354318Y0430025D01*
X0354176Y0430101D01*
X0354037Y0430181D01*
X0353899Y0430264D01*
X0353764Y0430351D01*
X0353630Y0430441D01*
X0353499Y0430534D01*
X0353371Y0430630D01*
X0353245Y0430730D01*
X0353121Y0430833D01*
X0353000Y0430938D01*
X0352881Y0431047D01*
X0352765Y0431158D01*
X0352652Y0431273D01*
X0352542Y0431390D01*
X0352435Y0431510D01*
X0352331Y0431632D01*
X0352230Y0431757D01*
X0352132Y0431885D01*
X0352037Y0432015D01*
X0351945Y0432147D01*
X0351857Y0432281D01*
X0351772Y0432418D01*
X0351690Y0432556D01*
X0351612Y0432697D01*
X0351538Y0432839D01*
X0351467Y0432983D01*
X0351399Y0433129D01*
X0351336Y0433277D01*
X0351275Y0433426D01*
X0351219Y0433577D01*
X0351166Y0433729D01*
X0351117Y0433882D01*
X0351072Y0434036D01*
X0351031Y0434191D01*
X0350993Y0434348D01*
X0350960Y0434505D01*
X0350930Y0434663D01*
X0350904Y0434822D01*
X0350883Y0434981D01*
X0350865Y0435141D01*
X0350851Y0435301D01*
X0350841Y0435462D01*
X0350835Y0435622D01*
X0350833Y0435783D01*
X0350833Y0507783D02*
X0350835Y0507944D01*
X0350841Y0508104D01*
X0350851Y0508265D01*
X0350865Y0508425D01*
X0350883Y0508585D01*
X0350904Y0508744D01*
X0350930Y0508903D01*
X0350960Y0509061D01*
X0350993Y0509218D01*
X0351031Y0509375D01*
X0351072Y0509530D01*
X0351117Y0509684D01*
X0351166Y0509837D01*
X0351219Y0509989D01*
X0351275Y0510140D01*
X0351336Y0510289D01*
X0351399Y0510437D01*
X0351467Y0510583D01*
X0351538Y0510727D01*
X0351612Y0510869D01*
X0351690Y0511010D01*
X0351772Y0511148D01*
X0351857Y0511285D01*
X0351945Y0511419D01*
X0352037Y0511551D01*
X0352132Y0511681D01*
X0352230Y0511809D01*
X0352331Y0511934D01*
X0352435Y0512056D01*
X0352542Y0512176D01*
X0352652Y0512293D01*
X0352765Y0512408D01*
X0352881Y0512519D01*
X0353000Y0512628D01*
X0353121Y0512733D01*
X0353245Y0512836D01*
X0353371Y0512936D01*
X0353499Y0513032D01*
X0353630Y0513125D01*
X0353764Y0513215D01*
X0353899Y0513302D01*
X0354037Y0513385D01*
X0354176Y0513465D01*
X0354318Y0513541D01*
X0354461Y0513614D01*
X0354606Y0513683D01*
X0354753Y0513749D01*
X0354901Y0513811D01*
X0355051Y0513869D01*
X0355202Y0513924D01*
X0355355Y0513975D01*
X0355509Y0514022D01*
X0355664Y0514065D01*
X0355820Y0514104D01*
X0355976Y0514140D01*
X0356134Y0514171D01*
X0356292Y0514199D01*
X0356451Y0514223D01*
X0356611Y0514243D01*
X0356771Y0514259D01*
X0356931Y0514271D01*
X0357092Y0514279D01*
X0357253Y0514283D01*
X0357413Y0514283D01*
X0357574Y0514279D01*
X0357735Y0514271D01*
X0357895Y0514259D01*
X0358055Y0514243D01*
X0358215Y0514223D01*
X0358374Y0514199D01*
X0358532Y0514171D01*
X0358690Y0514140D01*
X0358846Y0514104D01*
X0359002Y0514065D01*
X0359157Y0514022D01*
X0359311Y0513975D01*
X0359464Y0513924D01*
X0359615Y0513869D01*
X0359765Y0513811D01*
X0359913Y0513749D01*
X0360060Y0513683D01*
X0360205Y0513614D01*
X0360348Y0513541D01*
X0360490Y0513465D01*
X0360629Y0513385D01*
X0360767Y0513302D01*
X0360902Y0513215D01*
X0361036Y0513125D01*
X0361167Y0513032D01*
X0361295Y0512936D01*
X0361421Y0512836D01*
X0361545Y0512733D01*
X0361666Y0512628D01*
X0361785Y0512519D01*
X0361901Y0512408D01*
X0362014Y0512293D01*
X0362124Y0512176D01*
X0362231Y0512056D01*
X0362335Y0511934D01*
X0362436Y0511809D01*
X0362534Y0511681D01*
X0362629Y0511551D01*
X0362721Y0511419D01*
X0362809Y0511285D01*
X0362894Y0511148D01*
X0362976Y0511010D01*
X0363054Y0510869D01*
X0363128Y0510727D01*
X0363199Y0510583D01*
X0363267Y0510437D01*
X0363330Y0510289D01*
X0363391Y0510140D01*
X0363447Y0509989D01*
X0363500Y0509837D01*
X0363549Y0509684D01*
X0363594Y0509530D01*
X0363635Y0509375D01*
X0363673Y0509218D01*
X0363706Y0509061D01*
X0363736Y0508903D01*
X0363762Y0508744D01*
X0363783Y0508585D01*
X0363801Y0508425D01*
X0363815Y0508265D01*
X0363825Y0508104D01*
X0363831Y0507944D01*
X0363833Y0507783D01*
X0363831Y0507622D01*
X0363825Y0507462D01*
X0363815Y0507301D01*
X0363801Y0507141D01*
X0363783Y0506981D01*
X0363762Y0506822D01*
X0363736Y0506663D01*
X0363706Y0506505D01*
X0363673Y0506348D01*
X0363635Y0506191D01*
X0363594Y0506036D01*
X0363549Y0505882D01*
X0363500Y0505729D01*
X0363447Y0505577D01*
X0363391Y0505426D01*
X0363330Y0505277D01*
X0363267Y0505129D01*
X0363199Y0504983D01*
X0363128Y0504839D01*
X0363054Y0504697D01*
X0362976Y0504556D01*
X0362894Y0504418D01*
X0362809Y0504281D01*
X0362721Y0504147D01*
X0362629Y0504015D01*
X0362534Y0503885D01*
X0362436Y0503757D01*
X0362335Y0503632D01*
X0362231Y0503510D01*
X0362124Y0503390D01*
X0362014Y0503273D01*
X0361901Y0503158D01*
X0361785Y0503047D01*
X0361666Y0502938D01*
X0361545Y0502833D01*
X0361421Y0502730D01*
X0361295Y0502630D01*
X0361167Y0502534D01*
X0361036Y0502441D01*
X0360902Y0502351D01*
X0360767Y0502264D01*
X0360629Y0502181D01*
X0360490Y0502101D01*
X0360348Y0502025D01*
X0360205Y0501952D01*
X0360060Y0501883D01*
X0359913Y0501817D01*
X0359765Y0501755D01*
X0359615Y0501697D01*
X0359464Y0501642D01*
X0359311Y0501591D01*
X0359157Y0501544D01*
X0359002Y0501501D01*
X0358846Y0501462D01*
X0358690Y0501426D01*
X0358532Y0501395D01*
X0358374Y0501367D01*
X0358215Y0501343D01*
X0358055Y0501323D01*
X0357895Y0501307D01*
X0357735Y0501295D01*
X0357574Y0501287D01*
X0357413Y0501283D01*
X0357253Y0501283D01*
X0357092Y0501287D01*
X0356931Y0501295D01*
X0356771Y0501307D01*
X0356611Y0501323D01*
X0356451Y0501343D01*
X0356292Y0501367D01*
X0356134Y0501395D01*
X0355976Y0501426D01*
X0355820Y0501462D01*
X0355664Y0501501D01*
X0355509Y0501544D01*
X0355355Y0501591D01*
X0355202Y0501642D01*
X0355051Y0501697D01*
X0354901Y0501755D01*
X0354753Y0501817D01*
X0354606Y0501883D01*
X0354461Y0501952D01*
X0354318Y0502025D01*
X0354176Y0502101D01*
X0354037Y0502181D01*
X0353899Y0502264D01*
X0353764Y0502351D01*
X0353630Y0502441D01*
X0353499Y0502534D01*
X0353371Y0502630D01*
X0353245Y0502730D01*
X0353121Y0502833D01*
X0353000Y0502938D01*
X0352881Y0503047D01*
X0352765Y0503158D01*
X0352652Y0503273D01*
X0352542Y0503390D01*
X0352435Y0503510D01*
X0352331Y0503632D01*
X0352230Y0503757D01*
X0352132Y0503885D01*
X0352037Y0504015D01*
X0351945Y0504147D01*
X0351857Y0504281D01*
X0351772Y0504418D01*
X0351690Y0504556D01*
X0351612Y0504697D01*
X0351538Y0504839D01*
X0351467Y0504983D01*
X0351399Y0505129D01*
X0351336Y0505277D01*
X0351275Y0505426D01*
X0351219Y0505577D01*
X0351166Y0505729D01*
X0351117Y0505882D01*
X0351072Y0506036D01*
X0351031Y0506191D01*
X0350993Y0506348D01*
X0350960Y0506505D01*
X0350930Y0506663D01*
X0350904Y0506822D01*
X0350883Y0506981D01*
X0350865Y0507141D01*
X0350851Y0507301D01*
X0350841Y0507462D01*
X0350835Y0507622D01*
X0350833Y0507783D01*
X0328833Y0507783D02*
X0328835Y0507944D01*
X0328841Y0508104D01*
X0328851Y0508265D01*
X0328865Y0508425D01*
X0328883Y0508585D01*
X0328904Y0508744D01*
X0328930Y0508903D01*
X0328960Y0509061D01*
X0328993Y0509218D01*
X0329031Y0509375D01*
X0329072Y0509530D01*
X0329117Y0509684D01*
X0329166Y0509837D01*
X0329219Y0509989D01*
X0329275Y0510140D01*
X0329336Y0510289D01*
X0329399Y0510437D01*
X0329467Y0510583D01*
X0329538Y0510727D01*
X0329612Y0510869D01*
X0329690Y0511010D01*
X0329772Y0511148D01*
X0329857Y0511285D01*
X0329945Y0511419D01*
X0330037Y0511551D01*
X0330132Y0511681D01*
X0330230Y0511809D01*
X0330331Y0511934D01*
X0330435Y0512056D01*
X0330542Y0512176D01*
X0330652Y0512293D01*
X0330765Y0512408D01*
X0330881Y0512519D01*
X0331000Y0512628D01*
X0331121Y0512733D01*
X0331245Y0512836D01*
X0331371Y0512936D01*
X0331499Y0513032D01*
X0331630Y0513125D01*
X0331764Y0513215D01*
X0331899Y0513302D01*
X0332037Y0513385D01*
X0332176Y0513465D01*
X0332318Y0513541D01*
X0332461Y0513614D01*
X0332606Y0513683D01*
X0332753Y0513749D01*
X0332901Y0513811D01*
X0333051Y0513869D01*
X0333202Y0513924D01*
X0333355Y0513975D01*
X0333509Y0514022D01*
X0333664Y0514065D01*
X0333820Y0514104D01*
X0333976Y0514140D01*
X0334134Y0514171D01*
X0334292Y0514199D01*
X0334451Y0514223D01*
X0334611Y0514243D01*
X0334771Y0514259D01*
X0334931Y0514271D01*
X0335092Y0514279D01*
X0335253Y0514283D01*
X0335413Y0514283D01*
X0335574Y0514279D01*
X0335735Y0514271D01*
X0335895Y0514259D01*
X0336055Y0514243D01*
X0336215Y0514223D01*
X0336374Y0514199D01*
X0336532Y0514171D01*
X0336690Y0514140D01*
X0336846Y0514104D01*
X0337002Y0514065D01*
X0337157Y0514022D01*
X0337311Y0513975D01*
X0337464Y0513924D01*
X0337615Y0513869D01*
X0337765Y0513811D01*
X0337913Y0513749D01*
X0338060Y0513683D01*
X0338205Y0513614D01*
X0338348Y0513541D01*
X0338490Y0513465D01*
X0338629Y0513385D01*
X0338767Y0513302D01*
X0338902Y0513215D01*
X0339036Y0513125D01*
X0339167Y0513032D01*
X0339295Y0512936D01*
X0339421Y0512836D01*
X0339545Y0512733D01*
X0339666Y0512628D01*
X0339785Y0512519D01*
X0339901Y0512408D01*
X0340014Y0512293D01*
X0340124Y0512176D01*
X0340231Y0512056D01*
X0340335Y0511934D01*
X0340436Y0511809D01*
X0340534Y0511681D01*
X0340629Y0511551D01*
X0340721Y0511419D01*
X0340809Y0511285D01*
X0340894Y0511148D01*
X0340976Y0511010D01*
X0341054Y0510869D01*
X0341128Y0510727D01*
X0341199Y0510583D01*
X0341267Y0510437D01*
X0341330Y0510289D01*
X0341391Y0510140D01*
X0341447Y0509989D01*
X0341500Y0509837D01*
X0341549Y0509684D01*
X0341594Y0509530D01*
X0341635Y0509375D01*
X0341673Y0509218D01*
X0341706Y0509061D01*
X0341736Y0508903D01*
X0341762Y0508744D01*
X0341783Y0508585D01*
X0341801Y0508425D01*
X0341815Y0508265D01*
X0341825Y0508104D01*
X0341831Y0507944D01*
X0341833Y0507783D01*
X0341831Y0507622D01*
X0341825Y0507462D01*
X0341815Y0507301D01*
X0341801Y0507141D01*
X0341783Y0506981D01*
X0341762Y0506822D01*
X0341736Y0506663D01*
X0341706Y0506505D01*
X0341673Y0506348D01*
X0341635Y0506191D01*
X0341594Y0506036D01*
X0341549Y0505882D01*
X0341500Y0505729D01*
X0341447Y0505577D01*
X0341391Y0505426D01*
X0341330Y0505277D01*
X0341267Y0505129D01*
X0341199Y0504983D01*
X0341128Y0504839D01*
X0341054Y0504697D01*
X0340976Y0504556D01*
X0340894Y0504418D01*
X0340809Y0504281D01*
X0340721Y0504147D01*
X0340629Y0504015D01*
X0340534Y0503885D01*
X0340436Y0503757D01*
X0340335Y0503632D01*
X0340231Y0503510D01*
X0340124Y0503390D01*
X0340014Y0503273D01*
X0339901Y0503158D01*
X0339785Y0503047D01*
X0339666Y0502938D01*
X0339545Y0502833D01*
X0339421Y0502730D01*
X0339295Y0502630D01*
X0339167Y0502534D01*
X0339036Y0502441D01*
X0338902Y0502351D01*
X0338767Y0502264D01*
X0338629Y0502181D01*
X0338490Y0502101D01*
X0338348Y0502025D01*
X0338205Y0501952D01*
X0338060Y0501883D01*
X0337913Y0501817D01*
X0337765Y0501755D01*
X0337615Y0501697D01*
X0337464Y0501642D01*
X0337311Y0501591D01*
X0337157Y0501544D01*
X0337002Y0501501D01*
X0336846Y0501462D01*
X0336690Y0501426D01*
X0336532Y0501395D01*
X0336374Y0501367D01*
X0336215Y0501343D01*
X0336055Y0501323D01*
X0335895Y0501307D01*
X0335735Y0501295D01*
X0335574Y0501287D01*
X0335413Y0501283D01*
X0335253Y0501283D01*
X0335092Y0501287D01*
X0334931Y0501295D01*
X0334771Y0501307D01*
X0334611Y0501323D01*
X0334451Y0501343D01*
X0334292Y0501367D01*
X0334134Y0501395D01*
X0333976Y0501426D01*
X0333820Y0501462D01*
X0333664Y0501501D01*
X0333509Y0501544D01*
X0333355Y0501591D01*
X0333202Y0501642D01*
X0333051Y0501697D01*
X0332901Y0501755D01*
X0332753Y0501817D01*
X0332606Y0501883D01*
X0332461Y0501952D01*
X0332318Y0502025D01*
X0332176Y0502101D01*
X0332037Y0502181D01*
X0331899Y0502264D01*
X0331764Y0502351D01*
X0331630Y0502441D01*
X0331499Y0502534D01*
X0331371Y0502630D01*
X0331245Y0502730D01*
X0331121Y0502833D01*
X0331000Y0502938D01*
X0330881Y0503047D01*
X0330765Y0503158D01*
X0330652Y0503273D01*
X0330542Y0503390D01*
X0330435Y0503510D01*
X0330331Y0503632D01*
X0330230Y0503757D01*
X0330132Y0503885D01*
X0330037Y0504015D01*
X0329945Y0504147D01*
X0329857Y0504281D01*
X0329772Y0504418D01*
X0329690Y0504556D01*
X0329612Y0504697D01*
X0329538Y0504839D01*
X0329467Y0504983D01*
X0329399Y0505129D01*
X0329336Y0505277D01*
X0329275Y0505426D01*
X0329219Y0505577D01*
X0329166Y0505729D01*
X0329117Y0505882D01*
X0329072Y0506036D01*
X0329031Y0506191D01*
X0328993Y0506348D01*
X0328960Y0506505D01*
X0328930Y0506663D01*
X0328904Y0506822D01*
X0328883Y0506981D01*
X0328865Y0507141D01*
X0328851Y0507301D01*
X0328841Y0507462D01*
X0328835Y0507622D01*
X0328833Y0507783D01*
X0328833Y0587783D02*
X0328835Y0587944D01*
X0328841Y0588104D01*
X0328851Y0588265D01*
X0328865Y0588425D01*
X0328883Y0588585D01*
X0328904Y0588744D01*
X0328930Y0588903D01*
X0328960Y0589061D01*
X0328993Y0589218D01*
X0329031Y0589375D01*
X0329072Y0589530D01*
X0329117Y0589684D01*
X0329166Y0589837D01*
X0329219Y0589989D01*
X0329275Y0590140D01*
X0329336Y0590289D01*
X0329399Y0590437D01*
X0329467Y0590583D01*
X0329538Y0590727D01*
X0329612Y0590869D01*
X0329690Y0591010D01*
X0329772Y0591148D01*
X0329857Y0591285D01*
X0329945Y0591419D01*
X0330037Y0591551D01*
X0330132Y0591681D01*
X0330230Y0591809D01*
X0330331Y0591934D01*
X0330435Y0592056D01*
X0330542Y0592176D01*
X0330652Y0592293D01*
X0330765Y0592408D01*
X0330881Y0592519D01*
X0331000Y0592628D01*
X0331121Y0592733D01*
X0331245Y0592836D01*
X0331371Y0592936D01*
X0331499Y0593032D01*
X0331630Y0593125D01*
X0331764Y0593215D01*
X0331899Y0593302D01*
X0332037Y0593385D01*
X0332176Y0593465D01*
X0332318Y0593541D01*
X0332461Y0593614D01*
X0332606Y0593683D01*
X0332753Y0593749D01*
X0332901Y0593811D01*
X0333051Y0593869D01*
X0333202Y0593924D01*
X0333355Y0593975D01*
X0333509Y0594022D01*
X0333664Y0594065D01*
X0333820Y0594104D01*
X0333976Y0594140D01*
X0334134Y0594171D01*
X0334292Y0594199D01*
X0334451Y0594223D01*
X0334611Y0594243D01*
X0334771Y0594259D01*
X0334931Y0594271D01*
X0335092Y0594279D01*
X0335253Y0594283D01*
X0335413Y0594283D01*
X0335574Y0594279D01*
X0335735Y0594271D01*
X0335895Y0594259D01*
X0336055Y0594243D01*
X0336215Y0594223D01*
X0336374Y0594199D01*
X0336532Y0594171D01*
X0336690Y0594140D01*
X0336846Y0594104D01*
X0337002Y0594065D01*
X0337157Y0594022D01*
X0337311Y0593975D01*
X0337464Y0593924D01*
X0337615Y0593869D01*
X0337765Y0593811D01*
X0337913Y0593749D01*
X0338060Y0593683D01*
X0338205Y0593614D01*
X0338348Y0593541D01*
X0338490Y0593465D01*
X0338629Y0593385D01*
X0338767Y0593302D01*
X0338902Y0593215D01*
X0339036Y0593125D01*
X0339167Y0593032D01*
X0339295Y0592936D01*
X0339421Y0592836D01*
X0339545Y0592733D01*
X0339666Y0592628D01*
X0339785Y0592519D01*
X0339901Y0592408D01*
X0340014Y0592293D01*
X0340124Y0592176D01*
X0340231Y0592056D01*
X0340335Y0591934D01*
X0340436Y0591809D01*
X0340534Y0591681D01*
X0340629Y0591551D01*
X0340721Y0591419D01*
X0340809Y0591285D01*
X0340894Y0591148D01*
X0340976Y0591010D01*
X0341054Y0590869D01*
X0341128Y0590727D01*
X0341199Y0590583D01*
X0341267Y0590437D01*
X0341330Y0590289D01*
X0341391Y0590140D01*
X0341447Y0589989D01*
X0341500Y0589837D01*
X0341549Y0589684D01*
X0341594Y0589530D01*
X0341635Y0589375D01*
X0341673Y0589218D01*
X0341706Y0589061D01*
X0341736Y0588903D01*
X0341762Y0588744D01*
X0341783Y0588585D01*
X0341801Y0588425D01*
X0341815Y0588265D01*
X0341825Y0588104D01*
X0341831Y0587944D01*
X0341833Y0587783D01*
X0341831Y0587622D01*
X0341825Y0587462D01*
X0341815Y0587301D01*
X0341801Y0587141D01*
X0341783Y0586981D01*
X0341762Y0586822D01*
X0341736Y0586663D01*
X0341706Y0586505D01*
X0341673Y0586348D01*
X0341635Y0586191D01*
X0341594Y0586036D01*
X0341549Y0585882D01*
X0341500Y0585729D01*
X0341447Y0585577D01*
X0341391Y0585426D01*
X0341330Y0585277D01*
X0341267Y0585129D01*
X0341199Y0584983D01*
X0341128Y0584839D01*
X0341054Y0584697D01*
X0340976Y0584556D01*
X0340894Y0584418D01*
X0340809Y0584281D01*
X0340721Y0584147D01*
X0340629Y0584015D01*
X0340534Y0583885D01*
X0340436Y0583757D01*
X0340335Y0583632D01*
X0340231Y0583510D01*
X0340124Y0583390D01*
X0340014Y0583273D01*
X0339901Y0583158D01*
X0339785Y0583047D01*
X0339666Y0582938D01*
X0339545Y0582833D01*
X0339421Y0582730D01*
X0339295Y0582630D01*
X0339167Y0582534D01*
X0339036Y0582441D01*
X0338902Y0582351D01*
X0338767Y0582264D01*
X0338629Y0582181D01*
X0338490Y0582101D01*
X0338348Y0582025D01*
X0338205Y0581952D01*
X0338060Y0581883D01*
X0337913Y0581817D01*
X0337765Y0581755D01*
X0337615Y0581697D01*
X0337464Y0581642D01*
X0337311Y0581591D01*
X0337157Y0581544D01*
X0337002Y0581501D01*
X0336846Y0581462D01*
X0336690Y0581426D01*
X0336532Y0581395D01*
X0336374Y0581367D01*
X0336215Y0581343D01*
X0336055Y0581323D01*
X0335895Y0581307D01*
X0335735Y0581295D01*
X0335574Y0581287D01*
X0335413Y0581283D01*
X0335253Y0581283D01*
X0335092Y0581287D01*
X0334931Y0581295D01*
X0334771Y0581307D01*
X0334611Y0581323D01*
X0334451Y0581343D01*
X0334292Y0581367D01*
X0334134Y0581395D01*
X0333976Y0581426D01*
X0333820Y0581462D01*
X0333664Y0581501D01*
X0333509Y0581544D01*
X0333355Y0581591D01*
X0333202Y0581642D01*
X0333051Y0581697D01*
X0332901Y0581755D01*
X0332753Y0581817D01*
X0332606Y0581883D01*
X0332461Y0581952D01*
X0332318Y0582025D01*
X0332176Y0582101D01*
X0332037Y0582181D01*
X0331899Y0582264D01*
X0331764Y0582351D01*
X0331630Y0582441D01*
X0331499Y0582534D01*
X0331371Y0582630D01*
X0331245Y0582730D01*
X0331121Y0582833D01*
X0331000Y0582938D01*
X0330881Y0583047D01*
X0330765Y0583158D01*
X0330652Y0583273D01*
X0330542Y0583390D01*
X0330435Y0583510D01*
X0330331Y0583632D01*
X0330230Y0583757D01*
X0330132Y0583885D01*
X0330037Y0584015D01*
X0329945Y0584147D01*
X0329857Y0584281D01*
X0329772Y0584418D01*
X0329690Y0584556D01*
X0329612Y0584697D01*
X0329538Y0584839D01*
X0329467Y0584983D01*
X0329399Y0585129D01*
X0329336Y0585277D01*
X0329275Y0585426D01*
X0329219Y0585577D01*
X0329166Y0585729D01*
X0329117Y0585882D01*
X0329072Y0586036D01*
X0329031Y0586191D01*
X0328993Y0586348D01*
X0328960Y0586505D01*
X0328930Y0586663D01*
X0328904Y0586822D01*
X0328883Y0586981D01*
X0328865Y0587141D01*
X0328851Y0587301D01*
X0328841Y0587462D01*
X0328835Y0587622D01*
X0328833Y0587783D01*
X0350833Y0587783D02*
X0350835Y0587944D01*
X0350841Y0588104D01*
X0350851Y0588265D01*
X0350865Y0588425D01*
X0350883Y0588585D01*
X0350904Y0588744D01*
X0350930Y0588903D01*
X0350960Y0589061D01*
X0350993Y0589218D01*
X0351031Y0589375D01*
X0351072Y0589530D01*
X0351117Y0589684D01*
X0351166Y0589837D01*
X0351219Y0589989D01*
X0351275Y0590140D01*
X0351336Y0590289D01*
X0351399Y0590437D01*
X0351467Y0590583D01*
X0351538Y0590727D01*
X0351612Y0590869D01*
X0351690Y0591010D01*
X0351772Y0591148D01*
X0351857Y0591285D01*
X0351945Y0591419D01*
X0352037Y0591551D01*
X0352132Y0591681D01*
X0352230Y0591809D01*
X0352331Y0591934D01*
X0352435Y0592056D01*
X0352542Y0592176D01*
X0352652Y0592293D01*
X0352765Y0592408D01*
X0352881Y0592519D01*
X0353000Y0592628D01*
X0353121Y0592733D01*
X0353245Y0592836D01*
X0353371Y0592936D01*
X0353499Y0593032D01*
X0353630Y0593125D01*
X0353764Y0593215D01*
X0353899Y0593302D01*
X0354037Y0593385D01*
X0354176Y0593465D01*
X0354318Y0593541D01*
X0354461Y0593614D01*
X0354606Y0593683D01*
X0354753Y0593749D01*
X0354901Y0593811D01*
X0355051Y0593869D01*
X0355202Y0593924D01*
X0355355Y0593975D01*
X0355509Y0594022D01*
X0355664Y0594065D01*
X0355820Y0594104D01*
X0355976Y0594140D01*
X0356134Y0594171D01*
X0356292Y0594199D01*
X0356451Y0594223D01*
X0356611Y0594243D01*
X0356771Y0594259D01*
X0356931Y0594271D01*
X0357092Y0594279D01*
X0357253Y0594283D01*
X0357413Y0594283D01*
X0357574Y0594279D01*
X0357735Y0594271D01*
X0357895Y0594259D01*
X0358055Y0594243D01*
X0358215Y0594223D01*
X0358374Y0594199D01*
X0358532Y0594171D01*
X0358690Y0594140D01*
X0358846Y0594104D01*
X0359002Y0594065D01*
X0359157Y0594022D01*
X0359311Y0593975D01*
X0359464Y0593924D01*
X0359615Y0593869D01*
X0359765Y0593811D01*
X0359913Y0593749D01*
X0360060Y0593683D01*
X0360205Y0593614D01*
X0360348Y0593541D01*
X0360490Y0593465D01*
X0360629Y0593385D01*
X0360767Y0593302D01*
X0360902Y0593215D01*
X0361036Y0593125D01*
X0361167Y0593032D01*
X0361295Y0592936D01*
X0361421Y0592836D01*
X0361545Y0592733D01*
X0361666Y0592628D01*
X0361785Y0592519D01*
X0361901Y0592408D01*
X0362014Y0592293D01*
X0362124Y0592176D01*
X0362231Y0592056D01*
X0362335Y0591934D01*
X0362436Y0591809D01*
X0362534Y0591681D01*
X0362629Y0591551D01*
X0362721Y0591419D01*
X0362809Y0591285D01*
X0362894Y0591148D01*
X0362976Y0591010D01*
X0363054Y0590869D01*
X0363128Y0590727D01*
X0363199Y0590583D01*
X0363267Y0590437D01*
X0363330Y0590289D01*
X0363391Y0590140D01*
X0363447Y0589989D01*
X0363500Y0589837D01*
X0363549Y0589684D01*
X0363594Y0589530D01*
X0363635Y0589375D01*
X0363673Y0589218D01*
X0363706Y0589061D01*
X0363736Y0588903D01*
X0363762Y0588744D01*
X0363783Y0588585D01*
X0363801Y0588425D01*
X0363815Y0588265D01*
X0363825Y0588104D01*
X0363831Y0587944D01*
X0363833Y0587783D01*
X0363831Y0587622D01*
X0363825Y0587462D01*
X0363815Y0587301D01*
X0363801Y0587141D01*
X0363783Y0586981D01*
X0363762Y0586822D01*
X0363736Y0586663D01*
X0363706Y0586505D01*
X0363673Y0586348D01*
X0363635Y0586191D01*
X0363594Y0586036D01*
X0363549Y0585882D01*
X0363500Y0585729D01*
X0363447Y0585577D01*
X0363391Y0585426D01*
X0363330Y0585277D01*
X0363267Y0585129D01*
X0363199Y0584983D01*
X0363128Y0584839D01*
X0363054Y0584697D01*
X0362976Y0584556D01*
X0362894Y0584418D01*
X0362809Y0584281D01*
X0362721Y0584147D01*
X0362629Y0584015D01*
X0362534Y0583885D01*
X0362436Y0583757D01*
X0362335Y0583632D01*
X0362231Y0583510D01*
X0362124Y0583390D01*
X0362014Y0583273D01*
X0361901Y0583158D01*
X0361785Y0583047D01*
X0361666Y0582938D01*
X0361545Y0582833D01*
X0361421Y0582730D01*
X0361295Y0582630D01*
X0361167Y0582534D01*
X0361036Y0582441D01*
X0360902Y0582351D01*
X0360767Y0582264D01*
X0360629Y0582181D01*
X0360490Y0582101D01*
X0360348Y0582025D01*
X0360205Y0581952D01*
X0360060Y0581883D01*
X0359913Y0581817D01*
X0359765Y0581755D01*
X0359615Y0581697D01*
X0359464Y0581642D01*
X0359311Y0581591D01*
X0359157Y0581544D01*
X0359002Y0581501D01*
X0358846Y0581462D01*
X0358690Y0581426D01*
X0358532Y0581395D01*
X0358374Y0581367D01*
X0358215Y0581343D01*
X0358055Y0581323D01*
X0357895Y0581307D01*
X0357735Y0581295D01*
X0357574Y0581287D01*
X0357413Y0581283D01*
X0357253Y0581283D01*
X0357092Y0581287D01*
X0356931Y0581295D01*
X0356771Y0581307D01*
X0356611Y0581323D01*
X0356451Y0581343D01*
X0356292Y0581367D01*
X0356134Y0581395D01*
X0355976Y0581426D01*
X0355820Y0581462D01*
X0355664Y0581501D01*
X0355509Y0581544D01*
X0355355Y0581591D01*
X0355202Y0581642D01*
X0355051Y0581697D01*
X0354901Y0581755D01*
X0354753Y0581817D01*
X0354606Y0581883D01*
X0354461Y0581952D01*
X0354318Y0582025D01*
X0354176Y0582101D01*
X0354037Y0582181D01*
X0353899Y0582264D01*
X0353764Y0582351D01*
X0353630Y0582441D01*
X0353499Y0582534D01*
X0353371Y0582630D01*
X0353245Y0582730D01*
X0353121Y0582833D01*
X0353000Y0582938D01*
X0352881Y0583047D01*
X0352765Y0583158D01*
X0352652Y0583273D01*
X0352542Y0583390D01*
X0352435Y0583510D01*
X0352331Y0583632D01*
X0352230Y0583757D01*
X0352132Y0583885D01*
X0352037Y0584015D01*
X0351945Y0584147D01*
X0351857Y0584281D01*
X0351772Y0584418D01*
X0351690Y0584556D01*
X0351612Y0584697D01*
X0351538Y0584839D01*
X0351467Y0584983D01*
X0351399Y0585129D01*
X0351336Y0585277D01*
X0351275Y0585426D01*
X0351219Y0585577D01*
X0351166Y0585729D01*
X0351117Y0585882D01*
X0351072Y0586036D01*
X0351031Y0586191D01*
X0350993Y0586348D01*
X0350960Y0586505D01*
X0350930Y0586663D01*
X0350904Y0586822D01*
X0350883Y0586981D01*
X0350865Y0587141D01*
X0350851Y0587301D01*
X0350841Y0587462D01*
X0350835Y0587622D01*
X0350833Y0587783D01*
X0248833Y0587783D02*
X0248835Y0587944D01*
X0248841Y0588104D01*
X0248851Y0588265D01*
X0248865Y0588425D01*
X0248883Y0588585D01*
X0248904Y0588744D01*
X0248930Y0588903D01*
X0248960Y0589061D01*
X0248993Y0589218D01*
X0249031Y0589375D01*
X0249072Y0589530D01*
X0249117Y0589684D01*
X0249166Y0589837D01*
X0249219Y0589989D01*
X0249275Y0590140D01*
X0249336Y0590289D01*
X0249399Y0590437D01*
X0249467Y0590583D01*
X0249538Y0590727D01*
X0249612Y0590869D01*
X0249690Y0591010D01*
X0249772Y0591148D01*
X0249857Y0591285D01*
X0249945Y0591419D01*
X0250037Y0591551D01*
X0250132Y0591681D01*
X0250230Y0591809D01*
X0250331Y0591934D01*
X0250435Y0592056D01*
X0250542Y0592176D01*
X0250652Y0592293D01*
X0250765Y0592408D01*
X0250881Y0592519D01*
X0251000Y0592628D01*
X0251121Y0592733D01*
X0251245Y0592836D01*
X0251371Y0592936D01*
X0251499Y0593032D01*
X0251630Y0593125D01*
X0251764Y0593215D01*
X0251899Y0593302D01*
X0252037Y0593385D01*
X0252176Y0593465D01*
X0252318Y0593541D01*
X0252461Y0593614D01*
X0252606Y0593683D01*
X0252753Y0593749D01*
X0252901Y0593811D01*
X0253051Y0593869D01*
X0253202Y0593924D01*
X0253355Y0593975D01*
X0253509Y0594022D01*
X0253664Y0594065D01*
X0253820Y0594104D01*
X0253976Y0594140D01*
X0254134Y0594171D01*
X0254292Y0594199D01*
X0254451Y0594223D01*
X0254611Y0594243D01*
X0254771Y0594259D01*
X0254931Y0594271D01*
X0255092Y0594279D01*
X0255253Y0594283D01*
X0255413Y0594283D01*
X0255574Y0594279D01*
X0255735Y0594271D01*
X0255895Y0594259D01*
X0256055Y0594243D01*
X0256215Y0594223D01*
X0256374Y0594199D01*
X0256532Y0594171D01*
X0256690Y0594140D01*
X0256846Y0594104D01*
X0257002Y0594065D01*
X0257157Y0594022D01*
X0257311Y0593975D01*
X0257464Y0593924D01*
X0257615Y0593869D01*
X0257765Y0593811D01*
X0257913Y0593749D01*
X0258060Y0593683D01*
X0258205Y0593614D01*
X0258348Y0593541D01*
X0258490Y0593465D01*
X0258629Y0593385D01*
X0258767Y0593302D01*
X0258902Y0593215D01*
X0259036Y0593125D01*
X0259167Y0593032D01*
X0259295Y0592936D01*
X0259421Y0592836D01*
X0259545Y0592733D01*
X0259666Y0592628D01*
X0259785Y0592519D01*
X0259901Y0592408D01*
X0260014Y0592293D01*
X0260124Y0592176D01*
X0260231Y0592056D01*
X0260335Y0591934D01*
X0260436Y0591809D01*
X0260534Y0591681D01*
X0260629Y0591551D01*
X0260721Y0591419D01*
X0260809Y0591285D01*
X0260894Y0591148D01*
X0260976Y0591010D01*
X0261054Y0590869D01*
X0261128Y0590727D01*
X0261199Y0590583D01*
X0261267Y0590437D01*
X0261330Y0590289D01*
X0261391Y0590140D01*
X0261447Y0589989D01*
X0261500Y0589837D01*
X0261549Y0589684D01*
X0261594Y0589530D01*
X0261635Y0589375D01*
X0261673Y0589218D01*
X0261706Y0589061D01*
X0261736Y0588903D01*
X0261762Y0588744D01*
X0261783Y0588585D01*
X0261801Y0588425D01*
X0261815Y0588265D01*
X0261825Y0588104D01*
X0261831Y0587944D01*
X0261833Y0587783D01*
X0261831Y0587622D01*
X0261825Y0587462D01*
X0261815Y0587301D01*
X0261801Y0587141D01*
X0261783Y0586981D01*
X0261762Y0586822D01*
X0261736Y0586663D01*
X0261706Y0586505D01*
X0261673Y0586348D01*
X0261635Y0586191D01*
X0261594Y0586036D01*
X0261549Y0585882D01*
X0261500Y0585729D01*
X0261447Y0585577D01*
X0261391Y0585426D01*
X0261330Y0585277D01*
X0261267Y0585129D01*
X0261199Y0584983D01*
X0261128Y0584839D01*
X0261054Y0584697D01*
X0260976Y0584556D01*
X0260894Y0584418D01*
X0260809Y0584281D01*
X0260721Y0584147D01*
X0260629Y0584015D01*
X0260534Y0583885D01*
X0260436Y0583757D01*
X0260335Y0583632D01*
X0260231Y0583510D01*
X0260124Y0583390D01*
X0260014Y0583273D01*
X0259901Y0583158D01*
X0259785Y0583047D01*
X0259666Y0582938D01*
X0259545Y0582833D01*
X0259421Y0582730D01*
X0259295Y0582630D01*
X0259167Y0582534D01*
X0259036Y0582441D01*
X0258902Y0582351D01*
X0258767Y0582264D01*
X0258629Y0582181D01*
X0258490Y0582101D01*
X0258348Y0582025D01*
X0258205Y0581952D01*
X0258060Y0581883D01*
X0257913Y0581817D01*
X0257765Y0581755D01*
X0257615Y0581697D01*
X0257464Y0581642D01*
X0257311Y0581591D01*
X0257157Y0581544D01*
X0257002Y0581501D01*
X0256846Y0581462D01*
X0256690Y0581426D01*
X0256532Y0581395D01*
X0256374Y0581367D01*
X0256215Y0581343D01*
X0256055Y0581323D01*
X0255895Y0581307D01*
X0255735Y0581295D01*
X0255574Y0581287D01*
X0255413Y0581283D01*
X0255253Y0581283D01*
X0255092Y0581287D01*
X0254931Y0581295D01*
X0254771Y0581307D01*
X0254611Y0581323D01*
X0254451Y0581343D01*
X0254292Y0581367D01*
X0254134Y0581395D01*
X0253976Y0581426D01*
X0253820Y0581462D01*
X0253664Y0581501D01*
X0253509Y0581544D01*
X0253355Y0581591D01*
X0253202Y0581642D01*
X0253051Y0581697D01*
X0252901Y0581755D01*
X0252753Y0581817D01*
X0252606Y0581883D01*
X0252461Y0581952D01*
X0252318Y0582025D01*
X0252176Y0582101D01*
X0252037Y0582181D01*
X0251899Y0582264D01*
X0251764Y0582351D01*
X0251630Y0582441D01*
X0251499Y0582534D01*
X0251371Y0582630D01*
X0251245Y0582730D01*
X0251121Y0582833D01*
X0251000Y0582938D01*
X0250881Y0583047D01*
X0250765Y0583158D01*
X0250652Y0583273D01*
X0250542Y0583390D01*
X0250435Y0583510D01*
X0250331Y0583632D01*
X0250230Y0583757D01*
X0250132Y0583885D01*
X0250037Y0584015D01*
X0249945Y0584147D01*
X0249857Y0584281D01*
X0249772Y0584418D01*
X0249690Y0584556D01*
X0249612Y0584697D01*
X0249538Y0584839D01*
X0249467Y0584983D01*
X0249399Y0585129D01*
X0249336Y0585277D01*
X0249275Y0585426D01*
X0249219Y0585577D01*
X0249166Y0585729D01*
X0249117Y0585882D01*
X0249072Y0586036D01*
X0249031Y0586191D01*
X0248993Y0586348D01*
X0248960Y0586505D01*
X0248930Y0586663D01*
X0248904Y0586822D01*
X0248883Y0586981D01*
X0248865Y0587141D01*
X0248851Y0587301D01*
X0248841Y0587462D01*
X0248835Y0587622D01*
X0248833Y0587783D01*
X0226833Y0587783D02*
X0226835Y0587944D01*
X0226841Y0588104D01*
X0226851Y0588265D01*
X0226865Y0588425D01*
X0226883Y0588585D01*
X0226904Y0588744D01*
X0226930Y0588903D01*
X0226960Y0589061D01*
X0226993Y0589218D01*
X0227031Y0589375D01*
X0227072Y0589530D01*
X0227117Y0589684D01*
X0227166Y0589837D01*
X0227219Y0589989D01*
X0227275Y0590140D01*
X0227336Y0590289D01*
X0227399Y0590437D01*
X0227467Y0590583D01*
X0227538Y0590727D01*
X0227612Y0590869D01*
X0227690Y0591010D01*
X0227772Y0591148D01*
X0227857Y0591285D01*
X0227945Y0591419D01*
X0228037Y0591551D01*
X0228132Y0591681D01*
X0228230Y0591809D01*
X0228331Y0591934D01*
X0228435Y0592056D01*
X0228542Y0592176D01*
X0228652Y0592293D01*
X0228765Y0592408D01*
X0228881Y0592519D01*
X0229000Y0592628D01*
X0229121Y0592733D01*
X0229245Y0592836D01*
X0229371Y0592936D01*
X0229499Y0593032D01*
X0229630Y0593125D01*
X0229764Y0593215D01*
X0229899Y0593302D01*
X0230037Y0593385D01*
X0230176Y0593465D01*
X0230318Y0593541D01*
X0230461Y0593614D01*
X0230606Y0593683D01*
X0230753Y0593749D01*
X0230901Y0593811D01*
X0231051Y0593869D01*
X0231202Y0593924D01*
X0231355Y0593975D01*
X0231509Y0594022D01*
X0231664Y0594065D01*
X0231820Y0594104D01*
X0231976Y0594140D01*
X0232134Y0594171D01*
X0232292Y0594199D01*
X0232451Y0594223D01*
X0232611Y0594243D01*
X0232771Y0594259D01*
X0232931Y0594271D01*
X0233092Y0594279D01*
X0233253Y0594283D01*
X0233413Y0594283D01*
X0233574Y0594279D01*
X0233735Y0594271D01*
X0233895Y0594259D01*
X0234055Y0594243D01*
X0234215Y0594223D01*
X0234374Y0594199D01*
X0234532Y0594171D01*
X0234690Y0594140D01*
X0234846Y0594104D01*
X0235002Y0594065D01*
X0235157Y0594022D01*
X0235311Y0593975D01*
X0235464Y0593924D01*
X0235615Y0593869D01*
X0235765Y0593811D01*
X0235913Y0593749D01*
X0236060Y0593683D01*
X0236205Y0593614D01*
X0236348Y0593541D01*
X0236490Y0593465D01*
X0236629Y0593385D01*
X0236767Y0593302D01*
X0236902Y0593215D01*
X0237036Y0593125D01*
X0237167Y0593032D01*
X0237295Y0592936D01*
X0237421Y0592836D01*
X0237545Y0592733D01*
X0237666Y0592628D01*
X0237785Y0592519D01*
X0237901Y0592408D01*
X0238014Y0592293D01*
X0238124Y0592176D01*
X0238231Y0592056D01*
X0238335Y0591934D01*
X0238436Y0591809D01*
X0238534Y0591681D01*
X0238629Y0591551D01*
X0238721Y0591419D01*
X0238809Y0591285D01*
X0238894Y0591148D01*
X0238976Y0591010D01*
X0239054Y0590869D01*
X0239128Y0590727D01*
X0239199Y0590583D01*
X0239267Y0590437D01*
X0239330Y0590289D01*
X0239391Y0590140D01*
X0239447Y0589989D01*
X0239500Y0589837D01*
X0239549Y0589684D01*
X0239594Y0589530D01*
X0239635Y0589375D01*
X0239673Y0589218D01*
X0239706Y0589061D01*
X0239736Y0588903D01*
X0239762Y0588744D01*
X0239783Y0588585D01*
X0239801Y0588425D01*
X0239815Y0588265D01*
X0239825Y0588104D01*
X0239831Y0587944D01*
X0239833Y0587783D01*
X0239831Y0587622D01*
X0239825Y0587462D01*
X0239815Y0587301D01*
X0239801Y0587141D01*
X0239783Y0586981D01*
X0239762Y0586822D01*
X0239736Y0586663D01*
X0239706Y0586505D01*
X0239673Y0586348D01*
X0239635Y0586191D01*
X0239594Y0586036D01*
X0239549Y0585882D01*
X0239500Y0585729D01*
X0239447Y0585577D01*
X0239391Y0585426D01*
X0239330Y0585277D01*
X0239267Y0585129D01*
X0239199Y0584983D01*
X0239128Y0584839D01*
X0239054Y0584697D01*
X0238976Y0584556D01*
X0238894Y0584418D01*
X0238809Y0584281D01*
X0238721Y0584147D01*
X0238629Y0584015D01*
X0238534Y0583885D01*
X0238436Y0583757D01*
X0238335Y0583632D01*
X0238231Y0583510D01*
X0238124Y0583390D01*
X0238014Y0583273D01*
X0237901Y0583158D01*
X0237785Y0583047D01*
X0237666Y0582938D01*
X0237545Y0582833D01*
X0237421Y0582730D01*
X0237295Y0582630D01*
X0237167Y0582534D01*
X0237036Y0582441D01*
X0236902Y0582351D01*
X0236767Y0582264D01*
X0236629Y0582181D01*
X0236490Y0582101D01*
X0236348Y0582025D01*
X0236205Y0581952D01*
X0236060Y0581883D01*
X0235913Y0581817D01*
X0235765Y0581755D01*
X0235615Y0581697D01*
X0235464Y0581642D01*
X0235311Y0581591D01*
X0235157Y0581544D01*
X0235002Y0581501D01*
X0234846Y0581462D01*
X0234690Y0581426D01*
X0234532Y0581395D01*
X0234374Y0581367D01*
X0234215Y0581343D01*
X0234055Y0581323D01*
X0233895Y0581307D01*
X0233735Y0581295D01*
X0233574Y0581287D01*
X0233413Y0581283D01*
X0233253Y0581283D01*
X0233092Y0581287D01*
X0232931Y0581295D01*
X0232771Y0581307D01*
X0232611Y0581323D01*
X0232451Y0581343D01*
X0232292Y0581367D01*
X0232134Y0581395D01*
X0231976Y0581426D01*
X0231820Y0581462D01*
X0231664Y0581501D01*
X0231509Y0581544D01*
X0231355Y0581591D01*
X0231202Y0581642D01*
X0231051Y0581697D01*
X0230901Y0581755D01*
X0230753Y0581817D01*
X0230606Y0581883D01*
X0230461Y0581952D01*
X0230318Y0582025D01*
X0230176Y0582101D01*
X0230037Y0582181D01*
X0229899Y0582264D01*
X0229764Y0582351D01*
X0229630Y0582441D01*
X0229499Y0582534D01*
X0229371Y0582630D01*
X0229245Y0582730D01*
X0229121Y0582833D01*
X0229000Y0582938D01*
X0228881Y0583047D01*
X0228765Y0583158D01*
X0228652Y0583273D01*
X0228542Y0583390D01*
X0228435Y0583510D01*
X0228331Y0583632D01*
X0228230Y0583757D01*
X0228132Y0583885D01*
X0228037Y0584015D01*
X0227945Y0584147D01*
X0227857Y0584281D01*
X0227772Y0584418D01*
X0227690Y0584556D01*
X0227612Y0584697D01*
X0227538Y0584839D01*
X0227467Y0584983D01*
X0227399Y0585129D01*
X0227336Y0585277D01*
X0227275Y0585426D01*
X0227219Y0585577D01*
X0227166Y0585729D01*
X0227117Y0585882D01*
X0227072Y0586036D01*
X0227031Y0586191D01*
X0226993Y0586348D01*
X0226960Y0586505D01*
X0226930Y0586663D01*
X0226904Y0586822D01*
X0226883Y0586981D01*
X0226865Y0587141D01*
X0226851Y0587301D01*
X0226841Y0587462D01*
X0226835Y0587622D01*
X0226833Y0587783D01*
X0226833Y0507783D02*
X0226835Y0507944D01*
X0226841Y0508104D01*
X0226851Y0508265D01*
X0226865Y0508425D01*
X0226883Y0508585D01*
X0226904Y0508744D01*
X0226930Y0508903D01*
X0226960Y0509061D01*
X0226993Y0509218D01*
X0227031Y0509375D01*
X0227072Y0509530D01*
X0227117Y0509684D01*
X0227166Y0509837D01*
X0227219Y0509989D01*
X0227275Y0510140D01*
X0227336Y0510289D01*
X0227399Y0510437D01*
X0227467Y0510583D01*
X0227538Y0510727D01*
X0227612Y0510869D01*
X0227690Y0511010D01*
X0227772Y0511148D01*
X0227857Y0511285D01*
X0227945Y0511419D01*
X0228037Y0511551D01*
X0228132Y0511681D01*
X0228230Y0511809D01*
X0228331Y0511934D01*
X0228435Y0512056D01*
X0228542Y0512176D01*
X0228652Y0512293D01*
X0228765Y0512408D01*
X0228881Y0512519D01*
X0229000Y0512628D01*
X0229121Y0512733D01*
X0229245Y0512836D01*
X0229371Y0512936D01*
X0229499Y0513032D01*
X0229630Y0513125D01*
X0229764Y0513215D01*
X0229899Y0513302D01*
X0230037Y0513385D01*
X0230176Y0513465D01*
X0230318Y0513541D01*
X0230461Y0513614D01*
X0230606Y0513683D01*
X0230753Y0513749D01*
X0230901Y0513811D01*
X0231051Y0513869D01*
X0231202Y0513924D01*
X0231355Y0513975D01*
X0231509Y0514022D01*
X0231664Y0514065D01*
X0231820Y0514104D01*
X0231976Y0514140D01*
X0232134Y0514171D01*
X0232292Y0514199D01*
X0232451Y0514223D01*
X0232611Y0514243D01*
X0232771Y0514259D01*
X0232931Y0514271D01*
X0233092Y0514279D01*
X0233253Y0514283D01*
X0233413Y0514283D01*
X0233574Y0514279D01*
X0233735Y0514271D01*
X0233895Y0514259D01*
X0234055Y0514243D01*
X0234215Y0514223D01*
X0234374Y0514199D01*
X0234532Y0514171D01*
X0234690Y0514140D01*
X0234846Y0514104D01*
X0235002Y0514065D01*
X0235157Y0514022D01*
X0235311Y0513975D01*
X0235464Y0513924D01*
X0235615Y0513869D01*
X0235765Y0513811D01*
X0235913Y0513749D01*
X0236060Y0513683D01*
X0236205Y0513614D01*
X0236348Y0513541D01*
X0236490Y0513465D01*
X0236629Y0513385D01*
X0236767Y0513302D01*
X0236902Y0513215D01*
X0237036Y0513125D01*
X0237167Y0513032D01*
X0237295Y0512936D01*
X0237421Y0512836D01*
X0237545Y0512733D01*
X0237666Y0512628D01*
X0237785Y0512519D01*
X0237901Y0512408D01*
X0238014Y0512293D01*
X0238124Y0512176D01*
X0238231Y0512056D01*
X0238335Y0511934D01*
X0238436Y0511809D01*
X0238534Y0511681D01*
X0238629Y0511551D01*
X0238721Y0511419D01*
X0238809Y0511285D01*
X0238894Y0511148D01*
X0238976Y0511010D01*
X0239054Y0510869D01*
X0239128Y0510727D01*
X0239199Y0510583D01*
X0239267Y0510437D01*
X0239330Y0510289D01*
X0239391Y0510140D01*
X0239447Y0509989D01*
X0239500Y0509837D01*
X0239549Y0509684D01*
X0239594Y0509530D01*
X0239635Y0509375D01*
X0239673Y0509218D01*
X0239706Y0509061D01*
X0239736Y0508903D01*
X0239762Y0508744D01*
X0239783Y0508585D01*
X0239801Y0508425D01*
X0239815Y0508265D01*
X0239825Y0508104D01*
X0239831Y0507944D01*
X0239833Y0507783D01*
X0239831Y0507622D01*
X0239825Y0507462D01*
X0239815Y0507301D01*
X0239801Y0507141D01*
X0239783Y0506981D01*
X0239762Y0506822D01*
X0239736Y0506663D01*
X0239706Y0506505D01*
X0239673Y0506348D01*
X0239635Y0506191D01*
X0239594Y0506036D01*
X0239549Y0505882D01*
X0239500Y0505729D01*
X0239447Y0505577D01*
X0239391Y0505426D01*
X0239330Y0505277D01*
X0239267Y0505129D01*
X0239199Y0504983D01*
X0239128Y0504839D01*
X0239054Y0504697D01*
X0238976Y0504556D01*
X0238894Y0504418D01*
X0238809Y0504281D01*
X0238721Y0504147D01*
X0238629Y0504015D01*
X0238534Y0503885D01*
X0238436Y0503757D01*
X0238335Y0503632D01*
X0238231Y0503510D01*
X0238124Y0503390D01*
X0238014Y0503273D01*
X0237901Y0503158D01*
X0237785Y0503047D01*
X0237666Y0502938D01*
X0237545Y0502833D01*
X0237421Y0502730D01*
X0237295Y0502630D01*
X0237167Y0502534D01*
X0237036Y0502441D01*
X0236902Y0502351D01*
X0236767Y0502264D01*
X0236629Y0502181D01*
X0236490Y0502101D01*
X0236348Y0502025D01*
X0236205Y0501952D01*
X0236060Y0501883D01*
X0235913Y0501817D01*
X0235765Y0501755D01*
X0235615Y0501697D01*
X0235464Y0501642D01*
X0235311Y0501591D01*
X0235157Y0501544D01*
X0235002Y0501501D01*
X0234846Y0501462D01*
X0234690Y0501426D01*
X0234532Y0501395D01*
X0234374Y0501367D01*
X0234215Y0501343D01*
X0234055Y0501323D01*
X0233895Y0501307D01*
X0233735Y0501295D01*
X0233574Y0501287D01*
X0233413Y0501283D01*
X0233253Y0501283D01*
X0233092Y0501287D01*
X0232931Y0501295D01*
X0232771Y0501307D01*
X0232611Y0501323D01*
X0232451Y0501343D01*
X0232292Y0501367D01*
X0232134Y0501395D01*
X0231976Y0501426D01*
X0231820Y0501462D01*
X0231664Y0501501D01*
X0231509Y0501544D01*
X0231355Y0501591D01*
X0231202Y0501642D01*
X0231051Y0501697D01*
X0230901Y0501755D01*
X0230753Y0501817D01*
X0230606Y0501883D01*
X0230461Y0501952D01*
X0230318Y0502025D01*
X0230176Y0502101D01*
X0230037Y0502181D01*
X0229899Y0502264D01*
X0229764Y0502351D01*
X0229630Y0502441D01*
X0229499Y0502534D01*
X0229371Y0502630D01*
X0229245Y0502730D01*
X0229121Y0502833D01*
X0229000Y0502938D01*
X0228881Y0503047D01*
X0228765Y0503158D01*
X0228652Y0503273D01*
X0228542Y0503390D01*
X0228435Y0503510D01*
X0228331Y0503632D01*
X0228230Y0503757D01*
X0228132Y0503885D01*
X0228037Y0504015D01*
X0227945Y0504147D01*
X0227857Y0504281D01*
X0227772Y0504418D01*
X0227690Y0504556D01*
X0227612Y0504697D01*
X0227538Y0504839D01*
X0227467Y0504983D01*
X0227399Y0505129D01*
X0227336Y0505277D01*
X0227275Y0505426D01*
X0227219Y0505577D01*
X0227166Y0505729D01*
X0227117Y0505882D01*
X0227072Y0506036D01*
X0227031Y0506191D01*
X0226993Y0506348D01*
X0226960Y0506505D01*
X0226930Y0506663D01*
X0226904Y0506822D01*
X0226883Y0506981D01*
X0226865Y0507141D01*
X0226851Y0507301D01*
X0226841Y0507462D01*
X0226835Y0507622D01*
X0226833Y0507783D01*
X0248833Y0507783D02*
X0248835Y0507944D01*
X0248841Y0508104D01*
X0248851Y0508265D01*
X0248865Y0508425D01*
X0248883Y0508585D01*
X0248904Y0508744D01*
X0248930Y0508903D01*
X0248960Y0509061D01*
X0248993Y0509218D01*
X0249031Y0509375D01*
X0249072Y0509530D01*
X0249117Y0509684D01*
X0249166Y0509837D01*
X0249219Y0509989D01*
X0249275Y0510140D01*
X0249336Y0510289D01*
X0249399Y0510437D01*
X0249467Y0510583D01*
X0249538Y0510727D01*
X0249612Y0510869D01*
X0249690Y0511010D01*
X0249772Y0511148D01*
X0249857Y0511285D01*
X0249945Y0511419D01*
X0250037Y0511551D01*
X0250132Y0511681D01*
X0250230Y0511809D01*
X0250331Y0511934D01*
X0250435Y0512056D01*
X0250542Y0512176D01*
X0250652Y0512293D01*
X0250765Y0512408D01*
X0250881Y0512519D01*
X0251000Y0512628D01*
X0251121Y0512733D01*
X0251245Y0512836D01*
X0251371Y0512936D01*
X0251499Y0513032D01*
X0251630Y0513125D01*
X0251764Y0513215D01*
X0251899Y0513302D01*
X0252037Y0513385D01*
X0252176Y0513465D01*
X0252318Y0513541D01*
X0252461Y0513614D01*
X0252606Y0513683D01*
X0252753Y0513749D01*
X0252901Y0513811D01*
X0253051Y0513869D01*
X0253202Y0513924D01*
X0253355Y0513975D01*
X0253509Y0514022D01*
X0253664Y0514065D01*
X0253820Y0514104D01*
X0253976Y0514140D01*
X0254134Y0514171D01*
X0254292Y0514199D01*
X0254451Y0514223D01*
X0254611Y0514243D01*
X0254771Y0514259D01*
X0254931Y0514271D01*
X0255092Y0514279D01*
X0255253Y0514283D01*
X0255413Y0514283D01*
X0255574Y0514279D01*
X0255735Y0514271D01*
X0255895Y0514259D01*
X0256055Y0514243D01*
X0256215Y0514223D01*
X0256374Y0514199D01*
X0256532Y0514171D01*
X0256690Y0514140D01*
X0256846Y0514104D01*
X0257002Y0514065D01*
X0257157Y0514022D01*
X0257311Y0513975D01*
X0257464Y0513924D01*
X0257615Y0513869D01*
X0257765Y0513811D01*
X0257913Y0513749D01*
X0258060Y0513683D01*
X0258205Y0513614D01*
X0258348Y0513541D01*
X0258490Y0513465D01*
X0258629Y0513385D01*
X0258767Y0513302D01*
X0258902Y0513215D01*
X0259036Y0513125D01*
X0259167Y0513032D01*
X0259295Y0512936D01*
X0259421Y0512836D01*
X0259545Y0512733D01*
X0259666Y0512628D01*
X0259785Y0512519D01*
X0259901Y0512408D01*
X0260014Y0512293D01*
X0260124Y0512176D01*
X0260231Y0512056D01*
X0260335Y0511934D01*
X0260436Y0511809D01*
X0260534Y0511681D01*
X0260629Y0511551D01*
X0260721Y0511419D01*
X0260809Y0511285D01*
X0260894Y0511148D01*
X0260976Y0511010D01*
X0261054Y0510869D01*
X0261128Y0510727D01*
X0261199Y0510583D01*
X0261267Y0510437D01*
X0261330Y0510289D01*
X0261391Y0510140D01*
X0261447Y0509989D01*
X0261500Y0509837D01*
X0261549Y0509684D01*
X0261594Y0509530D01*
X0261635Y0509375D01*
X0261673Y0509218D01*
X0261706Y0509061D01*
X0261736Y0508903D01*
X0261762Y0508744D01*
X0261783Y0508585D01*
X0261801Y0508425D01*
X0261815Y0508265D01*
X0261825Y0508104D01*
X0261831Y0507944D01*
X0261833Y0507783D01*
X0261831Y0507622D01*
X0261825Y0507462D01*
X0261815Y0507301D01*
X0261801Y0507141D01*
X0261783Y0506981D01*
X0261762Y0506822D01*
X0261736Y0506663D01*
X0261706Y0506505D01*
X0261673Y0506348D01*
X0261635Y0506191D01*
X0261594Y0506036D01*
X0261549Y0505882D01*
X0261500Y0505729D01*
X0261447Y0505577D01*
X0261391Y0505426D01*
X0261330Y0505277D01*
X0261267Y0505129D01*
X0261199Y0504983D01*
X0261128Y0504839D01*
X0261054Y0504697D01*
X0260976Y0504556D01*
X0260894Y0504418D01*
X0260809Y0504281D01*
X0260721Y0504147D01*
X0260629Y0504015D01*
X0260534Y0503885D01*
X0260436Y0503757D01*
X0260335Y0503632D01*
X0260231Y0503510D01*
X0260124Y0503390D01*
X0260014Y0503273D01*
X0259901Y0503158D01*
X0259785Y0503047D01*
X0259666Y0502938D01*
X0259545Y0502833D01*
X0259421Y0502730D01*
X0259295Y0502630D01*
X0259167Y0502534D01*
X0259036Y0502441D01*
X0258902Y0502351D01*
X0258767Y0502264D01*
X0258629Y0502181D01*
X0258490Y0502101D01*
X0258348Y0502025D01*
X0258205Y0501952D01*
X0258060Y0501883D01*
X0257913Y0501817D01*
X0257765Y0501755D01*
X0257615Y0501697D01*
X0257464Y0501642D01*
X0257311Y0501591D01*
X0257157Y0501544D01*
X0257002Y0501501D01*
X0256846Y0501462D01*
X0256690Y0501426D01*
X0256532Y0501395D01*
X0256374Y0501367D01*
X0256215Y0501343D01*
X0256055Y0501323D01*
X0255895Y0501307D01*
X0255735Y0501295D01*
X0255574Y0501287D01*
X0255413Y0501283D01*
X0255253Y0501283D01*
X0255092Y0501287D01*
X0254931Y0501295D01*
X0254771Y0501307D01*
X0254611Y0501323D01*
X0254451Y0501343D01*
X0254292Y0501367D01*
X0254134Y0501395D01*
X0253976Y0501426D01*
X0253820Y0501462D01*
X0253664Y0501501D01*
X0253509Y0501544D01*
X0253355Y0501591D01*
X0253202Y0501642D01*
X0253051Y0501697D01*
X0252901Y0501755D01*
X0252753Y0501817D01*
X0252606Y0501883D01*
X0252461Y0501952D01*
X0252318Y0502025D01*
X0252176Y0502101D01*
X0252037Y0502181D01*
X0251899Y0502264D01*
X0251764Y0502351D01*
X0251630Y0502441D01*
X0251499Y0502534D01*
X0251371Y0502630D01*
X0251245Y0502730D01*
X0251121Y0502833D01*
X0251000Y0502938D01*
X0250881Y0503047D01*
X0250765Y0503158D01*
X0250652Y0503273D01*
X0250542Y0503390D01*
X0250435Y0503510D01*
X0250331Y0503632D01*
X0250230Y0503757D01*
X0250132Y0503885D01*
X0250037Y0504015D01*
X0249945Y0504147D01*
X0249857Y0504281D01*
X0249772Y0504418D01*
X0249690Y0504556D01*
X0249612Y0504697D01*
X0249538Y0504839D01*
X0249467Y0504983D01*
X0249399Y0505129D01*
X0249336Y0505277D01*
X0249275Y0505426D01*
X0249219Y0505577D01*
X0249166Y0505729D01*
X0249117Y0505882D01*
X0249072Y0506036D01*
X0249031Y0506191D01*
X0248993Y0506348D01*
X0248960Y0506505D01*
X0248930Y0506663D01*
X0248904Y0506822D01*
X0248883Y0506981D01*
X0248865Y0507141D01*
X0248851Y0507301D01*
X0248841Y0507462D01*
X0248835Y0507622D01*
X0248833Y0507783D01*
X0248833Y0435783D02*
X0248835Y0435944D01*
X0248841Y0436104D01*
X0248851Y0436265D01*
X0248865Y0436425D01*
X0248883Y0436585D01*
X0248904Y0436744D01*
X0248930Y0436903D01*
X0248960Y0437061D01*
X0248993Y0437218D01*
X0249031Y0437375D01*
X0249072Y0437530D01*
X0249117Y0437684D01*
X0249166Y0437837D01*
X0249219Y0437989D01*
X0249275Y0438140D01*
X0249336Y0438289D01*
X0249399Y0438437D01*
X0249467Y0438583D01*
X0249538Y0438727D01*
X0249612Y0438869D01*
X0249690Y0439010D01*
X0249772Y0439148D01*
X0249857Y0439285D01*
X0249945Y0439419D01*
X0250037Y0439551D01*
X0250132Y0439681D01*
X0250230Y0439809D01*
X0250331Y0439934D01*
X0250435Y0440056D01*
X0250542Y0440176D01*
X0250652Y0440293D01*
X0250765Y0440408D01*
X0250881Y0440519D01*
X0251000Y0440628D01*
X0251121Y0440733D01*
X0251245Y0440836D01*
X0251371Y0440936D01*
X0251499Y0441032D01*
X0251630Y0441125D01*
X0251764Y0441215D01*
X0251899Y0441302D01*
X0252037Y0441385D01*
X0252176Y0441465D01*
X0252318Y0441541D01*
X0252461Y0441614D01*
X0252606Y0441683D01*
X0252753Y0441749D01*
X0252901Y0441811D01*
X0253051Y0441869D01*
X0253202Y0441924D01*
X0253355Y0441975D01*
X0253509Y0442022D01*
X0253664Y0442065D01*
X0253820Y0442104D01*
X0253976Y0442140D01*
X0254134Y0442171D01*
X0254292Y0442199D01*
X0254451Y0442223D01*
X0254611Y0442243D01*
X0254771Y0442259D01*
X0254931Y0442271D01*
X0255092Y0442279D01*
X0255253Y0442283D01*
X0255413Y0442283D01*
X0255574Y0442279D01*
X0255735Y0442271D01*
X0255895Y0442259D01*
X0256055Y0442243D01*
X0256215Y0442223D01*
X0256374Y0442199D01*
X0256532Y0442171D01*
X0256690Y0442140D01*
X0256846Y0442104D01*
X0257002Y0442065D01*
X0257157Y0442022D01*
X0257311Y0441975D01*
X0257464Y0441924D01*
X0257615Y0441869D01*
X0257765Y0441811D01*
X0257913Y0441749D01*
X0258060Y0441683D01*
X0258205Y0441614D01*
X0258348Y0441541D01*
X0258490Y0441465D01*
X0258629Y0441385D01*
X0258767Y0441302D01*
X0258902Y0441215D01*
X0259036Y0441125D01*
X0259167Y0441032D01*
X0259295Y0440936D01*
X0259421Y0440836D01*
X0259545Y0440733D01*
X0259666Y0440628D01*
X0259785Y0440519D01*
X0259901Y0440408D01*
X0260014Y0440293D01*
X0260124Y0440176D01*
X0260231Y0440056D01*
X0260335Y0439934D01*
X0260436Y0439809D01*
X0260534Y0439681D01*
X0260629Y0439551D01*
X0260721Y0439419D01*
X0260809Y0439285D01*
X0260894Y0439148D01*
X0260976Y0439010D01*
X0261054Y0438869D01*
X0261128Y0438727D01*
X0261199Y0438583D01*
X0261267Y0438437D01*
X0261330Y0438289D01*
X0261391Y0438140D01*
X0261447Y0437989D01*
X0261500Y0437837D01*
X0261549Y0437684D01*
X0261594Y0437530D01*
X0261635Y0437375D01*
X0261673Y0437218D01*
X0261706Y0437061D01*
X0261736Y0436903D01*
X0261762Y0436744D01*
X0261783Y0436585D01*
X0261801Y0436425D01*
X0261815Y0436265D01*
X0261825Y0436104D01*
X0261831Y0435944D01*
X0261833Y0435783D01*
X0261831Y0435622D01*
X0261825Y0435462D01*
X0261815Y0435301D01*
X0261801Y0435141D01*
X0261783Y0434981D01*
X0261762Y0434822D01*
X0261736Y0434663D01*
X0261706Y0434505D01*
X0261673Y0434348D01*
X0261635Y0434191D01*
X0261594Y0434036D01*
X0261549Y0433882D01*
X0261500Y0433729D01*
X0261447Y0433577D01*
X0261391Y0433426D01*
X0261330Y0433277D01*
X0261267Y0433129D01*
X0261199Y0432983D01*
X0261128Y0432839D01*
X0261054Y0432697D01*
X0260976Y0432556D01*
X0260894Y0432418D01*
X0260809Y0432281D01*
X0260721Y0432147D01*
X0260629Y0432015D01*
X0260534Y0431885D01*
X0260436Y0431757D01*
X0260335Y0431632D01*
X0260231Y0431510D01*
X0260124Y0431390D01*
X0260014Y0431273D01*
X0259901Y0431158D01*
X0259785Y0431047D01*
X0259666Y0430938D01*
X0259545Y0430833D01*
X0259421Y0430730D01*
X0259295Y0430630D01*
X0259167Y0430534D01*
X0259036Y0430441D01*
X0258902Y0430351D01*
X0258767Y0430264D01*
X0258629Y0430181D01*
X0258490Y0430101D01*
X0258348Y0430025D01*
X0258205Y0429952D01*
X0258060Y0429883D01*
X0257913Y0429817D01*
X0257765Y0429755D01*
X0257615Y0429697D01*
X0257464Y0429642D01*
X0257311Y0429591D01*
X0257157Y0429544D01*
X0257002Y0429501D01*
X0256846Y0429462D01*
X0256690Y0429426D01*
X0256532Y0429395D01*
X0256374Y0429367D01*
X0256215Y0429343D01*
X0256055Y0429323D01*
X0255895Y0429307D01*
X0255735Y0429295D01*
X0255574Y0429287D01*
X0255413Y0429283D01*
X0255253Y0429283D01*
X0255092Y0429287D01*
X0254931Y0429295D01*
X0254771Y0429307D01*
X0254611Y0429323D01*
X0254451Y0429343D01*
X0254292Y0429367D01*
X0254134Y0429395D01*
X0253976Y0429426D01*
X0253820Y0429462D01*
X0253664Y0429501D01*
X0253509Y0429544D01*
X0253355Y0429591D01*
X0253202Y0429642D01*
X0253051Y0429697D01*
X0252901Y0429755D01*
X0252753Y0429817D01*
X0252606Y0429883D01*
X0252461Y0429952D01*
X0252318Y0430025D01*
X0252176Y0430101D01*
X0252037Y0430181D01*
X0251899Y0430264D01*
X0251764Y0430351D01*
X0251630Y0430441D01*
X0251499Y0430534D01*
X0251371Y0430630D01*
X0251245Y0430730D01*
X0251121Y0430833D01*
X0251000Y0430938D01*
X0250881Y0431047D01*
X0250765Y0431158D01*
X0250652Y0431273D01*
X0250542Y0431390D01*
X0250435Y0431510D01*
X0250331Y0431632D01*
X0250230Y0431757D01*
X0250132Y0431885D01*
X0250037Y0432015D01*
X0249945Y0432147D01*
X0249857Y0432281D01*
X0249772Y0432418D01*
X0249690Y0432556D01*
X0249612Y0432697D01*
X0249538Y0432839D01*
X0249467Y0432983D01*
X0249399Y0433129D01*
X0249336Y0433277D01*
X0249275Y0433426D01*
X0249219Y0433577D01*
X0249166Y0433729D01*
X0249117Y0433882D01*
X0249072Y0434036D01*
X0249031Y0434191D01*
X0248993Y0434348D01*
X0248960Y0434505D01*
X0248930Y0434663D01*
X0248904Y0434822D01*
X0248883Y0434981D01*
X0248865Y0435141D01*
X0248851Y0435301D01*
X0248841Y0435462D01*
X0248835Y0435622D01*
X0248833Y0435783D01*
X0226833Y0435783D02*
X0226835Y0435944D01*
X0226841Y0436104D01*
X0226851Y0436265D01*
X0226865Y0436425D01*
X0226883Y0436585D01*
X0226904Y0436744D01*
X0226930Y0436903D01*
X0226960Y0437061D01*
X0226993Y0437218D01*
X0227031Y0437375D01*
X0227072Y0437530D01*
X0227117Y0437684D01*
X0227166Y0437837D01*
X0227219Y0437989D01*
X0227275Y0438140D01*
X0227336Y0438289D01*
X0227399Y0438437D01*
X0227467Y0438583D01*
X0227538Y0438727D01*
X0227612Y0438869D01*
X0227690Y0439010D01*
X0227772Y0439148D01*
X0227857Y0439285D01*
X0227945Y0439419D01*
X0228037Y0439551D01*
X0228132Y0439681D01*
X0228230Y0439809D01*
X0228331Y0439934D01*
X0228435Y0440056D01*
X0228542Y0440176D01*
X0228652Y0440293D01*
X0228765Y0440408D01*
X0228881Y0440519D01*
X0229000Y0440628D01*
X0229121Y0440733D01*
X0229245Y0440836D01*
X0229371Y0440936D01*
X0229499Y0441032D01*
X0229630Y0441125D01*
X0229764Y0441215D01*
X0229899Y0441302D01*
X0230037Y0441385D01*
X0230176Y0441465D01*
X0230318Y0441541D01*
X0230461Y0441614D01*
X0230606Y0441683D01*
X0230753Y0441749D01*
X0230901Y0441811D01*
X0231051Y0441869D01*
X0231202Y0441924D01*
X0231355Y0441975D01*
X0231509Y0442022D01*
X0231664Y0442065D01*
X0231820Y0442104D01*
X0231976Y0442140D01*
X0232134Y0442171D01*
X0232292Y0442199D01*
X0232451Y0442223D01*
X0232611Y0442243D01*
X0232771Y0442259D01*
X0232931Y0442271D01*
X0233092Y0442279D01*
X0233253Y0442283D01*
X0233413Y0442283D01*
X0233574Y0442279D01*
X0233735Y0442271D01*
X0233895Y0442259D01*
X0234055Y0442243D01*
X0234215Y0442223D01*
X0234374Y0442199D01*
X0234532Y0442171D01*
X0234690Y0442140D01*
X0234846Y0442104D01*
X0235002Y0442065D01*
X0235157Y0442022D01*
X0235311Y0441975D01*
X0235464Y0441924D01*
X0235615Y0441869D01*
X0235765Y0441811D01*
X0235913Y0441749D01*
X0236060Y0441683D01*
X0236205Y0441614D01*
X0236348Y0441541D01*
X0236490Y0441465D01*
X0236629Y0441385D01*
X0236767Y0441302D01*
X0236902Y0441215D01*
X0237036Y0441125D01*
X0237167Y0441032D01*
X0237295Y0440936D01*
X0237421Y0440836D01*
X0237545Y0440733D01*
X0237666Y0440628D01*
X0237785Y0440519D01*
X0237901Y0440408D01*
X0238014Y0440293D01*
X0238124Y0440176D01*
X0238231Y0440056D01*
X0238335Y0439934D01*
X0238436Y0439809D01*
X0238534Y0439681D01*
X0238629Y0439551D01*
X0238721Y0439419D01*
X0238809Y0439285D01*
X0238894Y0439148D01*
X0238976Y0439010D01*
X0239054Y0438869D01*
X0239128Y0438727D01*
X0239199Y0438583D01*
X0239267Y0438437D01*
X0239330Y0438289D01*
X0239391Y0438140D01*
X0239447Y0437989D01*
X0239500Y0437837D01*
X0239549Y0437684D01*
X0239594Y0437530D01*
X0239635Y0437375D01*
X0239673Y0437218D01*
X0239706Y0437061D01*
X0239736Y0436903D01*
X0239762Y0436744D01*
X0239783Y0436585D01*
X0239801Y0436425D01*
X0239815Y0436265D01*
X0239825Y0436104D01*
X0239831Y0435944D01*
X0239833Y0435783D01*
X0239831Y0435622D01*
X0239825Y0435462D01*
X0239815Y0435301D01*
X0239801Y0435141D01*
X0239783Y0434981D01*
X0239762Y0434822D01*
X0239736Y0434663D01*
X0239706Y0434505D01*
X0239673Y0434348D01*
X0239635Y0434191D01*
X0239594Y0434036D01*
X0239549Y0433882D01*
X0239500Y0433729D01*
X0239447Y0433577D01*
X0239391Y0433426D01*
X0239330Y0433277D01*
X0239267Y0433129D01*
X0239199Y0432983D01*
X0239128Y0432839D01*
X0239054Y0432697D01*
X0238976Y0432556D01*
X0238894Y0432418D01*
X0238809Y0432281D01*
X0238721Y0432147D01*
X0238629Y0432015D01*
X0238534Y0431885D01*
X0238436Y0431757D01*
X0238335Y0431632D01*
X0238231Y0431510D01*
X0238124Y0431390D01*
X0238014Y0431273D01*
X0237901Y0431158D01*
X0237785Y0431047D01*
X0237666Y0430938D01*
X0237545Y0430833D01*
X0237421Y0430730D01*
X0237295Y0430630D01*
X0237167Y0430534D01*
X0237036Y0430441D01*
X0236902Y0430351D01*
X0236767Y0430264D01*
X0236629Y0430181D01*
X0236490Y0430101D01*
X0236348Y0430025D01*
X0236205Y0429952D01*
X0236060Y0429883D01*
X0235913Y0429817D01*
X0235765Y0429755D01*
X0235615Y0429697D01*
X0235464Y0429642D01*
X0235311Y0429591D01*
X0235157Y0429544D01*
X0235002Y0429501D01*
X0234846Y0429462D01*
X0234690Y0429426D01*
X0234532Y0429395D01*
X0234374Y0429367D01*
X0234215Y0429343D01*
X0234055Y0429323D01*
X0233895Y0429307D01*
X0233735Y0429295D01*
X0233574Y0429287D01*
X0233413Y0429283D01*
X0233253Y0429283D01*
X0233092Y0429287D01*
X0232931Y0429295D01*
X0232771Y0429307D01*
X0232611Y0429323D01*
X0232451Y0429343D01*
X0232292Y0429367D01*
X0232134Y0429395D01*
X0231976Y0429426D01*
X0231820Y0429462D01*
X0231664Y0429501D01*
X0231509Y0429544D01*
X0231355Y0429591D01*
X0231202Y0429642D01*
X0231051Y0429697D01*
X0230901Y0429755D01*
X0230753Y0429817D01*
X0230606Y0429883D01*
X0230461Y0429952D01*
X0230318Y0430025D01*
X0230176Y0430101D01*
X0230037Y0430181D01*
X0229899Y0430264D01*
X0229764Y0430351D01*
X0229630Y0430441D01*
X0229499Y0430534D01*
X0229371Y0430630D01*
X0229245Y0430730D01*
X0229121Y0430833D01*
X0229000Y0430938D01*
X0228881Y0431047D01*
X0228765Y0431158D01*
X0228652Y0431273D01*
X0228542Y0431390D01*
X0228435Y0431510D01*
X0228331Y0431632D01*
X0228230Y0431757D01*
X0228132Y0431885D01*
X0228037Y0432015D01*
X0227945Y0432147D01*
X0227857Y0432281D01*
X0227772Y0432418D01*
X0227690Y0432556D01*
X0227612Y0432697D01*
X0227538Y0432839D01*
X0227467Y0432983D01*
X0227399Y0433129D01*
X0227336Y0433277D01*
X0227275Y0433426D01*
X0227219Y0433577D01*
X0227166Y0433729D01*
X0227117Y0433882D01*
X0227072Y0434036D01*
X0227031Y0434191D01*
X0226993Y0434348D01*
X0226960Y0434505D01*
X0226930Y0434663D01*
X0226904Y0434822D01*
X0226883Y0434981D01*
X0226865Y0435141D01*
X0226851Y0435301D01*
X0226841Y0435462D01*
X0226835Y0435622D01*
X0226833Y0435783D01*
X0226833Y0355783D02*
X0226835Y0355944D01*
X0226841Y0356104D01*
X0226851Y0356265D01*
X0226865Y0356425D01*
X0226883Y0356585D01*
X0226904Y0356744D01*
X0226930Y0356903D01*
X0226960Y0357061D01*
X0226993Y0357218D01*
X0227031Y0357375D01*
X0227072Y0357530D01*
X0227117Y0357684D01*
X0227166Y0357837D01*
X0227219Y0357989D01*
X0227275Y0358140D01*
X0227336Y0358289D01*
X0227399Y0358437D01*
X0227467Y0358583D01*
X0227538Y0358727D01*
X0227612Y0358869D01*
X0227690Y0359010D01*
X0227772Y0359148D01*
X0227857Y0359285D01*
X0227945Y0359419D01*
X0228037Y0359551D01*
X0228132Y0359681D01*
X0228230Y0359809D01*
X0228331Y0359934D01*
X0228435Y0360056D01*
X0228542Y0360176D01*
X0228652Y0360293D01*
X0228765Y0360408D01*
X0228881Y0360519D01*
X0229000Y0360628D01*
X0229121Y0360733D01*
X0229245Y0360836D01*
X0229371Y0360936D01*
X0229499Y0361032D01*
X0229630Y0361125D01*
X0229764Y0361215D01*
X0229899Y0361302D01*
X0230037Y0361385D01*
X0230176Y0361465D01*
X0230318Y0361541D01*
X0230461Y0361614D01*
X0230606Y0361683D01*
X0230753Y0361749D01*
X0230901Y0361811D01*
X0231051Y0361869D01*
X0231202Y0361924D01*
X0231355Y0361975D01*
X0231509Y0362022D01*
X0231664Y0362065D01*
X0231820Y0362104D01*
X0231976Y0362140D01*
X0232134Y0362171D01*
X0232292Y0362199D01*
X0232451Y0362223D01*
X0232611Y0362243D01*
X0232771Y0362259D01*
X0232931Y0362271D01*
X0233092Y0362279D01*
X0233253Y0362283D01*
X0233413Y0362283D01*
X0233574Y0362279D01*
X0233735Y0362271D01*
X0233895Y0362259D01*
X0234055Y0362243D01*
X0234215Y0362223D01*
X0234374Y0362199D01*
X0234532Y0362171D01*
X0234690Y0362140D01*
X0234846Y0362104D01*
X0235002Y0362065D01*
X0235157Y0362022D01*
X0235311Y0361975D01*
X0235464Y0361924D01*
X0235615Y0361869D01*
X0235765Y0361811D01*
X0235913Y0361749D01*
X0236060Y0361683D01*
X0236205Y0361614D01*
X0236348Y0361541D01*
X0236490Y0361465D01*
X0236629Y0361385D01*
X0236767Y0361302D01*
X0236902Y0361215D01*
X0237036Y0361125D01*
X0237167Y0361032D01*
X0237295Y0360936D01*
X0237421Y0360836D01*
X0237545Y0360733D01*
X0237666Y0360628D01*
X0237785Y0360519D01*
X0237901Y0360408D01*
X0238014Y0360293D01*
X0238124Y0360176D01*
X0238231Y0360056D01*
X0238335Y0359934D01*
X0238436Y0359809D01*
X0238534Y0359681D01*
X0238629Y0359551D01*
X0238721Y0359419D01*
X0238809Y0359285D01*
X0238894Y0359148D01*
X0238976Y0359010D01*
X0239054Y0358869D01*
X0239128Y0358727D01*
X0239199Y0358583D01*
X0239267Y0358437D01*
X0239330Y0358289D01*
X0239391Y0358140D01*
X0239447Y0357989D01*
X0239500Y0357837D01*
X0239549Y0357684D01*
X0239594Y0357530D01*
X0239635Y0357375D01*
X0239673Y0357218D01*
X0239706Y0357061D01*
X0239736Y0356903D01*
X0239762Y0356744D01*
X0239783Y0356585D01*
X0239801Y0356425D01*
X0239815Y0356265D01*
X0239825Y0356104D01*
X0239831Y0355944D01*
X0239833Y0355783D01*
X0239831Y0355622D01*
X0239825Y0355462D01*
X0239815Y0355301D01*
X0239801Y0355141D01*
X0239783Y0354981D01*
X0239762Y0354822D01*
X0239736Y0354663D01*
X0239706Y0354505D01*
X0239673Y0354348D01*
X0239635Y0354191D01*
X0239594Y0354036D01*
X0239549Y0353882D01*
X0239500Y0353729D01*
X0239447Y0353577D01*
X0239391Y0353426D01*
X0239330Y0353277D01*
X0239267Y0353129D01*
X0239199Y0352983D01*
X0239128Y0352839D01*
X0239054Y0352697D01*
X0238976Y0352556D01*
X0238894Y0352418D01*
X0238809Y0352281D01*
X0238721Y0352147D01*
X0238629Y0352015D01*
X0238534Y0351885D01*
X0238436Y0351757D01*
X0238335Y0351632D01*
X0238231Y0351510D01*
X0238124Y0351390D01*
X0238014Y0351273D01*
X0237901Y0351158D01*
X0237785Y0351047D01*
X0237666Y0350938D01*
X0237545Y0350833D01*
X0237421Y0350730D01*
X0237295Y0350630D01*
X0237167Y0350534D01*
X0237036Y0350441D01*
X0236902Y0350351D01*
X0236767Y0350264D01*
X0236629Y0350181D01*
X0236490Y0350101D01*
X0236348Y0350025D01*
X0236205Y0349952D01*
X0236060Y0349883D01*
X0235913Y0349817D01*
X0235765Y0349755D01*
X0235615Y0349697D01*
X0235464Y0349642D01*
X0235311Y0349591D01*
X0235157Y0349544D01*
X0235002Y0349501D01*
X0234846Y0349462D01*
X0234690Y0349426D01*
X0234532Y0349395D01*
X0234374Y0349367D01*
X0234215Y0349343D01*
X0234055Y0349323D01*
X0233895Y0349307D01*
X0233735Y0349295D01*
X0233574Y0349287D01*
X0233413Y0349283D01*
X0233253Y0349283D01*
X0233092Y0349287D01*
X0232931Y0349295D01*
X0232771Y0349307D01*
X0232611Y0349323D01*
X0232451Y0349343D01*
X0232292Y0349367D01*
X0232134Y0349395D01*
X0231976Y0349426D01*
X0231820Y0349462D01*
X0231664Y0349501D01*
X0231509Y0349544D01*
X0231355Y0349591D01*
X0231202Y0349642D01*
X0231051Y0349697D01*
X0230901Y0349755D01*
X0230753Y0349817D01*
X0230606Y0349883D01*
X0230461Y0349952D01*
X0230318Y0350025D01*
X0230176Y0350101D01*
X0230037Y0350181D01*
X0229899Y0350264D01*
X0229764Y0350351D01*
X0229630Y0350441D01*
X0229499Y0350534D01*
X0229371Y0350630D01*
X0229245Y0350730D01*
X0229121Y0350833D01*
X0229000Y0350938D01*
X0228881Y0351047D01*
X0228765Y0351158D01*
X0228652Y0351273D01*
X0228542Y0351390D01*
X0228435Y0351510D01*
X0228331Y0351632D01*
X0228230Y0351757D01*
X0228132Y0351885D01*
X0228037Y0352015D01*
X0227945Y0352147D01*
X0227857Y0352281D01*
X0227772Y0352418D01*
X0227690Y0352556D01*
X0227612Y0352697D01*
X0227538Y0352839D01*
X0227467Y0352983D01*
X0227399Y0353129D01*
X0227336Y0353277D01*
X0227275Y0353426D01*
X0227219Y0353577D01*
X0227166Y0353729D01*
X0227117Y0353882D01*
X0227072Y0354036D01*
X0227031Y0354191D01*
X0226993Y0354348D01*
X0226960Y0354505D01*
X0226930Y0354663D01*
X0226904Y0354822D01*
X0226883Y0354981D01*
X0226865Y0355141D01*
X0226851Y0355301D01*
X0226841Y0355462D01*
X0226835Y0355622D01*
X0226833Y0355783D01*
X0248833Y0355783D02*
X0248835Y0355944D01*
X0248841Y0356104D01*
X0248851Y0356265D01*
X0248865Y0356425D01*
X0248883Y0356585D01*
X0248904Y0356744D01*
X0248930Y0356903D01*
X0248960Y0357061D01*
X0248993Y0357218D01*
X0249031Y0357375D01*
X0249072Y0357530D01*
X0249117Y0357684D01*
X0249166Y0357837D01*
X0249219Y0357989D01*
X0249275Y0358140D01*
X0249336Y0358289D01*
X0249399Y0358437D01*
X0249467Y0358583D01*
X0249538Y0358727D01*
X0249612Y0358869D01*
X0249690Y0359010D01*
X0249772Y0359148D01*
X0249857Y0359285D01*
X0249945Y0359419D01*
X0250037Y0359551D01*
X0250132Y0359681D01*
X0250230Y0359809D01*
X0250331Y0359934D01*
X0250435Y0360056D01*
X0250542Y0360176D01*
X0250652Y0360293D01*
X0250765Y0360408D01*
X0250881Y0360519D01*
X0251000Y0360628D01*
X0251121Y0360733D01*
X0251245Y0360836D01*
X0251371Y0360936D01*
X0251499Y0361032D01*
X0251630Y0361125D01*
X0251764Y0361215D01*
X0251899Y0361302D01*
X0252037Y0361385D01*
X0252176Y0361465D01*
X0252318Y0361541D01*
X0252461Y0361614D01*
X0252606Y0361683D01*
X0252753Y0361749D01*
X0252901Y0361811D01*
X0253051Y0361869D01*
X0253202Y0361924D01*
X0253355Y0361975D01*
X0253509Y0362022D01*
X0253664Y0362065D01*
X0253820Y0362104D01*
X0253976Y0362140D01*
X0254134Y0362171D01*
X0254292Y0362199D01*
X0254451Y0362223D01*
X0254611Y0362243D01*
X0254771Y0362259D01*
X0254931Y0362271D01*
X0255092Y0362279D01*
X0255253Y0362283D01*
X0255413Y0362283D01*
X0255574Y0362279D01*
X0255735Y0362271D01*
X0255895Y0362259D01*
X0256055Y0362243D01*
X0256215Y0362223D01*
X0256374Y0362199D01*
X0256532Y0362171D01*
X0256690Y0362140D01*
X0256846Y0362104D01*
X0257002Y0362065D01*
X0257157Y0362022D01*
X0257311Y0361975D01*
X0257464Y0361924D01*
X0257615Y0361869D01*
X0257765Y0361811D01*
X0257913Y0361749D01*
X0258060Y0361683D01*
X0258205Y0361614D01*
X0258348Y0361541D01*
X0258490Y0361465D01*
X0258629Y0361385D01*
X0258767Y0361302D01*
X0258902Y0361215D01*
X0259036Y0361125D01*
X0259167Y0361032D01*
X0259295Y0360936D01*
X0259421Y0360836D01*
X0259545Y0360733D01*
X0259666Y0360628D01*
X0259785Y0360519D01*
X0259901Y0360408D01*
X0260014Y0360293D01*
X0260124Y0360176D01*
X0260231Y0360056D01*
X0260335Y0359934D01*
X0260436Y0359809D01*
X0260534Y0359681D01*
X0260629Y0359551D01*
X0260721Y0359419D01*
X0260809Y0359285D01*
X0260894Y0359148D01*
X0260976Y0359010D01*
X0261054Y0358869D01*
X0261128Y0358727D01*
X0261199Y0358583D01*
X0261267Y0358437D01*
X0261330Y0358289D01*
X0261391Y0358140D01*
X0261447Y0357989D01*
X0261500Y0357837D01*
X0261549Y0357684D01*
X0261594Y0357530D01*
X0261635Y0357375D01*
X0261673Y0357218D01*
X0261706Y0357061D01*
X0261736Y0356903D01*
X0261762Y0356744D01*
X0261783Y0356585D01*
X0261801Y0356425D01*
X0261815Y0356265D01*
X0261825Y0356104D01*
X0261831Y0355944D01*
X0261833Y0355783D01*
X0261831Y0355622D01*
X0261825Y0355462D01*
X0261815Y0355301D01*
X0261801Y0355141D01*
X0261783Y0354981D01*
X0261762Y0354822D01*
X0261736Y0354663D01*
X0261706Y0354505D01*
X0261673Y0354348D01*
X0261635Y0354191D01*
X0261594Y0354036D01*
X0261549Y0353882D01*
X0261500Y0353729D01*
X0261447Y0353577D01*
X0261391Y0353426D01*
X0261330Y0353277D01*
X0261267Y0353129D01*
X0261199Y0352983D01*
X0261128Y0352839D01*
X0261054Y0352697D01*
X0260976Y0352556D01*
X0260894Y0352418D01*
X0260809Y0352281D01*
X0260721Y0352147D01*
X0260629Y0352015D01*
X0260534Y0351885D01*
X0260436Y0351757D01*
X0260335Y0351632D01*
X0260231Y0351510D01*
X0260124Y0351390D01*
X0260014Y0351273D01*
X0259901Y0351158D01*
X0259785Y0351047D01*
X0259666Y0350938D01*
X0259545Y0350833D01*
X0259421Y0350730D01*
X0259295Y0350630D01*
X0259167Y0350534D01*
X0259036Y0350441D01*
X0258902Y0350351D01*
X0258767Y0350264D01*
X0258629Y0350181D01*
X0258490Y0350101D01*
X0258348Y0350025D01*
X0258205Y0349952D01*
X0258060Y0349883D01*
X0257913Y0349817D01*
X0257765Y0349755D01*
X0257615Y0349697D01*
X0257464Y0349642D01*
X0257311Y0349591D01*
X0257157Y0349544D01*
X0257002Y0349501D01*
X0256846Y0349462D01*
X0256690Y0349426D01*
X0256532Y0349395D01*
X0256374Y0349367D01*
X0256215Y0349343D01*
X0256055Y0349323D01*
X0255895Y0349307D01*
X0255735Y0349295D01*
X0255574Y0349287D01*
X0255413Y0349283D01*
X0255253Y0349283D01*
X0255092Y0349287D01*
X0254931Y0349295D01*
X0254771Y0349307D01*
X0254611Y0349323D01*
X0254451Y0349343D01*
X0254292Y0349367D01*
X0254134Y0349395D01*
X0253976Y0349426D01*
X0253820Y0349462D01*
X0253664Y0349501D01*
X0253509Y0349544D01*
X0253355Y0349591D01*
X0253202Y0349642D01*
X0253051Y0349697D01*
X0252901Y0349755D01*
X0252753Y0349817D01*
X0252606Y0349883D01*
X0252461Y0349952D01*
X0252318Y0350025D01*
X0252176Y0350101D01*
X0252037Y0350181D01*
X0251899Y0350264D01*
X0251764Y0350351D01*
X0251630Y0350441D01*
X0251499Y0350534D01*
X0251371Y0350630D01*
X0251245Y0350730D01*
X0251121Y0350833D01*
X0251000Y0350938D01*
X0250881Y0351047D01*
X0250765Y0351158D01*
X0250652Y0351273D01*
X0250542Y0351390D01*
X0250435Y0351510D01*
X0250331Y0351632D01*
X0250230Y0351757D01*
X0250132Y0351885D01*
X0250037Y0352015D01*
X0249945Y0352147D01*
X0249857Y0352281D01*
X0249772Y0352418D01*
X0249690Y0352556D01*
X0249612Y0352697D01*
X0249538Y0352839D01*
X0249467Y0352983D01*
X0249399Y0353129D01*
X0249336Y0353277D01*
X0249275Y0353426D01*
X0249219Y0353577D01*
X0249166Y0353729D01*
X0249117Y0353882D01*
X0249072Y0354036D01*
X0249031Y0354191D01*
X0248993Y0354348D01*
X0248960Y0354505D01*
X0248930Y0354663D01*
X0248904Y0354822D01*
X0248883Y0354981D01*
X0248865Y0355141D01*
X0248851Y0355301D01*
X0248841Y0355462D01*
X0248835Y0355622D01*
X0248833Y0355783D01*
X0146833Y0355783D02*
X0146835Y0355944D01*
X0146841Y0356104D01*
X0146851Y0356265D01*
X0146865Y0356425D01*
X0146883Y0356585D01*
X0146904Y0356744D01*
X0146930Y0356903D01*
X0146960Y0357061D01*
X0146993Y0357218D01*
X0147031Y0357375D01*
X0147072Y0357530D01*
X0147117Y0357684D01*
X0147166Y0357837D01*
X0147219Y0357989D01*
X0147275Y0358140D01*
X0147336Y0358289D01*
X0147399Y0358437D01*
X0147467Y0358583D01*
X0147538Y0358727D01*
X0147612Y0358869D01*
X0147690Y0359010D01*
X0147772Y0359148D01*
X0147857Y0359285D01*
X0147945Y0359419D01*
X0148037Y0359551D01*
X0148132Y0359681D01*
X0148230Y0359809D01*
X0148331Y0359934D01*
X0148435Y0360056D01*
X0148542Y0360176D01*
X0148652Y0360293D01*
X0148765Y0360408D01*
X0148881Y0360519D01*
X0149000Y0360628D01*
X0149121Y0360733D01*
X0149245Y0360836D01*
X0149371Y0360936D01*
X0149499Y0361032D01*
X0149630Y0361125D01*
X0149764Y0361215D01*
X0149899Y0361302D01*
X0150037Y0361385D01*
X0150176Y0361465D01*
X0150318Y0361541D01*
X0150461Y0361614D01*
X0150606Y0361683D01*
X0150753Y0361749D01*
X0150901Y0361811D01*
X0151051Y0361869D01*
X0151202Y0361924D01*
X0151355Y0361975D01*
X0151509Y0362022D01*
X0151664Y0362065D01*
X0151820Y0362104D01*
X0151976Y0362140D01*
X0152134Y0362171D01*
X0152292Y0362199D01*
X0152451Y0362223D01*
X0152611Y0362243D01*
X0152771Y0362259D01*
X0152931Y0362271D01*
X0153092Y0362279D01*
X0153253Y0362283D01*
X0153413Y0362283D01*
X0153574Y0362279D01*
X0153735Y0362271D01*
X0153895Y0362259D01*
X0154055Y0362243D01*
X0154215Y0362223D01*
X0154374Y0362199D01*
X0154532Y0362171D01*
X0154690Y0362140D01*
X0154846Y0362104D01*
X0155002Y0362065D01*
X0155157Y0362022D01*
X0155311Y0361975D01*
X0155464Y0361924D01*
X0155615Y0361869D01*
X0155765Y0361811D01*
X0155913Y0361749D01*
X0156060Y0361683D01*
X0156205Y0361614D01*
X0156348Y0361541D01*
X0156490Y0361465D01*
X0156629Y0361385D01*
X0156767Y0361302D01*
X0156902Y0361215D01*
X0157036Y0361125D01*
X0157167Y0361032D01*
X0157295Y0360936D01*
X0157421Y0360836D01*
X0157545Y0360733D01*
X0157666Y0360628D01*
X0157785Y0360519D01*
X0157901Y0360408D01*
X0158014Y0360293D01*
X0158124Y0360176D01*
X0158231Y0360056D01*
X0158335Y0359934D01*
X0158436Y0359809D01*
X0158534Y0359681D01*
X0158629Y0359551D01*
X0158721Y0359419D01*
X0158809Y0359285D01*
X0158894Y0359148D01*
X0158976Y0359010D01*
X0159054Y0358869D01*
X0159128Y0358727D01*
X0159199Y0358583D01*
X0159267Y0358437D01*
X0159330Y0358289D01*
X0159391Y0358140D01*
X0159447Y0357989D01*
X0159500Y0357837D01*
X0159549Y0357684D01*
X0159594Y0357530D01*
X0159635Y0357375D01*
X0159673Y0357218D01*
X0159706Y0357061D01*
X0159736Y0356903D01*
X0159762Y0356744D01*
X0159783Y0356585D01*
X0159801Y0356425D01*
X0159815Y0356265D01*
X0159825Y0356104D01*
X0159831Y0355944D01*
X0159833Y0355783D01*
X0159831Y0355622D01*
X0159825Y0355462D01*
X0159815Y0355301D01*
X0159801Y0355141D01*
X0159783Y0354981D01*
X0159762Y0354822D01*
X0159736Y0354663D01*
X0159706Y0354505D01*
X0159673Y0354348D01*
X0159635Y0354191D01*
X0159594Y0354036D01*
X0159549Y0353882D01*
X0159500Y0353729D01*
X0159447Y0353577D01*
X0159391Y0353426D01*
X0159330Y0353277D01*
X0159267Y0353129D01*
X0159199Y0352983D01*
X0159128Y0352839D01*
X0159054Y0352697D01*
X0158976Y0352556D01*
X0158894Y0352418D01*
X0158809Y0352281D01*
X0158721Y0352147D01*
X0158629Y0352015D01*
X0158534Y0351885D01*
X0158436Y0351757D01*
X0158335Y0351632D01*
X0158231Y0351510D01*
X0158124Y0351390D01*
X0158014Y0351273D01*
X0157901Y0351158D01*
X0157785Y0351047D01*
X0157666Y0350938D01*
X0157545Y0350833D01*
X0157421Y0350730D01*
X0157295Y0350630D01*
X0157167Y0350534D01*
X0157036Y0350441D01*
X0156902Y0350351D01*
X0156767Y0350264D01*
X0156629Y0350181D01*
X0156490Y0350101D01*
X0156348Y0350025D01*
X0156205Y0349952D01*
X0156060Y0349883D01*
X0155913Y0349817D01*
X0155765Y0349755D01*
X0155615Y0349697D01*
X0155464Y0349642D01*
X0155311Y0349591D01*
X0155157Y0349544D01*
X0155002Y0349501D01*
X0154846Y0349462D01*
X0154690Y0349426D01*
X0154532Y0349395D01*
X0154374Y0349367D01*
X0154215Y0349343D01*
X0154055Y0349323D01*
X0153895Y0349307D01*
X0153735Y0349295D01*
X0153574Y0349287D01*
X0153413Y0349283D01*
X0153253Y0349283D01*
X0153092Y0349287D01*
X0152931Y0349295D01*
X0152771Y0349307D01*
X0152611Y0349323D01*
X0152451Y0349343D01*
X0152292Y0349367D01*
X0152134Y0349395D01*
X0151976Y0349426D01*
X0151820Y0349462D01*
X0151664Y0349501D01*
X0151509Y0349544D01*
X0151355Y0349591D01*
X0151202Y0349642D01*
X0151051Y0349697D01*
X0150901Y0349755D01*
X0150753Y0349817D01*
X0150606Y0349883D01*
X0150461Y0349952D01*
X0150318Y0350025D01*
X0150176Y0350101D01*
X0150037Y0350181D01*
X0149899Y0350264D01*
X0149764Y0350351D01*
X0149630Y0350441D01*
X0149499Y0350534D01*
X0149371Y0350630D01*
X0149245Y0350730D01*
X0149121Y0350833D01*
X0149000Y0350938D01*
X0148881Y0351047D01*
X0148765Y0351158D01*
X0148652Y0351273D01*
X0148542Y0351390D01*
X0148435Y0351510D01*
X0148331Y0351632D01*
X0148230Y0351757D01*
X0148132Y0351885D01*
X0148037Y0352015D01*
X0147945Y0352147D01*
X0147857Y0352281D01*
X0147772Y0352418D01*
X0147690Y0352556D01*
X0147612Y0352697D01*
X0147538Y0352839D01*
X0147467Y0352983D01*
X0147399Y0353129D01*
X0147336Y0353277D01*
X0147275Y0353426D01*
X0147219Y0353577D01*
X0147166Y0353729D01*
X0147117Y0353882D01*
X0147072Y0354036D01*
X0147031Y0354191D01*
X0146993Y0354348D01*
X0146960Y0354505D01*
X0146930Y0354663D01*
X0146904Y0354822D01*
X0146883Y0354981D01*
X0146865Y0355141D01*
X0146851Y0355301D01*
X0146841Y0355462D01*
X0146835Y0355622D01*
X0146833Y0355783D01*
X0146833Y0435783D02*
X0146835Y0435944D01*
X0146841Y0436104D01*
X0146851Y0436265D01*
X0146865Y0436425D01*
X0146883Y0436585D01*
X0146904Y0436744D01*
X0146930Y0436903D01*
X0146960Y0437061D01*
X0146993Y0437218D01*
X0147031Y0437375D01*
X0147072Y0437530D01*
X0147117Y0437684D01*
X0147166Y0437837D01*
X0147219Y0437989D01*
X0147275Y0438140D01*
X0147336Y0438289D01*
X0147399Y0438437D01*
X0147467Y0438583D01*
X0147538Y0438727D01*
X0147612Y0438869D01*
X0147690Y0439010D01*
X0147772Y0439148D01*
X0147857Y0439285D01*
X0147945Y0439419D01*
X0148037Y0439551D01*
X0148132Y0439681D01*
X0148230Y0439809D01*
X0148331Y0439934D01*
X0148435Y0440056D01*
X0148542Y0440176D01*
X0148652Y0440293D01*
X0148765Y0440408D01*
X0148881Y0440519D01*
X0149000Y0440628D01*
X0149121Y0440733D01*
X0149245Y0440836D01*
X0149371Y0440936D01*
X0149499Y0441032D01*
X0149630Y0441125D01*
X0149764Y0441215D01*
X0149899Y0441302D01*
X0150037Y0441385D01*
X0150176Y0441465D01*
X0150318Y0441541D01*
X0150461Y0441614D01*
X0150606Y0441683D01*
X0150753Y0441749D01*
X0150901Y0441811D01*
X0151051Y0441869D01*
X0151202Y0441924D01*
X0151355Y0441975D01*
X0151509Y0442022D01*
X0151664Y0442065D01*
X0151820Y0442104D01*
X0151976Y0442140D01*
X0152134Y0442171D01*
X0152292Y0442199D01*
X0152451Y0442223D01*
X0152611Y0442243D01*
X0152771Y0442259D01*
X0152931Y0442271D01*
X0153092Y0442279D01*
X0153253Y0442283D01*
X0153413Y0442283D01*
X0153574Y0442279D01*
X0153735Y0442271D01*
X0153895Y0442259D01*
X0154055Y0442243D01*
X0154215Y0442223D01*
X0154374Y0442199D01*
X0154532Y0442171D01*
X0154690Y0442140D01*
X0154846Y0442104D01*
X0155002Y0442065D01*
X0155157Y0442022D01*
X0155311Y0441975D01*
X0155464Y0441924D01*
X0155615Y0441869D01*
X0155765Y0441811D01*
X0155913Y0441749D01*
X0156060Y0441683D01*
X0156205Y0441614D01*
X0156348Y0441541D01*
X0156490Y0441465D01*
X0156629Y0441385D01*
X0156767Y0441302D01*
X0156902Y0441215D01*
X0157036Y0441125D01*
X0157167Y0441032D01*
X0157295Y0440936D01*
X0157421Y0440836D01*
X0157545Y0440733D01*
X0157666Y0440628D01*
X0157785Y0440519D01*
X0157901Y0440408D01*
X0158014Y0440293D01*
X0158124Y0440176D01*
X0158231Y0440056D01*
X0158335Y0439934D01*
X0158436Y0439809D01*
X0158534Y0439681D01*
X0158629Y0439551D01*
X0158721Y0439419D01*
X0158809Y0439285D01*
X0158894Y0439148D01*
X0158976Y0439010D01*
X0159054Y0438869D01*
X0159128Y0438727D01*
X0159199Y0438583D01*
X0159267Y0438437D01*
X0159330Y0438289D01*
X0159391Y0438140D01*
X0159447Y0437989D01*
X0159500Y0437837D01*
X0159549Y0437684D01*
X0159594Y0437530D01*
X0159635Y0437375D01*
X0159673Y0437218D01*
X0159706Y0437061D01*
X0159736Y0436903D01*
X0159762Y0436744D01*
X0159783Y0436585D01*
X0159801Y0436425D01*
X0159815Y0436265D01*
X0159825Y0436104D01*
X0159831Y0435944D01*
X0159833Y0435783D01*
X0159831Y0435622D01*
X0159825Y0435462D01*
X0159815Y0435301D01*
X0159801Y0435141D01*
X0159783Y0434981D01*
X0159762Y0434822D01*
X0159736Y0434663D01*
X0159706Y0434505D01*
X0159673Y0434348D01*
X0159635Y0434191D01*
X0159594Y0434036D01*
X0159549Y0433882D01*
X0159500Y0433729D01*
X0159447Y0433577D01*
X0159391Y0433426D01*
X0159330Y0433277D01*
X0159267Y0433129D01*
X0159199Y0432983D01*
X0159128Y0432839D01*
X0159054Y0432697D01*
X0158976Y0432556D01*
X0158894Y0432418D01*
X0158809Y0432281D01*
X0158721Y0432147D01*
X0158629Y0432015D01*
X0158534Y0431885D01*
X0158436Y0431757D01*
X0158335Y0431632D01*
X0158231Y0431510D01*
X0158124Y0431390D01*
X0158014Y0431273D01*
X0157901Y0431158D01*
X0157785Y0431047D01*
X0157666Y0430938D01*
X0157545Y0430833D01*
X0157421Y0430730D01*
X0157295Y0430630D01*
X0157167Y0430534D01*
X0157036Y0430441D01*
X0156902Y0430351D01*
X0156767Y0430264D01*
X0156629Y0430181D01*
X0156490Y0430101D01*
X0156348Y0430025D01*
X0156205Y0429952D01*
X0156060Y0429883D01*
X0155913Y0429817D01*
X0155765Y0429755D01*
X0155615Y0429697D01*
X0155464Y0429642D01*
X0155311Y0429591D01*
X0155157Y0429544D01*
X0155002Y0429501D01*
X0154846Y0429462D01*
X0154690Y0429426D01*
X0154532Y0429395D01*
X0154374Y0429367D01*
X0154215Y0429343D01*
X0154055Y0429323D01*
X0153895Y0429307D01*
X0153735Y0429295D01*
X0153574Y0429287D01*
X0153413Y0429283D01*
X0153253Y0429283D01*
X0153092Y0429287D01*
X0152931Y0429295D01*
X0152771Y0429307D01*
X0152611Y0429323D01*
X0152451Y0429343D01*
X0152292Y0429367D01*
X0152134Y0429395D01*
X0151976Y0429426D01*
X0151820Y0429462D01*
X0151664Y0429501D01*
X0151509Y0429544D01*
X0151355Y0429591D01*
X0151202Y0429642D01*
X0151051Y0429697D01*
X0150901Y0429755D01*
X0150753Y0429817D01*
X0150606Y0429883D01*
X0150461Y0429952D01*
X0150318Y0430025D01*
X0150176Y0430101D01*
X0150037Y0430181D01*
X0149899Y0430264D01*
X0149764Y0430351D01*
X0149630Y0430441D01*
X0149499Y0430534D01*
X0149371Y0430630D01*
X0149245Y0430730D01*
X0149121Y0430833D01*
X0149000Y0430938D01*
X0148881Y0431047D01*
X0148765Y0431158D01*
X0148652Y0431273D01*
X0148542Y0431390D01*
X0148435Y0431510D01*
X0148331Y0431632D01*
X0148230Y0431757D01*
X0148132Y0431885D01*
X0148037Y0432015D01*
X0147945Y0432147D01*
X0147857Y0432281D01*
X0147772Y0432418D01*
X0147690Y0432556D01*
X0147612Y0432697D01*
X0147538Y0432839D01*
X0147467Y0432983D01*
X0147399Y0433129D01*
X0147336Y0433277D01*
X0147275Y0433426D01*
X0147219Y0433577D01*
X0147166Y0433729D01*
X0147117Y0433882D01*
X0147072Y0434036D01*
X0147031Y0434191D01*
X0146993Y0434348D01*
X0146960Y0434505D01*
X0146930Y0434663D01*
X0146904Y0434822D01*
X0146883Y0434981D01*
X0146865Y0435141D01*
X0146851Y0435301D01*
X0146841Y0435462D01*
X0146835Y0435622D01*
X0146833Y0435783D01*
X0146833Y0507783D02*
X0146835Y0507944D01*
X0146841Y0508104D01*
X0146851Y0508265D01*
X0146865Y0508425D01*
X0146883Y0508585D01*
X0146904Y0508744D01*
X0146930Y0508903D01*
X0146960Y0509061D01*
X0146993Y0509218D01*
X0147031Y0509375D01*
X0147072Y0509530D01*
X0147117Y0509684D01*
X0147166Y0509837D01*
X0147219Y0509989D01*
X0147275Y0510140D01*
X0147336Y0510289D01*
X0147399Y0510437D01*
X0147467Y0510583D01*
X0147538Y0510727D01*
X0147612Y0510869D01*
X0147690Y0511010D01*
X0147772Y0511148D01*
X0147857Y0511285D01*
X0147945Y0511419D01*
X0148037Y0511551D01*
X0148132Y0511681D01*
X0148230Y0511809D01*
X0148331Y0511934D01*
X0148435Y0512056D01*
X0148542Y0512176D01*
X0148652Y0512293D01*
X0148765Y0512408D01*
X0148881Y0512519D01*
X0149000Y0512628D01*
X0149121Y0512733D01*
X0149245Y0512836D01*
X0149371Y0512936D01*
X0149499Y0513032D01*
X0149630Y0513125D01*
X0149764Y0513215D01*
X0149899Y0513302D01*
X0150037Y0513385D01*
X0150176Y0513465D01*
X0150318Y0513541D01*
X0150461Y0513614D01*
X0150606Y0513683D01*
X0150753Y0513749D01*
X0150901Y0513811D01*
X0151051Y0513869D01*
X0151202Y0513924D01*
X0151355Y0513975D01*
X0151509Y0514022D01*
X0151664Y0514065D01*
X0151820Y0514104D01*
X0151976Y0514140D01*
X0152134Y0514171D01*
X0152292Y0514199D01*
X0152451Y0514223D01*
X0152611Y0514243D01*
X0152771Y0514259D01*
X0152931Y0514271D01*
X0153092Y0514279D01*
X0153253Y0514283D01*
X0153413Y0514283D01*
X0153574Y0514279D01*
X0153735Y0514271D01*
X0153895Y0514259D01*
X0154055Y0514243D01*
X0154215Y0514223D01*
X0154374Y0514199D01*
X0154532Y0514171D01*
X0154690Y0514140D01*
X0154846Y0514104D01*
X0155002Y0514065D01*
X0155157Y0514022D01*
X0155311Y0513975D01*
X0155464Y0513924D01*
X0155615Y0513869D01*
X0155765Y0513811D01*
X0155913Y0513749D01*
X0156060Y0513683D01*
X0156205Y0513614D01*
X0156348Y0513541D01*
X0156490Y0513465D01*
X0156629Y0513385D01*
X0156767Y0513302D01*
X0156902Y0513215D01*
X0157036Y0513125D01*
X0157167Y0513032D01*
X0157295Y0512936D01*
X0157421Y0512836D01*
X0157545Y0512733D01*
X0157666Y0512628D01*
X0157785Y0512519D01*
X0157901Y0512408D01*
X0158014Y0512293D01*
X0158124Y0512176D01*
X0158231Y0512056D01*
X0158335Y0511934D01*
X0158436Y0511809D01*
X0158534Y0511681D01*
X0158629Y0511551D01*
X0158721Y0511419D01*
X0158809Y0511285D01*
X0158894Y0511148D01*
X0158976Y0511010D01*
X0159054Y0510869D01*
X0159128Y0510727D01*
X0159199Y0510583D01*
X0159267Y0510437D01*
X0159330Y0510289D01*
X0159391Y0510140D01*
X0159447Y0509989D01*
X0159500Y0509837D01*
X0159549Y0509684D01*
X0159594Y0509530D01*
X0159635Y0509375D01*
X0159673Y0509218D01*
X0159706Y0509061D01*
X0159736Y0508903D01*
X0159762Y0508744D01*
X0159783Y0508585D01*
X0159801Y0508425D01*
X0159815Y0508265D01*
X0159825Y0508104D01*
X0159831Y0507944D01*
X0159833Y0507783D01*
X0159831Y0507622D01*
X0159825Y0507462D01*
X0159815Y0507301D01*
X0159801Y0507141D01*
X0159783Y0506981D01*
X0159762Y0506822D01*
X0159736Y0506663D01*
X0159706Y0506505D01*
X0159673Y0506348D01*
X0159635Y0506191D01*
X0159594Y0506036D01*
X0159549Y0505882D01*
X0159500Y0505729D01*
X0159447Y0505577D01*
X0159391Y0505426D01*
X0159330Y0505277D01*
X0159267Y0505129D01*
X0159199Y0504983D01*
X0159128Y0504839D01*
X0159054Y0504697D01*
X0158976Y0504556D01*
X0158894Y0504418D01*
X0158809Y0504281D01*
X0158721Y0504147D01*
X0158629Y0504015D01*
X0158534Y0503885D01*
X0158436Y0503757D01*
X0158335Y0503632D01*
X0158231Y0503510D01*
X0158124Y0503390D01*
X0158014Y0503273D01*
X0157901Y0503158D01*
X0157785Y0503047D01*
X0157666Y0502938D01*
X0157545Y0502833D01*
X0157421Y0502730D01*
X0157295Y0502630D01*
X0157167Y0502534D01*
X0157036Y0502441D01*
X0156902Y0502351D01*
X0156767Y0502264D01*
X0156629Y0502181D01*
X0156490Y0502101D01*
X0156348Y0502025D01*
X0156205Y0501952D01*
X0156060Y0501883D01*
X0155913Y0501817D01*
X0155765Y0501755D01*
X0155615Y0501697D01*
X0155464Y0501642D01*
X0155311Y0501591D01*
X0155157Y0501544D01*
X0155002Y0501501D01*
X0154846Y0501462D01*
X0154690Y0501426D01*
X0154532Y0501395D01*
X0154374Y0501367D01*
X0154215Y0501343D01*
X0154055Y0501323D01*
X0153895Y0501307D01*
X0153735Y0501295D01*
X0153574Y0501287D01*
X0153413Y0501283D01*
X0153253Y0501283D01*
X0153092Y0501287D01*
X0152931Y0501295D01*
X0152771Y0501307D01*
X0152611Y0501323D01*
X0152451Y0501343D01*
X0152292Y0501367D01*
X0152134Y0501395D01*
X0151976Y0501426D01*
X0151820Y0501462D01*
X0151664Y0501501D01*
X0151509Y0501544D01*
X0151355Y0501591D01*
X0151202Y0501642D01*
X0151051Y0501697D01*
X0150901Y0501755D01*
X0150753Y0501817D01*
X0150606Y0501883D01*
X0150461Y0501952D01*
X0150318Y0502025D01*
X0150176Y0502101D01*
X0150037Y0502181D01*
X0149899Y0502264D01*
X0149764Y0502351D01*
X0149630Y0502441D01*
X0149499Y0502534D01*
X0149371Y0502630D01*
X0149245Y0502730D01*
X0149121Y0502833D01*
X0149000Y0502938D01*
X0148881Y0503047D01*
X0148765Y0503158D01*
X0148652Y0503273D01*
X0148542Y0503390D01*
X0148435Y0503510D01*
X0148331Y0503632D01*
X0148230Y0503757D01*
X0148132Y0503885D01*
X0148037Y0504015D01*
X0147945Y0504147D01*
X0147857Y0504281D01*
X0147772Y0504418D01*
X0147690Y0504556D01*
X0147612Y0504697D01*
X0147538Y0504839D01*
X0147467Y0504983D01*
X0147399Y0505129D01*
X0147336Y0505277D01*
X0147275Y0505426D01*
X0147219Y0505577D01*
X0147166Y0505729D01*
X0147117Y0505882D01*
X0147072Y0506036D01*
X0147031Y0506191D01*
X0146993Y0506348D01*
X0146960Y0506505D01*
X0146930Y0506663D01*
X0146904Y0506822D01*
X0146883Y0506981D01*
X0146865Y0507141D01*
X0146851Y0507301D01*
X0146841Y0507462D01*
X0146835Y0507622D01*
X0146833Y0507783D01*
X0146833Y0587783D02*
X0146835Y0587944D01*
X0146841Y0588104D01*
X0146851Y0588265D01*
X0146865Y0588425D01*
X0146883Y0588585D01*
X0146904Y0588744D01*
X0146930Y0588903D01*
X0146960Y0589061D01*
X0146993Y0589218D01*
X0147031Y0589375D01*
X0147072Y0589530D01*
X0147117Y0589684D01*
X0147166Y0589837D01*
X0147219Y0589989D01*
X0147275Y0590140D01*
X0147336Y0590289D01*
X0147399Y0590437D01*
X0147467Y0590583D01*
X0147538Y0590727D01*
X0147612Y0590869D01*
X0147690Y0591010D01*
X0147772Y0591148D01*
X0147857Y0591285D01*
X0147945Y0591419D01*
X0148037Y0591551D01*
X0148132Y0591681D01*
X0148230Y0591809D01*
X0148331Y0591934D01*
X0148435Y0592056D01*
X0148542Y0592176D01*
X0148652Y0592293D01*
X0148765Y0592408D01*
X0148881Y0592519D01*
X0149000Y0592628D01*
X0149121Y0592733D01*
X0149245Y0592836D01*
X0149371Y0592936D01*
X0149499Y0593032D01*
X0149630Y0593125D01*
X0149764Y0593215D01*
X0149899Y0593302D01*
X0150037Y0593385D01*
X0150176Y0593465D01*
X0150318Y0593541D01*
X0150461Y0593614D01*
X0150606Y0593683D01*
X0150753Y0593749D01*
X0150901Y0593811D01*
X0151051Y0593869D01*
X0151202Y0593924D01*
X0151355Y0593975D01*
X0151509Y0594022D01*
X0151664Y0594065D01*
X0151820Y0594104D01*
X0151976Y0594140D01*
X0152134Y0594171D01*
X0152292Y0594199D01*
X0152451Y0594223D01*
X0152611Y0594243D01*
X0152771Y0594259D01*
X0152931Y0594271D01*
X0153092Y0594279D01*
X0153253Y0594283D01*
X0153413Y0594283D01*
X0153574Y0594279D01*
X0153735Y0594271D01*
X0153895Y0594259D01*
X0154055Y0594243D01*
X0154215Y0594223D01*
X0154374Y0594199D01*
X0154532Y0594171D01*
X0154690Y0594140D01*
X0154846Y0594104D01*
X0155002Y0594065D01*
X0155157Y0594022D01*
X0155311Y0593975D01*
X0155464Y0593924D01*
X0155615Y0593869D01*
X0155765Y0593811D01*
X0155913Y0593749D01*
X0156060Y0593683D01*
X0156205Y0593614D01*
X0156348Y0593541D01*
X0156490Y0593465D01*
X0156629Y0593385D01*
X0156767Y0593302D01*
X0156902Y0593215D01*
X0157036Y0593125D01*
X0157167Y0593032D01*
X0157295Y0592936D01*
X0157421Y0592836D01*
X0157545Y0592733D01*
X0157666Y0592628D01*
X0157785Y0592519D01*
X0157901Y0592408D01*
X0158014Y0592293D01*
X0158124Y0592176D01*
X0158231Y0592056D01*
X0158335Y0591934D01*
X0158436Y0591809D01*
X0158534Y0591681D01*
X0158629Y0591551D01*
X0158721Y0591419D01*
X0158809Y0591285D01*
X0158894Y0591148D01*
X0158976Y0591010D01*
X0159054Y0590869D01*
X0159128Y0590727D01*
X0159199Y0590583D01*
X0159267Y0590437D01*
X0159330Y0590289D01*
X0159391Y0590140D01*
X0159447Y0589989D01*
X0159500Y0589837D01*
X0159549Y0589684D01*
X0159594Y0589530D01*
X0159635Y0589375D01*
X0159673Y0589218D01*
X0159706Y0589061D01*
X0159736Y0588903D01*
X0159762Y0588744D01*
X0159783Y0588585D01*
X0159801Y0588425D01*
X0159815Y0588265D01*
X0159825Y0588104D01*
X0159831Y0587944D01*
X0159833Y0587783D01*
X0159831Y0587622D01*
X0159825Y0587462D01*
X0159815Y0587301D01*
X0159801Y0587141D01*
X0159783Y0586981D01*
X0159762Y0586822D01*
X0159736Y0586663D01*
X0159706Y0586505D01*
X0159673Y0586348D01*
X0159635Y0586191D01*
X0159594Y0586036D01*
X0159549Y0585882D01*
X0159500Y0585729D01*
X0159447Y0585577D01*
X0159391Y0585426D01*
X0159330Y0585277D01*
X0159267Y0585129D01*
X0159199Y0584983D01*
X0159128Y0584839D01*
X0159054Y0584697D01*
X0158976Y0584556D01*
X0158894Y0584418D01*
X0158809Y0584281D01*
X0158721Y0584147D01*
X0158629Y0584015D01*
X0158534Y0583885D01*
X0158436Y0583757D01*
X0158335Y0583632D01*
X0158231Y0583510D01*
X0158124Y0583390D01*
X0158014Y0583273D01*
X0157901Y0583158D01*
X0157785Y0583047D01*
X0157666Y0582938D01*
X0157545Y0582833D01*
X0157421Y0582730D01*
X0157295Y0582630D01*
X0157167Y0582534D01*
X0157036Y0582441D01*
X0156902Y0582351D01*
X0156767Y0582264D01*
X0156629Y0582181D01*
X0156490Y0582101D01*
X0156348Y0582025D01*
X0156205Y0581952D01*
X0156060Y0581883D01*
X0155913Y0581817D01*
X0155765Y0581755D01*
X0155615Y0581697D01*
X0155464Y0581642D01*
X0155311Y0581591D01*
X0155157Y0581544D01*
X0155002Y0581501D01*
X0154846Y0581462D01*
X0154690Y0581426D01*
X0154532Y0581395D01*
X0154374Y0581367D01*
X0154215Y0581343D01*
X0154055Y0581323D01*
X0153895Y0581307D01*
X0153735Y0581295D01*
X0153574Y0581287D01*
X0153413Y0581283D01*
X0153253Y0581283D01*
X0153092Y0581287D01*
X0152931Y0581295D01*
X0152771Y0581307D01*
X0152611Y0581323D01*
X0152451Y0581343D01*
X0152292Y0581367D01*
X0152134Y0581395D01*
X0151976Y0581426D01*
X0151820Y0581462D01*
X0151664Y0581501D01*
X0151509Y0581544D01*
X0151355Y0581591D01*
X0151202Y0581642D01*
X0151051Y0581697D01*
X0150901Y0581755D01*
X0150753Y0581817D01*
X0150606Y0581883D01*
X0150461Y0581952D01*
X0150318Y0582025D01*
X0150176Y0582101D01*
X0150037Y0582181D01*
X0149899Y0582264D01*
X0149764Y0582351D01*
X0149630Y0582441D01*
X0149499Y0582534D01*
X0149371Y0582630D01*
X0149245Y0582730D01*
X0149121Y0582833D01*
X0149000Y0582938D01*
X0148881Y0583047D01*
X0148765Y0583158D01*
X0148652Y0583273D01*
X0148542Y0583390D01*
X0148435Y0583510D01*
X0148331Y0583632D01*
X0148230Y0583757D01*
X0148132Y0583885D01*
X0148037Y0584015D01*
X0147945Y0584147D01*
X0147857Y0584281D01*
X0147772Y0584418D01*
X0147690Y0584556D01*
X0147612Y0584697D01*
X0147538Y0584839D01*
X0147467Y0584983D01*
X0147399Y0585129D01*
X0147336Y0585277D01*
X0147275Y0585426D01*
X0147219Y0585577D01*
X0147166Y0585729D01*
X0147117Y0585882D01*
X0147072Y0586036D01*
X0147031Y0586191D01*
X0146993Y0586348D01*
X0146960Y0586505D01*
X0146930Y0586663D01*
X0146904Y0586822D01*
X0146883Y0586981D01*
X0146865Y0587141D01*
X0146851Y0587301D01*
X0146841Y0587462D01*
X0146835Y0587622D01*
X0146833Y0587783D01*
M02*
