%
M48
M72
T01C0.0150
T02C0.0400
T03C0.1300
%
T01
X17516Y32547
X18097Y32907
X18585Y32551
X18101Y33748
X18650Y34175
X18398Y34765
X18384Y35557
X18821Y36466
X20023Y36457
X20463Y35560
X20462Y34768
X20168Y34139
X20770Y33750
X20249Y33362
X20696Y32982
X20253Y32527
X21247Y32610
X21323Y33344
X21327Y34139
X21312Y34742
X21318Y35547
X20996Y37057
X22366Y38296
X22789Y40009
X22336Y41770
X21053Y43022
X19333Y43478
X17594Y43022
X16302Y41761
X15869Y40009
X16341Y38296
X17581Y36967
X17530Y35557
X17530Y34736
X17514Y34139
X17518Y33354
X19313Y35246
X26069Y40009
X26502Y41761
X27794Y43022
X29533Y43478
X31253Y43022
X32536Y41770
X32989Y40009
X32566Y38296
X31196Y37057
X30223Y36457
X30663Y35560
X30662Y34768
X30368Y34139
X30970Y33750
X30449Y33362
X30896Y32982
X30453Y32527
X31447Y32610
X31523Y33344
X31527Y34139
X31512Y34742
X31518Y35547
X29513Y35246
X28850Y34175
X28598Y34765
X28584Y35557
X27730Y35557
X27730Y34736
X27714Y34139
X28301Y33748
X27718Y33354
X28297Y32907
X28785Y32551
X27716Y32547
X29021Y36466
X27781Y36967
X26541Y38296
X27716Y47747
X28297Y48107
X28785Y47751
X28301Y48948
X28850Y49375
X28598Y49965
X27730Y49936
X27714Y49339
X27718Y48554
X29513Y50446
X28584Y50757
X27730Y50757
X27781Y52167
X29021Y51666
X30223Y51657
X30663Y50760
X30662Y49968
X30368Y49339
X30970Y48950
X30449Y48562
X30896Y48182
X30453Y47727
X31447Y47810
X31523Y48544
X31527Y49339
X31512Y49942
X31518Y50747
X31196Y52257
X32566Y53496
X32989Y55209
X32536Y56970
X31253Y58222
X29533Y58678
X27794Y58222
X26502Y56961
X26069Y55209
X26541Y53496
X22789Y55209
X22366Y53496
X20996Y52257
X20023Y51657
X20463Y50760
X21318Y50747
X21312Y49942
X21327Y49339
X20770Y48950
X20249Y48562
X20696Y48182
X20253Y47727
X21247Y47810
X21323Y48544
X20168Y49339
X20462Y49968
X19313Y50446
X18384Y50757
X18821Y51666
X17581Y52167
X17530Y50757
X17530Y49936
X17514Y49339
X18101Y48948
X18650Y49375
X18398Y49965
X17518Y48554
X18097Y48107
X18585Y47751
X17516Y47747
X16341Y53496
X15869Y55209
X16302Y56961
X17594Y58222
X19333Y58678
X21053Y58222
X22336Y56970
X36269Y55209
X36741Y53496
X37981Y52167
X37930Y50757
X37930Y49936
X37914Y49339
X38501Y48948
X39050Y49375
X38798Y49965
X39713Y50446
X38784Y50757
X39221Y51666
X40423Y51657
X40863Y50760
X41718Y50747
X41712Y49942
X41727Y49339
X41170Y48950
X40649Y48562
X41096Y48182
X40653Y47727
X41647Y47810
X41723Y48544
X40568Y49339
X40862Y49968
X41396Y52257
X42766Y53496
X43189Y55209
X42736Y56970
X41453Y58222
X39733Y58678
X37994Y58222
X36702Y56961
X37918Y48554
X38497Y48107
X38985Y47751
X37916Y47747
X39733Y43478
X41453Y43022
X42736Y41770
X43189Y40009
X42766Y38296
X41396Y37057
X40423Y36457
X40863Y35560
X40862Y34768
X40568Y34139
X41170Y33750
X40649Y33362
X41096Y32982
X40653Y32527
X41647Y32610
X41723Y33344
X41727Y34139
X41712Y34742
X41718Y35547
X39713Y35246
X38784Y35557
X38798Y34765
X39050Y34175
X38501Y33748
X37918Y33354
X38497Y32907
X38985Y32551
X37916Y32547
X37914Y34139
X37930Y34736
X37930Y35557
X37981Y36967
X36741Y38296
X36269Y40009
X36702Y41761
X37994Y43022
X39221Y36466
T02
X18833Y30078
X19833Y30078
X29033Y30078
X30033Y30078
X39233Y30078
X40233Y30078
X40233Y45278
X39233Y45278
X30033Y45278
X29033Y45278
X19833Y45278
X18833Y45278
T03
X15333Y43578
X15333Y50778
X15333Y58778
X23333Y58778
X25533Y58778
X25533Y50778
X23333Y50778
X23333Y43578
X25533Y43578
X25533Y35578
X23333Y35578
X15333Y35578
X33533Y35578
X35733Y35578
X35733Y43578
X33533Y43578
X33533Y50778
X35733Y50778
X35733Y58778
X33533Y58778
X43733Y58778
X43733Y50778
X43733Y43578
X43733Y35578
M30
