%
M48
M72
T01C0.0150
T02C0.0400
T03C0.1300
%
T01
X8017Y5844
X8598Y6204
X9086Y5847
X8019Y6651
X8602Y7044
X8015Y7436
X8031Y8032
X8031Y8853
X8885Y8854
X8899Y8062
X9151Y7471
X9814Y8543
X10964Y8857
X11818Y8844
X11813Y8038
X10963Y8064
X10669Y7436
X11271Y7046
X10750Y6658
X11196Y6279
X10753Y5824
X11748Y5906
X11824Y6641
X11828Y7436
X10523Y9753
X11496Y10354
X12867Y11593
X13290Y13305
X12837Y15066
X11554Y16319
X9834Y16775
X8094Y16319
X6803Y15057
X6370Y13305
X6842Y11593
X8082Y10263
X9321Y9763
X16570Y13305
X17042Y11593
X18282Y10263
X19521Y9763
X19085Y8854
X18231Y8853
X18231Y8032
X19099Y8062
X19351Y7471
X18802Y7044
X18219Y6651
X18798Y6204
X19286Y5847
X18217Y5844
X18215Y7436
X20014Y8543
X21164Y8857
X21163Y8064
X20869Y7436
X21471Y7046
X22028Y7436
X22013Y8038
X22018Y8844
X21696Y10354
X20723Y9753
X23067Y11593
X23490Y13305
X23037Y15066
X21754Y16319
X20034Y16775
X18294Y16319
X17003Y15057
X18217Y21044
X18798Y21404
X19286Y21047
X18219Y21851
X18802Y22244
X19351Y22671
X19099Y23262
X18231Y23232
X18215Y22636
X18231Y24053
X19085Y24054
X20014Y23743
X21164Y24057
X21163Y23264
X20869Y22636
X21471Y22246
X22028Y22636
X22013Y23238
X22018Y24044
X21696Y25554
X20723Y24953
X19521Y24963
X18282Y25463
X17042Y26793
X16570Y28505
X17003Y30257
X18294Y31519
X20034Y31975
X21754Y31519
X23037Y30266
X23490Y28505
X23067Y26793
X26770Y28505
X27242Y26793
X28482Y25463
X29721Y24963
X29285Y24054
X29299Y23262
X29551Y22671
X29002Y22244
X28419Y21851
X28998Y21404
X29486Y21047
X28417Y21044
X28415Y22636
X28431Y23232
X28431Y24053
X30214Y23743
X31364Y24057
X31363Y23264
X31069Y22636
X31671Y22246
X31150Y21858
X31596Y21479
X31153Y21024
X32148Y21106
X32224Y21841
X32228Y22636
X32213Y23238
X32218Y24044
X31896Y25554
X30923Y24953
X33267Y26793
X33690Y28505
X33237Y30266
X31954Y31519
X30234Y31975
X28494Y31519
X27203Y30257
X22024Y21841
X21396Y21479
X20950Y21858
X20953Y21024
X21948Y21106
X28494Y16319
X27203Y15057
X26770Y13305
X27242Y11593
X28482Y10263
X29721Y9763
X29285Y8854
X29299Y8062
X29551Y7471
X29002Y7044
X28419Y6651
X28998Y6204
X29486Y5847
X28417Y5844
X28415Y7436
X28431Y8032
X28431Y8853
X30214Y8543
X31364Y8857
X31363Y8064
X31069Y7436
X31671Y7046
X31150Y6658
X31596Y6279
X31153Y5824
X32148Y5906
X32224Y6641
X32228Y7436
X32213Y8038
X32218Y8844
X31896Y10354
X30923Y9753
X33267Y11593
X33690Y13305
X33237Y15066
X31954Y16319
X30234Y16775
X22024Y6641
X21396Y6279
X20950Y6658
X20953Y5824
X21948Y5906
X11748Y21106
X11196Y21479
X10750Y21858
X11271Y22246
X11828Y22636
X11813Y23238
X10963Y23264
X10669Y22636
X11824Y21841
X10753Y21024
X9086Y21047
X8598Y21404
X8017Y21044
X8019Y21851
X8602Y22244
X8015Y22636
X8031Y23232
X8031Y24053
X8885Y24054
X8899Y23262
X9151Y22671
X9814Y23743
X10964Y24057
X11818Y24044
X10523Y24953
X11496Y25554
X12867Y26793
X13290Y28505
X12837Y30266
X11554Y31519
X9834Y31975
X8094Y31519
X6803Y30257
X6370Y28505
X6842Y26793
X8082Y25463
X9321Y24963
T02
X9334Y18575
X10334Y18575
X19534Y18575
X20534Y18575
X29734Y18575
X30734Y18575
X30734Y3375
X29734Y3375
X20534Y3375
X19534Y3375
X10334Y3375
X9334Y3375
T03
X5834Y8875
X13834Y8875
X16034Y8875
X24034Y8875
X26234Y8875
X34234Y8875
X34234Y16875
X34234Y24075
X26234Y24075
X24034Y24075
X16034Y24075
X13834Y24075
X13834Y16875
X16034Y16875
X24034Y16875
X26234Y16875
X26234Y32075
X24034Y32075
X16034Y32075
X13834Y32075
X5834Y32075
X5834Y24075
X5834Y16875
X34234Y32075
M30
