G75*
%MOIN*%
%OFA0B0*%
%FSLAX25Y25*%
%IPPOS*%
%LPD*%
%AMOC8*
5,1,8,0,0,1.08239X$1,22.5*
%
%ADD10R,0.01575X0.02362*%
%ADD11R,0.02362X0.01575*%
%ADD12R,0.03346X0.08661*%
%ADD13R,0.03937X0.04134*%
%ADD14R,0.03937X0.01969*%
%ADD15R,0.01969X0.03937*%
%ADD16C,0.00394*%
%ADD17R,0.05315X0.11417*%
%ADD18C,0.03937*%
%ADD19C,0.05906*%
%ADD20C,0.01600*%
%ADD21C,0.01800*%
%ADD22C,0.02700*%
%ADD23C,0.00800*%
%ADD24C,0.01000*%
%ADD25C,0.06000*%
D10*
X0187511Y0352221D03*
X0190661Y0352221D03*
X0192976Y0356394D03*
X0196125Y0356394D03*
X0198433Y0347060D03*
X0201582Y0347060D03*
X0199027Y0367138D03*
X0195877Y0367138D03*
X0192728Y0367158D03*
X0189578Y0367158D03*
X0192846Y0370752D03*
X0195996Y0370752D03*
X0289511Y0352221D03*
X0292661Y0352221D03*
X0294976Y0356394D03*
X0298125Y0356394D03*
X0300433Y0347060D03*
X0303582Y0347060D03*
X0301027Y0367138D03*
X0297877Y0367138D03*
X0294728Y0367158D03*
X0291578Y0367158D03*
X0294846Y0370752D03*
X0297996Y0370752D03*
X0391511Y0352221D03*
X0394661Y0352221D03*
X0396976Y0356394D03*
X0400125Y0356394D03*
X0402433Y0347060D03*
X0405582Y0347060D03*
X0403027Y0367138D03*
X0399877Y0367138D03*
X0396728Y0367158D03*
X0393578Y0367158D03*
X0396846Y0370752D03*
X0399996Y0370752D03*
X0402433Y0499060D03*
X0405582Y0499060D03*
X0400125Y0508394D03*
X0396976Y0508394D03*
X0394661Y0504221D03*
X0391511Y0504221D03*
X0393578Y0519158D03*
X0396728Y0519158D03*
X0399877Y0519138D03*
X0403027Y0519138D03*
X0399996Y0522752D03*
X0396846Y0522752D03*
X0303582Y0499060D03*
X0300433Y0499060D03*
X0292661Y0504221D03*
X0289511Y0504221D03*
X0294976Y0508394D03*
X0298125Y0508394D03*
X0297877Y0519138D03*
X0294728Y0519158D03*
X0291578Y0519158D03*
X0294846Y0522752D03*
X0297996Y0522752D03*
X0301027Y0519138D03*
X0201582Y0499060D03*
X0198433Y0499060D03*
X0190661Y0504221D03*
X0187511Y0504221D03*
X0192976Y0508394D03*
X0196125Y0508394D03*
X0195877Y0519138D03*
X0192728Y0519158D03*
X0189578Y0519158D03*
X0192846Y0522752D03*
X0195996Y0522752D03*
X0199027Y0519138D03*
D11*
X0195858Y0516189D03*
X0195858Y0513040D03*
X0192622Y0513001D03*
X0192622Y0516150D03*
X0294622Y0516150D03*
X0294622Y0513001D03*
X0297858Y0513040D03*
X0297858Y0516189D03*
X0396622Y0516150D03*
X0396622Y0513001D03*
X0399858Y0513040D03*
X0399858Y0516189D03*
X0399858Y0364189D03*
X0399858Y0361040D03*
X0396622Y0361001D03*
X0396622Y0364150D03*
X0297858Y0364189D03*
X0297858Y0361040D03*
X0294622Y0361001D03*
X0294622Y0364150D03*
X0195858Y0364189D03*
X0195858Y0361040D03*
X0192622Y0361001D03*
X0192622Y0364150D03*
D12*
X0187326Y0332863D03*
X0198153Y0332863D03*
X0289326Y0332863D03*
X0300153Y0332863D03*
X0391326Y0332863D03*
X0402153Y0332863D03*
X0402153Y0484863D03*
X0391326Y0484863D03*
X0300153Y0484863D03*
X0289326Y0484863D03*
X0198153Y0484863D03*
X0187326Y0484863D03*
D13*
X0192740Y0490867D03*
X0192740Y0478859D03*
X0294740Y0478859D03*
X0294740Y0490867D03*
X0396740Y0490867D03*
X0396740Y0478859D03*
X0396740Y0338867D03*
X0396740Y0326859D03*
X0294740Y0326859D03*
X0294740Y0338867D03*
X0192740Y0338867D03*
X0192740Y0326859D03*
D14*
X0188412Y0356295D03*
X0188412Y0361708D03*
X0200715Y0361748D03*
X0200715Y0356334D03*
X0290412Y0356295D03*
X0290412Y0361708D03*
X0302715Y0361748D03*
X0302715Y0356334D03*
X0392412Y0356295D03*
X0392412Y0361708D03*
X0404715Y0361748D03*
X0404715Y0356334D03*
X0404715Y0508334D03*
X0404715Y0513748D03*
X0392412Y0513708D03*
X0392412Y0508295D03*
X0302715Y0508334D03*
X0302715Y0513748D03*
X0290412Y0513708D03*
X0290412Y0508295D03*
X0200715Y0508334D03*
X0200715Y0513748D03*
X0188412Y0513708D03*
X0188412Y0508295D03*
D15*
X0196133Y0504193D03*
X0201547Y0504193D03*
X0192779Y0499119D03*
X0187366Y0499119D03*
X0289366Y0499119D03*
X0294779Y0499119D03*
X0298133Y0504193D03*
X0303547Y0504193D03*
X0391366Y0499119D03*
X0396779Y0499119D03*
X0400133Y0504193D03*
X0405547Y0504193D03*
X0405547Y0352193D03*
X0400133Y0352193D03*
X0396779Y0347119D03*
X0391366Y0347119D03*
X0303547Y0352193D03*
X0298133Y0352193D03*
X0294779Y0347119D03*
X0289366Y0347119D03*
X0201547Y0352193D03*
X0196133Y0352193D03*
X0192779Y0347119D03*
X0187366Y0347119D03*
D16*
X0189086Y0361780D02*
X0185700Y0362292D01*
X0182354Y0363119D01*
X0179047Y0364221D01*
X0174519Y0366347D01*
X0171645Y0368119D01*
X0168850Y0370166D01*
X0166015Y0372725D01*
X0163535Y0375284D01*
X0161173Y0378355D01*
X0158456Y0382882D01*
X0156566Y0387252D01*
X0155110Y0392174D01*
X0154244Y0397764D01*
X0154165Y0401583D01*
X0154440Y0405402D01*
X0154913Y0408434D01*
X0155503Y0410914D01*
X0156409Y0413867D01*
X0157629Y0416898D01*
X0159125Y0419851D01*
X0161133Y0423119D01*
X0163496Y0426150D01*
X0165700Y0428552D01*
X0168889Y0431386D01*
X0171055Y0433001D01*
X0173653Y0434654D01*
X0176724Y0436268D01*
X0179401Y0437449D01*
X0181999Y0438315D01*
X0184834Y0439063D01*
X0188141Y0439654D01*
X0191921Y0439930D01*
X0195228Y0439930D01*
X0198496Y0439615D01*
X0201409Y0439142D01*
X0204913Y0438237D01*
X0208259Y0437056D01*
X0211606Y0435520D01*
X0214440Y0433867D01*
X0217984Y0431308D01*
X0220307Y0429300D01*
X0222511Y0427016D01*
X0224952Y0424063D01*
X0226645Y0421583D01*
X0228181Y0418867D01*
X0229559Y0415993D01*
X0230779Y0412725D01*
X0231724Y0409103D01*
X0232275Y0406032D01*
X0232551Y0402961D01*
X0232629Y0400087D01*
X0232433Y0396938D01*
X0231999Y0393749D01*
X0231330Y0390796D01*
X0230543Y0388197D01*
X0229204Y0384733D01*
X0227866Y0382056D01*
X0226330Y0379497D01*
X0225031Y0377567D01*
X0223456Y0375599D01*
X0221330Y0373237D01*
X0219322Y0371347D01*
X0216999Y0369457D01*
X0214598Y0367764D01*
X0211330Y0365875D01*
X0208377Y0364497D01*
X0205385Y0363434D01*
X0201999Y0362489D01*
X0199322Y0361977D01*
X0197846Y0361800D01*
X0197846Y0371406D01*
X0198456Y0371504D01*
X0200740Y0371977D01*
X0203653Y0372882D01*
X0206291Y0373985D01*
X0208929Y0375441D01*
X0211685Y0377331D01*
X0214480Y0379851D01*
X0216527Y0382095D01*
X0218614Y0385048D01*
X0220188Y0387961D01*
X0221370Y0390717D01*
X0222314Y0394142D01*
X0222866Y0396780D01*
X0223062Y0400402D01*
X0222944Y0403512D01*
X0222472Y0406701D01*
X0221842Y0409378D01*
X0220740Y0412331D01*
X0219322Y0415284D01*
X0217354Y0418315D01*
X0215385Y0420678D01*
X0213614Y0422489D01*
X0210818Y0424812D01*
X0208692Y0426189D01*
X0206606Y0427331D01*
X0204204Y0428434D01*
X0201960Y0429182D01*
X0199204Y0429851D01*
X0195464Y0430363D01*
X0193062Y0430441D01*
X0190503Y0430323D01*
X0187551Y0429890D01*
X0184992Y0429221D01*
X0181999Y0428158D01*
X0178968Y0426741D01*
X0175818Y0424693D01*
X0173535Y0422882D01*
X0171330Y0420638D01*
X0169204Y0418040D01*
X0167787Y0415796D01*
X0166448Y0413355D01*
X0165149Y0410126D01*
X0164204Y0406347D01*
X0163771Y0403355D01*
X0163692Y0400166D01*
X0163889Y0397213D01*
X0164401Y0394024D01*
X0165503Y0390481D01*
X0166763Y0387528D01*
X0168062Y0385087D01*
X0170503Y0381741D01*
X0172748Y0379339D01*
X0174873Y0377528D01*
X0176448Y0376347D01*
X0177629Y0375560D01*
X0180385Y0373985D01*
X0184322Y0372410D01*
X0187472Y0371623D01*
X0189834Y0371229D01*
X0189834Y0361780D01*
X0189086Y0361780D01*
X0189834Y0362067D02*
X0187187Y0362067D01*
X0185023Y0362459D02*
X0189834Y0362459D01*
X0189834Y0362851D02*
X0183435Y0362851D01*
X0181979Y0363244D02*
X0189834Y0363244D01*
X0189834Y0363636D02*
X0180802Y0363636D01*
X0179625Y0364028D02*
X0189834Y0364028D01*
X0189834Y0364420D02*
X0178622Y0364420D01*
X0177787Y0364813D02*
X0189834Y0364813D01*
X0189834Y0365205D02*
X0176952Y0365205D01*
X0176116Y0365597D02*
X0189834Y0365597D01*
X0189834Y0365989D02*
X0175281Y0365989D01*
X0174463Y0366381D02*
X0189834Y0366381D01*
X0189834Y0366774D02*
X0173827Y0366774D01*
X0173191Y0367166D02*
X0189834Y0367166D01*
X0189834Y0367558D02*
X0172555Y0367558D01*
X0171918Y0367950D02*
X0189834Y0367950D01*
X0189834Y0368342D02*
X0171340Y0368342D01*
X0170804Y0368735D02*
X0189834Y0368735D01*
X0189834Y0369127D02*
X0170269Y0369127D01*
X0169733Y0369519D02*
X0189834Y0369519D01*
X0189834Y0369911D02*
X0169197Y0369911D01*
X0168697Y0370303D02*
X0189834Y0370303D01*
X0189834Y0370696D02*
X0168263Y0370696D01*
X0167829Y0371088D02*
X0189834Y0371088D01*
X0188327Y0371480D02*
X0167394Y0371480D01*
X0166960Y0371872D02*
X0186473Y0371872D01*
X0184904Y0372265D02*
X0166525Y0372265D01*
X0166091Y0372657D02*
X0183705Y0372657D01*
X0182725Y0373049D02*
X0165701Y0373049D01*
X0165321Y0373441D02*
X0181744Y0373441D01*
X0180764Y0373833D02*
X0164941Y0373833D01*
X0164561Y0374226D02*
X0179964Y0374226D01*
X0179277Y0374618D02*
X0164181Y0374618D01*
X0163800Y0375010D02*
X0178591Y0375010D01*
X0177905Y0375402D02*
X0163444Y0375402D01*
X0163142Y0375794D02*
X0177277Y0375794D01*
X0176689Y0376187D02*
X0162841Y0376187D01*
X0162539Y0376579D02*
X0176139Y0376579D01*
X0175616Y0376971D02*
X0162237Y0376971D01*
X0161935Y0377363D02*
X0175093Y0377363D01*
X0174606Y0377756D02*
X0161634Y0377756D01*
X0161332Y0378148D02*
X0174146Y0378148D01*
X0173686Y0378540D02*
X0161062Y0378540D01*
X0160826Y0378932D02*
X0173225Y0378932D01*
X0172765Y0379324D02*
X0160591Y0379324D01*
X0160356Y0379717D02*
X0172395Y0379717D01*
X0172028Y0380109D02*
X0160120Y0380109D01*
X0159885Y0380501D02*
X0171662Y0380501D01*
X0171295Y0380893D02*
X0159650Y0380893D01*
X0159414Y0381285D02*
X0170929Y0381285D01*
X0170562Y0381678D02*
X0159179Y0381678D01*
X0158944Y0382070D02*
X0170263Y0382070D01*
X0169977Y0382462D02*
X0158708Y0382462D01*
X0158473Y0382854D02*
X0169691Y0382854D01*
X0169405Y0383246D02*
X0158299Y0383246D01*
X0158129Y0383639D02*
X0169119Y0383639D01*
X0168833Y0384031D02*
X0157960Y0384031D01*
X0157790Y0384423D02*
X0168547Y0384423D01*
X0168261Y0384815D02*
X0157620Y0384815D01*
X0157451Y0385208D02*
X0167998Y0385208D01*
X0167790Y0385600D02*
X0157281Y0385600D01*
X0157111Y0385992D02*
X0167581Y0385992D01*
X0167372Y0386384D02*
X0156942Y0386384D01*
X0156772Y0386776D02*
X0167163Y0386776D01*
X0166955Y0387169D02*
X0156603Y0387169D01*
X0156475Y0387561D02*
X0166749Y0387561D01*
X0166582Y0387953D02*
X0156359Y0387953D01*
X0156243Y0388345D02*
X0166415Y0388345D01*
X0166247Y0388737D02*
X0156127Y0388737D01*
X0156011Y0389130D02*
X0166080Y0389130D01*
X0165913Y0389522D02*
X0155895Y0389522D01*
X0155779Y0389914D02*
X0165745Y0389914D01*
X0165578Y0390306D02*
X0155662Y0390306D01*
X0155546Y0390699D02*
X0165436Y0390699D01*
X0165314Y0391091D02*
X0155430Y0391091D01*
X0155314Y0391483D02*
X0165192Y0391483D01*
X0165070Y0391875D02*
X0155198Y0391875D01*
X0155095Y0392267D02*
X0164948Y0392267D01*
X0164826Y0392660D02*
X0155034Y0392660D01*
X0154974Y0393052D02*
X0164704Y0393052D01*
X0164582Y0393444D02*
X0154913Y0393444D01*
X0154852Y0393836D02*
X0164460Y0393836D01*
X0164368Y0394228D02*
X0154791Y0394228D01*
X0154731Y0394621D02*
X0164305Y0394621D01*
X0164242Y0395013D02*
X0154670Y0395013D01*
X0154609Y0395405D02*
X0164179Y0395405D01*
X0164116Y0395797D02*
X0154548Y0395797D01*
X0154488Y0396189D02*
X0164054Y0396189D01*
X0163991Y0396582D02*
X0154427Y0396582D01*
X0154366Y0396974D02*
X0163928Y0396974D01*
X0163879Y0397366D02*
X0154305Y0397366D01*
X0154244Y0397758D02*
X0163853Y0397758D01*
X0163827Y0398151D02*
X0154236Y0398151D01*
X0154228Y0398543D02*
X0163801Y0398543D01*
X0163774Y0398935D02*
X0154219Y0398935D01*
X0154211Y0399327D02*
X0163748Y0399327D01*
X0163722Y0399719D02*
X0154203Y0399719D01*
X0154195Y0400112D02*
X0163696Y0400112D01*
X0163701Y0400504D02*
X0154187Y0400504D01*
X0154179Y0400896D02*
X0163710Y0400896D01*
X0163720Y0401288D02*
X0154171Y0401288D01*
X0154172Y0401680D02*
X0163730Y0401680D01*
X0163739Y0402073D02*
X0154200Y0402073D01*
X0154228Y0402465D02*
X0163749Y0402465D01*
X0163759Y0402857D02*
X0154257Y0402857D01*
X0154285Y0403249D02*
X0163769Y0403249D01*
X0163813Y0403642D02*
X0154313Y0403642D01*
X0154342Y0404034D02*
X0163869Y0404034D01*
X0163926Y0404426D02*
X0154370Y0404426D01*
X0154398Y0404818D02*
X0163983Y0404818D01*
X0164040Y0405210D02*
X0154427Y0405210D01*
X0154472Y0405603D02*
X0164096Y0405603D01*
X0164153Y0405995D02*
X0154533Y0405995D01*
X0154594Y0406387D02*
X0164214Y0406387D01*
X0164312Y0406779D02*
X0154655Y0406779D01*
X0154716Y0407171D02*
X0164410Y0407171D01*
X0164508Y0407564D02*
X0154777Y0407564D01*
X0154838Y0407956D02*
X0164606Y0407956D01*
X0164704Y0408348D02*
X0154900Y0408348D01*
X0154986Y0408740D02*
X0164803Y0408740D01*
X0164901Y0409132D02*
X0155079Y0409132D01*
X0155173Y0409525D02*
X0164999Y0409525D01*
X0165097Y0409917D02*
X0155266Y0409917D01*
X0155359Y0410309D02*
X0165223Y0410309D01*
X0165380Y0410701D02*
X0155453Y0410701D01*
X0155559Y0411094D02*
X0165538Y0411094D01*
X0165696Y0411486D02*
X0155679Y0411486D01*
X0155799Y0411878D02*
X0165854Y0411878D01*
X0166012Y0412270D02*
X0155919Y0412270D01*
X0156040Y0412662D02*
X0166170Y0412662D01*
X0166327Y0413055D02*
X0156160Y0413055D01*
X0156280Y0413447D02*
X0166499Y0413447D01*
X0166714Y0413839D02*
X0156400Y0413839D01*
X0156556Y0414231D02*
X0166929Y0414231D01*
X0167144Y0414623D02*
X0156714Y0414623D01*
X0156872Y0415016D02*
X0167359Y0415016D01*
X0167574Y0415408D02*
X0157029Y0415408D01*
X0157187Y0415800D02*
X0167790Y0415800D01*
X0168037Y0416192D02*
X0157345Y0416192D01*
X0157503Y0416585D02*
X0168285Y0416585D01*
X0168533Y0416977D02*
X0157669Y0416977D01*
X0157868Y0417369D02*
X0168780Y0417369D01*
X0169028Y0417761D02*
X0158067Y0417761D01*
X0158265Y0418153D02*
X0169297Y0418153D01*
X0169618Y0418546D02*
X0158464Y0418546D01*
X0158663Y0418938D02*
X0169939Y0418938D01*
X0170260Y0419330D02*
X0158862Y0419330D01*
X0159060Y0419722D02*
X0170581Y0419722D01*
X0170902Y0420114D02*
X0159287Y0420114D01*
X0159528Y0420507D02*
X0171222Y0420507D01*
X0171586Y0420899D02*
X0159769Y0420899D01*
X0160010Y0421291D02*
X0171971Y0421291D01*
X0172357Y0421683D02*
X0160251Y0421683D01*
X0160492Y0422075D02*
X0172742Y0422075D01*
X0173127Y0422468D02*
X0160733Y0422468D01*
X0160974Y0422860D02*
X0173513Y0422860D01*
X0174001Y0423252D02*
X0161237Y0423252D01*
X0161543Y0423644D02*
X0174496Y0423644D01*
X0174990Y0424037D02*
X0161849Y0424037D01*
X0162154Y0424429D02*
X0175485Y0424429D01*
X0176015Y0424821D02*
X0162460Y0424821D01*
X0162765Y0425213D02*
X0176618Y0425213D01*
X0177221Y0425605D02*
X0163071Y0425605D01*
X0163377Y0425998D02*
X0177825Y0425998D01*
X0178428Y0426390D02*
X0163716Y0426390D01*
X0164076Y0426782D02*
X0179056Y0426782D01*
X0179895Y0427174D02*
X0164436Y0427174D01*
X0164796Y0427566D02*
X0180734Y0427566D01*
X0181573Y0427959D02*
X0165156Y0427959D01*
X0165516Y0428351D02*
X0182542Y0428351D01*
X0183646Y0428743D02*
X0165916Y0428743D01*
X0166357Y0429135D02*
X0184750Y0429135D01*
X0186164Y0429528D02*
X0166798Y0429528D01*
X0167239Y0429920D02*
X0187751Y0429920D01*
X0190426Y0430312D02*
X0167681Y0430312D01*
X0168122Y0430704D02*
X0218682Y0430704D01*
X0219136Y0430312D02*
X0195835Y0430312D01*
X0198701Y0429920D02*
X0219589Y0429920D01*
X0220043Y0429528D02*
X0200536Y0429528D01*
X0202099Y0429135D02*
X0220465Y0429135D01*
X0220844Y0428743D02*
X0203276Y0428743D01*
X0204384Y0428351D02*
X0221223Y0428351D01*
X0221601Y0427959D02*
X0205239Y0427959D01*
X0206093Y0427566D02*
X0221980Y0427566D01*
X0222359Y0427174D02*
X0206893Y0427174D01*
X0207609Y0426782D02*
X0222705Y0426782D01*
X0223029Y0426390D02*
X0208326Y0426390D01*
X0208988Y0425998D02*
X0223353Y0425998D01*
X0223678Y0425605D02*
X0209594Y0425605D01*
X0210199Y0425213D02*
X0224002Y0425213D01*
X0224326Y0424821D02*
X0210804Y0424821D01*
X0211279Y0424429D02*
X0224650Y0424429D01*
X0224971Y0424037D02*
X0211751Y0424037D01*
X0212223Y0423644D02*
X0225238Y0423644D01*
X0225506Y0423252D02*
X0212695Y0423252D01*
X0213167Y0422860D02*
X0225774Y0422860D01*
X0226041Y0422468D02*
X0213634Y0422468D01*
X0214018Y0422075D02*
X0226309Y0422075D01*
X0226577Y0421683D02*
X0214402Y0421683D01*
X0214785Y0421291D02*
X0226810Y0421291D01*
X0227032Y0420899D02*
X0215169Y0420899D01*
X0215528Y0420507D02*
X0227254Y0420507D01*
X0227475Y0420114D02*
X0215855Y0420114D01*
X0216182Y0419722D02*
X0227697Y0419722D01*
X0227919Y0419330D02*
X0216508Y0419330D01*
X0216835Y0418938D02*
X0228140Y0418938D01*
X0228335Y0418546D02*
X0217162Y0418546D01*
X0217459Y0418153D02*
X0228523Y0418153D01*
X0228711Y0417761D02*
X0217714Y0417761D01*
X0217968Y0417369D02*
X0228899Y0417369D01*
X0229087Y0416977D02*
X0218223Y0416977D01*
X0218478Y0416585D02*
X0229275Y0416585D01*
X0229463Y0416192D02*
X0218732Y0416192D01*
X0218987Y0415800D02*
X0229630Y0415800D01*
X0229777Y0415408D02*
X0219242Y0415408D01*
X0219451Y0415016D02*
X0229923Y0415016D01*
X0230070Y0414623D02*
X0219639Y0414623D01*
X0219828Y0414231D02*
X0230216Y0414231D01*
X0230363Y0413839D02*
X0220016Y0413839D01*
X0220204Y0413447D02*
X0230509Y0413447D01*
X0230656Y0413055D02*
X0220392Y0413055D01*
X0220581Y0412662D02*
X0230795Y0412662D01*
X0230898Y0412270D02*
X0220762Y0412270D01*
X0220909Y0411878D02*
X0231000Y0411878D01*
X0231102Y0411486D02*
X0221055Y0411486D01*
X0221202Y0411094D02*
X0231205Y0411094D01*
X0231307Y0410701D02*
X0221348Y0410701D01*
X0221495Y0410309D02*
X0231409Y0410309D01*
X0231512Y0409917D02*
X0221641Y0409917D01*
X0221787Y0409525D02*
X0231614Y0409525D01*
X0231716Y0409132D02*
X0221900Y0409132D01*
X0221992Y0408740D02*
X0231789Y0408740D01*
X0231859Y0408348D02*
X0222084Y0408348D01*
X0222177Y0407956D02*
X0231930Y0407956D01*
X0232000Y0407564D02*
X0222269Y0407564D01*
X0222361Y0407171D02*
X0232071Y0407171D01*
X0232141Y0406779D02*
X0222454Y0406779D01*
X0222518Y0406387D02*
X0232211Y0406387D01*
X0232278Y0405995D02*
X0222577Y0405995D01*
X0222635Y0405603D02*
X0232314Y0405603D01*
X0232349Y0405210D02*
X0222693Y0405210D01*
X0222751Y0404818D02*
X0232384Y0404818D01*
X0232419Y0404426D02*
X0222809Y0404426D01*
X0222867Y0404034D02*
X0232454Y0404034D01*
X0232490Y0403642D02*
X0222925Y0403642D01*
X0222954Y0403249D02*
X0232525Y0403249D01*
X0232554Y0402857D02*
X0222969Y0402857D01*
X0222984Y0402465D02*
X0232564Y0402465D01*
X0232575Y0402073D02*
X0222999Y0402073D01*
X0223014Y0401680D02*
X0232586Y0401680D01*
X0232596Y0401288D02*
X0223029Y0401288D01*
X0223044Y0400896D02*
X0232607Y0400896D01*
X0232618Y0400504D02*
X0223059Y0400504D01*
X0223047Y0400112D02*
X0232629Y0400112D01*
X0232606Y0399719D02*
X0223025Y0399719D01*
X0223004Y0399327D02*
X0232582Y0399327D01*
X0232557Y0398935D02*
X0222983Y0398935D01*
X0222961Y0398543D02*
X0232533Y0398543D01*
X0232508Y0398151D02*
X0222940Y0398151D01*
X0222919Y0397758D02*
X0232484Y0397758D01*
X0232459Y0397366D02*
X0222897Y0397366D01*
X0222876Y0396974D02*
X0232435Y0396974D01*
X0232384Y0396582D02*
X0222824Y0396582D01*
X0222742Y0396189D02*
X0232331Y0396189D01*
X0232278Y0395797D02*
X0222660Y0395797D01*
X0222578Y0395405D02*
X0232224Y0395405D01*
X0232171Y0395013D02*
X0222496Y0395013D01*
X0222414Y0394621D02*
X0232118Y0394621D01*
X0232065Y0394228D02*
X0222332Y0394228D01*
X0222230Y0393836D02*
X0232011Y0393836D01*
X0231930Y0393444D02*
X0222122Y0393444D01*
X0222014Y0393052D02*
X0231842Y0393052D01*
X0231753Y0392660D02*
X0221905Y0392660D01*
X0221797Y0392267D02*
X0231664Y0392267D01*
X0231575Y0391875D02*
X0221689Y0391875D01*
X0221581Y0391483D02*
X0231486Y0391483D01*
X0231397Y0391091D02*
X0221473Y0391091D01*
X0221362Y0390699D02*
X0231301Y0390699D01*
X0231182Y0390306D02*
X0221194Y0390306D01*
X0221025Y0389914D02*
X0231063Y0389914D01*
X0230944Y0389522D02*
X0220857Y0389522D01*
X0220689Y0389130D02*
X0230825Y0389130D01*
X0230706Y0388737D02*
X0220521Y0388737D01*
X0220353Y0388345D02*
X0230588Y0388345D01*
X0230448Y0387953D02*
X0220184Y0387953D01*
X0219972Y0387561D02*
X0230297Y0387561D01*
X0230145Y0387169D02*
X0219760Y0387169D01*
X0219548Y0386776D02*
X0229994Y0386776D01*
X0229842Y0386384D02*
X0219336Y0386384D01*
X0219124Y0385992D02*
X0229691Y0385992D01*
X0229539Y0385600D02*
X0218912Y0385600D01*
X0218700Y0385208D02*
X0229388Y0385208D01*
X0229236Y0384815D02*
X0218449Y0384815D01*
X0218172Y0384423D02*
X0229049Y0384423D01*
X0228853Y0384031D02*
X0217895Y0384031D01*
X0217618Y0383639D02*
X0228657Y0383639D01*
X0228461Y0383246D02*
X0217341Y0383246D01*
X0217064Y0382854D02*
X0228265Y0382854D01*
X0228069Y0382462D02*
X0216786Y0382462D01*
X0216504Y0382070D02*
X0227873Y0382070D01*
X0227639Y0381678D02*
X0216146Y0381678D01*
X0215788Y0381285D02*
X0227403Y0381285D01*
X0227168Y0380893D02*
X0215431Y0380893D01*
X0215073Y0380501D02*
X0226933Y0380501D01*
X0226698Y0380109D02*
X0214715Y0380109D01*
X0214331Y0379717D02*
X0226462Y0379717D01*
X0226214Y0379324D02*
X0213896Y0379324D01*
X0213461Y0378932D02*
X0225950Y0378932D01*
X0225686Y0378540D02*
X0213025Y0378540D01*
X0212590Y0378148D02*
X0225422Y0378148D01*
X0225158Y0377756D02*
X0212155Y0377756D01*
X0211720Y0377363D02*
X0224868Y0377363D01*
X0224554Y0376971D02*
X0211159Y0376971D01*
X0210587Y0376579D02*
X0224240Y0376579D01*
X0223926Y0376187D02*
X0210015Y0376187D01*
X0209443Y0375794D02*
X0223613Y0375794D01*
X0223279Y0375402D02*
X0208858Y0375402D01*
X0208147Y0375010D02*
X0222926Y0375010D01*
X0222573Y0374618D02*
X0207437Y0374618D01*
X0206727Y0374226D02*
X0222220Y0374226D01*
X0221867Y0373833D02*
X0205929Y0373833D01*
X0204990Y0373441D02*
X0221514Y0373441D01*
X0221131Y0373049D02*
X0204052Y0373049D01*
X0202927Y0372657D02*
X0220714Y0372657D01*
X0220297Y0372265D02*
X0201665Y0372265D01*
X0200234Y0371872D02*
X0219880Y0371872D01*
X0219464Y0371480D02*
X0198305Y0371480D01*
X0197846Y0371088D02*
X0219004Y0371088D01*
X0218522Y0370696D02*
X0197846Y0370696D01*
X0197846Y0370303D02*
X0218040Y0370303D01*
X0217558Y0369911D02*
X0197846Y0369911D01*
X0197846Y0369519D02*
X0217076Y0369519D01*
X0216531Y0369127D02*
X0197846Y0369127D01*
X0197846Y0368735D02*
X0215974Y0368735D01*
X0215418Y0368342D02*
X0197846Y0368342D01*
X0197846Y0367950D02*
X0214862Y0367950D01*
X0214241Y0367558D02*
X0197846Y0367558D01*
X0197846Y0367166D02*
X0213563Y0367166D01*
X0212885Y0366774D02*
X0197846Y0366774D01*
X0197846Y0366381D02*
X0212207Y0366381D01*
X0211528Y0365989D02*
X0197846Y0365989D01*
X0197846Y0365597D02*
X0210735Y0365597D01*
X0209895Y0365205D02*
X0197846Y0365205D01*
X0197846Y0364813D02*
X0209054Y0364813D01*
X0208163Y0364420D02*
X0197846Y0364420D01*
X0197846Y0364028D02*
X0207059Y0364028D01*
X0205955Y0363636D02*
X0197846Y0363636D01*
X0197846Y0363244D02*
X0204705Y0363244D01*
X0203299Y0362851D02*
X0197846Y0362851D01*
X0197846Y0362459D02*
X0201845Y0362459D01*
X0199794Y0362067D02*
X0197846Y0362067D01*
X0218228Y0431096D02*
X0168563Y0431096D01*
X0169026Y0431489D02*
X0217733Y0431489D01*
X0217190Y0431881D02*
X0169553Y0431881D01*
X0170079Y0432273D02*
X0216647Y0432273D01*
X0216104Y0432665D02*
X0170605Y0432665D01*
X0171144Y0433057D02*
X0215561Y0433057D01*
X0215018Y0433450D02*
X0171760Y0433450D01*
X0172377Y0433842D02*
X0214475Y0433842D01*
X0213811Y0434234D02*
X0172993Y0434234D01*
X0173609Y0434626D02*
X0213138Y0434626D01*
X0212466Y0435018D02*
X0174346Y0435018D01*
X0175092Y0435411D02*
X0211793Y0435411D01*
X0210990Y0435803D02*
X0175839Y0435803D01*
X0176585Y0436195D02*
X0210135Y0436195D01*
X0209280Y0436587D02*
X0177447Y0436587D01*
X0178336Y0436980D02*
X0208425Y0436980D01*
X0207364Y0437372D02*
X0179225Y0437372D01*
X0180345Y0437764D02*
X0206252Y0437764D01*
X0205141Y0438156D02*
X0181522Y0438156D01*
X0182882Y0438548D02*
X0203707Y0438548D01*
X0202189Y0438941D02*
X0184368Y0438941D01*
X0186342Y0439333D02*
X0200234Y0439333D01*
X0197351Y0439725D02*
X0189115Y0439725D01*
X0258409Y0413867D02*
X0257503Y0410914D01*
X0256913Y0408434D01*
X0256440Y0405402D01*
X0256165Y0401583D01*
X0256244Y0397764D01*
X0257110Y0392174D01*
X0258566Y0387252D01*
X0260456Y0382882D01*
X0263173Y0378355D01*
X0265535Y0375284D01*
X0268015Y0372725D01*
X0270850Y0370166D01*
X0273645Y0368119D01*
X0276519Y0366347D01*
X0281047Y0364221D01*
X0284354Y0363119D01*
X0287700Y0362292D01*
X0291086Y0361780D01*
X0291834Y0361780D01*
X0291834Y0371229D01*
X0289472Y0371623D01*
X0286322Y0372410D01*
X0282385Y0373985D01*
X0279629Y0375560D01*
X0278448Y0376347D01*
X0276873Y0377528D01*
X0274748Y0379339D01*
X0272503Y0381741D01*
X0270062Y0385087D01*
X0268763Y0387528D01*
X0267503Y0390481D01*
X0266401Y0394024D01*
X0265889Y0397213D01*
X0265692Y0400166D01*
X0265771Y0403355D01*
X0266204Y0406347D01*
X0267149Y0410126D01*
X0268448Y0413355D01*
X0269787Y0415796D01*
X0271204Y0418040D01*
X0273330Y0420638D01*
X0275535Y0422882D01*
X0277818Y0424693D01*
X0280968Y0426741D01*
X0283999Y0428158D01*
X0286992Y0429221D01*
X0289551Y0429890D01*
X0292503Y0430323D01*
X0295062Y0430441D01*
X0297464Y0430363D01*
X0301204Y0429851D01*
X0303960Y0429182D01*
X0306204Y0428434D01*
X0308606Y0427331D01*
X0310692Y0426189D01*
X0312818Y0424812D01*
X0315614Y0422489D01*
X0317385Y0420678D01*
X0319354Y0418315D01*
X0321322Y0415284D01*
X0322740Y0412331D01*
X0323842Y0409378D01*
X0324472Y0406701D01*
X0324944Y0403512D01*
X0325062Y0400402D01*
X0324866Y0396780D01*
X0324314Y0394142D01*
X0323370Y0390717D01*
X0322188Y0387961D01*
X0320614Y0385048D01*
X0318527Y0382095D01*
X0316480Y0379851D01*
X0313685Y0377331D01*
X0310929Y0375441D01*
X0308291Y0373985D01*
X0305653Y0372882D01*
X0302740Y0371977D01*
X0300456Y0371504D01*
X0299846Y0371406D01*
X0299846Y0361800D01*
X0301322Y0361977D01*
X0303999Y0362489D01*
X0307385Y0363434D01*
X0310377Y0364497D01*
X0313330Y0365875D01*
X0316598Y0367764D01*
X0318999Y0369457D01*
X0321322Y0371347D01*
X0323330Y0373237D01*
X0325456Y0375599D01*
X0327031Y0377567D01*
X0328330Y0379497D01*
X0329866Y0382056D01*
X0331204Y0384733D01*
X0332543Y0388197D01*
X0333330Y0390796D01*
X0333999Y0393749D01*
X0334433Y0396938D01*
X0334629Y0400087D01*
X0334551Y0402961D01*
X0334275Y0406032D01*
X0333724Y0409103D01*
X0332779Y0412725D01*
X0331559Y0415993D01*
X0330181Y0418867D01*
X0328645Y0421583D01*
X0326952Y0424063D01*
X0324511Y0427016D01*
X0322307Y0429300D01*
X0319984Y0431308D01*
X0316440Y0433867D01*
X0313606Y0435520D01*
X0310259Y0437056D01*
X0306913Y0438237D01*
X0303409Y0439142D01*
X0300496Y0439615D01*
X0297228Y0439930D01*
X0293921Y0439930D01*
X0290141Y0439654D01*
X0286834Y0439063D01*
X0283999Y0438315D01*
X0281401Y0437449D01*
X0278724Y0436268D01*
X0275653Y0434654D01*
X0273055Y0433001D01*
X0270889Y0431386D01*
X0267700Y0428552D01*
X0265496Y0426150D01*
X0263133Y0423119D01*
X0261125Y0419851D01*
X0259629Y0416898D01*
X0258409Y0413867D01*
X0258400Y0413839D02*
X0268714Y0413839D01*
X0268929Y0414231D02*
X0258556Y0414231D01*
X0258714Y0414623D02*
X0269144Y0414623D01*
X0269359Y0415016D02*
X0258872Y0415016D01*
X0259029Y0415408D02*
X0269574Y0415408D01*
X0269790Y0415800D02*
X0259187Y0415800D01*
X0259345Y0416192D02*
X0270037Y0416192D01*
X0270285Y0416585D02*
X0259503Y0416585D01*
X0259669Y0416977D02*
X0270533Y0416977D01*
X0270780Y0417369D02*
X0259868Y0417369D01*
X0260067Y0417761D02*
X0271028Y0417761D01*
X0271297Y0418153D02*
X0260265Y0418153D01*
X0260464Y0418546D02*
X0271618Y0418546D01*
X0271939Y0418938D02*
X0260663Y0418938D01*
X0260862Y0419330D02*
X0272260Y0419330D01*
X0272581Y0419722D02*
X0261060Y0419722D01*
X0261287Y0420114D02*
X0272902Y0420114D01*
X0273222Y0420507D02*
X0261528Y0420507D01*
X0261769Y0420899D02*
X0273586Y0420899D01*
X0273971Y0421291D02*
X0262010Y0421291D01*
X0262251Y0421683D02*
X0274357Y0421683D01*
X0274742Y0422075D02*
X0262492Y0422075D01*
X0262733Y0422468D02*
X0275127Y0422468D01*
X0275513Y0422860D02*
X0262974Y0422860D01*
X0263237Y0423252D02*
X0276001Y0423252D01*
X0276496Y0423644D02*
X0263543Y0423644D01*
X0263849Y0424037D02*
X0276990Y0424037D01*
X0277485Y0424429D02*
X0264154Y0424429D01*
X0264460Y0424821D02*
X0278015Y0424821D01*
X0278618Y0425213D02*
X0264765Y0425213D01*
X0265071Y0425605D02*
X0279221Y0425605D01*
X0279825Y0425998D02*
X0265377Y0425998D01*
X0265716Y0426390D02*
X0280428Y0426390D01*
X0281056Y0426782D02*
X0266076Y0426782D01*
X0266436Y0427174D02*
X0281895Y0427174D01*
X0282734Y0427566D02*
X0266796Y0427566D01*
X0267156Y0427959D02*
X0283573Y0427959D01*
X0284542Y0428351D02*
X0267516Y0428351D01*
X0267916Y0428743D02*
X0285646Y0428743D01*
X0286750Y0429135D02*
X0268357Y0429135D01*
X0268798Y0429528D02*
X0288164Y0429528D01*
X0289751Y0429920D02*
X0269239Y0429920D01*
X0269681Y0430312D02*
X0292426Y0430312D01*
X0297835Y0430312D02*
X0321136Y0430312D01*
X0321589Y0429920D02*
X0300701Y0429920D01*
X0302536Y0429528D02*
X0322043Y0429528D01*
X0322465Y0429135D02*
X0304099Y0429135D01*
X0305276Y0428743D02*
X0322844Y0428743D01*
X0323223Y0428351D02*
X0306384Y0428351D01*
X0307239Y0427959D02*
X0323601Y0427959D01*
X0323980Y0427566D02*
X0308093Y0427566D01*
X0308893Y0427174D02*
X0324359Y0427174D01*
X0324705Y0426782D02*
X0309609Y0426782D01*
X0310326Y0426390D02*
X0325029Y0426390D01*
X0325353Y0425998D02*
X0310988Y0425998D01*
X0311594Y0425605D02*
X0325678Y0425605D01*
X0326002Y0425213D02*
X0312199Y0425213D01*
X0312804Y0424821D02*
X0326326Y0424821D01*
X0326650Y0424429D02*
X0313279Y0424429D01*
X0313751Y0424037D02*
X0326971Y0424037D01*
X0327238Y0423644D02*
X0314223Y0423644D01*
X0314695Y0423252D02*
X0327506Y0423252D01*
X0327774Y0422860D02*
X0315167Y0422860D01*
X0315634Y0422468D02*
X0328041Y0422468D01*
X0328309Y0422075D02*
X0316018Y0422075D01*
X0316402Y0421683D02*
X0328577Y0421683D01*
X0328810Y0421291D02*
X0316785Y0421291D01*
X0317169Y0420899D02*
X0329032Y0420899D01*
X0329254Y0420507D02*
X0317528Y0420507D01*
X0317855Y0420114D02*
X0329475Y0420114D01*
X0329697Y0419722D02*
X0318182Y0419722D01*
X0318508Y0419330D02*
X0329919Y0419330D01*
X0330140Y0418938D02*
X0318835Y0418938D01*
X0319162Y0418546D02*
X0330335Y0418546D01*
X0330523Y0418153D02*
X0319459Y0418153D01*
X0319714Y0417761D02*
X0330711Y0417761D01*
X0330899Y0417369D02*
X0319968Y0417369D01*
X0320223Y0416977D02*
X0331087Y0416977D01*
X0331275Y0416585D02*
X0320478Y0416585D01*
X0320732Y0416192D02*
X0331463Y0416192D01*
X0331630Y0415800D02*
X0320987Y0415800D01*
X0321242Y0415408D02*
X0331777Y0415408D01*
X0331923Y0415016D02*
X0321451Y0415016D01*
X0321639Y0414623D02*
X0332070Y0414623D01*
X0332216Y0414231D02*
X0321828Y0414231D01*
X0322016Y0413839D02*
X0332363Y0413839D01*
X0332509Y0413447D02*
X0322204Y0413447D01*
X0322392Y0413055D02*
X0332656Y0413055D01*
X0332795Y0412662D02*
X0322581Y0412662D01*
X0322762Y0412270D02*
X0332898Y0412270D01*
X0333000Y0411878D02*
X0322909Y0411878D01*
X0323055Y0411486D02*
X0333102Y0411486D01*
X0333205Y0411094D02*
X0323202Y0411094D01*
X0323348Y0410701D02*
X0333307Y0410701D01*
X0333409Y0410309D02*
X0323495Y0410309D01*
X0323641Y0409917D02*
X0333512Y0409917D01*
X0333614Y0409525D02*
X0323787Y0409525D01*
X0323900Y0409132D02*
X0333716Y0409132D01*
X0333789Y0408740D02*
X0323992Y0408740D01*
X0324084Y0408348D02*
X0333859Y0408348D01*
X0333930Y0407956D02*
X0324177Y0407956D01*
X0324269Y0407564D02*
X0334000Y0407564D01*
X0334071Y0407171D02*
X0324361Y0407171D01*
X0324454Y0406779D02*
X0334141Y0406779D01*
X0334211Y0406387D02*
X0324518Y0406387D01*
X0324577Y0405995D02*
X0334278Y0405995D01*
X0334314Y0405603D02*
X0324635Y0405603D01*
X0324693Y0405210D02*
X0334349Y0405210D01*
X0334384Y0404818D02*
X0324751Y0404818D01*
X0324809Y0404426D02*
X0334419Y0404426D01*
X0334454Y0404034D02*
X0324867Y0404034D01*
X0324925Y0403642D02*
X0334490Y0403642D01*
X0334525Y0403249D02*
X0324954Y0403249D01*
X0324969Y0402857D02*
X0334554Y0402857D01*
X0334564Y0402465D02*
X0324984Y0402465D01*
X0324999Y0402073D02*
X0334575Y0402073D01*
X0334586Y0401680D02*
X0325014Y0401680D01*
X0325029Y0401288D02*
X0334596Y0401288D01*
X0334607Y0400896D02*
X0325044Y0400896D01*
X0325059Y0400504D02*
X0334618Y0400504D01*
X0334629Y0400112D02*
X0325047Y0400112D01*
X0325025Y0399719D02*
X0334606Y0399719D01*
X0334582Y0399327D02*
X0325004Y0399327D01*
X0324983Y0398935D02*
X0334557Y0398935D01*
X0334533Y0398543D02*
X0324961Y0398543D01*
X0324940Y0398151D02*
X0334508Y0398151D01*
X0334484Y0397758D02*
X0324919Y0397758D01*
X0324897Y0397366D02*
X0334459Y0397366D01*
X0334435Y0396974D02*
X0324876Y0396974D01*
X0324824Y0396582D02*
X0334384Y0396582D01*
X0334331Y0396189D02*
X0324742Y0396189D01*
X0324660Y0395797D02*
X0334278Y0395797D01*
X0334224Y0395405D02*
X0324578Y0395405D01*
X0324496Y0395013D02*
X0334171Y0395013D01*
X0334118Y0394621D02*
X0324414Y0394621D01*
X0324332Y0394228D02*
X0334065Y0394228D01*
X0334011Y0393836D02*
X0324230Y0393836D01*
X0324122Y0393444D02*
X0333930Y0393444D01*
X0333842Y0393052D02*
X0324014Y0393052D01*
X0323905Y0392660D02*
X0333753Y0392660D01*
X0333664Y0392267D02*
X0323797Y0392267D01*
X0323689Y0391875D02*
X0333575Y0391875D01*
X0333486Y0391483D02*
X0323581Y0391483D01*
X0323473Y0391091D02*
X0333397Y0391091D01*
X0333301Y0390699D02*
X0323362Y0390699D01*
X0323194Y0390306D02*
X0333182Y0390306D01*
X0333063Y0389914D02*
X0323025Y0389914D01*
X0322857Y0389522D02*
X0332944Y0389522D01*
X0332825Y0389130D02*
X0322689Y0389130D01*
X0322521Y0388737D02*
X0332706Y0388737D01*
X0332588Y0388345D02*
X0322353Y0388345D01*
X0322184Y0387953D02*
X0332448Y0387953D01*
X0332297Y0387561D02*
X0321972Y0387561D01*
X0321760Y0387169D02*
X0332145Y0387169D01*
X0331994Y0386776D02*
X0321548Y0386776D01*
X0321336Y0386384D02*
X0331842Y0386384D01*
X0331691Y0385992D02*
X0321124Y0385992D01*
X0320912Y0385600D02*
X0331539Y0385600D01*
X0331388Y0385208D02*
X0320700Y0385208D01*
X0320449Y0384815D02*
X0331236Y0384815D01*
X0331049Y0384423D02*
X0320172Y0384423D01*
X0319895Y0384031D02*
X0330853Y0384031D01*
X0330657Y0383639D02*
X0319618Y0383639D01*
X0319341Y0383246D02*
X0330461Y0383246D01*
X0330265Y0382854D02*
X0319064Y0382854D01*
X0318786Y0382462D02*
X0330069Y0382462D01*
X0329873Y0382070D02*
X0318504Y0382070D01*
X0318146Y0381678D02*
X0329639Y0381678D01*
X0329403Y0381285D02*
X0317788Y0381285D01*
X0317431Y0380893D02*
X0329168Y0380893D01*
X0328933Y0380501D02*
X0317073Y0380501D01*
X0316715Y0380109D02*
X0328698Y0380109D01*
X0328462Y0379717D02*
X0316331Y0379717D01*
X0315896Y0379324D02*
X0328214Y0379324D01*
X0327950Y0378932D02*
X0315461Y0378932D01*
X0315025Y0378540D02*
X0327686Y0378540D01*
X0327422Y0378148D02*
X0314590Y0378148D01*
X0314155Y0377756D02*
X0327158Y0377756D01*
X0326868Y0377363D02*
X0313720Y0377363D01*
X0313159Y0376971D02*
X0326554Y0376971D01*
X0326240Y0376579D02*
X0312587Y0376579D01*
X0312015Y0376187D02*
X0325926Y0376187D01*
X0325613Y0375794D02*
X0311443Y0375794D01*
X0310858Y0375402D02*
X0325279Y0375402D01*
X0324926Y0375010D02*
X0310147Y0375010D01*
X0309437Y0374618D02*
X0324573Y0374618D01*
X0324220Y0374226D02*
X0308727Y0374226D01*
X0307929Y0373833D02*
X0323867Y0373833D01*
X0323514Y0373441D02*
X0306990Y0373441D01*
X0306052Y0373049D02*
X0323131Y0373049D01*
X0322714Y0372657D02*
X0304927Y0372657D01*
X0303665Y0372265D02*
X0322297Y0372265D01*
X0321880Y0371872D02*
X0302234Y0371872D01*
X0300305Y0371480D02*
X0321464Y0371480D01*
X0321004Y0371088D02*
X0299846Y0371088D01*
X0299846Y0370696D02*
X0320522Y0370696D01*
X0320040Y0370303D02*
X0299846Y0370303D01*
X0299846Y0369911D02*
X0319558Y0369911D01*
X0319076Y0369519D02*
X0299846Y0369519D01*
X0299846Y0369127D02*
X0318531Y0369127D01*
X0317974Y0368735D02*
X0299846Y0368735D01*
X0299846Y0368342D02*
X0317418Y0368342D01*
X0316862Y0367950D02*
X0299846Y0367950D01*
X0299846Y0367558D02*
X0316241Y0367558D01*
X0315563Y0367166D02*
X0299846Y0367166D01*
X0299846Y0366774D02*
X0314885Y0366774D01*
X0314207Y0366381D02*
X0299846Y0366381D01*
X0299846Y0365989D02*
X0313528Y0365989D01*
X0312735Y0365597D02*
X0299846Y0365597D01*
X0299846Y0365205D02*
X0311895Y0365205D01*
X0311054Y0364813D02*
X0299846Y0364813D01*
X0299846Y0364420D02*
X0310163Y0364420D01*
X0309059Y0364028D02*
X0299846Y0364028D01*
X0299846Y0363636D02*
X0307955Y0363636D01*
X0306705Y0363244D02*
X0299846Y0363244D01*
X0299846Y0362851D02*
X0305299Y0362851D01*
X0303845Y0362459D02*
X0299846Y0362459D01*
X0299846Y0362067D02*
X0301794Y0362067D01*
X0291834Y0362067D02*
X0289187Y0362067D01*
X0287023Y0362459D02*
X0291834Y0362459D01*
X0291834Y0362851D02*
X0285435Y0362851D01*
X0283979Y0363244D02*
X0291834Y0363244D01*
X0291834Y0363636D02*
X0282802Y0363636D01*
X0281625Y0364028D02*
X0291834Y0364028D01*
X0291834Y0364420D02*
X0280622Y0364420D01*
X0279787Y0364813D02*
X0291834Y0364813D01*
X0291834Y0365205D02*
X0278952Y0365205D01*
X0278116Y0365597D02*
X0291834Y0365597D01*
X0291834Y0365989D02*
X0277281Y0365989D01*
X0276463Y0366381D02*
X0291834Y0366381D01*
X0291834Y0366774D02*
X0275827Y0366774D01*
X0275191Y0367166D02*
X0291834Y0367166D01*
X0291834Y0367558D02*
X0274555Y0367558D01*
X0273918Y0367950D02*
X0291834Y0367950D01*
X0291834Y0368342D02*
X0273340Y0368342D01*
X0272804Y0368735D02*
X0291834Y0368735D01*
X0291834Y0369127D02*
X0272269Y0369127D01*
X0271733Y0369519D02*
X0291834Y0369519D01*
X0291834Y0369911D02*
X0271197Y0369911D01*
X0270697Y0370303D02*
X0291834Y0370303D01*
X0291834Y0370696D02*
X0270263Y0370696D01*
X0269829Y0371088D02*
X0291834Y0371088D01*
X0290327Y0371480D02*
X0269394Y0371480D01*
X0268960Y0371872D02*
X0288473Y0371872D01*
X0286904Y0372265D02*
X0268525Y0372265D01*
X0268091Y0372657D02*
X0285705Y0372657D01*
X0284725Y0373049D02*
X0267701Y0373049D01*
X0267321Y0373441D02*
X0283744Y0373441D01*
X0282764Y0373833D02*
X0266941Y0373833D01*
X0266561Y0374226D02*
X0281964Y0374226D01*
X0281277Y0374618D02*
X0266181Y0374618D01*
X0265800Y0375010D02*
X0280591Y0375010D01*
X0279905Y0375402D02*
X0265444Y0375402D01*
X0265142Y0375794D02*
X0279277Y0375794D01*
X0278689Y0376187D02*
X0264841Y0376187D01*
X0264539Y0376579D02*
X0278139Y0376579D01*
X0277616Y0376971D02*
X0264237Y0376971D01*
X0263935Y0377363D02*
X0277093Y0377363D01*
X0276606Y0377756D02*
X0263634Y0377756D01*
X0263332Y0378148D02*
X0276146Y0378148D01*
X0275686Y0378540D02*
X0263062Y0378540D01*
X0262826Y0378932D02*
X0275225Y0378932D01*
X0274765Y0379324D02*
X0262591Y0379324D01*
X0262356Y0379717D02*
X0274395Y0379717D01*
X0274028Y0380109D02*
X0262120Y0380109D01*
X0261885Y0380501D02*
X0273662Y0380501D01*
X0273295Y0380893D02*
X0261650Y0380893D01*
X0261414Y0381285D02*
X0272929Y0381285D01*
X0272562Y0381678D02*
X0261179Y0381678D01*
X0260944Y0382070D02*
X0272263Y0382070D01*
X0271977Y0382462D02*
X0260708Y0382462D01*
X0260473Y0382854D02*
X0271691Y0382854D01*
X0271405Y0383246D02*
X0260299Y0383246D01*
X0260129Y0383639D02*
X0271119Y0383639D01*
X0270833Y0384031D02*
X0259960Y0384031D01*
X0259790Y0384423D02*
X0270547Y0384423D01*
X0270261Y0384815D02*
X0259620Y0384815D01*
X0259451Y0385208D02*
X0269998Y0385208D01*
X0269790Y0385600D02*
X0259281Y0385600D01*
X0259111Y0385992D02*
X0269581Y0385992D01*
X0269372Y0386384D02*
X0258942Y0386384D01*
X0258772Y0386776D02*
X0269163Y0386776D01*
X0268955Y0387169D02*
X0258603Y0387169D01*
X0258475Y0387561D02*
X0268749Y0387561D01*
X0268582Y0387953D02*
X0258359Y0387953D01*
X0258243Y0388345D02*
X0268415Y0388345D01*
X0268247Y0388737D02*
X0258127Y0388737D01*
X0258011Y0389130D02*
X0268080Y0389130D01*
X0267913Y0389522D02*
X0257895Y0389522D01*
X0257779Y0389914D02*
X0267745Y0389914D01*
X0267578Y0390306D02*
X0257662Y0390306D01*
X0257546Y0390699D02*
X0267436Y0390699D01*
X0267314Y0391091D02*
X0257430Y0391091D01*
X0257314Y0391483D02*
X0267192Y0391483D01*
X0267070Y0391875D02*
X0257198Y0391875D01*
X0257095Y0392267D02*
X0266948Y0392267D01*
X0266826Y0392660D02*
X0257034Y0392660D01*
X0256974Y0393052D02*
X0266704Y0393052D01*
X0266582Y0393444D02*
X0256913Y0393444D01*
X0256852Y0393836D02*
X0266460Y0393836D01*
X0266368Y0394228D02*
X0256791Y0394228D01*
X0256731Y0394621D02*
X0266305Y0394621D01*
X0266242Y0395013D02*
X0256670Y0395013D01*
X0256609Y0395405D02*
X0266179Y0395405D01*
X0266116Y0395797D02*
X0256548Y0395797D01*
X0256488Y0396189D02*
X0266054Y0396189D01*
X0265991Y0396582D02*
X0256427Y0396582D01*
X0256366Y0396974D02*
X0265928Y0396974D01*
X0265879Y0397366D02*
X0256305Y0397366D01*
X0256244Y0397758D02*
X0265853Y0397758D01*
X0265827Y0398151D02*
X0256236Y0398151D01*
X0256228Y0398543D02*
X0265801Y0398543D01*
X0265774Y0398935D02*
X0256219Y0398935D01*
X0256211Y0399327D02*
X0265748Y0399327D01*
X0265722Y0399719D02*
X0256203Y0399719D01*
X0256195Y0400112D02*
X0265696Y0400112D01*
X0265701Y0400504D02*
X0256187Y0400504D01*
X0256179Y0400896D02*
X0265710Y0400896D01*
X0265720Y0401288D02*
X0256171Y0401288D01*
X0256172Y0401680D02*
X0265730Y0401680D01*
X0265739Y0402073D02*
X0256200Y0402073D01*
X0256228Y0402465D02*
X0265749Y0402465D01*
X0265759Y0402857D02*
X0256257Y0402857D01*
X0256285Y0403249D02*
X0265769Y0403249D01*
X0265813Y0403642D02*
X0256313Y0403642D01*
X0256342Y0404034D02*
X0265869Y0404034D01*
X0265926Y0404426D02*
X0256370Y0404426D01*
X0256398Y0404818D02*
X0265983Y0404818D01*
X0266040Y0405210D02*
X0256427Y0405210D01*
X0256472Y0405603D02*
X0266096Y0405603D01*
X0266153Y0405995D02*
X0256533Y0405995D01*
X0256594Y0406387D02*
X0266214Y0406387D01*
X0266312Y0406779D02*
X0256655Y0406779D01*
X0256716Y0407171D02*
X0266410Y0407171D01*
X0266508Y0407564D02*
X0256777Y0407564D01*
X0256838Y0407956D02*
X0266606Y0407956D01*
X0266704Y0408348D02*
X0256900Y0408348D01*
X0256986Y0408740D02*
X0266803Y0408740D01*
X0266901Y0409132D02*
X0257079Y0409132D01*
X0257173Y0409525D02*
X0266999Y0409525D01*
X0267097Y0409917D02*
X0257266Y0409917D01*
X0257359Y0410309D02*
X0267223Y0410309D01*
X0267380Y0410701D02*
X0257453Y0410701D01*
X0257559Y0411094D02*
X0267538Y0411094D01*
X0267696Y0411486D02*
X0257679Y0411486D01*
X0257799Y0411878D02*
X0267854Y0411878D01*
X0268012Y0412270D02*
X0257919Y0412270D01*
X0258040Y0412662D02*
X0268170Y0412662D01*
X0268327Y0413055D02*
X0258160Y0413055D01*
X0258280Y0413447D02*
X0268499Y0413447D01*
X0270122Y0430704D02*
X0320682Y0430704D01*
X0320228Y0431096D02*
X0270563Y0431096D01*
X0271026Y0431489D02*
X0319733Y0431489D01*
X0319190Y0431881D02*
X0271553Y0431881D01*
X0272079Y0432273D02*
X0318647Y0432273D01*
X0318104Y0432665D02*
X0272605Y0432665D01*
X0273144Y0433057D02*
X0317561Y0433057D01*
X0317018Y0433450D02*
X0273760Y0433450D01*
X0274377Y0433842D02*
X0316475Y0433842D01*
X0315811Y0434234D02*
X0274993Y0434234D01*
X0275609Y0434626D02*
X0315138Y0434626D01*
X0314466Y0435018D02*
X0276346Y0435018D01*
X0277092Y0435411D02*
X0313793Y0435411D01*
X0312990Y0435803D02*
X0277839Y0435803D01*
X0278585Y0436195D02*
X0312135Y0436195D01*
X0311280Y0436587D02*
X0279447Y0436587D01*
X0280336Y0436980D02*
X0310425Y0436980D01*
X0309364Y0437372D02*
X0281225Y0437372D01*
X0282345Y0437764D02*
X0308252Y0437764D01*
X0307141Y0438156D02*
X0283522Y0438156D01*
X0284882Y0438548D02*
X0305707Y0438548D01*
X0304189Y0438941D02*
X0286368Y0438941D01*
X0288342Y0439333D02*
X0302234Y0439333D01*
X0299351Y0439725D02*
X0291115Y0439725D01*
X0291086Y0513780D02*
X0291834Y0513780D01*
X0291834Y0523229D01*
X0289472Y0523623D01*
X0286322Y0524410D01*
X0282385Y0525985D01*
X0279629Y0527560D01*
X0278448Y0528347D01*
X0276873Y0529528D01*
X0274748Y0531339D01*
X0272503Y0533741D01*
X0270062Y0537087D01*
X0268763Y0539528D01*
X0267503Y0542481D01*
X0266401Y0546024D01*
X0265889Y0549213D01*
X0265692Y0552166D01*
X0265771Y0555355D01*
X0266204Y0558347D01*
X0267149Y0562126D01*
X0268448Y0565355D01*
X0269787Y0567796D01*
X0271204Y0570040D01*
X0273330Y0572638D01*
X0275535Y0574882D01*
X0277818Y0576693D01*
X0280968Y0578741D01*
X0283999Y0580158D01*
X0286992Y0581221D01*
X0289551Y0581890D01*
X0292503Y0582323D01*
X0295062Y0582441D01*
X0297464Y0582363D01*
X0301204Y0581851D01*
X0303960Y0581182D01*
X0306204Y0580434D01*
X0308606Y0579331D01*
X0310692Y0578189D01*
X0312818Y0576812D01*
X0315614Y0574489D01*
X0317385Y0572678D01*
X0319354Y0570315D01*
X0321322Y0567284D01*
X0322740Y0564331D01*
X0323842Y0561378D01*
X0324472Y0558701D01*
X0324944Y0555512D01*
X0325062Y0552402D01*
X0324866Y0548780D01*
X0324314Y0546142D01*
X0323370Y0542717D01*
X0322188Y0539961D01*
X0320614Y0537048D01*
X0318527Y0534095D01*
X0316480Y0531851D01*
X0313685Y0529331D01*
X0310929Y0527441D01*
X0308291Y0525985D01*
X0305653Y0524882D01*
X0302740Y0523977D01*
X0300456Y0523504D01*
X0299846Y0523406D01*
X0299846Y0513800D01*
X0301322Y0513977D01*
X0303999Y0514489D01*
X0307385Y0515434D01*
X0310377Y0516497D01*
X0313330Y0517875D01*
X0316598Y0519764D01*
X0318999Y0521457D01*
X0321322Y0523347D01*
X0323330Y0525237D01*
X0325456Y0527599D01*
X0327031Y0529567D01*
X0328330Y0531497D01*
X0329866Y0534056D01*
X0331204Y0536733D01*
X0332543Y0540197D01*
X0333330Y0542796D01*
X0333999Y0545749D01*
X0334433Y0548938D01*
X0334629Y0552087D01*
X0334551Y0554961D01*
X0334275Y0558032D01*
X0333724Y0561103D01*
X0332779Y0564725D01*
X0331559Y0567993D01*
X0330181Y0570867D01*
X0328645Y0573583D01*
X0326952Y0576063D01*
X0324511Y0579016D01*
X0322307Y0581300D01*
X0319984Y0583308D01*
X0316440Y0585867D01*
X0313606Y0587520D01*
X0310259Y0589056D01*
X0306913Y0590237D01*
X0303409Y0591142D01*
X0300496Y0591615D01*
X0297228Y0591930D01*
X0293921Y0591930D01*
X0290141Y0591654D01*
X0286834Y0591063D01*
X0283999Y0590315D01*
X0281401Y0589449D01*
X0278724Y0588268D01*
X0275653Y0586654D01*
X0273055Y0585001D01*
X0270889Y0583386D01*
X0267700Y0580552D01*
X0265496Y0578150D01*
X0263133Y0575119D01*
X0261125Y0571851D01*
X0259629Y0568898D01*
X0258409Y0565867D01*
X0257503Y0562914D01*
X0256913Y0560434D01*
X0256440Y0557402D01*
X0256165Y0553583D01*
X0256244Y0549764D01*
X0257110Y0544174D01*
X0258566Y0539252D01*
X0260456Y0534882D01*
X0263173Y0530355D01*
X0265535Y0527284D01*
X0268015Y0524725D01*
X0270850Y0522166D01*
X0273645Y0520119D01*
X0276519Y0518347D01*
X0281047Y0516221D01*
X0284354Y0515119D01*
X0287700Y0514292D01*
X0291086Y0513780D01*
X0290603Y0513853D02*
X0291834Y0513853D01*
X0291834Y0514245D02*
X0288008Y0514245D01*
X0286301Y0514638D02*
X0291834Y0514638D01*
X0291834Y0515030D02*
X0284713Y0515030D01*
X0283444Y0515422D02*
X0291834Y0515422D01*
X0291834Y0515814D02*
X0282267Y0515814D01*
X0281090Y0516206D02*
X0291834Y0516206D01*
X0291834Y0516599D02*
X0280243Y0516599D01*
X0279407Y0516991D02*
X0291834Y0516991D01*
X0291834Y0517383D02*
X0278572Y0517383D01*
X0277737Y0517775D02*
X0291834Y0517775D01*
X0291834Y0518167D02*
X0276901Y0518167D01*
X0276174Y0518560D02*
X0291834Y0518560D01*
X0291834Y0518952D02*
X0275538Y0518952D01*
X0274902Y0519344D02*
X0291834Y0519344D01*
X0291834Y0519736D02*
X0274265Y0519736D01*
X0273632Y0520129D02*
X0291834Y0520129D01*
X0291834Y0520521D02*
X0273096Y0520521D01*
X0272561Y0520913D02*
X0291834Y0520913D01*
X0291834Y0521305D02*
X0272025Y0521305D01*
X0271490Y0521697D02*
X0291834Y0521697D01*
X0291834Y0522090D02*
X0270954Y0522090D01*
X0270500Y0522482D02*
X0291834Y0522482D01*
X0291834Y0522874D02*
X0270065Y0522874D01*
X0269631Y0523266D02*
X0291610Y0523266D01*
X0289328Y0523658D02*
X0269197Y0523658D01*
X0268762Y0524051D02*
X0287760Y0524051D01*
X0286240Y0524443D02*
X0268328Y0524443D01*
X0267908Y0524835D02*
X0285260Y0524835D01*
X0284279Y0525227D02*
X0267528Y0525227D01*
X0267148Y0525619D02*
X0283298Y0525619D01*
X0282338Y0526012D02*
X0266768Y0526012D01*
X0266388Y0526404D02*
X0281652Y0526404D01*
X0280965Y0526796D02*
X0266008Y0526796D01*
X0265628Y0527188D02*
X0280279Y0527188D01*
X0279598Y0527581D02*
X0265307Y0527581D01*
X0265005Y0527973D02*
X0279010Y0527973D01*
X0278424Y0528365D02*
X0264703Y0528365D01*
X0264402Y0528757D02*
X0277901Y0528757D01*
X0277378Y0529149D02*
X0264100Y0529149D01*
X0263798Y0529542D02*
X0276858Y0529542D01*
X0276397Y0529934D02*
X0263497Y0529934D01*
X0263195Y0530326D02*
X0275937Y0530326D01*
X0275476Y0530718D02*
X0262955Y0530718D01*
X0262719Y0531110D02*
X0275016Y0531110D01*
X0274595Y0531503D02*
X0262484Y0531503D01*
X0262249Y0531895D02*
X0274228Y0531895D01*
X0273862Y0532287D02*
X0262013Y0532287D01*
X0261778Y0532679D02*
X0273495Y0532679D01*
X0273129Y0533072D02*
X0261543Y0533072D01*
X0261307Y0533464D02*
X0272762Y0533464D01*
X0272419Y0533856D02*
X0261072Y0533856D01*
X0260837Y0534248D02*
X0272133Y0534248D01*
X0271847Y0534640D02*
X0260601Y0534640D01*
X0260391Y0535033D02*
X0271561Y0535033D01*
X0271275Y0535425D02*
X0260222Y0535425D01*
X0260052Y0535817D02*
X0270989Y0535817D01*
X0270703Y0536209D02*
X0259882Y0536209D01*
X0259713Y0536601D02*
X0270417Y0536601D01*
X0270131Y0536994D02*
X0259543Y0536994D01*
X0259374Y0537386D02*
X0269903Y0537386D01*
X0269695Y0537778D02*
X0259204Y0537778D01*
X0259034Y0538170D02*
X0269486Y0538170D01*
X0269277Y0538562D02*
X0258865Y0538562D01*
X0258695Y0538955D02*
X0269068Y0538955D01*
X0268860Y0539347D02*
X0258538Y0539347D01*
X0258422Y0539739D02*
X0268673Y0539739D01*
X0268506Y0540131D02*
X0258306Y0540131D01*
X0258190Y0540524D02*
X0268339Y0540524D01*
X0268171Y0540916D02*
X0258074Y0540916D01*
X0257958Y0541308D02*
X0268004Y0541308D01*
X0267836Y0541700D02*
X0257842Y0541700D01*
X0257726Y0542092D02*
X0267669Y0542092D01*
X0267502Y0542485D02*
X0257610Y0542485D01*
X0257494Y0542877D02*
X0267380Y0542877D01*
X0267258Y0543269D02*
X0257377Y0543269D01*
X0257261Y0543661D02*
X0267136Y0543661D01*
X0267014Y0544053D02*
X0257145Y0544053D01*
X0257068Y0544446D02*
X0266892Y0544446D01*
X0266770Y0544838D02*
X0257007Y0544838D01*
X0256946Y0545230D02*
X0266648Y0545230D01*
X0266526Y0545622D02*
X0256885Y0545622D01*
X0256825Y0546015D02*
X0266404Y0546015D01*
X0266340Y0546407D02*
X0256764Y0546407D01*
X0256703Y0546799D02*
X0266277Y0546799D01*
X0266214Y0547191D02*
X0256642Y0547191D01*
X0256581Y0547583D02*
X0266151Y0547583D01*
X0266088Y0547976D02*
X0256521Y0547976D01*
X0256460Y0548368D02*
X0266025Y0548368D01*
X0265962Y0548760D02*
X0256399Y0548760D01*
X0256338Y0549152D02*
X0265899Y0549152D01*
X0265867Y0549544D02*
X0256278Y0549544D01*
X0256240Y0549937D02*
X0265841Y0549937D01*
X0265815Y0550329D02*
X0256232Y0550329D01*
X0256224Y0550721D02*
X0265789Y0550721D01*
X0265763Y0551113D02*
X0256216Y0551113D01*
X0256208Y0551505D02*
X0265736Y0551505D01*
X0265710Y0551898D02*
X0256200Y0551898D01*
X0256191Y0552290D02*
X0265695Y0552290D01*
X0265705Y0552682D02*
X0256183Y0552682D01*
X0256175Y0553074D02*
X0265715Y0553074D01*
X0265724Y0553467D02*
X0256167Y0553467D01*
X0256185Y0553859D02*
X0265734Y0553859D01*
X0265744Y0554251D02*
X0256213Y0554251D01*
X0256241Y0554643D02*
X0265754Y0554643D01*
X0265763Y0555035D02*
X0256270Y0555035D01*
X0256298Y0555428D02*
X0265782Y0555428D01*
X0265838Y0555820D02*
X0256326Y0555820D01*
X0256355Y0556212D02*
X0265895Y0556212D01*
X0265952Y0556604D02*
X0256383Y0556604D01*
X0256411Y0556996D02*
X0266009Y0556996D01*
X0266065Y0557389D02*
X0256439Y0557389D01*
X0256499Y0557781D02*
X0266122Y0557781D01*
X0266179Y0558173D02*
X0256561Y0558173D01*
X0256622Y0558565D02*
X0266259Y0558565D01*
X0266357Y0558958D02*
X0256683Y0558958D01*
X0256744Y0559350D02*
X0266455Y0559350D01*
X0266553Y0559742D02*
X0256805Y0559742D01*
X0256866Y0560134D02*
X0266651Y0560134D01*
X0266749Y0560526D02*
X0256935Y0560526D01*
X0257028Y0560919D02*
X0266847Y0560919D01*
X0266945Y0561311D02*
X0257122Y0561311D01*
X0257215Y0561703D02*
X0267043Y0561703D01*
X0267141Y0562095D02*
X0257308Y0562095D01*
X0257402Y0562487D02*
X0267294Y0562487D01*
X0267452Y0562880D02*
X0257495Y0562880D01*
X0257613Y0563272D02*
X0267610Y0563272D01*
X0267768Y0563664D02*
X0257733Y0563664D01*
X0257854Y0564056D02*
X0267926Y0564056D01*
X0268084Y0564448D02*
X0257974Y0564448D01*
X0258094Y0564841D02*
X0268241Y0564841D01*
X0268399Y0565233D02*
X0258215Y0565233D01*
X0258335Y0565625D02*
X0268596Y0565625D01*
X0268812Y0566017D02*
X0258470Y0566017D01*
X0258627Y0566410D02*
X0269027Y0566410D01*
X0269242Y0566802D02*
X0258785Y0566802D01*
X0258943Y0567194D02*
X0269457Y0567194D01*
X0269672Y0567586D02*
X0259101Y0567586D01*
X0259259Y0567978D02*
X0269902Y0567978D01*
X0270150Y0568371D02*
X0259417Y0568371D01*
X0259575Y0568763D02*
X0270398Y0568763D01*
X0270645Y0569155D02*
X0259760Y0569155D01*
X0259958Y0569547D02*
X0270893Y0569547D01*
X0271141Y0569939D02*
X0260157Y0569939D01*
X0260356Y0570332D02*
X0271443Y0570332D01*
X0271764Y0570724D02*
X0260554Y0570724D01*
X0260753Y0571116D02*
X0272085Y0571116D01*
X0272406Y0571508D02*
X0260952Y0571508D01*
X0261156Y0571901D02*
X0272727Y0571901D01*
X0273047Y0572293D02*
X0261397Y0572293D01*
X0261638Y0572685D02*
X0273376Y0572685D01*
X0273761Y0573077D02*
X0261879Y0573077D01*
X0262120Y0573469D02*
X0274147Y0573469D01*
X0274532Y0573862D02*
X0262361Y0573862D01*
X0262602Y0574254D02*
X0274917Y0574254D01*
X0275303Y0574646D02*
X0262843Y0574646D01*
X0263084Y0575038D02*
X0275731Y0575038D01*
X0276226Y0575430D02*
X0263376Y0575430D01*
X0263682Y0575823D02*
X0276720Y0575823D01*
X0277215Y0576215D02*
X0263988Y0576215D01*
X0264293Y0576607D02*
X0277709Y0576607D01*
X0278289Y0576999D02*
X0264599Y0576999D01*
X0264904Y0577391D02*
X0278892Y0577391D01*
X0279496Y0577784D02*
X0265210Y0577784D01*
X0265519Y0578176D02*
X0280099Y0578176D01*
X0280703Y0578568D02*
X0265879Y0578568D01*
X0266239Y0578960D02*
X0281438Y0578960D01*
X0282277Y0579353D02*
X0266599Y0579353D01*
X0266959Y0579745D02*
X0283116Y0579745D01*
X0283954Y0580137D02*
X0267320Y0580137D01*
X0267680Y0580529D02*
X0285044Y0580529D01*
X0286148Y0580921D02*
X0268116Y0580921D01*
X0268557Y0581314D02*
X0287346Y0581314D01*
X0288845Y0581706D02*
X0268999Y0581706D01*
X0269440Y0582098D02*
X0290967Y0582098D01*
X0289341Y0591511D02*
X0301134Y0591511D01*
X0303499Y0591119D02*
X0287144Y0591119D01*
X0285558Y0590727D02*
X0305017Y0590727D01*
X0306535Y0590334D02*
X0284072Y0590334D01*
X0282880Y0589942D02*
X0307747Y0589942D01*
X0308858Y0589550D02*
X0281703Y0589550D01*
X0280740Y0589158D02*
X0309970Y0589158D01*
X0310891Y0588766D02*
X0279851Y0588766D01*
X0278962Y0588373D02*
X0311746Y0588373D01*
X0312601Y0587981D02*
X0278178Y0587981D01*
X0277432Y0587589D02*
X0313456Y0587589D01*
X0314160Y0587197D02*
X0276686Y0587197D01*
X0275939Y0586805D02*
X0314833Y0586805D01*
X0315505Y0586412D02*
X0275273Y0586412D01*
X0274657Y0586020D02*
X0316177Y0586020D01*
X0316771Y0585628D02*
X0274041Y0585628D01*
X0273424Y0585236D02*
X0317314Y0585236D01*
X0317857Y0584844D02*
X0272844Y0584844D01*
X0272318Y0584451D02*
X0318400Y0584451D01*
X0318943Y0584059D02*
X0271792Y0584059D01*
X0271266Y0583667D02*
X0319486Y0583667D01*
X0320022Y0583275D02*
X0270764Y0583275D01*
X0270322Y0582882D02*
X0320476Y0582882D01*
X0320929Y0582490D02*
X0269881Y0582490D01*
X0293560Y0591903D02*
X0297501Y0591903D01*
X0299398Y0582098D02*
X0321383Y0582098D01*
X0321837Y0581706D02*
X0301802Y0581706D01*
X0303417Y0581314D02*
X0322291Y0581314D01*
X0322672Y0580921D02*
X0304741Y0580921D01*
X0305917Y0580529D02*
X0323051Y0580529D01*
X0323429Y0580137D02*
X0306850Y0580137D01*
X0307705Y0579745D02*
X0323808Y0579745D01*
X0324187Y0579353D02*
X0308559Y0579353D01*
X0309284Y0578960D02*
X0324558Y0578960D01*
X0324882Y0578568D02*
X0310000Y0578568D01*
X0310713Y0578176D02*
X0325206Y0578176D01*
X0325530Y0577784D02*
X0311318Y0577784D01*
X0311924Y0577391D02*
X0325854Y0577391D01*
X0326179Y0576999D02*
X0312529Y0576999D01*
X0313064Y0576607D02*
X0326503Y0576607D01*
X0326827Y0576215D02*
X0313536Y0576215D01*
X0314008Y0575823D02*
X0327117Y0575823D01*
X0327384Y0575430D02*
X0314480Y0575430D01*
X0314952Y0575038D02*
X0327652Y0575038D01*
X0327920Y0574646D02*
X0315424Y0574646D01*
X0315843Y0574254D02*
X0328187Y0574254D01*
X0328455Y0573862D02*
X0316227Y0573862D01*
X0316611Y0573469D02*
X0328709Y0573469D01*
X0328931Y0573077D02*
X0316995Y0573077D01*
X0317378Y0572685D02*
X0329153Y0572685D01*
X0329375Y0572293D02*
X0317706Y0572293D01*
X0318033Y0571901D02*
X0329596Y0571901D01*
X0329818Y0571508D02*
X0318360Y0571508D01*
X0318687Y0571116D02*
X0330040Y0571116D01*
X0330249Y0570724D02*
X0319013Y0570724D01*
X0319340Y0570332D02*
X0330437Y0570332D01*
X0330625Y0569939D02*
X0319598Y0569939D01*
X0319853Y0569547D02*
X0330813Y0569547D01*
X0331001Y0569155D02*
X0320107Y0569155D01*
X0320362Y0568763D02*
X0331189Y0568763D01*
X0331377Y0568371D02*
X0320617Y0568371D01*
X0320871Y0567978D02*
X0331564Y0567978D01*
X0331710Y0567586D02*
X0321126Y0567586D01*
X0321366Y0567194D02*
X0331857Y0567194D01*
X0332003Y0566802D02*
X0321554Y0566802D01*
X0321742Y0566410D02*
X0332150Y0566410D01*
X0332296Y0566017D02*
X0321930Y0566017D01*
X0322119Y0565625D02*
X0332443Y0565625D01*
X0332589Y0565233D02*
X0322307Y0565233D01*
X0322495Y0564841D02*
X0332736Y0564841D01*
X0332851Y0564448D02*
X0322683Y0564448D01*
X0322842Y0564056D02*
X0332953Y0564056D01*
X0333056Y0563664D02*
X0322989Y0563664D01*
X0323135Y0563272D02*
X0333158Y0563272D01*
X0333260Y0562880D02*
X0323282Y0562880D01*
X0323428Y0562487D02*
X0333363Y0562487D01*
X0333465Y0562095D02*
X0323574Y0562095D01*
X0323721Y0561703D02*
X0333567Y0561703D01*
X0333670Y0561311D02*
X0323858Y0561311D01*
X0323950Y0560919D02*
X0333757Y0560919D01*
X0333827Y0560526D02*
X0324042Y0560526D01*
X0324135Y0560134D02*
X0333898Y0560134D01*
X0333968Y0559742D02*
X0324227Y0559742D01*
X0324319Y0559350D02*
X0334039Y0559350D01*
X0334109Y0558958D02*
X0324412Y0558958D01*
X0324492Y0558565D02*
X0334179Y0558565D01*
X0334250Y0558173D02*
X0324550Y0558173D01*
X0324608Y0557781D02*
X0334298Y0557781D01*
X0334333Y0557389D02*
X0324666Y0557389D01*
X0324724Y0556996D02*
X0334368Y0556996D01*
X0334403Y0556604D02*
X0324783Y0556604D01*
X0324841Y0556212D02*
X0334438Y0556212D01*
X0334474Y0555820D02*
X0324899Y0555820D01*
X0324948Y0555428D02*
X0334509Y0555428D01*
X0334544Y0555035D02*
X0324962Y0555035D01*
X0324977Y0554643D02*
X0334559Y0554643D01*
X0334570Y0554251D02*
X0324992Y0554251D01*
X0325007Y0553859D02*
X0334581Y0553859D01*
X0334592Y0553467D02*
X0325022Y0553467D01*
X0325037Y0553074D02*
X0334602Y0553074D01*
X0334613Y0552682D02*
X0325052Y0552682D01*
X0325056Y0552290D02*
X0334624Y0552290D01*
X0334618Y0551898D02*
X0325035Y0551898D01*
X0325014Y0551505D02*
X0334593Y0551505D01*
X0334569Y0551113D02*
X0324992Y0551113D01*
X0324971Y0550721D02*
X0334544Y0550721D01*
X0334519Y0550329D02*
X0324950Y0550329D01*
X0324928Y0549937D02*
X0334495Y0549937D01*
X0334470Y0549544D02*
X0324907Y0549544D01*
X0324886Y0549152D02*
X0334446Y0549152D01*
X0334408Y0548760D02*
X0324861Y0548760D01*
X0324779Y0548368D02*
X0334355Y0548368D01*
X0334302Y0547976D02*
X0324698Y0547976D01*
X0324616Y0547583D02*
X0334249Y0547583D01*
X0334195Y0547191D02*
X0324534Y0547191D01*
X0324452Y0546799D02*
X0334142Y0546799D01*
X0334089Y0546407D02*
X0324370Y0546407D01*
X0324279Y0546015D02*
X0334036Y0546015D01*
X0333971Y0545622D02*
X0324171Y0545622D01*
X0324063Y0545230D02*
X0333882Y0545230D01*
X0333793Y0544838D02*
X0323955Y0544838D01*
X0323846Y0544446D02*
X0333704Y0544446D01*
X0333615Y0544053D02*
X0323738Y0544053D01*
X0323630Y0543661D02*
X0333526Y0543661D01*
X0333437Y0543269D02*
X0323522Y0543269D01*
X0323414Y0542877D02*
X0333349Y0542877D01*
X0333236Y0542485D02*
X0323270Y0542485D01*
X0323102Y0542092D02*
X0333117Y0542092D01*
X0332998Y0541700D02*
X0322934Y0541700D01*
X0322766Y0541308D02*
X0332879Y0541308D01*
X0332760Y0540916D02*
X0322598Y0540916D01*
X0322429Y0540524D02*
X0332642Y0540524D01*
X0332517Y0540131D02*
X0322261Y0540131D01*
X0322068Y0539739D02*
X0332366Y0539739D01*
X0332214Y0539347D02*
X0321856Y0539347D01*
X0321644Y0538955D02*
X0332063Y0538955D01*
X0331911Y0538562D02*
X0321432Y0538562D01*
X0321220Y0538170D02*
X0331760Y0538170D01*
X0331608Y0537778D02*
X0321008Y0537778D01*
X0320796Y0537386D02*
X0331457Y0537386D01*
X0331305Y0536994D02*
X0320575Y0536994D01*
X0320298Y0536601D02*
X0331139Y0536601D01*
X0330942Y0536209D02*
X0320021Y0536209D01*
X0319744Y0535817D02*
X0330746Y0535817D01*
X0330550Y0535425D02*
X0319467Y0535425D01*
X0319190Y0535033D02*
X0330354Y0535033D01*
X0330158Y0534640D02*
X0318912Y0534640D01*
X0318635Y0534248D02*
X0329962Y0534248D01*
X0329746Y0533856D02*
X0318309Y0533856D01*
X0317951Y0533464D02*
X0329510Y0533464D01*
X0329275Y0533072D02*
X0317593Y0533072D01*
X0317236Y0532679D02*
X0329040Y0532679D01*
X0328804Y0532287D02*
X0316878Y0532287D01*
X0316520Y0531895D02*
X0328569Y0531895D01*
X0328334Y0531503D02*
X0316093Y0531503D01*
X0315658Y0531110D02*
X0328070Y0531110D01*
X0327806Y0530718D02*
X0315223Y0530718D01*
X0314788Y0530326D02*
X0327542Y0530326D01*
X0327278Y0529934D02*
X0314353Y0529934D01*
X0313918Y0529542D02*
X0327010Y0529542D01*
X0326697Y0529149D02*
X0313419Y0529149D01*
X0312847Y0528757D02*
X0326383Y0528757D01*
X0326069Y0528365D02*
X0312275Y0528365D01*
X0311703Y0527973D02*
X0325755Y0527973D01*
X0325440Y0527581D02*
X0311131Y0527581D01*
X0310470Y0527188D02*
X0325087Y0527188D01*
X0324734Y0526796D02*
X0309760Y0526796D01*
X0309050Y0526404D02*
X0324381Y0526404D01*
X0324028Y0526012D02*
X0308340Y0526012D01*
X0307417Y0525619D02*
X0323675Y0525619D01*
X0323320Y0525227D02*
X0306478Y0525227D01*
X0305501Y0524835D02*
X0322903Y0524835D01*
X0322487Y0524443D02*
X0304239Y0524443D01*
X0302977Y0524051D02*
X0322070Y0524051D01*
X0321653Y0523658D02*
X0301200Y0523658D01*
X0299846Y0523266D02*
X0321223Y0523266D01*
X0320741Y0522874D02*
X0299846Y0522874D01*
X0299846Y0522482D02*
X0320259Y0522482D01*
X0319777Y0522090D02*
X0299846Y0522090D01*
X0299846Y0521697D02*
X0319295Y0521697D01*
X0318784Y0521305D02*
X0299846Y0521305D01*
X0299846Y0520913D02*
X0318227Y0520913D01*
X0317671Y0520521D02*
X0299846Y0520521D01*
X0299846Y0520129D02*
X0317115Y0520129D01*
X0316549Y0519736D02*
X0299846Y0519736D01*
X0299846Y0519344D02*
X0315871Y0519344D01*
X0315193Y0518952D02*
X0299846Y0518952D01*
X0299846Y0518560D02*
X0314515Y0518560D01*
X0313837Y0518167D02*
X0299846Y0518167D01*
X0299846Y0517775D02*
X0313117Y0517775D01*
X0312277Y0517383D02*
X0299846Y0517383D01*
X0299846Y0516991D02*
X0311437Y0516991D01*
X0310596Y0516599D02*
X0299846Y0516599D01*
X0299846Y0516206D02*
X0309561Y0516206D01*
X0308457Y0515814D02*
X0299846Y0515814D01*
X0299846Y0515422D02*
X0307344Y0515422D01*
X0305938Y0515030D02*
X0299846Y0515030D01*
X0299846Y0514638D02*
X0304533Y0514638D01*
X0302726Y0514245D02*
X0299846Y0514245D01*
X0299846Y0513853D02*
X0300291Y0513853D01*
X0359110Y0544174D02*
X0358244Y0549764D01*
X0358165Y0553583D01*
X0358440Y0557402D01*
X0358913Y0560434D01*
X0359503Y0562914D01*
X0360409Y0565867D01*
X0361629Y0568898D01*
X0363125Y0571851D01*
X0365133Y0575119D01*
X0367496Y0578150D01*
X0369700Y0580552D01*
X0372889Y0583386D01*
X0375055Y0585001D01*
X0377653Y0586654D01*
X0380724Y0588268D01*
X0383401Y0589449D01*
X0385999Y0590315D01*
X0388834Y0591063D01*
X0392141Y0591654D01*
X0395921Y0591930D01*
X0399228Y0591930D01*
X0402496Y0591615D01*
X0405409Y0591142D01*
X0408913Y0590237D01*
X0412259Y0589056D01*
X0415606Y0587520D01*
X0418440Y0585867D01*
X0421984Y0583308D01*
X0424307Y0581300D01*
X0426511Y0579016D01*
X0428952Y0576063D01*
X0430645Y0573583D01*
X0432181Y0570867D01*
X0433559Y0567993D01*
X0434779Y0564725D01*
X0435724Y0561103D01*
X0436275Y0558032D01*
X0436551Y0554961D01*
X0436629Y0552087D01*
X0436433Y0548938D01*
X0435999Y0545749D01*
X0435330Y0542796D01*
X0434543Y0540197D01*
X0433204Y0536733D01*
X0431866Y0534056D01*
X0430330Y0531497D01*
X0429031Y0529567D01*
X0427456Y0527599D01*
X0425330Y0525237D01*
X0423322Y0523347D01*
X0420999Y0521457D01*
X0418598Y0519764D01*
X0415330Y0517875D01*
X0412377Y0516497D01*
X0409385Y0515434D01*
X0405999Y0514489D01*
X0403322Y0513977D01*
X0401846Y0513800D01*
X0401846Y0523406D01*
X0402456Y0523504D01*
X0404740Y0523977D01*
X0407653Y0524882D01*
X0410291Y0525985D01*
X0412929Y0527441D01*
X0415685Y0529331D01*
X0418480Y0531851D01*
X0420527Y0534095D01*
X0422614Y0537048D01*
X0424188Y0539961D01*
X0425370Y0542717D01*
X0426314Y0546142D01*
X0426866Y0548780D01*
X0427062Y0552402D01*
X0426944Y0555512D01*
X0426472Y0558701D01*
X0425842Y0561378D01*
X0424740Y0564331D01*
X0423322Y0567284D01*
X0421354Y0570315D01*
X0419385Y0572678D01*
X0417614Y0574489D01*
X0414818Y0576812D01*
X0412692Y0578189D01*
X0410606Y0579331D01*
X0408204Y0580434D01*
X0405960Y0581182D01*
X0403204Y0581851D01*
X0399464Y0582363D01*
X0397062Y0582441D01*
X0394503Y0582323D01*
X0391551Y0581890D01*
X0388992Y0581221D01*
X0385999Y0580158D01*
X0382968Y0578741D01*
X0379818Y0576693D01*
X0377535Y0574882D01*
X0375330Y0572638D01*
X0373204Y0570040D01*
X0371787Y0567796D01*
X0370448Y0565355D01*
X0369149Y0562126D01*
X0368204Y0558347D01*
X0367771Y0555355D01*
X0367692Y0552166D01*
X0367889Y0549213D01*
X0368401Y0546024D01*
X0369503Y0542481D01*
X0370763Y0539528D01*
X0372062Y0537087D01*
X0374503Y0533741D01*
X0376748Y0531339D01*
X0378873Y0529528D01*
X0380448Y0528347D01*
X0381629Y0527560D01*
X0384385Y0525985D01*
X0388322Y0524410D01*
X0391472Y0523623D01*
X0393834Y0523229D01*
X0393834Y0513780D01*
X0393086Y0513780D01*
X0389700Y0514292D01*
X0386354Y0515119D01*
X0383047Y0516221D01*
X0378519Y0518347D01*
X0375645Y0520119D01*
X0372850Y0522166D01*
X0370015Y0524725D01*
X0367535Y0527284D01*
X0365173Y0530355D01*
X0362456Y0534882D01*
X0360566Y0539252D01*
X0359110Y0544174D01*
X0359145Y0544053D02*
X0369014Y0544053D01*
X0369136Y0543661D02*
X0359261Y0543661D01*
X0359377Y0543269D02*
X0369258Y0543269D01*
X0369380Y0542877D02*
X0359494Y0542877D01*
X0359610Y0542485D02*
X0369502Y0542485D01*
X0369669Y0542092D02*
X0359726Y0542092D01*
X0359842Y0541700D02*
X0369836Y0541700D01*
X0370004Y0541308D02*
X0359958Y0541308D01*
X0360074Y0540916D02*
X0370171Y0540916D01*
X0370339Y0540524D02*
X0360190Y0540524D01*
X0360306Y0540131D02*
X0370506Y0540131D01*
X0370673Y0539739D02*
X0360422Y0539739D01*
X0360538Y0539347D02*
X0370860Y0539347D01*
X0371068Y0538955D02*
X0360695Y0538955D01*
X0360865Y0538562D02*
X0371277Y0538562D01*
X0371486Y0538170D02*
X0361034Y0538170D01*
X0361204Y0537778D02*
X0371695Y0537778D01*
X0371903Y0537386D02*
X0361374Y0537386D01*
X0361543Y0536994D02*
X0372131Y0536994D01*
X0372417Y0536601D02*
X0361713Y0536601D01*
X0361882Y0536209D02*
X0372703Y0536209D01*
X0372989Y0535817D02*
X0362052Y0535817D01*
X0362222Y0535425D02*
X0373275Y0535425D01*
X0373561Y0535033D02*
X0362391Y0535033D01*
X0362601Y0534640D02*
X0373847Y0534640D01*
X0374133Y0534248D02*
X0362837Y0534248D01*
X0363072Y0533856D02*
X0374419Y0533856D01*
X0374762Y0533464D02*
X0363307Y0533464D01*
X0363543Y0533072D02*
X0375129Y0533072D01*
X0375495Y0532679D02*
X0363778Y0532679D01*
X0364013Y0532287D02*
X0375862Y0532287D01*
X0376228Y0531895D02*
X0364249Y0531895D01*
X0364484Y0531503D02*
X0376595Y0531503D01*
X0377016Y0531110D02*
X0364719Y0531110D01*
X0364955Y0530718D02*
X0377476Y0530718D01*
X0377937Y0530326D02*
X0365195Y0530326D01*
X0365497Y0529934D02*
X0378397Y0529934D01*
X0378858Y0529542D02*
X0365798Y0529542D01*
X0366100Y0529149D02*
X0379378Y0529149D01*
X0379901Y0528757D02*
X0366402Y0528757D01*
X0366703Y0528365D02*
X0380424Y0528365D01*
X0381010Y0527973D02*
X0367005Y0527973D01*
X0367307Y0527581D02*
X0381598Y0527581D01*
X0382279Y0527188D02*
X0367628Y0527188D01*
X0368008Y0526796D02*
X0382965Y0526796D01*
X0383652Y0526404D02*
X0368388Y0526404D01*
X0368768Y0526012D02*
X0384338Y0526012D01*
X0385298Y0525619D02*
X0369148Y0525619D01*
X0369528Y0525227D02*
X0386279Y0525227D01*
X0387260Y0524835D02*
X0369908Y0524835D01*
X0370328Y0524443D02*
X0388240Y0524443D01*
X0389760Y0524051D02*
X0370762Y0524051D01*
X0371197Y0523658D02*
X0391328Y0523658D01*
X0393610Y0523266D02*
X0371631Y0523266D01*
X0372065Y0522874D02*
X0393834Y0522874D01*
X0393834Y0522482D02*
X0372500Y0522482D01*
X0372954Y0522090D02*
X0393834Y0522090D01*
X0393834Y0521697D02*
X0373490Y0521697D01*
X0374025Y0521305D02*
X0393834Y0521305D01*
X0393834Y0520913D02*
X0374561Y0520913D01*
X0375096Y0520521D02*
X0393834Y0520521D01*
X0393834Y0520129D02*
X0375632Y0520129D01*
X0376265Y0519736D02*
X0393834Y0519736D01*
X0393834Y0519344D02*
X0376902Y0519344D01*
X0377538Y0518952D02*
X0393834Y0518952D01*
X0393834Y0518560D02*
X0378174Y0518560D01*
X0378901Y0518167D02*
X0393834Y0518167D01*
X0393834Y0517775D02*
X0379737Y0517775D01*
X0380572Y0517383D02*
X0393834Y0517383D01*
X0393834Y0516991D02*
X0381407Y0516991D01*
X0382243Y0516599D02*
X0393834Y0516599D01*
X0393834Y0516206D02*
X0383090Y0516206D01*
X0384267Y0515814D02*
X0393834Y0515814D01*
X0393834Y0515422D02*
X0385444Y0515422D01*
X0386713Y0515030D02*
X0393834Y0515030D01*
X0393834Y0514638D02*
X0388301Y0514638D01*
X0390008Y0514245D02*
X0393834Y0514245D01*
X0393834Y0513853D02*
X0392603Y0513853D01*
X0401846Y0513853D02*
X0402291Y0513853D01*
X0401846Y0514245D02*
X0404726Y0514245D01*
X0406533Y0514638D02*
X0401846Y0514638D01*
X0401846Y0515030D02*
X0407938Y0515030D01*
X0409344Y0515422D02*
X0401846Y0515422D01*
X0401846Y0515814D02*
X0410457Y0515814D01*
X0411561Y0516206D02*
X0401846Y0516206D01*
X0401846Y0516599D02*
X0412596Y0516599D01*
X0413437Y0516991D02*
X0401846Y0516991D01*
X0401846Y0517383D02*
X0414277Y0517383D01*
X0415117Y0517775D02*
X0401846Y0517775D01*
X0401846Y0518167D02*
X0415837Y0518167D01*
X0416515Y0518560D02*
X0401846Y0518560D01*
X0401846Y0518952D02*
X0417193Y0518952D01*
X0417871Y0519344D02*
X0401846Y0519344D01*
X0401846Y0519736D02*
X0418549Y0519736D01*
X0419115Y0520129D02*
X0401846Y0520129D01*
X0401846Y0520521D02*
X0419671Y0520521D01*
X0420227Y0520913D02*
X0401846Y0520913D01*
X0401846Y0521305D02*
X0420784Y0521305D01*
X0421295Y0521697D02*
X0401846Y0521697D01*
X0401846Y0522090D02*
X0421777Y0522090D01*
X0422259Y0522482D02*
X0401846Y0522482D01*
X0401846Y0522874D02*
X0422741Y0522874D01*
X0423223Y0523266D02*
X0401846Y0523266D01*
X0403200Y0523658D02*
X0423653Y0523658D01*
X0424070Y0524051D02*
X0404977Y0524051D01*
X0406239Y0524443D02*
X0424487Y0524443D01*
X0424903Y0524835D02*
X0407501Y0524835D01*
X0408478Y0525227D02*
X0425320Y0525227D01*
X0425675Y0525619D02*
X0409417Y0525619D01*
X0410340Y0526012D02*
X0426028Y0526012D01*
X0426381Y0526404D02*
X0411050Y0526404D01*
X0411760Y0526796D02*
X0426734Y0526796D01*
X0427087Y0527188D02*
X0412470Y0527188D01*
X0413131Y0527581D02*
X0427440Y0527581D01*
X0427755Y0527973D02*
X0413703Y0527973D01*
X0414275Y0528365D02*
X0428069Y0528365D01*
X0428383Y0528757D02*
X0414847Y0528757D01*
X0415419Y0529149D02*
X0428697Y0529149D01*
X0429010Y0529542D02*
X0415918Y0529542D01*
X0416353Y0529934D02*
X0429278Y0529934D01*
X0429542Y0530326D02*
X0416788Y0530326D01*
X0417223Y0530718D02*
X0429806Y0530718D01*
X0430070Y0531110D02*
X0417658Y0531110D01*
X0418093Y0531503D02*
X0430334Y0531503D01*
X0430569Y0531895D02*
X0418520Y0531895D01*
X0418878Y0532287D02*
X0430804Y0532287D01*
X0431040Y0532679D02*
X0419236Y0532679D01*
X0419593Y0533072D02*
X0431275Y0533072D01*
X0431510Y0533464D02*
X0419951Y0533464D01*
X0420309Y0533856D02*
X0431746Y0533856D01*
X0431962Y0534248D02*
X0420635Y0534248D01*
X0420912Y0534640D02*
X0432158Y0534640D01*
X0432354Y0535033D02*
X0421190Y0535033D01*
X0421467Y0535425D02*
X0432550Y0535425D01*
X0432746Y0535817D02*
X0421744Y0535817D01*
X0422021Y0536209D02*
X0432942Y0536209D01*
X0433139Y0536601D02*
X0422298Y0536601D01*
X0422575Y0536994D02*
X0433305Y0536994D01*
X0433457Y0537386D02*
X0422796Y0537386D01*
X0423008Y0537778D02*
X0433608Y0537778D01*
X0433760Y0538170D02*
X0423220Y0538170D01*
X0423432Y0538562D02*
X0433911Y0538562D01*
X0434063Y0538955D02*
X0423644Y0538955D01*
X0423856Y0539347D02*
X0434214Y0539347D01*
X0434366Y0539739D02*
X0424068Y0539739D01*
X0424261Y0540131D02*
X0434517Y0540131D01*
X0434642Y0540524D02*
X0424429Y0540524D01*
X0424598Y0540916D02*
X0434760Y0540916D01*
X0434879Y0541308D02*
X0424766Y0541308D01*
X0424934Y0541700D02*
X0434998Y0541700D01*
X0435117Y0542092D02*
X0425102Y0542092D01*
X0425270Y0542485D02*
X0435236Y0542485D01*
X0435349Y0542877D02*
X0425414Y0542877D01*
X0425522Y0543269D02*
X0435437Y0543269D01*
X0435526Y0543661D02*
X0425630Y0543661D01*
X0425738Y0544053D02*
X0435615Y0544053D01*
X0435704Y0544446D02*
X0425846Y0544446D01*
X0425955Y0544838D02*
X0435793Y0544838D01*
X0435882Y0545230D02*
X0426063Y0545230D01*
X0426171Y0545622D02*
X0435971Y0545622D01*
X0436036Y0546015D02*
X0426279Y0546015D01*
X0426370Y0546407D02*
X0436089Y0546407D01*
X0436142Y0546799D02*
X0426452Y0546799D01*
X0426534Y0547191D02*
X0436195Y0547191D01*
X0436249Y0547583D02*
X0426616Y0547583D01*
X0426698Y0547976D02*
X0436302Y0547976D01*
X0436355Y0548368D02*
X0426779Y0548368D01*
X0426861Y0548760D02*
X0436408Y0548760D01*
X0436446Y0549152D02*
X0426886Y0549152D01*
X0426907Y0549544D02*
X0436470Y0549544D01*
X0436495Y0549937D02*
X0426928Y0549937D01*
X0426950Y0550329D02*
X0436519Y0550329D01*
X0436544Y0550721D02*
X0426971Y0550721D01*
X0426992Y0551113D02*
X0436569Y0551113D01*
X0436593Y0551505D02*
X0427014Y0551505D01*
X0427035Y0551898D02*
X0436618Y0551898D01*
X0436624Y0552290D02*
X0427056Y0552290D01*
X0427052Y0552682D02*
X0436613Y0552682D01*
X0436602Y0553074D02*
X0427037Y0553074D01*
X0427022Y0553467D02*
X0436592Y0553467D01*
X0436581Y0553859D02*
X0427007Y0553859D01*
X0426992Y0554251D02*
X0436570Y0554251D01*
X0436559Y0554643D02*
X0426977Y0554643D01*
X0426962Y0555035D02*
X0436544Y0555035D01*
X0436509Y0555428D02*
X0426948Y0555428D01*
X0426899Y0555820D02*
X0436474Y0555820D01*
X0436438Y0556212D02*
X0426841Y0556212D01*
X0426783Y0556604D02*
X0436403Y0556604D01*
X0436368Y0556996D02*
X0426724Y0556996D01*
X0426666Y0557389D02*
X0436333Y0557389D01*
X0436298Y0557781D02*
X0426608Y0557781D01*
X0426550Y0558173D02*
X0436250Y0558173D01*
X0436179Y0558565D02*
X0426492Y0558565D01*
X0426412Y0558958D02*
X0436109Y0558958D01*
X0436039Y0559350D02*
X0426319Y0559350D01*
X0426227Y0559742D02*
X0435968Y0559742D01*
X0435898Y0560134D02*
X0426135Y0560134D01*
X0426042Y0560526D02*
X0435827Y0560526D01*
X0435757Y0560919D02*
X0425950Y0560919D01*
X0425858Y0561311D02*
X0435670Y0561311D01*
X0435567Y0561703D02*
X0425721Y0561703D01*
X0425574Y0562095D02*
X0435465Y0562095D01*
X0435363Y0562487D02*
X0425428Y0562487D01*
X0425282Y0562880D02*
X0435260Y0562880D01*
X0435158Y0563272D02*
X0425135Y0563272D01*
X0424989Y0563664D02*
X0435056Y0563664D01*
X0434953Y0564056D02*
X0424842Y0564056D01*
X0424683Y0564448D02*
X0434851Y0564448D01*
X0434736Y0564841D02*
X0424495Y0564841D01*
X0424307Y0565233D02*
X0434589Y0565233D01*
X0434443Y0565625D02*
X0424119Y0565625D01*
X0423930Y0566017D02*
X0434296Y0566017D01*
X0434150Y0566410D02*
X0423742Y0566410D01*
X0423554Y0566802D02*
X0434003Y0566802D01*
X0433857Y0567194D02*
X0423366Y0567194D01*
X0423126Y0567586D02*
X0433710Y0567586D01*
X0433564Y0567978D02*
X0422871Y0567978D01*
X0422617Y0568371D02*
X0433377Y0568371D01*
X0433189Y0568763D02*
X0422362Y0568763D01*
X0422107Y0569155D02*
X0433001Y0569155D01*
X0432813Y0569547D02*
X0421853Y0569547D01*
X0421598Y0569939D02*
X0432625Y0569939D01*
X0432437Y0570332D02*
X0421340Y0570332D01*
X0421013Y0570724D02*
X0432249Y0570724D01*
X0432040Y0571116D02*
X0420687Y0571116D01*
X0420360Y0571508D02*
X0431818Y0571508D01*
X0431596Y0571901D02*
X0420033Y0571901D01*
X0419706Y0572293D02*
X0431375Y0572293D01*
X0431153Y0572685D02*
X0419378Y0572685D01*
X0418995Y0573077D02*
X0430931Y0573077D01*
X0430709Y0573469D02*
X0418611Y0573469D01*
X0418227Y0573862D02*
X0430455Y0573862D01*
X0430187Y0574254D02*
X0417843Y0574254D01*
X0417424Y0574646D02*
X0429920Y0574646D01*
X0429652Y0575038D02*
X0416952Y0575038D01*
X0416480Y0575430D02*
X0429384Y0575430D01*
X0429117Y0575823D02*
X0416008Y0575823D01*
X0415536Y0576215D02*
X0428827Y0576215D01*
X0428503Y0576607D02*
X0415064Y0576607D01*
X0414529Y0576999D02*
X0428179Y0576999D01*
X0427854Y0577391D02*
X0413924Y0577391D01*
X0413318Y0577784D02*
X0427530Y0577784D01*
X0427206Y0578176D02*
X0412713Y0578176D01*
X0412000Y0578568D02*
X0426882Y0578568D01*
X0426558Y0578960D02*
X0411284Y0578960D01*
X0410559Y0579353D02*
X0426187Y0579353D01*
X0425808Y0579745D02*
X0409705Y0579745D01*
X0408850Y0580137D02*
X0425429Y0580137D01*
X0425051Y0580529D02*
X0407917Y0580529D01*
X0406741Y0580921D02*
X0424672Y0580921D01*
X0424291Y0581314D02*
X0405417Y0581314D01*
X0403802Y0581706D02*
X0423837Y0581706D01*
X0423383Y0582098D02*
X0401398Y0582098D01*
X0392967Y0582098D02*
X0371440Y0582098D01*
X0371881Y0582490D02*
X0422929Y0582490D01*
X0422476Y0582882D02*
X0372322Y0582882D01*
X0372764Y0583275D02*
X0422022Y0583275D01*
X0421486Y0583667D02*
X0373266Y0583667D01*
X0373792Y0584059D02*
X0420943Y0584059D01*
X0420400Y0584451D02*
X0374318Y0584451D01*
X0374844Y0584844D02*
X0419857Y0584844D01*
X0419314Y0585236D02*
X0375424Y0585236D01*
X0376041Y0585628D02*
X0418771Y0585628D01*
X0418177Y0586020D02*
X0376657Y0586020D01*
X0377273Y0586412D02*
X0417505Y0586412D01*
X0416833Y0586805D02*
X0377939Y0586805D01*
X0378686Y0587197D02*
X0416160Y0587197D01*
X0415456Y0587589D02*
X0379432Y0587589D01*
X0380178Y0587981D02*
X0414601Y0587981D01*
X0413746Y0588373D02*
X0380962Y0588373D01*
X0381851Y0588766D02*
X0412891Y0588766D01*
X0411970Y0589158D02*
X0382740Y0589158D01*
X0383703Y0589550D02*
X0410858Y0589550D01*
X0409747Y0589942D02*
X0384880Y0589942D01*
X0386072Y0590334D02*
X0408535Y0590334D01*
X0407017Y0590727D02*
X0387558Y0590727D01*
X0389144Y0591119D02*
X0405499Y0591119D01*
X0403134Y0591511D02*
X0391341Y0591511D01*
X0395560Y0591903D02*
X0399501Y0591903D01*
X0390845Y0581706D02*
X0370999Y0581706D01*
X0370557Y0581314D02*
X0389346Y0581314D01*
X0388148Y0580921D02*
X0370116Y0580921D01*
X0369680Y0580529D02*
X0387044Y0580529D01*
X0385954Y0580137D02*
X0369320Y0580137D01*
X0368959Y0579745D02*
X0385116Y0579745D01*
X0384277Y0579353D02*
X0368599Y0579353D01*
X0368239Y0578960D02*
X0383438Y0578960D01*
X0382703Y0578568D02*
X0367879Y0578568D01*
X0367519Y0578176D02*
X0382099Y0578176D01*
X0381496Y0577784D02*
X0367210Y0577784D01*
X0366904Y0577391D02*
X0380892Y0577391D01*
X0380289Y0576999D02*
X0366599Y0576999D01*
X0366293Y0576607D02*
X0379709Y0576607D01*
X0379215Y0576215D02*
X0365988Y0576215D01*
X0365682Y0575823D02*
X0378720Y0575823D01*
X0378226Y0575430D02*
X0365376Y0575430D01*
X0365084Y0575038D02*
X0377731Y0575038D01*
X0377303Y0574646D02*
X0364843Y0574646D01*
X0364602Y0574254D02*
X0376917Y0574254D01*
X0376532Y0573862D02*
X0364361Y0573862D01*
X0364120Y0573469D02*
X0376147Y0573469D01*
X0375761Y0573077D02*
X0363879Y0573077D01*
X0363638Y0572685D02*
X0375376Y0572685D01*
X0375047Y0572293D02*
X0363397Y0572293D01*
X0363156Y0571901D02*
X0374727Y0571901D01*
X0374406Y0571508D02*
X0362952Y0571508D01*
X0362753Y0571116D02*
X0374085Y0571116D01*
X0373764Y0570724D02*
X0362554Y0570724D01*
X0362356Y0570332D02*
X0373443Y0570332D01*
X0373141Y0569939D02*
X0362157Y0569939D01*
X0361958Y0569547D02*
X0372893Y0569547D01*
X0372645Y0569155D02*
X0361760Y0569155D01*
X0361575Y0568763D02*
X0372398Y0568763D01*
X0372150Y0568371D02*
X0361417Y0568371D01*
X0361259Y0567978D02*
X0371902Y0567978D01*
X0371672Y0567586D02*
X0361101Y0567586D01*
X0360943Y0567194D02*
X0371457Y0567194D01*
X0371242Y0566802D02*
X0360785Y0566802D01*
X0360627Y0566410D02*
X0371027Y0566410D01*
X0370812Y0566017D02*
X0360470Y0566017D01*
X0360335Y0565625D02*
X0370596Y0565625D01*
X0370399Y0565233D02*
X0360215Y0565233D01*
X0360094Y0564841D02*
X0370241Y0564841D01*
X0370084Y0564448D02*
X0359974Y0564448D01*
X0359854Y0564056D02*
X0369926Y0564056D01*
X0369768Y0563664D02*
X0359733Y0563664D01*
X0359613Y0563272D02*
X0369610Y0563272D01*
X0369452Y0562880D02*
X0359495Y0562880D01*
X0359402Y0562487D02*
X0369294Y0562487D01*
X0369141Y0562095D02*
X0359308Y0562095D01*
X0359215Y0561703D02*
X0369043Y0561703D01*
X0368945Y0561311D02*
X0359122Y0561311D01*
X0359028Y0560919D02*
X0368847Y0560919D01*
X0368749Y0560526D02*
X0358935Y0560526D01*
X0358866Y0560134D02*
X0368651Y0560134D01*
X0368553Y0559742D02*
X0358805Y0559742D01*
X0358744Y0559350D02*
X0368455Y0559350D01*
X0368357Y0558958D02*
X0358683Y0558958D01*
X0358622Y0558565D02*
X0368259Y0558565D01*
X0368179Y0558173D02*
X0358561Y0558173D01*
X0358499Y0557781D02*
X0368122Y0557781D01*
X0368065Y0557389D02*
X0358439Y0557389D01*
X0358411Y0556996D02*
X0368009Y0556996D01*
X0367952Y0556604D02*
X0358383Y0556604D01*
X0358355Y0556212D02*
X0367895Y0556212D01*
X0367838Y0555820D02*
X0358326Y0555820D01*
X0358298Y0555428D02*
X0367782Y0555428D01*
X0367763Y0555035D02*
X0358270Y0555035D01*
X0358241Y0554643D02*
X0367754Y0554643D01*
X0367744Y0554251D02*
X0358213Y0554251D01*
X0358185Y0553859D02*
X0367734Y0553859D01*
X0367724Y0553467D02*
X0358167Y0553467D01*
X0358175Y0553074D02*
X0367715Y0553074D01*
X0367705Y0552682D02*
X0358183Y0552682D01*
X0358191Y0552290D02*
X0367695Y0552290D01*
X0367710Y0551898D02*
X0358200Y0551898D01*
X0358208Y0551505D02*
X0367736Y0551505D01*
X0367763Y0551113D02*
X0358216Y0551113D01*
X0358224Y0550721D02*
X0367789Y0550721D01*
X0367815Y0550329D02*
X0358232Y0550329D01*
X0358240Y0549937D02*
X0367841Y0549937D01*
X0367867Y0549544D02*
X0358278Y0549544D01*
X0358338Y0549152D02*
X0367899Y0549152D01*
X0367962Y0548760D02*
X0358399Y0548760D01*
X0358460Y0548368D02*
X0368025Y0548368D01*
X0368088Y0547976D02*
X0358521Y0547976D01*
X0358581Y0547583D02*
X0368151Y0547583D01*
X0368214Y0547191D02*
X0358642Y0547191D01*
X0358703Y0546799D02*
X0368277Y0546799D01*
X0368340Y0546407D02*
X0358764Y0546407D01*
X0358825Y0546015D02*
X0368404Y0546015D01*
X0368526Y0545622D02*
X0358885Y0545622D01*
X0358946Y0545230D02*
X0368648Y0545230D01*
X0368770Y0544838D02*
X0359007Y0544838D01*
X0359068Y0544446D02*
X0368892Y0544446D01*
X0392141Y0439654D02*
X0395921Y0439930D01*
X0399228Y0439930D01*
X0402496Y0439615D01*
X0405409Y0439142D01*
X0408913Y0438237D01*
X0412259Y0437056D01*
X0415606Y0435520D01*
X0418440Y0433867D01*
X0421984Y0431308D01*
X0424307Y0429300D01*
X0426511Y0427016D01*
X0428952Y0424063D01*
X0430645Y0421583D01*
X0432181Y0418867D01*
X0433559Y0415993D01*
X0434779Y0412725D01*
X0435724Y0409103D01*
X0436275Y0406032D01*
X0436551Y0402961D01*
X0436629Y0400087D01*
X0436433Y0396938D01*
X0435999Y0393749D01*
X0435330Y0390796D01*
X0434543Y0388197D01*
X0433204Y0384733D01*
X0431866Y0382056D01*
X0430330Y0379497D01*
X0429031Y0377567D01*
X0427456Y0375599D01*
X0425330Y0373237D01*
X0423322Y0371347D01*
X0420999Y0369457D01*
X0418598Y0367764D01*
X0415330Y0365875D01*
X0412377Y0364497D01*
X0409385Y0363434D01*
X0405999Y0362489D01*
X0403322Y0361977D01*
X0401846Y0361800D01*
X0401846Y0371406D01*
X0402456Y0371504D01*
X0404740Y0371977D01*
X0407653Y0372882D01*
X0410291Y0373985D01*
X0412929Y0375441D01*
X0415685Y0377331D01*
X0418480Y0379851D01*
X0420527Y0382095D01*
X0422614Y0385048D01*
X0424188Y0387961D01*
X0425370Y0390717D01*
X0426314Y0394142D01*
X0426866Y0396780D01*
X0427062Y0400402D01*
X0426944Y0403512D01*
X0426472Y0406701D01*
X0425842Y0409378D01*
X0424740Y0412331D01*
X0423322Y0415284D01*
X0421354Y0418315D01*
X0419385Y0420678D01*
X0417614Y0422489D01*
X0414818Y0424812D01*
X0412692Y0426189D01*
X0410606Y0427331D01*
X0408204Y0428434D01*
X0405960Y0429182D01*
X0403204Y0429851D01*
X0399464Y0430363D01*
X0397062Y0430441D01*
X0394503Y0430323D01*
X0391551Y0429890D01*
X0388992Y0429221D01*
X0385999Y0428158D01*
X0382968Y0426741D01*
X0379818Y0424693D01*
X0377535Y0422882D01*
X0375330Y0420638D01*
X0373204Y0418040D01*
X0371787Y0415796D01*
X0370448Y0413355D01*
X0369149Y0410126D01*
X0368204Y0406347D01*
X0367771Y0403355D01*
X0367692Y0400166D01*
X0367889Y0397213D01*
X0368401Y0394024D01*
X0369503Y0390481D01*
X0370763Y0387528D01*
X0372062Y0385087D01*
X0374503Y0381741D01*
X0376748Y0379339D01*
X0378873Y0377528D01*
X0380448Y0376347D01*
X0381629Y0375560D01*
X0384385Y0373985D01*
X0388322Y0372410D01*
X0391472Y0371623D01*
X0393834Y0371229D01*
X0393834Y0361780D01*
X0393086Y0361780D01*
X0389700Y0362292D01*
X0386354Y0363119D01*
X0383047Y0364221D01*
X0378519Y0366347D01*
X0375645Y0368119D01*
X0372850Y0370166D01*
X0370015Y0372725D01*
X0367535Y0375284D01*
X0365173Y0378355D01*
X0362456Y0382882D01*
X0360566Y0387252D01*
X0359110Y0392174D01*
X0358244Y0397764D01*
X0358165Y0401583D01*
X0358440Y0405402D01*
X0358913Y0408434D01*
X0359503Y0410914D01*
X0360409Y0413867D01*
X0361629Y0416898D01*
X0363125Y0419851D01*
X0365133Y0423119D01*
X0367496Y0426150D01*
X0369700Y0428552D01*
X0372889Y0431386D01*
X0375055Y0433001D01*
X0377653Y0434654D01*
X0380724Y0436268D01*
X0383401Y0437449D01*
X0385999Y0438315D01*
X0388834Y0439063D01*
X0392141Y0439654D01*
X0393115Y0439725D02*
X0401351Y0439725D01*
X0404234Y0439333D02*
X0390342Y0439333D01*
X0388368Y0438941D02*
X0406189Y0438941D01*
X0407707Y0438548D02*
X0386882Y0438548D01*
X0385522Y0438156D02*
X0409141Y0438156D01*
X0410252Y0437764D02*
X0384345Y0437764D01*
X0383225Y0437372D02*
X0411364Y0437372D01*
X0412425Y0436980D02*
X0382336Y0436980D01*
X0381447Y0436587D02*
X0413280Y0436587D01*
X0414135Y0436195D02*
X0380585Y0436195D01*
X0379839Y0435803D02*
X0414990Y0435803D01*
X0415793Y0435411D02*
X0379092Y0435411D01*
X0378346Y0435018D02*
X0416466Y0435018D01*
X0417138Y0434626D02*
X0377609Y0434626D01*
X0376993Y0434234D02*
X0417811Y0434234D01*
X0418475Y0433842D02*
X0376377Y0433842D01*
X0375760Y0433450D02*
X0419018Y0433450D01*
X0419561Y0433057D02*
X0375144Y0433057D01*
X0374605Y0432665D02*
X0420104Y0432665D01*
X0420647Y0432273D02*
X0374079Y0432273D01*
X0373553Y0431881D02*
X0421190Y0431881D01*
X0421733Y0431489D02*
X0373026Y0431489D01*
X0372563Y0431096D02*
X0422228Y0431096D01*
X0422682Y0430704D02*
X0372122Y0430704D01*
X0371681Y0430312D02*
X0394426Y0430312D01*
X0391751Y0429920D02*
X0371239Y0429920D01*
X0370798Y0429528D02*
X0390164Y0429528D01*
X0388750Y0429135D02*
X0370357Y0429135D01*
X0369916Y0428743D02*
X0387646Y0428743D01*
X0386542Y0428351D02*
X0369516Y0428351D01*
X0369156Y0427959D02*
X0385573Y0427959D01*
X0384734Y0427566D02*
X0368796Y0427566D01*
X0368436Y0427174D02*
X0383895Y0427174D01*
X0383056Y0426782D02*
X0368076Y0426782D01*
X0367716Y0426390D02*
X0382428Y0426390D01*
X0381825Y0425998D02*
X0367377Y0425998D01*
X0367071Y0425605D02*
X0381221Y0425605D01*
X0380618Y0425213D02*
X0366765Y0425213D01*
X0366460Y0424821D02*
X0380015Y0424821D01*
X0379485Y0424429D02*
X0366154Y0424429D01*
X0365849Y0424037D02*
X0378990Y0424037D01*
X0378496Y0423644D02*
X0365543Y0423644D01*
X0365237Y0423252D02*
X0378001Y0423252D01*
X0377513Y0422860D02*
X0364974Y0422860D01*
X0364733Y0422468D02*
X0377127Y0422468D01*
X0376742Y0422075D02*
X0364492Y0422075D01*
X0364251Y0421683D02*
X0376357Y0421683D01*
X0375971Y0421291D02*
X0364010Y0421291D01*
X0363769Y0420899D02*
X0375586Y0420899D01*
X0375222Y0420507D02*
X0363528Y0420507D01*
X0363287Y0420114D02*
X0374902Y0420114D01*
X0374581Y0419722D02*
X0363060Y0419722D01*
X0362862Y0419330D02*
X0374260Y0419330D01*
X0373939Y0418938D02*
X0362663Y0418938D01*
X0362464Y0418546D02*
X0373618Y0418546D01*
X0373297Y0418153D02*
X0362265Y0418153D01*
X0362067Y0417761D02*
X0373028Y0417761D01*
X0372780Y0417369D02*
X0361868Y0417369D01*
X0361669Y0416977D02*
X0372533Y0416977D01*
X0372285Y0416585D02*
X0361503Y0416585D01*
X0361345Y0416192D02*
X0372037Y0416192D01*
X0371790Y0415800D02*
X0361187Y0415800D01*
X0361029Y0415408D02*
X0371574Y0415408D01*
X0371359Y0415016D02*
X0360872Y0415016D01*
X0360714Y0414623D02*
X0371144Y0414623D01*
X0370929Y0414231D02*
X0360556Y0414231D01*
X0360400Y0413839D02*
X0370714Y0413839D01*
X0370499Y0413447D02*
X0360280Y0413447D01*
X0360160Y0413055D02*
X0370327Y0413055D01*
X0370170Y0412662D02*
X0360040Y0412662D01*
X0359919Y0412270D02*
X0370012Y0412270D01*
X0369854Y0411878D02*
X0359799Y0411878D01*
X0359679Y0411486D02*
X0369696Y0411486D01*
X0369538Y0411094D02*
X0359559Y0411094D01*
X0359453Y0410701D02*
X0369380Y0410701D01*
X0369223Y0410309D02*
X0359359Y0410309D01*
X0359266Y0409917D02*
X0369097Y0409917D01*
X0368999Y0409525D02*
X0359173Y0409525D01*
X0359079Y0409132D02*
X0368901Y0409132D01*
X0368803Y0408740D02*
X0358986Y0408740D01*
X0358900Y0408348D02*
X0368704Y0408348D01*
X0368606Y0407956D02*
X0358838Y0407956D01*
X0358777Y0407564D02*
X0368508Y0407564D01*
X0368410Y0407171D02*
X0358716Y0407171D01*
X0358655Y0406779D02*
X0368312Y0406779D01*
X0368214Y0406387D02*
X0358594Y0406387D01*
X0358533Y0405995D02*
X0368153Y0405995D01*
X0368096Y0405603D02*
X0358472Y0405603D01*
X0358427Y0405210D02*
X0368040Y0405210D01*
X0367983Y0404818D02*
X0358398Y0404818D01*
X0358370Y0404426D02*
X0367926Y0404426D01*
X0367869Y0404034D02*
X0358342Y0404034D01*
X0358313Y0403642D02*
X0367813Y0403642D01*
X0367769Y0403249D02*
X0358285Y0403249D01*
X0358257Y0402857D02*
X0367759Y0402857D01*
X0367749Y0402465D02*
X0358228Y0402465D01*
X0358200Y0402073D02*
X0367739Y0402073D01*
X0367730Y0401680D02*
X0358172Y0401680D01*
X0358171Y0401288D02*
X0367720Y0401288D01*
X0367710Y0400896D02*
X0358179Y0400896D01*
X0358187Y0400504D02*
X0367701Y0400504D01*
X0367696Y0400112D02*
X0358195Y0400112D01*
X0358203Y0399719D02*
X0367722Y0399719D01*
X0367748Y0399327D02*
X0358211Y0399327D01*
X0358219Y0398935D02*
X0367774Y0398935D01*
X0367801Y0398543D02*
X0358228Y0398543D01*
X0358236Y0398151D02*
X0367827Y0398151D01*
X0367853Y0397758D02*
X0358244Y0397758D01*
X0358305Y0397366D02*
X0367879Y0397366D01*
X0367928Y0396974D02*
X0358366Y0396974D01*
X0358427Y0396582D02*
X0367991Y0396582D01*
X0368054Y0396189D02*
X0358488Y0396189D01*
X0358548Y0395797D02*
X0368116Y0395797D01*
X0368179Y0395405D02*
X0358609Y0395405D01*
X0358670Y0395013D02*
X0368242Y0395013D01*
X0368305Y0394621D02*
X0358731Y0394621D01*
X0358791Y0394228D02*
X0368368Y0394228D01*
X0368460Y0393836D02*
X0358852Y0393836D01*
X0358913Y0393444D02*
X0368582Y0393444D01*
X0368704Y0393052D02*
X0358974Y0393052D01*
X0359034Y0392660D02*
X0368826Y0392660D01*
X0368948Y0392267D02*
X0359095Y0392267D01*
X0359198Y0391875D02*
X0369070Y0391875D01*
X0369192Y0391483D02*
X0359314Y0391483D01*
X0359430Y0391091D02*
X0369314Y0391091D01*
X0369436Y0390699D02*
X0359546Y0390699D01*
X0359662Y0390306D02*
X0369578Y0390306D01*
X0369745Y0389914D02*
X0359779Y0389914D01*
X0359895Y0389522D02*
X0369913Y0389522D01*
X0370080Y0389130D02*
X0360011Y0389130D01*
X0360127Y0388737D02*
X0370247Y0388737D01*
X0370415Y0388345D02*
X0360243Y0388345D01*
X0360359Y0387953D02*
X0370582Y0387953D01*
X0370749Y0387561D02*
X0360475Y0387561D01*
X0360603Y0387169D02*
X0370955Y0387169D01*
X0371163Y0386776D02*
X0360772Y0386776D01*
X0360942Y0386384D02*
X0371372Y0386384D01*
X0371581Y0385992D02*
X0361111Y0385992D01*
X0361281Y0385600D02*
X0371790Y0385600D01*
X0371998Y0385208D02*
X0361451Y0385208D01*
X0361620Y0384815D02*
X0372261Y0384815D01*
X0372547Y0384423D02*
X0361790Y0384423D01*
X0361960Y0384031D02*
X0372833Y0384031D01*
X0373119Y0383639D02*
X0362129Y0383639D01*
X0362299Y0383246D02*
X0373405Y0383246D01*
X0373691Y0382854D02*
X0362473Y0382854D01*
X0362708Y0382462D02*
X0373977Y0382462D01*
X0374263Y0382070D02*
X0362944Y0382070D01*
X0363179Y0381678D02*
X0374562Y0381678D01*
X0374929Y0381285D02*
X0363414Y0381285D01*
X0363650Y0380893D02*
X0375295Y0380893D01*
X0375662Y0380501D02*
X0363885Y0380501D01*
X0364120Y0380109D02*
X0376028Y0380109D01*
X0376395Y0379717D02*
X0364356Y0379717D01*
X0364591Y0379324D02*
X0376765Y0379324D01*
X0377225Y0378932D02*
X0364826Y0378932D01*
X0365062Y0378540D02*
X0377686Y0378540D01*
X0378146Y0378148D02*
X0365332Y0378148D01*
X0365634Y0377756D02*
X0378606Y0377756D01*
X0379093Y0377363D02*
X0365935Y0377363D01*
X0366237Y0376971D02*
X0379616Y0376971D01*
X0380139Y0376579D02*
X0366539Y0376579D01*
X0366841Y0376187D02*
X0380689Y0376187D01*
X0381277Y0375794D02*
X0367142Y0375794D01*
X0367444Y0375402D02*
X0381905Y0375402D01*
X0382591Y0375010D02*
X0367800Y0375010D01*
X0368181Y0374618D02*
X0383277Y0374618D01*
X0383964Y0374226D02*
X0368561Y0374226D01*
X0368941Y0373833D02*
X0384764Y0373833D01*
X0385744Y0373441D02*
X0369321Y0373441D01*
X0369701Y0373049D02*
X0386725Y0373049D01*
X0387705Y0372657D02*
X0370091Y0372657D01*
X0370525Y0372265D02*
X0388904Y0372265D01*
X0390473Y0371872D02*
X0370960Y0371872D01*
X0371394Y0371480D02*
X0392327Y0371480D01*
X0393834Y0371088D02*
X0371829Y0371088D01*
X0372263Y0370696D02*
X0393834Y0370696D01*
X0393834Y0370303D02*
X0372697Y0370303D01*
X0373197Y0369911D02*
X0393834Y0369911D01*
X0393834Y0369519D02*
X0373733Y0369519D01*
X0374269Y0369127D02*
X0393834Y0369127D01*
X0393834Y0368735D02*
X0374804Y0368735D01*
X0375340Y0368342D02*
X0393834Y0368342D01*
X0393834Y0367950D02*
X0375918Y0367950D01*
X0376555Y0367558D02*
X0393834Y0367558D01*
X0393834Y0367166D02*
X0377191Y0367166D01*
X0377827Y0366774D02*
X0393834Y0366774D01*
X0393834Y0366381D02*
X0378463Y0366381D01*
X0379281Y0365989D02*
X0393834Y0365989D01*
X0393834Y0365597D02*
X0380116Y0365597D01*
X0380952Y0365205D02*
X0393834Y0365205D01*
X0393834Y0364813D02*
X0381787Y0364813D01*
X0382622Y0364420D02*
X0393834Y0364420D01*
X0393834Y0364028D02*
X0383625Y0364028D01*
X0384802Y0363636D02*
X0393834Y0363636D01*
X0393834Y0363244D02*
X0385979Y0363244D01*
X0387435Y0362851D02*
X0393834Y0362851D01*
X0393834Y0362459D02*
X0389023Y0362459D01*
X0391187Y0362067D02*
X0393834Y0362067D01*
X0401846Y0362067D02*
X0403794Y0362067D01*
X0401846Y0362459D02*
X0405845Y0362459D01*
X0407299Y0362851D02*
X0401846Y0362851D01*
X0401846Y0363244D02*
X0408705Y0363244D01*
X0409955Y0363636D02*
X0401846Y0363636D01*
X0401846Y0364028D02*
X0411059Y0364028D01*
X0412163Y0364420D02*
X0401846Y0364420D01*
X0401846Y0364813D02*
X0413054Y0364813D01*
X0413895Y0365205D02*
X0401846Y0365205D01*
X0401846Y0365597D02*
X0414735Y0365597D01*
X0415528Y0365989D02*
X0401846Y0365989D01*
X0401846Y0366381D02*
X0416207Y0366381D01*
X0416885Y0366774D02*
X0401846Y0366774D01*
X0401846Y0367166D02*
X0417563Y0367166D01*
X0418241Y0367558D02*
X0401846Y0367558D01*
X0401846Y0367950D02*
X0418862Y0367950D01*
X0419418Y0368342D02*
X0401846Y0368342D01*
X0401846Y0368735D02*
X0419974Y0368735D01*
X0420531Y0369127D02*
X0401846Y0369127D01*
X0401846Y0369519D02*
X0421076Y0369519D01*
X0421558Y0369911D02*
X0401846Y0369911D01*
X0401846Y0370303D02*
X0422040Y0370303D01*
X0422522Y0370696D02*
X0401846Y0370696D01*
X0401846Y0371088D02*
X0423004Y0371088D01*
X0423464Y0371480D02*
X0402305Y0371480D01*
X0404234Y0371872D02*
X0423880Y0371872D01*
X0424297Y0372265D02*
X0405665Y0372265D01*
X0406927Y0372657D02*
X0424714Y0372657D01*
X0425131Y0373049D02*
X0408052Y0373049D01*
X0408990Y0373441D02*
X0425514Y0373441D01*
X0425867Y0373833D02*
X0409929Y0373833D01*
X0410727Y0374226D02*
X0426220Y0374226D01*
X0426573Y0374618D02*
X0411437Y0374618D01*
X0412147Y0375010D02*
X0426926Y0375010D01*
X0427279Y0375402D02*
X0412858Y0375402D01*
X0413443Y0375794D02*
X0427613Y0375794D01*
X0427926Y0376187D02*
X0414015Y0376187D01*
X0414587Y0376579D02*
X0428240Y0376579D01*
X0428554Y0376971D02*
X0415159Y0376971D01*
X0415720Y0377363D02*
X0428868Y0377363D01*
X0429158Y0377756D02*
X0416155Y0377756D01*
X0416590Y0378148D02*
X0429422Y0378148D01*
X0429686Y0378540D02*
X0417025Y0378540D01*
X0417461Y0378932D02*
X0429950Y0378932D01*
X0430214Y0379324D02*
X0417896Y0379324D01*
X0418331Y0379717D02*
X0430462Y0379717D01*
X0430698Y0380109D02*
X0418715Y0380109D01*
X0419073Y0380501D02*
X0430933Y0380501D01*
X0431168Y0380893D02*
X0419431Y0380893D01*
X0419788Y0381285D02*
X0431403Y0381285D01*
X0431639Y0381678D02*
X0420146Y0381678D01*
X0420504Y0382070D02*
X0431873Y0382070D01*
X0432069Y0382462D02*
X0420786Y0382462D01*
X0421064Y0382854D02*
X0432265Y0382854D01*
X0432461Y0383246D02*
X0421341Y0383246D01*
X0421618Y0383639D02*
X0432657Y0383639D01*
X0432853Y0384031D02*
X0421895Y0384031D01*
X0422172Y0384423D02*
X0433049Y0384423D01*
X0433236Y0384815D02*
X0422449Y0384815D01*
X0422700Y0385208D02*
X0433388Y0385208D01*
X0433539Y0385600D02*
X0422912Y0385600D01*
X0423124Y0385992D02*
X0433691Y0385992D01*
X0433842Y0386384D02*
X0423336Y0386384D01*
X0423548Y0386776D02*
X0433994Y0386776D01*
X0434145Y0387169D02*
X0423760Y0387169D01*
X0423972Y0387561D02*
X0434297Y0387561D01*
X0434448Y0387953D02*
X0424184Y0387953D01*
X0424353Y0388345D02*
X0434588Y0388345D01*
X0434706Y0388737D02*
X0424521Y0388737D01*
X0424689Y0389130D02*
X0434825Y0389130D01*
X0434944Y0389522D02*
X0424857Y0389522D01*
X0425025Y0389914D02*
X0435063Y0389914D01*
X0435182Y0390306D02*
X0425194Y0390306D01*
X0425362Y0390699D02*
X0435301Y0390699D01*
X0435397Y0391091D02*
X0425473Y0391091D01*
X0425581Y0391483D02*
X0435486Y0391483D01*
X0435575Y0391875D02*
X0425689Y0391875D01*
X0425797Y0392267D02*
X0435664Y0392267D01*
X0435753Y0392660D02*
X0425905Y0392660D01*
X0426014Y0393052D02*
X0435842Y0393052D01*
X0435930Y0393444D02*
X0426122Y0393444D01*
X0426230Y0393836D02*
X0436011Y0393836D01*
X0436065Y0394228D02*
X0426332Y0394228D01*
X0426414Y0394621D02*
X0436118Y0394621D01*
X0436171Y0395013D02*
X0426496Y0395013D01*
X0426578Y0395405D02*
X0436224Y0395405D01*
X0436278Y0395797D02*
X0426660Y0395797D01*
X0426742Y0396189D02*
X0436331Y0396189D01*
X0436384Y0396582D02*
X0426824Y0396582D01*
X0426876Y0396974D02*
X0436435Y0396974D01*
X0436459Y0397366D02*
X0426897Y0397366D01*
X0426919Y0397758D02*
X0436484Y0397758D01*
X0436508Y0398151D02*
X0426940Y0398151D01*
X0426961Y0398543D02*
X0436533Y0398543D01*
X0436557Y0398935D02*
X0426983Y0398935D01*
X0427004Y0399327D02*
X0436582Y0399327D01*
X0436606Y0399719D02*
X0427025Y0399719D01*
X0427047Y0400112D02*
X0436629Y0400112D01*
X0436618Y0400504D02*
X0427059Y0400504D01*
X0427044Y0400896D02*
X0436607Y0400896D01*
X0436596Y0401288D02*
X0427029Y0401288D01*
X0427014Y0401680D02*
X0436586Y0401680D01*
X0436575Y0402073D02*
X0426999Y0402073D01*
X0426984Y0402465D02*
X0436564Y0402465D01*
X0436554Y0402857D02*
X0426969Y0402857D01*
X0426954Y0403249D02*
X0436525Y0403249D01*
X0436490Y0403642D02*
X0426925Y0403642D01*
X0426867Y0404034D02*
X0436454Y0404034D01*
X0436419Y0404426D02*
X0426809Y0404426D01*
X0426751Y0404818D02*
X0436384Y0404818D01*
X0436349Y0405210D02*
X0426693Y0405210D01*
X0426635Y0405603D02*
X0436314Y0405603D01*
X0436278Y0405995D02*
X0426577Y0405995D01*
X0426518Y0406387D02*
X0436211Y0406387D01*
X0436141Y0406779D02*
X0426454Y0406779D01*
X0426361Y0407171D02*
X0436071Y0407171D01*
X0436000Y0407564D02*
X0426269Y0407564D01*
X0426177Y0407956D02*
X0435930Y0407956D01*
X0435859Y0408348D02*
X0426084Y0408348D01*
X0425992Y0408740D02*
X0435789Y0408740D01*
X0435716Y0409132D02*
X0425900Y0409132D01*
X0425787Y0409525D02*
X0435614Y0409525D01*
X0435512Y0409917D02*
X0425641Y0409917D01*
X0425495Y0410309D02*
X0435409Y0410309D01*
X0435307Y0410701D02*
X0425348Y0410701D01*
X0425202Y0411094D02*
X0435205Y0411094D01*
X0435102Y0411486D02*
X0425055Y0411486D01*
X0424909Y0411878D02*
X0435000Y0411878D01*
X0434898Y0412270D02*
X0424762Y0412270D01*
X0424581Y0412662D02*
X0434795Y0412662D01*
X0434656Y0413055D02*
X0424392Y0413055D01*
X0424204Y0413447D02*
X0434509Y0413447D01*
X0434363Y0413839D02*
X0424016Y0413839D01*
X0423828Y0414231D02*
X0434216Y0414231D01*
X0434070Y0414623D02*
X0423639Y0414623D01*
X0423451Y0415016D02*
X0433923Y0415016D01*
X0433777Y0415408D02*
X0423242Y0415408D01*
X0422987Y0415800D02*
X0433630Y0415800D01*
X0433463Y0416192D02*
X0422732Y0416192D01*
X0422478Y0416585D02*
X0433275Y0416585D01*
X0433087Y0416977D02*
X0422223Y0416977D01*
X0421968Y0417369D02*
X0432899Y0417369D01*
X0432711Y0417761D02*
X0421714Y0417761D01*
X0421459Y0418153D02*
X0432523Y0418153D01*
X0432335Y0418546D02*
X0421162Y0418546D01*
X0420835Y0418938D02*
X0432140Y0418938D01*
X0431919Y0419330D02*
X0420508Y0419330D01*
X0420182Y0419722D02*
X0431697Y0419722D01*
X0431475Y0420114D02*
X0419855Y0420114D01*
X0419528Y0420507D02*
X0431254Y0420507D01*
X0431032Y0420899D02*
X0419169Y0420899D01*
X0418785Y0421291D02*
X0430810Y0421291D01*
X0430577Y0421683D02*
X0418402Y0421683D01*
X0418018Y0422075D02*
X0430309Y0422075D01*
X0430041Y0422468D02*
X0417634Y0422468D01*
X0417167Y0422860D02*
X0429774Y0422860D01*
X0429506Y0423252D02*
X0416695Y0423252D01*
X0416223Y0423644D02*
X0429238Y0423644D01*
X0428971Y0424037D02*
X0415751Y0424037D01*
X0415279Y0424429D02*
X0428650Y0424429D01*
X0428326Y0424821D02*
X0414804Y0424821D01*
X0414199Y0425213D02*
X0428002Y0425213D01*
X0427678Y0425605D02*
X0413594Y0425605D01*
X0412988Y0425998D02*
X0427353Y0425998D01*
X0427029Y0426390D02*
X0412326Y0426390D01*
X0411609Y0426782D02*
X0426705Y0426782D01*
X0426359Y0427174D02*
X0410893Y0427174D01*
X0410093Y0427566D02*
X0425980Y0427566D01*
X0425601Y0427959D02*
X0409239Y0427959D01*
X0408384Y0428351D02*
X0425223Y0428351D01*
X0424844Y0428743D02*
X0407276Y0428743D01*
X0406099Y0429135D02*
X0424465Y0429135D01*
X0424043Y0429528D02*
X0404536Y0429528D01*
X0402701Y0429920D02*
X0423589Y0429920D01*
X0423136Y0430312D02*
X0399835Y0430312D01*
X0231330Y0542796D02*
X0231999Y0545749D01*
X0232433Y0548938D01*
X0232629Y0552087D01*
X0232551Y0554961D01*
X0232275Y0558032D01*
X0231724Y0561103D01*
X0230779Y0564725D01*
X0229559Y0567993D01*
X0228181Y0570867D01*
X0226645Y0573583D01*
X0224952Y0576063D01*
X0222511Y0579016D01*
X0220307Y0581300D01*
X0217984Y0583308D01*
X0214440Y0585867D01*
X0211606Y0587520D01*
X0208259Y0589056D01*
X0204913Y0590237D01*
X0201409Y0591142D01*
X0198496Y0591615D01*
X0195228Y0591930D01*
X0191921Y0591930D01*
X0188141Y0591654D01*
X0184834Y0591063D01*
X0181999Y0590315D01*
X0179401Y0589449D01*
X0176724Y0588268D01*
X0173653Y0586654D01*
X0171055Y0585001D01*
X0168889Y0583386D01*
X0165700Y0580552D01*
X0163496Y0578150D01*
X0161133Y0575119D01*
X0159125Y0571851D01*
X0157629Y0568898D01*
X0156409Y0565867D01*
X0155503Y0562914D01*
X0154913Y0560434D01*
X0154440Y0557402D01*
X0154165Y0553583D01*
X0154244Y0549764D01*
X0155110Y0544174D01*
X0156566Y0539252D01*
X0158456Y0534882D01*
X0161173Y0530355D01*
X0163535Y0527284D01*
X0166015Y0524725D01*
X0168850Y0522166D01*
X0171645Y0520119D01*
X0174519Y0518347D01*
X0179047Y0516221D01*
X0182354Y0515119D01*
X0185700Y0514292D01*
X0189086Y0513780D01*
X0189834Y0513780D01*
X0189834Y0523229D01*
X0187472Y0523623D01*
X0184322Y0524410D01*
X0180385Y0525985D01*
X0177629Y0527560D01*
X0176448Y0528347D01*
X0174873Y0529528D01*
X0172748Y0531339D01*
X0170503Y0533741D01*
X0168062Y0537087D01*
X0166763Y0539528D01*
X0165503Y0542481D01*
X0164401Y0546024D01*
X0163889Y0549213D01*
X0163692Y0552166D01*
X0163771Y0555355D01*
X0164204Y0558347D01*
X0165149Y0562126D01*
X0166448Y0565355D01*
X0167787Y0567796D01*
X0169204Y0570040D01*
X0171330Y0572638D01*
X0173535Y0574882D01*
X0175818Y0576693D01*
X0178968Y0578741D01*
X0181999Y0580158D01*
X0184992Y0581221D01*
X0187551Y0581890D01*
X0190503Y0582323D01*
X0193062Y0582441D01*
X0195464Y0582363D01*
X0199204Y0581851D01*
X0201960Y0581182D01*
X0204204Y0580434D01*
X0206606Y0579331D01*
X0208692Y0578189D01*
X0210818Y0576812D01*
X0213614Y0574489D01*
X0215385Y0572678D01*
X0217354Y0570315D01*
X0219322Y0567284D01*
X0220740Y0564331D01*
X0221842Y0561378D01*
X0222472Y0558701D01*
X0222944Y0555512D01*
X0223062Y0552402D01*
X0222866Y0548780D01*
X0222314Y0546142D01*
X0221370Y0542717D01*
X0220188Y0539961D01*
X0218614Y0537048D01*
X0216527Y0534095D01*
X0214480Y0531851D01*
X0211685Y0529331D01*
X0208929Y0527441D01*
X0206291Y0525985D01*
X0203653Y0524882D01*
X0200740Y0523977D01*
X0198456Y0523504D01*
X0197846Y0523406D01*
X0197846Y0513800D01*
X0199322Y0513977D01*
X0201999Y0514489D01*
X0205385Y0515434D01*
X0208377Y0516497D01*
X0211330Y0517875D01*
X0214598Y0519764D01*
X0216999Y0521457D01*
X0219322Y0523347D01*
X0221330Y0525237D01*
X0223456Y0527599D01*
X0225031Y0529567D01*
X0226330Y0531497D01*
X0227866Y0534056D01*
X0229204Y0536733D01*
X0230543Y0540197D01*
X0231330Y0542796D01*
X0231349Y0542877D02*
X0221414Y0542877D01*
X0221522Y0543269D02*
X0231437Y0543269D01*
X0231526Y0543661D02*
X0221630Y0543661D01*
X0221738Y0544053D02*
X0231615Y0544053D01*
X0231704Y0544446D02*
X0221846Y0544446D01*
X0221955Y0544838D02*
X0231793Y0544838D01*
X0231882Y0545230D02*
X0222063Y0545230D01*
X0222171Y0545622D02*
X0231971Y0545622D01*
X0232036Y0546015D02*
X0222279Y0546015D01*
X0222370Y0546407D02*
X0232089Y0546407D01*
X0232142Y0546799D02*
X0222452Y0546799D01*
X0222534Y0547191D02*
X0232195Y0547191D01*
X0232249Y0547583D02*
X0222616Y0547583D01*
X0222698Y0547976D02*
X0232302Y0547976D01*
X0232355Y0548368D02*
X0222779Y0548368D01*
X0222861Y0548760D02*
X0232408Y0548760D01*
X0232446Y0549152D02*
X0222886Y0549152D01*
X0222907Y0549544D02*
X0232470Y0549544D01*
X0232495Y0549937D02*
X0222928Y0549937D01*
X0222950Y0550329D02*
X0232519Y0550329D01*
X0232544Y0550721D02*
X0222971Y0550721D01*
X0222992Y0551113D02*
X0232569Y0551113D01*
X0232593Y0551505D02*
X0223014Y0551505D01*
X0223035Y0551898D02*
X0232618Y0551898D01*
X0232624Y0552290D02*
X0223056Y0552290D01*
X0223052Y0552682D02*
X0232613Y0552682D01*
X0232602Y0553074D02*
X0223037Y0553074D01*
X0223022Y0553467D02*
X0232592Y0553467D01*
X0232581Y0553859D02*
X0223007Y0553859D01*
X0222992Y0554251D02*
X0232570Y0554251D01*
X0232559Y0554643D02*
X0222977Y0554643D01*
X0222962Y0555035D02*
X0232544Y0555035D01*
X0232509Y0555428D02*
X0222948Y0555428D01*
X0222899Y0555820D02*
X0232474Y0555820D01*
X0232438Y0556212D02*
X0222841Y0556212D01*
X0222783Y0556604D02*
X0232403Y0556604D01*
X0232368Y0556996D02*
X0222724Y0556996D01*
X0222666Y0557389D02*
X0232333Y0557389D01*
X0232298Y0557781D02*
X0222608Y0557781D01*
X0222550Y0558173D02*
X0232250Y0558173D01*
X0232179Y0558565D02*
X0222492Y0558565D01*
X0222412Y0558958D02*
X0232109Y0558958D01*
X0232039Y0559350D02*
X0222319Y0559350D01*
X0222227Y0559742D02*
X0231968Y0559742D01*
X0231898Y0560134D02*
X0222135Y0560134D01*
X0222042Y0560526D02*
X0231827Y0560526D01*
X0231757Y0560919D02*
X0221950Y0560919D01*
X0221858Y0561311D02*
X0231670Y0561311D01*
X0231567Y0561703D02*
X0221721Y0561703D01*
X0221574Y0562095D02*
X0231465Y0562095D01*
X0231363Y0562487D02*
X0221428Y0562487D01*
X0221282Y0562880D02*
X0231260Y0562880D01*
X0231158Y0563272D02*
X0221135Y0563272D01*
X0220989Y0563664D02*
X0231056Y0563664D01*
X0230953Y0564056D02*
X0220842Y0564056D01*
X0220683Y0564448D02*
X0230851Y0564448D01*
X0230736Y0564841D02*
X0220495Y0564841D01*
X0220307Y0565233D02*
X0230589Y0565233D01*
X0230443Y0565625D02*
X0220119Y0565625D01*
X0219930Y0566017D02*
X0230296Y0566017D01*
X0230150Y0566410D02*
X0219742Y0566410D01*
X0219554Y0566802D02*
X0230003Y0566802D01*
X0229857Y0567194D02*
X0219366Y0567194D01*
X0219126Y0567586D02*
X0229710Y0567586D01*
X0229564Y0567978D02*
X0218871Y0567978D01*
X0218617Y0568371D02*
X0229377Y0568371D01*
X0229189Y0568763D02*
X0218362Y0568763D01*
X0218107Y0569155D02*
X0229001Y0569155D01*
X0228813Y0569547D02*
X0217853Y0569547D01*
X0217598Y0569939D02*
X0228625Y0569939D01*
X0228437Y0570332D02*
X0217340Y0570332D01*
X0217013Y0570724D02*
X0228249Y0570724D01*
X0228040Y0571116D02*
X0216687Y0571116D01*
X0216360Y0571508D02*
X0227818Y0571508D01*
X0227596Y0571901D02*
X0216033Y0571901D01*
X0215706Y0572293D02*
X0227375Y0572293D01*
X0227153Y0572685D02*
X0215378Y0572685D01*
X0214995Y0573077D02*
X0226931Y0573077D01*
X0226709Y0573469D02*
X0214611Y0573469D01*
X0214227Y0573862D02*
X0226455Y0573862D01*
X0226187Y0574254D02*
X0213843Y0574254D01*
X0213424Y0574646D02*
X0225920Y0574646D01*
X0225652Y0575038D02*
X0212952Y0575038D01*
X0212480Y0575430D02*
X0225384Y0575430D01*
X0225117Y0575823D02*
X0212008Y0575823D01*
X0211536Y0576215D02*
X0224827Y0576215D01*
X0224503Y0576607D02*
X0211064Y0576607D01*
X0210529Y0576999D02*
X0224179Y0576999D01*
X0223854Y0577391D02*
X0209924Y0577391D01*
X0209318Y0577784D02*
X0223530Y0577784D01*
X0223206Y0578176D02*
X0208713Y0578176D01*
X0208000Y0578568D02*
X0222882Y0578568D01*
X0222558Y0578960D02*
X0207284Y0578960D01*
X0206559Y0579353D02*
X0222187Y0579353D01*
X0221808Y0579745D02*
X0205705Y0579745D01*
X0204850Y0580137D02*
X0221429Y0580137D01*
X0221051Y0580529D02*
X0203917Y0580529D01*
X0202741Y0580921D02*
X0220672Y0580921D01*
X0220291Y0581314D02*
X0201417Y0581314D01*
X0199802Y0581706D02*
X0219837Y0581706D01*
X0219383Y0582098D02*
X0197398Y0582098D01*
X0188967Y0582098D02*
X0167440Y0582098D01*
X0167881Y0582490D02*
X0218929Y0582490D01*
X0218476Y0582882D02*
X0168322Y0582882D01*
X0168764Y0583275D02*
X0218022Y0583275D01*
X0217486Y0583667D02*
X0169266Y0583667D01*
X0169792Y0584059D02*
X0216943Y0584059D01*
X0216400Y0584451D02*
X0170318Y0584451D01*
X0170844Y0584844D02*
X0215857Y0584844D01*
X0215314Y0585236D02*
X0171424Y0585236D01*
X0172041Y0585628D02*
X0214771Y0585628D01*
X0214177Y0586020D02*
X0172657Y0586020D01*
X0173273Y0586412D02*
X0213505Y0586412D01*
X0212833Y0586805D02*
X0173939Y0586805D01*
X0174686Y0587197D02*
X0212160Y0587197D01*
X0211456Y0587589D02*
X0175432Y0587589D01*
X0176178Y0587981D02*
X0210601Y0587981D01*
X0209746Y0588373D02*
X0176962Y0588373D01*
X0177851Y0588766D02*
X0208891Y0588766D01*
X0207970Y0589158D02*
X0178740Y0589158D01*
X0179703Y0589550D02*
X0206858Y0589550D01*
X0205747Y0589942D02*
X0180880Y0589942D01*
X0182072Y0590334D02*
X0204535Y0590334D01*
X0203017Y0590727D02*
X0183558Y0590727D01*
X0185144Y0591119D02*
X0201499Y0591119D01*
X0199134Y0591511D02*
X0187341Y0591511D01*
X0191560Y0591903D02*
X0195501Y0591903D01*
X0186845Y0581706D02*
X0166999Y0581706D01*
X0166557Y0581314D02*
X0185346Y0581314D01*
X0184148Y0580921D02*
X0166116Y0580921D01*
X0165680Y0580529D02*
X0183044Y0580529D01*
X0181954Y0580137D02*
X0165320Y0580137D01*
X0164959Y0579745D02*
X0181116Y0579745D01*
X0180277Y0579353D02*
X0164599Y0579353D01*
X0164239Y0578960D02*
X0179438Y0578960D01*
X0178703Y0578568D02*
X0163879Y0578568D01*
X0163519Y0578176D02*
X0178099Y0578176D01*
X0177496Y0577784D02*
X0163210Y0577784D01*
X0162904Y0577391D02*
X0176892Y0577391D01*
X0176289Y0576999D02*
X0162599Y0576999D01*
X0162293Y0576607D02*
X0175709Y0576607D01*
X0175215Y0576215D02*
X0161988Y0576215D01*
X0161682Y0575823D02*
X0174720Y0575823D01*
X0174226Y0575430D02*
X0161376Y0575430D01*
X0161084Y0575038D02*
X0173731Y0575038D01*
X0173303Y0574646D02*
X0160843Y0574646D01*
X0160602Y0574254D02*
X0172917Y0574254D01*
X0172532Y0573862D02*
X0160361Y0573862D01*
X0160120Y0573469D02*
X0172147Y0573469D01*
X0171761Y0573077D02*
X0159879Y0573077D01*
X0159638Y0572685D02*
X0171376Y0572685D01*
X0171047Y0572293D02*
X0159397Y0572293D01*
X0159156Y0571901D02*
X0170727Y0571901D01*
X0170406Y0571508D02*
X0158952Y0571508D01*
X0158753Y0571116D02*
X0170085Y0571116D01*
X0169764Y0570724D02*
X0158554Y0570724D01*
X0158356Y0570332D02*
X0169443Y0570332D01*
X0169141Y0569939D02*
X0158157Y0569939D01*
X0157958Y0569547D02*
X0168893Y0569547D01*
X0168645Y0569155D02*
X0157760Y0569155D01*
X0157575Y0568763D02*
X0168398Y0568763D01*
X0168150Y0568371D02*
X0157417Y0568371D01*
X0157259Y0567978D02*
X0167902Y0567978D01*
X0167672Y0567586D02*
X0157101Y0567586D01*
X0156943Y0567194D02*
X0167457Y0567194D01*
X0167242Y0566802D02*
X0156785Y0566802D01*
X0156627Y0566410D02*
X0167027Y0566410D01*
X0166812Y0566017D02*
X0156470Y0566017D01*
X0156335Y0565625D02*
X0166596Y0565625D01*
X0166399Y0565233D02*
X0156215Y0565233D01*
X0156094Y0564841D02*
X0166241Y0564841D01*
X0166084Y0564448D02*
X0155974Y0564448D01*
X0155854Y0564056D02*
X0165926Y0564056D01*
X0165768Y0563664D02*
X0155733Y0563664D01*
X0155613Y0563272D02*
X0165610Y0563272D01*
X0165452Y0562880D02*
X0155495Y0562880D01*
X0155402Y0562487D02*
X0165294Y0562487D01*
X0165141Y0562095D02*
X0155308Y0562095D01*
X0155215Y0561703D02*
X0165043Y0561703D01*
X0164945Y0561311D02*
X0155122Y0561311D01*
X0155028Y0560919D02*
X0164847Y0560919D01*
X0164749Y0560526D02*
X0154935Y0560526D01*
X0154866Y0560134D02*
X0164651Y0560134D01*
X0164553Y0559742D02*
X0154805Y0559742D01*
X0154744Y0559350D02*
X0164455Y0559350D01*
X0164357Y0558958D02*
X0154683Y0558958D01*
X0154622Y0558565D02*
X0164259Y0558565D01*
X0164179Y0558173D02*
X0154561Y0558173D01*
X0154499Y0557781D02*
X0164122Y0557781D01*
X0164065Y0557389D02*
X0154439Y0557389D01*
X0154411Y0556996D02*
X0164009Y0556996D01*
X0163952Y0556604D02*
X0154383Y0556604D01*
X0154355Y0556212D02*
X0163895Y0556212D01*
X0163838Y0555820D02*
X0154326Y0555820D01*
X0154298Y0555428D02*
X0163782Y0555428D01*
X0163763Y0555035D02*
X0154270Y0555035D01*
X0154241Y0554643D02*
X0163754Y0554643D01*
X0163744Y0554251D02*
X0154213Y0554251D01*
X0154185Y0553859D02*
X0163734Y0553859D01*
X0163724Y0553467D02*
X0154167Y0553467D01*
X0154175Y0553074D02*
X0163715Y0553074D01*
X0163705Y0552682D02*
X0154183Y0552682D01*
X0154191Y0552290D02*
X0163695Y0552290D01*
X0163710Y0551898D02*
X0154200Y0551898D01*
X0154208Y0551505D02*
X0163736Y0551505D01*
X0163763Y0551113D02*
X0154216Y0551113D01*
X0154224Y0550721D02*
X0163789Y0550721D01*
X0163815Y0550329D02*
X0154232Y0550329D01*
X0154240Y0549937D02*
X0163841Y0549937D01*
X0163867Y0549544D02*
X0154278Y0549544D01*
X0154338Y0549152D02*
X0163899Y0549152D01*
X0163962Y0548760D02*
X0154399Y0548760D01*
X0154460Y0548368D02*
X0164025Y0548368D01*
X0164088Y0547976D02*
X0154521Y0547976D01*
X0154581Y0547583D02*
X0164151Y0547583D01*
X0164214Y0547191D02*
X0154642Y0547191D01*
X0154703Y0546799D02*
X0164277Y0546799D01*
X0164340Y0546407D02*
X0154764Y0546407D01*
X0154825Y0546015D02*
X0164404Y0546015D01*
X0164526Y0545622D02*
X0154885Y0545622D01*
X0154946Y0545230D02*
X0164648Y0545230D01*
X0164770Y0544838D02*
X0155007Y0544838D01*
X0155068Y0544446D02*
X0164892Y0544446D01*
X0165014Y0544053D02*
X0155145Y0544053D01*
X0155261Y0543661D02*
X0165136Y0543661D01*
X0165258Y0543269D02*
X0155377Y0543269D01*
X0155494Y0542877D02*
X0165380Y0542877D01*
X0165502Y0542485D02*
X0155610Y0542485D01*
X0155726Y0542092D02*
X0165669Y0542092D01*
X0165836Y0541700D02*
X0155842Y0541700D01*
X0155958Y0541308D02*
X0166004Y0541308D01*
X0166171Y0540916D02*
X0156074Y0540916D01*
X0156190Y0540524D02*
X0166339Y0540524D01*
X0166506Y0540131D02*
X0156306Y0540131D01*
X0156422Y0539739D02*
X0166673Y0539739D01*
X0166860Y0539347D02*
X0156538Y0539347D01*
X0156695Y0538955D02*
X0167068Y0538955D01*
X0167277Y0538562D02*
X0156865Y0538562D01*
X0157034Y0538170D02*
X0167486Y0538170D01*
X0167695Y0537778D02*
X0157204Y0537778D01*
X0157374Y0537386D02*
X0167903Y0537386D01*
X0168131Y0536994D02*
X0157543Y0536994D01*
X0157713Y0536601D02*
X0168417Y0536601D01*
X0168703Y0536209D02*
X0157882Y0536209D01*
X0158052Y0535817D02*
X0168989Y0535817D01*
X0169275Y0535425D02*
X0158222Y0535425D01*
X0158391Y0535033D02*
X0169561Y0535033D01*
X0169847Y0534640D02*
X0158601Y0534640D01*
X0158837Y0534248D02*
X0170133Y0534248D01*
X0170419Y0533856D02*
X0159072Y0533856D01*
X0159307Y0533464D02*
X0170762Y0533464D01*
X0171129Y0533072D02*
X0159543Y0533072D01*
X0159778Y0532679D02*
X0171495Y0532679D01*
X0171862Y0532287D02*
X0160013Y0532287D01*
X0160249Y0531895D02*
X0172228Y0531895D01*
X0172595Y0531503D02*
X0160484Y0531503D01*
X0160719Y0531110D02*
X0173016Y0531110D01*
X0173476Y0530718D02*
X0160955Y0530718D01*
X0161195Y0530326D02*
X0173937Y0530326D01*
X0174397Y0529934D02*
X0161497Y0529934D01*
X0161798Y0529542D02*
X0174858Y0529542D01*
X0175378Y0529149D02*
X0162100Y0529149D01*
X0162402Y0528757D02*
X0175901Y0528757D01*
X0176424Y0528365D02*
X0162703Y0528365D01*
X0163005Y0527973D02*
X0177010Y0527973D01*
X0177598Y0527581D02*
X0163307Y0527581D01*
X0163628Y0527188D02*
X0178279Y0527188D01*
X0178965Y0526796D02*
X0164008Y0526796D01*
X0164388Y0526404D02*
X0179652Y0526404D01*
X0180338Y0526012D02*
X0164768Y0526012D01*
X0165148Y0525619D02*
X0181298Y0525619D01*
X0182279Y0525227D02*
X0165528Y0525227D01*
X0165908Y0524835D02*
X0183260Y0524835D01*
X0184240Y0524443D02*
X0166328Y0524443D01*
X0166762Y0524051D02*
X0185760Y0524051D01*
X0187328Y0523658D02*
X0167197Y0523658D01*
X0167631Y0523266D02*
X0189610Y0523266D01*
X0189834Y0522874D02*
X0168065Y0522874D01*
X0168500Y0522482D02*
X0189834Y0522482D01*
X0189834Y0522090D02*
X0168954Y0522090D01*
X0169490Y0521697D02*
X0189834Y0521697D01*
X0189834Y0521305D02*
X0170025Y0521305D01*
X0170561Y0520913D02*
X0189834Y0520913D01*
X0189834Y0520521D02*
X0171096Y0520521D01*
X0171632Y0520129D02*
X0189834Y0520129D01*
X0189834Y0519736D02*
X0172265Y0519736D01*
X0172902Y0519344D02*
X0189834Y0519344D01*
X0189834Y0518952D02*
X0173538Y0518952D01*
X0174174Y0518560D02*
X0189834Y0518560D01*
X0189834Y0518167D02*
X0174901Y0518167D01*
X0175737Y0517775D02*
X0189834Y0517775D01*
X0189834Y0517383D02*
X0176572Y0517383D01*
X0177407Y0516991D02*
X0189834Y0516991D01*
X0189834Y0516599D02*
X0178243Y0516599D01*
X0179090Y0516206D02*
X0189834Y0516206D01*
X0189834Y0515814D02*
X0180267Y0515814D01*
X0181444Y0515422D02*
X0189834Y0515422D01*
X0189834Y0515030D02*
X0182713Y0515030D01*
X0184301Y0514638D02*
X0189834Y0514638D01*
X0189834Y0514245D02*
X0186008Y0514245D01*
X0188603Y0513853D02*
X0189834Y0513853D01*
X0197846Y0513853D02*
X0198291Y0513853D01*
X0197846Y0514245D02*
X0200726Y0514245D01*
X0202533Y0514638D02*
X0197846Y0514638D01*
X0197846Y0515030D02*
X0203938Y0515030D01*
X0205344Y0515422D02*
X0197846Y0515422D01*
X0197846Y0515814D02*
X0206457Y0515814D01*
X0207561Y0516206D02*
X0197846Y0516206D01*
X0197846Y0516599D02*
X0208596Y0516599D01*
X0209437Y0516991D02*
X0197846Y0516991D01*
X0197846Y0517383D02*
X0210277Y0517383D01*
X0211117Y0517775D02*
X0197846Y0517775D01*
X0197846Y0518167D02*
X0211837Y0518167D01*
X0212515Y0518560D02*
X0197846Y0518560D01*
X0197846Y0518952D02*
X0213193Y0518952D01*
X0213871Y0519344D02*
X0197846Y0519344D01*
X0197846Y0519736D02*
X0214549Y0519736D01*
X0215115Y0520129D02*
X0197846Y0520129D01*
X0197846Y0520521D02*
X0215671Y0520521D01*
X0216227Y0520913D02*
X0197846Y0520913D01*
X0197846Y0521305D02*
X0216784Y0521305D01*
X0217295Y0521697D02*
X0197846Y0521697D01*
X0197846Y0522090D02*
X0217777Y0522090D01*
X0218259Y0522482D02*
X0197846Y0522482D01*
X0197846Y0522874D02*
X0218741Y0522874D01*
X0219223Y0523266D02*
X0197846Y0523266D01*
X0199200Y0523658D02*
X0219653Y0523658D01*
X0220070Y0524051D02*
X0200977Y0524051D01*
X0202239Y0524443D02*
X0220487Y0524443D01*
X0220903Y0524835D02*
X0203501Y0524835D01*
X0204478Y0525227D02*
X0221320Y0525227D01*
X0221675Y0525619D02*
X0205417Y0525619D01*
X0206340Y0526012D02*
X0222028Y0526012D01*
X0222381Y0526404D02*
X0207050Y0526404D01*
X0207760Y0526796D02*
X0222734Y0526796D01*
X0223087Y0527188D02*
X0208470Y0527188D01*
X0209131Y0527581D02*
X0223440Y0527581D01*
X0223755Y0527973D02*
X0209703Y0527973D01*
X0210275Y0528365D02*
X0224069Y0528365D01*
X0224383Y0528757D02*
X0210847Y0528757D01*
X0211419Y0529149D02*
X0224697Y0529149D01*
X0225010Y0529542D02*
X0211918Y0529542D01*
X0212353Y0529934D02*
X0225278Y0529934D01*
X0225542Y0530326D02*
X0212788Y0530326D01*
X0213223Y0530718D02*
X0225806Y0530718D01*
X0226070Y0531110D02*
X0213658Y0531110D01*
X0214093Y0531503D02*
X0226334Y0531503D01*
X0226569Y0531895D02*
X0214520Y0531895D01*
X0214878Y0532287D02*
X0226804Y0532287D01*
X0227040Y0532679D02*
X0215236Y0532679D01*
X0215593Y0533072D02*
X0227275Y0533072D01*
X0227510Y0533464D02*
X0215951Y0533464D01*
X0216309Y0533856D02*
X0227746Y0533856D01*
X0227962Y0534248D02*
X0216635Y0534248D01*
X0216912Y0534640D02*
X0228158Y0534640D01*
X0228354Y0535033D02*
X0217190Y0535033D01*
X0217467Y0535425D02*
X0228550Y0535425D01*
X0228746Y0535817D02*
X0217744Y0535817D01*
X0218021Y0536209D02*
X0228942Y0536209D01*
X0229139Y0536601D02*
X0218298Y0536601D01*
X0218575Y0536994D02*
X0229305Y0536994D01*
X0229457Y0537386D02*
X0218796Y0537386D01*
X0219008Y0537778D02*
X0229608Y0537778D01*
X0229760Y0538170D02*
X0219220Y0538170D01*
X0219432Y0538562D02*
X0229911Y0538562D01*
X0230063Y0538955D02*
X0219644Y0538955D01*
X0219856Y0539347D02*
X0230214Y0539347D01*
X0230366Y0539739D02*
X0220068Y0539739D01*
X0220261Y0540131D02*
X0230517Y0540131D01*
X0230642Y0540524D02*
X0220429Y0540524D01*
X0220598Y0540916D02*
X0230760Y0540916D01*
X0230879Y0541308D02*
X0220766Y0541308D01*
X0220934Y0541700D02*
X0230998Y0541700D01*
X0231117Y0542092D02*
X0221102Y0542092D01*
X0221270Y0542485D02*
X0231236Y0542485D01*
D17*
X0200346Y0517737D03*
X0188181Y0517737D03*
X0290181Y0517737D03*
X0302346Y0517737D03*
X0392181Y0517737D03*
X0404346Y0517737D03*
X0404346Y0365737D03*
X0392181Y0365737D03*
X0302346Y0365737D03*
X0290181Y0365737D03*
X0200346Y0365737D03*
X0188181Y0365737D03*
D18*
X0170333Y0606033D03*
X0420333Y0606033D03*
D19*
X0170333Y0287533D03*
D20*
X0192622Y0361001D02*
X0195818Y0361001D01*
X0195858Y0361040D01*
X0195858Y0364189D02*
X0195877Y0364209D01*
X0195877Y0367138D01*
X0192728Y0367158D02*
X0192728Y0364256D01*
X0192622Y0364150D01*
X0189578Y0367158D02*
X0188181Y0365760D01*
X0188181Y0365737D01*
X0189199Y0370665D02*
X0189287Y0370752D01*
X0192846Y0370752D01*
X0195996Y0370752D02*
X0199939Y0370752D01*
X0200346Y0370345D01*
X0200346Y0365737D01*
X0199027Y0367056D01*
X0199027Y0367138D01*
X0290181Y0365760D02*
X0290181Y0365737D01*
X0290181Y0365760D02*
X0291578Y0367158D01*
X0294728Y0367158D02*
X0294728Y0364256D01*
X0294622Y0364150D01*
X0294622Y0361001D02*
X0297818Y0361001D01*
X0297858Y0361040D01*
X0297858Y0364189D02*
X0297877Y0364209D01*
X0297877Y0367138D01*
X0301027Y0367138D02*
X0301027Y0367056D01*
X0302346Y0365737D01*
X0302346Y0370345D01*
X0301939Y0370752D01*
X0297996Y0370752D01*
X0294846Y0370752D02*
X0291287Y0370752D01*
X0291199Y0370665D01*
X0392181Y0365760D02*
X0392181Y0365737D01*
X0392181Y0365760D02*
X0393578Y0367158D01*
X0396728Y0367158D02*
X0396728Y0364256D01*
X0396622Y0364150D01*
X0396622Y0361001D02*
X0399818Y0361001D01*
X0399858Y0361040D01*
X0399858Y0364189D02*
X0399877Y0364209D01*
X0399877Y0367138D01*
X0403027Y0367138D02*
X0403027Y0367056D01*
X0404346Y0365737D01*
X0404346Y0370345D01*
X0403939Y0370752D01*
X0399996Y0370752D01*
X0396846Y0370752D02*
X0393287Y0370752D01*
X0393199Y0370665D01*
X0396622Y0513001D02*
X0399818Y0513001D01*
X0399858Y0513040D01*
X0399858Y0516189D02*
X0399877Y0516209D01*
X0399877Y0519138D01*
X0396728Y0519158D02*
X0396728Y0516256D01*
X0396622Y0516150D01*
X0393578Y0519158D02*
X0392181Y0517760D01*
X0392181Y0517737D01*
X0393199Y0522665D02*
X0393287Y0522752D01*
X0396846Y0522752D01*
X0399996Y0522752D02*
X0403939Y0522752D01*
X0404346Y0522345D01*
X0404346Y0517737D01*
X0403027Y0519056D01*
X0403027Y0519138D01*
X0302346Y0517737D02*
X0301027Y0519056D01*
X0301027Y0519138D01*
X0302346Y0517737D02*
X0302346Y0522345D01*
X0301939Y0522752D01*
X0297996Y0522752D01*
X0294846Y0522752D02*
X0291287Y0522752D01*
X0291199Y0522665D01*
X0291578Y0519158D02*
X0290181Y0517760D01*
X0290181Y0517737D01*
X0294622Y0516150D02*
X0294728Y0516256D01*
X0294728Y0519158D01*
X0297877Y0519138D02*
X0297877Y0516209D01*
X0297858Y0516189D01*
X0297858Y0513040D02*
X0297818Y0513001D01*
X0294622Y0513001D01*
X0200346Y0517737D02*
X0199027Y0519056D01*
X0199027Y0519138D01*
X0200346Y0517737D02*
X0200346Y0522345D01*
X0199939Y0522752D01*
X0195996Y0522752D01*
X0192846Y0522752D02*
X0189287Y0522752D01*
X0189199Y0522665D01*
X0189578Y0519158D02*
X0188181Y0517760D01*
X0188181Y0517737D01*
X0192622Y0516150D02*
X0192728Y0516256D01*
X0192728Y0519158D01*
X0195877Y0519138D02*
X0195877Y0516209D01*
X0195858Y0516189D01*
X0195858Y0513040D02*
X0195818Y0513001D01*
X0192622Y0513001D01*
D21*
X0192976Y0508394D02*
X0188511Y0508394D01*
X0188412Y0508295D01*
X0187511Y0507394D01*
X0187511Y0504221D01*
X0187366Y0504075D01*
X0187366Y0499119D01*
X0192779Y0499119D02*
X0192779Y0490906D01*
X0192740Y0490867D01*
X0198153Y0484863D02*
X0201732Y0484863D01*
X0202487Y0485618D01*
X0201582Y0499060D02*
X0201547Y0499095D01*
X0201547Y0504193D01*
X0201547Y0507503D01*
X0200715Y0508334D01*
X0200655Y0508394D01*
X0196125Y0508394D01*
X0196133Y0504193D02*
X0193366Y0504193D01*
X0192866Y0504193D01*
X0193133Y0504461D01*
X0193338Y0504221D02*
X0193366Y0504193D01*
X0193338Y0504221D02*
X0190661Y0504221D01*
X0192779Y0499119D02*
X0198373Y0499119D01*
X0198433Y0499060D01*
X0289366Y0499119D02*
X0289366Y0504075D01*
X0289511Y0504221D01*
X0289511Y0507394D01*
X0290412Y0508295D01*
X0290511Y0508394D01*
X0294976Y0508394D01*
X0298125Y0508394D02*
X0302655Y0508394D01*
X0302715Y0508334D01*
X0303547Y0507503D01*
X0303547Y0504193D01*
X0303547Y0499095D01*
X0303582Y0499060D01*
X0300433Y0499060D02*
X0300373Y0499119D01*
X0294779Y0499119D01*
X0294779Y0490906D01*
X0294740Y0490867D01*
X0300153Y0484863D02*
X0303732Y0484863D01*
X0304487Y0485618D01*
X0298133Y0504193D02*
X0295366Y0504193D01*
X0294866Y0504193D01*
X0295133Y0504461D01*
X0295338Y0504221D02*
X0295366Y0504193D01*
X0295338Y0504221D02*
X0292661Y0504221D01*
X0391366Y0504075D02*
X0391366Y0499119D01*
X0391366Y0504075D02*
X0391511Y0504221D01*
X0391511Y0507394D01*
X0392412Y0508295D01*
X0392511Y0508394D01*
X0396976Y0508394D01*
X0400125Y0508394D02*
X0404655Y0508394D01*
X0404715Y0508334D01*
X0405547Y0507503D01*
X0405547Y0504193D01*
X0405547Y0499095D01*
X0405582Y0499060D01*
X0402433Y0499060D02*
X0402373Y0499119D01*
X0396779Y0499119D01*
X0396779Y0490906D01*
X0396740Y0490867D01*
X0402153Y0484863D02*
X0405732Y0484863D01*
X0406487Y0485618D01*
X0400133Y0504193D02*
X0397366Y0504193D01*
X0396866Y0504193D01*
X0397133Y0504461D01*
X0397338Y0504221D02*
X0394661Y0504221D01*
X0397338Y0504221D02*
X0397366Y0504193D01*
X0396976Y0356394D02*
X0392511Y0356394D01*
X0392412Y0356295D01*
X0391511Y0355394D01*
X0391511Y0352221D01*
X0391366Y0352075D01*
X0391366Y0347119D01*
X0396779Y0347119D02*
X0396779Y0338906D01*
X0396740Y0338867D01*
X0402153Y0332863D02*
X0405732Y0332863D01*
X0406487Y0333618D01*
X0405582Y0347060D02*
X0405547Y0347095D01*
X0405547Y0352193D01*
X0405547Y0355503D01*
X0404715Y0356334D01*
X0404655Y0356394D01*
X0400125Y0356394D01*
X0400133Y0352193D02*
X0397366Y0352193D01*
X0396866Y0352193D01*
X0397133Y0352461D01*
X0397338Y0352221D02*
X0394661Y0352221D01*
X0397338Y0352221D02*
X0397366Y0352193D01*
X0396779Y0347119D02*
X0402373Y0347119D01*
X0402433Y0347060D01*
X0303582Y0347060D02*
X0303547Y0347095D01*
X0303547Y0352193D01*
X0303547Y0355503D01*
X0302715Y0356334D01*
X0302655Y0356394D01*
X0298125Y0356394D01*
X0294976Y0356394D02*
X0290511Y0356394D01*
X0290412Y0356295D01*
X0289511Y0355394D01*
X0289511Y0352221D01*
X0289366Y0352075D01*
X0289366Y0347119D01*
X0294779Y0347119D02*
X0294779Y0338906D01*
X0294740Y0338867D01*
X0300153Y0332863D02*
X0303732Y0332863D01*
X0304487Y0333618D01*
X0300433Y0347060D02*
X0300373Y0347119D01*
X0294779Y0347119D01*
X0294866Y0352193D02*
X0295366Y0352193D01*
X0295338Y0352221D01*
X0292661Y0352221D01*
X0294866Y0352193D02*
X0295133Y0352461D01*
X0295366Y0352193D02*
X0298133Y0352193D01*
X0201547Y0352193D02*
X0201547Y0347095D01*
X0201582Y0347060D01*
X0198433Y0347060D02*
X0198373Y0347119D01*
X0192779Y0347119D01*
X0192779Y0338906D01*
X0192740Y0338867D01*
X0198153Y0332863D02*
X0201732Y0332863D01*
X0202487Y0333618D01*
X0201547Y0352193D02*
X0201547Y0355503D01*
X0200715Y0356334D01*
X0200655Y0356394D01*
X0196125Y0356394D01*
X0192976Y0356394D02*
X0188511Y0356394D01*
X0188412Y0356295D01*
X0187511Y0355394D01*
X0187511Y0352221D01*
X0187366Y0352075D01*
X0187366Y0347119D01*
X0190661Y0352221D02*
X0193338Y0352221D01*
X0193366Y0352193D01*
X0192866Y0352193D01*
X0193133Y0352461D01*
X0193366Y0352193D02*
X0196133Y0352193D01*
D22*
X0193133Y0352461D03*
X0201680Y0341393D03*
X0204625Y0347678D03*
X0204629Y0355604D03*
X0213176Y0355468D03*
X0213117Y0347417D03*
X0213274Y0341393D03*
X0207703Y0337496D03*
X0202487Y0333618D03*
X0206955Y0329819D03*
X0202526Y0325271D03*
X0212467Y0326098D03*
X0213235Y0333441D03*
X0200226Y0364566D03*
X0209956Y0370575D03*
X0223664Y0382960D03*
X0227888Y0400086D03*
X0223361Y0417697D03*
X0210534Y0430220D03*
X0193333Y0434783D03*
X0175936Y0430220D03*
X0163018Y0417606D03*
X0158688Y0400086D03*
X0163412Y0382960D03*
X0175814Y0369665D03*
X0175302Y0355567D03*
X0175302Y0347358D03*
X0175144Y0341393D03*
X0181010Y0337476D03*
X0186503Y0341748D03*
X0183983Y0347653D03*
X0183844Y0355570D03*
X0188206Y0364660D03*
X0175184Y0333539D03*
X0180971Y0329071D03*
X0185853Y0325508D03*
X0175164Y0325468D03*
X0260688Y0400086D03*
X0265018Y0417606D03*
X0277936Y0430220D03*
X0295333Y0434783D03*
X0312534Y0430220D03*
X0325361Y0417697D03*
X0329888Y0400086D03*
X0325664Y0382960D03*
X0311956Y0370575D03*
X0302226Y0364566D03*
X0306629Y0355604D03*
X0306625Y0347678D03*
X0303680Y0341393D03*
X0309703Y0337496D03*
X0304487Y0333618D03*
X0308955Y0329819D03*
X0304526Y0325271D03*
X0314467Y0326098D03*
X0315235Y0333441D03*
X0315274Y0341393D03*
X0315117Y0347417D03*
X0315176Y0355468D03*
X0295133Y0352461D03*
X0288503Y0341748D03*
X0285983Y0347653D03*
X0285844Y0355570D03*
X0277302Y0355567D03*
X0277302Y0347358D03*
X0277144Y0341393D03*
X0283010Y0337476D03*
X0277184Y0333539D03*
X0282971Y0329071D03*
X0287853Y0325508D03*
X0277164Y0325468D03*
X0290206Y0364660D03*
X0277814Y0369665D03*
X0265412Y0382960D03*
X0277164Y0477468D03*
X0282971Y0481071D03*
X0287853Y0477508D03*
X0283010Y0489476D03*
X0288503Y0493748D03*
X0285983Y0499653D03*
X0277302Y0499358D03*
X0277144Y0493393D03*
X0277184Y0485539D03*
X0295133Y0504461D03*
X0285844Y0507570D03*
X0277302Y0507567D03*
X0277814Y0521665D03*
X0290206Y0516660D03*
X0302226Y0516566D03*
X0306629Y0507604D03*
X0306625Y0499678D03*
X0303680Y0493393D03*
X0309703Y0489496D03*
X0304487Y0485618D03*
X0308955Y0481819D03*
X0304526Y0477271D03*
X0314467Y0478098D03*
X0315235Y0485441D03*
X0315274Y0493393D03*
X0315117Y0499417D03*
X0315176Y0507468D03*
X0311956Y0522575D03*
X0325664Y0534960D03*
X0329888Y0552086D03*
X0325361Y0569697D03*
X0312534Y0582220D03*
X0295333Y0586783D03*
X0277936Y0582220D03*
X0265018Y0569606D03*
X0260688Y0552086D03*
X0265412Y0534960D03*
X0227888Y0552086D03*
X0223664Y0534960D03*
X0209956Y0522575D03*
X0200226Y0516566D03*
X0204629Y0507604D03*
X0213176Y0507468D03*
X0213117Y0499417D03*
X0213274Y0493393D03*
X0207703Y0489496D03*
X0202487Y0485618D03*
X0206955Y0481819D03*
X0202526Y0477271D03*
X0212467Y0478098D03*
X0213235Y0485441D03*
X0201680Y0493393D03*
X0204625Y0499678D03*
X0193133Y0504461D03*
X0183844Y0507570D03*
X0188206Y0516660D03*
X0175814Y0521665D03*
X0175302Y0507567D03*
X0175302Y0499358D03*
X0175144Y0493393D03*
X0181010Y0489476D03*
X0186503Y0493748D03*
X0183983Y0499653D03*
X0175184Y0485539D03*
X0180971Y0481071D03*
X0185853Y0477508D03*
X0175164Y0477468D03*
X0163412Y0534960D03*
X0158688Y0552086D03*
X0163018Y0569606D03*
X0175936Y0582220D03*
X0193333Y0586783D03*
X0210534Y0582220D03*
X0223361Y0569697D03*
X0362688Y0552086D03*
X0367412Y0534960D03*
X0379814Y0521665D03*
X0379302Y0507567D03*
X0379302Y0499358D03*
X0379144Y0493393D03*
X0385010Y0489476D03*
X0390503Y0493748D03*
X0387983Y0499653D03*
X0397133Y0504461D03*
X0387844Y0507570D03*
X0392206Y0516660D03*
X0404226Y0516566D03*
X0408629Y0507604D03*
X0417176Y0507468D03*
X0417117Y0499417D03*
X0417274Y0493393D03*
X0411703Y0489496D03*
X0406487Y0485618D03*
X0410955Y0481819D03*
X0406526Y0477271D03*
X0416467Y0478098D03*
X0417235Y0485441D03*
X0405680Y0493393D03*
X0408625Y0499678D03*
X0413956Y0522575D03*
X0427664Y0534960D03*
X0431888Y0552086D03*
X0427361Y0569697D03*
X0414534Y0582220D03*
X0397333Y0586783D03*
X0379936Y0582220D03*
X0367018Y0569606D03*
X0379184Y0485539D03*
X0384971Y0481071D03*
X0389853Y0477508D03*
X0379164Y0477468D03*
X0397333Y0434783D03*
X0414534Y0430220D03*
X0427361Y0417697D03*
X0431888Y0400086D03*
X0427664Y0382960D03*
X0413956Y0370575D03*
X0404226Y0364566D03*
X0408629Y0355604D03*
X0408625Y0347678D03*
X0405680Y0341393D03*
X0411703Y0337496D03*
X0406487Y0333618D03*
X0410955Y0329819D03*
X0406526Y0325271D03*
X0416467Y0326098D03*
X0417235Y0333441D03*
X0417274Y0341393D03*
X0417117Y0347417D03*
X0417176Y0355468D03*
X0397133Y0352461D03*
X0387844Y0355570D03*
X0387983Y0347653D03*
X0390503Y0341748D03*
X0385010Y0337476D03*
X0379184Y0333539D03*
X0384971Y0329071D03*
X0389853Y0325508D03*
X0379164Y0325468D03*
X0379144Y0341393D03*
X0379302Y0347358D03*
X0379302Y0355567D03*
X0379814Y0369665D03*
X0367412Y0382960D03*
X0362688Y0400086D03*
X0367018Y0417606D03*
X0379936Y0430220D03*
X0392206Y0364660D03*
D23*
X0389262Y0356852D02*
X0389262Y0342712D01*
X0391822Y0342712D01*
X0391822Y0338593D01*
X0391726Y0338593D01*
X0391726Y0333263D01*
X0390926Y0333263D01*
X0390926Y0338593D01*
X0389469Y0338593D01*
X0389113Y0338498D01*
X0388793Y0338314D01*
X0388533Y0338053D01*
X0388348Y0337734D01*
X0388253Y0337378D01*
X0388253Y0333263D01*
X0390926Y0333263D01*
X0390926Y0332463D01*
X0388253Y0332463D01*
X0388253Y0328348D01*
X0388348Y0327992D01*
X0388533Y0327672D01*
X0388793Y0327412D01*
X0389113Y0327227D01*
X0389469Y0327132D01*
X0390926Y0327132D01*
X0390926Y0332463D01*
X0391726Y0332463D01*
X0391726Y0327132D01*
X0391822Y0327132D01*
X0391822Y0324208D01*
X0378239Y0324208D01*
X0378239Y0356852D01*
X0389262Y0356852D01*
X0389262Y0356470D02*
X0378239Y0356470D01*
X0378239Y0355672D02*
X0389262Y0355672D01*
X0389262Y0354873D02*
X0378239Y0354873D01*
X0378239Y0354075D02*
X0389262Y0354075D01*
X0389262Y0353276D02*
X0378239Y0353276D01*
X0378239Y0352477D02*
X0389262Y0352477D01*
X0389262Y0351679D02*
X0378239Y0351679D01*
X0378239Y0350880D02*
X0389262Y0350880D01*
X0389262Y0350082D02*
X0378239Y0350082D01*
X0378239Y0349283D02*
X0389262Y0349283D01*
X0389262Y0348485D02*
X0378239Y0348485D01*
X0378239Y0347686D02*
X0389262Y0347686D01*
X0389262Y0346888D02*
X0378239Y0346888D01*
X0378239Y0346089D02*
X0389262Y0346089D01*
X0389262Y0345291D02*
X0378239Y0345291D01*
X0378239Y0344492D02*
X0389262Y0344492D01*
X0389262Y0343694D02*
X0378239Y0343694D01*
X0378239Y0342895D02*
X0389262Y0342895D01*
X0391822Y0342097D02*
X0378239Y0342097D01*
X0378239Y0341298D02*
X0391822Y0341298D01*
X0391822Y0340500D02*
X0378239Y0340500D01*
X0378239Y0339701D02*
X0391822Y0339701D01*
X0391822Y0338903D02*
X0378239Y0338903D01*
X0378239Y0338104D02*
X0388584Y0338104D01*
X0388253Y0337306D02*
X0378239Y0337306D01*
X0378239Y0336507D02*
X0388253Y0336507D01*
X0388253Y0335709D02*
X0378239Y0335709D01*
X0378239Y0334910D02*
X0388253Y0334910D01*
X0388253Y0334112D02*
X0378239Y0334112D01*
X0378239Y0333313D02*
X0388253Y0333313D01*
X0388253Y0331716D02*
X0378239Y0331716D01*
X0378239Y0330918D02*
X0388253Y0330918D01*
X0388253Y0330119D02*
X0378239Y0330119D01*
X0378239Y0329321D02*
X0388253Y0329321D01*
X0388253Y0328522D02*
X0378239Y0328522D01*
X0378239Y0327724D02*
X0388503Y0327724D01*
X0390926Y0327724D02*
X0391726Y0327724D01*
X0391726Y0328522D02*
X0390926Y0328522D01*
X0390926Y0329321D02*
X0391726Y0329321D01*
X0391726Y0330119D02*
X0390926Y0330119D01*
X0390926Y0330918D02*
X0391726Y0330918D01*
X0391726Y0331716D02*
X0390926Y0331716D01*
X0390926Y0332515D02*
X0378239Y0332515D01*
X0378239Y0326925D02*
X0391822Y0326925D01*
X0391822Y0326127D02*
X0378239Y0326127D01*
X0378239Y0325328D02*
X0391822Y0325328D01*
X0391822Y0324530D02*
X0378239Y0324530D01*
X0390926Y0333313D02*
X0391726Y0333313D01*
X0391726Y0334112D02*
X0390926Y0334112D01*
X0390926Y0334910D02*
X0391726Y0334910D01*
X0391726Y0335709D02*
X0390926Y0335709D01*
X0390926Y0336507D02*
X0391726Y0336507D01*
X0391726Y0337306D02*
X0390926Y0337306D01*
X0390926Y0338104D02*
X0391726Y0338104D01*
X0404617Y0338354D02*
X0404617Y0342712D01*
X0407570Y0342712D01*
X0407570Y0354822D01*
X0407684Y0354936D01*
X0407684Y0356852D01*
X0418199Y0356852D01*
X0418199Y0324208D01*
X0404617Y0324208D01*
X0404617Y0327372D01*
X0404686Y0327412D01*
X0404947Y0327672D01*
X0405131Y0327992D01*
X0405226Y0328348D01*
X0405226Y0332463D01*
X0404617Y0332463D01*
X0404617Y0333263D01*
X0405226Y0333263D01*
X0405226Y0337378D01*
X0405131Y0337734D01*
X0404947Y0338053D01*
X0404686Y0338314D01*
X0404617Y0338354D01*
X0404895Y0338104D02*
X0418199Y0338104D01*
X0418199Y0337306D02*
X0405226Y0337306D01*
X0405226Y0336507D02*
X0418199Y0336507D01*
X0418199Y0335709D02*
X0405226Y0335709D01*
X0405226Y0334910D02*
X0418199Y0334910D01*
X0418199Y0334112D02*
X0405226Y0334112D01*
X0405226Y0333313D02*
X0418199Y0333313D01*
X0418199Y0332515D02*
X0404617Y0332515D01*
X0405226Y0331716D02*
X0418199Y0331716D01*
X0418199Y0330918D02*
X0405226Y0330918D01*
X0405226Y0330119D02*
X0418199Y0330119D01*
X0418199Y0329321D02*
X0405226Y0329321D01*
X0405226Y0328522D02*
X0418199Y0328522D01*
X0418199Y0327724D02*
X0404976Y0327724D01*
X0404617Y0326925D02*
X0418199Y0326925D01*
X0418199Y0326127D02*
X0404617Y0326127D01*
X0404617Y0325328D02*
X0418199Y0325328D01*
X0418199Y0324530D02*
X0404617Y0324530D01*
X0404617Y0338903D02*
X0418199Y0338903D01*
X0418199Y0339701D02*
X0404617Y0339701D01*
X0404617Y0340500D02*
X0418199Y0340500D01*
X0418199Y0341298D02*
X0404617Y0341298D01*
X0404617Y0342097D02*
X0418199Y0342097D01*
X0418199Y0342895D02*
X0407570Y0342895D01*
X0407570Y0343694D02*
X0418199Y0343694D01*
X0418199Y0344492D02*
X0407570Y0344492D01*
X0407570Y0345291D02*
X0418199Y0345291D01*
X0418199Y0346089D02*
X0407570Y0346089D01*
X0407570Y0346888D02*
X0418199Y0346888D01*
X0418199Y0347686D02*
X0407570Y0347686D01*
X0407570Y0348485D02*
X0418199Y0348485D01*
X0418199Y0349283D02*
X0407570Y0349283D01*
X0407570Y0350082D02*
X0418199Y0350082D01*
X0418199Y0350880D02*
X0407570Y0350880D01*
X0407570Y0351679D02*
X0418199Y0351679D01*
X0418199Y0352477D02*
X0407570Y0352477D01*
X0407570Y0353276D02*
X0418199Y0353276D01*
X0418199Y0354075D02*
X0407570Y0354075D01*
X0407621Y0354873D02*
X0418199Y0354873D01*
X0418199Y0355672D02*
X0407684Y0355672D01*
X0407684Y0356470D02*
X0418199Y0356470D01*
X0316199Y0356470D02*
X0305684Y0356470D01*
X0305684Y0356852D02*
X0316199Y0356852D01*
X0316199Y0324208D01*
X0302617Y0324208D01*
X0302617Y0327372D01*
X0302686Y0327412D01*
X0302947Y0327672D01*
X0303131Y0327992D01*
X0303226Y0328348D01*
X0303226Y0332463D01*
X0302617Y0332463D01*
X0302617Y0333263D01*
X0303226Y0333263D01*
X0303226Y0337378D01*
X0303131Y0337734D01*
X0302947Y0338053D01*
X0302686Y0338314D01*
X0302617Y0338354D01*
X0302617Y0342712D01*
X0305570Y0342712D01*
X0305570Y0354822D01*
X0305684Y0354936D01*
X0305684Y0356852D01*
X0305684Y0355672D02*
X0316199Y0355672D01*
X0316199Y0354873D02*
X0305621Y0354873D01*
X0305570Y0354075D02*
X0316199Y0354075D01*
X0316199Y0353276D02*
X0305570Y0353276D01*
X0305570Y0352477D02*
X0316199Y0352477D01*
X0316199Y0351679D02*
X0305570Y0351679D01*
X0305570Y0350880D02*
X0316199Y0350880D01*
X0316199Y0350082D02*
X0305570Y0350082D01*
X0305570Y0349283D02*
X0316199Y0349283D01*
X0316199Y0348485D02*
X0305570Y0348485D01*
X0305570Y0347686D02*
X0316199Y0347686D01*
X0316199Y0346888D02*
X0305570Y0346888D01*
X0305570Y0346089D02*
X0316199Y0346089D01*
X0316199Y0345291D02*
X0305570Y0345291D01*
X0305570Y0344492D02*
X0316199Y0344492D01*
X0316199Y0343694D02*
X0305570Y0343694D01*
X0305570Y0342895D02*
X0316199Y0342895D01*
X0316199Y0342097D02*
X0302617Y0342097D01*
X0302617Y0341298D02*
X0316199Y0341298D01*
X0316199Y0340500D02*
X0302617Y0340500D01*
X0302617Y0339701D02*
X0316199Y0339701D01*
X0316199Y0338903D02*
X0302617Y0338903D01*
X0302895Y0338104D02*
X0316199Y0338104D01*
X0316199Y0337306D02*
X0303226Y0337306D01*
X0303226Y0336507D02*
X0316199Y0336507D01*
X0316199Y0335709D02*
X0303226Y0335709D01*
X0303226Y0334910D02*
X0316199Y0334910D01*
X0316199Y0334112D02*
X0303226Y0334112D01*
X0303226Y0333313D02*
X0316199Y0333313D01*
X0316199Y0332515D02*
X0302617Y0332515D01*
X0303226Y0331716D02*
X0316199Y0331716D01*
X0316199Y0330918D02*
X0303226Y0330918D01*
X0303226Y0330119D02*
X0316199Y0330119D01*
X0316199Y0329321D02*
X0303226Y0329321D01*
X0303226Y0328522D02*
X0316199Y0328522D01*
X0316199Y0327724D02*
X0302976Y0327724D01*
X0302617Y0326925D02*
X0316199Y0326925D01*
X0316199Y0326127D02*
X0302617Y0326127D01*
X0302617Y0325328D02*
X0316199Y0325328D01*
X0316199Y0324530D02*
X0302617Y0324530D01*
X0289822Y0324530D02*
X0276239Y0324530D01*
X0276239Y0324208D02*
X0276239Y0356852D01*
X0287262Y0356852D01*
X0287262Y0342712D01*
X0289822Y0342712D01*
X0289822Y0338593D01*
X0289726Y0338593D01*
X0289726Y0333263D01*
X0288926Y0333263D01*
X0288926Y0338593D01*
X0287469Y0338593D01*
X0287113Y0338498D01*
X0286793Y0338314D01*
X0286533Y0338053D01*
X0286348Y0337734D01*
X0286253Y0337378D01*
X0286253Y0333263D01*
X0288926Y0333263D01*
X0288926Y0332463D01*
X0286253Y0332463D01*
X0286253Y0328348D01*
X0286348Y0327992D01*
X0286533Y0327672D01*
X0286793Y0327412D01*
X0287113Y0327227D01*
X0287469Y0327132D01*
X0288926Y0327132D01*
X0288926Y0332463D01*
X0289726Y0332463D01*
X0289726Y0327132D01*
X0289822Y0327132D01*
X0289822Y0324208D01*
X0276239Y0324208D01*
X0276239Y0325328D02*
X0289822Y0325328D01*
X0289822Y0326127D02*
X0276239Y0326127D01*
X0276239Y0326925D02*
X0289822Y0326925D01*
X0289726Y0327724D02*
X0288926Y0327724D01*
X0288926Y0328522D02*
X0289726Y0328522D01*
X0289726Y0329321D02*
X0288926Y0329321D01*
X0288926Y0330119D02*
X0289726Y0330119D01*
X0289726Y0330918D02*
X0288926Y0330918D01*
X0288926Y0331716D02*
X0289726Y0331716D01*
X0288926Y0332515D02*
X0276239Y0332515D01*
X0276239Y0333313D02*
X0286253Y0333313D01*
X0286253Y0334112D02*
X0276239Y0334112D01*
X0276239Y0334910D02*
X0286253Y0334910D01*
X0286253Y0335709D02*
X0276239Y0335709D01*
X0276239Y0336507D02*
X0286253Y0336507D01*
X0286253Y0337306D02*
X0276239Y0337306D01*
X0276239Y0338104D02*
X0286584Y0338104D01*
X0288926Y0338104D02*
X0289726Y0338104D01*
X0289726Y0337306D02*
X0288926Y0337306D01*
X0288926Y0336507D02*
X0289726Y0336507D01*
X0289726Y0335709D02*
X0288926Y0335709D01*
X0288926Y0334910D02*
X0289726Y0334910D01*
X0289726Y0334112D02*
X0288926Y0334112D01*
X0288926Y0333313D02*
X0289726Y0333313D01*
X0286253Y0331716D02*
X0276239Y0331716D01*
X0276239Y0330918D02*
X0286253Y0330918D01*
X0286253Y0330119D02*
X0276239Y0330119D01*
X0276239Y0329321D02*
X0286253Y0329321D01*
X0286253Y0328522D02*
X0276239Y0328522D01*
X0276239Y0327724D02*
X0286503Y0327724D01*
X0289822Y0338903D02*
X0276239Y0338903D01*
X0276239Y0339701D02*
X0289822Y0339701D01*
X0289822Y0340500D02*
X0276239Y0340500D01*
X0276239Y0341298D02*
X0289822Y0341298D01*
X0289822Y0342097D02*
X0276239Y0342097D01*
X0276239Y0342895D02*
X0287262Y0342895D01*
X0287262Y0343694D02*
X0276239Y0343694D01*
X0276239Y0344492D02*
X0287262Y0344492D01*
X0287262Y0345291D02*
X0276239Y0345291D01*
X0276239Y0346089D02*
X0287262Y0346089D01*
X0287262Y0346888D02*
X0276239Y0346888D01*
X0276239Y0347686D02*
X0287262Y0347686D01*
X0287262Y0348485D02*
X0276239Y0348485D01*
X0276239Y0349283D02*
X0287262Y0349283D01*
X0287262Y0350082D02*
X0276239Y0350082D01*
X0276239Y0350880D02*
X0287262Y0350880D01*
X0287262Y0351679D02*
X0276239Y0351679D01*
X0276239Y0352477D02*
X0287262Y0352477D01*
X0287262Y0353276D02*
X0276239Y0353276D01*
X0276239Y0354075D02*
X0287262Y0354075D01*
X0287262Y0354873D02*
X0276239Y0354873D01*
X0276239Y0355672D02*
X0287262Y0355672D01*
X0287262Y0356470D02*
X0276239Y0356470D01*
X0214199Y0356470D02*
X0203684Y0356470D01*
X0203684Y0356852D02*
X0214199Y0356852D01*
X0214199Y0324208D01*
X0200617Y0324208D01*
X0200617Y0327372D01*
X0200686Y0327412D01*
X0200947Y0327672D01*
X0201131Y0327992D01*
X0201226Y0328348D01*
X0201226Y0332463D01*
X0200617Y0332463D01*
X0200617Y0333263D01*
X0201226Y0333263D01*
X0201226Y0337378D01*
X0201131Y0337734D01*
X0200947Y0338053D01*
X0200686Y0338314D01*
X0200617Y0338354D01*
X0200617Y0342712D01*
X0203570Y0342712D01*
X0203570Y0354822D01*
X0203684Y0354936D01*
X0203684Y0356852D01*
X0203684Y0355672D02*
X0214199Y0355672D01*
X0214199Y0354873D02*
X0203621Y0354873D01*
X0203570Y0354075D02*
X0214199Y0354075D01*
X0214199Y0353276D02*
X0203570Y0353276D01*
X0203570Y0352477D02*
X0214199Y0352477D01*
X0214199Y0351679D02*
X0203570Y0351679D01*
X0203570Y0350880D02*
X0214199Y0350880D01*
X0214199Y0350082D02*
X0203570Y0350082D01*
X0203570Y0349283D02*
X0214199Y0349283D01*
X0214199Y0348485D02*
X0203570Y0348485D01*
X0203570Y0347686D02*
X0214199Y0347686D01*
X0214199Y0346888D02*
X0203570Y0346888D01*
X0203570Y0346089D02*
X0214199Y0346089D01*
X0214199Y0345291D02*
X0203570Y0345291D01*
X0203570Y0344492D02*
X0214199Y0344492D01*
X0214199Y0343694D02*
X0203570Y0343694D01*
X0203570Y0342895D02*
X0214199Y0342895D01*
X0214199Y0342097D02*
X0200617Y0342097D01*
X0200617Y0341298D02*
X0214199Y0341298D01*
X0214199Y0340500D02*
X0200617Y0340500D01*
X0200617Y0339701D02*
X0214199Y0339701D01*
X0214199Y0338903D02*
X0200617Y0338903D01*
X0200895Y0338104D02*
X0214199Y0338104D01*
X0214199Y0337306D02*
X0201226Y0337306D01*
X0201226Y0336507D02*
X0214199Y0336507D01*
X0214199Y0335709D02*
X0201226Y0335709D01*
X0201226Y0334910D02*
X0214199Y0334910D01*
X0214199Y0334112D02*
X0201226Y0334112D01*
X0201226Y0333313D02*
X0214199Y0333313D01*
X0214199Y0332515D02*
X0200617Y0332515D01*
X0201226Y0331716D02*
X0214199Y0331716D01*
X0214199Y0330918D02*
X0201226Y0330918D01*
X0201226Y0330119D02*
X0214199Y0330119D01*
X0214199Y0329321D02*
X0201226Y0329321D01*
X0201226Y0328522D02*
X0214199Y0328522D01*
X0214199Y0327724D02*
X0200976Y0327724D01*
X0200617Y0326925D02*
X0214199Y0326925D01*
X0214199Y0326127D02*
X0200617Y0326127D01*
X0200617Y0325328D02*
X0214199Y0325328D01*
X0214199Y0324530D02*
X0200617Y0324530D01*
X0187822Y0324530D02*
X0174239Y0324530D01*
X0174239Y0324208D02*
X0174239Y0356852D01*
X0185262Y0356852D01*
X0185262Y0342712D01*
X0187822Y0342712D01*
X0187822Y0338593D01*
X0187726Y0338593D01*
X0187726Y0333263D01*
X0186926Y0333263D01*
X0186926Y0338593D01*
X0185469Y0338593D01*
X0185113Y0338498D01*
X0184793Y0338314D01*
X0184533Y0338053D01*
X0184348Y0337734D01*
X0184253Y0337378D01*
X0184253Y0333263D01*
X0186926Y0333263D01*
X0186926Y0332463D01*
X0184253Y0332463D01*
X0184253Y0328348D01*
X0184348Y0327992D01*
X0184533Y0327672D01*
X0184793Y0327412D01*
X0185113Y0327227D01*
X0185469Y0327132D01*
X0186926Y0327132D01*
X0186926Y0332463D01*
X0187726Y0332463D01*
X0187726Y0327132D01*
X0187822Y0327132D01*
X0187822Y0324208D01*
X0174239Y0324208D01*
X0174239Y0325328D02*
X0187822Y0325328D01*
X0187822Y0326127D02*
X0174239Y0326127D01*
X0174239Y0326925D02*
X0187822Y0326925D01*
X0187726Y0327724D02*
X0186926Y0327724D01*
X0186926Y0328522D02*
X0187726Y0328522D01*
X0187726Y0329321D02*
X0186926Y0329321D01*
X0186926Y0330119D02*
X0187726Y0330119D01*
X0187726Y0330918D02*
X0186926Y0330918D01*
X0186926Y0331716D02*
X0187726Y0331716D01*
X0186926Y0332515D02*
X0174239Y0332515D01*
X0174239Y0333313D02*
X0184253Y0333313D01*
X0184253Y0334112D02*
X0174239Y0334112D01*
X0174239Y0334910D02*
X0184253Y0334910D01*
X0184253Y0335709D02*
X0174239Y0335709D01*
X0174239Y0336507D02*
X0184253Y0336507D01*
X0184253Y0337306D02*
X0174239Y0337306D01*
X0174239Y0338104D02*
X0184584Y0338104D01*
X0186926Y0338104D02*
X0187726Y0338104D01*
X0187726Y0337306D02*
X0186926Y0337306D01*
X0186926Y0336507D02*
X0187726Y0336507D01*
X0187726Y0335709D02*
X0186926Y0335709D01*
X0186926Y0334910D02*
X0187726Y0334910D01*
X0187726Y0334112D02*
X0186926Y0334112D01*
X0186926Y0333313D02*
X0187726Y0333313D01*
X0184253Y0331716D02*
X0174239Y0331716D01*
X0174239Y0330918D02*
X0184253Y0330918D01*
X0184253Y0330119D02*
X0174239Y0330119D01*
X0174239Y0329321D02*
X0184253Y0329321D01*
X0184253Y0328522D02*
X0174239Y0328522D01*
X0174239Y0327724D02*
X0184503Y0327724D01*
X0187822Y0338903D02*
X0174239Y0338903D01*
X0174239Y0339701D02*
X0187822Y0339701D01*
X0187822Y0340500D02*
X0174239Y0340500D01*
X0174239Y0341298D02*
X0187822Y0341298D01*
X0187822Y0342097D02*
X0174239Y0342097D01*
X0174239Y0342895D02*
X0185262Y0342895D01*
X0185262Y0343694D02*
X0174239Y0343694D01*
X0174239Y0344492D02*
X0185262Y0344492D01*
X0185262Y0345291D02*
X0174239Y0345291D01*
X0174239Y0346089D02*
X0185262Y0346089D01*
X0185262Y0346888D02*
X0174239Y0346888D01*
X0174239Y0347686D02*
X0185262Y0347686D01*
X0185262Y0348485D02*
X0174239Y0348485D01*
X0174239Y0349283D02*
X0185262Y0349283D01*
X0185262Y0350082D02*
X0174239Y0350082D01*
X0174239Y0350880D02*
X0185262Y0350880D01*
X0185262Y0351679D02*
X0174239Y0351679D01*
X0174239Y0352477D02*
X0185262Y0352477D01*
X0185262Y0353276D02*
X0174239Y0353276D01*
X0174239Y0354075D02*
X0185262Y0354075D01*
X0185262Y0354873D02*
X0174239Y0354873D01*
X0174239Y0355672D02*
X0185262Y0355672D01*
X0185262Y0356470D02*
X0174239Y0356470D01*
X0174239Y0476208D02*
X0174239Y0508852D01*
X0185262Y0508852D01*
X0185262Y0494712D01*
X0187822Y0494712D01*
X0187822Y0490593D01*
X0187726Y0490593D01*
X0187726Y0485263D01*
X0186926Y0485263D01*
X0186926Y0490593D01*
X0185469Y0490593D01*
X0185113Y0490498D01*
X0184793Y0490314D01*
X0184533Y0490053D01*
X0184348Y0489734D01*
X0184253Y0489378D01*
X0184253Y0485263D01*
X0186926Y0485263D01*
X0186926Y0484463D01*
X0184253Y0484463D01*
X0184253Y0480348D01*
X0184348Y0479992D01*
X0184533Y0479672D01*
X0184793Y0479412D01*
X0185113Y0479227D01*
X0185469Y0479132D01*
X0186926Y0479132D01*
X0186926Y0484463D01*
X0187726Y0484463D01*
X0187726Y0479132D01*
X0187822Y0479132D01*
X0187822Y0476208D01*
X0174239Y0476208D01*
X0174239Y0476247D02*
X0187822Y0476247D01*
X0187822Y0477045D02*
X0174239Y0477045D01*
X0174239Y0477844D02*
X0187822Y0477844D01*
X0187822Y0478642D02*
X0174239Y0478642D01*
X0174239Y0479441D02*
X0184764Y0479441D01*
X0184282Y0480239D02*
X0174239Y0480239D01*
X0174239Y0481038D02*
X0184253Y0481038D01*
X0184253Y0481836D02*
X0174239Y0481836D01*
X0174239Y0482635D02*
X0184253Y0482635D01*
X0184253Y0483433D02*
X0174239Y0483433D01*
X0174239Y0484232D02*
X0184253Y0484232D01*
X0184253Y0485829D02*
X0174239Y0485829D01*
X0174239Y0486627D02*
X0184253Y0486627D01*
X0184253Y0487426D02*
X0174239Y0487426D01*
X0174239Y0488224D02*
X0184253Y0488224D01*
X0184253Y0489023D02*
X0174239Y0489023D01*
X0174239Y0489821D02*
X0184399Y0489821D01*
X0186926Y0489821D02*
X0187726Y0489821D01*
X0187726Y0489023D02*
X0186926Y0489023D01*
X0186926Y0488224D02*
X0187726Y0488224D01*
X0187726Y0487426D02*
X0186926Y0487426D01*
X0186926Y0486627D02*
X0187726Y0486627D01*
X0187726Y0485829D02*
X0186926Y0485829D01*
X0186926Y0485030D02*
X0174239Y0485030D01*
X0174239Y0490620D02*
X0187822Y0490620D01*
X0187822Y0491418D02*
X0174239Y0491418D01*
X0174239Y0492217D02*
X0187822Y0492217D01*
X0187822Y0493015D02*
X0174239Y0493015D01*
X0174239Y0493814D02*
X0187822Y0493814D01*
X0187822Y0494612D02*
X0174239Y0494612D01*
X0174239Y0495411D02*
X0185262Y0495411D01*
X0185262Y0496210D02*
X0174239Y0496210D01*
X0174239Y0497008D02*
X0185262Y0497008D01*
X0185262Y0497807D02*
X0174239Y0497807D01*
X0174239Y0498605D02*
X0185262Y0498605D01*
X0185262Y0499404D02*
X0174239Y0499404D01*
X0174239Y0500202D02*
X0185262Y0500202D01*
X0185262Y0501001D02*
X0174239Y0501001D01*
X0174239Y0501799D02*
X0185262Y0501799D01*
X0185262Y0502598D02*
X0174239Y0502598D01*
X0174239Y0503396D02*
X0185262Y0503396D01*
X0185262Y0504195D02*
X0174239Y0504195D01*
X0174239Y0504993D02*
X0185262Y0504993D01*
X0185262Y0505792D02*
X0174239Y0505792D01*
X0174239Y0506590D02*
X0185262Y0506590D01*
X0185262Y0507389D02*
X0174239Y0507389D01*
X0174239Y0508187D02*
X0185262Y0508187D01*
X0203570Y0506822D02*
X0203570Y0494712D01*
X0200617Y0494712D01*
X0200617Y0490354D01*
X0200686Y0490314D01*
X0200947Y0490053D01*
X0201131Y0489734D01*
X0201226Y0489378D01*
X0201226Y0485263D01*
X0200617Y0485263D01*
X0200617Y0484463D01*
X0201226Y0484463D01*
X0201226Y0480348D01*
X0201131Y0479992D01*
X0200947Y0479672D01*
X0200686Y0479412D01*
X0200617Y0479372D01*
X0200617Y0476208D01*
X0214199Y0476208D01*
X0214199Y0508852D01*
X0203684Y0508852D01*
X0203684Y0506936D01*
X0203570Y0506822D01*
X0203570Y0506590D02*
X0214199Y0506590D01*
X0214199Y0505792D02*
X0203570Y0505792D01*
X0203570Y0504993D02*
X0214199Y0504993D01*
X0214199Y0504195D02*
X0203570Y0504195D01*
X0203570Y0503396D02*
X0214199Y0503396D01*
X0214199Y0502598D02*
X0203570Y0502598D01*
X0203570Y0501799D02*
X0214199Y0501799D01*
X0214199Y0501001D02*
X0203570Y0501001D01*
X0203570Y0500202D02*
X0214199Y0500202D01*
X0214199Y0499404D02*
X0203570Y0499404D01*
X0203570Y0498605D02*
X0214199Y0498605D01*
X0214199Y0497807D02*
X0203570Y0497807D01*
X0203570Y0497008D02*
X0214199Y0497008D01*
X0214199Y0496210D02*
X0203570Y0496210D01*
X0203570Y0495411D02*
X0214199Y0495411D01*
X0214199Y0494612D02*
X0200617Y0494612D01*
X0200617Y0493814D02*
X0214199Y0493814D01*
X0214199Y0493015D02*
X0200617Y0493015D01*
X0200617Y0492217D02*
X0214199Y0492217D01*
X0214199Y0491418D02*
X0200617Y0491418D01*
X0200617Y0490620D02*
X0214199Y0490620D01*
X0214199Y0489821D02*
X0201080Y0489821D01*
X0201226Y0489023D02*
X0214199Y0489023D01*
X0214199Y0488224D02*
X0201226Y0488224D01*
X0201226Y0487426D02*
X0214199Y0487426D01*
X0214199Y0486627D02*
X0201226Y0486627D01*
X0201226Y0485829D02*
X0214199Y0485829D01*
X0214199Y0485030D02*
X0200617Y0485030D01*
X0201226Y0484232D02*
X0214199Y0484232D01*
X0214199Y0483433D02*
X0201226Y0483433D01*
X0201226Y0482635D02*
X0214199Y0482635D01*
X0214199Y0481836D02*
X0201226Y0481836D01*
X0201226Y0481038D02*
X0214199Y0481038D01*
X0214199Y0480239D02*
X0201197Y0480239D01*
X0200715Y0479441D02*
X0214199Y0479441D01*
X0214199Y0478642D02*
X0200617Y0478642D01*
X0200617Y0477844D02*
X0214199Y0477844D01*
X0214199Y0477045D02*
X0200617Y0477045D01*
X0200617Y0476247D02*
X0214199Y0476247D01*
X0187726Y0479441D02*
X0186926Y0479441D01*
X0186926Y0480239D02*
X0187726Y0480239D01*
X0187726Y0481038D02*
X0186926Y0481038D01*
X0186926Y0481836D02*
X0187726Y0481836D01*
X0187726Y0482635D02*
X0186926Y0482635D01*
X0186926Y0483433D02*
X0187726Y0483433D01*
X0187726Y0484232D02*
X0186926Y0484232D01*
X0203684Y0507389D02*
X0214199Y0507389D01*
X0214199Y0508187D02*
X0203684Y0508187D01*
X0276239Y0508187D02*
X0287262Y0508187D01*
X0287262Y0508852D02*
X0287262Y0494712D01*
X0289822Y0494712D01*
X0289822Y0490593D01*
X0289726Y0490593D01*
X0289726Y0485263D01*
X0288926Y0485263D01*
X0288926Y0490593D01*
X0287469Y0490593D01*
X0287113Y0490498D01*
X0286793Y0490314D01*
X0286533Y0490053D01*
X0286348Y0489734D01*
X0286253Y0489378D01*
X0286253Y0485263D01*
X0288926Y0485263D01*
X0288926Y0484463D01*
X0286253Y0484463D01*
X0286253Y0480348D01*
X0286348Y0479992D01*
X0286533Y0479672D01*
X0286793Y0479412D01*
X0287113Y0479227D01*
X0287469Y0479132D01*
X0288926Y0479132D01*
X0288926Y0484463D01*
X0289726Y0484463D01*
X0289726Y0479132D01*
X0289822Y0479132D01*
X0289822Y0476208D01*
X0276239Y0476208D01*
X0276239Y0508852D01*
X0287262Y0508852D01*
X0287262Y0507389D02*
X0276239Y0507389D01*
X0276239Y0506590D02*
X0287262Y0506590D01*
X0287262Y0505792D02*
X0276239Y0505792D01*
X0276239Y0504993D02*
X0287262Y0504993D01*
X0287262Y0504195D02*
X0276239Y0504195D01*
X0276239Y0503396D02*
X0287262Y0503396D01*
X0287262Y0502598D02*
X0276239Y0502598D01*
X0276239Y0501799D02*
X0287262Y0501799D01*
X0287262Y0501001D02*
X0276239Y0501001D01*
X0276239Y0500202D02*
X0287262Y0500202D01*
X0287262Y0499404D02*
X0276239Y0499404D01*
X0276239Y0498605D02*
X0287262Y0498605D01*
X0287262Y0497807D02*
X0276239Y0497807D01*
X0276239Y0497008D02*
X0287262Y0497008D01*
X0287262Y0496210D02*
X0276239Y0496210D01*
X0276239Y0495411D02*
X0287262Y0495411D01*
X0289822Y0494612D02*
X0276239Y0494612D01*
X0276239Y0493814D02*
X0289822Y0493814D01*
X0289822Y0493015D02*
X0276239Y0493015D01*
X0276239Y0492217D02*
X0289822Y0492217D01*
X0289822Y0491418D02*
X0276239Y0491418D01*
X0276239Y0490620D02*
X0289822Y0490620D01*
X0289726Y0489821D02*
X0288926Y0489821D01*
X0288926Y0489023D02*
X0289726Y0489023D01*
X0289726Y0488224D02*
X0288926Y0488224D01*
X0288926Y0487426D02*
X0289726Y0487426D01*
X0289726Y0486627D02*
X0288926Y0486627D01*
X0288926Y0485829D02*
X0289726Y0485829D01*
X0288926Y0485030D02*
X0276239Y0485030D01*
X0276239Y0484232D02*
X0286253Y0484232D01*
X0286253Y0483433D02*
X0276239Y0483433D01*
X0276239Y0482635D02*
X0286253Y0482635D01*
X0286253Y0481836D02*
X0276239Y0481836D01*
X0276239Y0481038D02*
X0286253Y0481038D01*
X0286282Y0480239D02*
X0276239Y0480239D01*
X0276239Y0479441D02*
X0286764Y0479441D01*
X0288926Y0479441D02*
X0289726Y0479441D01*
X0289726Y0480239D02*
X0288926Y0480239D01*
X0288926Y0481038D02*
X0289726Y0481038D01*
X0289726Y0481836D02*
X0288926Y0481836D01*
X0288926Y0482635D02*
X0289726Y0482635D01*
X0289726Y0483433D02*
X0288926Y0483433D01*
X0288926Y0484232D02*
X0289726Y0484232D01*
X0286253Y0485829D02*
X0276239Y0485829D01*
X0276239Y0486627D02*
X0286253Y0486627D01*
X0286253Y0487426D02*
X0276239Y0487426D01*
X0276239Y0488224D02*
X0286253Y0488224D01*
X0286253Y0489023D02*
X0276239Y0489023D01*
X0276239Y0489821D02*
X0286399Y0489821D01*
X0289822Y0478642D02*
X0276239Y0478642D01*
X0276239Y0477844D02*
X0289822Y0477844D01*
X0289822Y0477045D02*
X0276239Y0477045D01*
X0276239Y0476247D02*
X0289822Y0476247D01*
X0302617Y0476247D02*
X0316199Y0476247D01*
X0316199Y0476208D02*
X0302617Y0476208D01*
X0302617Y0479372D01*
X0302686Y0479412D01*
X0302947Y0479672D01*
X0303131Y0479992D01*
X0303226Y0480348D01*
X0303226Y0484463D01*
X0302617Y0484463D01*
X0302617Y0485263D01*
X0303226Y0485263D01*
X0303226Y0489378D01*
X0303131Y0489734D01*
X0302947Y0490053D01*
X0302686Y0490314D01*
X0302617Y0490354D01*
X0302617Y0494712D01*
X0305570Y0494712D01*
X0305570Y0506822D01*
X0305684Y0506936D01*
X0305684Y0508852D01*
X0316199Y0508852D01*
X0316199Y0476208D01*
X0316199Y0477045D02*
X0302617Y0477045D01*
X0302617Y0477844D02*
X0316199Y0477844D01*
X0316199Y0478642D02*
X0302617Y0478642D01*
X0302715Y0479441D02*
X0316199Y0479441D01*
X0316199Y0480239D02*
X0303197Y0480239D01*
X0303226Y0481038D02*
X0316199Y0481038D01*
X0316199Y0481836D02*
X0303226Y0481836D01*
X0303226Y0482635D02*
X0316199Y0482635D01*
X0316199Y0483433D02*
X0303226Y0483433D01*
X0303226Y0484232D02*
X0316199Y0484232D01*
X0316199Y0485030D02*
X0302617Y0485030D01*
X0303226Y0485829D02*
X0316199Y0485829D01*
X0316199Y0486627D02*
X0303226Y0486627D01*
X0303226Y0487426D02*
X0316199Y0487426D01*
X0316199Y0488224D02*
X0303226Y0488224D01*
X0303226Y0489023D02*
X0316199Y0489023D01*
X0316199Y0489821D02*
X0303080Y0489821D01*
X0302617Y0490620D02*
X0316199Y0490620D01*
X0316199Y0491418D02*
X0302617Y0491418D01*
X0302617Y0492217D02*
X0316199Y0492217D01*
X0316199Y0493015D02*
X0302617Y0493015D01*
X0302617Y0493814D02*
X0316199Y0493814D01*
X0316199Y0494612D02*
X0302617Y0494612D01*
X0305570Y0495411D02*
X0316199Y0495411D01*
X0316199Y0496210D02*
X0305570Y0496210D01*
X0305570Y0497008D02*
X0316199Y0497008D01*
X0316199Y0497807D02*
X0305570Y0497807D01*
X0305570Y0498605D02*
X0316199Y0498605D01*
X0316199Y0499404D02*
X0305570Y0499404D01*
X0305570Y0500202D02*
X0316199Y0500202D01*
X0316199Y0501001D02*
X0305570Y0501001D01*
X0305570Y0501799D02*
X0316199Y0501799D01*
X0316199Y0502598D02*
X0305570Y0502598D01*
X0305570Y0503396D02*
X0316199Y0503396D01*
X0316199Y0504195D02*
X0305570Y0504195D01*
X0305570Y0504993D02*
X0316199Y0504993D01*
X0316199Y0505792D02*
X0305570Y0505792D01*
X0305570Y0506590D02*
X0316199Y0506590D01*
X0316199Y0507389D02*
X0305684Y0507389D01*
X0305684Y0508187D02*
X0316199Y0508187D01*
X0378239Y0508187D02*
X0389262Y0508187D01*
X0389262Y0508852D02*
X0389262Y0494712D01*
X0391822Y0494712D01*
X0391822Y0490593D01*
X0391726Y0490593D01*
X0391726Y0485263D01*
X0390926Y0485263D01*
X0390926Y0490593D01*
X0389469Y0490593D01*
X0389113Y0490498D01*
X0388793Y0490314D01*
X0388533Y0490053D01*
X0388348Y0489734D01*
X0388253Y0489378D01*
X0388253Y0485263D01*
X0390926Y0485263D01*
X0390926Y0484463D01*
X0388253Y0484463D01*
X0388253Y0480348D01*
X0388348Y0479992D01*
X0388533Y0479672D01*
X0388793Y0479412D01*
X0389113Y0479227D01*
X0389469Y0479132D01*
X0390926Y0479132D01*
X0390926Y0484463D01*
X0391726Y0484463D01*
X0391726Y0479132D01*
X0391822Y0479132D01*
X0391822Y0476208D01*
X0378239Y0476208D01*
X0378239Y0508852D01*
X0389262Y0508852D01*
X0389262Y0507389D02*
X0378239Y0507389D01*
X0378239Y0506590D02*
X0389262Y0506590D01*
X0389262Y0505792D02*
X0378239Y0505792D01*
X0378239Y0504993D02*
X0389262Y0504993D01*
X0389262Y0504195D02*
X0378239Y0504195D01*
X0378239Y0503396D02*
X0389262Y0503396D01*
X0389262Y0502598D02*
X0378239Y0502598D01*
X0378239Y0501799D02*
X0389262Y0501799D01*
X0389262Y0501001D02*
X0378239Y0501001D01*
X0378239Y0500202D02*
X0389262Y0500202D01*
X0389262Y0499404D02*
X0378239Y0499404D01*
X0378239Y0498605D02*
X0389262Y0498605D01*
X0389262Y0497807D02*
X0378239Y0497807D01*
X0378239Y0497008D02*
X0389262Y0497008D01*
X0389262Y0496210D02*
X0378239Y0496210D01*
X0378239Y0495411D02*
X0389262Y0495411D01*
X0391822Y0494612D02*
X0378239Y0494612D01*
X0378239Y0493814D02*
X0391822Y0493814D01*
X0391822Y0493015D02*
X0378239Y0493015D01*
X0378239Y0492217D02*
X0391822Y0492217D01*
X0391822Y0491418D02*
X0378239Y0491418D01*
X0378239Y0490620D02*
X0391822Y0490620D01*
X0391726Y0489821D02*
X0390926Y0489821D01*
X0390926Y0489023D02*
X0391726Y0489023D01*
X0391726Y0488224D02*
X0390926Y0488224D01*
X0390926Y0487426D02*
X0391726Y0487426D01*
X0391726Y0486627D02*
X0390926Y0486627D01*
X0390926Y0485829D02*
X0391726Y0485829D01*
X0390926Y0485030D02*
X0378239Y0485030D01*
X0378239Y0484232D02*
X0388253Y0484232D01*
X0388253Y0483433D02*
X0378239Y0483433D01*
X0378239Y0482635D02*
X0388253Y0482635D01*
X0388253Y0481836D02*
X0378239Y0481836D01*
X0378239Y0481038D02*
X0388253Y0481038D01*
X0388282Y0480239D02*
X0378239Y0480239D01*
X0378239Y0479441D02*
X0388764Y0479441D01*
X0390926Y0479441D02*
X0391726Y0479441D01*
X0391726Y0480239D02*
X0390926Y0480239D01*
X0390926Y0481038D02*
X0391726Y0481038D01*
X0391726Y0481836D02*
X0390926Y0481836D01*
X0390926Y0482635D02*
X0391726Y0482635D01*
X0391726Y0483433D02*
X0390926Y0483433D01*
X0390926Y0484232D02*
X0391726Y0484232D01*
X0388253Y0485829D02*
X0378239Y0485829D01*
X0378239Y0486627D02*
X0388253Y0486627D01*
X0388253Y0487426D02*
X0378239Y0487426D01*
X0378239Y0488224D02*
X0388253Y0488224D01*
X0388253Y0489023D02*
X0378239Y0489023D01*
X0378239Y0489821D02*
X0388399Y0489821D01*
X0391822Y0478642D02*
X0378239Y0478642D01*
X0378239Y0477844D02*
X0391822Y0477844D01*
X0391822Y0477045D02*
X0378239Y0477045D01*
X0378239Y0476247D02*
X0391822Y0476247D01*
X0404617Y0476247D02*
X0418199Y0476247D01*
X0418199Y0476208D02*
X0404617Y0476208D01*
X0404617Y0479372D01*
X0404686Y0479412D01*
X0404947Y0479672D01*
X0405131Y0479992D01*
X0405226Y0480348D01*
X0405226Y0484463D01*
X0404617Y0484463D01*
X0404617Y0485263D01*
X0405226Y0485263D01*
X0405226Y0489378D01*
X0405131Y0489734D01*
X0404947Y0490053D01*
X0404686Y0490314D01*
X0404617Y0490354D01*
X0404617Y0494712D01*
X0407570Y0494712D01*
X0407570Y0506822D01*
X0407684Y0506936D01*
X0407684Y0508852D01*
X0418199Y0508852D01*
X0418199Y0476208D01*
X0418199Y0477045D02*
X0404617Y0477045D01*
X0404617Y0477844D02*
X0418199Y0477844D01*
X0418199Y0478642D02*
X0404617Y0478642D01*
X0404715Y0479441D02*
X0418199Y0479441D01*
X0418199Y0480239D02*
X0405197Y0480239D01*
X0405226Y0481038D02*
X0418199Y0481038D01*
X0418199Y0481836D02*
X0405226Y0481836D01*
X0405226Y0482635D02*
X0418199Y0482635D01*
X0418199Y0483433D02*
X0405226Y0483433D01*
X0405226Y0484232D02*
X0418199Y0484232D01*
X0418199Y0485030D02*
X0404617Y0485030D01*
X0405226Y0485829D02*
X0418199Y0485829D01*
X0418199Y0486627D02*
X0405226Y0486627D01*
X0405226Y0487426D02*
X0418199Y0487426D01*
X0418199Y0488224D02*
X0405226Y0488224D01*
X0405226Y0489023D02*
X0418199Y0489023D01*
X0418199Y0489821D02*
X0405080Y0489821D01*
X0404617Y0490620D02*
X0418199Y0490620D01*
X0418199Y0491418D02*
X0404617Y0491418D01*
X0404617Y0492217D02*
X0418199Y0492217D01*
X0418199Y0493015D02*
X0404617Y0493015D01*
X0404617Y0493814D02*
X0418199Y0493814D01*
X0418199Y0494612D02*
X0404617Y0494612D01*
X0407570Y0495411D02*
X0418199Y0495411D01*
X0418199Y0496210D02*
X0407570Y0496210D01*
X0407570Y0497008D02*
X0418199Y0497008D01*
X0418199Y0497807D02*
X0407570Y0497807D01*
X0407570Y0498605D02*
X0418199Y0498605D01*
X0418199Y0499404D02*
X0407570Y0499404D01*
X0407570Y0500202D02*
X0418199Y0500202D01*
X0418199Y0501001D02*
X0407570Y0501001D01*
X0407570Y0501799D02*
X0418199Y0501799D01*
X0418199Y0502598D02*
X0407570Y0502598D01*
X0407570Y0503396D02*
X0418199Y0503396D01*
X0418199Y0504195D02*
X0407570Y0504195D01*
X0407570Y0504993D02*
X0418199Y0504993D01*
X0418199Y0505792D02*
X0407570Y0505792D01*
X0407570Y0506590D02*
X0418199Y0506590D01*
X0418199Y0507389D02*
X0407684Y0507389D01*
X0407684Y0508187D02*
X0418199Y0508187D01*
D24*
X0427333Y0457783D02*
X0427333Y0449897D01*
X0367333Y0449897D01*
X0367333Y0457783D01*
X0427333Y0457783D01*
X0427333Y0457542D02*
X0367333Y0457542D01*
X0367333Y0456544D02*
X0427333Y0456544D01*
X0427333Y0455545D02*
X0367333Y0455545D01*
X0367333Y0454546D02*
X0427333Y0454546D01*
X0427333Y0453548D02*
X0367333Y0453548D01*
X0367333Y0452549D02*
X0427333Y0452549D01*
X0427333Y0451551D02*
X0367333Y0451551D01*
X0367333Y0450552D02*
X0427333Y0450552D01*
X0325333Y0450552D02*
X0265333Y0450552D01*
X0265333Y0449897D02*
X0265333Y0457783D01*
X0325333Y0457783D01*
X0325333Y0449897D01*
X0265333Y0449897D01*
X0265333Y0451551D02*
X0325333Y0451551D01*
X0325333Y0452549D02*
X0265333Y0452549D01*
X0265333Y0453548D02*
X0325333Y0453548D01*
X0325333Y0454546D02*
X0265333Y0454546D01*
X0265333Y0455545D02*
X0325333Y0455545D01*
X0325333Y0456544D02*
X0265333Y0456544D01*
X0265333Y0457542D02*
X0325333Y0457542D01*
X0223333Y0457542D02*
X0163333Y0457542D01*
X0163333Y0457783D02*
X0163333Y0449897D01*
X0223333Y0449897D01*
X0223333Y0457783D01*
X0163333Y0457783D01*
X0163333Y0456544D02*
X0223333Y0456544D01*
X0223333Y0455545D02*
X0163333Y0455545D01*
X0163333Y0454546D02*
X0223333Y0454546D01*
X0223333Y0453548D02*
X0163333Y0453548D01*
X0163333Y0452549D02*
X0223333Y0452549D01*
X0223333Y0451551D02*
X0163333Y0451551D01*
X0163333Y0450552D02*
X0223333Y0450552D01*
X0223333Y0305783D02*
X0163333Y0305783D01*
X0163333Y0297883D01*
X0223333Y0297883D01*
X0223333Y0305783D01*
X0223333Y0305768D02*
X0163333Y0305768D01*
X0163333Y0304770D02*
X0223333Y0304770D01*
X0223333Y0303771D02*
X0163333Y0303771D01*
X0163333Y0302773D02*
X0223333Y0302773D01*
X0223333Y0301774D02*
X0163333Y0301774D01*
X0163333Y0300776D02*
X0223333Y0300776D01*
X0223333Y0299777D02*
X0163333Y0299777D01*
X0163333Y0298779D02*
X0223333Y0298779D01*
X0265333Y0298779D02*
X0325333Y0298779D01*
X0325333Y0297883D02*
X0265333Y0297883D01*
X0265333Y0305783D01*
X0325333Y0305783D01*
X0325333Y0297883D01*
X0325333Y0299777D02*
X0265333Y0299777D01*
X0265333Y0300776D02*
X0325333Y0300776D01*
X0325333Y0301774D02*
X0265333Y0301774D01*
X0265333Y0302773D02*
X0325333Y0302773D01*
X0325333Y0303771D02*
X0265333Y0303771D01*
X0265333Y0304770D02*
X0325333Y0304770D01*
X0325333Y0305768D02*
X0265333Y0305768D01*
X0367333Y0305783D02*
X0367333Y0297883D01*
X0427333Y0297883D01*
X0427333Y0305783D01*
X0367333Y0305783D01*
X0367333Y0305768D02*
X0427333Y0305768D01*
X0427333Y0304770D02*
X0367333Y0304770D01*
X0367333Y0303771D02*
X0427333Y0303771D01*
X0427333Y0302773D02*
X0367333Y0302773D01*
X0367333Y0301774D02*
X0427333Y0301774D01*
X0427333Y0300776D02*
X0367333Y0300776D01*
X0367333Y0299777D02*
X0427333Y0299777D01*
X0427333Y0298779D02*
X0367333Y0298779D01*
D25*
X0392333Y0300783D03*
X0402333Y0300783D03*
X0300333Y0300783D03*
X0290333Y0300783D03*
X0198333Y0300783D03*
X0188333Y0300783D03*
X0188333Y0452783D03*
X0198333Y0452783D03*
X0290333Y0452783D03*
X0300333Y0452783D03*
X0392333Y0452783D03*
X0402333Y0452783D03*
M02*
