%
M48
M72
T01C0.0150
T02C0.0400
T03C0.1300
%
T01
X6255Y6685
X6255Y7185
X6255Y7685
X6255Y8185
X6255Y8685
X6255Y9185
X6255Y9685
X6255Y10185
X6255Y10685
X7368Y11549
X8391Y11549
X9435Y10685
X9435Y10185
X9435Y9685
X9435Y9185
X9435Y8685
X9435Y8185
X9435Y7685
X9435Y7185
X9435Y6685
X7685Y8935
X6186Y12376
X4927Y13597
X4415Y15368
X4927Y17179
X6186Y18400
X7879Y18833
X9612Y18400
X10832Y17179
X11344Y15368
X10832Y13597
X9612Y12376
X14615Y15368
X15127Y13597
X16386Y12376
X17568Y11549
X18591Y11549
X19635Y10685
X19635Y10185
X19635Y9685
X19635Y9185
X19635Y8685
X19635Y8185
X19635Y7685
X19635Y7185
X19635Y6685
X17885Y8935
X16455Y8685
X16455Y8185
X16455Y7685
X16455Y7185
X16455Y6685
X16455Y9185
X16455Y9685
X16455Y10185
X16455Y10685
X19812Y12376
X21032Y13597
X21544Y15368
X21032Y17179
X19812Y18400
X18079Y18833
X16386Y18400
X15127Y17179
X16455Y23885
X16455Y24385
X16455Y24885
X16455Y25385
X16455Y25885
X16455Y26385
X16455Y26885
X16455Y27385
X16455Y27885
X17568Y28749
X18591Y28749
X19635Y27885
X19635Y27385
X19635Y26885
X19635Y26385
X19635Y25885
X19635Y25385
X19635Y24885
X19635Y24385
X19635Y23885
X17885Y26135
X16386Y29576
X15127Y30797
X14615Y32568
X15127Y34379
X16386Y35600
X18079Y36033
X19812Y35600
X21032Y34379
X21544Y32568
X21032Y30797
X19812Y29576
X24815Y32568
X25327Y30797
X26586Y29576
X27768Y28749
X28791Y28749
X29835Y27885
X29835Y27385
X29835Y26885
X29835Y26385
X29835Y25885
X29835Y25385
X29835Y24885
X29835Y24385
X29835Y23885
X28085Y26135
X26655Y25885
X26655Y25385
X26655Y24885
X26655Y24385
X26655Y23885
X26655Y26385
X26655Y26885
X26655Y27385
X26655Y27885
X30012Y29576
X31232Y30797
X31744Y32568
X31232Y34379
X30012Y35600
X28279Y36033
X26586Y35600
X25327Y34379
X35015Y32568
X35527Y30797
X36786Y29576
X37968Y28749
X38991Y28749
X40035Y27885
X40035Y27385
X40035Y26885
X40035Y26385
X40035Y25885
X40035Y25385
X40035Y24885
X40035Y24385
X40035Y23885
X38285Y26135
X36855Y25885
X36855Y25385
X36855Y24885
X36855Y24385
X36855Y23885
X36855Y26385
X36855Y26885
X36855Y27385
X36855Y27885
X40212Y29576
X41432Y30797
X41944Y32568
X41432Y34379
X40212Y35600
X38479Y36033
X36786Y35600
X35527Y34379
X38479Y18833
X36786Y18400
X35527Y17179
X35015Y15368
X35527Y13597
X36786Y12376
X37968Y11549
X38991Y11549
X40035Y10685
X40035Y10185
X40035Y9685
X40035Y9185
X40035Y8685
X40035Y8185
X40035Y7685
X40035Y7185
X40035Y6685
X38285Y8935
X36855Y8685
X36855Y8185
X36855Y7685
X36855Y7185
X36855Y6685
X36855Y9185
X36855Y9685
X36855Y10185
X36855Y10685
X40212Y12376
X41432Y13597
X41944Y15368
X41432Y17179
X40212Y18400
X31744Y15368
X31232Y13597
X30012Y12376
X28791Y11549
X27768Y11549
X26655Y10685
X26655Y10185
X26655Y9685
X26655Y9185
X26655Y8685
X26655Y8185
X26655Y7685
X26655Y7185
X26655Y6685
X28085Y8935
X29835Y8685
X29835Y8185
X29835Y7685
X29835Y7185
X29835Y6685
X29835Y9185
X29835Y9685
X29835Y10185
X29835Y10685
X26586Y12376
X25327Y13597
X24815Y15368
X25327Y17179
X26586Y18400
X28279Y18833
X30012Y18400
X31232Y17179
X11344Y32568
X10832Y30797
X9612Y29576
X8391Y28749
X7368Y28749
X6255Y27885
X6255Y27385
X6255Y26885
X6255Y26385
X6255Y25885
X6255Y25385
X6255Y24885
X6255Y24385
X6255Y23885
X7685Y26135
X9435Y25885
X9435Y25385
X9435Y24885
X9435Y24385
X9435Y23885
X9435Y26385
X9435Y26885
X9435Y27385
X9435Y27885
X6186Y29576
X4927Y30797
X4415Y32568
X4927Y34379
X6186Y35600
X7879Y36033
X9612Y35600
X10832Y34379
T02
X8375Y21075
X7375Y21075
X17575Y21075
X18575Y21075
X27775Y21075
X28775Y21075
X37975Y21075
X38975Y21075
X38975Y3875
X37975Y3875
X28775Y3875
X27775Y3875
X18575Y3875
X17575Y3875
X8375Y3875
X7375Y3875
T03
X3875Y3875
X11875Y3875
X14075Y3875
X22075Y3875
X24275Y3875
X32275Y3875
X34475Y3875
X42475Y3875
X42475Y11875
X34475Y11875
X32275Y11875
X24275Y11875
X22075Y11875
X14075Y11875
X11875Y11875
X3875Y11875
X3875Y21075
X11875Y21075
X14075Y21075
X22075Y21075
X24275Y21075
X32275Y21075
X34475Y21075
X42475Y21075
X42475Y29075
X34475Y29075
X32275Y29075
X24275Y29075
X22075Y29075
X14075Y29075
X11875Y29075
X3875Y29075
M30
