G75*
%MOIN*%
%OFA0B0*%
%FSLAX25Y25*%
%IPPOS*%
%LPD*%
%AMOC8*
5,1,8,0,0,1.08239X$1,22.5*
%
%ADD10C,0.00800*%
%ADD11C,0.01500*%
%ADD12C,0.01100*%
%ADD13C,0.01000*%
%ADD14C,0.00000*%
D10*
X0048342Y0028750D02*
X0048342Y0178750D01*
X0148342Y0178750D01*
X0148342Y0028750D01*
X0048342Y0028750D01*
X0150342Y0028750D02*
X0150342Y0178750D01*
X0250342Y0178750D01*
X0250342Y0028750D01*
X0150342Y0028750D01*
X0252342Y0028750D02*
X0252342Y0178750D01*
X0352342Y0178750D01*
X0352342Y0028750D01*
X0252342Y0028750D01*
X0252342Y0180750D02*
X0252342Y0330750D01*
X0352342Y0330750D01*
X0352342Y0180750D01*
X0252342Y0180750D01*
X0250342Y0180750D02*
X0250342Y0330750D01*
X0150342Y0330750D01*
X0150342Y0180750D01*
X0250342Y0180750D01*
X0148342Y0180750D02*
X0148342Y0330750D01*
X0048342Y0330750D01*
X0048342Y0180750D01*
X0148342Y0180750D01*
D11*
X0021342Y0179750D02*
X0404342Y0179750D01*
X0404342Y0331750D02*
X0021342Y0331750D01*
X0047342Y0382750D02*
X0047342Y0001750D01*
X0021342Y0027750D02*
X0404342Y0027750D01*
X0353342Y0001750D02*
X0353342Y0382750D01*
X0251342Y0382750D02*
X0251342Y0001750D01*
X0149342Y0001750D02*
X0149342Y0382750D01*
D12*
X0150563Y0388800D02*
X0151874Y0388800D01*
X0150563Y0388800D02*
X0150501Y0388802D01*
X0150440Y0388808D01*
X0150379Y0388817D01*
X0150319Y0388831D01*
X0150259Y0388848D01*
X0150201Y0388869D01*
X0150144Y0388894D01*
X0150089Y0388922D01*
X0150036Y0388953D01*
X0149985Y0388988D01*
X0149936Y0389026D01*
X0149890Y0389066D01*
X0149846Y0389110D01*
X0149806Y0389156D01*
X0149768Y0389205D01*
X0149733Y0389256D01*
X0149702Y0389309D01*
X0149674Y0389364D01*
X0149649Y0389421D01*
X0149628Y0389479D01*
X0149611Y0389539D01*
X0149597Y0389599D01*
X0149588Y0389660D01*
X0149582Y0389721D01*
X0149580Y0389783D01*
X0149580Y0391750D01*
X0149582Y0391812D01*
X0149588Y0391873D01*
X0149597Y0391934D01*
X0149611Y0391994D01*
X0149628Y0392054D01*
X0149649Y0392112D01*
X0149674Y0392169D01*
X0149702Y0392224D01*
X0149733Y0392277D01*
X0149768Y0392328D01*
X0149806Y0392377D01*
X0149846Y0392423D01*
X0149890Y0392467D01*
X0149936Y0392507D01*
X0149985Y0392545D01*
X0150036Y0392580D01*
X0150089Y0392611D01*
X0150144Y0392639D01*
X0150201Y0392664D01*
X0150259Y0392685D01*
X0150319Y0392702D01*
X0150379Y0392716D01*
X0150440Y0392725D01*
X0150501Y0392731D01*
X0150563Y0392733D01*
X0151874Y0392733D01*
X0154287Y0391422D02*
X0154287Y0390111D01*
X0154289Y0390040D01*
X0154295Y0389969D01*
X0154304Y0389899D01*
X0154318Y0389829D01*
X0154335Y0389760D01*
X0154356Y0389692D01*
X0154380Y0389626D01*
X0154408Y0389561D01*
X0154440Y0389497D01*
X0154475Y0389435D01*
X0154513Y0389375D01*
X0154554Y0389318D01*
X0154599Y0389262D01*
X0154646Y0389209D01*
X0154696Y0389159D01*
X0154749Y0389112D01*
X0154805Y0389067D01*
X0154862Y0389026D01*
X0154922Y0388988D01*
X0154984Y0388953D01*
X0155048Y0388921D01*
X0155113Y0388893D01*
X0155179Y0388869D01*
X0155247Y0388848D01*
X0155316Y0388831D01*
X0155386Y0388817D01*
X0155456Y0388808D01*
X0155527Y0388802D01*
X0155598Y0388800D01*
X0155669Y0388802D01*
X0155740Y0388808D01*
X0155810Y0388817D01*
X0155880Y0388831D01*
X0155949Y0388848D01*
X0156017Y0388869D01*
X0156083Y0388893D01*
X0156148Y0388921D01*
X0156212Y0388953D01*
X0156274Y0388988D01*
X0156334Y0389026D01*
X0156391Y0389067D01*
X0156447Y0389112D01*
X0156500Y0389159D01*
X0156550Y0389209D01*
X0156597Y0389262D01*
X0156642Y0389318D01*
X0156683Y0389375D01*
X0156721Y0389435D01*
X0156756Y0389497D01*
X0156788Y0389561D01*
X0156816Y0389626D01*
X0156840Y0389692D01*
X0156861Y0389760D01*
X0156878Y0389829D01*
X0156892Y0389899D01*
X0156901Y0389969D01*
X0156907Y0390040D01*
X0156909Y0390111D01*
X0156910Y0390111D02*
X0156910Y0391422D01*
X0156909Y0391422D02*
X0156907Y0391493D01*
X0156901Y0391564D01*
X0156892Y0391634D01*
X0156878Y0391704D01*
X0156861Y0391773D01*
X0156840Y0391841D01*
X0156816Y0391907D01*
X0156788Y0391972D01*
X0156756Y0392036D01*
X0156721Y0392098D01*
X0156683Y0392158D01*
X0156642Y0392215D01*
X0156597Y0392271D01*
X0156550Y0392324D01*
X0156500Y0392374D01*
X0156447Y0392421D01*
X0156391Y0392466D01*
X0156334Y0392507D01*
X0156274Y0392545D01*
X0156212Y0392580D01*
X0156148Y0392612D01*
X0156083Y0392640D01*
X0156017Y0392664D01*
X0155949Y0392685D01*
X0155880Y0392702D01*
X0155810Y0392716D01*
X0155740Y0392725D01*
X0155669Y0392731D01*
X0155598Y0392733D01*
X0155527Y0392731D01*
X0155456Y0392725D01*
X0155386Y0392716D01*
X0155316Y0392702D01*
X0155247Y0392685D01*
X0155179Y0392664D01*
X0155113Y0392640D01*
X0155048Y0392612D01*
X0154984Y0392580D01*
X0154922Y0392545D01*
X0154862Y0392507D01*
X0154805Y0392466D01*
X0154749Y0392421D01*
X0154696Y0392374D01*
X0154646Y0392324D01*
X0154599Y0392271D01*
X0154554Y0392215D01*
X0154513Y0392158D01*
X0154475Y0392098D01*
X0154440Y0392036D01*
X0154408Y0391972D01*
X0154380Y0391907D01*
X0154356Y0391841D01*
X0154335Y0391773D01*
X0154318Y0391704D01*
X0154304Y0391634D01*
X0154295Y0391564D01*
X0154289Y0391493D01*
X0154287Y0391422D01*
X0146366Y0390439D02*
X0144727Y0391094D01*
X0144727Y0391095D02*
X0144675Y0391118D01*
X0144624Y0391145D01*
X0144575Y0391175D01*
X0144528Y0391208D01*
X0144483Y0391244D01*
X0144441Y0391284D01*
X0144402Y0391326D01*
X0144366Y0391370D01*
X0144333Y0391417D01*
X0144303Y0391467D01*
X0144276Y0391518D01*
X0144253Y0391570D01*
X0144234Y0391624D01*
X0144218Y0391680D01*
X0144206Y0391736D01*
X0144198Y0391793D01*
X0144194Y0391850D01*
X0144193Y0391908D01*
X0144197Y0391965D01*
X0144204Y0392022D01*
X0144216Y0392079D01*
X0144231Y0392134D01*
X0144249Y0392189D01*
X0144272Y0392242D01*
X0144298Y0392293D01*
X0144327Y0392342D01*
X0144360Y0392390D01*
X0144396Y0392435D01*
X0144434Y0392477D01*
X0144476Y0392517D01*
X0144520Y0392554D01*
X0144567Y0392588D01*
X0144615Y0392619D01*
X0144666Y0392646D01*
X0144718Y0392670D01*
X0144772Y0392690D01*
X0144827Y0392706D01*
X0144883Y0392719D01*
X0144940Y0392728D01*
X0144998Y0392733D01*
X0145055Y0392734D01*
X0144236Y0389128D02*
X0144370Y0389082D01*
X0144505Y0389039D01*
X0144641Y0389000D01*
X0144778Y0388964D01*
X0144915Y0388932D01*
X0145054Y0388903D01*
X0145193Y0388877D01*
X0145333Y0388856D01*
X0145474Y0388837D01*
X0145614Y0388823D01*
X0145756Y0388812D01*
X0145897Y0388804D01*
X0146039Y0388801D01*
X0146039Y0388800D02*
X0146096Y0388801D01*
X0146154Y0388806D01*
X0146211Y0388815D01*
X0146267Y0388828D01*
X0146322Y0388844D01*
X0146376Y0388864D01*
X0146428Y0388888D01*
X0146479Y0388915D01*
X0146527Y0388946D01*
X0146574Y0388980D01*
X0146618Y0389017D01*
X0146660Y0389057D01*
X0146698Y0389099D01*
X0146734Y0389144D01*
X0146767Y0389192D01*
X0146796Y0389241D01*
X0146822Y0389292D01*
X0146845Y0389345D01*
X0146863Y0389400D01*
X0146878Y0389455D01*
X0146890Y0389512D01*
X0146897Y0389569D01*
X0146901Y0389626D01*
X0146900Y0389684D01*
X0146896Y0389741D01*
X0146888Y0389798D01*
X0146876Y0389854D01*
X0146860Y0389910D01*
X0146841Y0389964D01*
X0146818Y0390016D01*
X0146791Y0390067D01*
X0146761Y0390117D01*
X0146728Y0390164D01*
X0146692Y0390208D01*
X0146653Y0390250D01*
X0146611Y0390290D01*
X0146566Y0390326D01*
X0146519Y0390359D01*
X0146470Y0390389D01*
X0146419Y0390416D01*
X0146367Y0390439D01*
X0146530Y0392405D02*
X0146423Y0392451D01*
X0146314Y0392494D01*
X0146204Y0392534D01*
X0146092Y0392570D01*
X0145980Y0392602D01*
X0145866Y0392631D01*
X0145752Y0392657D01*
X0145637Y0392678D01*
X0145522Y0392697D01*
X0145405Y0392711D01*
X0145289Y0392722D01*
X0145172Y0392729D01*
X0145055Y0392733D01*
X0141359Y0391094D02*
X0137426Y0391094D01*
X0134755Y0392733D02*
X0133444Y0388800D01*
X0132133Y0392733D01*
X0159876Y0392733D02*
X0159876Y0388800D01*
X0161843Y0392078D02*
X0161843Y0392733D01*
X0159876Y0392733D01*
X0163929Y0391422D02*
X0163929Y0389783D01*
X0163931Y0389721D01*
X0163937Y0389660D01*
X0163946Y0389599D01*
X0163960Y0389539D01*
X0163977Y0389479D01*
X0163998Y0389421D01*
X0164023Y0389364D01*
X0164051Y0389309D01*
X0164082Y0389256D01*
X0164117Y0389205D01*
X0164155Y0389156D01*
X0164195Y0389110D01*
X0164239Y0389066D01*
X0164285Y0389026D01*
X0164334Y0388988D01*
X0164385Y0388953D01*
X0164438Y0388922D01*
X0164493Y0388894D01*
X0164550Y0388869D01*
X0164608Y0388848D01*
X0164668Y0388831D01*
X0164728Y0388817D01*
X0164789Y0388808D01*
X0164850Y0388802D01*
X0164912Y0388800D01*
X0166551Y0388800D01*
X0166551Y0390767D02*
X0163929Y0390767D01*
X0163929Y0391422D02*
X0163931Y0391493D01*
X0163937Y0391564D01*
X0163946Y0391634D01*
X0163960Y0391704D01*
X0163977Y0391773D01*
X0163998Y0391841D01*
X0164022Y0391907D01*
X0164050Y0391972D01*
X0164082Y0392036D01*
X0164117Y0392098D01*
X0164155Y0392158D01*
X0164196Y0392215D01*
X0164241Y0392271D01*
X0164288Y0392324D01*
X0164338Y0392374D01*
X0164391Y0392421D01*
X0164447Y0392466D01*
X0164504Y0392507D01*
X0164564Y0392545D01*
X0164626Y0392580D01*
X0164690Y0392612D01*
X0164755Y0392640D01*
X0164821Y0392664D01*
X0164889Y0392685D01*
X0164958Y0392702D01*
X0165028Y0392716D01*
X0165098Y0392725D01*
X0165169Y0392731D01*
X0165240Y0392733D01*
X0165311Y0392731D01*
X0165382Y0392725D01*
X0165452Y0392716D01*
X0165522Y0392702D01*
X0165591Y0392685D01*
X0165659Y0392664D01*
X0165725Y0392640D01*
X0165790Y0392612D01*
X0165854Y0392580D01*
X0165916Y0392545D01*
X0165976Y0392507D01*
X0166033Y0392466D01*
X0166089Y0392421D01*
X0166142Y0392374D01*
X0166192Y0392324D01*
X0166239Y0392271D01*
X0166284Y0392215D01*
X0166325Y0392158D01*
X0166363Y0392098D01*
X0166398Y0392036D01*
X0166430Y0391972D01*
X0166458Y0391907D01*
X0166482Y0391841D01*
X0166503Y0391773D01*
X0166520Y0391704D01*
X0166534Y0391634D01*
X0166543Y0391564D01*
X0166549Y0391493D01*
X0166551Y0391422D01*
X0166551Y0390767D01*
X0234133Y0392733D02*
X0235444Y0388800D01*
X0236755Y0392733D01*
X0239426Y0391094D02*
X0243359Y0391094D01*
X0246727Y0391094D02*
X0248366Y0390439D01*
X0248367Y0390439D02*
X0248419Y0390416D01*
X0248470Y0390389D01*
X0248519Y0390359D01*
X0248566Y0390326D01*
X0248611Y0390290D01*
X0248653Y0390250D01*
X0248692Y0390208D01*
X0248728Y0390164D01*
X0248761Y0390117D01*
X0248791Y0390067D01*
X0248818Y0390016D01*
X0248841Y0389964D01*
X0248860Y0389910D01*
X0248876Y0389854D01*
X0248888Y0389798D01*
X0248896Y0389741D01*
X0248900Y0389684D01*
X0248901Y0389626D01*
X0248897Y0389569D01*
X0248890Y0389512D01*
X0248878Y0389455D01*
X0248863Y0389400D01*
X0248845Y0389345D01*
X0248822Y0389292D01*
X0248796Y0389241D01*
X0248767Y0389192D01*
X0248734Y0389144D01*
X0248698Y0389099D01*
X0248660Y0389057D01*
X0248618Y0389017D01*
X0248574Y0388980D01*
X0248527Y0388946D01*
X0248479Y0388915D01*
X0248428Y0388888D01*
X0248376Y0388864D01*
X0248322Y0388844D01*
X0248267Y0388828D01*
X0248211Y0388815D01*
X0248154Y0388806D01*
X0248096Y0388801D01*
X0248039Y0388800D01*
X0248530Y0392405D02*
X0248423Y0392451D01*
X0248314Y0392494D01*
X0248204Y0392534D01*
X0248092Y0392570D01*
X0247980Y0392602D01*
X0247866Y0392631D01*
X0247752Y0392657D01*
X0247637Y0392678D01*
X0247522Y0392697D01*
X0247405Y0392711D01*
X0247289Y0392722D01*
X0247172Y0392729D01*
X0247055Y0392733D01*
X0247055Y0392734D02*
X0246998Y0392733D01*
X0246940Y0392728D01*
X0246883Y0392719D01*
X0246827Y0392706D01*
X0246772Y0392690D01*
X0246718Y0392670D01*
X0246666Y0392646D01*
X0246615Y0392619D01*
X0246567Y0392588D01*
X0246520Y0392554D01*
X0246476Y0392517D01*
X0246434Y0392477D01*
X0246396Y0392435D01*
X0246360Y0392390D01*
X0246327Y0392342D01*
X0246298Y0392293D01*
X0246272Y0392242D01*
X0246249Y0392189D01*
X0246231Y0392134D01*
X0246216Y0392079D01*
X0246204Y0392022D01*
X0246197Y0391965D01*
X0246193Y0391908D01*
X0246194Y0391850D01*
X0246198Y0391793D01*
X0246206Y0391736D01*
X0246218Y0391680D01*
X0246234Y0391624D01*
X0246253Y0391570D01*
X0246276Y0391518D01*
X0246303Y0391467D01*
X0246333Y0391417D01*
X0246366Y0391370D01*
X0246402Y0391326D01*
X0246441Y0391284D01*
X0246483Y0391244D01*
X0246528Y0391208D01*
X0246575Y0391175D01*
X0246624Y0391145D01*
X0246675Y0391118D01*
X0246727Y0391095D01*
X0246236Y0389128D02*
X0246370Y0389082D01*
X0246505Y0389039D01*
X0246641Y0389000D01*
X0246778Y0388964D01*
X0246915Y0388932D01*
X0247054Y0388903D01*
X0247193Y0388877D01*
X0247333Y0388856D01*
X0247474Y0388837D01*
X0247614Y0388823D01*
X0247756Y0388812D01*
X0247897Y0388804D01*
X0248039Y0388801D01*
X0251580Y0389783D02*
X0251580Y0391750D01*
X0251582Y0391812D01*
X0251588Y0391873D01*
X0251597Y0391934D01*
X0251611Y0391994D01*
X0251628Y0392054D01*
X0251649Y0392112D01*
X0251674Y0392169D01*
X0251702Y0392224D01*
X0251733Y0392277D01*
X0251768Y0392328D01*
X0251806Y0392377D01*
X0251846Y0392423D01*
X0251890Y0392467D01*
X0251936Y0392507D01*
X0251985Y0392545D01*
X0252036Y0392580D01*
X0252089Y0392611D01*
X0252144Y0392639D01*
X0252201Y0392664D01*
X0252259Y0392685D01*
X0252319Y0392702D01*
X0252379Y0392716D01*
X0252440Y0392725D01*
X0252501Y0392731D01*
X0252563Y0392733D01*
X0253874Y0392733D01*
X0256287Y0391422D02*
X0256287Y0390111D01*
X0256289Y0390040D01*
X0256295Y0389969D01*
X0256304Y0389899D01*
X0256318Y0389829D01*
X0256335Y0389760D01*
X0256356Y0389692D01*
X0256380Y0389626D01*
X0256408Y0389561D01*
X0256440Y0389497D01*
X0256475Y0389435D01*
X0256513Y0389375D01*
X0256554Y0389318D01*
X0256599Y0389262D01*
X0256646Y0389209D01*
X0256696Y0389159D01*
X0256749Y0389112D01*
X0256805Y0389067D01*
X0256862Y0389026D01*
X0256922Y0388988D01*
X0256984Y0388953D01*
X0257048Y0388921D01*
X0257113Y0388893D01*
X0257179Y0388869D01*
X0257247Y0388848D01*
X0257316Y0388831D01*
X0257386Y0388817D01*
X0257456Y0388808D01*
X0257527Y0388802D01*
X0257598Y0388800D01*
X0257669Y0388802D01*
X0257740Y0388808D01*
X0257810Y0388817D01*
X0257880Y0388831D01*
X0257949Y0388848D01*
X0258017Y0388869D01*
X0258083Y0388893D01*
X0258148Y0388921D01*
X0258212Y0388953D01*
X0258274Y0388988D01*
X0258334Y0389026D01*
X0258391Y0389067D01*
X0258447Y0389112D01*
X0258500Y0389159D01*
X0258550Y0389209D01*
X0258597Y0389262D01*
X0258642Y0389318D01*
X0258683Y0389375D01*
X0258721Y0389435D01*
X0258756Y0389497D01*
X0258788Y0389561D01*
X0258816Y0389626D01*
X0258840Y0389692D01*
X0258861Y0389760D01*
X0258878Y0389829D01*
X0258892Y0389899D01*
X0258901Y0389969D01*
X0258907Y0390040D01*
X0258909Y0390111D01*
X0258910Y0390111D02*
X0258910Y0391422D01*
X0258909Y0391422D02*
X0258907Y0391493D01*
X0258901Y0391564D01*
X0258892Y0391634D01*
X0258878Y0391704D01*
X0258861Y0391773D01*
X0258840Y0391841D01*
X0258816Y0391907D01*
X0258788Y0391972D01*
X0258756Y0392036D01*
X0258721Y0392098D01*
X0258683Y0392158D01*
X0258642Y0392215D01*
X0258597Y0392271D01*
X0258550Y0392324D01*
X0258500Y0392374D01*
X0258447Y0392421D01*
X0258391Y0392466D01*
X0258334Y0392507D01*
X0258274Y0392545D01*
X0258212Y0392580D01*
X0258148Y0392612D01*
X0258083Y0392640D01*
X0258017Y0392664D01*
X0257949Y0392685D01*
X0257880Y0392702D01*
X0257810Y0392716D01*
X0257740Y0392725D01*
X0257669Y0392731D01*
X0257598Y0392733D01*
X0257527Y0392731D01*
X0257456Y0392725D01*
X0257386Y0392716D01*
X0257316Y0392702D01*
X0257247Y0392685D01*
X0257179Y0392664D01*
X0257113Y0392640D01*
X0257048Y0392612D01*
X0256984Y0392580D01*
X0256922Y0392545D01*
X0256862Y0392507D01*
X0256805Y0392466D01*
X0256749Y0392421D01*
X0256696Y0392374D01*
X0256646Y0392324D01*
X0256599Y0392271D01*
X0256554Y0392215D01*
X0256513Y0392158D01*
X0256475Y0392098D01*
X0256440Y0392036D01*
X0256408Y0391972D01*
X0256380Y0391907D01*
X0256356Y0391841D01*
X0256335Y0391773D01*
X0256318Y0391704D01*
X0256304Y0391634D01*
X0256295Y0391564D01*
X0256289Y0391493D01*
X0256287Y0391422D01*
X0253874Y0388800D02*
X0252563Y0388800D01*
X0252501Y0388802D01*
X0252440Y0388808D01*
X0252379Y0388817D01*
X0252319Y0388831D01*
X0252259Y0388848D01*
X0252201Y0388869D01*
X0252144Y0388894D01*
X0252089Y0388922D01*
X0252036Y0388953D01*
X0251985Y0388988D01*
X0251936Y0389026D01*
X0251890Y0389066D01*
X0251846Y0389110D01*
X0251806Y0389156D01*
X0251768Y0389205D01*
X0251733Y0389256D01*
X0251702Y0389309D01*
X0251674Y0389364D01*
X0251649Y0389421D01*
X0251628Y0389479D01*
X0251611Y0389539D01*
X0251597Y0389599D01*
X0251588Y0389660D01*
X0251582Y0389721D01*
X0251580Y0389783D01*
X0261876Y0388800D02*
X0261876Y0392733D01*
X0263843Y0392733D01*
X0263843Y0392078D01*
X0265929Y0391422D02*
X0265929Y0389783D01*
X0265931Y0389721D01*
X0265937Y0389660D01*
X0265946Y0389599D01*
X0265960Y0389539D01*
X0265977Y0389479D01*
X0265998Y0389421D01*
X0266023Y0389364D01*
X0266051Y0389309D01*
X0266082Y0389256D01*
X0266117Y0389205D01*
X0266155Y0389156D01*
X0266195Y0389110D01*
X0266239Y0389066D01*
X0266285Y0389026D01*
X0266334Y0388988D01*
X0266385Y0388953D01*
X0266438Y0388922D01*
X0266493Y0388894D01*
X0266550Y0388869D01*
X0266608Y0388848D01*
X0266668Y0388831D01*
X0266728Y0388817D01*
X0266789Y0388808D01*
X0266850Y0388802D01*
X0266912Y0388800D01*
X0268551Y0388800D01*
X0268551Y0390767D02*
X0265929Y0390767D01*
X0265929Y0391422D02*
X0265931Y0391493D01*
X0265937Y0391564D01*
X0265946Y0391634D01*
X0265960Y0391704D01*
X0265977Y0391773D01*
X0265998Y0391841D01*
X0266022Y0391907D01*
X0266050Y0391972D01*
X0266082Y0392036D01*
X0266117Y0392098D01*
X0266155Y0392158D01*
X0266196Y0392215D01*
X0266241Y0392271D01*
X0266288Y0392324D01*
X0266338Y0392374D01*
X0266391Y0392421D01*
X0266447Y0392466D01*
X0266504Y0392507D01*
X0266564Y0392545D01*
X0266626Y0392580D01*
X0266690Y0392612D01*
X0266755Y0392640D01*
X0266821Y0392664D01*
X0266889Y0392685D01*
X0266958Y0392702D01*
X0267028Y0392716D01*
X0267098Y0392725D01*
X0267169Y0392731D01*
X0267240Y0392733D01*
X0267311Y0392731D01*
X0267382Y0392725D01*
X0267452Y0392716D01*
X0267522Y0392702D01*
X0267591Y0392685D01*
X0267659Y0392664D01*
X0267725Y0392640D01*
X0267790Y0392612D01*
X0267854Y0392580D01*
X0267916Y0392545D01*
X0267976Y0392507D01*
X0268033Y0392466D01*
X0268089Y0392421D01*
X0268142Y0392374D01*
X0268192Y0392324D01*
X0268239Y0392271D01*
X0268284Y0392215D01*
X0268325Y0392158D01*
X0268363Y0392098D01*
X0268398Y0392036D01*
X0268430Y0391972D01*
X0268458Y0391907D01*
X0268482Y0391841D01*
X0268503Y0391773D01*
X0268520Y0391704D01*
X0268534Y0391634D01*
X0268543Y0391564D01*
X0268549Y0391493D01*
X0268551Y0391422D01*
X0268551Y0390767D01*
X0336133Y0392733D02*
X0337444Y0388800D01*
X0338755Y0392733D01*
X0341426Y0391094D02*
X0345359Y0391094D01*
X0348727Y0391094D02*
X0350366Y0390439D01*
X0350367Y0390439D02*
X0350419Y0390416D01*
X0350470Y0390389D01*
X0350519Y0390359D01*
X0350566Y0390326D01*
X0350611Y0390290D01*
X0350653Y0390250D01*
X0350692Y0390208D01*
X0350728Y0390164D01*
X0350761Y0390117D01*
X0350791Y0390067D01*
X0350818Y0390016D01*
X0350841Y0389964D01*
X0350860Y0389910D01*
X0350876Y0389854D01*
X0350888Y0389798D01*
X0350896Y0389741D01*
X0350900Y0389684D01*
X0350901Y0389626D01*
X0350897Y0389569D01*
X0350890Y0389512D01*
X0350878Y0389455D01*
X0350863Y0389400D01*
X0350845Y0389345D01*
X0350822Y0389292D01*
X0350796Y0389241D01*
X0350767Y0389192D01*
X0350734Y0389144D01*
X0350698Y0389099D01*
X0350660Y0389057D01*
X0350618Y0389017D01*
X0350574Y0388980D01*
X0350527Y0388946D01*
X0350479Y0388915D01*
X0350428Y0388888D01*
X0350376Y0388864D01*
X0350322Y0388844D01*
X0350267Y0388828D01*
X0350211Y0388815D01*
X0350154Y0388806D01*
X0350096Y0388801D01*
X0350039Y0388800D01*
X0350530Y0392405D02*
X0350423Y0392451D01*
X0350314Y0392494D01*
X0350204Y0392534D01*
X0350092Y0392570D01*
X0349980Y0392602D01*
X0349866Y0392631D01*
X0349752Y0392657D01*
X0349637Y0392678D01*
X0349522Y0392697D01*
X0349405Y0392711D01*
X0349289Y0392722D01*
X0349172Y0392729D01*
X0349055Y0392733D01*
X0349055Y0392734D02*
X0348998Y0392733D01*
X0348940Y0392728D01*
X0348883Y0392719D01*
X0348827Y0392706D01*
X0348772Y0392690D01*
X0348718Y0392670D01*
X0348666Y0392646D01*
X0348615Y0392619D01*
X0348567Y0392588D01*
X0348520Y0392554D01*
X0348476Y0392517D01*
X0348434Y0392477D01*
X0348396Y0392435D01*
X0348360Y0392390D01*
X0348327Y0392342D01*
X0348298Y0392293D01*
X0348272Y0392242D01*
X0348249Y0392189D01*
X0348231Y0392134D01*
X0348216Y0392079D01*
X0348204Y0392022D01*
X0348197Y0391965D01*
X0348193Y0391908D01*
X0348194Y0391850D01*
X0348198Y0391793D01*
X0348206Y0391736D01*
X0348218Y0391680D01*
X0348234Y0391624D01*
X0348253Y0391570D01*
X0348276Y0391518D01*
X0348303Y0391467D01*
X0348333Y0391417D01*
X0348366Y0391370D01*
X0348402Y0391326D01*
X0348441Y0391284D01*
X0348483Y0391244D01*
X0348528Y0391208D01*
X0348575Y0391175D01*
X0348624Y0391145D01*
X0348675Y0391118D01*
X0348727Y0391095D01*
X0348236Y0389128D02*
X0348370Y0389082D01*
X0348505Y0389039D01*
X0348641Y0389000D01*
X0348778Y0388964D01*
X0348915Y0388932D01*
X0349054Y0388903D01*
X0349193Y0388877D01*
X0349333Y0388856D01*
X0349474Y0388837D01*
X0349614Y0388823D01*
X0349756Y0388812D01*
X0349897Y0388804D01*
X0350039Y0388801D01*
X0353580Y0389783D02*
X0353580Y0391750D01*
X0353582Y0391812D01*
X0353588Y0391873D01*
X0353597Y0391934D01*
X0353611Y0391994D01*
X0353628Y0392054D01*
X0353649Y0392112D01*
X0353674Y0392169D01*
X0353702Y0392224D01*
X0353733Y0392277D01*
X0353768Y0392328D01*
X0353806Y0392377D01*
X0353846Y0392423D01*
X0353890Y0392467D01*
X0353936Y0392507D01*
X0353985Y0392545D01*
X0354036Y0392580D01*
X0354089Y0392611D01*
X0354144Y0392639D01*
X0354201Y0392664D01*
X0354259Y0392685D01*
X0354319Y0392702D01*
X0354379Y0392716D01*
X0354440Y0392725D01*
X0354501Y0392731D01*
X0354563Y0392733D01*
X0355874Y0392733D01*
X0358287Y0391422D02*
X0358287Y0390111D01*
X0358289Y0390040D01*
X0358295Y0389969D01*
X0358304Y0389899D01*
X0358318Y0389829D01*
X0358335Y0389760D01*
X0358356Y0389692D01*
X0358380Y0389626D01*
X0358408Y0389561D01*
X0358440Y0389497D01*
X0358475Y0389435D01*
X0358513Y0389375D01*
X0358554Y0389318D01*
X0358599Y0389262D01*
X0358646Y0389209D01*
X0358696Y0389159D01*
X0358749Y0389112D01*
X0358805Y0389067D01*
X0358862Y0389026D01*
X0358922Y0388988D01*
X0358984Y0388953D01*
X0359048Y0388921D01*
X0359113Y0388893D01*
X0359179Y0388869D01*
X0359247Y0388848D01*
X0359316Y0388831D01*
X0359386Y0388817D01*
X0359456Y0388808D01*
X0359527Y0388802D01*
X0359598Y0388800D01*
X0359669Y0388802D01*
X0359740Y0388808D01*
X0359810Y0388817D01*
X0359880Y0388831D01*
X0359949Y0388848D01*
X0360017Y0388869D01*
X0360083Y0388893D01*
X0360148Y0388921D01*
X0360212Y0388953D01*
X0360274Y0388988D01*
X0360334Y0389026D01*
X0360391Y0389067D01*
X0360447Y0389112D01*
X0360500Y0389159D01*
X0360550Y0389209D01*
X0360597Y0389262D01*
X0360642Y0389318D01*
X0360683Y0389375D01*
X0360721Y0389435D01*
X0360756Y0389497D01*
X0360788Y0389561D01*
X0360816Y0389626D01*
X0360840Y0389692D01*
X0360861Y0389760D01*
X0360878Y0389829D01*
X0360892Y0389899D01*
X0360901Y0389969D01*
X0360907Y0390040D01*
X0360909Y0390111D01*
X0360910Y0390111D02*
X0360910Y0391422D01*
X0360909Y0391422D02*
X0360907Y0391493D01*
X0360901Y0391564D01*
X0360892Y0391634D01*
X0360878Y0391704D01*
X0360861Y0391773D01*
X0360840Y0391841D01*
X0360816Y0391907D01*
X0360788Y0391972D01*
X0360756Y0392036D01*
X0360721Y0392098D01*
X0360683Y0392158D01*
X0360642Y0392215D01*
X0360597Y0392271D01*
X0360550Y0392324D01*
X0360500Y0392374D01*
X0360447Y0392421D01*
X0360391Y0392466D01*
X0360334Y0392507D01*
X0360274Y0392545D01*
X0360212Y0392580D01*
X0360148Y0392612D01*
X0360083Y0392640D01*
X0360017Y0392664D01*
X0359949Y0392685D01*
X0359880Y0392702D01*
X0359810Y0392716D01*
X0359740Y0392725D01*
X0359669Y0392731D01*
X0359598Y0392733D01*
X0359527Y0392731D01*
X0359456Y0392725D01*
X0359386Y0392716D01*
X0359316Y0392702D01*
X0359247Y0392685D01*
X0359179Y0392664D01*
X0359113Y0392640D01*
X0359048Y0392612D01*
X0358984Y0392580D01*
X0358922Y0392545D01*
X0358862Y0392507D01*
X0358805Y0392466D01*
X0358749Y0392421D01*
X0358696Y0392374D01*
X0358646Y0392324D01*
X0358599Y0392271D01*
X0358554Y0392215D01*
X0358513Y0392158D01*
X0358475Y0392098D01*
X0358440Y0392036D01*
X0358408Y0391972D01*
X0358380Y0391907D01*
X0358356Y0391841D01*
X0358335Y0391773D01*
X0358318Y0391704D01*
X0358304Y0391634D01*
X0358295Y0391564D01*
X0358289Y0391493D01*
X0358287Y0391422D01*
X0355874Y0388800D02*
X0354563Y0388800D01*
X0354501Y0388802D01*
X0354440Y0388808D01*
X0354379Y0388817D01*
X0354319Y0388831D01*
X0354259Y0388848D01*
X0354201Y0388869D01*
X0354144Y0388894D01*
X0354089Y0388922D01*
X0354036Y0388953D01*
X0353985Y0388988D01*
X0353936Y0389026D01*
X0353890Y0389066D01*
X0353846Y0389110D01*
X0353806Y0389156D01*
X0353768Y0389205D01*
X0353733Y0389256D01*
X0353702Y0389309D01*
X0353674Y0389364D01*
X0353649Y0389421D01*
X0353628Y0389479D01*
X0353611Y0389539D01*
X0353597Y0389599D01*
X0353588Y0389660D01*
X0353582Y0389721D01*
X0353580Y0389783D01*
X0363876Y0388800D02*
X0363876Y0392733D01*
X0365843Y0392733D01*
X0365843Y0392078D01*
X0367929Y0391422D02*
X0367929Y0389783D01*
X0367931Y0389721D01*
X0367937Y0389660D01*
X0367946Y0389599D01*
X0367960Y0389539D01*
X0367977Y0389479D01*
X0367998Y0389421D01*
X0368023Y0389364D01*
X0368051Y0389309D01*
X0368082Y0389256D01*
X0368117Y0389205D01*
X0368155Y0389156D01*
X0368195Y0389110D01*
X0368239Y0389066D01*
X0368285Y0389026D01*
X0368334Y0388988D01*
X0368385Y0388953D01*
X0368438Y0388922D01*
X0368493Y0388894D01*
X0368550Y0388869D01*
X0368608Y0388848D01*
X0368668Y0388831D01*
X0368728Y0388817D01*
X0368789Y0388808D01*
X0368850Y0388802D01*
X0368912Y0388800D01*
X0370551Y0388800D01*
X0370551Y0390767D02*
X0367929Y0390767D01*
X0367929Y0391422D02*
X0367931Y0391493D01*
X0367937Y0391564D01*
X0367946Y0391634D01*
X0367960Y0391704D01*
X0367977Y0391773D01*
X0367998Y0391841D01*
X0368022Y0391907D01*
X0368050Y0391972D01*
X0368082Y0392036D01*
X0368117Y0392098D01*
X0368155Y0392158D01*
X0368196Y0392215D01*
X0368241Y0392271D01*
X0368288Y0392324D01*
X0368338Y0392374D01*
X0368391Y0392421D01*
X0368447Y0392466D01*
X0368504Y0392507D01*
X0368564Y0392545D01*
X0368626Y0392580D01*
X0368690Y0392612D01*
X0368755Y0392640D01*
X0368821Y0392664D01*
X0368889Y0392685D01*
X0368958Y0392702D01*
X0369028Y0392716D01*
X0369098Y0392725D01*
X0369169Y0392731D01*
X0369240Y0392733D01*
X0369311Y0392731D01*
X0369382Y0392725D01*
X0369452Y0392716D01*
X0369522Y0392702D01*
X0369591Y0392685D01*
X0369659Y0392664D01*
X0369725Y0392640D01*
X0369790Y0392612D01*
X0369854Y0392580D01*
X0369916Y0392545D01*
X0369976Y0392507D01*
X0370033Y0392466D01*
X0370089Y0392421D01*
X0370142Y0392374D01*
X0370192Y0392324D01*
X0370239Y0392271D01*
X0370284Y0392215D01*
X0370325Y0392158D01*
X0370363Y0392098D01*
X0370398Y0392036D01*
X0370430Y0391972D01*
X0370458Y0391907D01*
X0370482Y0391841D01*
X0370503Y0391773D01*
X0370520Y0391704D01*
X0370534Y0391634D01*
X0370543Y0391564D01*
X0370549Y0391493D01*
X0370551Y0391422D01*
X0370551Y0390767D01*
X0417133Y0332733D02*
X0418444Y0328800D01*
X0419755Y0332733D01*
X0422426Y0331094D02*
X0426359Y0331094D01*
X0429727Y0331094D02*
X0431366Y0330439D01*
X0431367Y0330439D02*
X0431419Y0330416D01*
X0431470Y0330389D01*
X0431519Y0330359D01*
X0431566Y0330326D01*
X0431611Y0330290D01*
X0431653Y0330250D01*
X0431692Y0330208D01*
X0431728Y0330164D01*
X0431761Y0330117D01*
X0431791Y0330067D01*
X0431818Y0330016D01*
X0431841Y0329964D01*
X0431860Y0329910D01*
X0431876Y0329854D01*
X0431888Y0329798D01*
X0431896Y0329741D01*
X0431900Y0329684D01*
X0431901Y0329626D01*
X0431897Y0329569D01*
X0431890Y0329512D01*
X0431878Y0329455D01*
X0431863Y0329400D01*
X0431845Y0329345D01*
X0431822Y0329292D01*
X0431796Y0329241D01*
X0431767Y0329192D01*
X0431734Y0329144D01*
X0431698Y0329099D01*
X0431660Y0329057D01*
X0431618Y0329017D01*
X0431574Y0328980D01*
X0431527Y0328946D01*
X0431479Y0328915D01*
X0431428Y0328888D01*
X0431376Y0328864D01*
X0431322Y0328844D01*
X0431267Y0328828D01*
X0431211Y0328815D01*
X0431154Y0328806D01*
X0431096Y0328801D01*
X0431039Y0328800D01*
X0431530Y0332405D02*
X0431423Y0332451D01*
X0431314Y0332494D01*
X0431204Y0332534D01*
X0431092Y0332570D01*
X0430980Y0332602D01*
X0430866Y0332631D01*
X0430752Y0332657D01*
X0430637Y0332678D01*
X0430522Y0332697D01*
X0430405Y0332711D01*
X0430289Y0332722D01*
X0430172Y0332729D01*
X0430055Y0332733D01*
X0430055Y0332734D02*
X0429998Y0332733D01*
X0429940Y0332728D01*
X0429883Y0332719D01*
X0429827Y0332706D01*
X0429772Y0332690D01*
X0429718Y0332670D01*
X0429666Y0332646D01*
X0429615Y0332619D01*
X0429567Y0332588D01*
X0429520Y0332554D01*
X0429476Y0332517D01*
X0429434Y0332477D01*
X0429396Y0332435D01*
X0429360Y0332390D01*
X0429327Y0332342D01*
X0429298Y0332293D01*
X0429272Y0332242D01*
X0429249Y0332189D01*
X0429231Y0332134D01*
X0429216Y0332079D01*
X0429204Y0332022D01*
X0429197Y0331965D01*
X0429193Y0331908D01*
X0429194Y0331850D01*
X0429198Y0331793D01*
X0429206Y0331736D01*
X0429218Y0331680D01*
X0429234Y0331624D01*
X0429253Y0331570D01*
X0429276Y0331518D01*
X0429303Y0331467D01*
X0429333Y0331417D01*
X0429366Y0331370D01*
X0429402Y0331326D01*
X0429441Y0331284D01*
X0429483Y0331244D01*
X0429528Y0331208D01*
X0429575Y0331175D01*
X0429624Y0331145D01*
X0429675Y0331118D01*
X0429727Y0331095D01*
X0429236Y0329128D02*
X0429370Y0329082D01*
X0429505Y0329039D01*
X0429641Y0329000D01*
X0429778Y0328964D01*
X0429915Y0328932D01*
X0430054Y0328903D01*
X0430193Y0328877D01*
X0430333Y0328856D01*
X0430474Y0328837D01*
X0430614Y0328823D01*
X0430756Y0328812D01*
X0430897Y0328804D01*
X0431039Y0328801D01*
X0434580Y0329783D02*
X0434580Y0331750D01*
X0434582Y0331812D01*
X0434588Y0331873D01*
X0434597Y0331934D01*
X0434611Y0331994D01*
X0434628Y0332054D01*
X0434649Y0332112D01*
X0434674Y0332169D01*
X0434702Y0332224D01*
X0434733Y0332277D01*
X0434768Y0332328D01*
X0434806Y0332377D01*
X0434846Y0332423D01*
X0434890Y0332467D01*
X0434936Y0332507D01*
X0434985Y0332545D01*
X0435036Y0332580D01*
X0435089Y0332611D01*
X0435144Y0332639D01*
X0435201Y0332664D01*
X0435259Y0332685D01*
X0435319Y0332702D01*
X0435379Y0332716D01*
X0435440Y0332725D01*
X0435501Y0332731D01*
X0435563Y0332733D01*
X0436874Y0332733D01*
X0439287Y0331422D02*
X0439287Y0330111D01*
X0439289Y0330040D01*
X0439295Y0329969D01*
X0439304Y0329899D01*
X0439318Y0329829D01*
X0439335Y0329760D01*
X0439356Y0329692D01*
X0439380Y0329626D01*
X0439408Y0329561D01*
X0439440Y0329497D01*
X0439475Y0329435D01*
X0439513Y0329375D01*
X0439554Y0329318D01*
X0439599Y0329262D01*
X0439646Y0329209D01*
X0439696Y0329159D01*
X0439749Y0329112D01*
X0439805Y0329067D01*
X0439862Y0329026D01*
X0439922Y0328988D01*
X0439984Y0328953D01*
X0440048Y0328921D01*
X0440113Y0328893D01*
X0440179Y0328869D01*
X0440247Y0328848D01*
X0440316Y0328831D01*
X0440386Y0328817D01*
X0440456Y0328808D01*
X0440527Y0328802D01*
X0440598Y0328800D01*
X0440669Y0328802D01*
X0440740Y0328808D01*
X0440810Y0328817D01*
X0440880Y0328831D01*
X0440949Y0328848D01*
X0441017Y0328869D01*
X0441083Y0328893D01*
X0441148Y0328921D01*
X0441212Y0328953D01*
X0441274Y0328988D01*
X0441334Y0329026D01*
X0441391Y0329067D01*
X0441447Y0329112D01*
X0441500Y0329159D01*
X0441550Y0329209D01*
X0441597Y0329262D01*
X0441642Y0329318D01*
X0441683Y0329375D01*
X0441721Y0329435D01*
X0441756Y0329497D01*
X0441788Y0329561D01*
X0441816Y0329626D01*
X0441840Y0329692D01*
X0441861Y0329760D01*
X0441878Y0329829D01*
X0441892Y0329899D01*
X0441901Y0329969D01*
X0441907Y0330040D01*
X0441909Y0330111D01*
X0441910Y0330111D02*
X0441910Y0331422D01*
X0441909Y0331422D02*
X0441907Y0331493D01*
X0441901Y0331564D01*
X0441892Y0331634D01*
X0441878Y0331704D01*
X0441861Y0331773D01*
X0441840Y0331841D01*
X0441816Y0331907D01*
X0441788Y0331972D01*
X0441756Y0332036D01*
X0441721Y0332098D01*
X0441683Y0332158D01*
X0441642Y0332215D01*
X0441597Y0332271D01*
X0441550Y0332324D01*
X0441500Y0332374D01*
X0441447Y0332421D01*
X0441391Y0332466D01*
X0441334Y0332507D01*
X0441274Y0332545D01*
X0441212Y0332580D01*
X0441148Y0332612D01*
X0441083Y0332640D01*
X0441017Y0332664D01*
X0440949Y0332685D01*
X0440880Y0332702D01*
X0440810Y0332716D01*
X0440740Y0332725D01*
X0440669Y0332731D01*
X0440598Y0332733D01*
X0440527Y0332731D01*
X0440456Y0332725D01*
X0440386Y0332716D01*
X0440316Y0332702D01*
X0440247Y0332685D01*
X0440179Y0332664D01*
X0440113Y0332640D01*
X0440048Y0332612D01*
X0439984Y0332580D01*
X0439922Y0332545D01*
X0439862Y0332507D01*
X0439805Y0332466D01*
X0439749Y0332421D01*
X0439696Y0332374D01*
X0439646Y0332324D01*
X0439599Y0332271D01*
X0439554Y0332215D01*
X0439513Y0332158D01*
X0439475Y0332098D01*
X0439440Y0332036D01*
X0439408Y0331972D01*
X0439380Y0331907D01*
X0439356Y0331841D01*
X0439335Y0331773D01*
X0439318Y0331704D01*
X0439304Y0331634D01*
X0439295Y0331564D01*
X0439289Y0331493D01*
X0439287Y0331422D01*
X0436874Y0328800D02*
X0435563Y0328800D01*
X0435501Y0328802D01*
X0435440Y0328808D01*
X0435379Y0328817D01*
X0435319Y0328831D01*
X0435259Y0328848D01*
X0435201Y0328869D01*
X0435144Y0328894D01*
X0435089Y0328922D01*
X0435036Y0328953D01*
X0434985Y0328988D01*
X0434936Y0329026D01*
X0434890Y0329066D01*
X0434846Y0329110D01*
X0434806Y0329156D01*
X0434768Y0329205D01*
X0434733Y0329256D01*
X0434702Y0329309D01*
X0434674Y0329364D01*
X0434649Y0329421D01*
X0434628Y0329479D01*
X0434611Y0329539D01*
X0434597Y0329599D01*
X0434588Y0329660D01*
X0434582Y0329721D01*
X0434580Y0329783D01*
X0444876Y0328800D02*
X0444876Y0332733D01*
X0446843Y0332733D01*
X0446843Y0332078D01*
X0448929Y0331422D02*
X0448929Y0329783D01*
X0448931Y0329721D01*
X0448937Y0329660D01*
X0448946Y0329599D01*
X0448960Y0329539D01*
X0448977Y0329479D01*
X0448998Y0329421D01*
X0449023Y0329364D01*
X0449051Y0329309D01*
X0449082Y0329256D01*
X0449117Y0329205D01*
X0449155Y0329156D01*
X0449195Y0329110D01*
X0449239Y0329066D01*
X0449285Y0329026D01*
X0449334Y0328988D01*
X0449385Y0328953D01*
X0449438Y0328922D01*
X0449493Y0328894D01*
X0449550Y0328869D01*
X0449608Y0328848D01*
X0449668Y0328831D01*
X0449728Y0328817D01*
X0449789Y0328808D01*
X0449850Y0328802D01*
X0449912Y0328800D01*
X0451551Y0328800D01*
X0451551Y0330767D02*
X0448929Y0330767D01*
X0448929Y0331422D02*
X0448931Y0331493D01*
X0448937Y0331564D01*
X0448946Y0331634D01*
X0448960Y0331704D01*
X0448977Y0331773D01*
X0448998Y0331841D01*
X0449022Y0331907D01*
X0449050Y0331972D01*
X0449082Y0332036D01*
X0449117Y0332098D01*
X0449155Y0332158D01*
X0449196Y0332215D01*
X0449241Y0332271D01*
X0449288Y0332324D01*
X0449338Y0332374D01*
X0449391Y0332421D01*
X0449447Y0332466D01*
X0449504Y0332507D01*
X0449564Y0332545D01*
X0449626Y0332580D01*
X0449690Y0332612D01*
X0449755Y0332640D01*
X0449821Y0332664D01*
X0449889Y0332685D01*
X0449958Y0332702D01*
X0450028Y0332716D01*
X0450098Y0332725D01*
X0450169Y0332731D01*
X0450240Y0332733D01*
X0450311Y0332731D01*
X0450382Y0332725D01*
X0450452Y0332716D01*
X0450522Y0332702D01*
X0450591Y0332685D01*
X0450659Y0332664D01*
X0450725Y0332640D01*
X0450790Y0332612D01*
X0450854Y0332580D01*
X0450916Y0332545D01*
X0450976Y0332507D01*
X0451033Y0332466D01*
X0451089Y0332421D01*
X0451142Y0332374D01*
X0451192Y0332324D01*
X0451239Y0332271D01*
X0451284Y0332215D01*
X0451325Y0332158D01*
X0451363Y0332098D01*
X0451398Y0332036D01*
X0451430Y0331972D01*
X0451458Y0331907D01*
X0451482Y0331841D01*
X0451503Y0331773D01*
X0451520Y0331704D01*
X0451534Y0331634D01*
X0451543Y0331564D01*
X0451549Y0331493D01*
X0451551Y0331422D01*
X0451551Y0330767D01*
X0429236Y0177128D02*
X0429370Y0177082D01*
X0429505Y0177039D01*
X0429641Y0177000D01*
X0429778Y0176964D01*
X0429915Y0176932D01*
X0430054Y0176903D01*
X0430193Y0176877D01*
X0430333Y0176856D01*
X0430474Y0176837D01*
X0430614Y0176823D01*
X0430756Y0176812D01*
X0430897Y0176804D01*
X0431039Y0176801D01*
X0431039Y0176800D02*
X0431096Y0176801D01*
X0431154Y0176806D01*
X0431211Y0176815D01*
X0431267Y0176828D01*
X0431322Y0176844D01*
X0431376Y0176864D01*
X0431428Y0176888D01*
X0431479Y0176915D01*
X0431527Y0176946D01*
X0431574Y0176980D01*
X0431618Y0177017D01*
X0431660Y0177057D01*
X0431698Y0177099D01*
X0431734Y0177144D01*
X0431767Y0177192D01*
X0431796Y0177241D01*
X0431822Y0177292D01*
X0431845Y0177345D01*
X0431863Y0177400D01*
X0431878Y0177455D01*
X0431890Y0177512D01*
X0431897Y0177569D01*
X0431901Y0177626D01*
X0431900Y0177684D01*
X0431896Y0177741D01*
X0431888Y0177798D01*
X0431876Y0177854D01*
X0431860Y0177910D01*
X0431841Y0177964D01*
X0431818Y0178016D01*
X0431791Y0178067D01*
X0431761Y0178117D01*
X0431728Y0178164D01*
X0431692Y0178208D01*
X0431653Y0178250D01*
X0431611Y0178290D01*
X0431566Y0178326D01*
X0431519Y0178359D01*
X0431470Y0178389D01*
X0431419Y0178416D01*
X0431367Y0178439D01*
X0431366Y0178439D02*
X0429727Y0179094D01*
X0429727Y0179095D02*
X0429675Y0179118D01*
X0429624Y0179145D01*
X0429575Y0179175D01*
X0429528Y0179208D01*
X0429483Y0179244D01*
X0429441Y0179284D01*
X0429402Y0179326D01*
X0429366Y0179370D01*
X0429333Y0179417D01*
X0429303Y0179467D01*
X0429276Y0179518D01*
X0429253Y0179570D01*
X0429234Y0179624D01*
X0429218Y0179680D01*
X0429206Y0179736D01*
X0429198Y0179793D01*
X0429194Y0179850D01*
X0429193Y0179908D01*
X0429197Y0179965D01*
X0429204Y0180022D01*
X0429216Y0180079D01*
X0429231Y0180134D01*
X0429249Y0180189D01*
X0429272Y0180242D01*
X0429298Y0180293D01*
X0429327Y0180342D01*
X0429360Y0180390D01*
X0429396Y0180435D01*
X0429434Y0180477D01*
X0429476Y0180517D01*
X0429520Y0180554D01*
X0429567Y0180588D01*
X0429615Y0180619D01*
X0429666Y0180646D01*
X0429718Y0180670D01*
X0429772Y0180690D01*
X0429827Y0180706D01*
X0429883Y0180719D01*
X0429940Y0180728D01*
X0429998Y0180733D01*
X0430055Y0180734D01*
X0430055Y0180733D02*
X0430172Y0180729D01*
X0430289Y0180722D01*
X0430405Y0180711D01*
X0430522Y0180697D01*
X0430637Y0180678D01*
X0430752Y0180657D01*
X0430866Y0180631D01*
X0430980Y0180602D01*
X0431092Y0180570D01*
X0431204Y0180534D01*
X0431314Y0180494D01*
X0431423Y0180451D01*
X0431530Y0180405D01*
X0434580Y0179750D02*
X0434580Y0177783D01*
X0434582Y0177721D01*
X0434588Y0177660D01*
X0434597Y0177599D01*
X0434611Y0177539D01*
X0434628Y0177479D01*
X0434649Y0177421D01*
X0434674Y0177364D01*
X0434702Y0177309D01*
X0434733Y0177256D01*
X0434768Y0177205D01*
X0434806Y0177156D01*
X0434846Y0177110D01*
X0434890Y0177066D01*
X0434936Y0177026D01*
X0434985Y0176988D01*
X0435036Y0176953D01*
X0435089Y0176922D01*
X0435144Y0176894D01*
X0435201Y0176869D01*
X0435259Y0176848D01*
X0435319Y0176831D01*
X0435379Y0176817D01*
X0435440Y0176808D01*
X0435501Y0176802D01*
X0435563Y0176800D01*
X0436874Y0176800D01*
X0439287Y0178111D02*
X0439287Y0179422D01*
X0439289Y0179493D01*
X0439295Y0179564D01*
X0439304Y0179634D01*
X0439318Y0179704D01*
X0439335Y0179773D01*
X0439356Y0179841D01*
X0439380Y0179907D01*
X0439408Y0179972D01*
X0439440Y0180036D01*
X0439475Y0180098D01*
X0439513Y0180158D01*
X0439554Y0180215D01*
X0439599Y0180271D01*
X0439646Y0180324D01*
X0439696Y0180374D01*
X0439749Y0180421D01*
X0439805Y0180466D01*
X0439862Y0180507D01*
X0439922Y0180545D01*
X0439984Y0180580D01*
X0440048Y0180612D01*
X0440113Y0180640D01*
X0440179Y0180664D01*
X0440247Y0180685D01*
X0440316Y0180702D01*
X0440386Y0180716D01*
X0440456Y0180725D01*
X0440527Y0180731D01*
X0440598Y0180733D01*
X0440669Y0180731D01*
X0440740Y0180725D01*
X0440810Y0180716D01*
X0440880Y0180702D01*
X0440949Y0180685D01*
X0441017Y0180664D01*
X0441083Y0180640D01*
X0441148Y0180612D01*
X0441212Y0180580D01*
X0441274Y0180545D01*
X0441334Y0180507D01*
X0441391Y0180466D01*
X0441447Y0180421D01*
X0441500Y0180374D01*
X0441550Y0180324D01*
X0441597Y0180271D01*
X0441642Y0180215D01*
X0441683Y0180158D01*
X0441721Y0180098D01*
X0441756Y0180036D01*
X0441788Y0179972D01*
X0441816Y0179907D01*
X0441840Y0179841D01*
X0441861Y0179773D01*
X0441878Y0179704D01*
X0441892Y0179634D01*
X0441901Y0179564D01*
X0441907Y0179493D01*
X0441909Y0179422D01*
X0441910Y0179422D02*
X0441910Y0178111D01*
X0441909Y0178111D02*
X0441907Y0178040D01*
X0441901Y0177969D01*
X0441892Y0177899D01*
X0441878Y0177829D01*
X0441861Y0177760D01*
X0441840Y0177692D01*
X0441816Y0177626D01*
X0441788Y0177561D01*
X0441756Y0177497D01*
X0441721Y0177435D01*
X0441683Y0177375D01*
X0441642Y0177318D01*
X0441597Y0177262D01*
X0441550Y0177209D01*
X0441500Y0177159D01*
X0441447Y0177112D01*
X0441391Y0177067D01*
X0441334Y0177026D01*
X0441274Y0176988D01*
X0441212Y0176953D01*
X0441148Y0176921D01*
X0441083Y0176893D01*
X0441017Y0176869D01*
X0440949Y0176848D01*
X0440880Y0176831D01*
X0440810Y0176817D01*
X0440740Y0176808D01*
X0440669Y0176802D01*
X0440598Y0176800D01*
X0440527Y0176802D01*
X0440456Y0176808D01*
X0440386Y0176817D01*
X0440316Y0176831D01*
X0440247Y0176848D01*
X0440179Y0176869D01*
X0440113Y0176893D01*
X0440048Y0176921D01*
X0439984Y0176953D01*
X0439922Y0176988D01*
X0439862Y0177026D01*
X0439805Y0177067D01*
X0439749Y0177112D01*
X0439696Y0177159D01*
X0439646Y0177209D01*
X0439599Y0177262D01*
X0439554Y0177318D01*
X0439513Y0177375D01*
X0439475Y0177435D01*
X0439440Y0177497D01*
X0439408Y0177561D01*
X0439380Y0177626D01*
X0439356Y0177692D01*
X0439335Y0177760D01*
X0439318Y0177829D01*
X0439304Y0177899D01*
X0439295Y0177969D01*
X0439289Y0178040D01*
X0439287Y0178111D01*
X0436874Y0180733D02*
X0435563Y0180733D01*
X0435501Y0180731D01*
X0435440Y0180725D01*
X0435379Y0180716D01*
X0435319Y0180702D01*
X0435259Y0180685D01*
X0435201Y0180664D01*
X0435144Y0180639D01*
X0435089Y0180611D01*
X0435036Y0180580D01*
X0434985Y0180545D01*
X0434936Y0180507D01*
X0434890Y0180467D01*
X0434846Y0180423D01*
X0434806Y0180377D01*
X0434768Y0180328D01*
X0434733Y0180277D01*
X0434702Y0180224D01*
X0434674Y0180169D01*
X0434649Y0180112D01*
X0434628Y0180054D01*
X0434611Y0179994D01*
X0434597Y0179934D01*
X0434588Y0179873D01*
X0434582Y0179812D01*
X0434580Y0179750D01*
X0426359Y0179094D02*
X0422426Y0179094D01*
X0419755Y0180733D02*
X0418444Y0176800D01*
X0417133Y0180733D01*
X0444876Y0180733D02*
X0444876Y0176800D01*
X0446843Y0180078D02*
X0446843Y0180733D01*
X0444876Y0180733D01*
X0448929Y0179422D02*
X0448929Y0177783D01*
X0448931Y0177721D01*
X0448937Y0177660D01*
X0448946Y0177599D01*
X0448960Y0177539D01*
X0448977Y0177479D01*
X0448998Y0177421D01*
X0449023Y0177364D01*
X0449051Y0177309D01*
X0449082Y0177256D01*
X0449117Y0177205D01*
X0449155Y0177156D01*
X0449195Y0177110D01*
X0449239Y0177066D01*
X0449285Y0177026D01*
X0449334Y0176988D01*
X0449385Y0176953D01*
X0449438Y0176922D01*
X0449493Y0176894D01*
X0449550Y0176869D01*
X0449608Y0176848D01*
X0449668Y0176831D01*
X0449728Y0176817D01*
X0449789Y0176808D01*
X0449850Y0176802D01*
X0449912Y0176800D01*
X0451551Y0176800D01*
X0451551Y0178767D02*
X0448929Y0178767D01*
X0448929Y0179422D02*
X0448931Y0179493D01*
X0448937Y0179564D01*
X0448946Y0179634D01*
X0448960Y0179704D01*
X0448977Y0179773D01*
X0448998Y0179841D01*
X0449022Y0179907D01*
X0449050Y0179972D01*
X0449082Y0180036D01*
X0449117Y0180098D01*
X0449155Y0180158D01*
X0449196Y0180215D01*
X0449241Y0180271D01*
X0449288Y0180324D01*
X0449338Y0180374D01*
X0449391Y0180421D01*
X0449447Y0180466D01*
X0449504Y0180507D01*
X0449564Y0180545D01*
X0449626Y0180580D01*
X0449690Y0180612D01*
X0449755Y0180640D01*
X0449821Y0180664D01*
X0449889Y0180685D01*
X0449958Y0180702D01*
X0450028Y0180716D01*
X0450098Y0180725D01*
X0450169Y0180731D01*
X0450240Y0180733D01*
X0450311Y0180731D01*
X0450382Y0180725D01*
X0450452Y0180716D01*
X0450522Y0180702D01*
X0450591Y0180685D01*
X0450659Y0180664D01*
X0450725Y0180640D01*
X0450790Y0180612D01*
X0450854Y0180580D01*
X0450916Y0180545D01*
X0450976Y0180507D01*
X0451033Y0180466D01*
X0451089Y0180421D01*
X0451142Y0180374D01*
X0451192Y0180324D01*
X0451239Y0180271D01*
X0451284Y0180215D01*
X0451325Y0180158D01*
X0451363Y0180098D01*
X0451398Y0180036D01*
X0451430Y0179972D01*
X0451458Y0179907D01*
X0451482Y0179841D01*
X0451503Y0179773D01*
X0451520Y0179704D01*
X0451534Y0179634D01*
X0451543Y0179564D01*
X0451549Y0179493D01*
X0451551Y0179422D01*
X0451551Y0178767D01*
X0429236Y0025128D02*
X0429370Y0025082D01*
X0429505Y0025039D01*
X0429641Y0025000D01*
X0429778Y0024964D01*
X0429915Y0024932D01*
X0430054Y0024903D01*
X0430193Y0024877D01*
X0430333Y0024856D01*
X0430474Y0024837D01*
X0430614Y0024823D01*
X0430756Y0024812D01*
X0430897Y0024804D01*
X0431039Y0024801D01*
X0431039Y0024800D02*
X0431096Y0024801D01*
X0431154Y0024806D01*
X0431211Y0024815D01*
X0431267Y0024828D01*
X0431322Y0024844D01*
X0431376Y0024864D01*
X0431428Y0024888D01*
X0431479Y0024915D01*
X0431527Y0024946D01*
X0431574Y0024980D01*
X0431618Y0025017D01*
X0431660Y0025057D01*
X0431698Y0025099D01*
X0431734Y0025144D01*
X0431767Y0025192D01*
X0431796Y0025241D01*
X0431822Y0025292D01*
X0431845Y0025345D01*
X0431863Y0025400D01*
X0431878Y0025455D01*
X0431890Y0025512D01*
X0431897Y0025569D01*
X0431901Y0025626D01*
X0431900Y0025684D01*
X0431896Y0025741D01*
X0431888Y0025798D01*
X0431876Y0025854D01*
X0431860Y0025910D01*
X0431841Y0025964D01*
X0431818Y0026016D01*
X0431791Y0026067D01*
X0431761Y0026117D01*
X0431728Y0026164D01*
X0431692Y0026208D01*
X0431653Y0026250D01*
X0431611Y0026290D01*
X0431566Y0026326D01*
X0431519Y0026359D01*
X0431470Y0026389D01*
X0431419Y0026416D01*
X0431367Y0026439D01*
X0431366Y0026439D02*
X0429727Y0027094D01*
X0429727Y0027095D02*
X0429675Y0027118D01*
X0429624Y0027145D01*
X0429575Y0027175D01*
X0429528Y0027208D01*
X0429483Y0027244D01*
X0429441Y0027284D01*
X0429402Y0027326D01*
X0429366Y0027370D01*
X0429333Y0027417D01*
X0429303Y0027467D01*
X0429276Y0027518D01*
X0429253Y0027570D01*
X0429234Y0027624D01*
X0429218Y0027680D01*
X0429206Y0027736D01*
X0429198Y0027793D01*
X0429194Y0027850D01*
X0429193Y0027908D01*
X0429197Y0027965D01*
X0429204Y0028022D01*
X0429216Y0028079D01*
X0429231Y0028134D01*
X0429249Y0028189D01*
X0429272Y0028242D01*
X0429298Y0028293D01*
X0429327Y0028342D01*
X0429360Y0028390D01*
X0429396Y0028435D01*
X0429434Y0028477D01*
X0429476Y0028517D01*
X0429520Y0028554D01*
X0429567Y0028588D01*
X0429615Y0028619D01*
X0429666Y0028646D01*
X0429718Y0028670D01*
X0429772Y0028690D01*
X0429827Y0028706D01*
X0429883Y0028719D01*
X0429940Y0028728D01*
X0429998Y0028733D01*
X0430055Y0028734D01*
X0430055Y0028733D02*
X0430172Y0028729D01*
X0430289Y0028722D01*
X0430405Y0028711D01*
X0430522Y0028697D01*
X0430637Y0028678D01*
X0430752Y0028657D01*
X0430866Y0028631D01*
X0430980Y0028602D01*
X0431092Y0028570D01*
X0431204Y0028534D01*
X0431314Y0028494D01*
X0431423Y0028451D01*
X0431530Y0028405D01*
X0434580Y0027750D02*
X0434580Y0025783D01*
X0434582Y0025721D01*
X0434588Y0025660D01*
X0434597Y0025599D01*
X0434611Y0025539D01*
X0434628Y0025479D01*
X0434649Y0025421D01*
X0434674Y0025364D01*
X0434702Y0025309D01*
X0434733Y0025256D01*
X0434768Y0025205D01*
X0434806Y0025156D01*
X0434846Y0025110D01*
X0434890Y0025066D01*
X0434936Y0025026D01*
X0434985Y0024988D01*
X0435036Y0024953D01*
X0435089Y0024922D01*
X0435144Y0024894D01*
X0435201Y0024869D01*
X0435259Y0024848D01*
X0435319Y0024831D01*
X0435379Y0024817D01*
X0435440Y0024808D01*
X0435501Y0024802D01*
X0435563Y0024800D01*
X0436874Y0024800D01*
X0439287Y0026111D02*
X0439287Y0027422D01*
X0439289Y0027493D01*
X0439295Y0027564D01*
X0439304Y0027634D01*
X0439318Y0027704D01*
X0439335Y0027773D01*
X0439356Y0027841D01*
X0439380Y0027907D01*
X0439408Y0027972D01*
X0439440Y0028036D01*
X0439475Y0028098D01*
X0439513Y0028158D01*
X0439554Y0028215D01*
X0439599Y0028271D01*
X0439646Y0028324D01*
X0439696Y0028374D01*
X0439749Y0028421D01*
X0439805Y0028466D01*
X0439862Y0028507D01*
X0439922Y0028545D01*
X0439984Y0028580D01*
X0440048Y0028612D01*
X0440113Y0028640D01*
X0440179Y0028664D01*
X0440247Y0028685D01*
X0440316Y0028702D01*
X0440386Y0028716D01*
X0440456Y0028725D01*
X0440527Y0028731D01*
X0440598Y0028733D01*
X0440669Y0028731D01*
X0440740Y0028725D01*
X0440810Y0028716D01*
X0440880Y0028702D01*
X0440949Y0028685D01*
X0441017Y0028664D01*
X0441083Y0028640D01*
X0441148Y0028612D01*
X0441212Y0028580D01*
X0441274Y0028545D01*
X0441334Y0028507D01*
X0441391Y0028466D01*
X0441447Y0028421D01*
X0441500Y0028374D01*
X0441550Y0028324D01*
X0441597Y0028271D01*
X0441642Y0028215D01*
X0441683Y0028158D01*
X0441721Y0028098D01*
X0441756Y0028036D01*
X0441788Y0027972D01*
X0441816Y0027907D01*
X0441840Y0027841D01*
X0441861Y0027773D01*
X0441878Y0027704D01*
X0441892Y0027634D01*
X0441901Y0027564D01*
X0441907Y0027493D01*
X0441909Y0027422D01*
X0441910Y0027422D02*
X0441910Y0026111D01*
X0441909Y0026111D02*
X0441907Y0026040D01*
X0441901Y0025969D01*
X0441892Y0025899D01*
X0441878Y0025829D01*
X0441861Y0025760D01*
X0441840Y0025692D01*
X0441816Y0025626D01*
X0441788Y0025561D01*
X0441756Y0025497D01*
X0441721Y0025435D01*
X0441683Y0025375D01*
X0441642Y0025318D01*
X0441597Y0025262D01*
X0441550Y0025209D01*
X0441500Y0025159D01*
X0441447Y0025112D01*
X0441391Y0025067D01*
X0441334Y0025026D01*
X0441274Y0024988D01*
X0441212Y0024953D01*
X0441148Y0024921D01*
X0441083Y0024893D01*
X0441017Y0024869D01*
X0440949Y0024848D01*
X0440880Y0024831D01*
X0440810Y0024817D01*
X0440740Y0024808D01*
X0440669Y0024802D01*
X0440598Y0024800D01*
X0440527Y0024802D01*
X0440456Y0024808D01*
X0440386Y0024817D01*
X0440316Y0024831D01*
X0440247Y0024848D01*
X0440179Y0024869D01*
X0440113Y0024893D01*
X0440048Y0024921D01*
X0439984Y0024953D01*
X0439922Y0024988D01*
X0439862Y0025026D01*
X0439805Y0025067D01*
X0439749Y0025112D01*
X0439696Y0025159D01*
X0439646Y0025209D01*
X0439599Y0025262D01*
X0439554Y0025318D01*
X0439513Y0025375D01*
X0439475Y0025435D01*
X0439440Y0025497D01*
X0439408Y0025561D01*
X0439380Y0025626D01*
X0439356Y0025692D01*
X0439335Y0025760D01*
X0439318Y0025829D01*
X0439304Y0025899D01*
X0439295Y0025969D01*
X0439289Y0026040D01*
X0439287Y0026111D01*
X0436874Y0028733D02*
X0435563Y0028733D01*
X0435501Y0028731D01*
X0435440Y0028725D01*
X0435379Y0028716D01*
X0435319Y0028702D01*
X0435259Y0028685D01*
X0435201Y0028664D01*
X0435144Y0028639D01*
X0435089Y0028611D01*
X0435036Y0028580D01*
X0434985Y0028545D01*
X0434936Y0028507D01*
X0434890Y0028467D01*
X0434846Y0028423D01*
X0434806Y0028377D01*
X0434768Y0028328D01*
X0434733Y0028277D01*
X0434702Y0028224D01*
X0434674Y0028169D01*
X0434649Y0028112D01*
X0434628Y0028054D01*
X0434611Y0027994D01*
X0434597Y0027934D01*
X0434588Y0027873D01*
X0434582Y0027812D01*
X0434580Y0027750D01*
X0426359Y0027094D02*
X0422426Y0027094D01*
X0419755Y0028733D02*
X0418444Y0024800D01*
X0417133Y0028733D01*
X0444876Y0028733D02*
X0444876Y0024800D01*
X0446843Y0028078D02*
X0446843Y0028733D01*
X0444876Y0028733D01*
X0448929Y0027422D02*
X0448929Y0025783D01*
X0448931Y0025721D01*
X0448937Y0025660D01*
X0448946Y0025599D01*
X0448960Y0025539D01*
X0448977Y0025479D01*
X0448998Y0025421D01*
X0449023Y0025364D01*
X0449051Y0025309D01*
X0449082Y0025256D01*
X0449117Y0025205D01*
X0449155Y0025156D01*
X0449195Y0025110D01*
X0449239Y0025066D01*
X0449285Y0025026D01*
X0449334Y0024988D01*
X0449385Y0024953D01*
X0449438Y0024922D01*
X0449493Y0024894D01*
X0449550Y0024869D01*
X0449608Y0024848D01*
X0449668Y0024831D01*
X0449728Y0024817D01*
X0449789Y0024808D01*
X0449850Y0024802D01*
X0449912Y0024800D01*
X0451551Y0024800D01*
X0451551Y0026767D02*
X0448929Y0026767D01*
X0448929Y0027422D02*
X0448931Y0027493D01*
X0448937Y0027564D01*
X0448946Y0027634D01*
X0448960Y0027704D01*
X0448977Y0027773D01*
X0448998Y0027841D01*
X0449022Y0027907D01*
X0449050Y0027972D01*
X0449082Y0028036D01*
X0449117Y0028098D01*
X0449155Y0028158D01*
X0449196Y0028215D01*
X0449241Y0028271D01*
X0449288Y0028324D01*
X0449338Y0028374D01*
X0449391Y0028421D01*
X0449447Y0028466D01*
X0449504Y0028507D01*
X0449564Y0028545D01*
X0449626Y0028580D01*
X0449690Y0028612D01*
X0449755Y0028640D01*
X0449821Y0028664D01*
X0449889Y0028685D01*
X0449958Y0028702D01*
X0450028Y0028716D01*
X0450098Y0028725D01*
X0450169Y0028731D01*
X0450240Y0028733D01*
X0450311Y0028731D01*
X0450382Y0028725D01*
X0450452Y0028716D01*
X0450522Y0028702D01*
X0450591Y0028685D01*
X0450659Y0028664D01*
X0450725Y0028640D01*
X0450790Y0028612D01*
X0450854Y0028580D01*
X0450916Y0028545D01*
X0450976Y0028507D01*
X0451033Y0028466D01*
X0451089Y0028421D01*
X0451142Y0028374D01*
X0451192Y0028324D01*
X0451239Y0028271D01*
X0451284Y0028215D01*
X0451325Y0028158D01*
X0451363Y0028098D01*
X0451398Y0028036D01*
X0451430Y0027972D01*
X0451458Y0027907D01*
X0451482Y0027841D01*
X0451503Y0027773D01*
X0451520Y0027704D01*
X0451534Y0027634D01*
X0451543Y0027564D01*
X0451549Y0027493D01*
X0451551Y0027422D01*
X0451551Y0026767D01*
X0064551Y0388800D02*
X0062912Y0388800D01*
X0062850Y0388802D01*
X0062789Y0388808D01*
X0062728Y0388817D01*
X0062668Y0388831D01*
X0062608Y0388848D01*
X0062550Y0388869D01*
X0062493Y0388894D01*
X0062438Y0388922D01*
X0062385Y0388953D01*
X0062334Y0388988D01*
X0062285Y0389026D01*
X0062239Y0389066D01*
X0062195Y0389110D01*
X0062155Y0389156D01*
X0062117Y0389205D01*
X0062082Y0389256D01*
X0062051Y0389309D01*
X0062023Y0389364D01*
X0061998Y0389421D01*
X0061977Y0389479D01*
X0061960Y0389539D01*
X0061946Y0389599D01*
X0061937Y0389660D01*
X0061931Y0389721D01*
X0061929Y0389783D01*
X0061929Y0391422D01*
X0061929Y0390767D02*
X0064551Y0390767D01*
X0064551Y0391422D01*
X0064549Y0391493D01*
X0064543Y0391564D01*
X0064534Y0391634D01*
X0064520Y0391704D01*
X0064503Y0391773D01*
X0064482Y0391841D01*
X0064458Y0391907D01*
X0064430Y0391972D01*
X0064398Y0392036D01*
X0064363Y0392098D01*
X0064325Y0392158D01*
X0064284Y0392215D01*
X0064239Y0392271D01*
X0064192Y0392324D01*
X0064142Y0392374D01*
X0064089Y0392421D01*
X0064033Y0392466D01*
X0063976Y0392507D01*
X0063916Y0392545D01*
X0063854Y0392580D01*
X0063790Y0392612D01*
X0063725Y0392640D01*
X0063659Y0392664D01*
X0063591Y0392685D01*
X0063522Y0392702D01*
X0063452Y0392716D01*
X0063382Y0392725D01*
X0063311Y0392731D01*
X0063240Y0392733D01*
X0063169Y0392731D01*
X0063098Y0392725D01*
X0063028Y0392716D01*
X0062958Y0392702D01*
X0062889Y0392685D01*
X0062821Y0392664D01*
X0062755Y0392640D01*
X0062690Y0392612D01*
X0062626Y0392580D01*
X0062564Y0392545D01*
X0062504Y0392507D01*
X0062447Y0392466D01*
X0062391Y0392421D01*
X0062338Y0392374D01*
X0062288Y0392324D01*
X0062241Y0392271D01*
X0062196Y0392215D01*
X0062155Y0392158D01*
X0062117Y0392098D01*
X0062082Y0392036D01*
X0062050Y0391972D01*
X0062022Y0391907D01*
X0061998Y0391841D01*
X0061977Y0391773D01*
X0061960Y0391704D01*
X0061946Y0391634D01*
X0061937Y0391564D01*
X0061931Y0391493D01*
X0061929Y0391422D01*
X0059843Y0392078D02*
X0059843Y0392733D01*
X0057876Y0392733D01*
X0057876Y0388800D01*
X0054910Y0390111D02*
X0054910Y0391422D01*
X0054909Y0391422D02*
X0054907Y0391493D01*
X0054901Y0391564D01*
X0054892Y0391634D01*
X0054878Y0391704D01*
X0054861Y0391773D01*
X0054840Y0391841D01*
X0054816Y0391907D01*
X0054788Y0391972D01*
X0054756Y0392036D01*
X0054721Y0392098D01*
X0054683Y0392158D01*
X0054642Y0392215D01*
X0054597Y0392271D01*
X0054550Y0392324D01*
X0054500Y0392374D01*
X0054447Y0392421D01*
X0054391Y0392466D01*
X0054334Y0392507D01*
X0054274Y0392545D01*
X0054212Y0392580D01*
X0054148Y0392612D01*
X0054083Y0392640D01*
X0054017Y0392664D01*
X0053949Y0392685D01*
X0053880Y0392702D01*
X0053810Y0392716D01*
X0053740Y0392725D01*
X0053669Y0392731D01*
X0053598Y0392733D01*
X0053527Y0392731D01*
X0053456Y0392725D01*
X0053386Y0392716D01*
X0053316Y0392702D01*
X0053247Y0392685D01*
X0053179Y0392664D01*
X0053113Y0392640D01*
X0053048Y0392612D01*
X0052984Y0392580D01*
X0052922Y0392545D01*
X0052862Y0392507D01*
X0052805Y0392466D01*
X0052749Y0392421D01*
X0052696Y0392374D01*
X0052646Y0392324D01*
X0052599Y0392271D01*
X0052554Y0392215D01*
X0052513Y0392158D01*
X0052475Y0392098D01*
X0052440Y0392036D01*
X0052408Y0391972D01*
X0052380Y0391907D01*
X0052356Y0391841D01*
X0052335Y0391773D01*
X0052318Y0391704D01*
X0052304Y0391634D01*
X0052295Y0391564D01*
X0052289Y0391493D01*
X0052287Y0391422D01*
X0052287Y0390111D01*
X0052289Y0390040D01*
X0052295Y0389969D01*
X0052304Y0389899D01*
X0052318Y0389829D01*
X0052335Y0389760D01*
X0052356Y0389692D01*
X0052380Y0389626D01*
X0052408Y0389561D01*
X0052440Y0389497D01*
X0052475Y0389435D01*
X0052513Y0389375D01*
X0052554Y0389318D01*
X0052599Y0389262D01*
X0052646Y0389209D01*
X0052696Y0389159D01*
X0052749Y0389112D01*
X0052805Y0389067D01*
X0052862Y0389026D01*
X0052922Y0388988D01*
X0052984Y0388953D01*
X0053048Y0388921D01*
X0053113Y0388893D01*
X0053179Y0388869D01*
X0053247Y0388848D01*
X0053316Y0388831D01*
X0053386Y0388817D01*
X0053456Y0388808D01*
X0053527Y0388802D01*
X0053598Y0388800D01*
X0053669Y0388802D01*
X0053740Y0388808D01*
X0053810Y0388817D01*
X0053880Y0388831D01*
X0053949Y0388848D01*
X0054017Y0388869D01*
X0054083Y0388893D01*
X0054148Y0388921D01*
X0054212Y0388953D01*
X0054274Y0388988D01*
X0054334Y0389026D01*
X0054391Y0389067D01*
X0054447Y0389112D01*
X0054500Y0389159D01*
X0054550Y0389209D01*
X0054597Y0389262D01*
X0054642Y0389318D01*
X0054683Y0389375D01*
X0054721Y0389435D01*
X0054756Y0389497D01*
X0054788Y0389561D01*
X0054816Y0389626D01*
X0054840Y0389692D01*
X0054861Y0389760D01*
X0054878Y0389829D01*
X0054892Y0389899D01*
X0054901Y0389969D01*
X0054907Y0390040D01*
X0054909Y0390111D01*
X0049874Y0388800D02*
X0048563Y0388800D01*
X0048501Y0388802D01*
X0048440Y0388808D01*
X0048379Y0388817D01*
X0048319Y0388831D01*
X0048259Y0388848D01*
X0048201Y0388869D01*
X0048144Y0388894D01*
X0048089Y0388922D01*
X0048036Y0388953D01*
X0047985Y0388988D01*
X0047936Y0389026D01*
X0047890Y0389066D01*
X0047846Y0389110D01*
X0047806Y0389156D01*
X0047768Y0389205D01*
X0047733Y0389256D01*
X0047702Y0389309D01*
X0047674Y0389364D01*
X0047649Y0389421D01*
X0047628Y0389479D01*
X0047611Y0389539D01*
X0047597Y0389599D01*
X0047588Y0389660D01*
X0047582Y0389721D01*
X0047580Y0389783D01*
X0047580Y0391750D01*
X0047582Y0391812D01*
X0047588Y0391873D01*
X0047597Y0391934D01*
X0047611Y0391994D01*
X0047628Y0392054D01*
X0047649Y0392112D01*
X0047674Y0392169D01*
X0047702Y0392224D01*
X0047733Y0392277D01*
X0047768Y0392328D01*
X0047806Y0392377D01*
X0047846Y0392423D01*
X0047890Y0392467D01*
X0047936Y0392507D01*
X0047985Y0392545D01*
X0048036Y0392580D01*
X0048089Y0392611D01*
X0048144Y0392639D01*
X0048201Y0392664D01*
X0048259Y0392685D01*
X0048319Y0392702D01*
X0048379Y0392716D01*
X0048440Y0392725D01*
X0048501Y0392731D01*
X0048563Y0392733D01*
X0049874Y0392733D01*
X0044366Y0390439D02*
X0042727Y0391094D01*
X0042727Y0391095D02*
X0042675Y0391118D01*
X0042624Y0391145D01*
X0042575Y0391175D01*
X0042528Y0391208D01*
X0042483Y0391244D01*
X0042441Y0391284D01*
X0042402Y0391326D01*
X0042366Y0391370D01*
X0042333Y0391417D01*
X0042303Y0391467D01*
X0042276Y0391518D01*
X0042253Y0391570D01*
X0042234Y0391624D01*
X0042218Y0391680D01*
X0042206Y0391736D01*
X0042198Y0391793D01*
X0042194Y0391850D01*
X0042193Y0391908D01*
X0042197Y0391965D01*
X0042204Y0392022D01*
X0042216Y0392079D01*
X0042231Y0392134D01*
X0042249Y0392189D01*
X0042272Y0392242D01*
X0042298Y0392293D01*
X0042327Y0392342D01*
X0042360Y0392390D01*
X0042396Y0392435D01*
X0042434Y0392477D01*
X0042476Y0392517D01*
X0042520Y0392554D01*
X0042567Y0392588D01*
X0042615Y0392619D01*
X0042666Y0392646D01*
X0042718Y0392670D01*
X0042772Y0392690D01*
X0042827Y0392706D01*
X0042883Y0392719D01*
X0042940Y0392728D01*
X0042998Y0392733D01*
X0043055Y0392734D01*
X0042236Y0389128D02*
X0042370Y0389082D01*
X0042505Y0389039D01*
X0042641Y0389000D01*
X0042778Y0388964D01*
X0042915Y0388932D01*
X0043054Y0388903D01*
X0043193Y0388877D01*
X0043333Y0388856D01*
X0043474Y0388837D01*
X0043614Y0388823D01*
X0043756Y0388812D01*
X0043897Y0388804D01*
X0044039Y0388801D01*
X0044039Y0388800D02*
X0044096Y0388801D01*
X0044154Y0388806D01*
X0044211Y0388815D01*
X0044267Y0388828D01*
X0044322Y0388844D01*
X0044376Y0388864D01*
X0044428Y0388888D01*
X0044479Y0388915D01*
X0044527Y0388946D01*
X0044574Y0388980D01*
X0044618Y0389017D01*
X0044660Y0389057D01*
X0044698Y0389099D01*
X0044734Y0389144D01*
X0044767Y0389192D01*
X0044796Y0389241D01*
X0044822Y0389292D01*
X0044845Y0389345D01*
X0044863Y0389400D01*
X0044878Y0389455D01*
X0044890Y0389512D01*
X0044897Y0389569D01*
X0044901Y0389626D01*
X0044900Y0389684D01*
X0044896Y0389741D01*
X0044888Y0389798D01*
X0044876Y0389854D01*
X0044860Y0389910D01*
X0044841Y0389964D01*
X0044818Y0390016D01*
X0044791Y0390067D01*
X0044761Y0390117D01*
X0044728Y0390164D01*
X0044692Y0390208D01*
X0044653Y0390250D01*
X0044611Y0390290D01*
X0044566Y0390326D01*
X0044519Y0390359D01*
X0044470Y0390389D01*
X0044419Y0390416D01*
X0044367Y0390439D01*
X0044530Y0392405D02*
X0044423Y0392451D01*
X0044314Y0392494D01*
X0044204Y0392534D01*
X0044092Y0392570D01*
X0043980Y0392602D01*
X0043866Y0392631D01*
X0043752Y0392657D01*
X0043637Y0392678D01*
X0043522Y0392697D01*
X0043405Y0392711D01*
X0043289Y0392722D01*
X0043172Y0392729D01*
X0043055Y0392733D01*
X0039359Y0391094D02*
X0035426Y0391094D01*
X0032755Y0392733D02*
X0031444Y0388800D01*
X0030133Y0392733D01*
D13*
X0021342Y0026750D02*
X0021342Y0001750D01*
X0379342Y0001750D01*
X0379342Y0026750D01*
X0021342Y0026750D01*
X0021342Y0028750D02*
X0021342Y0330750D01*
X0046342Y0330750D01*
X0046342Y0028750D01*
X0021342Y0028750D01*
X0354342Y0028750D02*
X0354342Y0330750D01*
X0379342Y0330750D01*
X0379342Y0028750D01*
X0354342Y0028750D01*
X0379342Y0332750D02*
X0021342Y0332750D01*
X0021342Y0357750D01*
X0379342Y0357750D01*
X0379342Y0332750D01*
D14*
X0335842Y0320750D02*
X0335844Y0320911D01*
X0335850Y0321071D01*
X0335860Y0321232D01*
X0335874Y0321392D01*
X0335892Y0321552D01*
X0335913Y0321711D01*
X0335939Y0321870D01*
X0335969Y0322028D01*
X0336002Y0322185D01*
X0336040Y0322342D01*
X0336081Y0322497D01*
X0336126Y0322651D01*
X0336175Y0322804D01*
X0336228Y0322956D01*
X0336284Y0323107D01*
X0336345Y0323256D01*
X0336408Y0323404D01*
X0336476Y0323550D01*
X0336547Y0323694D01*
X0336621Y0323836D01*
X0336699Y0323977D01*
X0336781Y0324115D01*
X0336866Y0324252D01*
X0336954Y0324386D01*
X0337046Y0324518D01*
X0337141Y0324648D01*
X0337239Y0324776D01*
X0337340Y0324901D01*
X0337444Y0325023D01*
X0337551Y0325143D01*
X0337661Y0325260D01*
X0337774Y0325375D01*
X0337890Y0325486D01*
X0338009Y0325595D01*
X0338130Y0325700D01*
X0338254Y0325803D01*
X0338380Y0325903D01*
X0338508Y0325999D01*
X0338639Y0326092D01*
X0338773Y0326182D01*
X0338908Y0326269D01*
X0339046Y0326352D01*
X0339185Y0326432D01*
X0339327Y0326508D01*
X0339470Y0326581D01*
X0339615Y0326650D01*
X0339762Y0326716D01*
X0339910Y0326778D01*
X0340060Y0326836D01*
X0340211Y0326891D01*
X0340364Y0326942D01*
X0340518Y0326989D01*
X0340673Y0327032D01*
X0340829Y0327071D01*
X0340985Y0327107D01*
X0341143Y0327138D01*
X0341301Y0327166D01*
X0341460Y0327190D01*
X0341620Y0327210D01*
X0341780Y0327226D01*
X0341940Y0327238D01*
X0342101Y0327246D01*
X0342262Y0327250D01*
X0342422Y0327250D01*
X0342583Y0327246D01*
X0342744Y0327238D01*
X0342904Y0327226D01*
X0343064Y0327210D01*
X0343224Y0327190D01*
X0343383Y0327166D01*
X0343541Y0327138D01*
X0343699Y0327107D01*
X0343855Y0327071D01*
X0344011Y0327032D01*
X0344166Y0326989D01*
X0344320Y0326942D01*
X0344473Y0326891D01*
X0344624Y0326836D01*
X0344774Y0326778D01*
X0344922Y0326716D01*
X0345069Y0326650D01*
X0345214Y0326581D01*
X0345357Y0326508D01*
X0345499Y0326432D01*
X0345638Y0326352D01*
X0345776Y0326269D01*
X0345911Y0326182D01*
X0346045Y0326092D01*
X0346176Y0325999D01*
X0346304Y0325903D01*
X0346430Y0325803D01*
X0346554Y0325700D01*
X0346675Y0325595D01*
X0346794Y0325486D01*
X0346910Y0325375D01*
X0347023Y0325260D01*
X0347133Y0325143D01*
X0347240Y0325023D01*
X0347344Y0324901D01*
X0347445Y0324776D01*
X0347543Y0324648D01*
X0347638Y0324518D01*
X0347730Y0324386D01*
X0347818Y0324252D01*
X0347903Y0324115D01*
X0347985Y0323977D01*
X0348063Y0323836D01*
X0348137Y0323694D01*
X0348208Y0323550D01*
X0348276Y0323404D01*
X0348339Y0323256D01*
X0348400Y0323107D01*
X0348456Y0322956D01*
X0348509Y0322804D01*
X0348558Y0322651D01*
X0348603Y0322497D01*
X0348644Y0322342D01*
X0348682Y0322185D01*
X0348715Y0322028D01*
X0348745Y0321870D01*
X0348771Y0321711D01*
X0348792Y0321552D01*
X0348810Y0321392D01*
X0348824Y0321232D01*
X0348834Y0321071D01*
X0348840Y0320911D01*
X0348842Y0320750D01*
X0348840Y0320589D01*
X0348834Y0320429D01*
X0348824Y0320268D01*
X0348810Y0320108D01*
X0348792Y0319948D01*
X0348771Y0319789D01*
X0348745Y0319630D01*
X0348715Y0319472D01*
X0348682Y0319315D01*
X0348644Y0319158D01*
X0348603Y0319003D01*
X0348558Y0318849D01*
X0348509Y0318696D01*
X0348456Y0318544D01*
X0348400Y0318393D01*
X0348339Y0318244D01*
X0348276Y0318096D01*
X0348208Y0317950D01*
X0348137Y0317806D01*
X0348063Y0317664D01*
X0347985Y0317523D01*
X0347903Y0317385D01*
X0347818Y0317248D01*
X0347730Y0317114D01*
X0347638Y0316982D01*
X0347543Y0316852D01*
X0347445Y0316724D01*
X0347344Y0316599D01*
X0347240Y0316477D01*
X0347133Y0316357D01*
X0347023Y0316240D01*
X0346910Y0316125D01*
X0346794Y0316014D01*
X0346675Y0315905D01*
X0346554Y0315800D01*
X0346430Y0315697D01*
X0346304Y0315597D01*
X0346176Y0315501D01*
X0346045Y0315408D01*
X0345911Y0315318D01*
X0345776Y0315231D01*
X0345638Y0315148D01*
X0345499Y0315068D01*
X0345357Y0314992D01*
X0345214Y0314919D01*
X0345069Y0314850D01*
X0344922Y0314784D01*
X0344774Y0314722D01*
X0344624Y0314664D01*
X0344473Y0314609D01*
X0344320Y0314558D01*
X0344166Y0314511D01*
X0344011Y0314468D01*
X0343855Y0314429D01*
X0343699Y0314393D01*
X0343541Y0314362D01*
X0343383Y0314334D01*
X0343224Y0314310D01*
X0343064Y0314290D01*
X0342904Y0314274D01*
X0342744Y0314262D01*
X0342583Y0314254D01*
X0342422Y0314250D01*
X0342262Y0314250D01*
X0342101Y0314254D01*
X0341940Y0314262D01*
X0341780Y0314274D01*
X0341620Y0314290D01*
X0341460Y0314310D01*
X0341301Y0314334D01*
X0341143Y0314362D01*
X0340985Y0314393D01*
X0340829Y0314429D01*
X0340673Y0314468D01*
X0340518Y0314511D01*
X0340364Y0314558D01*
X0340211Y0314609D01*
X0340060Y0314664D01*
X0339910Y0314722D01*
X0339762Y0314784D01*
X0339615Y0314850D01*
X0339470Y0314919D01*
X0339327Y0314992D01*
X0339185Y0315068D01*
X0339046Y0315148D01*
X0338908Y0315231D01*
X0338773Y0315318D01*
X0338639Y0315408D01*
X0338508Y0315501D01*
X0338380Y0315597D01*
X0338254Y0315697D01*
X0338130Y0315800D01*
X0338009Y0315905D01*
X0337890Y0316014D01*
X0337774Y0316125D01*
X0337661Y0316240D01*
X0337551Y0316357D01*
X0337444Y0316477D01*
X0337340Y0316599D01*
X0337239Y0316724D01*
X0337141Y0316852D01*
X0337046Y0316982D01*
X0336954Y0317114D01*
X0336866Y0317248D01*
X0336781Y0317385D01*
X0336699Y0317523D01*
X0336621Y0317664D01*
X0336547Y0317806D01*
X0336476Y0317950D01*
X0336408Y0318096D01*
X0336345Y0318244D01*
X0336284Y0318393D01*
X0336228Y0318544D01*
X0336175Y0318696D01*
X0336126Y0318849D01*
X0336081Y0319003D01*
X0336040Y0319158D01*
X0336002Y0319315D01*
X0335969Y0319472D01*
X0335939Y0319630D01*
X0335913Y0319789D01*
X0335892Y0319948D01*
X0335874Y0320108D01*
X0335860Y0320268D01*
X0335850Y0320429D01*
X0335844Y0320589D01*
X0335842Y0320750D01*
X0255842Y0320750D02*
X0255844Y0320911D01*
X0255850Y0321071D01*
X0255860Y0321232D01*
X0255874Y0321392D01*
X0255892Y0321552D01*
X0255913Y0321711D01*
X0255939Y0321870D01*
X0255969Y0322028D01*
X0256002Y0322185D01*
X0256040Y0322342D01*
X0256081Y0322497D01*
X0256126Y0322651D01*
X0256175Y0322804D01*
X0256228Y0322956D01*
X0256284Y0323107D01*
X0256345Y0323256D01*
X0256408Y0323404D01*
X0256476Y0323550D01*
X0256547Y0323694D01*
X0256621Y0323836D01*
X0256699Y0323977D01*
X0256781Y0324115D01*
X0256866Y0324252D01*
X0256954Y0324386D01*
X0257046Y0324518D01*
X0257141Y0324648D01*
X0257239Y0324776D01*
X0257340Y0324901D01*
X0257444Y0325023D01*
X0257551Y0325143D01*
X0257661Y0325260D01*
X0257774Y0325375D01*
X0257890Y0325486D01*
X0258009Y0325595D01*
X0258130Y0325700D01*
X0258254Y0325803D01*
X0258380Y0325903D01*
X0258508Y0325999D01*
X0258639Y0326092D01*
X0258773Y0326182D01*
X0258908Y0326269D01*
X0259046Y0326352D01*
X0259185Y0326432D01*
X0259327Y0326508D01*
X0259470Y0326581D01*
X0259615Y0326650D01*
X0259762Y0326716D01*
X0259910Y0326778D01*
X0260060Y0326836D01*
X0260211Y0326891D01*
X0260364Y0326942D01*
X0260518Y0326989D01*
X0260673Y0327032D01*
X0260829Y0327071D01*
X0260985Y0327107D01*
X0261143Y0327138D01*
X0261301Y0327166D01*
X0261460Y0327190D01*
X0261620Y0327210D01*
X0261780Y0327226D01*
X0261940Y0327238D01*
X0262101Y0327246D01*
X0262262Y0327250D01*
X0262422Y0327250D01*
X0262583Y0327246D01*
X0262744Y0327238D01*
X0262904Y0327226D01*
X0263064Y0327210D01*
X0263224Y0327190D01*
X0263383Y0327166D01*
X0263541Y0327138D01*
X0263699Y0327107D01*
X0263855Y0327071D01*
X0264011Y0327032D01*
X0264166Y0326989D01*
X0264320Y0326942D01*
X0264473Y0326891D01*
X0264624Y0326836D01*
X0264774Y0326778D01*
X0264922Y0326716D01*
X0265069Y0326650D01*
X0265214Y0326581D01*
X0265357Y0326508D01*
X0265499Y0326432D01*
X0265638Y0326352D01*
X0265776Y0326269D01*
X0265911Y0326182D01*
X0266045Y0326092D01*
X0266176Y0325999D01*
X0266304Y0325903D01*
X0266430Y0325803D01*
X0266554Y0325700D01*
X0266675Y0325595D01*
X0266794Y0325486D01*
X0266910Y0325375D01*
X0267023Y0325260D01*
X0267133Y0325143D01*
X0267240Y0325023D01*
X0267344Y0324901D01*
X0267445Y0324776D01*
X0267543Y0324648D01*
X0267638Y0324518D01*
X0267730Y0324386D01*
X0267818Y0324252D01*
X0267903Y0324115D01*
X0267985Y0323977D01*
X0268063Y0323836D01*
X0268137Y0323694D01*
X0268208Y0323550D01*
X0268276Y0323404D01*
X0268339Y0323256D01*
X0268400Y0323107D01*
X0268456Y0322956D01*
X0268509Y0322804D01*
X0268558Y0322651D01*
X0268603Y0322497D01*
X0268644Y0322342D01*
X0268682Y0322185D01*
X0268715Y0322028D01*
X0268745Y0321870D01*
X0268771Y0321711D01*
X0268792Y0321552D01*
X0268810Y0321392D01*
X0268824Y0321232D01*
X0268834Y0321071D01*
X0268840Y0320911D01*
X0268842Y0320750D01*
X0268840Y0320589D01*
X0268834Y0320429D01*
X0268824Y0320268D01*
X0268810Y0320108D01*
X0268792Y0319948D01*
X0268771Y0319789D01*
X0268745Y0319630D01*
X0268715Y0319472D01*
X0268682Y0319315D01*
X0268644Y0319158D01*
X0268603Y0319003D01*
X0268558Y0318849D01*
X0268509Y0318696D01*
X0268456Y0318544D01*
X0268400Y0318393D01*
X0268339Y0318244D01*
X0268276Y0318096D01*
X0268208Y0317950D01*
X0268137Y0317806D01*
X0268063Y0317664D01*
X0267985Y0317523D01*
X0267903Y0317385D01*
X0267818Y0317248D01*
X0267730Y0317114D01*
X0267638Y0316982D01*
X0267543Y0316852D01*
X0267445Y0316724D01*
X0267344Y0316599D01*
X0267240Y0316477D01*
X0267133Y0316357D01*
X0267023Y0316240D01*
X0266910Y0316125D01*
X0266794Y0316014D01*
X0266675Y0315905D01*
X0266554Y0315800D01*
X0266430Y0315697D01*
X0266304Y0315597D01*
X0266176Y0315501D01*
X0266045Y0315408D01*
X0265911Y0315318D01*
X0265776Y0315231D01*
X0265638Y0315148D01*
X0265499Y0315068D01*
X0265357Y0314992D01*
X0265214Y0314919D01*
X0265069Y0314850D01*
X0264922Y0314784D01*
X0264774Y0314722D01*
X0264624Y0314664D01*
X0264473Y0314609D01*
X0264320Y0314558D01*
X0264166Y0314511D01*
X0264011Y0314468D01*
X0263855Y0314429D01*
X0263699Y0314393D01*
X0263541Y0314362D01*
X0263383Y0314334D01*
X0263224Y0314310D01*
X0263064Y0314290D01*
X0262904Y0314274D01*
X0262744Y0314262D01*
X0262583Y0314254D01*
X0262422Y0314250D01*
X0262262Y0314250D01*
X0262101Y0314254D01*
X0261940Y0314262D01*
X0261780Y0314274D01*
X0261620Y0314290D01*
X0261460Y0314310D01*
X0261301Y0314334D01*
X0261143Y0314362D01*
X0260985Y0314393D01*
X0260829Y0314429D01*
X0260673Y0314468D01*
X0260518Y0314511D01*
X0260364Y0314558D01*
X0260211Y0314609D01*
X0260060Y0314664D01*
X0259910Y0314722D01*
X0259762Y0314784D01*
X0259615Y0314850D01*
X0259470Y0314919D01*
X0259327Y0314992D01*
X0259185Y0315068D01*
X0259046Y0315148D01*
X0258908Y0315231D01*
X0258773Y0315318D01*
X0258639Y0315408D01*
X0258508Y0315501D01*
X0258380Y0315597D01*
X0258254Y0315697D01*
X0258130Y0315800D01*
X0258009Y0315905D01*
X0257890Y0316014D01*
X0257774Y0316125D01*
X0257661Y0316240D01*
X0257551Y0316357D01*
X0257444Y0316477D01*
X0257340Y0316599D01*
X0257239Y0316724D01*
X0257141Y0316852D01*
X0257046Y0316982D01*
X0256954Y0317114D01*
X0256866Y0317248D01*
X0256781Y0317385D01*
X0256699Y0317523D01*
X0256621Y0317664D01*
X0256547Y0317806D01*
X0256476Y0317950D01*
X0256408Y0318096D01*
X0256345Y0318244D01*
X0256284Y0318393D01*
X0256228Y0318544D01*
X0256175Y0318696D01*
X0256126Y0318849D01*
X0256081Y0319003D01*
X0256040Y0319158D01*
X0256002Y0319315D01*
X0255969Y0319472D01*
X0255939Y0319630D01*
X0255913Y0319789D01*
X0255892Y0319948D01*
X0255874Y0320108D01*
X0255860Y0320268D01*
X0255850Y0320429D01*
X0255844Y0320589D01*
X0255842Y0320750D01*
X0233842Y0320750D02*
X0233844Y0320911D01*
X0233850Y0321071D01*
X0233860Y0321232D01*
X0233874Y0321392D01*
X0233892Y0321552D01*
X0233913Y0321711D01*
X0233939Y0321870D01*
X0233969Y0322028D01*
X0234002Y0322185D01*
X0234040Y0322342D01*
X0234081Y0322497D01*
X0234126Y0322651D01*
X0234175Y0322804D01*
X0234228Y0322956D01*
X0234284Y0323107D01*
X0234345Y0323256D01*
X0234408Y0323404D01*
X0234476Y0323550D01*
X0234547Y0323694D01*
X0234621Y0323836D01*
X0234699Y0323977D01*
X0234781Y0324115D01*
X0234866Y0324252D01*
X0234954Y0324386D01*
X0235046Y0324518D01*
X0235141Y0324648D01*
X0235239Y0324776D01*
X0235340Y0324901D01*
X0235444Y0325023D01*
X0235551Y0325143D01*
X0235661Y0325260D01*
X0235774Y0325375D01*
X0235890Y0325486D01*
X0236009Y0325595D01*
X0236130Y0325700D01*
X0236254Y0325803D01*
X0236380Y0325903D01*
X0236508Y0325999D01*
X0236639Y0326092D01*
X0236773Y0326182D01*
X0236908Y0326269D01*
X0237046Y0326352D01*
X0237185Y0326432D01*
X0237327Y0326508D01*
X0237470Y0326581D01*
X0237615Y0326650D01*
X0237762Y0326716D01*
X0237910Y0326778D01*
X0238060Y0326836D01*
X0238211Y0326891D01*
X0238364Y0326942D01*
X0238518Y0326989D01*
X0238673Y0327032D01*
X0238829Y0327071D01*
X0238985Y0327107D01*
X0239143Y0327138D01*
X0239301Y0327166D01*
X0239460Y0327190D01*
X0239620Y0327210D01*
X0239780Y0327226D01*
X0239940Y0327238D01*
X0240101Y0327246D01*
X0240262Y0327250D01*
X0240422Y0327250D01*
X0240583Y0327246D01*
X0240744Y0327238D01*
X0240904Y0327226D01*
X0241064Y0327210D01*
X0241224Y0327190D01*
X0241383Y0327166D01*
X0241541Y0327138D01*
X0241699Y0327107D01*
X0241855Y0327071D01*
X0242011Y0327032D01*
X0242166Y0326989D01*
X0242320Y0326942D01*
X0242473Y0326891D01*
X0242624Y0326836D01*
X0242774Y0326778D01*
X0242922Y0326716D01*
X0243069Y0326650D01*
X0243214Y0326581D01*
X0243357Y0326508D01*
X0243499Y0326432D01*
X0243638Y0326352D01*
X0243776Y0326269D01*
X0243911Y0326182D01*
X0244045Y0326092D01*
X0244176Y0325999D01*
X0244304Y0325903D01*
X0244430Y0325803D01*
X0244554Y0325700D01*
X0244675Y0325595D01*
X0244794Y0325486D01*
X0244910Y0325375D01*
X0245023Y0325260D01*
X0245133Y0325143D01*
X0245240Y0325023D01*
X0245344Y0324901D01*
X0245445Y0324776D01*
X0245543Y0324648D01*
X0245638Y0324518D01*
X0245730Y0324386D01*
X0245818Y0324252D01*
X0245903Y0324115D01*
X0245985Y0323977D01*
X0246063Y0323836D01*
X0246137Y0323694D01*
X0246208Y0323550D01*
X0246276Y0323404D01*
X0246339Y0323256D01*
X0246400Y0323107D01*
X0246456Y0322956D01*
X0246509Y0322804D01*
X0246558Y0322651D01*
X0246603Y0322497D01*
X0246644Y0322342D01*
X0246682Y0322185D01*
X0246715Y0322028D01*
X0246745Y0321870D01*
X0246771Y0321711D01*
X0246792Y0321552D01*
X0246810Y0321392D01*
X0246824Y0321232D01*
X0246834Y0321071D01*
X0246840Y0320911D01*
X0246842Y0320750D01*
X0246840Y0320589D01*
X0246834Y0320429D01*
X0246824Y0320268D01*
X0246810Y0320108D01*
X0246792Y0319948D01*
X0246771Y0319789D01*
X0246745Y0319630D01*
X0246715Y0319472D01*
X0246682Y0319315D01*
X0246644Y0319158D01*
X0246603Y0319003D01*
X0246558Y0318849D01*
X0246509Y0318696D01*
X0246456Y0318544D01*
X0246400Y0318393D01*
X0246339Y0318244D01*
X0246276Y0318096D01*
X0246208Y0317950D01*
X0246137Y0317806D01*
X0246063Y0317664D01*
X0245985Y0317523D01*
X0245903Y0317385D01*
X0245818Y0317248D01*
X0245730Y0317114D01*
X0245638Y0316982D01*
X0245543Y0316852D01*
X0245445Y0316724D01*
X0245344Y0316599D01*
X0245240Y0316477D01*
X0245133Y0316357D01*
X0245023Y0316240D01*
X0244910Y0316125D01*
X0244794Y0316014D01*
X0244675Y0315905D01*
X0244554Y0315800D01*
X0244430Y0315697D01*
X0244304Y0315597D01*
X0244176Y0315501D01*
X0244045Y0315408D01*
X0243911Y0315318D01*
X0243776Y0315231D01*
X0243638Y0315148D01*
X0243499Y0315068D01*
X0243357Y0314992D01*
X0243214Y0314919D01*
X0243069Y0314850D01*
X0242922Y0314784D01*
X0242774Y0314722D01*
X0242624Y0314664D01*
X0242473Y0314609D01*
X0242320Y0314558D01*
X0242166Y0314511D01*
X0242011Y0314468D01*
X0241855Y0314429D01*
X0241699Y0314393D01*
X0241541Y0314362D01*
X0241383Y0314334D01*
X0241224Y0314310D01*
X0241064Y0314290D01*
X0240904Y0314274D01*
X0240744Y0314262D01*
X0240583Y0314254D01*
X0240422Y0314250D01*
X0240262Y0314250D01*
X0240101Y0314254D01*
X0239940Y0314262D01*
X0239780Y0314274D01*
X0239620Y0314290D01*
X0239460Y0314310D01*
X0239301Y0314334D01*
X0239143Y0314362D01*
X0238985Y0314393D01*
X0238829Y0314429D01*
X0238673Y0314468D01*
X0238518Y0314511D01*
X0238364Y0314558D01*
X0238211Y0314609D01*
X0238060Y0314664D01*
X0237910Y0314722D01*
X0237762Y0314784D01*
X0237615Y0314850D01*
X0237470Y0314919D01*
X0237327Y0314992D01*
X0237185Y0315068D01*
X0237046Y0315148D01*
X0236908Y0315231D01*
X0236773Y0315318D01*
X0236639Y0315408D01*
X0236508Y0315501D01*
X0236380Y0315597D01*
X0236254Y0315697D01*
X0236130Y0315800D01*
X0236009Y0315905D01*
X0235890Y0316014D01*
X0235774Y0316125D01*
X0235661Y0316240D01*
X0235551Y0316357D01*
X0235444Y0316477D01*
X0235340Y0316599D01*
X0235239Y0316724D01*
X0235141Y0316852D01*
X0235046Y0316982D01*
X0234954Y0317114D01*
X0234866Y0317248D01*
X0234781Y0317385D01*
X0234699Y0317523D01*
X0234621Y0317664D01*
X0234547Y0317806D01*
X0234476Y0317950D01*
X0234408Y0318096D01*
X0234345Y0318244D01*
X0234284Y0318393D01*
X0234228Y0318544D01*
X0234175Y0318696D01*
X0234126Y0318849D01*
X0234081Y0319003D01*
X0234040Y0319158D01*
X0234002Y0319315D01*
X0233969Y0319472D01*
X0233939Y0319630D01*
X0233913Y0319789D01*
X0233892Y0319948D01*
X0233874Y0320108D01*
X0233860Y0320268D01*
X0233850Y0320429D01*
X0233844Y0320589D01*
X0233842Y0320750D01*
X0153842Y0320750D02*
X0153844Y0320911D01*
X0153850Y0321071D01*
X0153860Y0321232D01*
X0153874Y0321392D01*
X0153892Y0321552D01*
X0153913Y0321711D01*
X0153939Y0321870D01*
X0153969Y0322028D01*
X0154002Y0322185D01*
X0154040Y0322342D01*
X0154081Y0322497D01*
X0154126Y0322651D01*
X0154175Y0322804D01*
X0154228Y0322956D01*
X0154284Y0323107D01*
X0154345Y0323256D01*
X0154408Y0323404D01*
X0154476Y0323550D01*
X0154547Y0323694D01*
X0154621Y0323836D01*
X0154699Y0323977D01*
X0154781Y0324115D01*
X0154866Y0324252D01*
X0154954Y0324386D01*
X0155046Y0324518D01*
X0155141Y0324648D01*
X0155239Y0324776D01*
X0155340Y0324901D01*
X0155444Y0325023D01*
X0155551Y0325143D01*
X0155661Y0325260D01*
X0155774Y0325375D01*
X0155890Y0325486D01*
X0156009Y0325595D01*
X0156130Y0325700D01*
X0156254Y0325803D01*
X0156380Y0325903D01*
X0156508Y0325999D01*
X0156639Y0326092D01*
X0156773Y0326182D01*
X0156908Y0326269D01*
X0157046Y0326352D01*
X0157185Y0326432D01*
X0157327Y0326508D01*
X0157470Y0326581D01*
X0157615Y0326650D01*
X0157762Y0326716D01*
X0157910Y0326778D01*
X0158060Y0326836D01*
X0158211Y0326891D01*
X0158364Y0326942D01*
X0158518Y0326989D01*
X0158673Y0327032D01*
X0158829Y0327071D01*
X0158985Y0327107D01*
X0159143Y0327138D01*
X0159301Y0327166D01*
X0159460Y0327190D01*
X0159620Y0327210D01*
X0159780Y0327226D01*
X0159940Y0327238D01*
X0160101Y0327246D01*
X0160262Y0327250D01*
X0160422Y0327250D01*
X0160583Y0327246D01*
X0160744Y0327238D01*
X0160904Y0327226D01*
X0161064Y0327210D01*
X0161224Y0327190D01*
X0161383Y0327166D01*
X0161541Y0327138D01*
X0161699Y0327107D01*
X0161855Y0327071D01*
X0162011Y0327032D01*
X0162166Y0326989D01*
X0162320Y0326942D01*
X0162473Y0326891D01*
X0162624Y0326836D01*
X0162774Y0326778D01*
X0162922Y0326716D01*
X0163069Y0326650D01*
X0163214Y0326581D01*
X0163357Y0326508D01*
X0163499Y0326432D01*
X0163638Y0326352D01*
X0163776Y0326269D01*
X0163911Y0326182D01*
X0164045Y0326092D01*
X0164176Y0325999D01*
X0164304Y0325903D01*
X0164430Y0325803D01*
X0164554Y0325700D01*
X0164675Y0325595D01*
X0164794Y0325486D01*
X0164910Y0325375D01*
X0165023Y0325260D01*
X0165133Y0325143D01*
X0165240Y0325023D01*
X0165344Y0324901D01*
X0165445Y0324776D01*
X0165543Y0324648D01*
X0165638Y0324518D01*
X0165730Y0324386D01*
X0165818Y0324252D01*
X0165903Y0324115D01*
X0165985Y0323977D01*
X0166063Y0323836D01*
X0166137Y0323694D01*
X0166208Y0323550D01*
X0166276Y0323404D01*
X0166339Y0323256D01*
X0166400Y0323107D01*
X0166456Y0322956D01*
X0166509Y0322804D01*
X0166558Y0322651D01*
X0166603Y0322497D01*
X0166644Y0322342D01*
X0166682Y0322185D01*
X0166715Y0322028D01*
X0166745Y0321870D01*
X0166771Y0321711D01*
X0166792Y0321552D01*
X0166810Y0321392D01*
X0166824Y0321232D01*
X0166834Y0321071D01*
X0166840Y0320911D01*
X0166842Y0320750D01*
X0166840Y0320589D01*
X0166834Y0320429D01*
X0166824Y0320268D01*
X0166810Y0320108D01*
X0166792Y0319948D01*
X0166771Y0319789D01*
X0166745Y0319630D01*
X0166715Y0319472D01*
X0166682Y0319315D01*
X0166644Y0319158D01*
X0166603Y0319003D01*
X0166558Y0318849D01*
X0166509Y0318696D01*
X0166456Y0318544D01*
X0166400Y0318393D01*
X0166339Y0318244D01*
X0166276Y0318096D01*
X0166208Y0317950D01*
X0166137Y0317806D01*
X0166063Y0317664D01*
X0165985Y0317523D01*
X0165903Y0317385D01*
X0165818Y0317248D01*
X0165730Y0317114D01*
X0165638Y0316982D01*
X0165543Y0316852D01*
X0165445Y0316724D01*
X0165344Y0316599D01*
X0165240Y0316477D01*
X0165133Y0316357D01*
X0165023Y0316240D01*
X0164910Y0316125D01*
X0164794Y0316014D01*
X0164675Y0315905D01*
X0164554Y0315800D01*
X0164430Y0315697D01*
X0164304Y0315597D01*
X0164176Y0315501D01*
X0164045Y0315408D01*
X0163911Y0315318D01*
X0163776Y0315231D01*
X0163638Y0315148D01*
X0163499Y0315068D01*
X0163357Y0314992D01*
X0163214Y0314919D01*
X0163069Y0314850D01*
X0162922Y0314784D01*
X0162774Y0314722D01*
X0162624Y0314664D01*
X0162473Y0314609D01*
X0162320Y0314558D01*
X0162166Y0314511D01*
X0162011Y0314468D01*
X0161855Y0314429D01*
X0161699Y0314393D01*
X0161541Y0314362D01*
X0161383Y0314334D01*
X0161224Y0314310D01*
X0161064Y0314290D01*
X0160904Y0314274D01*
X0160744Y0314262D01*
X0160583Y0314254D01*
X0160422Y0314250D01*
X0160262Y0314250D01*
X0160101Y0314254D01*
X0159940Y0314262D01*
X0159780Y0314274D01*
X0159620Y0314290D01*
X0159460Y0314310D01*
X0159301Y0314334D01*
X0159143Y0314362D01*
X0158985Y0314393D01*
X0158829Y0314429D01*
X0158673Y0314468D01*
X0158518Y0314511D01*
X0158364Y0314558D01*
X0158211Y0314609D01*
X0158060Y0314664D01*
X0157910Y0314722D01*
X0157762Y0314784D01*
X0157615Y0314850D01*
X0157470Y0314919D01*
X0157327Y0314992D01*
X0157185Y0315068D01*
X0157046Y0315148D01*
X0156908Y0315231D01*
X0156773Y0315318D01*
X0156639Y0315408D01*
X0156508Y0315501D01*
X0156380Y0315597D01*
X0156254Y0315697D01*
X0156130Y0315800D01*
X0156009Y0315905D01*
X0155890Y0316014D01*
X0155774Y0316125D01*
X0155661Y0316240D01*
X0155551Y0316357D01*
X0155444Y0316477D01*
X0155340Y0316599D01*
X0155239Y0316724D01*
X0155141Y0316852D01*
X0155046Y0316982D01*
X0154954Y0317114D01*
X0154866Y0317248D01*
X0154781Y0317385D01*
X0154699Y0317523D01*
X0154621Y0317664D01*
X0154547Y0317806D01*
X0154476Y0317950D01*
X0154408Y0318096D01*
X0154345Y0318244D01*
X0154284Y0318393D01*
X0154228Y0318544D01*
X0154175Y0318696D01*
X0154126Y0318849D01*
X0154081Y0319003D01*
X0154040Y0319158D01*
X0154002Y0319315D01*
X0153969Y0319472D01*
X0153939Y0319630D01*
X0153913Y0319789D01*
X0153892Y0319948D01*
X0153874Y0320108D01*
X0153860Y0320268D01*
X0153850Y0320429D01*
X0153844Y0320589D01*
X0153842Y0320750D01*
X0131842Y0320750D02*
X0131844Y0320911D01*
X0131850Y0321071D01*
X0131860Y0321232D01*
X0131874Y0321392D01*
X0131892Y0321552D01*
X0131913Y0321711D01*
X0131939Y0321870D01*
X0131969Y0322028D01*
X0132002Y0322185D01*
X0132040Y0322342D01*
X0132081Y0322497D01*
X0132126Y0322651D01*
X0132175Y0322804D01*
X0132228Y0322956D01*
X0132284Y0323107D01*
X0132345Y0323256D01*
X0132408Y0323404D01*
X0132476Y0323550D01*
X0132547Y0323694D01*
X0132621Y0323836D01*
X0132699Y0323977D01*
X0132781Y0324115D01*
X0132866Y0324252D01*
X0132954Y0324386D01*
X0133046Y0324518D01*
X0133141Y0324648D01*
X0133239Y0324776D01*
X0133340Y0324901D01*
X0133444Y0325023D01*
X0133551Y0325143D01*
X0133661Y0325260D01*
X0133774Y0325375D01*
X0133890Y0325486D01*
X0134009Y0325595D01*
X0134130Y0325700D01*
X0134254Y0325803D01*
X0134380Y0325903D01*
X0134508Y0325999D01*
X0134639Y0326092D01*
X0134773Y0326182D01*
X0134908Y0326269D01*
X0135046Y0326352D01*
X0135185Y0326432D01*
X0135327Y0326508D01*
X0135470Y0326581D01*
X0135615Y0326650D01*
X0135762Y0326716D01*
X0135910Y0326778D01*
X0136060Y0326836D01*
X0136211Y0326891D01*
X0136364Y0326942D01*
X0136518Y0326989D01*
X0136673Y0327032D01*
X0136829Y0327071D01*
X0136985Y0327107D01*
X0137143Y0327138D01*
X0137301Y0327166D01*
X0137460Y0327190D01*
X0137620Y0327210D01*
X0137780Y0327226D01*
X0137940Y0327238D01*
X0138101Y0327246D01*
X0138262Y0327250D01*
X0138422Y0327250D01*
X0138583Y0327246D01*
X0138744Y0327238D01*
X0138904Y0327226D01*
X0139064Y0327210D01*
X0139224Y0327190D01*
X0139383Y0327166D01*
X0139541Y0327138D01*
X0139699Y0327107D01*
X0139855Y0327071D01*
X0140011Y0327032D01*
X0140166Y0326989D01*
X0140320Y0326942D01*
X0140473Y0326891D01*
X0140624Y0326836D01*
X0140774Y0326778D01*
X0140922Y0326716D01*
X0141069Y0326650D01*
X0141214Y0326581D01*
X0141357Y0326508D01*
X0141499Y0326432D01*
X0141638Y0326352D01*
X0141776Y0326269D01*
X0141911Y0326182D01*
X0142045Y0326092D01*
X0142176Y0325999D01*
X0142304Y0325903D01*
X0142430Y0325803D01*
X0142554Y0325700D01*
X0142675Y0325595D01*
X0142794Y0325486D01*
X0142910Y0325375D01*
X0143023Y0325260D01*
X0143133Y0325143D01*
X0143240Y0325023D01*
X0143344Y0324901D01*
X0143445Y0324776D01*
X0143543Y0324648D01*
X0143638Y0324518D01*
X0143730Y0324386D01*
X0143818Y0324252D01*
X0143903Y0324115D01*
X0143985Y0323977D01*
X0144063Y0323836D01*
X0144137Y0323694D01*
X0144208Y0323550D01*
X0144276Y0323404D01*
X0144339Y0323256D01*
X0144400Y0323107D01*
X0144456Y0322956D01*
X0144509Y0322804D01*
X0144558Y0322651D01*
X0144603Y0322497D01*
X0144644Y0322342D01*
X0144682Y0322185D01*
X0144715Y0322028D01*
X0144745Y0321870D01*
X0144771Y0321711D01*
X0144792Y0321552D01*
X0144810Y0321392D01*
X0144824Y0321232D01*
X0144834Y0321071D01*
X0144840Y0320911D01*
X0144842Y0320750D01*
X0144840Y0320589D01*
X0144834Y0320429D01*
X0144824Y0320268D01*
X0144810Y0320108D01*
X0144792Y0319948D01*
X0144771Y0319789D01*
X0144745Y0319630D01*
X0144715Y0319472D01*
X0144682Y0319315D01*
X0144644Y0319158D01*
X0144603Y0319003D01*
X0144558Y0318849D01*
X0144509Y0318696D01*
X0144456Y0318544D01*
X0144400Y0318393D01*
X0144339Y0318244D01*
X0144276Y0318096D01*
X0144208Y0317950D01*
X0144137Y0317806D01*
X0144063Y0317664D01*
X0143985Y0317523D01*
X0143903Y0317385D01*
X0143818Y0317248D01*
X0143730Y0317114D01*
X0143638Y0316982D01*
X0143543Y0316852D01*
X0143445Y0316724D01*
X0143344Y0316599D01*
X0143240Y0316477D01*
X0143133Y0316357D01*
X0143023Y0316240D01*
X0142910Y0316125D01*
X0142794Y0316014D01*
X0142675Y0315905D01*
X0142554Y0315800D01*
X0142430Y0315697D01*
X0142304Y0315597D01*
X0142176Y0315501D01*
X0142045Y0315408D01*
X0141911Y0315318D01*
X0141776Y0315231D01*
X0141638Y0315148D01*
X0141499Y0315068D01*
X0141357Y0314992D01*
X0141214Y0314919D01*
X0141069Y0314850D01*
X0140922Y0314784D01*
X0140774Y0314722D01*
X0140624Y0314664D01*
X0140473Y0314609D01*
X0140320Y0314558D01*
X0140166Y0314511D01*
X0140011Y0314468D01*
X0139855Y0314429D01*
X0139699Y0314393D01*
X0139541Y0314362D01*
X0139383Y0314334D01*
X0139224Y0314310D01*
X0139064Y0314290D01*
X0138904Y0314274D01*
X0138744Y0314262D01*
X0138583Y0314254D01*
X0138422Y0314250D01*
X0138262Y0314250D01*
X0138101Y0314254D01*
X0137940Y0314262D01*
X0137780Y0314274D01*
X0137620Y0314290D01*
X0137460Y0314310D01*
X0137301Y0314334D01*
X0137143Y0314362D01*
X0136985Y0314393D01*
X0136829Y0314429D01*
X0136673Y0314468D01*
X0136518Y0314511D01*
X0136364Y0314558D01*
X0136211Y0314609D01*
X0136060Y0314664D01*
X0135910Y0314722D01*
X0135762Y0314784D01*
X0135615Y0314850D01*
X0135470Y0314919D01*
X0135327Y0314992D01*
X0135185Y0315068D01*
X0135046Y0315148D01*
X0134908Y0315231D01*
X0134773Y0315318D01*
X0134639Y0315408D01*
X0134508Y0315501D01*
X0134380Y0315597D01*
X0134254Y0315697D01*
X0134130Y0315800D01*
X0134009Y0315905D01*
X0133890Y0316014D01*
X0133774Y0316125D01*
X0133661Y0316240D01*
X0133551Y0316357D01*
X0133444Y0316477D01*
X0133340Y0316599D01*
X0133239Y0316724D01*
X0133141Y0316852D01*
X0133046Y0316982D01*
X0132954Y0317114D01*
X0132866Y0317248D01*
X0132781Y0317385D01*
X0132699Y0317523D01*
X0132621Y0317664D01*
X0132547Y0317806D01*
X0132476Y0317950D01*
X0132408Y0318096D01*
X0132345Y0318244D01*
X0132284Y0318393D01*
X0132228Y0318544D01*
X0132175Y0318696D01*
X0132126Y0318849D01*
X0132081Y0319003D01*
X0132040Y0319158D01*
X0132002Y0319315D01*
X0131969Y0319472D01*
X0131939Y0319630D01*
X0131913Y0319789D01*
X0131892Y0319948D01*
X0131874Y0320108D01*
X0131860Y0320268D01*
X0131850Y0320429D01*
X0131844Y0320589D01*
X0131842Y0320750D01*
X0051842Y0320750D02*
X0051844Y0320911D01*
X0051850Y0321071D01*
X0051860Y0321232D01*
X0051874Y0321392D01*
X0051892Y0321552D01*
X0051913Y0321711D01*
X0051939Y0321870D01*
X0051969Y0322028D01*
X0052002Y0322185D01*
X0052040Y0322342D01*
X0052081Y0322497D01*
X0052126Y0322651D01*
X0052175Y0322804D01*
X0052228Y0322956D01*
X0052284Y0323107D01*
X0052345Y0323256D01*
X0052408Y0323404D01*
X0052476Y0323550D01*
X0052547Y0323694D01*
X0052621Y0323836D01*
X0052699Y0323977D01*
X0052781Y0324115D01*
X0052866Y0324252D01*
X0052954Y0324386D01*
X0053046Y0324518D01*
X0053141Y0324648D01*
X0053239Y0324776D01*
X0053340Y0324901D01*
X0053444Y0325023D01*
X0053551Y0325143D01*
X0053661Y0325260D01*
X0053774Y0325375D01*
X0053890Y0325486D01*
X0054009Y0325595D01*
X0054130Y0325700D01*
X0054254Y0325803D01*
X0054380Y0325903D01*
X0054508Y0325999D01*
X0054639Y0326092D01*
X0054773Y0326182D01*
X0054908Y0326269D01*
X0055046Y0326352D01*
X0055185Y0326432D01*
X0055327Y0326508D01*
X0055470Y0326581D01*
X0055615Y0326650D01*
X0055762Y0326716D01*
X0055910Y0326778D01*
X0056060Y0326836D01*
X0056211Y0326891D01*
X0056364Y0326942D01*
X0056518Y0326989D01*
X0056673Y0327032D01*
X0056829Y0327071D01*
X0056985Y0327107D01*
X0057143Y0327138D01*
X0057301Y0327166D01*
X0057460Y0327190D01*
X0057620Y0327210D01*
X0057780Y0327226D01*
X0057940Y0327238D01*
X0058101Y0327246D01*
X0058262Y0327250D01*
X0058422Y0327250D01*
X0058583Y0327246D01*
X0058744Y0327238D01*
X0058904Y0327226D01*
X0059064Y0327210D01*
X0059224Y0327190D01*
X0059383Y0327166D01*
X0059541Y0327138D01*
X0059699Y0327107D01*
X0059855Y0327071D01*
X0060011Y0327032D01*
X0060166Y0326989D01*
X0060320Y0326942D01*
X0060473Y0326891D01*
X0060624Y0326836D01*
X0060774Y0326778D01*
X0060922Y0326716D01*
X0061069Y0326650D01*
X0061214Y0326581D01*
X0061357Y0326508D01*
X0061499Y0326432D01*
X0061638Y0326352D01*
X0061776Y0326269D01*
X0061911Y0326182D01*
X0062045Y0326092D01*
X0062176Y0325999D01*
X0062304Y0325903D01*
X0062430Y0325803D01*
X0062554Y0325700D01*
X0062675Y0325595D01*
X0062794Y0325486D01*
X0062910Y0325375D01*
X0063023Y0325260D01*
X0063133Y0325143D01*
X0063240Y0325023D01*
X0063344Y0324901D01*
X0063445Y0324776D01*
X0063543Y0324648D01*
X0063638Y0324518D01*
X0063730Y0324386D01*
X0063818Y0324252D01*
X0063903Y0324115D01*
X0063985Y0323977D01*
X0064063Y0323836D01*
X0064137Y0323694D01*
X0064208Y0323550D01*
X0064276Y0323404D01*
X0064339Y0323256D01*
X0064400Y0323107D01*
X0064456Y0322956D01*
X0064509Y0322804D01*
X0064558Y0322651D01*
X0064603Y0322497D01*
X0064644Y0322342D01*
X0064682Y0322185D01*
X0064715Y0322028D01*
X0064745Y0321870D01*
X0064771Y0321711D01*
X0064792Y0321552D01*
X0064810Y0321392D01*
X0064824Y0321232D01*
X0064834Y0321071D01*
X0064840Y0320911D01*
X0064842Y0320750D01*
X0064840Y0320589D01*
X0064834Y0320429D01*
X0064824Y0320268D01*
X0064810Y0320108D01*
X0064792Y0319948D01*
X0064771Y0319789D01*
X0064745Y0319630D01*
X0064715Y0319472D01*
X0064682Y0319315D01*
X0064644Y0319158D01*
X0064603Y0319003D01*
X0064558Y0318849D01*
X0064509Y0318696D01*
X0064456Y0318544D01*
X0064400Y0318393D01*
X0064339Y0318244D01*
X0064276Y0318096D01*
X0064208Y0317950D01*
X0064137Y0317806D01*
X0064063Y0317664D01*
X0063985Y0317523D01*
X0063903Y0317385D01*
X0063818Y0317248D01*
X0063730Y0317114D01*
X0063638Y0316982D01*
X0063543Y0316852D01*
X0063445Y0316724D01*
X0063344Y0316599D01*
X0063240Y0316477D01*
X0063133Y0316357D01*
X0063023Y0316240D01*
X0062910Y0316125D01*
X0062794Y0316014D01*
X0062675Y0315905D01*
X0062554Y0315800D01*
X0062430Y0315697D01*
X0062304Y0315597D01*
X0062176Y0315501D01*
X0062045Y0315408D01*
X0061911Y0315318D01*
X0061776Y0315231D01*
X0061638Y0315148D01*
X0061499Y0315068D01*
X0061357Y0314992D01*
X0061214Y0314919D01*
X0061069Y0314850D01*
X0060922Y0314784D01*
X0060774Y0314722D01*
X0060624Y0314664D01*
X0060473Y0314609D01*
X0060320Y0314558D01*
X0060166Y0314511D01*
X0060011Y0314468D01*
X0059855Y0314429D01*
X0059699Y0314393D01*
X0059541Y0314362D01*
X0059383Y0314334D01*
X0059224Y0314310D01*
X0059064Y0314290D01*
X0058904Y0314274D01*
X0058744Y0314262D01*
X0058583Y0314254D01*
X0058422Y0314250D01*
X0058262Y0314250D01*
X0058101Y0314254D01*
X0057940Y0314262D01*
X0057780Y0314274D01*
X0057620Y0314290D01*
X0057460Y0314310D01*
X0057301Y0314334D01*
X0057143Y0314362D01*
X0056985Y0314393D01*
X0056829Y0314429D01*
X0056673Y0314468D01*
X0056518Y0314511D01*
X0056364Y0314558D01*
X0056211Y0314609D01*
X0056060Y0314664D01*
X0055910Y0314722D01*
X0055762Y0314784D01*
X0055615Y0314850D01*
X0055470Y0314919D01*
X0055327Y0314992D01*
X0055185Y0315068D01*
X0055046Y0315148D01*
X0054908Y0315231D01*
X0054773Y0315318D01*
X0054639Y0315408D01*
X0054508Y0315501D01*
X0054380Y0315597D01*
X0054254Y0315697D01*
X0054130Y0315800D01*
X0054009Y0315905D01*
X0053890Y0316014D01*
X0053774Y0316125D01*
X0053661Y0316240D01*
X0053551Y0316357D01*
X0053444Y0316477D01*
X0053340Y0316599D01*
X0053239Y0316724D01*
X0053141Y0316852D01*
X0053046Y0316982D01*
X0052954Y0317114D01*
X0052866Y0317248D01*
X0052781Y0317385D01*
X0052699Y0317523D01*
X0052621Y0317664D01*
X0052547Y0317806D01*
X0052476Y0317950D01*
X0052408Y0318096D01*
X0052345Y0318244D01*
X0052284Y0318393D01*
X0052228Y0318544D01*
X0052175Y0318696D01*
X0052126Y0318849D01*
X0052081Y0319003D01*
X0052040Y0319158D01*
X0052002Y0319315D01*
X0051969Y0319472D01*
X0051939Y0319630D01*
X0051913Y0319789D01*
X0051892Y0319948D01*
X0051874Y0320108D01*
X0051860Y0320268D01*
X0051850Y0320429D01*
X0051844Y0320589D01*
X0051842Y0320750D01*
X0051842Y0240750D02*
X0051844Y0240911D01*
X0051850Y0241071D01*
X0051860Y0241232D01*
X0051874Y0241392D01*
X0051892Y0241552D01*
X0051913Y0241711D01*
X0051939Y0241870D01*
X0051969Y0242028D01*
X0052002Y0242185D01*
X0052040Y0242342D01*
X0052081Y0242497D01*
X0052126Y0242651D01*
X0052175Y0242804D01*
X0052228Y0242956D01*
X0052284Y0243107D01*
X0052345Y0243256D01*
X0052408Y0243404D01*
X0052476Y0243550D01*
X0052547Y0243694D01*
X0052621Y0243836D01*
X0052699Y0243977D01*
X0052781Y0244115D01*
X0052866Y0244252D01*
X0052954Y0244386D01*
X0053046Y0244518D01*
X0053141Y0244648D01*
X0053239Y0244776D01*
X0053340Y0244901D01*
X0053444Y0245023D01*
X0053551Y0245143D01*
X0053661Y0245260D01*
X0053774Y0245375D01*
X0053890Y0245486D01*
X0054009Y0245595D01*
X0054130Y0245700D01*
X0054254Y0245803D01*
X0054380Y0245903D01*
X0054508Y0245999D01*
X0054639Y0246092D01*
X0054773Y0246182D01*
X0054908Y0246269D01*
X0055046Y0246352D01*
X0055185Y0246432D01*
X0055327Y0246508D01*
X0055470Y0246581D01*
X0055615Y0246650D01*
X0055762Y0246716D01*
X0055910Y0246778D01*
X0056060Y0246836D01*
X0056211Y0246891D01*
X0056364Y0246942D01*
X0056518Y0246989D01*
X0056673Y0247032D01*
X0056829Y0247071D01*
X0056985Y0247107D01*
X0057143Y0247138D01*
X0057301Y0247166D01*
X0057460Y0247190D01*
X0057620Y0247210D01*
X0057780Y0247226D01*
X0057940Y0247238D01*
X0058101Y0247246D01*
X0058262Y0247250D01*
X0058422Y0247250D01*
X0058583Y0247246D01*
X0058744Y0247238D01*
X0058904Y0247226D01*
X0059064Y0247210D01*
X0059224Y0247190D01*
X0059383Y0247166D01*
X0059541Y0247138D01*
X0059699Y0247107D01*
X0059855Y0247071D01*
X0060011Y0247032D01*
X0060166Y0246989D01*
X0060320Y0246942D01*
X0060473Y0246891D01*
X0060624Y0246836D01*
X0060774Y0246778D01*
X0060922Y0246716D01*
X0061069Y0246650D01*
X0061214Y0246581D01*
X0061357Y0246508D01*
X0061499Y0246432D01*
X0061638Y0246352D01*
X0061776Y0246269D01*
X0061911Y0246182D01*
X0062045Y0246092D01*
X0062176Y0245999D01*
X0062304Y0245903D01*
X0062430Y0245803D01*
X0062554Y0245700D01*
X0062675Y0245595D01*
X0062794Y0245486D01*
X0062910Y0245375D01*
X0063023Y0245260D01*
X0063133Y0245143D01*
X0063240Y0245023D01*
X0063344Y0244901D01*
X0063445Y0244776D01*
X0063543Y0244648D01*
X0063638Y0244518D01*
X0063730Y0244386D01*
X0063818Y0244252D01*
X0063903Y0244115D01*
X0063985Y0243977D01*
X0064063Y0243836D01*
X0064137Y0243694D01*
X0064208Y0243550D01*
X0064276Y0243404D01*
X0064339Y0243256D01*
X0064400Y0243107D01*
X0064456Y0242956D01*
X0064509Y0242804D01*
X0064558Y0242651D01*
X0064603Y0242497D01*
X0064644Y0242342D01*
X0064682Y0242185D01*
X0064715Y0242028D01*
X0064745Y0241870D01*
X0064771Y0241711D01*
X0064792Y0241552D01*
X0064810Y0241392D01*
X0064824Y0241232D01*
X0064834Y0241071D01*
X0064840Y0240911D01*
X0064842Y0240750D01*
X0064840Y0240589D01*
X0064834Y0240429D01*
X0064824Y0240268D01*
X0064810Y0240108D01*
X0064792Y0239948D01*
X0064771Y0239789D01*
X0064745Y0239630D01*
X0064715Y0239472D01*
X0064682Y0239315D01*
X0064644Y0239158D01*
X0064603Y0239003D01*
X0064558Y0238849D01*
X0064509Y0238696D01*
X0064456Y0238544D01*
X0064400Y0238393D01*
X0064339Y0238244D01*
X0064276Y0238096D01*
X0064208Y0237950D01*
X0064137Y0237806D01*
X0064063Y0237664D01*
X0063985Y0237523D01*
X0063903Y0237385D01*
X0063818Y0237248D01*
X0063730Y0237114D01*
X0063638Y0236982D01*
X0063543Y0236852D01*
X0063445Y0236724D01*
X0063344Y0236599D01*
X0063240Y0236477D01*
X0063133Y0236357D01*
X0063023Y0236240D01*
X0062910Y0236125D01*
X0062794Y0236014D01*
X0062675Y0235905D01*
X0062554Y0235800D01*
X0062430Y0235697D01*
X0062304Y0235597D01*
X0062176Y0235501D01*
X0062045Y0235408D01*
X0061911Y0235318D01*
X0061776Y0235231D01*
X0061638Y0235148D01*
X0061499Y0235068D01*
X0061357Y0234992D01*
X0061214Y0234919D01*
X0061069Y0234850D01*
X0060922Y0234784D01*
X0060774Y0234722D01*
X0060624Y0234664D01*
X0060473Y0234609D01*
X0060320Y0234558D01*
X0060166Y0234511D01*
X0060011Y0234468D01*
X0059855Y0234429D01*
X0059699Y0234393D01*
X0059541Y0234362D01*
X0059383Y0234334D01*
X0059224Y0234310D01*
X0059064Y0234290D01*
X0058904Y0234274D01*
X0058744Y0234262D01*
X0058583Y0234254D01*
X0058422Y0234250D01*
X0058262Y0234250D01*
X0058101Y0234254D01*
X0057940Y0234262D01*
X0057780Y0234274D01*
X0057620Y0234290D01*
X0057460Y0234310D01*
X0057301Y0234334D01*
X0057143Y0234362D01*
X0056985Y0234393D01*
X0056829Y0234429D01*
X0056673Y0234468D01*
X0056518Y0234511D01*
X0056364Y0234558D01*
X0056211Y0234609D01*
X0056060Y0234664D01*
X0055910Y0234722D01*
X0055762Y0234784D01*
X0055615Y0234850D01*
X0055470Y0234919D01*
X0055327Y0234992D01*
X0055185Y0235068D01*
X0055046Y0235148D01*
X0054908Y0235231D01*
X0054773Y0235318D01*
X0054639Y0235408D01*
X0054508Y0235501D01*
X0054380Y0235597D01*
X0054254Y0235697D01*
X0054130Y0235800D01*
X0054009Y0235905D01*
X0053890Y0236014D01*
X0053774Y0236125D01*
X0053661Y0236240D01*
X0053551Y0236357D01*
X0053444Y0236477D01*
X0053340Y0236599D01*
X0053239Y0236724D01*
X0053141Y0236852D01*
X0053046Y0236982D01*
X0052954Y0237114D01*
X0052866Y0237248D01*
X0052781Y0237385D01*
X0052699Y0237523D01*
X0052621Y0237664D01*
X0052547Y0237806D01*
X0052476Y0237950D01*
X0052408Y0238096D01*
X0052345Y0238244D01*
X0052284Y0238393D01*
X0052228Y0238544D01*
X0052175Y0238696D01*
X0052126Y0238849D01*
X0052081Y0239003D01*
X0052040Y0239158D01*
X0052002Y0239315D01*
X0051969Y0239472D01*
X0051939Y0239630D01*
X0051913Y0239789D01*
X0051892Y0239948D01*
X0051874Y0240108D01*
X0051860Y0240268D01*
X0051850Y0240429D01*
X0051844Y0240589D01*
X0051842Y0240750D01*
X0051842Y0168750D02*
X0051844Y0168911D01*
X0051850Y0169071D01*
X0051860Y0169232D01*
X0051874Y0169392D01*
X0051892Y0169552D01*
X0051913Y0169711D01*
X0051939Y0169870D01*
X0051969Y0170028D01*
X0052002Y0170185D01*
X0052040Y0170342D01*
X0052081Y0170497D01*
X0052126Y0170651D01*
X0052175Y0170804D01*
X0052228Y0170956D01*
X0052284Y0171107D01*
X0052345Y0171256D01*
X0052408Y0171404D01*
X0052476Y0171550D01*
X0052547Y0171694D01*
X0052621Y0171836D01*
X0052699Y0171977D01*
X0052781Y0172115D01*
X0052866Y0172252D01*
X0052954Y0172386D01*
X0053046Y0172518D01*
X0053141Y0172648D01*
X0053239Y0172776D01*
X0053340Y0172901D01*
X0053444Y0173023D01*
X0053551Y0173143D01*
X0053661Y0173260D01*
X0053774Y0173375D01*
X0053890Y0173486D01*
X0054009Y0173595D01*
X0054130Y0173700D01*
X0054254Y0173803D01*
X0054380Y0173903D01*
X0054508Y0173999D01*
X0054639Y0174092D01*
X0054773Y0174182D01*
X0054908Y0174269D01*
X0055046Y0174352D01*
X0055185Y0174432D01*
X0055327Y0174508D01*
X0055470Y0174581D01*
X0055615Y0174650D01*
X0055762Y0174716D01*
X0055910Y0174778D01*
X0056060Y0174836D01*
X0056211Y0174891D01*
X0056364Y0174942D01*
X0056518Y0174989D01*
X0056673Y0175032D01*
X0056829Y0175071D01*
X0056985Y0175107D01*
X0057143Y0175138D01*
X0057301Y0175166D01*
X0057460Y0175190D01*
X0057620Y0175210D01*
X0057780Y0175226D01*
X0057940Y0175238D01*
X0058101Y0175246D01*
X0058262Y0175250D01*
X0058422Y0175250D01*
X0058583Y0175246D01*
X0058744Y0175238D01*
X0058904Y0175226D01*
X0059064Y0175210D01*
X0059224Y0175190D01*
X0059383Y0175166D01*
X0059541Y0175138D01*
X0059699Y0175107D01*
X0059855Y0175071D01*
X0060011Y0175032D01*
X0060166Y0174989D01*
X0060320Y0174942D01*
X0060473Y0174891D01*
X0060624Y0174836D01*
X0060774Y0174778D01*
X0060922Y0174716D01*
X0061069Y0174650D01*
X0061214Y0174581D01*
X0061357Y0174508D01*
X0061499Y0174432D01*
X0061638Y0174352D01*
X0061776Y0174269D01*
X0061911Y0174182D01*
X0062045Y0174092D01*
X0062176Y0173999D01*
X0062304Y0173903D01*
X0062430Y0173803D01*
X0062554Y0173700D01*
X0062675Y0173595D01*
X0062794Y0173486D01*
X0062910Y0173375D01*
X0063023Y0173260D01*
X0063133Y0173143D01*
X0063240Y0173023D01*
X0063344Y0172901D01*
X0063445Y0172776D01*
X0063543Y0172648D01*
X0063638Y0172518D01*
X0063730Y0172386D01*
X0063818Y0172252D01*
X0063903Y0172115D01*
X0063985Y0171977D01*
X0064063Y0171836D01*
X0064137Y0171694D01*
X0064208Y0171550D01*
X0064276Y0171404D01*
X0064339Y0171256D01*
X0064400Y0171107D01*
X0064456Y0170956D01*
X0064509Y0170804D01*
X0064558Y0170651D01*
X0064603Y0170497D01*
X0064644Y0170342D01*
X0064682Y0170185D01*
X0064715Y0170028D01*
X0064745Y0169870D01*
X0064771Y0169711D01*
X0064792Y0169552D01*
X0064810Y0169392D01*
X0064824Y0169232D01*
X0064834Y0169071D01*
X0064840Y0168911D01*
X0064842Y0168750D01*
X0064840Y0168589D01*
X0064834Y0168429D01*
X0064824Y0168268D01*
X0064810Y0168108D01*
X0064792Y0167948D01*
X0064771Y0167789D01*
X0064745Y0167630D01*
X0064715Y0167472D01*
X0064682Y0167315D01*
X0064644Y0167158D01*
X0064603Y0167003D01*
X0064558Y0166849D01*
X0064509Y0166696D01*
X0064456Y0166544D01*
X0064400Y0166393D01*
X0064339Y0166244D01*
X0064276Y0166096D01*
X0064208Y0165950D01*
X0064137Y0165806D01*
X0064063Y0165664D01*
X0063985Y0165523D01*
X0063903Y0165385D01*
X0063818Y0165248D01*
X0063730Y0165114D01*
X0063638Y0164982D01*
X0063543Y0164852D01*
X0063445Y0164724D01*
X0063344Y0164599D01*
X0063240Y0164477D01*
X0063133Y0164357D01*
X0063023Y0164240D01*
X0062910Y0164125D01*
X0062794Y0164014D01*
X0062675Y0163905D01*
X0062554Y0163800D01*
X0062430Y0163697D01*
X0062304Y0163597D01*
X0062176Y0163501D01*
X0062045Y0163408D01*
X0061911Y0163318D01*
X0061776Y0163231D01*
X0061638Y0163148D01*
X0061499Y0163068D01*
X0061357Y0162992D01*
X0061214Y0162919D01*
X0061069Y0162850D01*
X0060922Y0162784D01*
X0060774Y0162722D01*
X0060624Y0162664D01*
X0060473Y0162609D01*
X0060320Y0162558D01*
X0060166Y0162511D01*
X0060011Y0162468D01*
X0059855Y0162429D01*
X0059699Y0162393D01*
X0059541Y0162362D01*
X0059383Y0162334D01*
X0059224Y0162310D01*
X0059064Y0162290D01*
X0058904Y0162274D01*
X0058744Y0162262D01*
X0058583Y0162254D01*
X0058422Y0162250D01*
X0058262Y0162250D01*
X0058101Y0162254D01*
X0057940Y0162262D01*
X0057780Y0162274D01*
X0057620Y0162290D01*
X0057460Y0162310D01*
X0057301Y0162334D01*
X0057143Y0162362D01*
X0056985Y0162393D01*
X0056829Y0162429D01*
X0056673Y0162468D01*
X0056518Y0162511D01*
X0056364Y0162558D01*
X0056211Y0162609D01*
X0056060Y0162664D01*
X0055910Y0162722D01*
X0055762Y0162784D01*
X0055615Y0162850D01*
X0055470Y0162919D01*
X0055327Y0162992D01*
X0055185Y0163068D01*
X0055046Y0163148D01*
X0054908Y0163231D01*
X0054773Y0163318D01*
X0054639Y0163408D01*
X0054508Y0163501D01*
X0054380Y0163597D01*
X0054254Y0163697D01*
X0054130Y0163800D01*
X0054009Y0163905D01*
X0053890Y0164014D01*
X0053774Y0164125D01*
X0053661Y0164240D01*
X0053551Y0164357D01*
X0053444Y0164477D01*
X0053340Y0164599D01*
X0053239Y0164724D01*
X0053141Y0164852D01*
X0053046Y0164982D01*
X0052954Y0165114D01*
X0052866Y0165248D01*
X0052781Y0165385D01*
X0052699Y0165523D01*
X0052621Y0165664D01*
X0052547Y0165806D01*
X0052476Y0165950D01*
X0052408Y0166096D01*
X0052345Y0166244D01*
X0052284Y0166393D01*
X0052228Y0166544D01*
X0052175Y0166696D01*
X0052126Y0166849D01*
X0052081Y0167003D01*
X0052040Y0167158D01*
X0052002Y0167315D01*
X0051969Y0167472D01*
X0051939Y0167630D01*
X0051913Y0167789D01*
X0051892Y0167948D01*
X0051874Y0168108D01*
X0051860Y0168268D01*
X0051850Y0168429D01*
X0051844Y0168589D01*
X0051842Y0168750D01*
X0131842Y0168750D02*
X0131844Y0168911D01*
X0131850Y0169071D01*
X0131860Y0169232D01*
X0131874Y0169392D01*
X0131892Y0169552D01*
X0131913Y0169711D01*
X0131939Y0169870D01*
X0131969Y0170028D01*
X0132002Y0170185D01*
X0132040Y0170342D01*
X0132081Y0170497D01*
X0132126Y0170651D01*
X0132175Y0170804D01*
X0132228Y0170956D01*
X0132284Y0171107D01*
X0132345Y0171256D01*
X0132408Y0171404D01*
X0132476Y0171550D01*
X0132547Y0171694D01*
X0132621Y0171836D01*
X0132699Y0171977D01*
X0132781Y0172115D01*
X0132866Y0172252D01*
X0132954Y0172386D01*
X0133046Y0172518D01*
X0133141Y0172648D01*
X0133239Y0172776D01*
X0133340Y0172901D01*
X0133444Y0173023D01*
X0133551Y0173143D01*
X0133661Y0173260D01*
X0133774Y0173375D01*
X0133890Y0173486D01*
X0134009Y0173595D01*
X0134130Y0173700D01*
X0134254Y0173803D01*
X0134380Y0173903D01*
X0134508Y0173999D01*
X0134639Y0174092D01*
X0134773Y0174182D01*
X0134908Y0174269D01*
X0135046Y0174352D01*
X0135185Y0174432D01*
X0135327Y0174508D01*
X0135470Y0174581D01*
X0135615Y0174650D01*
X0135762Y0174716D01*
X0135910Y0174778D01*
X0136060Y0174836D01*
X0136211Y0174891D01*
X0136364Y0174942D01*
X0136518Y0174989D01*
X0136673Y0175032D01*
X0136829Y0175071D01*
X0136985Y0175107D01*
X0137143Y0175138D01*
X0137301Y0175166D01*
X0137460Y0175190D01*
X0137620Y0175210D01*
X0137780Y0175226D01*
X0137940Y0175238D01*
X0138101Y0175246D01*
X0138262Y0175250D01*
X0138422Y0175250D01*
X0138583Y0175246D01*
X0138744Y0175238D01*
X0138904Y0175226D01*
X0139064Y0175210D01*
X0139224Y0175190D01*
X0139383Y0175166D01*
X0139541Y0175138D01*
X0139699Y0175107D01*
X0139855Y0175071D01*
X0140011Y0175032D01*
X0140166Y0174989D01*
X0140320Y0174942D01*
X0140473Y0174891D01*
X0140624Y0174836D01*
X0140774Y0174778D01*
X0140922Y0174716D01*
X0141069Y0174650D01*
X0141214Y0174581D01*
X0141357Y0174508D01*
X0141499Y0174432D01*
X0141638Y0174352D01*
X0141776Y0174269D01*
X0141911Y0174182D01*
X0142045Y0174092D01*
X0142176Y0173999D01*
X0142304Y0173903D01*
X0142430Y0173803D01*
X0142554Y0173700D01*
X0142675Y0173595D01*
X0142794Y0173486D01*
X0142910Y0173375D01*
X0143023Y0173260D01*
X0143133Y0173143D01*
X0143240Y0173023D01*
X0143344Y0172901D01*
X0143445Y0172776D01*
X0143543Y0172648D01*
X0143638Y0172518D01*
X0143730Y0172386D01*
X0143818Y0172252D01*
X0143903Y0172115D01*
X0143985Y0171977D01*
X0144063Y0171836D01*
X0144137Y0171694D01*
X0144208Y0171550D01*
X0144276Y0171404D01*
X0144339Y0171256D01*
X0144400Y0171107D01*
X0144456Y0170956D01*
X0144509Y0170804D01*
X0144558Y0170651D01*
X0144603Y0170497D01*
X0144644Y0170342D01*
X0144682Y0170185D01*
X0144715Y0170028D01*
X0144745Y0169870D01*
X0144771Y0169711D01*
X0144792Y0169552D01*
X0144810Y0169392D01*
X0144824Y0169232D01*
X0144834Y0169071D01*
X0144840Y0168911D01*
X0144842Y0168750D01*
X0144840Y0168589D01*
X0144834Y0168429D01*
X0144824Y0168268D01*
X0144810Y0168108D01*
X0144792Y0167948D01*
X0144771Y0167789D01*
X0144745Y0167630D01*
X0144715Y0167472D01*
X0144682Y0167315D01*
X0144644Y0167158D01*
X0144603Y0167003D01*
X0144558Y0166849D01*
X0144509Y0166696D01*
X0144456Y0166544D01*
X0144400Y0166393D01*
X0144339Y0166244D01*
X0144276Y0166096D01*
X0144208Y0165950D01*
X0144137Y0165806D01*
X0144063Y0165664D01*
X0143985Y0165523D01*
X0143903Y0165385D01*
X0143818Y0165248D01*
X0143730Y0165114D01*
X0143638Y0164982D01*
X0143543Y0164852D01*
X0143445Y0164724D01*
X0143344Y0164599D01*
X0143240Y0164477D01*
X0143133Y0164357D01*
X0143023Y0164240D01*
X0142910Y0164125D01*
X0142794Y0164014D01*
X0142675Y0163905D01*
X0142554Y0163800D01*
X0142430Y0163697D01*
X0142304Y0163597D01*
X0142176Y0163501D01*
X0142045Y0163408D01*
X0141911Y0163318D01*
X0141776Y0163231D01*
X0141638Y0163148D01*
X0141499Y0163068D01*
X0141357Y0162992D01*
X0141214Y0162919D01*
X0141069Y0162850D01*
X0140922Y0162784D01*
X0140774Y0162722D01*
X0140624Y0162664D01*
X0140473Y0162609D01*
X0140320Y0162558D01*
X0140166Y0162511D01*
X0140011Y0162468D01*
X0139855Y0162429D01*
X0139699Y0162393D01*
X0139541Y0162362D01*
X0139383Y0162334D01*
X0139224Y0162310D01*
X0139064Y0162290D01*
X0138904Y0162274D01*
X0138744Y0162262D01*
X0138583Y0162254D01*
X0138422Y0162250D01*
X0138262Y0162250D01*
X0138101Y0162254D01*
X0137940Y0162262D01*
X0137780Y0162274D01*
X0137620Y0162290D01*
X0137460Y0162310D01*
X0137301Y0162334D01*
X0137143Y0162362D01*
X0136985Y0162393D01*
X0136829Y0162429D01*
X0136673Y0162468D01*
X0136518Y0162511D01*
X0136364Y0162558D01*
X0136211Y0162609D01*
X0136060Y0162664D01*
X0135910Y0162722D01*
X0135762Y0162784D01*
X0135615Y0162850D01*
X0135470Y0162919D01*
X0135327Y0162992D01*
X0135185Y0163068D01*
X0135046Y0163148D01*
X0134908Y0163231D01*
X0134773Y0163318D01*
X0134639Y0163408D01*
X0134508Y0163501D01*
X0134380Y0163597D01*
X0134254Y0163697D01*
X0134130Y0163800D01*
X0134009Y0163905D01*
X0133890Y0164014D01*
X0133774Y0164125D01*
X0133661Y0164240D01*
X0133551Y0164357D01*
X0133444Y0164477D01*
X0133340Y0164599D01*
X0133239Y0164724D01*
X0133141Y0164852D01*
X0133046Y0164982D01*
X0132954Y0165114D01*
X0132866Y0165248D01*
X0132781Y0165385D01*
X0132699Y0165523D01*
X0132621Y0165664D01*
X0132547Y0165806D01*
X0132476Y0165950D01*
X0132408Y0166096D01*
X0132345Y0166244D01*
X0132284Y0166393D01*
X0132228Y0166544D01*
X0132175Y0166696D01*
X0132126Y0166849D01*
X0132081Y0167003D01*
X0132040Y0167158D01*
X0132002Y0167315D01*
X0131969Y0167472D01*
X0131939Y0167630D01*
X0131913Y0167789D01*
X0131892Y0167948D01*
X0131874Y0168108D01*
X0131860Y0168268D01*
X0131850Y0168429D01*
X0131844Y0168589D01*
X0131842Y0168750D01*
X0153842Y0168750D02*
X0153844Y0168911D01*
X0153850Y0169071D01*
X0153860Y0169232D01*
X0153874Y0169392D01*
X0153892Y0169552D01*
X0153913Y0169711D01*
X0153939Y0169870D01*
X0153969Y0170028D01*
X0154002Y0170185D01*
X0154040Y0170342D01*
X0154081Y0170497D01*
X0154126Y0170651D01*
X0154175Y0170804D01*
X0154228Y0170956D01*
X0154284Y0171107D01*
X0154345Y0171256D01*
X0154408Y0171404D01*
X0154476Y0171550D01*
X0154547Y0171694D01*
X0154621Y0171836D01*
X0154699Y0171977D01*
X0154781Y0172115D01*
X0154866Y0172252D01*
X0154954Y0172386D01*
X0155046Y0172518D01*
X0155141Y0172648D01*
X0155239Y0172776D01*
X0155340Y0172901D01*
X0155444Y0173023D01*
X0155551Y0173143D01*
X0155661Y0173260D01*
X0155774Y0173375D01*
X0155890Y0173486D01*
X0156009Y0173595D01*
X0156130Y0173700D01*
X0156254Y0173803D01*
X0156380Y0173903D01*
X0156508Y0173999D01*
X0156639Y0174092D01*
X0156773Y0174182D01*
X0156908Y0174269D01*
X0157046Y0174352D01*
X0157185Y0174432D01*
X0157327Y0174508D01*
X0157470Y0174581D01*
X0157615Y0174650D01*
X0157762Y0174716D01*
X0157910Y0174778D01*
X0158060Y0174836D01*
X0158211Y0174891D01*
X0158364Y0174942D01*
X0158518Y0174989D01*
X0158673Y0175032D01*
X0158829Y0175071D01*
X0158985Y0175107D01*
X0159143Y0175138D01*
X0159301Y0175166D01*
X0159460Y0175190D01*
X0159620Y0175210D01*
X0159780Y0175226D01*
X0159940Y0175238D01*
X0160101Y0175246D01*
X0160262Y0175250D01*
X0160422Y0175250D01*
X0160583Y0175246D01*
X0160744Y0175238D01*
X0160904Y0175226D01*
X0161064Y0175210D01*
X0161224Y0175190D01*
X0161383Y0175166D01*
X0161541Y0175138D01*
X0161699Y0175107D01*
X0161855Y0175071D01*
X0162011Y0175032D01*
X0162166Y0174989D01*
X0162320Y0174942D01*
X0162473Y0174891D01*
X0162624Y0174836D01*
X0162774Y0174778D01*
X0162922Y0174716D01*
X0163069Y0174650D01*
X0163214Y0174581D01*
X0163357Y0174508D01*
X0163499Y0174432D01*
X0163638Y0174352D01*
X0163776Y0174269D01*
X0163911Y0174182D01*
X0164045Y0174092D01*
X0164176Y0173999D01*
X0164304Y0173903D01*
X0164430Y0173803D01*
X0164554Y0173700D01*
X0164675Y0173595D01*
X0164794Y0173486D01*
X0164910Y0173375D01*
X0165023Y0173260D01*
X0165133Y0173143D01*
X0165240Y0173023D01*
X0165344Y0172901D01*
X0165445Y0172776D01*
X0165543Y0172648D01*
X0165638Y0172518D01*
X0165730Y0172386D01*
X0165818Y0172252D01*
X0165903Y0172115D01*
X0165985Y0171977D01*
X0166063Y0171836D01*
X0166137Y0171694D01*
X0166208Y0171550D01*
X0166276Y0171404D01*
X0166339Y0171256D01*
X0166400Y0171107D01*
X0166456Y0170956D01*
X0166509Y0170804D01*
X0166558Y0170651D01*
X0166603Y0170497D01*
X0166644Y0170342D01*
X0166682Y0170185D01*
X0166715Y0170028D01*
X0166745Y0169870D01*
X0166771Y0169711D01*
X0166792Y0169552D01*
X0166810Y0169392D01*
X0166824Y0169232D01*
X0166834Y0169071D01*
X0166840Y0168911D01*
X0166842Y0168750D01*
X0166840Y0168589D01*
X0166834Y0168429D01*
X0166824Y0168268D01*
X0166810Y0168108D01*
X0166792Y0167948D01*
X0166771Y0167789D01*
X0166745Y0167630D01*
X0166715Y0167472D01*
X0166682Y0167315D01*
X0166644Y0167158D01*
X0166603Y0167003D01*
X0166558Y0166849D01*
X0166509Y0166696D01*
X0166456Y0166544D01*
X0166400Y0166393D01*
X0166339Y0166244D01*
X0166276Y0166096D01*
X0166208Y0165950D01*
X0166137Y0165806D01*
X0166063Y0165664D01*
X0165985Y0165523D01*
X0165903Y0165385D01*
X0165818Y0165248D01*
X0165730Y0165114D01*
X0165638Y0164982D01*
X0165543Y0164852D01*
X0165445Y0164724D01*
X0165344Y0164599D01*
X0165240Y0164477D01*
X0165133Y0164357D01*
X0165023Y0164240D01*
X0164910Y0164125D01*
X0164794Y0164014D01*
X0164675Y0163905D01*
X0164554Y0163800D01*
X0164430Y0163697D01*
X0164304Y0163597D01*
X0164176Y0163501D01*
X0164045Y0163408D01*
X0163911Y0163318D01*
X0163776Y0163231D01*
X0163638Y0163148D01*
X0163499Y0163068D01*
X0163357Y0162992D01*
X0163214Y0162919D01*
X0163069Y0162850D01*
X0162922Y0162784D01*
X0162774Y0162722D01*
X0162624Y0162664D01*
X0162473Y0162609D01*
X0162320Y0162558D01*
X0162166Y0162511D01*
X0162011Y0162468D01*
X0161855Y0162429D01*
X0161699Y0162393D01*
X0161541Y0162362D01*
X0161383Y0162334D01*
X0161224Y0162310D01*
X0161064Y0162290D01*
X0160904Y0162274D01*
X0160744Y0162262D01*
X0160583Y0162254D01*
X0160422Y0162250D01*
X0160262Y0162250D01*
X0160101Y0162254D01*
X0159940Y0162262D01*
X0159780Y0162274D01*
X0159620Y0162290D01*
X0159460Y0162310D01*
X0159301Y0162334D01*
X0159143Y0162362D01*
X0158985Y0162393D01*
X0158829Y0162429D01*
X0158673Y0162468D01*
X0158518Y0162511D01*
X0158364Y0162558D01*
X0158211Y0162609D01*
X0158060Y0162664D01*
X0157910Y0162722D01*
X0157762Y0162784D01*
X0157615Y0162850D01*
X0157470Y0162919D01*
X0157327Y0162992D01*
X0157185Y0163068D01*
X0157046Y0163148D01*
X0156908Y0163231D01*
X0156773Y0163318D01*
X0156639Y0163408D01*
X0156508Y0163501D01*
X0156380Y0163597D01*
X0156254Y0163697D01*
X0156130Y0163800D01*
X0156009Y0163905D01*
X0155890Y0164014D01*
X0155774Y0164125D01*
X0155661Y0164240D01*
X0155551Y0164357D01*
X0155444Y0164477D01*
X0155340Y0164599D01*
X0155239Y0164724D01*
X0155141Y0164852D01*
X0155046Y0164982D01*
X0154954Y0165114D01*
X0154866Y0165248D01*
X0154781Y0165385D01*
X0154699Y0165523D01*
X0154621Y0165664D01*
X0154547Y0165806D01*
X0154476Y0165950D01*
X0154408Y0166096D01*
X0154345Y0166244D01*
X0154284Y0166393D01*
X0154228Y0166544D01*
X0154175Y0166696D01*
X0154126Y0166849D01*
X0154081Y0167003D01*
X0154040Y0167158D01*
X0154002Y0167315D01*
X0153969Y0167472D01*
X0153939Y0167630D01*
X0153913Y0167789D01*
X0153892Y0167948D01*
X0153874Y0168108D01*
X0153860Y0168268D01*
X0153850Y0168429D01*
X0153844Y0168589D01*
X0153842Y0168750D01*
X0153842Y0240750D02*
X0153844Y0240911D01*
X0153850Y0241071D01*
X0153860Y0241232D01*
X0153874Y0241392D01*
X0153892Y0241552D01*
X0153913Y0241711D01*
X0153939Y0241870D01*
X0153969Y0242028D01*
X0154002Y0242185D01*
X0154040Y0242342D01*
X0154081Y0242497D01*
X0154126Y0242651D01*
X0154175Y0242804D01*
X0154228Y0242956D01*
X0154284Y0243107D01*
X0154345Y0243256D01*
X0154408Y0243404D01*
X0154476Y0243550D01*
X0154547Y0243694D01*
X0154621Y0243836D01*
X0154699Y0243977D01*
X0154781Y0244115D01*
X0154866Y0244252D01*
X0154954Y0244386D01*
X0155046Y0244518D01*
X0155141Y0244648D01*
X0155239Y0244776D01*
X0155340Y0244901D01*
X0155444Y0245023D01*
X0155551Y0245143D01*
X0155661Y0245260D01*
X0155774Y0245375D01*
X0155890Y0245486D01*
X0156009Y0245595D01*
X0156130Y0245700D01*
X0156254Y0245803D01*
X0156380Y0245903D01*
X0156508Y0245999D01*
X0156639Y0246092D01*
X0156773Y0246182D01*
X0156908Y0246269D01*
X0157046Y0246352D01*
X0157185Y0246432D01*
X0157327Y0246508D01*
X0157470Y0246581D01*
X0157615Y0246650D01*
X0157762Y0246716D01*
X0157910Y0246778D01*
X0158060Y0246836D01*
X0158211Y0246891D01*
X0158364Y0246942D01*
X0158518Y0246989D01*
X0158673Y0247032D01*
X0158829Y0247071D01*
X0158985Y0247107D01*
X0159143Y0247138D01*
X0159301Y0247166D01*
X0159460Y0247190D01*
X0159620Y0247210D01*
X0159780Y0247226D01*
X0159940Y0247238D01*
X0160101Y0247246D01*
X0160262Y0247250D01*
X0160422Y0247250D01*
X0160583Y0247246D01*
X0160744Y0247238D01*
X0160904Y0247226D01*
X0161064Y0247210D01*
X0161224Y0247190D01*
X0161383Y0247166D01*
X0161541Y0247138D01*
X0161699Y0247107D01*
X0161855Y0247071D01*
X0162011Y0247032D01*
X0162166Y0246989D01*
X0162320Y0246942D01*
X0162473Y0246891D01*
X0162624Y0246836D01*
X0162774Y0246778D01*
X0162922Y0246716D01*
X0163069Y0246650D01*
X0163214Y0246581D01*
X0163357Y0246508D01*
X0163499Y0246432D01*
X0163638Y0246352D01*
X0163776Y0246269D01*
X0163911Y0246182D01*
X0164045Y0246092D01*
X0164176Y0245999D01*
X0164304Y0245903D01*
X0164430Y0245803D01*
X0164554Y0245700D01*
X0164675Y0245595D01*
X0164794Y0245486D01*
X0164910Y0245375D01*
X0165023Y0245260D01*
X0165133Y0245143D01*
X0165240Y0245023D01*
X0165344Y0244901D01*
X0165445Y0244776D01*
X0165543Y0244648D01*
X0165638Y0244518D01*
X0165730Y0244386D01*
X0165818Y0244252D01*
X0165903Y0244115D01*
X0165985Y0243977D01*
X0166063Y0243836D01*
X0166137Y0243694D01*
X0166208Y0243550D01*
X0166276Y0243404D01*
X0166339Y0243256D01*
X0166400Y0243107D01*
X0166456Y0242956D01*
X0166509Y0242804D01*
X0166558Y0242651D01*
X0166603Y0242497D01*
X0166644Y0242342D01*
X0166682Y0242185D01*
X0166715Y0242028D01*
X0166745Y0241870D01*
X0166771Y0241711D01*
X0166792Y0241552D01*
X0166810Y0241392D01*
X0166824Y0241232D01*
X0166834Y0241071D01*
X0166840Y0240911D01*
X0166842Y0240750D01*
X0166840Y0240589D01*
X0166834Y0240429D01*
X0166824Y0240268D01*
X0166810Y0240108D01*
X0166792Y0239948D01*
X0166771Y0239789D01*
X0166745Y0239630D01*
X0166715Y0239472D01*
X0166682Y0239315D01*
X0166644Y0239158D01*
X0166603Y0239003D01*
X0166558Y0238849D01*
X0166509Y0238696D01*
X0166456Y0238544D01*
X0166400Y0238393D01*
X0166339Y0238244D01*
X0166276Y0238096D01*
X0166208Y0237950D01*
X0166137Y0237806D01*
X0166063Y0237664D01*
X0165985Y0237523D01*
X0165903Y0237385D01*
X0165818Y0237248D01*
X0165730Y0237114D01*
X0165638Y0236982D01*
X0165543Y0236852D01*
X0165445Y0236724D01*
X0165344Y0236599D01*
X0165240Y0236477D01*
X0165133Y0236357D01*
X0165023Y0236240D01*
X0164910Y0236125D01*
X0164794Y0236014D01*
X0164675Y0235905D01*
X0164554Y0235800D01*
X0164430Y0235697D01*
X0164304Y0235597D01*
X0164176Y0235501D01*
X0164045Y0235408D01*
X0163911Y0235318D01*
X0163776Y0235231D01*
X0163638Y0235148D01*
X0163499Y0235068D01*
X0163357Y0234992D01*
X0163214Y0234919D01*
X0163069Y0234850D01*
X0162922Y0234784D01*
X0162774Y0234722D01*
X0162624Y0234664D01*
X0162473Y0234609D01*
X0162320Y0234558D01*
X0162166Y0234511D01*
X0162011Y0234468D01*
X0161855Y0234429D01*
X0161699Y0234393D01*
X0161541Y0234362D01*
X0161383Y0234334D01*
X0161224Y0234310D01*
X0161064Y0234290D01*
X0160904Y0234274D01*
X0160744Y0234262D01*
X0160583Y0234254D01*
X0160422Y0234250D01*
X0160262Y0234250D01*
X0160101Y0234254D01*
X0159940Y0234262D01*
X0159780Y0234274D01*
X0159620Y0234290D01*
X0159460Y0234310D01*
X0159301Y0234334D01*
X0159143Y0234362D01*
X0158985Y0234393D01*
X0158829Y0234429D01*
X0158673Y0234468D01*
X0158518Y0234511D01*
X0158364Y0234558D01*
X0158211Y0234609D01*
X0158060Y0234664D01*
X0157910Y0234722D01*
X0157762Y0234784D01*
X0157615Y0234850D01*
X0157470Y0234919D01*
X0157327Y0234992D01*
X0157185Y0235068D01*
X0157046Y0235148D01*
X0156908Y0235231D01*
X0156773Y0235318D01*
X0156639Y0235408D01*
X0156508Y0235501D01*
X0156380Y0235597D01*
X0156254Y0235697D01*
X0156130Y0235800D01*
X0156009Y0235905D01*
X0155890Y0236014D01*
X0155774Y0236125D01*
X0155661Y0236240D01*
X0155551Y0236357D01*
X0155444Y0236477D01*
X0155340Y0236599D01*
X0155239Y0236724D01*
X0155141Y0236852D01*
X0155046Y0236982D01*
X0154954Y0237114D01*
X0154866Y0237248D01*
X0154781Y0237385D01*
X0154699Y0237523D01*
X0154621Y0237664D01*
X0154547Y0237806D01*
X0154476Y0237950D01*
X0154408Y0238096D01*
X0154345Y0238244D01*
X0154284Y0238393D01*
X0154228Y0238544D01*
X0154175Y0238696D01*
X0154126Y0238849D01*
X0154081Y0239003D01*
X0154040Y0239158D01*
X0154002Y0239315D01*
X0153969Y0239472D01*
X0153939Y0239630D01*
X0153913Y0239789D01*
X0153892Y0239948D01*
X0153874Y0240108D01*
X0153860Y0240268D01*
X0153850Y0240429D01*
X0153844Y0240589D01*
X0153842Y0240750D01*
X0131842Y0240750D02*
X0131844Y0240911D01*
X0131850Y0241071D01*
X0131860Y0241232D01*
X0131874Y0241392D01*
X0131892Y0241552D01*
X0131913Y0241711D01*
X0131939Y0241870D01*
X0131969Y0242028D01*
X0132002Y0242185D01*
X0132040Y0242342D01*
X0132081Y0242497D01*
X0132126Y0242651D01*
X0132175Y0242804D01*
X0132228Y0242956D01*
X0132284Y0243107D01*
X0132345Y0243256D01*
X0132408Y0243404D01*
X0132476Y0243550D01*
X0132547Y0243694D01*
X0132621Y0243836D01*
X0132699Y0243977D01*
X0132781Y0244115D01*
X0132866Y0244252D01*
X0132954Y0244386D01*
X0133046Y0244518D01*
X0133141Y0244648D01*
X0133239Y0244776D01*
X0133340Y0244901D01*
X0133444Y0245023D01*
X0133551Y0245143D01*
X0133661Y0245260D01*
X0133774Y0245375D01*
X0133890Y0245486D01*
X0134009Y0245595D01*
X0134130Y0245700D01*
X0134254Y0245803D01*
X0134380Y0245903D01*
X0134508Y0245999D01*
X0134639Y0246092D01*
X0134773Y0246182D01*
X0134908Y0246269D01*
X0135046Y0246352D01*
X0135185Y0246432D01*
X0135327Y0246508D01*
X0135470Y0246581D01*
X0135615Y0246650D01*
X0135762Y0246716D01*
X0135910Y0246778D01*
X0136060Y0246836D01*
X0136211Y0246891D01*
X0136364Y0246942D01*
X0136518Y0246989D01*
X0136673Y0247032D01*
X0136829Y0247071D01*
X0136985Y0247107D01*
X0137143Y0247138D01*
X0137301Y0247166D01*
X0137460Y0247190D01*
X0137620Y0247210D01*
X0137780Y0247226D01*
X0137940Y0247238D01*
X0138101Y0247246D01*
X0138262Y0247250D01*
X0138422Y0247250D01*
X0138583Y0247246D01*
X0138744Y0247238D01*
X0138904Y0247226D01*
X0139064Y0247210D01*
X0139224Y0247190D01*
X0139383Y0247166D01*
X0139541Y0247138D01*
X0139699Y0247107D01*
X0139855Y0247071D01*
X0140011Y0247032D01*
X0140166Y0246989D01*
X0140320Y0246942D01*
X0140473Y0246891D01*
X0140624Y0246836D01*
X0140774Y0246778D01*
X0140922Y0246716D01*
X0141069Y0246650D01*
X0141214Y0246581D01*
X0141357Y0246508D01*
X0141499Y0246432D01*
X0141638Y0246352D01*
X0141776Y0246269D01*
X0141911Y0246182D01*
X0142045Y0246092D01*
X0142176Y0245999D01*
X0142304Y0245903D01*
X0142430Y0245803D01*
X0142554Y0245700D01*
X0142675Y0245595D01*
X0142794Y0245486D01*
X0142910Y0245375D01*
X0143023Y0245260D01*
X0143133Y0245143D01*
X0143240Y0245023D01*
X0143344Y0244901D01*
X0143445Y0244776D01*
X0143543Y0244648D01*
X0143638Y0244518D01*
X0143730Y0244386D01*
X0143818Y0244252D01*
X0143903Y0244115D01*
X0143985Y0243977D01*
X0144063Y0243836D01*
X0144137Y0243694D01*
X0144208Y0243550D01*
X0144276Y0243404D01*
X0144339Y0243256D01*
X0144400Y0243107D01*
X0144456Y0242956D01*
X0144509Y0242804D01*
X0144558Y0242651D01*
X0144603Y0242497D01*
X0144644Y0242342D01*
X0144682Y0242185D01*
X0144715Y0242028D01*
X0144745Y0241870D01*
X0144771Y0241711D01*
X0144792Y0241552D01*
X0144810Y0241392D01*
X0144824Y0241232D01*
X0144834Y0241071D01*
X0144840Y0240911D01*
X0144842Y0240750D01*
X0144840Y0240589D01*
X0144834Y0240429D01*
X0144824Y0240268D01*
X0144810Y0240108D01*
X0144792Y0239948D01*
X0144771Y0239789D01*
X0144745Y0239630D01*
X0144715Y0239472D01*
X0144682Y0239315D01*
X0144644Y0239158D01*
X0144603Y0239003D01*
X0144558Y0238849D01*
X0144509Y0238696D01*
X0144456Y0238544D01*
X0144400Y0238393D01*
X0144339Y0238244D01*
X0144276Y0238096D01*
X0144208Y0237950D01*
X0144137Y0237806D01*
X0144063Y0237664D01*
X0143985Y0237523D01*
X0143903Y0237385D01*
X0143818Y0237248D01*
X0143730Y0237114D01*
X0143638Y0236982D01*
X0143543Y0236852D01*
X0143445Y0236724D01*
X0143344Y0236599D01*
X0143240Y0236477D01*
X0143133Y0236357D01*
X0143023Y0236240D01*
X0142910Y0236125D01*
X0142794Y0236014D01*
X0142675Y0235905D01*
X0142554Y0235800D01*
X0142430Y0235697D01*
X0142304Y0235597D01*
X0142176Y0235501D01*
X0142045Y0235408D01*
X0141911Y0235318D01*
X0141776Y0235231D01*
X0141638Y0235148D01*
X0141499Y0235068D01*
X0141357Y0234992D01*
X0141214Y0234919D01*
X0141069Y0234850D01*
X0140922Y0234784D01*
X0140774Y0234722D01*
X0140624Y0234664D01*
X0140473Y0234609D01*
X0140320Y0234558D01*
X0140166Y0234511D01*
X0140011Y0234468D01*
X0139855Y0234429D01*
X0139699Y0234393D01*
X0139541Y0234362D01*
X0139383Y0234334D01*
X0139224Y0234310D01*
X0139064Y0234290D01*
X0138904Y0234274D01*
X0138744Y0234262D01*
X0138583Y0234254D01*
X0138422Y0234250D01*
X0138262Y0234250D01*
X0138101Y0234254D01*
X0137940Y0234262D01*
X0137780Y0234274D01*
X0137620Y0234290D01*
X0137460Y0234310D01*
X0137301Y0234334D01*
X0137143Y0234362D01*
X0136985Y0234393D01*
X0136829Y0234429D01*
X0136673Y0234468D01*
X0136518Y0234511D01*
X0136364Y0234558D01*
X0136211Y0234609D01*
X0136060Y0234664D01*
X0135910Y0234722D01*
X0135762Y0234784D01*
X0135615Y0234850D01*
X0135470Y0234919D01*
X0135327Y0234992D01*
X0135185Y0235068D01*
X0135046Y0235148D01*
X0134908Y0235231D01*
X0134773Y0235318D01*
X0134639Y0235408D01*
X0134508Y0235501D01*
X0134380Y0235597D01*
X0134254Y0235697D01*
X0134130Y0235800D01*
X0134009Y0235905D01*
X0133890Y0236014D01*
X0133774Y0236125D01*
X0133661Y0236240D01*
X0133551Y0236357D01*
X0133444Y0236477D01*
X0133340Y0236599D01*
X0133239Y0236724D01*
X0133141Y0236852D01*
X0133046Y0236982D01*
X0132954Y0237114D01*
X0132866Y0237248D01*
X0132781Y0237385D01*
X0132699Y0237523D01*
X0132621Y0237664D01*
X0132547Y0237806D01*
X0132476Y0237950D01*
X0132408Y0238096D01*
X0132345Y0238244D01*
X0132284Y0238393D01*
X0132228Y0238544D01*
X0132175Y0238696D01*
X0132126Y0238849D01*
X0132081Y0239003D01*
X0132040Y0239158D01*
X0132002Y0239315D01*
X0131969Y0239472D01*
X0131939Y0239630D01*
X0131913Y0239789D01*
X0131892Y0239948D01*
X0131874Y0240108D01*
X0131860Y0240268D01*
X0131850Y0240429D01*
X0131844Y0240589D01*
X0131842Y0240750D01*
X0233842Y0240750D02*
X0233844Y0240911D01*
X0233850Y0241071D01*
X0233860Y0241232D01*
X0233874Y0241392D01*
X0233892Y0241552D01*
X0233913Y0241711D01*
X0233939Y0241870D01*
X0233969Y0242028D01*
X0234002Y0242185D01*
X0234040Y0242342D01*
X0234081Y0242497D01*
X0234126Y0242651D01*
X0234175Y0242804D01*
X0234228Y0242956D01*
X0234284Y0243107D01*
X0234345Y0243256D01*
X0234408Y0243404D01*
X0234476Y0243550D01*
X0234547Y0243694D01*
X0234621Y0243836D01*
X0234699Y0243977D01*
X0234781Y0244115D01*
X0234866Y0244252D01*
X0234954Y0244386D01*
X0235046Y0244518D01*
X0235141Y0244648D01*
X0235239Y0244776D01*
X0235340Y0244901D01*
X0235444Y0245023D01*
X0235551Y0245143D01*
X0235661Y0245260D01*
X0235774Y0245375D01*
X0235890Y0245486D01*
X0236009Y0245595D01*
X0236130Y0245700D01*
X0236254Y0245803D01*
X0236380Y0245903D01*
X0236508Y0245999D01*
X0236639Y0246092D01*
X0236773Y0246182D01*
X0236908Y0246269D01*
X0237046Y0246352D01*
X0237185Y0246432D01*
X0237327Y0246508D01*
X0237470Y0246581D01*
X0237615Y0246650D01*
X0237762Y0246716D01*
X0237910Y0246778D01*
X0238060Y0246836D01*
X0238211Y0246891D01*
X0238364Y0246942D01*
X0238518Y0246989D01*
X0238673Y0247032D01*
X0238829Y0247071D01*
X0238985Y0247107D01*
X0239143Y0247138D01*
X0239301Y0247166D01*
X0239460Y0247190D01*
X0239620Y0247210D01*
X0239780Y0247226D01*
X0239940Y0247238D01*
X0240101Y0247246D01*
X0240262Y0247250D01*
X0240422Y0247250D01*
X0240583Y0247246D01*
X0240744Y0247238D01*
X0240904Y0247226D01*
X0241064Y0247210D01*
X0241224Y0247190D01*
X0241383Y0247166D01*
X0241541Y0247138D01*
X0241699Y0247107D01*
X0241855Y0247071D01*
X0242011Y0247032D01*
X0242166Y0246989D01*
X0242320Y0246942D01*
X0242473Y0246891D01*
X0242624Y0246836D01*
X0242774Y0246778D01*
X0242922Y0246716D01*
X0243069Y0246650D01*
X0243214Y0246581D01*
X0243357Y0246508D01*
X0243499Y0246432D01*
X0243638Y0246352D01*
X0243776Y0246269D01*
X0243911Y0246182D01*
X0244045Y0246092D01*
X0244176Y0245999D01*
X0244304Y0245903D01*
X0244430Y0245803D01*
X0244554Y0245700D01*
X0244675Y0245595D01*
X0244794Y0245486D01*
X0244910Y0245375D01*
X0245023Y0245260D01*
X0245133Y0245143D01*
X0245240Y0245023D01*
X0245344Y0244901D01*
X0245445Y0244776D01*
X0245543Y0244648D01*
X0245638Y0244518D01*
X0245730Y0244386D01*
X0245818Y0244252D01*
X0245903Y0244115D01*
X0245985Y0243977D01*
X0246063Y0243836D01*
X0246137Y0243694D01*
X0246208Y0243550D01*
X0246276Y0243404D01*
X0246339Y0243256D01*
X0246400Y0243107D01*
X0246456Y0242956D01*
X0246509Y0242804D01*
X0246558Y0242651D01*
X0246603Y0242497D01*
X0246644Y0242342D01*
X0246682Y0242185D01*
X0246715Y0242028D01*
X0246745Y0241870D01*
X0246771Y0241711D01*
X0246792Y0241552D01*
X0246810Y0241392D01*
X0246824Y0241232D01*
X0246834Y0241071D01*
X0246840Y0240911D01*
X0246842Y0240750D01*
X0246840Y0240589D01*
X0246834Y0240429D01*
X0246824Y0240268D01*
X0246810Y0240108D01*
X0246792Y0239948D01*
X0246771Y0239789D01*
X0246745Y0239630D01*
X0246715Y0239472D01*
X0246682Y0239315D01*
X0246644Y0239158D01*
X0246603Y0239003D01*
X0246558Y0238849D01*
X0246509Y0238696D01*
X0246456Y0238544D01*
X0246400Y0238393D01*
X0246339Y0238244D01*
X0246276Y0238096D01*
X0246208Y0237950D01*
X0246137Y0237806D01*
X0246063Y0237664D01*
X0245985Y0237523D01*
X0245903Y0237385D01*
X0245818Y0237248D01*
X0245730Y0237114D01*
X0245638Y0236982D01*
X0245543Y0236852D01*
X0245445Y0236724D01*
X0245344Y0236599D01*
X0245240Y0236477D01*
X0245133Y0236357D01*
X0245023Y0236240D01*
X0244910Y0236125D01*
X0244794Y0236014D01*
X0244675Y0235905D01*
X0244554Y0235800D01*
X0244430Y0235697D01*
X0244304Y0235597D01*
X0244176Y0235501D01*
X0244045Y0235408D01*
X0243911Y0235318D01*
X0243776Y0235231D01*
X0243638Y0235148D01*
X0243499Y0235068D01*
X0243357Y0234992D01*
X0243214Y0234919D01*
X0243069Y0234850D01*
X0242922Y0234784D01*
X0242774Y0234722D01*
X0242624Y0234664D01*
X0242473Y0234609D01*
X0242320Y0234558D01*
X0242166Y0234511D01*
X0242011Y0234468D01*
X0241855Y0234429D01*
X0241699Y0234393D01*
X0241541Y0234362D01*
X0241383Y0234334D01*
X0241224Y0234310D01*
X0241064Y0234290D01*
X0240904Y0234274D01*
X0240744Y0234262D01*
X0240583Y0234254D01*
X0240422Y0234250D01*
X0240262Y0234250D01*
X0240101Y0234254D01*
X0239940Y0234262D01*
X0239780Y0234274D01*
X0239620Y0234290D01*
X0239460Y0234310D01*
X0239301Y0234334D01*
X0239143Y0234362D01*
X0238985Y0234393D01*
X0238829Y0234429D01*
X0238673Y0234468D01*
X0238518Y0234511D01*
X0238364Y0234558D01*
X0238211Y0234609D01*
X0238060Y0234664D01*
X0237910Y0234722D01*
X0237762Y0234784D01*
X0237615Y0234850D01*
X0237470Y0234919D01*
X0237327Y0234992D01*
X0237185Y0235068D01*
X0237046Y0235148D01*
X0236908Y0235231D01*
X0236773Y0235318D01*
X0236639Y0235408D01*
X0236508Y0235501D01*
X0236380Y0235597D01*
X0236254Y0235697D01*
X0236130Y0235800D01*
X0236009Y0235905D01*
X0235890Y0236014D01*
X0235774Y0236125D01*
X0235661Y0236240D01*
X0235551Y0236357D01*
X0235444Y0236477D01*
X0235340Y0236599D01*
X0235239Y0236724D01*
X0235141Y0236852D01*
X0235046Y0236982D01*
X0234954Y0237114D01*
X0234866Y0237248D01*
X0234781Y0237385D01*
X0234699Y0237523D01*
X0234621Y0237664D01*
X0234547Y0237806D01*
X0234476Y0237950D01*
X0234408Y0238096D01*
X0234345Y0238244D01*
X0234284Y0238393D01*
X0234228Y0238544D01*
X0234175Y0238696D01*
X0234126Y0238849D01*
X0234081Y0239003D01*
X0234040Y0239158D01*
X0234002Y0239315D01*
X0233969Y0239472D01*
X0233939Y0239630D01*
X0233913Y0239789D01*
X0233892Y0239948D01*
X0233874Y0240108D01*
X0233860Y0240268D01*
X0233850Y0240429D01*
X0233844Y0240589D01*
X0233842Y0240750D01*
X0255842Y0240750D02*
X0255844Y0240911D01*
X0255850Y0241071D01*
X0255860Y0241232D01*
X0255874Y0241392D01*
X0255892Y0241552D01*
X0255913Y0241711D01*
X0255939Y0241870D01*
X0255969Y0242028D01*
X0256002Y0242185D01*
X0256040Y0242342D01*
X0256081Y0242497D01*
X0256126Y0242651D01*
X0256175Y0242804D01*
X0256228Y0242956D01*
X0256284Y0243107D01*
X0256345Y0243256D01*
X0256408Y0243404D01*
X0256476Y0243550D01*
X0256547Y0243694D01*
X0256621Y0243836D01*
X0256699Y0243977D01*
X0256781Y0244115D01*
X0256866Y0244252D01*
X0256954Y0244386D01*
X0257046Y0244518D01*
X0257141Y0244648D01*
X0257239Y0244776D01*
X0257340Y0244901D01*
X0257444Y0245023D01*
X0257551Y0245143D01*
X0257661Y0245260D01*
X0257774Y0245375D01*
X0257890Y0245486D01*
X0258009Y0245595D01*
X0258130Y0245700D01*
X0258254Y0245803D01*
X0258380Y0245903D01*
X0258508Y0245999D01*
X0258639Y0246092D01*
X0258773Y0246182D01*
X0258908Y0246269D01*
X0259046Y0246352D01*
X0259185Y0246432D01*
X0259327Y0246508D01*
X0259470Y0246581D01*
X0259615Y0246650D01*
X0259762Y0246716D01*
X0259910Y0246778D01*
X0260060Y0246836D01*
X0260211Y0246891D01*
X0260364Y0246942D01*
X0260518Y0246989D01*
X0260673Y0247032D01*
X0260829Y0247071D01*
X0260985Y0247107D01*
X0261143Y0247138D01*
X0261301Y0247166D01*
X0261460Y0247190D01*
X0261620Y0247210D01*
X0261780Y0247226D01*
X0261940Y0247238D01*
X0262101Y0247246D01*
X0262262Y0247250D01*
X0262422Y0247250D01*
X0262583Y0247246D01*
X0262744Y0247238D01*
X0262904Y0247226D01*
X0263064Y0247210D01*
X0263224Y0247190D01*
X0263383Y0247166D01*
X0263541Y0247138D01*
X0263699Y0247107D01*
X0263855Y0247071D01*
X0264011Y0247032D01*
X0264166Y0246989D01*
X0264320Y0246942D01*
X0264473Y0246891D01*
X0264624Y0246836D01*
X0264774Y0246778D01*
X0264922Y0246716D01*
X0265069Y0246650D01*
X0265214Y0246581D01*
X0265357Y0246508D01*
X0265499Y0246432D01*
X0265638Y0246352D01*
X0265776Y0246269D01*
X0265911Y0246182D01*
X0266045Y0246092D01*
X0266176Y0245999D01*
X0266304Y0245903D01*
X0266430Y0245803D01*
X0266554Y0245700D01*
X0266675Y0245595D01*
X0266794Y0245486D01*
X0266910Y0245375D01*
X0267023Y0245260D01*
X0267133Y0245143D01*
X0267240Y0245023D01*
X0267344Y0244901D01*
X0267445Y0244776D01*
X0267543Y0244648D01*
X0267638Y0244518D01*
X0267730Y0244386D01*
X0267818Y0244252D01*
X0267903Y0244115D01*
X0267985Y0243977D01*
X0268063Y0243836D01*
X0268137Y0243694D01*
X0268208Y0243550D01*
X0268276Y0243404D01*
X0268339Y0243256D01*
X0268400Y0243107D01*
X0268456Y0242956D01*
X0268509Y0242804D01*
X0268558Y0242651D01*
X0268603Y0242497D01*
X0268644Y0242342D01*
X0268682Y0242185D01*
X0268715Y0242028D01*
X0268745Y0241870D01*
X0268771Y0241711D01*
X0268792Y0241552D01*
X0268810Y0241392D01*
X0268824Y0241232D01*
X0268834Y0241071D01*
X0268840Y0240911D01*
X0268842Y0240750D01*
X0268840Y0240589D01*
X0268834Y0240429D01*
X0268824Y0240268D01*
X0268810Y0240108D01*
X0268792Y0239948D01*
X0268771Y0239789D01*
X0268745Y0239630D01*
X0268715Y0239472D01*
X0268682Y0239315D01*
X0268644Y0239158D01*
X0268603Y0239003D01*
X0268558Y0238849D01*
X0268509Y0238696D01*
X0268456Y0238544D01*
X0268400Y0238393D01*
X0268339Y0238244D01*
X0268276Y0238096D01*
X0268208Y0237950D01*
X0268137Y0237806D01*
X0268063Y0237664D01*
X0267985Y0237523D01*
X0267903Y0237385D01*
X0267818Y0237248D01*
X0267730Y0237114D01*
X0267638Y0236982D01*
X0267543Y0236852D01*
X0267445Y0236724D01*
X0267344Y0236599D01*
X0267240Y0236477D01*
X0267133Y0236357D01*
X0267023Y0236240D01*
X0266910Y0236125D01*
X0266794Y0236014D01*
X0266675Y0235905D01*
X0266554Y0235800D01*
X0266430Y0235697D01*
X0266304Y0235597D01*
X0266176Y0235501D01*
X0266045Y0235408D01*
X0265911Y0235318D01*
X0265776Y0235231D01*
X0265638Y0235148D01*
X0265499Y0235068D01*
X0265357Y0234992D01*
X0265214Y0234919D01*
X0265069Y0234850D01*
X0264922Y0234784D01*
X0264774Y0234722D01*
X0264624Y0234664D01*
X0264473Y0234609D01*
X0264320Y0234558D01*
X0264166Y0234511D01*
X0264011Y0234468D01*
X0263855Y0234429D01*
X0263699Y0234393D01*
X0263541Y0234362D01*
X0263383Y0234334D01*
X0263224Y0234310D01*
X0263064Y0234290D01*
X0262904Y0234274D01*
X0262744Y0234262D01*
X0262583Y0234254D01*
X0262422Y0234250D01*
X0262262Y0234250D01*
X0262101Y0234254D01*
X0261940Y0234262D01*
X0261780Y0234274D01*
X0261620Y0234290D01*
X0261460Y0234310D01*
X0261301Y0234334D01*
X0261143Y0234362D01*
X0260985Y0234393D01*
X0260829Y0234429D01*
X0260673Y0234468D01*
X0260518Y0234511D01*
X0260364Y0234558D01*
X0260211Y0234609D01*
X0260060Y0234664D01*
X0259910Y0234722D01*
X0259762Y0234784D01*
X0259615Y0234850D01*
X0259470Y0234919D01*
X0259327Y0234992D01*
X0259185Y0235068D01*
X0259046Y0235148D01*
X0258908Y0235231D01*
X0258773Y0235318D01*
X0258639Y0235408D01*
X0258508Y0235501D01*
X0258380Y0235597D01*
X0258254Y0235697D01*
X0258130Y0235800D01*
X0258009Y0235905D01*
X0257890Y0236014D01*
X0257774Y0236125D01*
X0257661Y0236240D01*
X0257551Y0236357D01*
X0257444Y0236477D01*
X0257340Y0236599D01*
X0257239Y0236724D01*
X0257141Y0236852D01*
X0257046Y0236982D01*
X0256954Y0237114D01*
X0256866Y0237248D01*
X0256781Y0237385D01*
X0256699Y0237523D01*
X0256621Y0237664D01*
X0256547Y0237806D01*
X0256476Y0237950D01*
X0256408Y0238096D01*
X0256345Y0238244D01*
X0256284Y0238393D01*
X0256228Y0238544D01*
X0256175Y0238696D01*
X0256126Y0238849D01*
X0256081Y0239003D01*
X0256040Y0239158D01*
X0256002Y0239315D01*
X0255969Y0239472D01*
X0255939Y0239630D01*
X0255913Y0239789D01*
X0255892Y0239948D01*
X0255874Y0240108D01*
X0255860Y0240268D01*
X0255850Y0240429D01*
X0255844Y0240589D01*
X0255842Y0240750D01*
X0255842Y0168750D02*
X0255844Y0168911D01*
X0255850Y0169071D01*
X0255860Y0169232D01*
X0255874Y0169392D01*
X0255892Y0169552D01*
X0255913Y0169711D01*
X0255939Y0169870D01*
X0255969Y0170028D01*
X0256002Y0170185D01*
X0256040Y0170342D01*
X0256081Y0170497D01*
X0256126Y0170651D01*
X0256175Y0170804D01*
X0256228Y0170956D01*
X0256284Y0171107D01*
X0256345Y0171256D01*
X0256408Y0171404D01*
X0256476Y0171550D01*
X0256547Y0171694D01*
X0256621Y0171836D01*
X0256699Y0171977D01*
X0256781Y0172115D01*
X0256866Y0172252D01*
X0256954Y0172386D01*
X0257046Y0172518D01*
X0257141Y0172648D01*
X0257239Y0172776D01*
X0257340Y0172901D01*
X0257444Y0173023D01*
X0257551Y0173143D01*
X0257661Y0173260D01*
X0257774Y0173375D01*
X0257890Y0173486D01*
X0258009Y0173595D01*
X0258130Y0173700D01*
X0258254Y0173803D01*
X0258380Y0173903D01*
X0258508Y0173999D01*
X0258639Y0174092D01*
X0258773Y0174182D01*
X0258908Y0174269D01*
X0259046Y0174352D01*
X0259185Y0174432D01*
X0259327Y0174508D01*
X0259470Y0174581D01*
X0259615Y0174650D01*
X0259762Y0174716D01*
X0259910Y0174778D01*
X0260060Y0174836D01*
X0260211Y0174891D01*
X0260364Y0174942D01*
X0260518Y0174989D01*
X0260673Y0175032D01*
X0260829Y0175071D01*
X0260985Y0175107D01*
X0261143Y0175138D01*
X0261301Y0175166D01*
X0261460Y0175190D01*
X0261620Y0175210D01*
X0261780Y0175226D01*
X0261940Y0175238D01*
X0262101Y0175246D01*
X0262262Y0175250D01*
X0262422Y0175250D01*
X0262583Y0175246D01*
X0262744Y0175238D01*
X0262904Y0175226D01*
X0263064Y0175210D01*
X0263224Y0175190D01*
X0263383Y0175166D01*
X0263541Y0175138D01*
X0263699Y0175107D01*
X0263855Y0175071D01*
X0264011Y0175032D01*
X0264166Y0174989D01*
X0264320Y0174942D01*
X0264473Y0174891D01*
X0264624Y0174836D01*
X0264774Y0174778D01*
X0264922Y0174716D01*
X0265069Y0174650D01*
X0265214Y0174581D01*
X0265357Y0174508D01*
X0265499Y0174432D01*
X0265638Y0174352D01*
X0265776Y0174269D01*
X0265911Y0174182D01*
X0266045Y0174092D01*
X0266176Y0173999D01*
X0266304Y0173903D01*
X0266430Y0173803D01*
X0266554Y0173700D01*
X0266675Y0173595D01*
X0266794Y0173486D01*
X0266910Y0173375D01*
X0267023Y0173260D01*
X0267133Y0173143D01*
X0267240Y0173023D01*
X0267344Y0172901D01*
X0267445Y0172776D01*
X0267543Y0172648D01*
X0267638Y0172518D01*
X0267730Y0172386D01*
X0267818Y0172252D01*
X0267903Y0172115D01*
X0267985Y0171977D01*
X0268063Y0171836D01*
X0268137Y0171694D01*
X0268208Y0171550D01*
X0268276Y0171404D01*
X0268339Y0171256D01*
X0268400Y0171107D01*
X0268456Y0170956D01*
X0268509Y0170804D01*
X0268558Y0170651D01*
X0268603Y0170497D01*
X0268644Y0170342D01*
X0268682Y0170185D01*
X0268715Y0170028D01*
X0268745Y0169870D01*
X0268771Y0169711D01*
X0268792Y0169552D01*
X0268810Y0169392D01*
X0268824Y0169232D01*
X0268834Y0169071D01*
X0268840Y0168911D01*
X0268842Y0168750D01*
X0268840Y0168589D01*
X0268834Y0168429D01*
X0268824Y0168268D01*
X0268810Y0168108D01*
X0268792Y0167948D01*
X0268771Y0167789D01*
X0268745Y0167630D01*
X0268715Y0167472D01*
X0268682Y0167315D01*
X0268644Y0167158D01*
X0268603Y0167003D01*
X0268558Y0166849D01*
X0268509Y0166696D01*
X0268456Y0166544D01*
X0268400Y0166393D01*
X0268339Y0166244D01*
X0268276Y0166096D01*
X0268208Y0165950D01*
X0268137Y0165806D01*
X0268063Y0165664D01*
X0267985Y0165523D01*
X0267903Y0165385D01*
X0267818Y0165248D01*
X0267730Y0165114D01*
X0267638Y0164982D01*
X0267543Y0164852D01*
X0267445Y0164724D01*
X0267344Y0164599D01*
X0267240Y0164477D01*
X0267133Y0164357D01*
X0267023Y0164240D01*
X0266910Y0164125D01*
X0266794Y0164014D01*
X0266675Y0163905D01*
X0266554Y0163800D01*
X0266430Y0163697D01*
X0266304Y0163597D01*
X0266176Y0163501D01*
X0266045Y0163408D01*
X0265911Y0163318D01*
X0265776Y0163231D01*
X0265638Y0163148D01*
X0265499Y0163068D01*
X0265357Y0162992D01*
X0265214Y0162919D01*
X0265069Y0162850D01*
X0264922Y0162784D01*
X0264774Y0162722D01*
X0264624Y0162664D01*
X0264473Y0162609D01*
X0264320Y0162558D01*
X0264166Y0162511D01*
X0264011Y0162468D01*
X0263855Y0162429D01*
X0263699Y0162393D01*
X0263541Y0162362D01*
X0263383Y0162334D01*
X0263224Y0162310D01*
X0263064Y0162290D01*
X0262904Y0162274D01*
X0262744Y0162262D01*
X0262583Y0162254D01*
X0262422Y0162250D01*
X0262262Y0162250D01*
X0262101Y0162254D01*
X0261940Y0162262D01*
X0261780Y0162274D01*
X0261620Y0162290D01*
X0261460Y0162310D01*
X0261301Y0162334D01*
X0261143Y0162362D01*
X0260985Y0162393D01*
X0260829Y0162429D01*
X0260673Y0162468D01*
X0260518Y0162511D01*
X0260364Y0162558D01*
X0260211Y0162609D01*
X0260060Y0162664D01*
X0259910Y0162722D01*
X0259762Y0162784D01*
X0259615Y0162850D01*
X0259470Y0162919D01*
X0259327Y0162992D01*
X0259185Y0163068D01*
X0259046Y0163148D01*
X0258908Y0163231D01*
X0258773Y0163318D01*
X0258639Y0163408D01*
X0258508Y0163501D01*
X0258380Y0163597D01*
X0258254Y0163697D01*
X0258130Y0163800D01*
X0258009Y0163905D01*
X0257890Y0164014D01*
X0257774Y0164125D01*
X0257661Y0164240D01*
X0257551Y0164357D01*
X0257444Y0164477D01*
X0257340Y0164599D01*
X0257239Y0164724D01*
X0257141Y0164852D01*
X0257046Y0164982D01*
X0256954Y0165114D01*
X0256866Y0165248D01*
X0256781Y0165385D01*
X0256699Y0165523D01*
X0256621Y0165664D01*
X0256547Y0165806D01*
X0256476Y0165950D01*
X0256408Y0166096D01*
X0256345Y0166244D01*
X0256284Y0166393D01*
X0256228Y0166544D01*
X0256175Y0166696D01*
X0256126Y0166849D01*
X0256081Y0167003D01*
X0256040Y0167158D01*
X0256002Y0167315D01*
X0255969Y0167472D01*
X0255939Y0167630D01*
X0255913Y0167789D01*
X0255892Y0167948D01*
X0255874Y0168108D01*
X0255860Y0168268D01*
X0255850Y0168429D01*
X0255844Y0168589D01*
X0255842Y0168750D01*
X0233842Y0168750D02*
X0233844Y0168911D01*
X0233850Y0169071D01*
X0233860Y0169232D01*
X0233874Y0169392D01*
X0233892Y0169552D01*
X0233913Y0169711D01*
X0233939Y0169870D01*
X0233969Y0170028D01*
X0234002Y0170185D01*
X0234040Y0170342D01*
X0234081Y0170497D01*
X0234126Y0170651D01*
X0234175Y0170804D01*
X0234228Y0170956D01*
X0234284Y0171107D01*
X0234345Y0171256D01*
X0234408Y0171404D01*
X0234476Y0171550D01*
X0234547Y0171694D01*
X0234621Y0171836D01*
X0234699Y0171977D01*
X0234781Y0172115D01*
X0234866Y0172252D01*
X0234954Y0172386D01*
X0235046Y0172518D01*
X0235141Y0172648D01*
X0235239Y0172776D01*
X0235340Y0172901D01*
X0235444Y0173023D01*
X0235551Y0173143D01*
X0235661Y0173260D01*
X0235774Y0173375D01*
X0235890Y0173486D01*
X0236009Y0173595D01*
X0236130Y0173700D01*
X0236254Y0173803D01*
X0236380Y0173903D01*
X0236508Y0173999D01*
X0236639Y0174092D01*
X0236773Y0174182D01*
X0236908Y0174269D01*
X0237046Y0174352D01*
X0237185Y0174432D01*
X0237327Y0174508D01*
X0237470Y0174581D01*
X0237615Y0174650D01*
X0237762Y0174716D01*
X0237910Y0174778D01*
X0238060Y0174836D01*
X0238211Y0174891D01*
X0238364Y0174942D01*
X0238518Y0174989D01*
X0238673Y0175032D01*
X0238829Y0175071D01*
X0238985Y0175107D01*
X0239143Y0175138D01*
X0239301Y0175166D01*
X0239460Y0175190D01*
X0239620Y0175210D01*
X0239780Y0175226D01*
X0239940Y0175238D01*
X0240101Y0175246D01*
X0240262Y0175250D01*
X0240422Y0175250D01*
X0240583Y0175246D01*
X0240744Y0175238D01*
X0240904Y0175226D01*
X0241064Y0175210D01*
X0241224Y0175190D01*
X0241383Y0175166D01*
X0241541Y0175138D01*
X0241699Y0175107D01*
X0241855Y0175071D01*
X0242011Y0175032D01*
X0242166Y0174989D01*
X0242320Y0174942D01*
X0242473Y0174891D01*
X0242624Y0174836D01*
X0242774Y0174778D01*
X0242922Y0174716D01*
X0243069Y0174650D01*
X0243214Y0174581D01*
X0243357Y0174508D01*
X0243499Y0174432D01*
X0243638Y0174352D01*
X0243776Y0174269D01*
X0243911Y0174182D01*
X0244045Y0174092D01*
X0244176Y0173999D01*
X0244304Y0173903D01*
X0244430Y0173803D01*
X0244554Y0173700D01*
X0244675Y0173595D01*
X0244794Y0173486D01*
X0244910Y0173375D01*
X0245023Y0173260D01*
X0245133Y0173143D01*
X0245240Y0173023D01*
X0245344Y0172901D01*
X0245445Y0172776D01*
X0245543Y0172648D01*
X0245638Y0172518D01*
X0245730Y0172386D01*
X0245818Y0172252D01*
X0245903Y0172115D01*
X0245985Y0171977D01*
X0246063Y0171836D01*
X0246137Y0171694D01*
X0246208Y0171550D01*
X0246276Y0171404D01*
X0246339Y0171256D01*
X0246400Y0171107D01*
X0246456Y0170956D01*
X0246509Y0170804D01*
X0246558Y0170651D01*
X0246603Y0170497D01*
X0246644Y0170342D01*
X0246682Y0170185D01*
X0246715Y0170028D01*
X0246745Y0169870D01*
X0246771Y0169711D01*
X0246792Y0169552D01*
X0246810Y0169392D01*
X0246824Y0169232D01*
X0246834Y0169071D01*
X0246840Y0168911D01*
X0246842Y0168750D01*
X0246840Y0168589D01*
X0246834Y0168429D01*
X0246824Y0168268D01*
X0246810Y0168108D01*
X0246792Y0167948D01*
X0246771Y0167789D01*
X0246745Y0167630D01*
X0246715Y0167472D01*
X0246682Y0167315D01*
X0246644Y0167158D01*
X0246603Y0167003D01*
X0246558Y0166849D01*
X0246509Y0166696D01*
X0246456Y0166544D01*
X0246400Y0166393D01*
X0246339Y0166244D01*
X0246276Y0166096D01*
X0246208Y0165950D01*
X0246137Y0165806D01*
X0246063Y0165664D01*
X0245985Y0165523D01*
X0245903Y0165385D01*
X0245818Y0165248D01*
X0245730Y0165114D01*
X0245638Y0164982D01*
X0245543Y0164852D01*
X0245445Y0164724D01*
X0245344Y0164599D01*
X0245240Y0164477D01*
X0245133Y0164357D01*
X0245023Y0164240D01*
X0244910Y0164125D01*
X0244794Y0164014D01*
X0244675Y0163905D01*
X0244554Y0163800D01*
X0244430Y0163697D01*
X0244304Y0163597D01*
X0244176Y0163501D01*
X0244045Y0163408D01*
X0243911Y0163318D01*
X0243776Y0163231D01*
X0243638Y0163148D01*
X0243499Y0163068D01*
X0243357Y0162992D01*
X0243214Y0162919D01*
X0243069Y0162850D01*
X0242922Y0162784D01*
X0242774Y0162722D01*
X0242624Y0162664D01*
X0242473Y0162609D01*
X0242320Y0162558D01*
X0242166Y0162511D01*
X0242011Y0162468D01*
X0241855Y0162429D01*
X0241699Y0162393D01*
X0241541Y0162362D01*
X0241383Y0162334D01*
X0241224Y0162310D01*
X0241064Y0162290D01*
X0240904Y0162274D01*
X0240744Y0162262D01*
X0240583Y0162254D01*
X0240422Y0162250D01*
X0240262Y0162250D01*
X0240101Y0162254D01*
X0239940Y0162262D01*
X0239780Y0162274D01*
X0239620Y0162290D01*
X0239460Y0162310D01*
X0239301Y0162334D01*
X0239143Y0162362D01*
X0238985Y0162393D01*
X0238829Y0162429D01*
X0238673Y0162468D01*
X0238518Y0162511D01*
X0238364Y0162558D01*
X0238211Y0162609D01*
X0238060Y0162664D01*
X0237910Y0162722D01*
X0237762Y0162784D01*
X0237615Y0162850D01*
X0237470Y0162919D01*
X0237327Y0162992D01*
X0237185Y0163068D01*
X0237046Y0163148D01*
X0236908Y0163231D01*
X0236773Y0163318D01*
X0236639Y0163408D01*
X0236508Y0163501D01*
X0236380Y0163597D01*
X0236254Y0163697D01*
X0236130Y0163800D01*
X0236009Y0163905D01*
X0235890Y0164014D01*
X0235774Y0164125D01*
X0235661Y0164240D01*
X0235551Y0164357D01*
X0235444Y0164477D01*
X0235340Y0164599D01*
X0235239Y0164724D01*
X0235141Y0164852D01*
X0235046Y0164982D01*
X0234954Y0165114D01*
X0234866Y0165248D01*
X0234781Y0165385D01*
X0234699Y0165523D01*
X0234621Y0165664D01*
X0234547Y0165806D01*
X0234476Y0165950D01*
X0234408Y0166096D01*
X0234345Y0166244D01*
X0234284Y0166393D01*
X0234228Y0166544D01*
X0234175Y0166696D01*
X0234126Y0166849D01*
X0234081Y0167003D01*
X0234040Y0167158D01*
X0234002Y0167315D01*
X0233969Y0167472D01*
X0233939Y0167630D01*
X0233913Y0167789D01*
X0233892Y0167948D01*
X0233874Y0168108D01*
X0233860Y0168268D01*
X0233850Y0168429D01*
X0233844Y0168589D01*
X0233842Y0168750D01*
X0233842Y0088750D02*
X0233844Y0088911D01*
X0233850Y0089071D01*
X0233860Y0089232D01*
X0233874Y0089392D01*
X0233892Y0089552D01*
X0233913Y0089711D01*
X0233939Y0089870D01*
X0233969Y0090028D01*
X0234002Y0090185D01*
X0234040Y0090342D01*
X0234081Y0090497D01*
X0234126Y0090651D01*
X0234175Y0090804D01*
X0234228Y0090956D01*
X0234284Y0091107D01*
X0234345Y0091256D01*
X0234408Y0091404D01*
X0234476Y0091550D01*
X0234547Y0091694D01*
X0234621Y0091836D01*
X0234699Y0091977D01*
X0234781Y0092115D01*
X0234866Y0092252D01*
X0234954Y0092386D01*
X0235046Y0092518D01*
X0235141Y0092648D01*
X0235239Y0092776D01*
X0235340Y0092901D01*
X0235444Y0093023D01*
X0235551Y0093143D01*
X0235661Y0093260D01*
X0235774Y0093375D01*
X0235890Y0093486D01*
X0236009Y0093595D01*
X0236130Y0093700D01*
X0236254Y0093803D01*
X0236380Y0093903D01*
X0236508Y0093999D01*
X0236639Y0094092D01*
X0236773Y0094182D01*
X0236908Y0094269D01*
X0237046Y0094352D01*
X0237185Y0094432D01*
X0237327Y0094508D01*
X0237470Y0094581D01*
X0237615Y0094650D01*
X0237762Y0094716D01*
X0237910Y0094778D01*
X0238060Y0094836D01*
X0238211Y0094891D01*
X0238364Y0094942D01*
X0238518Y0094989D01*
X0238673Y0095032D01*
X0238829Y0095071D01*
X0238985Y0095107D01*
X0239143Y0095138D01*
X0239301Y0095166D01*
X0239460Y0095190D01*
X0239620Y0095210D01*
X0239780Y0095226D01*
X0239940Y0095238D01*
X0240101Y0095246D01*
X0240262Y0095250D01*
X0240422Y0095250D01*
X0240583Y0095246D01*
X0240744Y0095238D01*
X0240904Y0095226D01*
X0241064Y0095210D01*
X0241224Y0095190D01*
X0241383Y0095166D01*
X0241541Y0095138D01*
X0241699Y0095107D01*
X0241855Y0095071D01*
X0242011Y0095032D01*
X0242166Y0094989D01*
X0242320Y0094942D01*
X0242473Y0094891D01*
X0242624Y0094836D01*
X0242774Y0094778D01*
X0242922Y0094716D01*
X0243069Y0094650D01*
X0243214Y0094581D01*
X0243357Y0094508D01*
X0243499Y0094432D01*
X0243638Y0094352D01*
X0243776Y0094269D01*
X0243911Y0094182D01*
X0244045Y0094092D01*
X0244176Y0093999D01*
X0244304Y0093903D01*
X0244430Y0093803D01*
X0244554Y0093700D01*
X0244675Y0093595D01*
X0244794Y0093486D01*
X0244910Y0093375D01*
X0245023Y0093260D01*
X0245133Y0093143D01*
X0245240Y0093023D01*
X0245344Y0092901D01*
X0245445Y0092776D01*
X0245543Y0092648D01*
X0245638Y0092518D01*
X0245730Y0092386D01*
X0245818Y0092252D01*
X0245903Y0092115D01*
X0245985Y0091977D01*
X0246063Y0091836D01*
X0246137Y0091694D01*
X0246208Y0091550D01*
X0246276Y0091404D01*
X0246339Y0091256D01*
X0246400Y0091107D01*
X0246456Y0090956D01*
X0246509Y0090804D01*
X0246558Y0090651D01*
X0246603Y0090497D01*
X0246644Y0090342D01*
X0246682Y0090185D01*
X0246715Y0090028D01*
X0246745Y0089870D01*
X0246771Y0089711D01*
X0246792Y0089552D01*
X0246810Y0089392D01*
X0246824Y0089232D01*
X0246834Y0089071D01*
X0246840Y0088911D01*
X0246842Y0088750D01*
X0246840Y0088589D01*
X0246834Y0088429D01*
X0246824Y0088268D01*
X0246810Y0088108D01*
X0246792Y0087948D01*
X0246771Y0087789D01*
X0246745Y0087630D01*
X0246715Y0087472D01*
X0246682Y0087315D01*
X0246644Y0087158D01*
X0246603Y0087003D01*
X0246558Y0086849D01*
X0246509Y0086696D01*
X0246456Y0086544D01*
X0246400Y0086393D01*
X0246339Y0086244D01*
X0246276Y0086096D01*
X0246208Y0085950D01*
X0246137Y0085806D01*
X0246063Y0085664D01*
X0245985Y0085523D01*
X0245903Y0085385D01*
X0245818Y0085248D01*
X0245730Y0085114D01*
X0245638Y0084982D01*
X0245543Y0084852D01*
X0245445Y0084724D01*
X0245344Y0084599D01*
X0245240Y0084477D01*
X0245133Y0084357D01*
X0245023Y0084240D01*
X0244910Y0084125D01*
X0244794Y0084014D01*
X0244675Y0083905D01*
X0244554Y0083800D01*
X0244430Y0083697D01*
X0244304Y0083597D01*
X0244176Y0083501D01*
X0244045Y0083408D01*
X0243911Y0083318D01*
X0243776Y0083231D01*
X0243638Y0083148D01*
X0243499Y0083068D01*
X0243357Y0082992D01*
X0243214Y0082919D01*
X0243069Y0082850D01*
X0242922Y0082784D01*
X0242774Y0082722D01*
X0242624Y0082664D01*
X0242473Y0082609D01*
X0242320Y0082558D01*
X0242166Y0082511D01*
X0242011Y0082468D01*
X0241855Y0082429D01*
X0241699Y0082393D01*
X0241541Y0082362D01*
X0241383Y0082334D01*
X0241224Y0082310D01*
X0241064Y0082290D01*
X0240904Y0082274D01*
X0240744Y0082262D01*
X0240583Y0082254D01*
X0240422Y0082250D01*
X0240262Y0082250D01*
X0240101Y0082254D01*
X0239940Y0082262D01*
X0239780Y0082274D01*
X0239620Y0082290D01*
X0239460Y0082310D01*
X0239301Y0082334D01*
X0239143Y0082362D01*
X0238985Y0082393D01*
X0238829Y0082429D01*
X0238673Y0082468D01*
X0238518Y0082511D01*
X0238364Y0082558D01*
X0238211Y0082609D01*
X0238060Y0082664D01*
X0237910Y0082722D01*
X0237762Y0082784D01*
X0237615Y0082850D01*
X0237470Y0082919D01*
X0237327Y0082992D01*
X0237185Y0083068D01*
X0237046Y0083148D01*
X0236908Y0083231D01*
X0236773Y0083318D01*
X0236639Y0083408D01*
X0236508Y0083501D01*
X0236380Y0083597D01*
X0236254Y0083697D01*
X0236130Y0083800D01*
X0236009Y0083905D01*
X0235890Y0084014D01*
X0235774Y0084125D01*
X0235661Y0084240D01*
X0235551Y0084357D01*
X0235444Y0084477D01*
X0235340Y0084599D01*
X0235239Y0084724D01*
X0235141Y0084852D01*
X0235046Y0084982D01*
X0234954Y0085114D01*
X0234866Y0085248D01*
X0234781Y0085385D01*
X0234699Y0085523D01*
X0234621Y0085664D01*
X0234547Y0085806D01*
X0234476Y0085950D01*
X0234408Y0086096D01*
X0234345Y0086244D01*
X0234284Y0086393D01*
X0234228Y0086544D01*
X0234175Y0086696D01*
X0234126Y0086849D01*
X0234081Y0087003D01*
X0234040Y0087158D01*
X0234002Y0087315D01*
X0233969Y0087472D01*
X0233939Y0087630D01*
X0233913Y0087789D01*
X0233892Y0087948D01*
X0233874Y0088108D01*
X0233860Y0088268D01*
X0233850Y0088429D01*
X0233844Y0088589D01*
X0233842Y0088750D01*
X0255842Y0088750D02*
X0255844Y0088911D01*
X0255850Y0089071D01*
X0255860Y0089232D01*
X0255874Y0089392D01*
X0255892Y0089552D01*
X0255913Y0089711D01*
X0255939Y0089870D01*
X0255969Y0090028D01*
X0256002Y0090185D01*
X0256040Y0090342D01*
X0256081Y0090497D01*
X0256126Y0090651D01*
X0256175Y0090804D01*
X0256228Y0090956D01*
X0256284Y0091107D01*
X0256345Y0091256D01*
X0256408Y0091404D01*
X0256476Y0091550D01*
X0256547Y0091694D01*
X0256621Y0091836D01*
X0256699Y0091977D01*
X0256781Y0092115D01*
X0256866Y0092252D01*
X0256954Y0092386D01*
X0257046Y0092518D01*
X0257141Y0092648D01*
X0257239Y0092776D01*
X0257340Y0092901D01*
X0257444Y0093023D01*
X0257551Y0093143D01*
X0257661Y0093260D01*
X0257774Y0093375D01*
X0257890Y0093486D01*
X0258009Y0093595D01*
X0258130Y0093700D01*
X0258254Y0093803D01*
X0258380Y0093903D01*
X0258508Y0093999D01*
X0258639Y0094092D01*
X0258773Y0094182D01*
X0258908Y0094269D01*
X0259046Y0094352D01*
X0259185Y0094432D01*
X0259327Y0094508D01*
X0259470Y0094581D01*
X0259615Y0094650D01*
X0259762Y0094716D01*
X0259910Y0094778D01*
X0260060Y0094836D01*
X0260211Y0094891D01*
X0260364Y0094942D01*
X0260518Y0094989D01*
X0260673Y0095032D01*
X0260829Y0095071D01*
X0260985Y0095107D01*
X0261143Y0095138D01*
X0261301Y0095166D01*
X0261460Y0095190D01*
X0261620Y0095210D01*
X0261780Y0095226D01*
X0261940Y0095238D01*
X0262101Y0095246D01*
X0262262Y0095250D01*
X0262422Y0095250D01*
X0262583Y0095246D01*
X0262744Y0095238D01*
X0262904Y0095226D01*
X0263064Y0095210D01*
X0263224Y0095190D01*
X0263383Y0095166D01*
X0263541Y0095138D01*
X0263699Y0095107D01*
X0263855Y0095071D01*
X0264011Y0095032D01*
X0264166Y0094989D01*
X0264320Y0094942D01*
X0264473Y0094891D01*
X0264624Y0094836D01*
X0264774Y0094778D01*
X0264922Y0094716D01*
X0265069Y0094650D01*
X0265214Y0094581D01*
X0265357Y0094508D01*
X0265499Y0094432D01*
X0265638Y0094352D01*
X0265776Y0094269D01*
X0265911Y0094182D01*
X0266045Y0094092D01*
X0266176Y0093999D01*
X0266304Y0093903D01*
X0266430Y0093803D01*
X0266554Y0093700D01*
X0266675Y0093595D01*
X0266794Y0093486D01*
X0266910Y0093375D01*
X0267023Y0093260D01*
X0267133Y0093143D01*
X0267240Y0093023D01*
X0267344Y0092901D01*
X0267445Y0092776D01*
X0267543Y0092648D01*
X0267638Y0092518D01*
X0267730Y0092386D01*
X0267818Y0092252D01*
X0267903Y0092115D01*
X0267985Y0091977D01*
X0268063Y0091836D01*
X0268137Y0091694D01*
X0268208Y0091550D01*
X0268276Y0091404D01*
X0268339Y0091256D01*
X0268400Y0091107D01*
X0268456Y0090956D01*
X0268509Y0090804D01*
X0268558Y0090651D01*
X0268603Y0090497D01*
X0268644Y0090342D01*
X0268682Y0090185D01*
X0268715Y0090028D01*
X0268745Y0089870D01*
X0268771Y0089711D01*
X0268792Y0089552D01*
X0268810Y0089392D01*
X0268824Y0089232D01*
X0268834Y0089071D01*
X0268840Y0088911D01*
X0268842Y0088750D01*
X0268840Y0088589D01*
X0268834Y0088429D01*
X0268824Y0088268D01*
X0268810Y0088108D01*
X0268792Y0087948D01*
X0268771Y0087789D01*
X0268745Y0087630D01*
X0268715Y0087472D01*
X0268682Y0087315D01*
X0268644Y0087158D01*
X0268603Y0087003D01*
X0268558Y0086849D01*
X0268509Y0086696D01*
X0268456Y0086544D01*
X0268400Y0086393D01*
X0268339Y0086244D01*
X0268276Y0086096D01*
X0268208Y0085950D01*
X0268137Y0085806D01*
X0268063Y0085664D01*
X0267985Y0085523D01*
X0267903Y0085385D01*
X0267818Y0085248D01*
X0267730Y0085114D01*
X0267638Y0084982D01*
X0267543Y0084852D01*
X0267445Y0084724D01*
X0267344Y0084599D01*
X0267240Y0084477D01*
X0267133Y0084357D01*
X0267023Y0084240D01*
X0266910Y0084125D01*
X0266794Y0084014D01*
X0266675Y0083905D01*
X0266554Y0083800D01*
X0266430Y0083697D01*
X0266304Y0083597D01*
X0266176Y0083501D01*
X0266045Y0083408D01*
X0265911Y0083318D01*
X0265776Y0083231D01*
X0265638Y0083148D01*
X0265499Y0083068D01*
X0265357Y0082992D01*
X0265214Y0082919D01*
X0265069Y0082850D01*
X0264922Y0082784D01*
X0264774Y0082722D01*
X0264624Y0082664D01*
X0264473Y0082609D01*
X0264320Y0082558D01*
X0264166Y0082511D01*
X0264011Y0082468D01*
X0263855Y0082429D01*
X0263699Y0082393D01*
X0263541Y0082362D01*
X0263383Y0082334D01*
X0263224Y0082310D01*
X0263064Y0082290D01*
X0262904Y0082274D01*
X0262744Y0082262D01*
X0262583Y0082254D01*
X0262422Y0082250D01*
X0262262Y0082250D01*
X0262101Y0082254D01*
X0261940Y0082262D01*
X0261780Y0082274D01*
X0261620Y0082290D01*
X0261460Y0082310D01*
X0261301Y0082334D01*
X0261143Y0082362D01*
X0260985Y0082393D01*
X0260829Y0082429D01*
X0260673Y0082468D01*
X0260518Y0082511D01*
X0260364Y0082558D01*
X0260211Y0082609D01*
X0260060Y0082664D01*
X0259910Y0082722D01*
X0259762Y0082784D01*
X0259615Y0082850D01*
X0259470Y0082919D01*
X0259327Y0082992D01*
X0259185Y0083068D01*
X0259046Y0083148D01*
X0258908Y0083231D01*
X0258773Y0083318D01*
X0258639Y0083408D01*
X0258508Y0083501D01*
X0258380Y0083597D01*
X0258254Y0083697D01*
X0258130Y0083800D01*
X0258009Y0083905D01*
X0257890Y0084014D01*
X0257774Y0084125D01*
X0257661Y0084240D01*
X0257551Y0084357D01*
X0257444Y0084477D01*
X0257340Y0084599D01*
X0257239Y0084724D01*
X0257141Y0084852D01*
X0257046Y0084982D01*
X0256954Y0085114D01*
X0256866Y0085248D01*
X0256781Y0085385D01*
X0256699Y0085523D01*
X0256621Y0085664D01*
X0256547Y0085806D01*
X0256476Y0085950D01*
X0256408Y0086096D01*
X0256345Y0086244D01*
X0256284Y0086393D01*
X0256228Y0086544D01*
X0256175Y0086696D01*
X0256126Y0086849D01*
X0256081Y0087003D01*
X0256040Y0087158D01*
X0256002Y0087315D01*
X0255969Y0087472D01*
X0255939Y0087630D01*
X0255913Y0087789D01*
X0255892Y0087948D01*
X0255874Y0088108D01*
X0255860Y0088268D01*
X0255850Y0088429D01*
X0255844Y0088589D01*
X0255842Y0088750D01*
X0335842Y0088750D02*
X0335844Y0088911D01*
X0335850Y0089071D01*
X0335860Y0089232D01*
X0335874Y0089392D01*
X0335892Y0089552D01*
X0335913Y0089711D01*
X0335939Y0089870D01*
X0335969Y0090028D01*
X0336002Y0090185D01*
X0336040Y0090342D01*
X0336081Y0090497D01*
X0336126Y0090651D01*
X0336175Y0090804D01*
X0336228Y0090956D01*
X0336284Y0091107D01*
X0336345Y0091256D01*
X0336408Y0091404D01*
X0336476Y0091550D01*
X0336547Y0091694D01*
X0336621Y0091836D01*
X0336699Y0091977D01*
X0336781Y0092115D01*
X0336866Y0092252D01*
X0336954Y0092386D01*
X0337046Y0092518D01*
X0337141Y0092648D01*
X0337239Y0092776D01*
X0337340Y0092901D01*
X0337444Y0093023D01*
X0337551Y0093143D01*
X0337661Y0093260D01*
X0337774Y0093375D01*
X0337890Y0093486D01*
X0338009Y0093595D01*
X0338130Y0093700D01*
X0338254Y0093803D01*
X0338380Y0093903D01*
X0338508Y0093999D01*
X0338639Y0094092D01*
X0338773Y0094182D01*
X0338908Y0094269D01*
X0339046Y0094352D01*
X0339185Y0094432D01*
X0339327Y0094508D01*
X0339470Y0094581D01*
X0339615Y0094650D01*
X0339762Y0094716D01*
X0339910Y0094778D01*
X0340060Y0094836D01*
X0340211Y0094891D01*
X0340364Y0094942D01*
X0340518Y0094989D01*
X0340673Y0095032D01*
X0340829Y0095071D01*
X0340985Y0095107D01*
X0341143Y0095138D01*
X0341301Y0095166D01*
X0341460Y0095190D01*
X0341620Y0095210D01*
X0341780Y0095226D01*
X0341940Y0095238D01*
X0342101Y0095246D01*
X0342262Y0095250D01*
X0342422Y0095250D01*
X0342583Y0095246D01*
X0342744Y0095238D01*
X0342904Y0095226D01*
X0343064Y0095210D01*
X0343224Y0095190D01*
X0343383Y0095166D01*
X0343541Y0095138D01*
X0343699Y0095107D01*
X0343855Y0095071D01*
X0344011Y0095032D01*
X0344166Y0094989D01*
X0344320Y0094942D01*
X0344473Y0094891D01*
X0344624Y0094836D01*
X0344774Y0094778D01*
X0344922Y0094716D01*
X0345069Y0094650D01*
X0345214Y0094581D01*
X0345357Y0094508D01*
X0345499Y0094432D01*
X0345638Y0094352D01*
X0345776Y0094269D01*
X0345911Y0094182D01*
X0346045Y0094092D01*
X0346176Y0093999D01*
X0346304Y0093903D01*
X0346430Y0093803D01*
X0346554Y0093700D01*
X0346675Y0093595D01*
X0346794Y0093486D01*
X0346910Y0093375D01*
X0347023Y0093260D01*
X0347133Y0093143D01*
X0347240Y0093023D01*
X0347344Y0092901D01*
X0347445Y0092776D01*
X0347543Y0092648D01*
X0347638Y0092518D01*
X0347730Y0092386D01*
X0347818Y0092252D01*
X0347903Y0092115D01*
X0347985Y0091977D01*
X0348063Y0091836D01*
X0348137Y0091694D01*
X0348208Y0091550D01*
X0348276Y0091404D01*
X0348339Y0091256D01*
X0348400Y0091107D01*
X0348456Y0090956D01*
X0348509Y0090804D01*
X0348558Y0090651D01*
X0348603Y0090497D01*
X0348644Y0090342D01*
X0348682Y0090185D01*
X0348715Y0090028D01*
X0348745Y0089870D01*
X0348771Y0089711D01*
X0348792Y0089552D01*
X0348810Y0089392D01*
X0348824Y0089232D01*
X0348834Y0089071D01*
X0348840Y0088911D01*
X0348842Y0088750D01*
X0348840Y0088589D01*
X0348834Y0088429D01*
X0348824Y0088268D01*
X0348810Y0088108D01*
X0348792Y0087948D01*
X0348771Y0087789D01*
X0348745Y0087630D01*
X0348715Y0087472D01*
X0348682Y0087315D01*
X0348644Y0087158D01*
X0348603Y0087003D01*
X0348558Y0086849D01*
X0348509Y0086696D01*
X0348456Y0086544D01*
X0348400Y0086393D01*
X0348339Y0086244D01*
X0348276Y0086096D01*
X0348208Y0085950D01*
X0348137Y0085806D01*
X0348063Y0085664D01*
X0347985Y0085523D01*
X0347903Y0085385D01*
X0347818Y0085248D01*
X0347730Y0085114D01*
X0347638Y0084982D01*
X0347543Y0084852D01*
X0347445Y0084724D01*
X0347344Y0084599D01*
X0347240Y0084477D01*
X0347133Y0084357D01*
X0347023Y0084240D01*
X0346910Y0084125D01*
X0346794Y0084014D01*
X0346675Y0083905D01*
X0346554Y0083800D01*
X0346430Y0083697D01*
X0346304Y0083597D01*
X0346176Y0083501D01*
X0346045Y0083408D01*
X0345911Y0083318D01*
X0345776Y0083231D01*
X0345638Y0083148D01*
X0345499Y0083068D01*
X0345357Y0082992D01*
X0345214Y0082919D01*
X0345069Y0082850D01*
X0344922Y0082784D01*
X0344774Y0082722D01*
X0344624Y0082664D01*
X0344473Y0082609D01*
X0344320Y0082558D01*
X0344166Y0082511D01*
X0344011Y0082468D01*
X0343855Y0082429D01*
X0343699Y0082393D01*
X0343541Y0082362D01*
X0343383Y0082334D01*
X0343224Y0082310D01*
X0343064Y0082290D01*
X0342904Y0082274D01*
X0342744Y0082262D01*
X0342583Y0082254D01*
X0342422Y0082250D01*
X0342262Y0082250D01*
X0342101Y0082254D01*
X0341940Y0082262D01*
X0341780Y0082274D01*
X0341620Y0082290D01*
X0341460Y0082310D01*
X0341301Y0082334D01*
X0341143Y0082362D01*
X0340985Y0082393D01*
X0340829Y0082429D01*
X0340673Y0082468D01*
X0340518Y0082511D01*
X0340364Y0082558D01*
X0340211Y0082609D01*
X0340060Y0082664D01*
X0339910Y0082722D01*
X0339762Y0082784D01*
X0339615Y0082850D01*
X0339470Y0082919D01*
X0339327Y0082992D01*
X0339185Y0083068D01*
X0339046Y0083148D01*
X0338908Y0083231D01*
X0338773Y0083318D01*
X0338639Y0083408D01*
X0338508Y0083501D01*
X0338380Y0083597D01*
X0338254Y0083697D01*
X0338130Y0083800D01*
X0338009Y0083905D01*
X0337890Y0084014D01*
X0337774Y0084125D01*
X0337661Y0084240D01*
X0337551Y0084357D01*
X0337444Y0084477D01*
X0337340Y0084599D01*
X0337239Y0084724D01*
X0337141Y0084852D01*
X0337046Y0084982D01*
X0336954Y0085114D01*
X0336866Y0085248D01*
X0336781Y0085385D01*
X0336699Y0085523D01*
X0336621Y0085664D01*
X0336547Y0085806D01*
X0336476Y0085950D01*
X0336408Y0086096D01*
X0336345Y0086244D01*
X0336284Y0086393D01*
X0336228Y0086544D01*
X0336175Y0086696D01*
X0336126Y0086849D01*
X0336081Y0087003D01*
X0336040Y0087158D01*
X0336002Y0087315D01*
X0335969Y0087472D01*
X0335939Y0087630D01*
X0335913Y0087789D01*
X0335892Y0087948D01*
X0335874Y0088108D01*
X0335860Y0088268D01*
X0335850Y0088429D01*
X0335844Y0088589D01*
X0335842Y0088750D01*
X0335842Y0168750D02*
X0335844Y0168911D01*
X0335850Y0169071D01*
X0335860Y0169232D01*
X0335874Y0169392D01*
X0335892Y0169552D01*
X0335913Y0169711D01*
X0335939Y0169870D01*
X0335969Y0170028D01*
X0336002Y0170185D01*
X0336040Y0170342D01*
X0336081Y0170497D01*
X0336126Y0170651D01*
X0336175Y0170804D01*
X0336228Y0170956D01*
X0336284Y0171107D01*
X0336345Y0171256D01*
X0336408Y0171404D01*
X0336476Y0171550D01*
X0336547Y0171694D01*
X0336621Y0171836D01*
X0336699Y0171977D01*
X0336781Y0172115D01*
X0336866Y0172252D01*
X0336954Y0172386D01*
X0337046Y0172518D01*
X0337141Y0172648D01*
X0337239Y0172776D01*
X0337340Y0172901D01*
X0337444Y0173023D01*
X0337551Y0173143D01*
X0337661Y0173260D01*
X0337774Y0173375D01*
X0337890Y0173486D01*
X0338009Y0173595D01*
X0338130Y0173700D01*
X0338254Y0173803D01*
X0338380Y0173903D01*
X0338508Y0173999D01*
X0338639Y0174092D01*
X0338773Y0174182D01*
X0338908Y0174269D01*
X0339046Y0174352D01*
X0339185Y0174432D01*
X0339327Y0174508D01*
X0339470Y0174581D01*
X0339615Y0174650D01*
X0339762Y0174716D01*
X0339910Y0174778D01*
X0340060Y0174836D01*
X0340211Y0174891D01*
X0340364Y0174942D01*
X0340518Y0174989D01*
X0340673Y0175032D01*
X0340829Y0175071D01*
X0340985Y0175107D01*
X0341143Y0175138D01*
X0341301Y0175166D01*
X0341460Y0175190D01*
X0341620Y0175210D01*
X0341780Y0175226D01*
X0341940Y0175238D01*
X0342101Y0175246D01*
X0342262Y0175250D01*
X0342422Y0175250D01*
X0342583Y0175246D01*
X0342744Y0175238D01*
X0342904Y0175226D01*
X0343064Y0175210D01*
X0343224Y0175190D01*
X0343383Y0175166D01*
X0343541Y0175138D01*
X0343699Y0175107D01*
X0343855Y0175071D01*
X0344011Y0175032D01*
X0344166Y0174989D01*
X0344320Y0174942D01*
X0344473Y0174891D01*
X0344624Y0174836D01*
X0344774Y0174778D01*
X0344922Y0174716D01*
X0345069Y0174650D01*
X0345214Y0174581D01*
X0345357Y0174508D01*
X0345499Y0174432D01*
X0345638Y0174352D01*
X0345776Y0174269D01*
X0345911Y0174182D01*
X0346045Y0174092D01*
X0346176Y0173999D01*
X0346304Y0173903D01*
X0346430Y0173803D01*
X0346554Y0173700D01*
X0346675Y0173595D01*
X0346794Y0173486D01*
X0346910Y0173375D01*
X0347023Y0173260D01*
X0347133Y0173143D01*
X0347240Y0173023D01*
X0347344Y0172901D01*
X0347445Y0172776D01*
X0347543Y0172648D01*
X0347638Y0172518D01*
X0347730Y0172386D01*
X0347818Y0172252D01*
X0347903Y0172115D01*
X0347985Y0171977D01*
X0348063Y0171836D01*
X0348137Y0171694D01*
X0348208Y0171550D01*
X0348276Y0171404D01*
X0348339Y0171256D01*
X0348400Y0171107D01*
X0348456Y0170956D01*
X0348509Y0170804D01*
X0348558Y0170651D01*
X0348603Y0170497D01*
X0348644Y0170342D01*
X0348682Y0170185D01*
X0348715Y0170028D01*
X0348745Y0169870D01*
X0348771Y0169711D01*
X0348792Y0169552D01*
X0348810Y0169392D01*
X0348824Y0169232D01*
X0348834Y0169071D01*
X0348840Y0168911D01*
X0348842Y0168750D01*
X0348840Y0168589D01*
X0348834Y0168429D01*
X0348824Y0168268D01*
X0348810Y0168108D01*
X0348792Y0167948D01*
X0348771Y0167789D01*
X0348745Y0167630D01*
X0348715Y0167472D01*
X0348682Y0167315D01*
X0348644Y0167158D01*
X0348603Y0167003D01*
X0348558Y0166849D01*
X0348509Y0166696D01*
X0348456Y0166544D01*
X0348400Y0166393D01*
X0348339Y0166244D01*
X0348276Y0166096D01*
X0348208Y0165950D01*
X0348137Y0165806D01*
X0348063Y0165664D01*
X0347985Y0165523D01*
X0347903Y0165385D01*
X0347818Y0165248D01*
X0347730Y0165114D01*
X0347638Y0164982D01*
X0347543Y0164852D01*
X0347445Y0164724D01*
X0347344Y0164599D01*
X0347240Y0164477D01*
X0347133Y0164357D01*
X0347023Y0164240D01*
X0346910Y0164125D01*
X0346794Y0164014D01*
X0346675Y0163905D01*
X0346554Y0163800D01*
X0346430Y0163697D01*
X0346304Y0163597D01*
X0346176Y0163501D01*
X0346045Y0163408D01*
X0345911Y0163318D01*
X0345776Y0163231D01*
X0345638Y0163148D01*
X0345499Y0163068D01*
X0345357Y0162992D01*
X0345214Y0162919D01*
X0345069Y0162850D01*
X0344922Y0162784D01*
X0344774Y0162722D01*
X0344624Y0162664D01*
X0344473Y0162609D01*
X0344320Y0162558D01*
X0344166Y0162511D01*
X0344011Y0162468D01*
X0343855Y0162429D01*
X0343699Y0162393D01*
X0343541Y0162362D01*
X0343383Y0162334D01*
X0343224Y0162310D01*
X0343064Y0162290D01*
X0342904Y0162274D01*
X0342744Y0162262D01*
X0342583Y0162254D01*
X0342422Y0162250D01*
X0342262Y0162250D01*
X0342101Y0162254D01*
X0341940Y0162262D01*
X0341780Y0162274D01*
X0341620Y0162290D01*
X0341460Y0162310D01*
X0341301Y0162334D01*
X0341143Y0162362D01*
X0340985Y0162393D01*
X0340829Y0162429D01*
X0340673Y0162468D01*
X0340518Y0162511D01*
X0340364Y0162558D01*
X0340211Y0162609D01*
X0340060Y0162664D01*
X0339910Y0162722D01*
X0339762Y0162784D01*
X0339615Y0162850D01*
X0339470Y0162919D01*
X0339327Y0162992D01*
X0339185Y0163068D01*
X0339046Y0163148D01*
X0338908Y0163231D01*
X0338773Y0163318D01*
X0338639Y0163408D01*
X0338508Y0163501D01*
X0338380Y0163597D01*
X0338254Y0163697D01*
X0338130Y0163800D01*
X0338009Y0163905D01*
X0337890Y0164014D01*
X0337774Y0164125D01*
X0337661Y0164240D01*
X0337551Y0164357D01*
X0337444Y0164477D01*
X0337340Y0164599D01*
X0337239Y0164724D01*
X0337141Y0164852D01*
X0337046Y0164982D01*
X0336954Y0165114D01*
X0336866Y0165248D01*
X0336781Y0165385D01*
X0336699Y0165523D01*
X0336621Y0165664D01*
X0336547Y0165806D01*
X0336476Y0165950D01*
X0336408Y0166096D01*
X0336345Y0166244D01*
X0336284Y0166393D01*
X0336228Y0166544D01*
X0336175Y0166696D01*
X0336126Y0166849D01*
X0336081Y0167003D01*
X0336040Y0167158D01*
X0336002Y0167315D01*
X0335969Y0167472D01*
X0335939Y0167630D01*
X0335913Y0167789D01*
X0335892Y0167948D01*
X0335874Y0168108D01*
X0335860Y0168268D01*
X0335850Y0168429D01*
X0335844Y0168589D01*
X0335842Y0168750D01*
X0335842Y0240750D02*
X0335844Y0240911D01*
X0335850Y0241071D01*
X0335860Y0241232D01*
X0335874Y0241392D01*
X0335892Y0241552D01*
X0335913Y0241711D01*
X0335939Y0241870D01*
X0335969Y0242028D01*
X0336002Y0242185D01*
X0336040Y0242342D01*
X0336081Y0242497D01*
X0336126Y0242651D01*
X0336175Y0242804D01*
X0336228Y0242956D01*
X0336284Y0243107D01*
X0336345Y0243256D01*
X0336408Y0243404D01*
X0336476Y0243550D01*
X0336547Y0243694D01*
X0336621Y0243836D01*
X0336699Y0243977D01*
X0336781Y0244115D01*
X0336866Y0244252D01*
X0336954Y0244386D01*
X0337046Y0244518D01*
X0337141Y0244648D01*
X0337239Y0244776D01*
X0337340Y0244901D01*
X0337444Y0245023D01*
X0337551Y0245143D01*
X0337661Y0245260D01*
X0337774Y0245375D01*
X0337890Y0245486D01*
X0338009Y0245595D01*
X0338130Y0245700D01*
X0338254Y0245803D01*
X0338380Y0245903D01*
X0338508Y0245999D01*
X0338639Y0246092D01*
X0338773Y0246182D01*
X0338908Y0246269D01*
X0339046Y0246352D01*
X0339185Y0246432D01*
X0339327Y0246508D01*
X0339470Y0246581D01*
X0339615Y0246650D01*
X0339762Y0246716D01*
X0339910Y0246778D01*
X0340060Y0246836D01*
X0340211Y0246891D01*
X0340364Y0246942D01*
X0340518Y0246989D01*
X0340673Y0247032D01*
X0340829Y0247071D01*
X0340985Y0247107D01*
X0341143Y0247138D01*
X0341301Y0247166D01*
X0341460Y0247190D01*
X0341620Y0247210D01*
X0341780Y0247226D01*
X0341940Y0247238D01*
X0342101Y0247246D01*
X0342262Y0247250D01*
X0342422Y0247250D01*
X0342583Y0247246D01*
X0342744Y0247238D01*
X0342904Y0247226D01*
X0343064Y0247210D01*
X0343224Y0247190D01*
X0343383Y0247166D01*
X0343541Y0247138D01*
X0343699Y0247107D01*
X0343855Y0247071D01*
X0344011Y0247032D01*
X0344166Y0246989D01*
X0344320Y0246942D01*
X0344473Y0246891D01*
X0344624Y0246836D01*
X0344774Y0246778D01*
X0344922Y0246716D01*
X0345069Y0246650D01*
X0345214Y0246581D01*
X0345357Y0246508D01*
X0345499Y0246432D01*
X0345638Y0246352D01*
X0345776Y0246269D01*
X0345911Y0246182D01*
X0346045Y0246092D01*
X0346176Y0245999D01*
X0346304Y0245903D01*
X0346430Y0245803D01*
X0346554Y0245700D01*
X0346675Y0245595D01*
X0346794Y0245486D01*
X0346910Y0245375D01*
X0347023Y0245260D01*
X0347133Y0245143D01*
X0347240Y0245023D01*
X0347344Y0244901D01*
X0347445Y0244776D01*
X0347543Y0244648D01*
X0347638Y0244518D01*
X0347730Y0244386D01*
X0347818Y0244252D01*
X0347903Y0244115D01*
X0347985Y0243977D01*
X0348063Y0243836D01*
X0348137Y0243694D01*
X0348208Y0243550D01*
X0348276Y0243404D01*
X0348339Y0243256D01*
X0348400Y0243107D01*
X0348456Y0242956D01*
X0348509Y0242804D01*
X0348558Y0242651D01*
X0348603Y0242497D01*
X0348644Y0242342D01*
X0348682Y0242185D01*
X0348715Y0242028D01*
X0348745Y0241870D01*
X0348771Y0241711D01*
X0348792Y0241552D01*
X0348810Y0241392D01*
X0348824Y0241232D01*
X0348834Y0241071D01*
X0348840Y0240911D01*
X0348842Y0240750D01*
X0348840Y0240589D01*
X0348834Y0240429D01*
X0348824Y0240268D01*
X0348810Y0240108D01*
X0348792Y0239948D01*
X0348771Y0239789D01*
X0348745Y0239630D01*
X0348715Y0239472D01*
X0348682Y0239315D01*
X0348644Y0239158D01*
X0348603Y0239003D01*
X0348558Y0238849D01*
X0348509Y0238696D01*
X0348456Y0238544D01*
X0348400Y0238393D01*
X0348339Y0238244D01*
X0348276Y0238096D01*
X0348208Y0237950D01*
X0348137Y0237806D01*
X0348063Y0237664D01*
X0347985Y0237523D01*
X0347903Y0237385D01*
X0347818Y0237248D01*
X0347730Y0237114D01*
X0347638Y0236982D01*
X0347543Y0236852D01*
X0347445Y0236724D01*
X0347344Y0236599D01*
X0347240Y0236477D01*
X0347133Y0236357D01*
X0347023Y0236240D01*
X0346910Y0236125D01*
X0346794Y0236014D01*
X0346675Y0235905D01*
X0346554Y0235800D01*
X0346430Y0235697D01*
X0346304Y0235597D01*
X0346176Y0235501D01*
X0346045Y0235408D01*
X0345911Y0235318D01*
X0345776Y0235231D01*
X0345638Y0235148D01*
X0345499Y0235068D01*
X0345357Y0234992D01*
X0345214Y0234919D01*
X0345069Y0234850D01*
X0344922Y0234784D01*
X0344774Y0234722D01*
X0344624Y0234664D01*
X0344473Y0234609D01*
X0344320Y0234558D01*
X0344166Y0234511D01*
X0344011Y0234468D01*
X0343855Y0234429D01*
X0343699Y0234393D01*
X0343541Y0234362D01*
X0343383Y0234334D01*
X0343224Y0234310D01*
X0343064Y0234290D01*
X0342904Y0234274D01*
X0342744Y0234262D01*
X0342583Y0234254D01*
X0342422Y0234250D01*
X0342262Y0234250D01*
X0342101Y0234254D01*
X0341940Y0234262D01*
X0341780Y0234274D01*
X0341620Y0234290D01*
X0341460Y0234310D01*
X0341301Y0234334D01*
X0341143Y0234362D01*
X0340985Y0234393D01*
X0340829Y0234429D01*
X0340673Y0234468D01*
X0340518Y0234511D01*
X0340364Y0234558D01*
X0340211Y0234609D01*
X0340060Y0234664D01*
X0339910Y0234722D01*
X0339762Y0234784D01*
X0339615Y0234850D01*
X0339470Y0234919D01*
X0339327Y0234992D01*
X0339185Y0235068D01*
X0339046Y0235148D01*
X0338908Y0235231D01*
X0338773Y0235318D01*
X0338639Y0235408D01*
X0338508Y0235501D01*
X0338380Y0235597D01*
X0338254Y0235697D01*
X0338130Y0235800D01*
X0338009Y0235905D01*
X0337890Y0236014D01*
X0337774Y0236125D01*
X0337661Y0236240D01*
X0337551Y0236357D01*
X0337444Y0236477D01*
X0337340Y0236599D01*
X0337239Y0236724D01*
X0337141Y0236852D01*
X0337046Y0236982D01*
X0336954Y0237114D01*
X0336866Y0237248D01*
X0336781Y0237385D01*
X0336699Y0237523D01*
X0336621Y0237664D01*
X0336547Y0237806D01*
X0336476Y0237950D01*
X0336408Y0238096D01*
X0336345Y0238244D01*
X0336284Y0238393D01*
X0336228Y0238544D01*
X0336175Y0238696D01*
X0336126Y0238849D01*
X0336081Y0239003D01*
X0336040Y0239158D01*
X0336002Y0239315D01*
X0335969Y0239472D01*
X0335939Y0239630D01*
X0335913Y0239789D01*
X0335892Y0239948D01*
X0335874Y0240108D01*
X0335860Y0240268D01*
X0335850Y0240429D01*
X0335844Y0240589D01*
X0335842Y0240750D01*
X0153842Y0088750D02*
X0153844Y0088911D01*
X0153850Y0089071D01*
X0153860Y0089232D01*
X0153874Y0089392D01*
X0153892Y0089552D01*
X0153913Y0089711D01*
X0153939Y0089870D01*
X0153969Y0090028D01*
X0154002Y0090185D01*
X0154040Y0090342D01*
X0154081Y0090497D01*
X0154126Y0090651D01*
X0154175Y0090804D01*
X0154228Y0090956D01*
X0154284Y0091107D01*
X0154345Y0091256D01*
X0154408Y0091404D01*
X0154476Y0091550D01*
X0154547Y0091694D01*
X0154621Y0091836D01*
X0154699Y0091977D01*
X0154781Y0092115D01*
X0154866Y0092252D01*
X0154954Y0092386D01*
X0155046Y0092518D01*
X0155141Y0092648D01*
X0155239Y0092776D01*
X0155340Y0092901D01*
X0155444Y0093023D01*
X0155551Y0093143D01*
X0155661Y0093260D01*
X0155774Y0093375D01*
X0155890Y0093486D01*
X0156009Y0093595D01*
X0156130Y0093700D01*
X0156254Y0093803D01*
X0156380Y0093903D01*
X0156508Y0093999D01*
X0156639Y0094092D01*
X0156773Y0094182D01*
X0156908Y0094269D01*
X0157046Y0094352D01*
X0157185Y0094432D01*
X0157327Y0094508D01*
X0157470Y0094581D01*
X0157615Y0094650D01*
X0157762Y0094716D01*
X0157910Y0094778D01*
X0158060Y0094836D01*
X0158211Y0094891D01*
X0158364Y0094942D01*
X0158518Y0094989D01*
X0158673Y0095032D01*
X0158829Y0095071D01*
X0158985Y0095107D01*
X0159143Y0095138D01*
X0159301Y0095166D01*
X0159460Y0095190D01*
X0159620Y0095210D01*
X0159780Y0095226D01*
X0159940Y0095238D01*
X0160101Y0095246D01*
X0160262Y0095250D01*
X0160422Y0095250D01*
X0160583Y0095246D01*
X0160744Y0095238D01*
X0160904Y0095226D01*
X0161064Y0095210D01*
X0161224Y0095190D01*
X0161383Y0095166D01*
X0161541Y0095138D01*
X0161699Y0095107D01*
X0161855Y0095071D01*
X0162011Y0095032D01*
X0162166Y0094989D01*
X0162320Y0094942D01*
X0162473Y0094891D01*
X0162624Y0094836D01*
X0162774Y0094778D01*
X0162922Y0094716D01*
X0163069Y0094650D01*
X0163214Y0094581D01*
X0163357Y0094508D01*
X0163499Y0094432D01*
X0163638Y0094352D01*
X0163776Y0094269D01*
X0163911Y0094182D01*
X0164045Y0094092D01*
X0164176Y0093999D01*
X0164304Y0093903D01*
X0164430Y0093803D01*
X0164554Y0093700D01*
X0164675Y0093595D01*
X0164794Y0093486D01*
X0164910Y0093375D01*
X0165023Y0093260D01*
X0165133Y0093143D01*
X0165240Y0093023D01*
X0165344Y0092901D01*
X0165445Y0092776D01*
X0165543Y0092648D01*
X0165638Y0092518D01*
X0165730Y0092386D01*
X0165818Y0092252D01*
X0165903Y0092115D01*
X0165985Y0091977D01*
X0166063Y0091836D01*
X0166137Y0091694D01*
X0166208Y0091550D01*
X0166276Y0091404D01*
X0166339Y0091256D01*
X0166400Y0091107D01*
X0166456Y0090956D01*
X0166509Y0090804D01*
X0166558Y0090651D01*
X0166603Y0090497D01*
X0166644Y0090342D01*
X0166682Y0090185D01*
X0166715Y0090028D01*
X0166745Y0089870D01*
X0166771Y0089711D01*
X0166792Y0089552D01*
X0166810Y0089392D01*
X0166824Y0089232D01*
X0166834Y0089071D01*
X0166840Y0088911D01*
X0166842Y0088750D01*
X0166840Y0088589D01*
X0166834Y0088429D01*
X0166824Y0088268D01*
X0166810Y0088108D01*
X0166792Y0087948D01*
X0166771Y0087789D01*
X0166745Y0087630D01*
X0166715Y0087472D01*
X0166682Y0087315D01*
X0166644Y0087158D01*
X0166603Y0087003D01*
X0166558Y0086849D01*
X0166509Y0086696D01*
X0166456Y0086544D01*
X0166400Y0086393D01*
X0166339Y0086244D01*
X0166276Y0086096D01*
X0166208Y0085950D01*
X0166137Y0085806D01*
X0166063Y0085664D01*
X0165985Y0085523D01*
X0165903Y0085385D01*
X0165818Y0085248D01*
X0165730Y0085114D01*
X0165638Y0084982D01*
X0165543Y0084852D01*
X0165445Y0084724D01*
X0165344Y0084599D01*
X0165240Y0084477D01*
X0165133Y0084357D01*
X0165023Y0084240D01*
X0164910Y0084125D01*
X0164794Y0084014D01*
X0164675Y0083905D01*
X0164554Y0083800D01*
X0164430Y0083697D01*
X0164304Y0083597D01*
X0164176Y0083501D01*
X0164045Y0083408D01*
X0163911Y0083318D01*
X0163776Y0083231D01*
X0163638Y0083148D01*
X0163499Y0083068D01*
X0163357Y0082992D01*
X0163214Y0082919D01*
X0163069Y0082850D01*
X0162922Y0082784D01*
X0162774Y0082722D01*
X0162624Y0082664D01*
X0162473Y0082609D01*
X0162320Y0082558D01*
X0162166Y0082511D01*
X0162011Y0082468D01*
X0161855Y0082429D01*
X0161699Y0082393D01*
X0161541Y0082362D01*
X0161383Y0082334D01*
X0161224Y0082310D01*
X0161064Y0082290D01*
X0160904Y0082274D01*
X0160744Y0082262D01*
X0160583Y0082254D01*
X0160422Y0082250D01*
X0160262Y0082250D01*
X0160101Y0082254D01*
X0159940Y0082262D01*
X0159780Y0082274D01*
X0159620Y0082290D01*
X0159460Y0082310D01*
X0159301Y0082334D01*
X0159143Y0082362D01*
X0158985Y0082393D01*
X0158829Y0082429D01*
X0158673Y0082468D01*
X0158518Y0082511D01*
X0158364Y0082558D01*
X0158211Y0082609D01*
X0158060Y0082664D01*
X0157910Y0082722D01*
X0157762Y0082784D01*
X0157615Y0082850D01*
X0157470Y0082919D01*
X0157327Y0082992D01*
X0157185Y0083068D01*
X0157046Y0083148D01*
X0156908Y0083231D01*
X0156773Y0083318D01*
X0156639Y0083408D01*
X0156508Y0083501D01*
X0156380Y0083597D01*
X0156254Y0083697D01*
X0156130Y0083800D01*
X0156009Y0083905D01*
X0155890Y0084014D01*
X0155774Y0084125D01*
X0155661Y0084240D01*
X0155551Y0084357D01*
X0155444Y0084477D01*
X0155340Y0084599D01*
X0155239Y0084724D01*
X0155141Y0084852D01*
X0155046Y0084982D01*
X0154954Y0085114D01*
X0154866Y0085248D01*
X0154781Y0085385D01*
X0154699Y0085523D01*
X0154621Y0085664D01*
X0154547Y0085806D01*
X0154476Y0085950D01*
X0154408Y0086096D01*
X0154345Y0086244D01*
X0154284Y0086393D01*
X0154228Y0086544D01*
X0154175Y0086696D01*
X0154126Y0086849D01*
X0154081Y0087003D01*
X0154040Y0087158D01*
X0154002Y0087315D01*
X0153969Y0087472D01*
X0153939Y0087630D01*
X0153913Y0087789D01*
X0153892Y0087948D01*
X0153874Y0088108D01*
X0153860Y0088268D01*
X0153850Y0088429D01*
X0153844Y0088589D01*
X0153842Y0088750D01*
X0131842Y0088750D02*
X0131844Y0088911D01*
X0131850Y0089071D01*
X0131860Y0089232D01*
X0131874Y0089392D01*
X0131892Y0089552D01*
X0131913Y0089711D01*
X0131939Y0089870D01*
X0131969Y0090028D01*
X0132002Y0090185D01*
X0132040Y0090342D01*
X0132081Y0090497D01*
X0132126Y0090651D01*
X0132175Y0090804D01*
X0132228Y0090956D01*
X0132284Y0091107D01*
X0132345Y0091256D01*
X0132408Y0091404D01*
X0132476Y0091550D01*
X0132547Y0091694D01*
X0132621Y0091836D01*
X0132699Y0091977D01*
X0132781Y0092115D01*
X0132866Y0092252D01*
X0132954Y0092386D01*
X0133046Y0092518D01*
X0133141Y0092648D01*
X0133239Y0092776D01*
X0133340Y0092901D01*
X0133444Y0093023D01*
X0133551Y0093143D01*
X0133661Y0093260D01*
X0133774Y0093375D01*
X0133890Y0093486D01*
X0134009Y0093595D01*
X0134130Y0093700D01*
X0134254Y0093803D01*
X0134380Y0093903D01*
X0134508Y0093999D01*
X0134639Y0094092D01*
X0134773Y0094182D01*
X0134908Y0094269D01*
X0135046Y0094352D01*
X0135185Y0094432D01*
X0135327Y0094508D01*
X0135470Y0094581D01*
X0135615Y0094650D01*
X0135762Y0094716D01*
X0135910Y0094778D01*
X0136060Y0094836D01*
X0136211Y0094891D01*
X0136364Y0094942D01*
X0136518Y0094989D01*
X0136673Y0095032D01*
X0136829Y0095071D01*
X0136985Y0095107D01*
X0137143Y0095138D01*
X0137301Y0095166D01*
X0137460Y0095190D01*
X0137620Y0095210D01*
X0137780Y0095226D01*
X0137940Y0095238D01*
X0138101Y0095246D01*
X0138262Y0095250D01*
X0138422Y0095250D01*
X0138583Y0095246D01*
X0138744Y0095238D01*
X0138904Y0095226D01*
X0139064Y0095210D01*
X0139224Y0095190D01*
X0139383Y0095166D01*
X0139541Y0095138D01*
X0139699Y0095107D01*
X0139855Y0095071D01*
X0140011Y0095032D01*
X0140166Y0094989D01*
X0140320Y0094942D01*
X0140473Y0094891D01*
X0140624Y0094836D01*
X0140774Y0094778D01*
X0140922Y0094716D01*
X0141069Y0094650D01*
X0141214Y0094581D01*
X0141357Y0094508D01*
X0141499Y0094432D01*
X0141638Y0094352D01*
X0141776Y0094269D01*
X0141911Y0094182D01*
X0142045Y0094092D01*
X0142176Y0093999D01*
X0142304Y0093903D01*
X0142430Y0093803D01*
X0142554Y0093700D01*
X0142675Y0093595D01*
X0142794Y0093486D01*
X0142910Y0093375D01*
X0143023Y0093260D01*
X0143133Y0093143D01*
X0143240Y0093023D01*
X0143344Y0092901D01*
X0143445Y0092776D01*
X0143543Y0092648D01*
X0143638Y0092518D01*
X0143730Y0092386D01*
X0143818Y0092252D01*
X0143903Y0092115D01*
X0143985Y0091977D01*
X0144063Y0091836D01*
X0144137Y0091694D01*
X0144208Y0091550D01*
X0144276Y0091404D01*
X0144339Y0091256D01*
X0144400Y0091107D01*
X0144456Y0090956D01*
X0144509Y0090804D01*
X0144558Y0090651D01*
X0144603Y0090497D01*
X0144644Y0090342D01*
X0144682Y0090185D01*
X0144715Y0090028D01*
X0144745Y0089870D01*
X0144771Y0089711D01*
X0144792Y0089552D01*
X0144810Y0089392D01*
X0144824Y0089232D01*
X0144834Y0089071D01*
X0144840Y0088911D01*
X0144842Y0088750D01*
X0144840Y0088589D01*
X0144834Y0088429D01*
X0144824Y0088268D01*
X0144810Y0088108D01*
X0144792Y0087948D01*
X0144771Y0087789D01*
X0144745Y0087630D01*
X0144715Y0087472D01*
X0144682Y0087315D01*
X0144644Y0087158D01*
X0144603Y0087003D01*
X0144558Y0086849D01*
X0144509Y0086696D01*
X0144456Y0086544D01*
X0144400Y0086393D01*
X0144339Y0086244D01*
X0144276Y0086096D01*
X0144208Y0085950D01*
X0144137Y0085806D01*
X0144063Y0085664D01*
X0143985Y0085523D01*
X0143903Y0085385D01*
X0143818Y0085248D01*
X0143730Y0085114D01*
X0143638Y0084982D01*
X0143543Y0084852D01*
X0143445Y0084724D01*
X0143344Y0084599D01*
X0143240Y0084477D01*
X0143133Y0084357D01*
X0143023Y0084240D01*
X0142910Y0084125D01*
X0142794Y0084014D01*
X0142675Y0083905D01*
X0142554Y0083800D01*
X0142430Y0083697D01*
X0142304Y0083597D01*
X0142176Y0083501D01*
X0142045Y0083408D01*
X0141911Y0083318D01*
X0141776Y0083231D01*
X0141638Y0083148D01*
X0141499Y0083068D01*
X0141357Y0082992D01*
X0141214Y0082919D01*
X0141069Y0082850D01*
X0140922Y0082784D01*
X0140774Y0082722D01*
X0140624Y0082664D01*
X0140473Y0082609D01*
X0140320Y0082558D01*
X0140166Y0082511D01*
X0140011Y0082468D01*
X0139855Y0082429D01*
X0139699Y0082393D01*
X0139541Y0082362D01*
X0139383Y0082334D01*
X0139224Y0082310D01*
X0139064Y0082290D01*
X0138904Y0082274D01*
X0138744Y0082262D01*
X0138583Y0082254D01*
X0138422Y0082250D01*
X0138262Y0082250D01*
X0138101Y0082254D01*
X0137940Y0082262D01*
X0137780Y0082274D01*
X0137620Y0082290D01*
X0137460Y0082310D01*
X0137301Y0082334D01*
X0137143Y0082362D01*
X0136985Y0082393D01*
X0136829Y0082429D01*
X0136673Y0082468D01*
X0136518Y0082511D01*
X0136364Y0082558D01*
X0136211Y0082609D01*
X0136060Y0082664D01*
X0135910Y0082722D01*
X0135762Y0082784D01*
X0135615Y0082850D01*
X0135470Y0082919D01*
X0135327Y0082992D01*
X0135185Y0083068D01*
X0135046Y0083148D01*
X0134908Y0083231D01*
X0134773Y0083318D01*
X0134639Y0083408D01*
X0134508Y0083501D01*
X0134380Y0083597D01*
X0134254Y0083697D01*
X0134130Y0083800D01*
X0134009Y0083905D01*
X0133890Y0084014D01*
X0133774Y0084125D01*
X0133661Y0084240D01*
X0133551Y0084357D01*
X0133444Y0084477D01*
X0133340Y0084599D01*
X0133239Y0084724D01*
X0133141Y0084852D01*
X0133046Y0084982D01*
X0132954Y0085114D01*
X0132866Y0085248D01*
X0132781Y0085385D01*
X0132699Y0085523D01*
X0132621Y0085664D01*
X0132547Y0085806D01*
X0132476Y0085950D01*
X0132408Y0086096D01*
X0132345Y0086244D01*
X0132284Y0086393D01*
X0132228Y0086544D01*
X0132175Y0086696D01*
X0132126Y0086849D01*
X0132081Y0087003D01*
X0132040Y0087158D01*
X0132002Y0087315D01*
X0131969Y0087472D01*
X0131939Y0087630D01*
X0131913Y0087789D01*
X0131892Y0087948D01*
X0131874Y0088108D01*
X0131860Y0088268D01*
X0131850Y0088429D01*
X0131844Y0088589D01*
X0131842Y0088750D01*
X0051842Y0088750D02*
X0051844Y0088911D01*
X0051850Y0089071D01*
X0051860Y0089232D01*
X0051874Y0089392D01*
X0051892Y0089552D01*
X0051913Y0089711D01*
X0051939Y0089870D01*
X0051969Y0090028D01*
X0052002Y0090185D01*
X0052040Y0090342D01*
X0052081Y0090497D01*
X0052126Y0090651D01*
X0052175Y0090804D01*
X0052228Y0090956D01*
X0052284Y0091107D01*
X0052345Y0091256D01*
X0052408Y0091404D01*
X0052476Y0091550D01*
X0052547Y0091694D01*
X0052621Y0091836D01*
X0052699Y0091977D01*
X0052781Y0092115D01*
X0052866Y0092252D01*
X0052954Y0092386D01*
X0053046Y0092518D01*
X0053141Y0092648D01*
X0053239Y0092776D01*
X0053340Y0092901D01*
X0053444Y0093023D01*
X0053551Y0093143D01*
X0053661Y0093260D01*
X0053774Y0093375D01*
X0053890Y0093486D01*
X0054009Y0093595D01*
X0054130Y0093700D01*
X0054254Y0093803D01*
X0054380Y0093903D01*
X0054508Y0093999D01*
X0054639Y0094092D01*
X0054773Y0094182D01*
X0054908Y0094269D01*
X0055046Y0094352D01*
X0055185Y0094432D01*
X0055327Y0094508D01*
X0055470Y0094581D01*
X0055615Y0094650D01*
X0055762Y0094716D01*
X0055910Y0094778D01*
X0056060Y0094836D01*
X0056211Y0094891D01*
X0056364Y0094942D01*
X0056518Y0094989D01*
X0056673Y0095032D01*
X0056829Y0095071D01*
X0056985Y0095107D01*
X0057143Y0095138D01*
X0057301Y0095166D01*
X0057460Y0095190D01*
X0057620Y0095210D01*
X0057780Y0095226D01*
X0057940Y0095238D01*
X0058101Y0095246D01*
X0058262Y0095250D01*
X0058422Y0095250D01*
X0058583Y0095246D01*
X0058744Y0095238D01*
X0058904Y0095226D01*
X0059064Y0095210D01*
X0059224Y0095190D01*
X0059383Y0095166D01*
X0059541Y0095138D01*
X0059699Y0095107D01*
X0059855Y0095071D01*
X0060011Y0095032D01*
X0060166Y0094989D01*
X0060320Y0094942D01*
X0060473Y0094891D01*
X0060624Y0094836D01*
X0060774Y0094778D01*
X0060922Y0094716D01*
X0061069Y0094650D01*
X0061214Y0094581D01*
X0061357Y0094508D01*
X0061499Y0094432D01*
X0061638Y0094352D01*
X0061776Y0094269D01*
X0061911Y0094182D01*
X0062045Y0094092D01*
X0062176Y0093999D01*
X0062304Y0093903D01*
X0062430Y0093803D01*
X0062554Y0093700D01*
X0062675Y0093595D01*
X0062794Y0093486D01*
X0062910Y0093375D01*
X0063023Y0093260D01*
X0063133Y0093143D01*
X0063240Y0093023D01*
X0063344Y0092901D01*
X0063445Y0092776D01*
X0063543Y0092648D01*
X0063638Y0092518D01*
X0063730Y0092386D01*
X0063818Y0092252D01*
X0063903Y0092115D01*
X0063985Y0091977D01*
X0064063Y0091836D01*
X0064137Y0091694D01*
X0064208Y0091550D01*
X0064276Y0091404D01*
X0064339Y0091256D01*
X0064400Y0091107D01*
X0064456Y0090956D01*
X0064509Y0090804D01*
X0064558Y0090651D01*
X0064603Y0090497D01*
X0064644Y0090342D01*
X0064682Y0090185D01*
X0064715Y0090028D01*
X0064745Y0089870D01*
X0064771Y0089711D01*
X0064792Y0089552D01*
X0064810Y0089392D01*
X0064824Y0089232D01*
X0064834Y0089071D01*
X0064840Y0088911D01*
X0064842Y0088750D01*
X0064840Y0088589D01*
X0064834Y0088429D01*
X0064824Y0088268D01*
X0064810Y0088108D01*
X0064792Y0087948D01*
X0064771Y0087789D01*
X0064745Y0087630D01*
X0064715Y0087472D01*
X0064682Y0087315D01*
X0064644Y0087158D01*
X0064603Y0087003D01*
X0064558Y0086849D01*
X0064509Y0086696D01*
X0064456Y0086544D01*
X0064400Y0086393D01*
X0064339Y0086244D01*
X0064276Y0086096D01*
X0064208Y0085950D01*
X0064137Y0085806D01*
X0064063Y0085664D01*
X0063985Y0085523D01*
X0063903Y0085385D01*
X0063818Y0085248D01*
X0063730Y0085114D01*
X0063638Y0084982D01*
X0063543Y0084852D01*
X0063445Y0084724D01*
X0063344Y0084599D01*
X0063240Y0084477D01*
X0063133Y0084357D01*
X0063023Y0084240D01*
X0062910Y0084125D01*
X0062794Y0084014D01*
X0062675Y0083905D01*
X0062554Y0083800D01*
X0062430Y0083697D01*
X0062304Y0083597D01*
X0062176Y0083501D01*
X0062045Y0083408D01*
X0061911Y0083318D01*
X0061776Y0083231D01*
X0061638Y0083148D01*
X0061499Y0083068D01*
X0061357Y0082992D01*
X0061214Y0082919D01*
X0061069Y0082850D01*
X0060922Y0082784D01*
X0060774Y0082722D01*
X0060624Y0082664D01*
X0060473Y0082609D01*
X0060320Y0082558D01*
X0060166Y0082511D01*
X0060011Y0082468D01*
X0059855Y0082429D01*
X0059699Y0082393D01*
X0059541Y0082362D01*
X0059383Y0082334D01*
X0059224Y0082310D01*
X0059064Y0082290D01*
X0058904Y0082274D01*
X0058744Y0082262D01*
X0058583Y0082254D01*
X0058422Y0082250D01*
X0058262Y0082250D01*
X0058101Y0082254D01*
X0057940Y0082262D01*
X0057780Y0082274D01*
X0057620Y0082290D01*
X0057460Y0082310D01*
X0057301Y0082334D01*
X0057143Y0082362D01*
X0056985Y0082393D01*
X0056829Y0082429D01*
X0056673Y0082468D01*
X0056518Y0082511D01*
X0056364Y0082558D01*
X0056211Y0082609D01*
X0056060Y0082664D01*
X0055910Y0082722D01*
X0055762Y0082784D01*
X0055615Y0082850D01*
X0055470Y0082919D01*
X0055327Y0082992D01*
X0055185Y0083068D01*
X0055046Y0083148D01*
X0054908Y0083231D01*
X0054773Y0083318D01*
X0054639Y0083408D01*
X0054508Y0083501D01*
X0054380Y0083597D01*
X0054254Y0083697D01*
X0054130Y0083800D01*
X0054009Y0083905D01*
X0053890Y0084014D01*
X0053774Y0084125D01*
X0053661Y0084240D01*
X0053551Y0084357D01*
X0053444Y0084477D01*
X0053340Y0084599D01*
X0053239Y0084724D01*
X0053141Y0084852D01*
X0053046Y0084982D01*
X0052954Y0085114D01*
X0052866Y0085248D01*
X0052781Y0085385D01*
X0052699Y0085523D01*
X0052621Y0085664D01*
X0052547Y0085806D01*
X0052476Y0085950D01*
X0052408Y0086096D01*
X0052345Y0086244D01*
X0052284Y0086393D01*
X0052228Y0086544D01*
X0052175Y0086696D01*
X0052126Y0086849D01*
X0052081Y0087003D01*
X0052040Y0087158D01*
X0052002Y0087315D01*
X0051969Y0087472D01*
X0051939Y0087630D01*
X0051913Y0087789D01*
X0051892Y0087948D01*
X0051874Y0088108D01*
X0051860Y0088268D01*
X0051850Y0088429D01*
X0051844Y0088589D01*
X0051842Y0088750D01*
M02*
