G75*
%MOIN*%
%OFA0B0*%
%FSLAX25Y25*%
%IPPOS*%
%LPD*%
%AMOC8*
5,1,8,0,0,1.08239X$1,22.5*
%
%ADD10R,0.01575X0.02362*%
%ADD11R,0.02362X0.01575*%
%ADD12R,0.03346X0.08661*%
%ADD13R,0.03937X0.04134*%
%ADD14R,0.03937X0.01969*%
%ADD15R,0.01969X0.03937*%
D10*
X0092520Y0085188D03*
X0095669Y0085188D03*
X0097984Y0089361D03*
X0101134Y0089361D03*
X0103441Y0080026D03*
X0106591Y0080026D03*
X0104036Y0100105D03*
X0100886Y0100105D03*
X0097736Y0100125D03*
X0094587Y0100125D03*
X0097854Y0103719D03*
X0101004Y0103719D03*
X0194520Y0085188D03*
X0197669Y0085188D03*
X0199984Y0089361D03*
X0203134Y0089361D03*
X0205441Y0080026D03*
X0208591Y0080026D03*
X0206036Y0100105D03*
X0202886Y0100105D03*
X0199736Y0100125D03*
X0196587Y0100125D03*
X0199854Y0103719D03*
X0203004Y0103719D03*
X0296520Y0085188D03*
X0299669Y0085188D03*
X0301984Y0089361D03*
X0305134Y0089361D03*
X0307441Y0080026D03*
X0310591Y0080026D03*
X0308036Y0100105D03*
X0304886Y0100105D03*
X0301736Y0100125D03*
X0298587Y0100125D03*
X0301854Y0103719D03*
X0305004Y0103719D03*
X0307441Y0232026D03*
X0310591Y0232026D03*
X0305134Y0241361D03*
X0301984Y0241361D03*
X0299669Y0237188D03*
X0296520Y0237188D03*
X0298587Y0252125D03*
X0301736Y0252125D03*
X0304886Y0252105D03*
X0308036Y0252105D03*
X0305004Y0255719D03*
X0301854Y0255719D03*
X0206036Y0252105D03*
X0202886Y0252105D03*
X0199736Y0252125D03*
X0196587Y0252125D03*
X0199854Y0255719D03*
X0203004Y0255719D03*
X0203134Y0241361D03*
X0199984Y0241361D03*
X0197669Y0237188D03*
X0194520Y0237188D03*
X0205441Y0232026D03*
X0208591Y0232026D03*
X0106591Y0232026D03*
X0103441Y0232026D03*
X0095669Y0237188D03*
X0092520Y0237188D03*
X0097984Y0241361D03*
X0101134Y0241361D03*
X0100886Y0252105D03*
X0104036Y0252105D03*
X0101004Y0255719D03*
X0097854Y0255719D03*
X0097736Y0252125D03*
X0094587Y0252125D03*
D11*
X0097630Y0249117D03*
X0097630Y0245967D03*
X0100866Y0246007D03*
X0100866Y0249156D03*
X0199630Y0249117D03*
X0199630Y0245967D03*
X0202866Y0246007D03*
X0202866Y0249156D03*
X0301630Y0249117D03*
X0301630Y0245967D03*
X0304866Y0246007D03*
X0304866Y0249156D03*
X0304866Y0097156D03*
X0304866Y0094007D03*
X0301630Y0093967D03*
X0301630Y0097117D03*
X0202866Y0097156D03*
X0202866Y0094007D03*
X0199630Y0093967D03*
X0199630Y0097117D03*
X0100866Y0097156D03*
X0100866Y0094007D03*
X0097630Y0093967D03*
X0097630Y0097117D03*
D12*
X0092335Y0065830D03*
X0103161Y0065830D03*
X0194335Y0065830D03*
X0205161Y0065830D03*
X0296335Y0065830D03*
X0307161Y0065830D03*
X0307161Y0217830D03*
X0296335Y0217830D03*
X0205161Y0217830D03*
X0194335Y0217830D03*
X0103161Y0217830D03*
X0092335Y0217830D03*
D13*
X0097748Y0211826D03*
X0097748Y0223833D03*
X0199748Y0223833D03*
X0199748Y0211826D03*
X0301748Y0211826D03*
X0301748Y0223833D03*
X0301748Y0071833D03*
X0301748Y0059826D03*
X0199748Y0059826D03*
X0199748Y0071833D03*
X0097748Y0071833D03*
X0097748Y0059826D03*
D14*
X0093421Y0089262D03*
X0093421Y0094675D03*
X0105724Y0094715D03*
X0105724Y0089301D03*
X0195421Y0089262D03*
X0195421Y0094675D03*
X0207724Y0094715D03*
X0207724Y0089301D03*
X0297421Y0089262D03*
X0297421Y0094675D03*
X0309724Y0094715D03*
X0309724Y0089301D03*
X0309724Y0241301D03*
X0309724Y0246715D03*
X0297421Y0246675D03*
X0297421Y0241262D03*
X0207724Y0241301D03*
X0207724Y0246715D03*
X0195421Y0246675D03*
X0195421Y0241262D03*
X0105724Y0241301D03*
X0105724Y0246715D03*
X0093421Y0246675D03*
X0093421Y0241262D03*
D15*
X0101142Y0237160D03*
X0106555Y0237160D03*
X0097787Y0232085D03*
X0092374Y0232085D03*
X0194374Y0232085D03*
X0199787Y0232085D03*
X0203142Y0237160D03*
X0208555Y0237160D03*
X0296374Y0232085D03*
X0301787Y0232085D03*
X0305142Y0237160D03*
X0310555Y0237160D03*
X0310555Y0085160D03*
X0305142Y0085160D03*
X0301787Y0080085D03*
X0296374Y0080085D03*
X0208555Y0085160D03*
X0203142Y0085160D03*
X0199787Y0080085D03*
X0194374Y0080085D03*
X0106555Y0085160D03*
X0101142Y0085160D03*
X0097787Y0080085D03*
X0092374Y0080085D03*
M02*
