G75*
%MOIN*%
%OFA0B0*%
%FSLAX25Y25*%
%IPPOS*%
%LPD*%
%AMOC8*
5,1,8,0,0,1.08239X$1,22.5*
%
%ADD10C,0.00800*%
%ADD11C,0.01500*%
%ADD12C,0.01100*%
%ADD13C,0.01000*%
%ADD14C,0.00000*%
D10*
X0028750Y0028750D02*
X0028750Y0198750D01*
X0128750Y0198750D01*
X0128750Y0028750D01*
X0028750Y0028750D01*
X0130750Y0028750D02*
X0130750Y0198750D01*
X0230750Y0198750D01*
X0230750Y0028750D01*
X0130750Y0028750D01*
X0232750Y0028750D02*
X0232750Y0198750D01*
X0332750Y0198750D01*
X0332750Y0028750D01*
X0232750Y0028750D01*
D11*
X0231750Y0001750D02*
X0231750Y0250750D01*
X0333750Y0250750D02*
X0333750Y0001750D01*
X0384750Y0027750D02*
X0001750Y0027750D01*
X0027750Y0001750D02*
X0027750Y0250750D01*
X0001750Y0199750D02*
X0384750Y0199750D01*
X0129750Y0250750D02*
X0129750Y0001750D01*
D12*
X0397541Y0028733D02*
X0398852Y0024800D01*
X0400163Y0028733D01*
X0402834Y0027094D02*
X0406768Y0027094D01*
X0410136Y0027094D02*
X0411774Y0026439D01*
X0411775Y0026439D02*
X0411827Y0026416D01*
X0411878Y0026389D01*
X0411927Y0026359D01*
X0411974Y0026326D01*
X0412019Y0026290D01*
X0412061Y0026250D01*
X0412100Y0026208D01*
X0412136Y0026164D01*
X0412169Y0026117D01*
X0412199Y0026067D01*
X0412226Y0026016D01*
X0412249Y0025964D01*
X0412268Y0025910D01*
X0412284Y0025854D01*
X0412296Y0025798D01*
X0412304Y0025741D01*
X0412308Y0025684D01*
X0412309Y0025626D01*
X0412305Y0025569D01*
X0412298Y0025512D01*
X0412286Y0025455D01*
X0412271Y0025400D01*
X0412253Y0025345D01*
X0412230Y0025292D01*
X0412204Y0025241D01*
X0412175Y0025192D01*
X0412142Y0025144D01*
X0412106Y0025099D01*
X0412068Y0025057D01*
X0412026Y0025017D01*
X0411982Y0024980D01*
X0411935Y0024946D01*
X0411887Y0024915D01*
X0411836Y0024888D01*
X0411784Y0024864D01*
X0411730Y0024844D01*
X0411675Y0024828D01*
X0411619Y0024815D01*
X0411562Y0024806D01*
X0411504Y0024801D01*
X0411447Y0024800D01*
X0411938Y0028405D02*
X0411831Y0028451D01*
X0411722Y0028494D01*
X0411612Y0028534D01*
X0411500Y0028570D01*
X0411388Y0028602D01*
X0411274Y0028631D01*
X0411160Y0028657D01*
X0411045Y0028678D01*
X0410930Y0028697D01*
X0410813Y0028711D01*
X0410697Y0028722D01*
X0410580Y0028729D01*
X0410463Y0028733D01*
X0410463Y0028734D02*
X0410406Y0028733D01*
X0410348Y0028728D01*
X0410291Y0028719D01*
X0410235Y0028706D01*
X0410180Y0028690D01*
X0410126Y0028670D01*
X0410074Y0028646D01*
X0410023Y0028619D01*
X0409975Y0028588D01*
X0409928Y0028554D01*
X0409884Y0028517D01*
X0409842Y0028477D01*
X0409804Y0028435D01*
X0409768Y0028390D01*
X0409735Y0028342D01*
X0409706Y0028293D01*
X0409680Y0028242D01*
X0409657Y0028189D01*
X0409639Y0028134D01*
X0409624Y0028079D01*
X0409612Y0028022D01*
X0409605Y0027965D01*
X0409601Y0027908D01*
X0409602Y0027850D01*
X0409606Y0027793D01*
X0409614Y0027736D01*
X0409626Y0027680D01*
X0409642Y0027624D01*
X0409661Y0027570D01*
X0409684Y0027518D01*
X0409711Y0027467D01*
X0409741Y0027417D01*
X0409774Y0027370D01*
X0409810Y0027326D01*
X0409849Y0027284D01*
X0409891Y0027244D01*
X0409936Y0027208D01*
X0409983Y0027175D01*
X0410032Y0027145D01*
X0410083Y0027118D01*
X0410135Y0027095D01*
X0409644Y0025128D02*
X0409778Y0025082D01*
X0409913Y0025039D01*
X0410049Y0025000D01*
X0410186Y0024964D01*
X0410323Y0024932D01*
X0410462Y0024903D01*
X0410601Y0024877D01*
X0410741Y0024856D01*
X0410882Y0024837D01*
X0411022Y0024823D01*
X0411164Y0024812D01*
X0411305Y0024804D01*
X0411447Y0024801D01*
X0414988Y0025783D02*
X0414988Y0027750D01*
X0414990Y0027812D01*
X0414996Y0027873D01*
X0415005Y0027934D01*
X0415019Y0027994D01*
X0415036Y0028054D01*
X0415057Y0028112D01*
X0415082Y0028169D01*
X0415110Y0028224D01*
X0415141Y0028277D01*
X0415176Y0028328D01*
X0415214Y0028377D01*
X0415254Y0028423D01*
X0415298Y0028467D01*
X0415344Y0028507D01*
X0415393Y0028545D01*
X0415444Y0028580D01*
X0415497Y0028611D01*
X0415552Y0028639D01*
X0415609Y0028664D01*
X0415667Y0028685D01*
X0415727Y0028702D01*
X0415787Y0028716D01*
X0415848Y0028725D01*
X0415909Y0028731D01*
X0415971Y0028733D01*
X0417282Y0028733D01*
X0419695Y0027422D02*
X0419695Y0026111D01*
X0419696Y0026111D02*
X0419698Y0026040D01*
X0419704Y0025969D01*
X0419713Y0025899D01*
X0419727Y0025829D01*
X0419744Y0025760D01*
X0419765Y0025692D01*
X0419789Y0025626D01*
X0419817Y0025561D01*
X0419849Y0025497D01*
X0419884Y0025435D01*
X0419922Y0025375D01*
X0419963Y0025318D01*
X0420008Y0025262D01*
X0420055Y0025209D01*
X0420105Y0025159D01*
X0420158Y0025112D01*
X0420214Y0025067D01*
X0420271Y0025026D01*
X0420331Y0024988D01*
X0420393Y0024953D01*
X0420457Y0024921D01*
X0420522Y0024893D01*
X0420588Y0024869D01*
X0420656Y0024848D01*
X0420725Y0024831D01*
X0420795Y0024817D01*
X0420865Y0024808D01*
X0420936Y0024802D01*
X0421007Y0024800D01*
X0421078Y0024802D01*
X0421149Y0024808D01*
X0421219Y0024817D01*
X0421289Y0024831D01*
X0421358Y0024848D01*
X0421426Y0024869D01*
X0421492Y0024893D01*
X0421557Y0024921D01*
X0421621Y0024953D01*
X0421683Y0024988D01*
X0421743Y0025026D01*
X0421800Y0025067D01*
X0421856Y0025112D01*
X0421909Y0025159D01*
X0421959Y0025209D01*
X0422006Y0025262D01*
X0422051Y0025318D01*
X0422092Y0025375D01*
X0422130Y0025435D01*
X0422165Y0025497D01*
X0422197Y0025561D01*
X0422225Y0025626D01*
X0422249Y0025692D01*
X0422270Y0025760D01*
X0422287Y0025829D01*
X0422301Y0025899D01*
X0422310Y0025969D01*
X0422316Y0026040D01*
X0422318Y0026111D01*
X0422318Y0027422D01*
X0422316Y0027493D01*
X0422310Y0027564D01*
X0422301Y0027634D01*
X0422287Y0027704D01*
X0422270Y0027773D01*
X0422249Y0027841D01*
X0422225Y0027907D01*
X0422197Y0027972D01*
X0422165Y0028036D01*
X0422130Y0028098D01*
X0422092Y0028158D01*
X0422051Y0028215D01*
X0422006Y0028271D01*
X0421959Y0028324D01*
X0421909Y0028374D01*
X0421856Y0028421D01*
X0421800Y0028466D01*
X0421743Y0028507D01*
X0421683Y0028545D01*
X0421621Y0028580D01*
X0421557Y0028612D01*
X0421492Y0028640D01*
X0421426Y0028664D01*
X0421358Y0028685D01*
X0421289Y0028702D01*
X0421219Y0028716D01*
X0421149Y0028725D01*
X0421078Y0028731D01*
X0421007Y0028733D01*
X0420936Y0028731D01*
X0420865Y0028725D01*
X0420795Y0028716D01*
X0420725Y0028702D01*
X0420656Y0028685D01*
X0420588Y0028664D01*
X0420522Y0028640D01*
X0420457Y0028612D01*
X0420393Y0028580D01*
X0420331Y0028545D01*
X0420271Y0028507D01*
X0420214Y0028466D01*
X0420158Y0028421D01*
X0420105Y0028374D01*
X0420055Y0028324D01*
X0420008Y0028271D01*
X0419963Y0028215D01*
X0419922Y0028158D01*
X0419884Y0028098D01*
X0419849Y0028036D01*
X0419817Y0027972D01*
X0419789Y0027907D01*
X0419765Y0027841D01*
X0419744Y0027773D01*
X0419727Y0027704D01*
X0419713Y0027634D01*
X0419704Y0027564D01*
X0419698Y0027493D01*
X0419696Y0027422D01*
X0417282Y0024800D02*
X0415971Y0024800D01*
X0415909Y0024802D01*
X0415848Y0024808D01*
X0415787Y0024817D01*
X0415727Y0024831D01*
X0415667Y0024848D01*
X0415609Y0024869D01*
X0415552Y0024894D01*
X0415497Y0024922D01*
X0415444Y0024953D01*
X0415393Y0024988D01*
X0415344Y0025026D01*
X0415298Y0025066D01*
X0415254Y0025110D01*
X0415214Y0025156D01*
X0415176Y0025205D01*
X0415141Y0025256D01*
X0415110Y0025309D01*
X0415082Y0025364D01*
X0415057Y0025421D01*
X0415036Y0025479D01*
X0415019Y0025539D01*
X0415005Y0025599D01*
X0414996Y0025660D01*
X0414990Y0025721D01*
X0414988Y0025783D01*
X0425284Y0024800D02*
X0425284Y0028733D01*
X0427251Y0028733D01*
X0427251Y0028078D01*
X0429337Y0027422D02*
X0429337Y0025783D01*
X0429339Y0025721D01*
X0429345Y0025660D01*
X0429354Y0025599D01*
X0429368Y0025539D01*
X0429385Y0025479D01*
X0429406Y0025421D01*
X0429431Y0025364D01*
X0429459Y0025309D01*
X0429490Y0025256D01*
X0429525Y0025205D01*
X0429563Y0025156D01*
X0429603Y0025110D01*
X0429647Y0025066D01*
X0429693Y0025026D01*
X0429742Y0024988D01*
X0429793Y0024953D01*
X0429846Y0024922D01*
X0429901Y0024894D01*
X0429958Y0024869D01*
X0430016Y0024848D01*
X0430076Y0024831D01*
X0430136Y0024817D01*
X0430197Y0024808D01*
X0430258Y0024802D01*
X0430320Y0024800D01*
X0431959Y0024800D01*
X0431959Y0026767D02*
X0429337Y0026767D01*
X0429337Y0027422D02*
X0429339Y0027493D01*
X0429345Y0027564D01*
X0429354Y0027634D01*
X0429368Y0027704D01*
X0429385Y0027773D01*
X0429406Y0027841D01*
X0429430Y0027907D01*
X0429458Y0027972D01*
X0429490Y0028036D01*
X0429525Y0028098D01*
X0429563Y0028158D01*
X0429604Y0028215D01*
X0429649Y0028271D01*
X0429696Y0028324D01*
X0429746Y0028374D01*
X0429799Y0028421D01*
X0429855Y0028466D01*
X0429912Y0028507D01*
X0429972Y0028545D01*
X0430034Y0028580D01*
X0430098Y0028612D01*
X0430163Y0028640D01*
X0430229Y0028664D01*
X0430297Y0028685D01*
X0430366Y0028702D01*
X0430436Y0028716D01*
X0430506Y0028725D01*
X0430577Y0028731D01*
X0430648Y0028733D01*
X0430719Y0028731D01*
X0430790Y0028725D01*
X0430860Y0028716D01*
X0430930Y0028702D01*
X0430999Y0028685D01*
X0431067Y0028664D01*
X0431133Y0028640D01*
X0431198Y0028612D01*
X0431262Y0028580D01*
X0431324Y0028545D01*
X0431384Y0028507D01*
X0431441Y0028466D01*
X0431497Y0028421D01*
X0431550Y0028374D01*
X0431600Y0028324D01*
X0431647Y0028271D01*
X0431692Y0028215D01*
X0431733Y0028158D01*
X0431771Y0028098D01*
X0431806Y0028036D01*
X0431838Y0027972D01*
X0431866Y0027907D01*
X0431890Y0027841D01*
X0431911Y0027773D01*
X0431928Y0027704D01*
X0431942Y0027634D01*
X0431951Y0027564D01*
X0431957Y0027493D01*
X0431959Y0027422D01*
X0431959Y0026767D01*
X0431959Y0196800D02*
X0430320Y0196800D01*
X0430258Y0196802D01*
X0430197Y0196808D01*
X0430136Y0196817D01*
X0430076Y0196831D01*
X0430016Y0196848D01*
X0429958Y0196869D01*
X0429901Y0196894D01*
X0429846Y0196922D01*
X0429793Y0196953D01*
X0429742Y0196988D01*
X0429693Y0197026D01*
X0429647Y0197066D01*
X0429603Y0197110D01*
X0429563Y0197156D01*
X0429525Y0197205D01*
X0429490Y0197256D01*
X0429459Y0197309D01*
X0429431Y0197364D01*
X0429406Y0197421D01*
X0429385Y0197479D01*
X0429368Y0197539D01*
X0429354Y0197599D01*
X0429345Y0197660D01*
X0429339Y0197721D01*
X0429337Y0197783D01*
X0429337Y0199422D01*
X0429337Y0198767D02*
X0431959Y0198767D01*
X0431959Y0199422D01*
X0431957Y0199493D01*
X0431951Y0199564D01*
X0431942Y0199634D01*
X0431928Y0199704D01*
X0431911Y0199773D01*
X0431890Y0199841D01*
X0431866Y0199907D01*
X0431838Y0199972D01*
X0431806Y0200036D01*
X0431771Y0200098D01*
X0431733Y0200158D01*
X0431692Y0200215D01*
X0431647Y0200271D01*
X0431600Y0200324D01*
X0431550Y0200374D01*
X0431497Y0200421D01*
X0431441Y0200466D01*
X0431384Y0200507D01*
X0431324Y0200545D01*
X0431262Y0200580D01*
X0431198Y0200612D01*
X0431133Y0200640D01*
X0431067Y0200664D01*
X0430999Y0200685D01*
X0430930Y0200702D01*
X0430860Y0200716D01*
X0430790Y0200725D01*
X0430719Y0200731D01*
X0430648Y0200733D01*
X0430577Y0200731D01*
X0430506Y0200725D01*
X0430436Y0200716D01*
X0430366Y0200702D01*
X0430297Y0200685D01*
X0430229Y0200664D01*
X0430163Y0200640D01*
X0430098Y0200612D01*
X0430034Y0200580D01*
X0429972Y0200545D01*
X0429912Y0200507D01*
X0429855Y0200466D01*
X0429799Y0200421D01*
X0429746Y0200374D01*
X0429696Y0200324D01*
X0429649Y0200271D01*
X0429604Y0200215D01*
X0429563Y0200158D01*
X0429525Y0200098D01*
X0429490Y0200036D01*
X0429458Y0199972D01*
X0429430Y0199907D01*
X0429406Y0199841D01*
X0429385Y0199773D01*
X0429368Y0199704D01*
X0429354Y0199634D01*
X0429345Y0199564D01*
X0429339Y0199493D01*
X0429337Y0199422D01*
X0427251Y0200078D02*
X0427251Y0200733D01*
X0425284Y0200733D01*
X0425284Y0196800D01*
X0422318Y0198111D02*
X0422318Y0199422D01*
X0422316Y0199493D01*
X0422310Y0199564D01*
X0422301Y0199634D01*
X0422287Y0199704D01*
X0422270Y0199773D01*
X0422249Y0199841D01*
X0422225Y0199907D01*
X0422197Y0199972D01*
X0422165Y0200036D01*
X0422130Y0200098D01*
X0422092Y0200158D01*
X0422051Y0200215D01*
X0422006Y0200271D01*
X0421959Y0200324D01*
X0421909Y0200374D01*
X0421856Y0200421D01*
X0421800Y0200466D01*
X0421743Y0200507D01*
X0421683Y0200545D01*
X0421621Y0200580D01*
X0421557Y0200612D01*
X0421492Y0200640D01*
X0421426Y0200664D01*
X0421358Y0200685D01*
X0421289Y0200702D01*
X0421219Y0200716D01*
X0421149Y0200725D01*
X0421078Y0200731D01*
X0421007Y0200733D01*
X0420936Y0200731D01*
X0420865Y0200725D01*
X0420795Y0200716D01*
X0420725Y0200702D01*
X0420656Y0200685D01*
X0420588Y0200664D01*
X0420522Y0200640D01*
X0420457Y0200612D01*
X0420393Y0200580D01*
X0420331Y0200545D01*
X0420271Y0200507D01*
X0420214Y0200466D01*
X0420158Y0200421D01*
X0420105Y0200374D01*
X0420055Y0200324D01*
X0420008Y0200271D01*
X0419963Y0200215D01*
X0419922Y0200158D01*
X0419884Y0200098D01*
X0419849Y0200036D01*
X0419817Y0199972D01*
X0419789Y0199907D01*
X0419765Y0199841D01*
X0419744Y0199773D01*
X0419727Y0199704D01*
X0419713Y0199634D01*
X0419704Y0199564D01*
X0419698Y0199493D01*
X0419696Y0199422D01*
X0419695Y0199422D02*
X0419695Y0198111D01*
X0419696Y0198111D02*
X0419698Y0198040D01*
X0419704Y0197969D01*
X0419713Y0197899D01*
X0419727Y0197829D01*
X0419744Y0197760D01*
X0419765Y0197692D01*
X0419789Y0197626D01*
X0419817Y0197561D01*
X0419849Y0197497D01*
X0419884Y0197435D01*
X0419922Y0197375D01*
X0419963Y0197318D01*
X0420008Y0197262D01*
X0420055Y0197209D01*
X0420105Y0197159D01*
X0420158Y0197112D01*
X0420214Y0197067D01*
X0420271Y0197026D01*
X0420331Y0196988D01*
X0420393Y0196953D01*
X0420457Y0196921D01*
X0420522Y0196893D01*
X0420588Y0196869D01*
X0420656Y0196848D01*
X0420725Y0196831D01*
X0420795Y0196817D01*
X0420865Y0196808D01*
X0420936Y0196802D01*
X0421007Y0196800D01*
X0421078Y0196802D01*
X0421149Y0196808D01*
X0421219Y0196817D01*
X0421289Y0196831D01*
X0421358Y0196848D01*
X0421426Y0196869D01*
X0421492Y0196893D01*
X0421557Y0196921D01*
X0421621Y0196953D01*
X0421683Y0196988D01*
X0421743Y0197026D01*
X0421800Y0197067D01*
X0421856Y0197112D01*
X0421909Y0197159D01*
X0421959Y0197209D01*
X0422006Y0197262D01*
X0422051Y0197318D01*
X0422092Y0197375D01*
X0422130Y0197435D01*
X0422165Y0197497D01*
X0422197Y0197561D01*
X0422225Y0197626D01*
X0422249Y0197692D01*
X0422270Y0197760D01*
X0422287Y0197829D01*
X0422301Y0197899D01*
X0422310Y0197969D01*
X0422316Y0198040D01*
X0422318Y0198111D01*
X0417282Y0196800D02*
X0415971Y0196800D01*
X0415909Y0196802D01*
X0415848Y0196808D01*
X0415787Y0196817D01*
X0415727Y0196831D01*
X0415667Y0196848D01*
X0415609Y0196869D01*
X0415552Y0196894D01*
X0415497Y0196922D01*
X0415444Y0196953D01*
X0415393Y0196988D01*
X0415344Y0197026D01*
X0415298Y0197066D01*
X0415254Y0197110D01*
X0415214Y0197156D01*
X0415176Y0197205D01*
X0415141Y0197256D01*
X0415110Y0197309D01*
X0415082Y0197364D01*
X0415057Y0197421D01*
X0415036Y0197479D01*
X0415019Y0197539D01*
X0415005Y0197599D01*
X0414996Y0197660D01*
X0414990Y0197721D01*
X0414988Y0197783D01*
X0414988Y0199750D01*
X0414990Y0199812D01*
X0414996Y0199873D01*
X0415005Y0199934D01*
X0415019Y0199994D01*
X0415036Y0200054D01*
X0415057Y0200112D01*
X0415082Y0200169D01*
X0415110Y0200224D01*
X0415141Y0200277D01*
X0415176Y0200328D01*
X0415214Y0200377D01*
X0415254Y0200423D01*
X0415298Y0200467D01*
X0415344Y0200507D01*
X0415393Y0200545D01*
X0415444Y0200580D01*
X0415497Y0200611D01*
X0415552Y0200639D01*
X0415609Y0200664D01*
X0415667Y0200685D01*
X0415727Y0200702D01*
X0415787Y0200716D01*
X0415848Y0200725D01*
X0415909Y0200731D01*
X0415971Y0200733D01*
X0417282Y0200733D01*
X0411774Y0198439D02*
X0410136Y0199094D01*
X0410135Y0199095D02*
X0410083Y0199118D01*
X0410032Y0199145D01*
X0409983Y0199175D01*
X0409936Y0199208D01*
X0409891Y0199244D01*
X0409849Y0199284D01*
X0409810Y0199326D01*
X0409774Y0199370D01*
X0409741Y0199417D01*
X0409711Y0199467D01*
X0409684Y0199518D01*
X0409661Y0199570D01*
X0409642Y0199624D01*
X0409626Y0199680D01*
X0409614Y0199736D01*
X0409606Y0199793D01*
X0409602Y0199850D01*
X0409601Y0199908D01*
X0409605Y0199965D01*
X0409612Y0200022D01*
X0409624Y0200079D01*
X0409639Y0200134D01*
X0409657Y0200189D01*
X0409680Y0200242D01*
X0409706Y0200293D01*
X0409735Y0200342D01*
X0409768Y0200390D01*
X0409804Y0200435D01*
X0409842Y0200477D01*
X0409884Y0200517D01*
X0409928Y0200554D01*
X0409975Y0200588D01*
X0410023Y0200619D01*
X0410074Y0200646D01*
X0410126Y0200670D01*
X0410180Y0200690D01*
X0410235Y0200706D01*
X0410291Y0200719D01*
X0410348Y0200728D01*
X0410406Y0200733D01*
X0410463Y0200734D01*
X0409644Y0197128D02*
X0409778Y0197082D01*
X0409913Y0197039D01*
X0410049Y0197000D01*
X0410186Y0196964D01*
X0410323Y0196932D01*
X0410462Y0196903D01*
X0410601Y0196877D01*
X0410741Y0196856D01*
X0410882Y0196837D01*
X0411022Y0196823D01*
X0411164Y0196812D01*
X0411305Y0196804D01*
X0411447Y0196801D01*
X0411447Y0196800D02*
X0411504Y0196801D01*
X0411562Y0196806D01*
X0411619Y0196815D01*
X0411675Y0196828D01*
X0411730Y0196844D01*
X0411784Y0196864D01*
X0411836Y0196888D01*
X0411887Y0196915D01*
X0411935Y0196946D01*
X0411982Y0196980D01*
X0412026Y0197017D01*
X0412068Y0197057D01*
X0412106Y0197099D01*
X0412142Y0197144D01*
X0412175Y0197192D01*
X0412204Y0197241D01*
X0412230Y0197292D01*
X0412253Y0197345D01*
X0412271Y0197400D01*
X0412286Y0197455D01*
X0412298Y0197512D01*
X0412305Y0197569D01*
X0412309Y0197626D01*
X0412308Y0197684D01*
X0412304Y0197741D01*
X0412296Y0197798D01*
X0412284Y0197854D01*
X0412268Y0197910D01*
X0412249Y0197964D01*
X0412226Y0198016D01*
X0412199Y0198067D01*
X0412169Y0198117D01*
X0412136Y0198164D01*
X0412100Y0198208D01*
X0412061Y0198250D01*
X0412019Y0198290D01*
X0411974Y0198326D01*
X0411927Y0198359D01*
X0411878Y0198389D01*
X0411827Y0198416D01*
X0411775Y0198439D01*
X0411938Y0200405D02*
X0411831Y0200451D01*
X0411722Y0200494D01*
X0411612Y0200534D01*
X0411500Y0200570D01*
X0411388Y0200602D01*
X0411274Y0200631D01*
X0411160Y0200657D01*
X0411045Y0200678D01*
X0410930Y0200697D01*
X0410813Y0200711D01*
X0410697Y0200722D01*
X0410580Y0200729D01*
X0410463Y0200733D01*
X0406768Y0199094D02*
X0402834Y0199094D01*
X0400163Y0200733D02*
X0398852Y0196800D01*
X0397541Y0200733D01*
X0350959Y0256800D02*
X0349320Y0256800D01*
X0349258Y0256802D01*
X0349197Y0256808D01*
X0349136Y0256817D01*
X0349076Y0256831D01*
X0349016Y0256848D01*
X0348958Y0256869D01*
X0348901Y0256894D01*
X0348846Y0256922D01*
X0348793Y0256953D01*
X0348742Y0256988D01*
X0348693Y0257026D01*
X0348647Y0257066D01*
X0348603Y0257110D01*
X0348563Y0257156D01*
X0348525Y0257205D01*
X0348490Y0257256D01*
X0348459Y0257309D01*
X0348431Y0257364D01*
X0348406Y0257421D01*
X0348385Y0257479D01*
X0348368Y0257539D01*
X0348354Y0257599D01*
X0348345Y0257660D01*
X0348339Y0257721D01*
X0348337Y0257783D01*
X0348337Y0259422D01*
X0348337Y0258767D02*
X0350959Y0258767D01*
X0350959Y0259422D01*
X0350957Y0259493D01*
X0350951Y0259564D01*
X0350942Y0259634D01*
X0350928Y0259704D01*
X0350911Y0259773D01*
X0350890Y0259841D01*
X0350866Y0259907D01*
X0350838Y0259972D01*
X0350806Y0260036D01*
X0350771Y0260098D01*
X0350733Y0260158D01*
X0350692Y0260215D01*
X0350647Y0260271D01*
X0350600Y0260324D01*
X0350550Y0260374D01*
X0350497Y0260421D01*
X0350441Y0260466D01*
X0350384Y0260507D01*
X0350324Y0260545D01*
X0350262Y0260580D01*
X0350198Y0260612D01*
X0350133Y0260640D01*
X0350067Y0260664D01*
X0349999Y0260685D01*
X0349930Y0260702D01*
X0349860Y0260716D01*
X0349790Y0260725D01*
X0349719Y0260731D01*
X0349648Y0260733D01*
X0349577Y0260731D01*
X0349506Y0260725D01*
X0349436Y0260716D01*
X0349366Y0260702D01*
X0349297Y0260685D01*
X0349229Y0260664D01*
X0349163Y0260640D01*
X0349098Y0260612D01*
X0349034Y0260580D01*
X0348972Y0260545D01*
X0348912Y0260507D01*
X0348855Y0260466D01*
X0348799Y0260421D01*
X0348746Y0260374D01*
X0348696Y0260324D01*
X0348649Y0260271D01*
X0348604Y0260215D01*
X0348563Y0260158D01*
X0348525Y0260098D01*
X0348490Y0260036D01*
X0348458Y0259972D01*
X0348430Y0259907D01*
X0348406Y0259841D01*
X0348385Y0259773D01*
X0348368Y0259704D01*
X0348354Y0259634D01*
X0348345Y0259564D01*
X0348339Y0259493D01*
X0348337Y0259422D01*
X0346251Y0260078D02*
X0346251Y0260733D01*
X0344284Y0260733D01*
X0344284Y0256800D01*
X0341318Y0258111D02*
X0341318Y0259422D01*
X0341316Y0259493D01*
X0341310Y0259564D01*
X0341301Y0259634D01*
X0341287Y0259704D01*
X0341270Y0259773D01*
X0341249Y0259841D01*
X0341225Y0259907D01*
X0341197Y0259972D01*
X0341165Y0260036D01*
X0341130Y0260098D01*
X0341092Y0260158D01*
X0341051Y0260215D01*
X0341006Y0260271D01*
X0340959Y0260324D01*
X0340909Y0260374D01*
X0340856Y0260421D01*
X0340800Y0260466D01*
X0340743Y0260507D01*
X0340683Y0260545D01*
X0340621Y0260580D01*
X0340557Y0260612D01*
X0340492Y0260640D01*
X0340426Y0260664D01*
X0340358Y0260685D01*
X0340289Y0260702D01*
X0340219Y0260716D01*
X0340149Y0260725D01*
X0340078Y0260731D01*
X0340007Y0260733D01*
X0339936Y0260731D01*
X0339865Y0260725D01*
X0339795Y0260716D01*
X0339725Y0260702D01*
X0339656Y0260685D01*
X0339588Y0260664D01*
X0339522Y0260640D01*
X0339457Y0260612D01*
X0339393Y0260580D01*
X0339331Y0260545D01*
X0339271Y0260507D01*
X0339214Y0260466D01*
X0339158Y0260421D01*
X0339105Y0260374D01*
X0339055Y0260324D01*
X0339008Y0260271D01*
X0338963Y0260215D01*
X0338922Y0260158D01*
X0338884Y0260098D01*
X0338849Y0260036D01*
X0338817Y0259972D01*
X0338789Y0259907D01*
X0338765Y0259841D01*
X0338744Y0259773D01*
X0338727Y0259704D01*
X0338713Y0259634D01*
X0338704Y0259564D01*
X0338698Y0259493D01*
X0338696Y0259422D01*
X0338695Y0259422D02*
X0338695Y0258111D01*
X0338696Y0258111D02*
X0338698Y0258040D01*
X0338704Y0257969D01*
X0338713Y0257899D01*
X0338727Y0257829D01*
X0338744Y0257760D01*
X0338765Y0257692D01*
X0338789Y0257626D01*
X0338817Y0257561D01*
X0338849Y0257497D01*
X0338884Y0257435D01*
X0338922Y0257375D01*
X0338963Y0257318D01*
X0339008Y0257262D01*
X0339055Y0257209D01*
X0339105Y0257159D01*
X0339158Y0257112D01*
X0339214Y0257067D01*
X0339271Y0257026D01*
X0339331Y0256988D01*
X0339393Y0256953D01*
X0339457Y0256921D01*
X0339522Y0256893D01*
X0339588Y0256869D01*
X0339656Y0256848D01*
X0339725Y0256831D01*
X0339795Y0256817D01*
X0339865Y0256808D01*
X0339936Y0256802D01*
X0340007Y0256800D01*
X0340078Y0256802D01*
X0340149Y0256808D01*
X0340219Y0256817D01*
X0340289Y0256831D01*
X0340358Y0256848D01*
X0340426Y0256869D01*
X0340492Y0256893D01*
X0340557Y0256921D01*
X0340621Y0256953D01*
X0340683Y0256988D01*
X0340743Y0257026D01*
X0340800Y0257067D01*
X0340856Y0257112D01*
X0340909Y0257159D01*
X0340959Y0257209D01*
X0341006Y0257262D01*
X0341051Y0257318D01*
X0341092Y0257375D01*
X0341130Y0257435D01*
X0341165Y0257497D01*
X0341197Y0257561D01*
X0341225Y0257626D01*
X0341249Y0257692D01*
X0341270Y0257760D01*
X0341287Y0257829D01*
X0341301Y0257899D01*
X0341310Y0257969D01*
X0341316Y0258040D01*
X0341318Y0258111D01*
X0336282Y0256800D02*
X0334971Y0256800D01*
X0334909Y0256802D01*
X0334848Y0256808D01*
X0334787Y0256817D01*
X0334727Y0256831D01*
X0334667Y0256848D01*
X0334609Y0256869D01*
X0334552Y0256894D01*
X0334497Y0256922D01*
X0334444Y0256953D01*
X0334393Y0256988D01*
X0334344Y0257026D01*
X0334298Y0257066D01*
X0334254Y0257110D01*
X0334214Y0257156D01*
X0334176Y0257205D01*
X0334141Y0257256D01*
X0334110Y0257309D01*
X0334082Y0257364D01*
X0334057Y0257421D01*
X0334036Y0257479D01*
X0334019Y0257539D01*
X0334005Y0257599D01*
X0333996Y0257660D01*
X0333990Y0257721D01*
X0333988Y0257783D01*
X0333988Y0259750D01*
X0333990Y0259812D01*
X0333996Y0259873D01*
X0334005Y0259934D01*
X0334019Y0259994D01*
X0334036Y0260054D01*
X0334057Y0260112D01*
X0334082Y0260169D01*
X0334110Y0260224D01*
X0334141Y0260277D01*
X0334176Y0260328D01*
X0334214Y0260377D01*
X0334254Y0260423D01*
X0334298Y0260467D01*
X0334344Y0260507D01*
X0334393Y0260545D01*
X0334444Y0260580D01*
X0334497Y0260611D01*
X0334552Y0260639D01*
X0334609Y0260664D01*
X0334667Y0260685D01*
X0334727Y0260702D01*
X0334787Y0260716D01*
X0334848Y0260725D01*
X0334909Y0260731D01*
X0334971Y0260733D01*
X0336282Y0260733D01*
X0330774Y0258439D02*
X0329136Y0259094D01*
X0329135Y0259095D02*
X0329083Y0259118D01*
X0329032Y0259145D01*
X0328983Y0259175D01*
X0328936Y0259208D01*
X0328891Y0259244D01*
X0328849Y0259284D01*
X0328810Y0259326D01*
X0328774Y0259370D01*
X0328741Y0259417D01*
X0328711Y0259467D01*
X0328684Y0259518D01*
X0328661Y0259570D01*
X0328642Y0259624D01*
X0328626Y0259680D01*
X0328614Y0259736D01*
X0328606Y0259793D01*
X0328602Y0259850D01*
X0328601Y0259908D01*
X0328605Y0259965D01*
X0328612Y0260022D01*
X0328624Y0260079D01*
X0328639Y0260134D01*
X0328657Y0260189D01*
X0328680Y0260242D01*
X0328706Y0260293D01*
X0328735Y0260342D01*
X0328768Y0260390D01*
X0328804Y0260435D01*
X0328842Y0260477D01*
X0328884Y0260517D01*
X0328928Y0260554D01*
X0328975Y0260588D01*
X0329023Y0260619D01*
X0329074Y0260646D01*
X0329126Y0260670D01*
X0329180Y0260690D01*
X0329235Y0260706D01*
X0329291Y0260719D01*
X0329348Y0260728D01*
X0329406Y0260733D01*
X0329463Y0260734D01*
X0328644Y0257128D02*
X0328778Y0257082D01*
X0328913Y0257039D01*
X0329049Y0257000D01*
X0329186Y0256964D01*
X0329323Y0256932D01*
X0329462Y0256903D01*
X0329601Y0256877D01*
X0329741Y0256856D01*
X0329882Y0256837D01*
X0330022Y0256823D01*
X0330164Y0256812D01*
X0330305Y0256804D01*
X0330447Y0256801D01*
X0330447Y0256800D02*
X0330504Y0256801D01*
X0330562Y0256806D01*
X0330619Y0256815D01*
X0330675Y0256828D01*
X0330730Y0256844D01*
X0330784Y0256864D01*
X0330836Y0256888D01*
X0330887Y0256915D01*
X0330935Y0256946D01*
X0330982Y0256980D01*
X0331026Y0257017D01*
X0331068Y0257057D01*
X0331106Y0257099D01*
X0331142Y0257144D01*
X0331175Y0257192D01*
X0331204Y0257241D01*
X0331230Y0257292D01*
X0331253Y0257345D01*
X0331271Y0257400D01*
X0331286Y0257455D01*
X0331298Y0257512D01*
X0331305Y0257569D01*
X0331309Y0257626D01*
X0331308Y0257684D01*
X0331304Y0257741D01*
X0331296Y0257798D01*
X0331284Y0257854D01*
X0331268Y0257910D01*
X0331249Y0257964D01*
X0331226Y0258016D01*
X0331199Y0258067D01*
X0331169Y0258117D01*
X0331136Y0258164D01*
X0331100Y0258208D01*
X0331061Y0258250D01*
X0331019Y0258290D01*
X0330974Y0258326D01*
X0330927Y0258359D01*
X0330878Y0258389D01*
X0330827Y0258416D01*
X0330775Y0258439D01*
X0330938Y0260405D02*
X0330831Y0260451D01*
X0330722Y0260494D01*
X0330612Y0260534D01*
X0330500Y0260570D01*
X0330388Y0260602D01*
X0330274Y0260631D01*
X0330160Y0260657D01*
X0330045Y0260678D01*
X0329930Y0260697D01*
X0329813Y0260711D01*
X0329697Y0260722D01*
X0329580Y0260729D01*
X0329463Y0260733D01*
X0325768Y0259094D02*
X0321834Y0259094D01*
X0319163Y0260733D02*
X0317852Y0256800D01*
X0316541Y0260733D01*
X0248959Y0259422D02*
X0248959Y0258767D01*
X0246337Y0258767D01*
X0246337Y0259422D02*
X0246337Y0257783D01*
X0246339Y0257721D01*
X0246345Y0257660D01*
X0246354Y0257599D01*
X0246368Y0257539D01*
X0246385Y0257479D01*
X0246406Y0257421D01*
X0246431Y0257364D01*
X0246459Y0257309D01*
X0246490Y0257256D01*
X0246525Y0257205D01*
X0246563Y0257156D01*
X0246603Y0257110D01*
X0246647Y0257066D01*
X0246693Y0257026D01*
X0246742Y0256988D01*
X0246793Y0256953D01*
X0246846Y0256922D01*
X0246901Y0256894D01*
X0246958Y0256869D01*
X0247016Y0256848D01*
X0247076Y0256831D01*
X0247136Y0256817D01*
X0247197Y0256808D01*
X0247258Y0256802D01*
X0247320Y0256800D01*
X0248959Y0256800D01*
X0248959Y0259422D02*
X0248957Y0259493D01*
X0248951Y0259564D01*
X0248942Y0259634D01*
X0248928Y0259704D01*
X0248911Y0259773D01*
X0248890Y0259841D01*
X0248866Y0259907D01*
X0248838Y0259972D01*
X0248806Y0260036D01*
X0248771Y0260098D01*
X0248733Y0260158D01*
X0248692Y0260215D01*
X0248647Y0260271D01*
X0248600Y0260324D01*
X0248550Y0260374D01*
X0248497Y0260421D01*
X0248441Y0260466D01*
X0248384Y0260507D01*
X0248324Y0260545D01*
X0248262Y0260580D01*
X0248198Y0260612D01*
X0248133Y0260640D01*
X0248067Y0260664D01*
X0247999Y0260685D01*
X0247930Y0260702D01*
X0247860Y0260716D01*
X0247790Y0260725D01*
X0247719Y0260731D01*
X0247648Y0260733D01*
X0247577Y0260731D01*
X0247506Y0260725D01*
X0247436Y0260716D01*
X0247366Y0260702D01*
X0247297Y0260685D01*
X0247229Y0260664D01*
X0247163Y0260640D01*
X0247098Y0260612D01*
X0247034Y0260580D01*
X0246972Y0260545D01*
X0246912Y0260507D01*
X0246855Y0260466D01*
X0246799Y0260421D01*
X0246746Y0260374D01*
X0246696Y0260324D01*
X0246649Y0260271D01*
X0246604Y0260215D01*
X0246563Y0260158D01*
X0246525Y0260098D01*
X0246490Y0260036D01*
X0246458Y0259972D01*
X0246430Y0259907D01*
X0246406Y0259841D01*
X0246385Y0259773D01*
X0246368Y0259704D01*
X0246354Y0259634D01*
X0246345Y0259564D01*
X0246339Y0259493D01*
X0246337Y0259422D01*
X0244251Y0260078D02*
X0244251Y0260733D01*
X0242284Y0260733D01*
X0242284Y0256800D01*
X0239318Y0258111D02*
X0239318Y0259422D01*
X0239316Y0259493D01*
X0239310Y0259564D01*
X0239301Y0259634D01*
X0239287Y0259704D01*
X0239270Y0259773D01*
X0239249Y0259841D01*
X0239225Y0259907D01*
X0239197Y0259972D01*
X0239165Y0260036D01*
X0239130Y0260098D01*
X0239092Y0260158D01*
X0239051Y0260215D01*
X0239006Y0260271D01*
X0238959Y0260324D01*
X0238909Y0260374D01*
X0238856Y0260421D01*
X0238800Y0260466D01*
X0238743Y0260507D01*
X0238683Y0260545D01*
X0238621Y0260580D01*
X0238557Y0260612D01*
X0238492Y0260640D01*
X0238426Y0260664D01*
X0238358Y0260685D01*
X0238289Y0260702D01*
X0238219Y0260716D01*
X0238149Y0260725D01*
X0238078Y0260731D01*
X0238007Y0260733D01*
X0237936Y0260731D01*
X0237865Y0260725D01*
X0237795Y0260716D01*
X0237725Y0260702D01*
X0237656Y0260685D01*
X0237588Y0260664D01*
X0237522Y0260640D01*
X0237457Y0260612D01*
X0237393Y0260580D01*
X0237331Y0260545D01*
X0237271Y0260507D01*
X0237214Y0260466D01*
X0237158Y0260421D01*
X0237105Y0260374D01*
X0237055Y0260324D01*
X0237008Y0260271D01*
X0236963Y0260215D01*
X0236922Y0260158D01*
X0236884Y0260098D01*
X0236849Y0260036D01*
X0236817Y0259972D01*
X0236789Y0259907D01*
X0236765Y0259841D01*
X0236744Y0259773D01*
X0236727Y0259704D01*
X0236713Y0259634D01*
X0236704Y0259564D01*
X0236698Y0259493D01*
X0236696Y0259422D01*
X0236695Y0259422D02*
X0236695Y0258111D01*
X0236696Y0258111D02*
X0236698Y0258040D01*
X0236704Y0257969D01*
X0236713Y0257899D01*
X0236727Y0257829D01*
X0236744Y0257760D01*
X0236765Y0257692D01*
X0236789Y0257626D01*
X0236817Y0257561D01*
X0236849Y0257497D01*
X0236884Y0257435D01*
X0236922Y0257375D01*
X0236963Y0257318D01*
X0237008Y0257262D01*
X0237055Y0257209D01*
X0237105Y0257159D01*
X0237158Y0257112D01*
X0237214Y0257067D01*
X0237271Y0257026D01*
X0237331Y0256988D01*
X0237393Y0256953D01*
X0237457Y0256921D01*
X0237522Y0256893D01*
X0237588Y0256869D01*
X0237656Y0256848D01*
X0237725Y0256831D01*
X0237795Y0256817D01*
X0237865Y0256808D01*
X0237936Y0256802D01*
X0238007Y0256800D01*
X0238078Y0256802D01*
X0238149Y0256808D01*
X0238219Y0256817D01*
X0238289Y0256831D01*
X0238358Y0256848D01*
X0238426Y0256869D01*
X0238492Y0256893D01*
X0238557Y0256921D01*
X0238621Y0256953D01*
X0238683Y0256988D01*
X0238743Y0257026D01*
X0238800Y0257067D01*
X0238856Y0257112D01*
X0238909Y0257159D01*
X0238959Y0257209D01*
X0239006Y0257262D01*
X0239051Y0257318D01*
X0239092Y0257375D01*
X0239130Y0257435D01*
X0239165Y0257497D01*
X0239197Y0257561D01*
X0239225Y0257626D01*
X0239249Y0257692D01*
X0239270Y0257760D01*
X0239287Y0257829D01*
X0239301Y0257899D01*
X0239310Y0257969D01*
X0239316Y0258040D01*
X0239318Y0258111D01*
X0234282Y0256800D02*
X0232971Y0256800D01*
X0232909Y0256802D01*
X0232848Y0256808D01*
X0232787Y0256817D01*
X0232727Y0256831D01*
X0232667Y0256848D01*
X0232609Y0256869D01*
X0232552Y0256894D01*
X0232497Y0256922D01*
X0232444Y0256953D01*
X0232393Y0256988D01*
X0232344Y0257026D01*
X0232298Y0257066D01*
X0232254Y0257110D01*
X0232214Y0257156D01*
X0232176Y0257205D01*
X0232141Y0257256D01*
X0232110Y0257309D01*
X0232082Y0257364D01*
X0232057Y0257421D01*
X0232036Y0257479D01*
X0232019Y0257539D01*
X0232005Y0257599D01*
X0231996Y0257660D01*
X0231990Y0257721D01*
X0231988Y0257783D01*
X0231988Y0259750D01*
X0231990Y0259812D01*
X0231996Y0259873D01*
X0232005Y0259934D01*
X0232019Y0259994D01*
X0232036Y0260054D01*
X0232057Y0260112D01*
X0232082Y0260169D01*
X0232110Y0260224D01*
X0232141Y0260277D01*
X0232176Y0260328D01*
X0232214Y0260377D01*
X0232254Y0260423D01*
X0232298Y0260467D01*
X0232344Y0260507D01*
X0232393Y0260545D01*
X0232444Y0260580D01*
X0232497Y0260611D01*
X0232552Y0260639D01*
X0232609Y0260664D01*
X0232667Y0260685D01*
X0232727Y0260702D01*
X0232787Y0260716D01*
X0232848Y0260725D01*
X0232909Y0260731D01*
X0232971Y0260733D01*
X0234282Y0260733D01*
X0228774Y0258439D02*
X0227136Y0259094D01*
X0227135Y0259095D02*
X0227083Y0259118D01*
X0227032Y0259145D01*
X0226983Y0259175D01*
X0226936Y0259208D01*
X0226891Y0259244D01*
X0226849Y0259284D01*
X0226810Y0259326D01*
X0226774Y0259370D01*
X0226741Y0259417D01*
X0226711Y0259467D01*
X0226684Y0259518D01*
X0226661Y0259570D01*
X0226642Y0259624D01*
X0226626Y0259680D01*
X0226614Y0259736D01*
X0226606Y0259793D01*
X0226602Y0259850D01*
X0226601Y0259908D01*
X0226605Y0259965D01*
X0226612Y0260022D01*
X0226624Y0260079D01*
X0226639Y0260134D01*
X0226657Y0260189D01*
X0226680Y0260242D01*
X0226706Y0260293D01*
X0226735Y0260342D01*
X0226768Y0260390D01*
X0226804Y0260435D01*
X0226842Y0260477D01*
X0226884Y0260517D01*
X0226928Y0260554D01*
X0226975Y0260588D01*
X0227023Y0260619D01*
X0227074Y0260646D01*
X0227126Y0260670D01*
X0227180Y0260690D01*
X0227235Y0260706D01*
X0227291Y0260719D01*
X0227348Y0260728D01*
X0227406Y0260733D01*
X0227463Y0260734D01*
X0226644Y0257128D02*
X0226778Y0257082D01*
X0226913Y0257039D01*
X0227049Y0257000D01*
X0227186Y0256964D01*
X0227323Y0256932D01*
X0227462Y0256903D01*
X0227601Y0256877D01*
X0227741Y0256856D01*
X0227882Y0256837D01*
X0228022Y0256823D01*
X0228164Y0256812D01*
X0228305Y0256804D01*
X0228447Y0256801D01*
X0228447Y0256800D02*
X0228504Y0256801D01*
X0228562Y0256806D01*
X0228619Y0256815D01*
X0228675Y0256828D01*
X0228730Y0256844D01*
X0228784Y0256864D01*
X0228836Y0256888D01*
X0228887Y0256915D01*
X0228935Y0256946D01*
X0228982Y0256980D01*
X0229026Y0257017D01*
X0229068Y0257057D01*
X0229106Y0257099D01*
X0229142Y0257144D01*
X0229175Y0257192D01*
X0229204Y0257241D01*
X0229230Y0257292D01*
X0229253Y0257345D01*
X0229271Y0257400D01*
X0229286Y0257455D01*
X0229298Y0257512D01*
X0229305Y0257569D01*
X0229309Y0257626D01*
X0229308Y0257684D01*
X0229304Y0257741D01*
X0229296Y0257798D01*
X0229284Y0257854D01*
X0229268Y0257910D01*
X0229249Y0257964D01*
X0229226Y0258016D01*
X0229199Y0258067D01*
X0229169Y0258117D01*
X0229136Y0258164D01*
X0229100Y0258208D01*
X0229061Y0258250D01*
X0229019Y0258290D01*
X0228974Y0258326D01*
X0228927Y0258359D01*
X0228878Y0258389D01*
X0228827Y0258416D01*
X0228775Y0258439D01*
X0228938Y0260405D02*
X0228831Y0260451D01*
X0228722Y0260494D01*
X0228612Y0260534D01*
X0228500Y0260570D01*
X0228388Y0260602D01*
X0228274Y0260631D01*
X0228160Y0260657D01*
X0228045Y0260678D01*
X0227930Y0260697D01*
X0227813Y0260711D01*
X0227697Y0260722D01*
X0227580Y0260729D01*
X0227463Y0260733D01*
X0223768Y0259094D02*
X0219834Y0259094D01*
X0217163Y0260733D02*
X0215852Y0256800D01*
X0214541Y0260733D01*
X0146959Y0259422D02*
X0146959Y0258767D01*
X0144337Y0258767D01*
X0144337Y0259422D02*
X0144337Y0257783D01*
X0144339Y0257721D01*
X0144345Y0257660D01*
X0144354Y0257599D01*
X0144368Y0257539D01*
X0144385Y0257479D01*
X0144406Y0257421D01*
X0144431Y0257364D01*
X0144459Y0257309D01*
X0144490Y0257256D01*
X0144525Y0257205D01*
X0144563Y0257156D01*
X0144603Y0257110D01*
X0144647Y0257066D01*
X0144693Y0257026D01*
X0144742Y0256988D01*
X0144793Y0256953D01*
X0144846Y0256922D01*
X0144901Y0256894D01*
X0144958Y0256869D01*
X0145016Y0256848D01*
X0145076Y0256831D01*
X0145136Y0256817D01*
X0145197Y0256808D01*
X0145258Y0256802D01*
X0145320Y0256800D01*
X0146959Y0256800D01*
X0146959Y0259422D02*
X0146957Y0259493D01*
X0146951Y0259564D01*
X0146942Y0259634D01*
X0146928Y0259704D01*
X0146911Y0259773D01*
X0146890Y0259841D01*
X0146866Y0259907D01*
X0146838Y0259972D01*
X0146806Y0260036D01*
X0146771Y0260098D01*
X0146733Y0260158D01*
X0146692Y0260215D01*
X0146647Y0260271D01*
X0146600Y0260324D01*
X0146550Y0260374D01*
X0146497Y0260421D01*
X0146441Y0260466D01*
X0146384Y0260507D01*
X0146324Y0260545D01*
X0146262Y0260580D01*
X0146198Y0260612D01*
X0146133Y0260640D01*
X0146067Y0260664D01*
X0145999Y0260685D01*
X0145930Y0260702D01*
X0145860Y0260716D01*
X0145790Y0260725D01*
X0145719Y0260731D01*
X0145648Y0260733D01*
X0145577Y0260731D01*
X0145506Y0260725D01*
X0145436Y0260716D01*
X0145366Y0260702D01*
X0145297Y0260685D01*
X0145229Y0260664D01*
X0145163Y0260640D01*
X0145098Y0260612D01*
X0145034Y0260580D01*
X0144972Y0260545D01*
X0144912Y0260507D01*
X0144855Y0260466D01*
X0144799Y0260421D01*
X0144746Y0260374D01*
X0144696Y0260324D01*
X0144649Y0260271D01*
X0144604Y0260215D01*
X0144563Y0260158D01*
X0144525Y0260098D01*
X0144490Y0260036D01*
X0144458Y0259972D01*
X0144430Y0259907D01*
X0144406Y0259841D01*
X0144385Y0259773D01*
X0144368Y0259704D01*
X0144354Y0259634D01*
X0144345Y0259564D01*
X0144339Y0259493D01*
X0144337Y0259422D01*
X0142251Y0260078D02*
X0142251Y0260733D01*
X0140284Y0260733D01*
X0140284Y0256800D01*
X0137318Y0258111D02*
X0137318Y0259422D01*
X0137316Y0259493D01*
X0137310Y0259564D01*
X0137301Y0259634D01*
X0137287Y0259704D01*
X0137270Y0259773D01*
X0137249Y0259841D01*
X0137225Y0259907D01*
X0137197Y0259972D01*
X0137165Y0260036D01*
X0137130Y0260098D01*
X0137092Y0260158D01*
X0137051Y0260215D01*
X0137006Y0260271D01*
X0136959Y0260324D01*
X0136909Y0260374D01*
X0136856Y0260421D01*
X0136800Y0260466D01*
X0136743Y0260507D01*
X0136683Y0260545D01*
X0136621Y0260580D01*
X0136557Y0260612D01*
X0136492Y0260640D01*
X0136426Y0260664D01*
X0136358Y0260685D01*
X0136289Y0260702D01*
X0136219Y0260716D01*
X0136149Y0260725D01*
X0136078Y0260731D01*
X0136007Y0260733D01*
X0135936Y0260731D01*
X0135865Y0260725D01*
X0135795Y0260716D01*
X0135725Y0260702D01*
X0135656Y0260685D01*
X0135588Y0260664D01*
X0135522Y0260640D01*
X0135457Y0260612D01*
X0135393Y0260580D01*
X0135331Y0260545D01*
X0135271Y0260507D01*
X0135214Y0260466D01*
X0135158Y0260421D01*
X0135105Y0260374D01*
X0135055Y0260324D01*
X0135008Y0260271D01*
X0134963Y0260215D01*
X0134922Y0260158D01*
X0134884Y0260098D01*
X0134849Y0260036D01*
X0134817Y0259972D01*
X0134789Y0259907D01*
X0134765Y0259841D01*
X0134744Y0259773D01*
X0134727Y0259704D01*
X0134713Y0259634D01*
X0134704Y0259564D01*
X0134698Y0259493D01*
X0134696Y0259422D01*
X0134695Y0259422D02*
X0134695Y0258111D01*
X0134696Y0258111D02*
X0134698Y0258040D01*
X0134704Y0257969D01*
X0134713Y0257899D01*
X0134727Y0257829D01*
X0134744Y0257760D01*
X0134765Y0257692D01*
X0134789Y0257626D01*
X0134817Y0257561D01*
X0134849Y0257497D01*
X0134884Y0257435D01*
X0134922Y0257375D01*
X0134963Y0257318D01*
X0135008Y0257262D01*
X0135055Y0257209D01*
X0135105Y0257159D01*
X0135158Y0257112D01*
X0135214Y0257067D01*
X0135271Y0257026D01*
X0135331Y0256988D01*
X0135393Y0256953D01*
X0135457Y0256921D01*
X0135522Y0256893D01*
X0135588Y0256869D01*
X0135656Y0256848D01*
X0135725Y0256831D01*
X0135795Y0256817D01*
X0135865Y0256808D01*
X0135936Y0256802D01*
X0136007Y0256800D01*
X0136078Y0256802D01*
X0136149Y0256808D01*
X0136219Y0256817D01*
X0136289Y0256831D01*
X0136358Y0256848D01*
X0136426Y0256869D01*
X0136492Y0256893D01*
X0136557Y0256921D01*
X0136621Y0256953D01*
X0136683Y0256988D01*
X0136743Y0257026D01*
X0136800Y0257067D01*
X0136856Y0257112D01*
X0136909Y0257159D01*
X0136959Y0257209D01*
X0137006Y0257262D01*
X0137051Y0257318D01*
X0137092Y0257375D01*
X0137130Y0257435D01*
X0137165Y0257497D01*
X0137197Y0257561D01*
X0137225Y0257626D01*
X0137249Y0257692D01*
X0137270Y0257760D01*
X0137287Y0257829D01*
X0137301Y0257899D01*
X0137310Y0257969D01*
X0137316Y0258040D01*
X0137318Y0258111D01*
X0132282Y0256800D02*
X0130971Y0256800D01*
X0130909Y0256802D01*
X0130848Y0256808D01*
X0130787Y0256817D01*
X0130727Y0256831D01*
X0130667Y0256848D01*
X0130609Y0256869D01*
X0130552Y0256894D01*
X0130497Y0256922D01*
X0130444Y0256953D01*
X0130393Y0256988D01*
X0130344Y0257026D01*
X0130298Y0257066D01*
X0130254Y0257110D01*
X0130214Y0257156D01*
X0130176Y0257205D01*
X0130141Y0257256D01*
X0130110Y0257309D01*
X0130082Y0257364D01*
X0130057Y0257421D01*
X0130036Y0257479D01*
X0130019Y0257539D01*
X0130005Y0257599D01*
X0129996Y0257660D01*
X0129990Y0257721D01*
X0129988Y0257783D01*
X0129988Y0259750D01*
X0129990Y0259812D01*
X0129996Y0259873D01*
X0130005Y0259934D01*
X0130019Y0259994D01*
X0130036Y0260054D01*
X0130057Y0260112D01*
X0130082Y0260169D01*
X0130110Y0260224D01*
X0130141Y0260277D01*
X0130176Y0260328D01*
X0130214Y0260377D01*
X0130254Y0260423D01*
X0130298Y0260467D01*
X0130344Y0260507D01*
X0130393Y0260545D01*
X0130444Y0260580D01*
X0130497Y0260611D01*
X0130552Y0260639D01*
X0130609Y0260664D01*
X0130667Y0260685D01*
X0130727Y0260702D01*
X0130787Y0260716D01*
X0130848Y0260725D01*
X0130909Y0260731D01*
X0130971Y0260733D01*
X0132282Y0260733D01*
X0126774Y0258439D02*
X0125136Y0259094D01*
X0125135Y0259095D02*
X0125083Y0259118D01*
X0125032Y0259145D01*
X0124983Y0259175D01*
X0124936Y0259208D01*
X0124891Y0259244D01*
X0124849Y0259284D01*
X0124810Y0259326D01*
X0124774Y0259370D01*
X0124741Y0259417D01*
X0124711Y0259467D01*
X0124684Y0259518D01*
X0124661Y0259570D01*
X0124642Y0259624D01*
X0124626Y0259680D01*
X0124614Y0259736D01*
X0124606Y0259793D01*
X0124602Y0259850D01*
X0124601Y0259908D01*
X0124605Y0259965D01*
X0124612Y0260022D01*
X0124624Y0260079D01*
X0124639Y0260134D01*
X0124657Y0260189D01*
X0124680Y0260242D01*
X0124706Y0260293D01*
X0124735Y0260342D01*
X0124768Y0260390D01*
X0124804Y0260435D01*
X0124842Y0260477D01*
X0124884Y0260517D01*
X0124928Y0260554D01*
X0124975Y0260588D01*
X0125023Y0260619D01*
X0125074Y0260646D01*
X0125126Y0260670D01*
X0125180Y0260690D01*
X0125235Y0260706D01*
X0125291Y0260719D01*
X0125348Y0260728D01*
X0125406Y0260733D01*
X0125463Y0260734D01*
X0124644Y0257128D02*
X0124778Y0257082D01*
X0124913Y0257039D01*
X0125049Y0257000D01*
X0125186Y0256964D01*
X0125323Y0256932D01*
X0125462Y0256903D01*
X0125601Y0256877D01*
X0125741Y0256856D01*
X0125882Y0256837D01*
X0126022Y0256823D01*
X0126164Y0256812D01*
X0126305Y0256804D01*
X0126447Y0256801D01*
X0126447Y0256800D02*
X0126504Y0256801D01*
X0126562Y0256806D01*
X0126619Y0256815D01*
X0126675Y0256828D01*
X0126730Y0256844D01*
X0126784Y0256864D01*
X0126836Y0256888D01*
X0126887Y0256915D01*
X0126935Y0256946D01*
X0126982Y0256980D01*
X0127026Y0257017D01*
X0127068Y0257057D01*
X0127106Y0257099D01*
X0127142Y0257144D01*
X0127175Y0257192D01*
X0127204Y0257241D01*
X0127230Y0257292D01*
X0127253Y0257345D01*
X0127271Y0257400D01*
X0127286Y0257455D01*
X0127298Y0257512D01*
X0127305Y0257569D01*
X0127309Y0257626D01*
X0127308Y0257684D01*
X0127304Y0257741D01*
X0127296Y0257798D01*
X0127284Y0257854D01*
X0127268Y0257910D01*
X0127249Y0257964D01*
X0127226Y0258016D01*
X0127199Y0258067D01*
X0127169Y0258117D01*
X0127136Y0258164D01*
X0127100Y0258208D01*
X0127061Y0258250D01*
X0127019Y0258290D01*
X0126974Y0258326D01*
X0126927Y0258359D01*
X0126878Y0258389D01*
X0126827Y0258416D01*
X0126775Y0258439D01*
X0126938Y0260405D02*
X0126831Y0260451D01*
X0126722Y0260494D01*
X0126612Y0260534D01*
X0126500Y0260570D01*
X0126388Y0260602D01*
X0126274Y0260631D01*
X0126160Y0260657D01*
X0126045Y0260678D01*
X0125930Y0260697D01*
X0125813Y0260711D01*
X0125697Y0260722D01*
X0125580Y0260729D01*
X0125463Y0260733D01*
X0121768Y0259094D02*
X0117834Y0259094D01*
X0115163Y0260733D02*
X0113852Y0256800D01*
X0112541Y0260733D01*
X0044959Y0259422D02*
X0044959Y0258767D01*
X0042337Y0258767D01*
X0042337Y0259422D02*
X0042337Y0257783D01*
X0042339Y0257721D01*
X0042345Y0257660D01*
X0042354Y0257599D01*
X0042368Y0257539D01*
X0042385Y0257479D01*
X0042406Y0257421D01*
X0042431Y0257364D01*
X0042459Y0257309D01*
X0042490Y0257256D01*
X0042525Y0257205D01*
X0042563Y0257156D01*
X0042603Y0257110D01*
X0042647Y0257066D01*
X0042693Y0257026D01*
X0042742Y0256988D01*
X0042793Y0256953D01*
X0042846Y0256922D01*
X0042901Y0256894D01*
X0042958Y0256869D01*
X0043016Y0256848D01*
X0043076Y0256831D01*
X0043136Y0256817D01*
X0043197Y0256808D01*
X0043258Y0256802D01*
X0043320Y0256800D01*
X0044959Y0256800D01*
X0044959Y0259422D02*
X0044957Y0259493D01*
X0044951Y0259564D01*
X0044942Y0259634D01*
X0044928Y0259704D01*
X0044911Y0259773D01*
X0044890Y0259841D01*
X0044866Y0259907D01*
X0044838Y0259972D01*
X0044806Y0260036D01*
X0044771Y0260098D01*
X0044733Y0260158D01*
X0044692Y0260215D01*
X0044647Y0260271D01*
X0044600Y0260324D01*
X0044550Y0260374D01*
X0044497Y0260421D01*
X0044441Y0260466D01*
X0044384Y0260507D01*
X0044324Y0260545D01*
X0044262Y0260580D01*
X0044198Y0260612D01*
X0044133Y0260640D01*
X0044067Y0260664D01*
X0043999Y0260685D01*
X0043930Y0260702D01*
X0043860Y0260716D01*
X0043790Y0260725D01*
X0043719Y0260731D01*
X0043648Y0260733D01*
X0043577Y0260731D01*
X0043506Y0260725D01*
X0043436Y0260716D01*
X0043366Y0260702D01*
X0043297Y0260685D01*
X0043229Y0260664D01*
X0043163Y0260640D01*
X0043098Y0260612D01*
X0043034Y0260580D01*
X0042972Y0260545D01*
X0042912Y0260507D01*
X0042855Y0260466D01*
X0042799Y0260421D01*
X0042746Y0260374D01*
X0042696Y0260324D01*
X0042649Y0260271D01*
X0042604Y0260215D01*
X0042563Y0260158D01*
X0042525Y0260098D01*
X0042490Y0260036D01*
X0042458Y0259972D01*
X0042430Y0259907D01*
X0042406Y0259841D01*
X0042385Y0259773D01*
X0042368Y0259704D01*
X0042354Y0259634D01*
X0042345Y0259564D01*
X0042339Y0259493D01*
X0042337Y0259422D01*
X0040251Y0260078D02*
X0040251Y0260733D01*
X0038284Y0260733D01*
X0038284Y0256800D01*
X0035318Y0258111D02*
X0035318Y0259422D01*
X0035316Y0259493D01*
X0035310Y0259564D01*
X0035301Y0259634D01*
X0035287Y0259704D01*
X0035270Y0259773D01*
X0035249Y0259841D01*
X0035225Y0259907D01*
X0035197Y0259972D01*
X0035165Y0260036D01*
X0035130Y0260098D01*
X0035092Y0260158D01*
X0035051Y0260215D01*
X0035006Y0260271D01*
X0034959Y0260324D01*
X0034909Y0260374D01*
X0034856Y0260421D01*
X0034800Y0260466D01*
X0034743Y0260507D01*
X0034683Y0260545D01*
X0034621Y0260580D01*
X0034557Y0260612D01*
X0034492Y0260640D01*
X0034426Y0260664D01*
X0034358Y0260685D01*
X0034289Y0260702D01*
X0034219Y0260716D01*
X0034149Y0260725D01*
X0034078Y0260731D01*
X0034007Y0260733D01*
X0033936Y0260731D01*
X0033865Y0260725D01*
X0033795Y0260716D01*
X0033725Y0260702D01*
X0033656Y0260685D01*
X0033588Y0260664D01*
X0033522Y0260640D01*
X0033457Y0260612D01*
X0033393Y0260580D01*
X0033331Y0260545D01*
X0033271Y0260507D01*
X0033214Y0260466D01*
X0033158Y0260421D01*
X0033105Y0260374D01*
X0033055Y0260324D01*
X0033008Y0260271D01*
X0032963Y0260215D01*
X0032922Y0260158D01*
X0032884Y0260098D01*
X0032849Y0260036D01*
X0032817Y0259972D01*
X0032789Y0259907D01*
X0032765Y0259841D01*
X0032744Y0259773D01*
X0032727Y0259704D01*
X0032713Y0259634D01*
X0032704Y0259564D01*
X0032698Y0259493D01*
X0032696Y0259422D01*
X0032695Y0259422D02*
X0032695Y0258111D01*
X0032696Y0258111D02*
X0032698Y0258040D01*
X0032704Y0257969D01*
X0032713Y0257899D01*
X0032727Y0257829D01*
X0032744Y0257760D01*
X0032765Y0257692D01*
X0032789Y0257626D01*
X0032817Y0257561D01*
X0032849Y0257497D01*
X0032884Y0257435D01*
X0032922Y0257375D01*
X0032963Y0257318D01*
X0033008Y0257262D01*
X0033055Y0257209D01*
X0033105Y0257159D01*
X0033158Y0257112D01*
X0033214Y0257067D01*
X0033271Y0257026D01*
X0033331Y0256988D01*
X0033393Y0256953D01*
X0033457Y0256921D01*
X0033522Y0256893D01*
X0033588Y0256869D01*
X0033656Y0256848D01*
X0033725Y0256831D01*
X0033795Y0256817D01*
X0033865Y0256808D01*
X0033936Y0256802D01*
X0034007Y0256800D01*
X0034078Y0256802D01*
X0034149Y0256808D01*
X0034219Y0256817D01*
X0034289Y0256831D01*
X0034358Y0256848D01*
X0034426Y0256869D01*
X0034492Y0256893D01*
X0034557Y0256921D01*
X0034621Y0256953D01*
X0034683Y0256988D01*
X0034743Y0257026D01*
X0034800Y0257067D01*
X0034856Y0257112D01*
X0034909Y0257159D01*
X0034959Y0257209D01*
X0035006Y0257262D01*
X0035051Y0257318D01*
X0035092Y0257375D01*
X0035130Y0257435D01*
X0035165Y0257497D01*
X0035197Y0257561D01*
X0035225Y0257626D01*
X0035249Y0257692D01*
X0035270Y0257760D01*
X0035287Y0257829D01*
X0035301Y0257899D01*
X0035310Y0257969D01*
X0035316Y0258040D01*
X0035318Y0258111D01*
X0030282Y0256800D02*
X0028971Y0256800D01*
X0028909Y0256802D01*
X0028848Y0256808D01*
X0028787Y0256817D01*
X0028727Y0256831D01*
X0028667Y0256848D01*
X0028609Y0256869D01*
X0028552Y0256894D01*
X0028497Y0256922D01*
X0028444Y0256953D01*
X0028393Y0256988D01*
X0028344Y0257026D01*
X0028298Y0257066D01*
X0028254Y0257110D01*
X0028214Y0257156D01*
X0028176Y0257205D01*
X0028141Y0257256D01*
X0028110Y0257309D01*
X0028082Y0257364D01*
X0028057Y0257421D01*
X0028036Y0257479D01*
X0028019Y0257539D01*
X0028005Y0257599D01*
X0027996Y0257660D01*
X0027990Y0257721D01*
X0027988Y0257783D01*
X0027988Y0259750D01*
X0027990Y0259812D01*
X0027996Y0259873D01*
X0028005Y0259934D01*
X0028019Y0259994D01*
X0028036Y0260054D01*
X0028057Y0260112D01*
X0028082Y0260169D01*
X0028110Y0260224D01*
X0028141Y0260277D01*
X0028176Y0260328D01*
X0028214Y0260377D01*
X0028254Y0260423D01*
X0028298Y0260467D01*
X0028344Y0260507D01*
X0028393Y0260545D01*
X0028444Y0260580D01*
X0028497Y0260611D01*
X0028552Y0260639D01*
X0028609Y0260664D01*
X0028667Y0260685D01*
X0028727Y0260702D01*
X0028787Y0260716D01*
X0028848Y0260725D01*
X0028909Y0260731D01*
X0028971Y0260733D01*
X0030282Y0260733D01*
X0024774Y0258439D02*
X0023136Y0259094D01*
X0023135Y0259095D02*
X0023083Y0259118D01*
X0023032Y0259145D01*
X0022983Y0259175D01*
X0022936Y0259208D01*
X0022891Y0259244D01*
X0022849Y0259284D01*
X0022810Y0259326D01*
X0022774Y0259370D01*
X0022741Y0259417D01*
X0022711Y0259467D01*
X0022684Y0259518D01*
X0022661Y0259570D01*
X0022642Y0259624D01*
X0022626Y0259680D01*
X0022614Y0259736D01*
X0022606Y0259793D01*
X0022602Y0259850D01*
X0022601Y0259908D01*
X0022605Y0259965D01*
X0022612Y0260022D01*
X0022624Y0260079D01*
X0022639Y0260134D01*
X0022657Y0260189D01*
X0022680Y0260242D01*
X0022706Y0260293D01*
X0022735Y0260342D01*
X0022768Y0260390D01*
X0022804Y0260435D01*
X0022842Y0260477D01*
X0022884Y0260517D01*
X0022928Y0260554D01*
X0022975Y0260588D01*
X0023023Y0260619D01*
X0023074Y0260646D01*
X0023126Y0260670D01*
X0023180Y0260690D01*
X0023235Y0260706D01*
X0023291Y0260719D01*
X0023348Y0260728D01*
X0023406Y0260733D01*
X0023463Y0260734D01*
X0022644Y0257128D02*
X0022778Y0257082D01*
X0022913Y0257039D01*
X0023049Y0257000D01*
X0023186Y0256964D01*
X0023323Y0256932D01*
X0023462Y0256903D01*
X0023601Y0256877D01*
X0023741Y0256856D01*
X0023882Y0256837D01*
X0024022Y0256823D01*
X0024164Y0256812D01*
X0024305Y0256804D01*
X0024447Y0256801D01*
X0024447Y0256800D02*
X0024504Y0256801D01*
X0024562Y0256806D01*
X0024619Y0256815D01*
X0024675Y0256828D01*
X0024730Y0256844D01*
X0024784Y0256864D01*
X0024836Y0256888D01*
X0024887Y0256915D01*
X0024935Y0256946D01*
X0024982Y0256980D01*
X0025026Y0257017D01*
X0025068Y0257057D01*
X0025106Y0257099D01*
X0025142Y0257144D01*
X0025175Y0257192D01*
X0025204Y0257241D01*
X0025230Y0257292D01*
X0025253Y0257345D01*
X0025271Y0257400D01*
X0025286Y0257455D01*
X0025298Y0257512D01*
X0025305Y0257569D01*
X0025309Y0257626D01*
X0025308Y0257684D01*
X0025304Y0257741D01*
X0025296Y0257798D01*
X0025284Y0257854D01*
X0025268Y0257910D01*
X0025249Y0257964D01*
X0025226Y0258016D01*
X0025199Y0258067D01*
X0025169Y0258117D01*
X0025136Y0258164D01*
X0025100Y0258208D01*
X0025061Y0258250D01*
X0025019Y0258290D01*
X0024974Y0258326D01*
X0024927Y0258359D01*
X0024878Y0258389D01*
X0024827Y0258416D01*
X0024775Y0258439D01*
X0024938Y0260405D02*
X0024831Y0260451D01*
X0024722Y0260494D01*
X0024612Y0260534D01*
X0024500Y0260570D01*
X0024388Y0260602D01*
X0024274Y0260631D01*
X0024160Y0260657D01*
X0024045Y0260678D01*
X0023930Y0260697D01*
X0023813Y0260711D01*
X0023697Y0260722D01*
X0023580Y0260729D01*
X0023463Y0260733D01*
X0019768Y0259094D02*
X0015834Y0259094D01*
X0013163Y0260733D02*
X0011852Y0256800D01*
X0010541Y0260733D01*
D13*
X0001750Y0026750D02*
X0001750Y0001750D01*
X0359750Y0001750D01*
X0359750Y0026750D01*
X0001750Y0026750D01*
X0001750Y0028750D02*
X0001750Y0198750D01*
X0026750Y0198750D01*
X0026750Y0028750D01*
X0001750Y0028750D01*
X0001750Y0200750D02*
X0001750Y0225750D01*
X0359750Y0225750D01*
X0359750Y0200750D01*
X0001750Y0200750D01*
X0334750Y0198750D02*
X0334750Y0028750D01*
X0359750Y0028750D01*
X0359750Y0198750D01*
X0334750Y0198750D01*
D14*
X0316250Y0118750D02*
X0316252Y0118911D01*
X0316258Y0119071D01*
X0316268Y0119232D01*
X0316282Y0119392D01*
X0316300Y0119552D01*
X0316321Y0119711D01*
X0316347Y0119870D01*
X0316377Y0120028D01*
X0316410Y0120185D01*
X0316448Y0120342D01*
X0316489Y0120497D01*
X0316534Y0120651D01*
X0316583Y0120804D01*
X0316636Y0120956D01*
X0316692Y0121107D01*
X0316753Y0121256D01*
X0316816Y0121404D01*
X0316884Y0121550D01*
X0316955Y0121694D01*
X0317029Y0121836D01*
X0317107Y0121977D01*
X0317189Y0122115D01*
X0317274Y0122252D01*
X0317362Y0122386D01*
X0317454Y0122518D01*
X0317549Y0122648D01*
X0317647Y0122776D01*
X0317748Y0122901D01*
X0317852Y0123023D01*
X0317959Y0123143D01*
X0318069Y0123260D01*
X0318182Y0123375D01*
X0318298Y0123486D01*
X0318417Y0123595D01*
X0318538Y0123700D01*
X0318662Y0123803D01*
X0318788Y0123903D01*
X0318916Y0123999D01*
X0319047Y0124092D01*
X0319181Y0124182D01*
X0319316Y0124269D01*
X0319454Y0124352D01*
X0319593Y0124432D01*
X0319735Y0124508D01*
X0319878Y0124581D01*
X0320023Y0124650D01*
X0320170Y0124716D01*
X0320318Y0124778D01*
X0320468Y0124836D01*
X0320619Y0124891D01*
X0320772Y0124942D01*
X0320926Y0124989D01*
X0321081Y0125032D01*
X0321237Y0125071D01*
X0321393Y0125107D01*
X0321551Y0125138D01*
X0321709Y0125166D01*
X0321868Y0125190D01*
X0322028Y0125210D01*
X0322188Y0125226D01*
X0322348Y0125238D01*
X0322509Y0125246D01*
X0322670Y0125250D01*
X0322830Y0125250D01*
X0322991Y0125246D01*
X0323152Y0125238D01*
X0323312Y0125226D01*
X0323472Y0125210D01*
X0323632Y0125190D01*
X0323791Y0125166D01*
X0323949Y0125138D01*
X0324107Y0125107D01*
X0324263Y0125071D01*
X0324419Y0125032D01*
X0324574Y0124989D01*
X0324728Y0124942D01*
X0324881Y0124891D01*
X0325032Y0124836D01*
X0325182Y0124778D01*
X0325330Y0124716D01*
X0325477Y0124650D01*
X0325622Y0124581D01*
X0325765Y0124508D01*
X0325907Y0124432D01*
X0326046Y0124352D01*
X0326184Y0124269D01*
X0326319Y0124182D01*
X0326453Y0124092D01*
X0326584Y0123999D01*
X0326712Y0123903D01*
X0326838Y0123803D01*
X0326962Y0123700D01*
X0327083Y0123595D01*
X0327202Y0123486D01*
X0327318Y0123375D01*
X0327431Y0123260D01*
X0327541Y0123143D01*
X0327648Y0123023D01*
X0327752Y0122901D01*
X0327853Y0122776D01*
X0327951Y0122648D01*
X0328046Y0122518D01*
X0328138Y0122386D01*
X0328226Y0122252D01*
X0328311Y0122115D01*
X0328393Y0121977D01*
X0328471Y0121836D01*
X0328545Y0121694D01*
X0328616Y0121550D01*
X0328684Y0121404D01*
X0328747Y0121256D01*
X0328808Y0121107D01*
X0328864Y0120956D01*
X0328917Y0120804D01*
X0328966Y0120651D01*
X0329011Y0120497D01*
X0329052Y0120342D01*
X0329090Y0120185D01*
X0329123Y0120028D01*
X0329153Y0119870D01*
X0329179Y0119711D01*
X0329200Y0119552D01*
X0329218Y0119392D01*
X0329232Y0119232D01*
X0329242Y0119071D01*
X0329248Y0118911D01*
X0329250Y0118750D01*
X0329248Y0118589D01*
X0329242Y0118429D01*
X0329232Y0118268D01*
X0329218Y0118108D01*
X0329200Y0117948D01*
X0329179Y0117789D01*
X0329153Y0117630D01*
X0329123Y0117472D01*
X0329090Y0117315D01*
X0329052Y0117158D01*
X0329011Y0117003D01*
X0328966Y0116849D01*
X0328917Y0116696D01*
X0328864Y0116544D01*
X0328808Y0116393D01*
X0328747Y0116244D01*
X0328684Y0116096D01*
X0328616Y0115950D01*
X0328545Y0115806D01*
X0328471Y0115664D01*
X0328393Y0115523D01*
X0328311Y0115385D01*
X0328226Y0115248D01*
X0328138Y0115114D01*
X0328046Y0114982D01*
X0327951Y0114852D01*
X0327853Y0114724D01*
X0327752Y0114599D01*
X0327648Y0114477D01*
X0327541Y0114357D01*
X0327431Y0114240D01*
X0327318Y0114125D01*
X0327202Y0114014D01*
X0327083Y0113905D01*
X0326962Y0113800D01*
X0326838Y0113697D01*
X0326712Y0113597D01*
X0326584Y0113501D01*
X0326453Y0113408D01*
X0326319Y0113318D01*
X0326184Y0113231D01*
X0326046Y0113148D01*
X0325907Y0113068D01*
X0325765Y0112992D01*
X0325622Y0112919D01*
X0325477Y0112850D01*
X0325330Y0112784D01*
X0325182Y0112722D01*
X0325032Y0112664D01*
X0324881Y0112609D01*
X0324728Y0112558D01*
X0324574Y0112511D01*
X0324419Y0112468D01*
X0324263Y0112429D01*
X0324107Y0112393D01*
X0323949Y0112362D01*
X0323791Y0112334D01*
X0323632Y0112310D01*
X0323472Y0112290D01*
X0323312Y0112274D01*
X0323152Y0112262D01*
X0322991Y0112254D01*
X0322830Y0112250D01*
X0322670Y0112250D01*
X0322509Y0112254D01*
X0322348Y0112262D01*
X0322188Y0112274D01*
X0322028Y0112290D01*
X0321868Y0112310D01*
X0321709Y0112334D01*
X0321551Y0112362D01*
X0321393Y0112393D01*
X0321237Y0112429D01*
X0321081Y0112468D01*
X0320926Y0112511D01*
X0320772Y0112558D01*
X0320619Y0112609D01*
X0320468Y0112664D01*
X0320318Y0112722D01*
X0320170Y0112784D01*
X0320023Y0112850D01*
X0319878Y0112919D01*
X0319735Y0112992D01*
X0319593Y0113068D01*
X0319454Y0113148D01*
X0319316Y0113231D01*
X0319181Y0113318D01*
X0319047Y0113408D01*
X0318916Y0113501D01*
X0318788Y0113597D01*
X0318662Y0113697D01*
X0318538Y0113800D01*
X0318417Y0113905D01*
X0318298Y0114014D01*
X0318182Y0114125D01*
X0318069Y0114240D01*
X0317959Y0114357D01*
X0317852Y0114477D01*
X0317748Y0114599D01*
X0317647Y0114724D01*
X0317549Y0114852D01*
X0317454Y0114982D01*
X0317362Y0115114D01*
X0317274Y0115248D01*
X0317189Y0115385D01*
X0317107Y0115523D01*
X0317029Y0115664D01*
X0316955Y0115806D01*
X0316884Y0115950D01*
X0316816Y0116096D01*
X0316753Y0116244D01*
X0316692Y0116393D01*
X0316636Y0116544D01*
X0316583Y0116696D01*
X0316534Y0116849D01*
X0316489Y0117003D01*
X0316448Y0117158D01*
X0316410Y0117315D01*
X0316377Y0117472D01*
X0316347Y0117630D01*
X0316321Y0117789D01*
X0316300Y0117948D01*
X0316282Y0118108D01*
X0316268Y0118268D01*
X0316258Y0118429D01*
X0316252Y0118589D01*
X0316250Y0118750D01*
X0236250Y0118750D02*
X0236252Y0118911D01*
X0236258Y0119071D01*
X0236268Y0119232D01*
X0236282Y0119392D01*
X0236300Y0119552D01*
X0236321Y0119711D01*
X0236347Y0119870D01*
X0236377Y0120028D01*
X0236410Y0120185D01*
X0236448Y0120342D01*
X0236489Y0120497D01*
X0236534Y0120651D01*
X0236583Y0120804D01*
X0236636Y0120956D01*
X0236692Y0121107D01*
X0236753Y0121256D01*
X0236816Y0121404D01*
X0236884Y0121550D01*
X0236955Y0121694D01*
X0237029Y0121836D01*
X0237107Y0121977D01*
X0237189Y0122115D01*
X0237274Y0122252D01*
X0237362Y0122386D01*
X0237454Y0122518D01*
X0237549Y0122648D01*
X0237647Y0122776D01*
X0237748Y0122901D01*
X0237852Y0123023D01*
X0237959Y0123143D01*
X0238069Y0123260D01*
X0238182Y0123375D01*
X0238298Y0123486D01*
X0238417Y0123595D01*
X0238538Y0123700D01*
X0238662Y0123803D01*
X0238788Y0123903D01*
X0238916Y0123999D01*
X0239047Y0124092D01*
X0239181Y0124182D01*
X0239316Y0124269D01*
X0239454Y0124352D01*
X0239593Y0124432D01*
X0239735Y0124508D01*
X0239878Y0124581D01*
X0240023Y0124650D01*
X0240170Y0124716D01*
X0240318Y0124778D01*
X0240468Y0124836D01*
X0240619Y0124891D01*
X0240772Y0124942D01*
X0240926Y0124989D01*
X0241081Y0125032D01*
X0241237Y0125071D01*
X0241393Y0125107D01*
X0241551Y0125138D01*
X0241709Y0125166D01*
X0241868Y0125190D01*
X0242028Y0125210D01*
X0242188Y0125226D01*
X0242348Y0125238D01*
X0242509Y0125246D01*
X0242670Y0125250D01*
X0242830Y0125250D01*
X0242991Y0125246D01*
X0243152Y0125238D01*
X0243312Y0125226D01*
X0243472Y0125210D01*
X0243632Y0125190D01*
X0243791Y0125166D01*
X0243949Y0125138D01*
X0244107Y0125107D01*
X0244263Y0125071D01*
X0244419Y0125032D01*
X0244574Y0124989D01*
X0244728Y0124942D01*
X0244881Y0124891D01*
X0245032Y0124836D01*
X0245182Y0124778D01*
X0245330Y0124716D01*
X0245477Y0124650D01*
X0245622Y0124581D01*
X0245765Y0124508D01*
X0245907Y0124432D01*
X0246046Y0124352D01*
X0246184Y0124269D01*
X0246319Y0124182D01*
X0246453Y0124092D01*
X0246584Y0123999D01*
X0246712Y0123903D01*
X0246838Y0123803D01*
X0246962Y0123700D01*
X0247083Y0123595D01*
X0247202Y0123486D01*
X0247318Y0123375D01*
X0247431Y0123260D01*
X0247541Y0123143D01*
X0247648Y0123023D01*
X0247752Y0122901D01*
X0247853Y0122776D01*
X0247951Y0122648D01*
X0248046Y0122518D01*
X0248138Y0122386D01*
X0248226Y0122252D01*
X0248311Y0122115D01*
X0248393Y0121977D01*
X0248471Y0121836D01*
X0248545Y0121694D01*
X0248616Y0121550D01*
X0248684Y0121404D01*
X0248747Y0121256D01*
X0248808Y0121107D01*
X0248864Y0120956D01*
X0248917Y0120804D01*
X0248966Y0120651D01*
X0249011Y0120497D01*
X0249052Y0120342D01*
X0249090Y0120185D01*
X0249123Y0120028D01*
X0249153Y0119870D01*
X0249179Y0119711D01*
X0249200Y0119552D01*
X0249218Y0119392D01*
X0249232Y0119232D01*
X0249242Y0119071D01*
X0249248Y0118911D01*
X0249250Y0118750D01*
X0249248Y0118589D01*
X0249242Y0118429D01*
X0249232Y0118268D01*
X0249218Y0118108D01*
X0249200Y0117948D01*
X0249179Y0117789D01*
X0249153Y0117630D01*
X0249123Y0117472D01*
X0249090Y0117315D01*
X0249052Y0117158D01*
X0249011Y0117003D01*
X0248966Y0116849D01*
X0248917Y0116696D01*
X0248864Y0116544D01*
X0248808Y0116393D01*
X0248747Y0116244D01*
X0248684Y0116096D01*
X0248616Y0115950D01*
X0248545Y0115806D01*
X0248471Y0115664D01*
X0248393Y0115523D01*
X0248311Y0115385D01*
X0248226Y0115248D01*
X0248138Y0115114D01*
X0248046Y0114982D01*
X0247951Y0114852D01*
X0247853Y0114724D01*
X0247752Y0114599D01*
X0247648Y0114477D01*
X0247541Y0114357D01*
X0247431Y0114240D01*
X0247318Y0114125D01*
X0247202Y0114014D01*
X0247083Y0113905D01*
X0246962Y0113800D01*
X0246838Y0113697D01*
X0246712Y0113597D01*
X0246584Y0113501D01*
X0246453Y0113408D01*
X0246319Y0113318D01*
X0246184Y0113231D01*
X0246046Y0113148D01*
X0245907Y0113068D01*
X0245765Y0112992D01*
X0245622Y0112919D01*
X0245477Y0112850D01*
X0245330Y0112784D01*
X0245182Y0112722D01*
X0245032Y0112664D01*
X0244881Y0112609D01*
X0244728Y0112558D01*
X0244574Y0112511D01*
X0244419Y0112468D01*
X0244263Y0112429D01*
X0244107Y0112393D01*
X0243949Y0112362D01*
X0243791Y0112334D01*
X0243632Y0112310D01*
X0243472Y0112290D01*
X0243312Y0112274D01*
X0243152Y0112262D01*
X0242991Y0112254D01*
X0242830Y0112250D01*
X0242670Y0112250D01*
X0242509Y0112254D01*
X0242348Y0112262D01*
X0242188Y0112274D01*
X0242028Y0112290D01*
X0241868Y0112310D01*
X0241709Y0112334D01*
X0241551Y0112362D01*
X0241393Y0112393D01*
X0241237Y0112429D01*
X0241081Y0112468D01*
X0240926Y0112511D01*
X0240772Y0112558D01*
X0240619Y0112609D01*
X0240468Y0112664D01*
X0240318Y0112722D01*
X0240170Y0112784D01*
X0240023Y0112850D01*
X0239878Y0112919D01*
X0239735Y0112992D01*
X0239593Y0113068D01*
X0239454Y0113148D01*
X0239316Y0113231D01*
X0239181Y0113318D01*
X0239047Y0113408D01*
X0238916Y0113501D01*
X0238788Y0113597D01*
X0238662Y0113697D01*
X0238538Y0113800D01*
X0238417Y0113905D01*
X0238298Y0114014D01*
X0238182Y0114125D01*
X0238069Y0114240D01*
X0237959Y0114357D01*
X0237852Y0114477D01*
X0237748Y0114599D01*
X0237647Y0114724D01*
X0237549Y0114852D01*
X0237454Y0114982D01*
X0237362Y0115114D01*
X0237274Y0115248D01*
X0237189Y0115385D01*
X0237107Y0115523D01*
X0237029Y0115664D01*
X0236955Y0115806D01*
X0236884Y0115950D01*
X0236816Y0116096D01*
X0236753Y0116244D01*
X0236692Y0116393D01*
X0236636Y0116544D01*
X0236583Y0116696D01*
X0236534Y0116849D01*
X0236489Y0117003D01*
X0236448Y0117158D01*
X0236410Y0117315D01*
X0236377Y0117472D01*
X0236347Y0117630D01*
X0236321Y0117789D01*
X0236300Y0117948D01*
X0236282Y0118108D01*
X0236268Y0118268D01*
X0236258Y0118429D01*
X0236252Y0118589D01*
X0236250Y0118750D01*
X0214250Y0118750D02*
X0214252Y0118911D01*
X0214258Y0119071D01*
X0214268Y0119232D01*
X0214282Y0119392D01*
X0214300Y0119552D01*
X0214321Y0119711D01*
X0214347Y0119870D01*
X0214377Y0120028D01*
X0214410Y0120185D01*
X0214448Y0120342D01*
X0214489Y0120497D01*
X0214534Y0120651D01*
X0214583Y0120804D01*
X0214636Y0120956D01*
X0214692Y0121107D01*
X0214753Y0121256D01*
X0214816Y0121404D01*
X0214884Y0121550D01*
X0214955Y0121694D01*
X0215029Y0121836D01*
X0215107Y0121977D01*
X0215189Y0122115D01*
X0215274Y0122252D01*
X0215362Y0122386D01*
X0215454Y0122518D01*
X0215549Y0122648D01*
X0215647Y0122776D01*
X0215748Y0122901D01*
X0215852Y0123023D01*
X0215959Y0123143D01*
X0216069Y0123260D01*
X0216182Y0123375D01*
X0216298Y0123486D01*
X0216417Y0123595D01*
X0216538Y0123700D01*
X0216662Y0123803D01*
X0216788Y0123903D01*
X0216916Y0123999D01*
X0217047Y0124092D01*
X0217181Y0124182D01*
X0217316Y0124269D01*
X0217454Y0124352D01*
X0217593Y0124432D01*
X0217735Y0124508D01*
X0217878Y0124581D01*
X0218023Y0124650D01*
X0218170Y0124716D01*
X0218318Y0124778D01*
X0218468Y0124836D01*
X0218619Y0124891D01*
X0218772Y0124942D01*
X0218926Y0124989D01*
X0219081Y0125032D01*
X0219237Y0125071D01*
X0219393Y0125107D01*
X0219551Y0125138D01*
X0219709Y0125166D01*
X0219868Y0125190D01*
X0220028Y0125210D01*
X0220188Y0125226D01*
X0220348Y0125238D01*
X0220509Y0125246D01*
X0220670Y0125250D01*
X0220830Y0125250D01*
X0220991Y0125246D01*
X0221152Y0125238D01*
X0221312Y0125226D01*
X0221472Y0125210D01*
X0221632Y0125190D01*
X0221791Y0125166D01*
X0221949Y0125138D01*
X0222107Y0125107D01*
X0222263Y0125071D01*
X0222419Y0125032D01*
X0222574Y0124989D01*
X0222728Y0124942D01*
X0222881Y0124891D01*
X0223032Y0124836D01*
X0223182Y0124778D01*
X0223330Y0124716D01*
X0223477Y0124650D01*
X0223622Y0124581D01*
X0223765Y0124508D01*
X0223907Y0124432D01*
X0224046Y0124352D01*
X0224184Y0124269D01*
X0224319Y0124182D01*
X0224453Y0124092D01*
X0224584Y0123999D01*
X0224712Y0123903D01*
X0224838Y0123803D01*
X0224962Y0123700D01*
X0225083Y0123595D01*
X0225202Y0123486D01*
X0225318Y0123375D01*
X0225431Y0123260D01*
X0225541Y0123143D01*
X0225648Y0123023D01*
X0225752Y0122901D01*
X0225853Y0122776D01*
X0225951Y0122648D01*
X0226046Y0122518D01*
X0226138Y0122386D01*
X0226226Y0122252D01*
X0226311Y0122115D01*
X0226393Y0121977D01*
X0226471Y0121836D01*
X0226545Y0121694D01*
X0226616Y0121550D01*
X0226684Y0121404D01*
X0226747Y0121256D01*
X0226808Y0121107D01*
X0226864Y0120956D01*
X0226917Y0120804D01*
X0226966Y0120651D01*
X0227011Y0120497D01*
X0227052Y0120342D01*
X0227090Y0120185D01*
X0227123Y0120028D01*
X0227153Y0119870D01*
X0227179Y0119711D01*
X0227200Y0119552D01*
X0227218Y0119392D01*
X0227232Y0119232D01*
X0227242Y0119071D01*
X0227248Y0118911D01*
X0227250Y0118750D01*
X0227248Y0118589D01*
X0227242Y0118429D01*
X0227232Y0118268D01*
X0227218Y0118108D01*
X0227200Y0117948D01*
X0227179Y0117789D01*
X0227153Y0117630D01*
X0227123Y0117472D01*
X0227090Y0117315D01*
X0227052Y0117158D01*
X0227011Y0117003D01*
X0226966Y0116849D01*
X0226917Y0116696D01*
X0226864Y0116544D01*
X0226808Y0116393D01*
X0226747Y0116244D01*
X0226684Y0116096D01*
X0226616Y0115950D01*
X0226545Y0115806D01*
X0226471Y0115664D01*
X0226393Y0115523D01*
X0226311Y0115385D01*
X0226226Y0115248D01*
X0226138Y0115114D01*
X0226046Y0114982D01*
X0225951Y0114852D01*
X0225853Y0114724D01*
X0225752Y0114599D01*
X0225648Y0114477D01*
X0225541Y0114357D01*
X0225431Y0114240D01*
X0225318Y0114125D01*
X0225202Y0114014D01*
X0225083Y0113905D01*
X0224962Y0113800D01*
X0224838Y0113697D01*
X0224712Y0113597D01*
X0224584Y0113501D01*
X0224453Y0113408D01*
X0224319Y0113318D01*
X0224184Y0113231D01*
X0224046Y0113148D01*
X0223907Y0113068D01*
X0223765Y0112992D01*
X0223622Y0112919D01*
X0223477Y0112850D01*
X0223330Y0112784D01*
X0223182Y0112722D01*
X0223032Y0112664D01*
X0222881Y0112609D01*
X0222728Y0112558D01*
X0222574Y0112511D01*
X0222419Y0112468D01*
X0222263Y0112429D01*
X0222107Y0112393D01*
X0221949Y0112362D01*
X0221791Y0112334D01*
X0221632Y0112310D01*
X0221472Y0112290D01*
X0221312Y0112274D01*
X0221152Y0112262D01*
X0220991Y0112254D01*
X0220830Y0112250D01*
X0220670Y0112250D01*
X0220509Y0112254D01*
X0220348Y0112262D01*
X0220188Y0112274D01*
X0220028Y0112290D01*
X0219868Y0112310D01*
X0219709Y0112334D01*
X0219551Y0112362D01*
X0219393Y0112393D01*
X0219237Y0112429D01*
X0219081Y0112468D01*
X0218926Y0112511D01*
X0218772Y0112558D01*
X0218619Y0112609D01*
X0218468Y0112664D01*
X0218318Y0112722D01*
X0218170Y0112784D01*
X0218023Y0112850D01*
X0217878Y0112919D01*
X0217735Y0112992D01*
X0217593Y0113068D01*
X0217454Y0113148D01*
X0217316Y0113231D01*
X0217181Y0113318D01*
X0217047Y0113408D01*
X0216916Y0113501D01*
X0216788Y0113597D01*
X0216662Y0113697D01*
X0216538Y0113800D01*
X0216417Y0113905D01*
X0216298Y0114014D01*
X0216182Y0114125D01*
X0216069Y0114240D01*
X0215959Y0114357D01*
X0215852Y0114477D01*
X0215748Y0114599D01*
X0215647Y0114724D01*
X0215549Y0114852D01*
X0215454Y0114982D01*
X0215362Y0115114D01*
X0215274Y0115248D01*
X0215189Y0115385D01*
X0215107Y0115523D01*
X0215029Y0115664D01*
X0214955Y0115806D01*
X0214884Y0115950D01*
X0214816Y0116096D01*
X0214753Y0116244D01*
X0214692Y0116393D01*
X0214636Y0116544D01*
X0214583Y0116696D01*
X0214534Y0116849D01*
X0214489Y0117003D01*
X0214448Y0117158D01*
X0214410Y0117315D01*
X0214377Y0117472D01*
X0214347Y0117630D01*
X0214321Y0117789D01*
X0214300Y0117948D01*
X0214282Y0118108D01*
X0214268Y0118268D01*
X0214258Y0118429D01*
X0214252Y0118589D01*
X0214250Y0118750D01*
X0134250Y0118750D02*
X0134252Y0118911D01*
X0134258Y0119071D01*
X0134268Y0119232D01*
X0134282Y0119392D01*
X0134300Y0119552D01*
X0134321Y0119711D01*
X0134347Y0119870D01*
X0134377Y0120028D01*
X0134410Y0120185D01*
X0134448Y0120342D01*
X0134489Y0120497D01*
X0134534Y0120651D01*
X0134583Y0120804D01*
X0134636Y0120956D01*
X0134692Y0121107D01*
X0134753Y0121256D01*
X0134816Y0121404D01*
X0134884Y0121550D01*
X0134955Y0121694D01*
X0135029Y0121836D01*
X0135107Y0121977D01*
X0135189Y0122115D01*
X0135274Y0122252D01*
X0135362Y0122386D01*
X0135454Y0122518D01*
X0135549Y0122648D01*
X0135647Y0122776D01*
X0135748Y0122901D01*
X0135852Y0123023D01*
X0135959Y0123143D01*
X0136069Y0123260D01*
X0136182Y0123375D01*
X0136298Y0123486D01*
X0136417Y0123595D01*
X0136538Y0123700D01*
X0136662Y0123803D01*
X0136788Y0123903D01*
X0136916Y0123999D01*
X0137047Y0124092D01*
X0137181Y0124182D01*
X0137316Y0124269D01*
X0137454Y0124352D01*
X0137593Y0124432D01*
X0137735Y0124508D01*
X0137878Y0124581D01*
X0138023Y0124650D01*
X0138170Y0124716D01*
X0138318Y0124778D01*
X0138468Y0124836D01*
X0138619Y0124891D01*
X0138772Y0124942D01*
X0138926Y0124989D01*
X0139081Y0125032D01*
X0139237Y0125071D01*
X0139393Y0125107D01*
X0139551Y0125138D01*
X0139709Y0125166D01*
X0139868Y0125190D01*
X0140028Y0125210D01*
X0140188Y0125226D01*
X0140348Y0125238D01*
X0140509Y0125246D01*
X0140670Y0125250D01*
X0140830Y0125250D01*
X0140991Y0125246D01*
X0141152Y0125238D01*
X0141312Y0125226D01*
X0141472Y0125210D01*
X0141632Y0125190D01*
X0141791Y0125166D01*
X0141949Y0125138D01*
X0142107Y0125107D01*
X0142263Y0125071D01*
X0142419Y0125032D01*
X0142574Y0124989D01*
X0142728Y0124942D01*
X0142881Y0124891D01*
X0143032Y0124836D01*
X0143182Y0124778D01*
X0143330Y0124716D01*
X0143477Y0124650D01*
X0143622Y0124581D01*
X0143765Y0124508D01*
X0143907Y0124432D01*
X0144046Y0124352D01*
X0144184Y0124269D01*
X0144319Y0124182D01*
X0144453Y0124092D01*
X0144584Y0123999D01*
X0144712Y0123903D01*
X0144838Y0123803D01*
X0144962Y0123700D01*
X0145083Y0123595D01*
X0145202Y0123486D01*
X0145318Y0123375D01*
X0145431Y0123260D01*
X0145541Y0123143D01*
X0145648Y0123023D01*
X0145752Y0122901D01*
X0145853Y0122776D01*
X0145951Y0122648D01*
X0146046Y0122518D01*
X0146138Y0122386D01*
X0146226Y0122252D01*
X0146311Y0122115D01*
X0146393Y0121977D01*
X0146471Y0121836D01*
X0146545Y0121694D01*
X0146616Y0121550D01*
X0146684Y0121404D01*
X0146747Y0121256D01*
X0146808Y0121107D01*
X0146864Y0120956D01*
X0146917Y0120804D01*
X0146966Y0120651D01*
X0147011Y0120497D01*
X0147052Y0120342D01*
X0147090Y0120185D01*
X0147123Y0120028D01*
X0147153Y0119870D01*
X0147179Y0119711D01*
X0147200Y0119552D01*
X0147218Y0119392D01*
X0147232Y0119232D01*
X0147242Y0119071D01*
X0147248Y0118911D01*
X0147250Y0118750D01*
X0147248Y0118589D01*
X0147242Y0118429D01*
X0147232Y0118268D01*
X0147218Y0118108D01*
X0147200Y0117948D01*
X0147179Y0117789D01*
X0147153Y0117630D01*
X0147123Y0117472D01*
X0147090Y0117315D01*
X0147052Y0117158D01*
X0147011Y0117003D01*
X0146966Y0116849D01*
X0146917Y0116696D01*
X0146864Y0116544D01*
X0146808Y0116393D01*
X0146747Y0116244D01*
X0146684Y0116096D01*
X0146616Y0115950D01*
X0146545Y0115806D01*
X0146471Y0115664D01*
X0146393Y0115523D01*
X0146311Y0115385D01*
X0146226Y0115248D01*
X0146138Y0115114D01*
X0146046Y0114982D01*
X0145951Y0114852D01*
X0145853Y0114724D01*
X0145752Y0114599D01*
X0145648Y0114477D01*
X0145541Y0114357D01*
X0145431Y0114240D01*
X0145318Y0114125D01*
X0145202Y0114014D01*
X0145083Y0113905D01*
X0144962Y0113800D01*
X0144838Y0113697D01*
X0144712Y0113597D01*
X0144584Y0113501D01*
X0144453Y0113408D01*
X0144319Y0113318D01*
X0144184Y0113231D01*
X0144046Y0113148D01*
X0143907Y0113068D01*
X0143765Y0112992D01*
X0143622Y0112919D01*
X0143477Y0112850D01*
X0143330Y0112784D01*
X0143182Y0112722D01*
X0143032Y0112664D01*
X0142881Y0112609D01*
X0142728Y0112558D01*
X0142574Y0112511D01*
X0142419Y0112468D01*
X0142263Y0112429D01*
X0142107Y0112393D01*
X0141949Y0112362D01*
X0141791Y0112334D01*
X0141632Y0112310D01*
X0141472Y0112290D01*
X0141312Y0112274D01*
X0141152Y0112262D01*
X0140991Y0112254D01*
X0140830Y0112250D01*
X0140670Y0112250D01*
X0140509Y0112254D01*
X0140348Y0112262D01*
X0140188Y0112274D01*
X0140028Y0112290D01*
X0139868Y0112310D01*
X0139709Y0112334D01*
X0139551Y0112362D01*
X0139393Y0112393D01*
X0139237Y0112429D01*
X0139081Y0112468D01*
X0138926Y0112511D01*
X0138772Y0112558D01*
X0138619Y0112609D01*
X0138468Y0112664D01*
X0138318Y0112722D01*
X0138170Y0112784D01*
X0138023Y0112850D01*
X0137878Y0112919D01*
X0137735Y0112992D01*
X0137593Y0113068D01*
X0137454Y0113148D01*
X0137316Y0113231D01*
X0137181Y0113318D01*
X0137047Y0113408D01*
X0136916Y0113501D01*
X0136788Y0113597D01*
X0136662Y0113697D01*
X0136538Y0113800D01*
X0136417Y0113905D01*
X0136298Y0114014D01*
X0136182Y0114125D01*
X0136069Y0114240D01*
X0135959Y0114357D01*
X0135852Y0114477D01*
X0135748Y0114599D01*
X0135647Y0114724D01*
X0135549Y0114852D01*
X0135454Y0114982D01*
X0135362Y0115114D01*
X0135274Y0115248D01*
X0135189Y0115385D01*
X0135107Y0115523D01*
X0135029Y0115664D01*
X0134955Y0115806D01*
X0134884Y0115950D01*
X0134816Y0116096D01*
X0134753Y0116244D01*
X0134692Y0116393D01*
X0134636Y0116544D01*
X0134583Y0116696D01*
X0134534Y0116849D01*
X0134489Y0117003D01*
X0134448Y0117158D01*
X0134410Y0117315D01*
X0134377Y0117472D01*
X0134347Y0117630D01*
X0134321Y0117789D01*
X0134300Y0117948D01*
X0134282Y0118108D01*
X0134268Y0118268D01*
X0134258Y0118429D01*
X0134252Y0118589D01*
X0134250Y0118750D01*
X0112250Y0118750D02*
X0112252Y0118911D01*
X0112258Y0119071D01*
X0112268Y0119232D01*
X0112282Y0119392D01*
X0112300Y0119552D01*
X0112321Y0119711D01*
X0112347Y0119870D01*
X0112377Y0120028D01*
X0112410Y0120185D01*
X0112448Y0120342D01*
X0112489Y0120497D01*
X0112534Y0120651D01*
X0112583Y0120804D01*
X0112636Y0120956D01*
X0112692Y0121107D01*
X0112753Y0121256D01*
X0112816Y0121404D01*
X0112884Y0121550D01*
X0112955Y0121694D01*
X0113029Y0121836D01*
X0113107Y0121977D01*
X0113189Y0122115D01*
X0113274Y0122252D01*
X0113362Y0122386D01*
X0113454Y0122518D01*
X0113549Y0122648D01*
X0113647Y0122776D01*
X0113748Y0122901D01*
X0113852Y0123023D01*
X0113959Y0123143D01*
X0114069Y0123260D01*
X0114182Y0123375D01*
X0114298Y0123486D01*
X0114417Y0123595D01*
X0114538Y0123700D01*
X0114662Y0123803D01*
X0114788Y0123903D01*
X0114916Y0123999D01*
X0115047Y0124092D01*
X0115181Y0124182D01*
X0115316Y0124269D01*
X0115454Y0124352D01*
X0115593Y0124432D01*
X0115735Y0124508D01*
X0115878Y0124581D01*
X0116023Y0124650D01*
X0116170Y0124716D01*
X0116318Y0124778D01*
X0116468Y0124836D01*
X0116619Y0124891D01*
X0116772Y0124942D01*
X0116926Y0124989D01*
X0117081Y0125032D01*
X0117237Y0125071D01*
X0117393Y0125107D01*
X0117551Y0125138D01*
X0117709Y0125166D01*
X0117868Y0125190D01*
X0118028Y0125210D01*
X0118188Y0125226D01*
X0118348Y0125238D01*
X0118509Y0125246D01*
X0118670Y0125250D01*
X0118830Y0125250D01*
X0118991Y0125246D01*
X0119152Y0125238D01*
X0119312Y0125226D01*
X0119472Y0125210D01*
X0119632Y0125190D01*
X0119791Y0125166D01*
X0119949Y0125138D01*
X0120107Y0125107D01*
X0120263Y0125071D01*
X0120419Y0125032D01*
X0120574Y0124989D01*
X0120728Y0124942D01*
X0120881Y0124891D01*
X0121032Y0124836D01*
X0121182Y0124778D01*
X0121330Y0124716D01*
X0121477Y0124650D01*
X0121622Y0124581D01*
X0121765Y0124508D01*
X0121907Y0124432D01*
X0122046Y0124352D01*
X0122184Y0124269D01*
X0122319Y0124182D01*
X0122453Y0124092D01*
X0122584Y0123999D01*
X0122712Y0123903D01*
X0122838Y0123803D01*
X0122962Y0123700D01*
X0123083Y0123595D01*
X0123202Y0123486D01*
X0123318Y0123375D01*
X0123431Y0123260D01*
X0123541Y0123143D01*
X0123648Y0123023D01*
X0123752Y0122901D01*
X0123853Y0122776D01*
X0123951Y0122648D01*
X0124046Y0122518D01*
X0124138Y0122386D01*
X0124226Y0122252D01*
X0124311Y0122115D01*
X0124393Y0121977D01*
X0124471Y0121836D01*
X0124545Y0121694D01*
X0124616Y0121550D01*
X0124684Y0121404D01*
X0124747Y0121256D01*
X0124808Y0121107D01*
X0124864Y0120956D01*
X0124917Y0120804D01*
X0124966Y0120651D01*
X0125011Y0120497D01*
X0125052Y0120342D01*
X0125090Y0120185D01*
X0125123Y0120028D01*
X0125153Y0119870D01*
X0125179Y0119711D01*
X0125200Y0119552D01*
X0125218Y0119392D01*
X0125232Y0119232D01*
X0125242Y0119071D01*
X0125248Y0118911D01*
X0125250Y0118750D01*
X0125248Y0118589D01*
X0125242Y0118429D01*
X0125232Y0118268D01*
X0125218Y0118108D01*
X0125200Y0117948D01*
X0125179Y0117789D01*
X0125153Y0117630D01*
X0125123Y0117472D01*
X0125090Y0117315D01*
X0125052Y0117158D01*
X0125011Y0117003D01*
X0124966Y0116849D01*
X0124917Y0116696D01*
X0124864Y0116544D01*
X0124808Y0116393D01*
X0124747Y0116244D01*
X0124684Y0116096D01*
X0124616Y0115950D01*
X0124545Y0115806D01*
X0124471Y0115664D01*
X0124393Y0115523D01*
X0124311Y0115385D01*
X0124226Y0115248D01*
X0124138Y0115114D01*
X0124046Y0114982D01*
X0123951Y0114852D01*
X0123853Y0114724D01*
X0123752Y0114599D01*
X0123648Y0114477D01*
X0123541Y0114357D01*
X0123431Y0114240D01*
X0123318Y0114125D01*
X0123202Y0114014D01*
X0123083Y0113905D01*
X0122962Y0113800D01*
X0122838Y0113697D01*
X0122712Y0113597D01*
X0122584Y0113501D01*
X0122453Y0113408D01*
X0122319Y0113318D01*
X0122184Y0113231D01*
X0122046Y0113148D01*
X0121907Y0113068D01*
X0121765Y0112992D01*
X0121622Y0112919D01*
X0121477Y0112850D01*
X0121330Y0112784D01*
X0121182Y0112722D01*
X0121032Y0112664D01*
X0120881Y0112609D01*
X0120728Y0112558D01*
X0120574Y0112511D01*
X0120419Y0112468D01*
X0120263Y0112429D01*
X0120107Y0112393D01*
X0119949Y0112362D01*
X0119791Y0112334D01*
X0119632Y0112310D01*
X0119472Y0112290D01*
X0119312Y0112274D01*
X0119152Y0112262D01*
X0118991Y0112254D01*
X0118830Y0112250D01*
X0118670Y0112250D01*
X0118509Y0112254D01*
X0118348Y0112262D01*
X0118188Y0112274D01*
X0118028Y0112290D01*
X0117868Y0112310D01*
X0117709Y0112334D01*
X0117551Y0112362D01*
X0117393Y0112393D01*
X0117237Y0112429D01*
X0117081Y0112468D01*
X0116926Y0112511D01*
X0116772Y0112558D01*
X0116619Y0112609D01*
X0116468Y0112664D01*
X0116318Y0112722D01*
X0116170Y0112784D01*
X0116023Y0112850D01*
X0115878Y0112919D01*
X0115735Y0112992D01*
X0115593Y0113068D01*
X0115454Y0113148D01*
X0115316Y0113231D01*
X0115181Y0113318D01*
X0115047Y0113408D01*
X0114916Y0113501D01*
X0114788Y0113597D01*
X0114662Y0113697D01*
X0114538Y0113800D01*
X0114417Y0113905D01*
X0114298Y0114014D01*
X0114182Y0114125D01*
X0114069Y0114240D01*
X0113959Y0114357D01*
X0113852Y0114477D01*
X0113748Y0114599D01*
X0113647Y0114724D01*
X0113549Y0114852D01*
X0113454Y0114982D01*
X0113362Y0115114D01*
X0113274Y0115248D01*
X0113189Y0115385D01*
X0113107Y0115523D01*
X0113029Y0115664D01*
X0112955Y0115806D01*
X0112884Y0115950D01*
X0112816Y0116096D01*
X0112753Y0116244D01*
X0112692Y0116393D01*
X0112636Y0116544D01*
X0112583Y0116696D01*
X0112534Y0116849D01*
X0112489Y0117003D01*
X0112448Y0117158D01*
X0112410Y0117315D01*
X0112377Y0117472D01*
X0112347Y0117630D01*
X0112321Y0117789D01*
X0112300Y0117948D01*
X0112282Y0118108D01*
X0112268Y0118268D01*
X0112258Y0118429D01*
X0112252Y0118589D01*
X0112250Y0118750D01*
X0032250Y0118750D02*
X0032252Y0118911D01*
X0032258Y0119071D01*
X0032268Y0119232D01*
X0032282Y0119392D01*
X0032300Y0119552D01*
X0032321Y0119711D01*
X0032347Y0119870D01*
X0032377Y0120028D01*
X0032410Y0120185D01*
X0032448Y0120342D01*
X0032489Y0120497D01*
X0032534Y0120651D01*
X0032583Y0120804D01*
X0032636Y0120956D01*
X0032692Y0121107D01*
X0032753Y0121256D01*
X0032816Y0121404D01*
X0032884Y0121550D01*
X0032955Y0121694D01*
X0033029Y0121836D01*
X0033107Y0121977D01*
X0033189Y0122115D01*
X0033274Y0122252D01*
X0033362Y0122386D01*
X0033454Y0122518D01*
X0033549Y0122648D01*
X0033647Y0122776D01*
X0033748Y0122901D01*
X0033852Y0123023D01*
X0033959Y0123143D01*
X0034069Y0123260D01*
X0034182Y0123375D01*
X0034298Y0123486D01*
X0034417Y0123595D01*
X0034538Y0123700D01*
X0034662Y0123803D01*
X0034788Y0123903D01*
X0034916Y0123999D01*
X0035047Y0124092D01*
X0035181Y0124182D01*
X0035316Y0124269D01*
X0035454Y0124352D01*
X0035593Y0124432D01*
X0035735Y0124508D01*
X0035878Y0124581D01*
X0036023Y0124650D01*
X0036170Y0124716D01*
X0036318Y0124778D01*
X0036468Y0124836D01*
X0036619Y0124891D01*
X0036772Y0124942D01*
X0036926Y0124989D01*
X0037081Y0125032D01*
X0037237Y0125071D01*
X0037393Y0125107D01*
X0037551Y0125138D01*
X0037709Y0125166D01*
X0037868Y0125190D01*
X0038028Y0125210D01*
X0038188Y0125226D01*
X0038348Y0125238D01*
X0038509Y0125246D01*
X0038670Y0125250D01*
X0038830Y0125250D01*
X0038991Y0125246D01*
X0039152Y0125238D01*
X0039312Y0125226D01*
X0039472Y0125210D01*
X0039632Y0125190D01*
X0039791Y0125166D01*
X0039949Y0125138D01*
X0040107Y0125107D01*
X0040263Y0125071D01*
X0040419Y0125032D01*
X0040574Y0124989D01*
X0040728Y0124942D01*
X0040881Y0124891D01*
X0041032Y0124836D01*
X0041182Y0124778D01*
X0041330Y0124716D01*
X0041477Y0124650D01*
X0041622Y0124581D01*
X0041765Y0124508D01*
X0041907Y0124432D01*
X0042046Y0124352D01*
X0042184Y0124269D01*
X0042319Y0124182D01*
X0042453Y0124092D01*
X0042584Y0123999D01*
X0042712Y0123903D01*
X0042838Y0123803D01*
X0042962Y0123700D01*
X0043083Y0123595D01*
X0043202Y0123486D01*
X0043318Y0123375D01*
X0043431Y0123260D01*
X0043541Y0123143D01*
X0043648Y0123023D01*
X0043752Y0122901D01*
X0043853Y0122776D01*
X0043951Y0122648D01*
X0044046Y0122518D01*
X0044138Y0122386D01*
X0044226Y0122252D01*
X0044311Y0122115D01*
X0044393Y0121977D01*
X0044471Y0121836D01*
X0044545Y0121694D01*
X0044616Y0121550D01*
X0044684Y0121404D01*
X0044747Y0121256D01*
X0044808Y0121107D01*
X0044864Y0120956D01*
X0044917Y0120804D01*
X0044966Y0120651D01*
X0045011Y0120497D01*
X0045052Y0120342D01*
X0045090Y0120185D01*
X0045123Y0120028D01*
X0045153Y0119870D01*
X0045179Y0119711D01*
X0045200Y0119552D01*
X0045218Y0119392D01*
X0045232Y0119232D01*
X0045242Y0119071D01*
X0045248Y0118911D01*
X0045250Y0118750D01*
X0045248Y0118589D01*
X0045242Y0118429D01*
X0045232Y0118268D01*
X0045218Y0118108D01*
X0045200Y0117948D01*
X0045179Y0117789D01*
X0045153Y0117630D01*
X0045123Y0117472D01*
X0045090Y0117315D01*
X0045052Y0117158D01*
X0045011Y0117003D01*
X0044966Y0116849D01*
X0044917Y0116696D01*
X0044864Y0116544D01*
X0044808Y0116393D01*
X0044747Y0116244D01*
X0044684Y0116096D01*
X0044616Y0115950D01*
X0044545Y0115806D01*
X0044471Y0115664D01*
X0044393Y0115523D01*
X0044311Y0115385D01*
X0044226Y0115248D01*
X0044138Y0115114D01*
X0044046Y0114982D01*
X0043951Y0114852D01*
X0043853Y0114724D01*
X0043752Y0114599D01*
X0043648Y0114477D01*
X0043541Y0114357D01*
X0043431Y0114240D01*
X0043318Y0114125D01*
X0043202Y0114014D01*
X0043083Y0113905D01*
X0042962Y0113800D01*
X0042838Y0113697D01*
X0042712Y0113597D01*
X0042584Y0113501D01*
X0042453Y0113408D01*
X0042319Y0113318D01*
X0042184Y0113231D01*
X0042046Y0113148D01*
X0041907Y0113068D01*
X0041765Y0112992D01*
X0041622Y0112919D01*
X0041477Y0112850D01*
X0041330Y0112784D01*
X0041182Y0112722D01*
X0041032Y0112664D01*
X0040881Y0112609D01*
X0040728Y0112558D01*
X0040574Y0112511D01*
X0040419Y0112468D01*
X0040263Y0112429D01*
X0040107Y0112393D01*
X0039949Y0112362D01*
X0039791Y0112334D01*
X0039632Y0112310D01*
X0039472Y0112290D01*
X0039312Y0112274D01*
X0039152Y0112262D01*
X0038991Y0112254D01*
X0038830Y0112250D01*
X0038670Y0112250D01*
X0038509Y0112254D01*
X0038348Y0112262D01*
X0038188Y0112274D01*
X0038028Y0112290D01*
X0037868Y0112310D01*
X0037709Y0112334D01*
X0037551Y0112362D01*
X0037393Y0112393D01*
X0037237Y0112429D01*
X0037081Y0112468D01*
X0036926Y0112511D01*
X0036772Y0112558D01*
X0036619Y0112609D01*
X0036468Y0112664D01*
X0036318Y0112722D01*
X0036170Y0112784D01*
X0036023Y0112850D01*
X0035878Y0112919D01*
X0035735Y0112992D01*
X0035593Y0113068D01*
X0035454Y0113148D01*
X0035316Y0113231D01*
X0035181Y0113318D01*
X0035047Y0113408D01*
X0034916Y0113501D01*
X0034788Y0113597D01*
X0034662Y0113697D01*
X0034538Y0113800D01*
X0034417Y0113905D01*
X0034298Y0114014D01*
X0034182Y0114125D01*
X0034069Y0114240D01*
X0033959Y0114357D01*
X0033852Y0114477D01*
X0033748Y0114599D01*
X0033647Y0114724D01*
X0033549Y0114852D01*
X0033454Y0114982D01*
X0033362Y0115114D01*
X0033274Y0115248D01*
X0033189Y0115385D01*
X0033107Y0115523D01*
X0033029Y0115664D01*
X0032955Y0115806D01*
X0032884Y0115950D01*
X0032816Y0116096D01*
X0032753Y0116244D01*
X0032692Y0116393D01*
X0032636Y0116544D01*
X0032583Y0116696D01*
X0032534Y0116849D01*
X0032489Y0117003D01*
X0032448Y0117158D01*
X0032410Y0117315D01*
X0032377Y0117472D01*
X0032347Y0117630D01*
X0032321Y0117789D01*
X0032300Y0117948D01*
X0032282Y0118108D01*
X0032268Y0118268D01*
X0032258Y0118429D01*
X0032252Y0118589D01*
X0032250Y0118750D01*
X0032250Y0038750D02*
X0032252Y0038911D01*
X0032258Y0039071D01*
X0032268Y0039232D01*
X0032282Y0039392D01*
X0032300Y0039552D01*
X0032321Y0039711D01*
X0032347Y0039870D01*
X0032377Y0040028D01*
X0032410Y0040185D01*
X0032448Y0040342D01*
X0032489Y0040497D01*
X0032534Y0040651D01*
X0032583Y0040804D01*
X0032636Y0040956D01*
X0032692Y0041107D01*
X0032753Y0041256D01*
X0032816Y0041404D01*
X0032884Y0041550D01*
X0032955Y0041694D01*
X0033029Y0041836D01*
X0033107Y0041977D01*
X0033189Y0042115D01*
X0033274Y0042252D01*
X0033362Y0042386D01*
X0033454Y0042518D01*
X0033549Y0042648D01*
X0033647Y0042776D01*
X0033748Y0042901D01*
X0033852Y0043023D01*
X0033959Y0043143D01*
X0034069Y0043260D01*
X0034182Y0043375D01*
X0034298Y0043486D01*
X0034417Y0043595D01*
X0034538Y0043700D01*
X0034662Y0043803D01*
X0034788Y0043903D01*
X0034916Y0043999D01*
X0035047Y0044092D01*
X0035181Y0044182D01*
X0035316Y0044269D01*
X0035454Y0044352D01*
X0035593Y0044432D01*
X0035735Y0044508D01*
X0035878Y0044581D01*
X0036023Y0044650D01*
X0036170Y0044716D01*
X0036318Y0044778D01*
X0036468Y0044836D01*
X0036619Y0044891D01*
X0036772Y0044942D01*
X0036926Y0044989D01*
X0037081Y0045032D01*
X0037237Y0045071D01*
X0037393Y0045107D01*
X0037551Y0045138D01*
X0037709Y0045166D01*
X0037868Y0045190D01*
X0038028Y0045210D01*
X0038188Y0045226D01*
X0038348Y0045238D01*
X0038509Y0045246D01*
X0038670Y0045250D01*
X0038830Y0045250D01*
X0038991Y0045246D01*
X0039152Y0045238D01*
X0039312Y0045226D01*
X0039472Y0045210D01*
X0039632Y0045190D01*
X0039791Y0045166D01*
X0039949Y0045138D01*
X0040107Y0045107D01*
X0040263Y0045071D01*
X0040419Y0045032D01*
X0040574Y0044989D01*
X0040728Y0044942D01*
X0040881Y0044891D01*
X0041032Y0044836D01*
X0041182Y0044778D01*
X0041330Y0044716D01*
X0041477Y0044650D01*
X0041622Y0044581D01*
X0041765Y0044508D01*
X0041907Y0044432D01*
X0042046Y0044352D01*
X0042184Y0044269D01*
X0042319Y0044182D01*
X0042453Y0044092D01*
X0042584Y0043999D01*
X0042712Y0043903D01*
X0042838Y0043803D01*
X0042962Y0043700D01*
X0043083Y0043595D01*
X0043202Y0043486D01*
X0043318Y0043375D01*
X0043431Y0043260D01*
X0043541Y0043143D01*
X0043648Y0043023D01*
X0043752Y0042901D01*
X0043853Y0042776D01*
X0043951Y0042648D01*
X0044046Y0042518D01*
X0044138Y0042386D01*
X0044226Y0042252D01*
X0044311Y0042115D01*
X0044393Y0041977D01*
X0044471Y0041836D01*
X0044545Y0041694D01*
X0044616Y0041550D01*
X0044684Y0041404D01*
X0044747Y0041256D01*
X0044808Y0041107D01*
X0044864Y0040956D01*
X0044917Y0040804D01*
X0044966Y0040651D01*
X0045011Y0040497D01*
X0045052Y0040342D01*
X0045090Y0040185D01*
X0045123Y0040028D01*
X0045153Y0039870D01*
X0045179Y0039711D01*
X0045200Y0039552D01*
X0045218Y0039392D01*
X0045232Y0039232D01*
X0045242Y0039071D01*
X0045248Y0038911D01*
X0045250Y0038750D01*
X0045248Y0038589D01*
X0045242Y0038429D01*
X0045232Y0038268D01*
X0045218Y0038108D01*
X0045200Y0037948D01*
X0045179Y0037789D01*
X0045153Y0037630D01*
X0045123Y0037472D01*
X0045090Y0037315D01*
X0045052Y0037158D01*
X0045011Y0037003D01*
X0044966Y0036849D01*
X0044917Y0036696D01*
X0044864Y0036544D01*
X0044808Y0036393D01*
X0044747Y0036244D01*
X0044684Y0036096D01*
X0044616Y0035950D01*
X0044545Y0035806D01*
X0044471Y0035664D01*
X0044393Y0035523D01*
X0044311Y0035385D01*
X0044226Y0035248D01*
X0044138Y0035114D01*
X0044046Y0034982D01*
X0043951Y0034852D01*
X0043853Y0034724D01*
X0043752Y0034599D01*
X0043648Y0034477D01*
X0043541Y0034357D01*
X0043431Y0034240D01*
X0043318Y0034125D01*
X0043202Y0034014D01*
X0043083Y0033905D01*
X0042962Y0033800D01*
X0042838Y0033697D01*
X0042712Y0033597D01*
X0042584Y0033501D01*
X0042453Y0033408D01*
X0042319Y0033318D01*
X0042184Y0033231D01*
X0042046Y0033148D01*
X0041907Y0033068D01*
X0041765Y0032992D01*
X0041622Y0032919D01*
X0041477Y0032850D01*
X0041330Y0032784D01*
X0041182Y0032722D01*
X0041032Y0032664D01*
X0040881Y0032609D01*
X0040728Y0032558D01*
X0040574Y0032511D01*
X0040419Y0032468D01*
X0040263Y0032429D01*
X0040107Y0032393D01*
X0039949Y0032362D01*
X0039791Y0032334D01*
X0039632Y0032310D01*
X0039472Y0032290D01*
X0039312Y0032274D01*
X0039152Y0032262D01*
X0038991Y0032254D01*
X0038830Y0032250D01*
X0038670Y0032250D01*
X0038509Y0032254D01*
X0038348Y0032262D01*
X0038188Y0032274D01*
X0038028Y0032290D01*
X0037868Y0032310D01*
X0037709Y0032334D01*
X0037551Y0032362D01*
X0037393Y0032393D01*
X0037237Y0032429D01*
X0037081Y0032468D01*
X0036926Y0032511D01*
X0036772Y0032558D01*
X0036619Y0032609D01*
X0036468Y0032664D01*
X0036318Y0032722D01*
X0036170Y0032784D01*
X0036023Y0032850D01*
X0035878Y0032919D01*
X0035735Y0032992D01*
X0035593Y0033068D01*
X0035454Y0033148D01*
X0035316Y0033231D01*
X0035181Y0033318D01*
X0035047Y0033408D01*
X0034916Y0033501D01*
X0034788Y0033597D01*
X0034662Y0033697D01*
X0034538Y0033800D01*
X0034417Y0033905D01*
X0034298Y0034014D01*
X0034182Y0034125D01*
X0034069Y0034240D01*
X0033959Y0034357D01*
X0033852Y0034477D01*
X0033748Y0034599D01*
X0033647Y0034724D01*
X0033549Y0034852D01*
X0033454Y0034982D01*
X0033362Y0035114D01*
X0033274Y0035248D01*
X0033189Y0035385D01*
X0033107Y0035523D01*
X0033029Y0035664D01*
X0032955Y0035806D01*
X0032884Y0035950D01*
X0032816Y0036096D01*
X0032753Y0036244D01*
X0032692Y0036393D01*
X0032636Y0036544D01*
X0032583Y0036696D01*
X0032534Y0036849D01*
X0032489Y0037003D01*
X0032448Y0037158D01*
X0032410Y0037315D01*
X0032377Y0037472D01*
X0032347Y0037630D01*
X0032321Y0037789D01*
X0032300Y0037948D01*
X0032282Y0038108D01*
X0032268Y0038268D01*
X0032258Y0038429D01*
X0032252Y0038589D01*
X0032250Y0038750D01*
X0112250Y0038750D02*
X0112252Y0038911D01*
X0112258Y0039071D01*
X0112268Y0039232D01*
X0112282Y0039392D01*
X0112300Y0039552D01*
X0112321Y0039711D01*
X0112347Y0039870D01*
X0112377Y0040028D01*
X0112410Y0040185D01*
X0112448Y0040342D01*
X0112489Y0040497D01*
X0112534Y0040651D01*
X0112583Y0040804D01*
X0112636Y0040956D01*
X0112692Y0041107D01*
X0112753Y0041256D01*
X0112816Y0041404D01*
X0112884Y0041550D01*
X0112955Y0041694D01*
X0113029Y0041836D01*
X0113107Y0041977D01*
X0113189Y0042115D01*
X0113274Y0042252D01*
X0113362Y0042386D01*
X0113454Y0042518D01*
X0113549Y0042648D01*
X0113647Y0042776D01*
X0113748Y0042901D01*
X0113852Y0043023D01*
X0113959Y0043143D01*
X0114069Y0043260D01*
X0114182Y0043375D01*
X0114298Y0043486D01*
X0114417Y0043595D01*
X0114538Y0043700D01*
X0114662Y0043803D01*
X0114788Y0043903D01*
X0114916Y0043999D01*
X0115047Y0044092D01*
X0115181Y0044182D01*
X0115316Y0044269D01*
X0115454Y0044352D01*
X0115593Y0044432D01*
X0115735Y0044508D01*
X0115878Y0044581D01*
X0116023Y0044650D01*
X0116170Y0044716D01*
X0116318Y0044778D01*
X0116468Y0044836D01*
X0116619Y0044891D01*
X0116772Y0044942D01*
X0116926Y0044989D01*
X0117081Y0045032D01*
X0117237Y0045071D01*
X0117393Y0045107D01*
X0117551Y0045138D01*
X0117709Y0045166D01*
X0117868Y0045190D01*
X0118028Y0045210D01*
X0118188Y0045226D01*
X0118348Y0045238D01*
X0118509Y0045246D01*
X0118670Y0045250D01*
X0118830Y0045250D01*
X0118991Y0045246D01*
X0119152Y0045238D01*
X0119312Y0045226D01*
X0119472Y0045210D01*
X0119632Y0045190D01*
X0119791Y0045166D01*
X0119949Y0045138D01*
X0120107Y0045107D01*
X0120263Y0045071D01*
X0120419Y0045032D01*
X0120574Y0044989D01*
X0120728Y0044942D01*
X0120881Y0044891D01*
X0121032Y0044836D01*
X0121182Y0044778D01*
X0121330Y0044716D01*
X0121477Y0044650D01*
X0121622Y0044581D01*
X0121765Y0044508D01*
X0121907Y0044432D01*
X0122046Y0044352D01*
X0122184Y0044269D01*
X0122319Y0044182D01*
X0122453Y0044092D01*
X0122584Y0043999D01*
X0122712Y0043903D01*
X0122838Y0043803D01*
X0122962Y0043700D01*
X0123083Y0043595D01*
X0123202Y0043486D01*
X0123318Y0043375D01*
X0123431Y0043260D01*
X0123541Y0043143D01*
X0123648Y0043023D01*
X0123752Y0042901D01*
X0123853Y0042776D01*
X0123951Y0042648D01*
X0124046Y0042518D01*
X0124138Y0042386D01*
X0124226Y0042252D01*
X0124311Y0042115D01*
X0124393Y0041977D01*
X0124471Y0041836D01*
X0124545Y0041694D01*
X0124616Y0041550D01*
X0124684Y0041404D01*
X0124747Y0041256D01*
X0124808Y0041107D01*
X0124864Y0040956D01*
X0124917Y0040804D01*
X0124966Y0040651D01*
X0125011Y0040497D01*
X0125052Y0040342D01*
X0125090Y0040185D01*
X0125123Y0040028D01*
X0125153Y0039870D01*
X0125179Y0039711D01*
X0125200Y0039552D01*
X0125218Y0039392D01*
X0125232Y0039232D01*
X0125242Y0039071D01*
X0125248Y0038911D01*
X0125250Y0038750D01*
X0125248Y0038589D01*
X0125242Y0038429D01*
X0125232Y0038268D01*
X0125218Y0038108D01*
X0125200Y0037948D01*
X0125179Y0037789D01*
X0125153Y0037630D01*
X0125123Y0037472D01*
X0125090Y0037315D01*
X0125052Y0037158D01*
X0125011Y0037003D01*
X0124966Y0036849D01*
X0124917Y0036696D01*
X0124864Y0036544D01*
X0124808Y0036393D01*
X0124747Y0036244D01*
X0124684Y0036096D01*
X0124616Y0035950D01*
X0124545Y0035806D01*
X0124471Y0035664D01*
X0124393Y0035523D01*
X0124311Y0035385D01*
X0124226Y0035248D01*
X0124138Y0035114D01*
X0124046Y0034982D01*
X0123951Y0034852D01*
X0123853Y0034724D01*
X0123752Y0034599D01*
X0123648Y0034477D01*
X0123541Y0034357D01*
X0123431Y0034240D01*
X0123318Y0034125D01*
X0123202Y0034014D01*
X0123083Y0033905D01*
X0122962Y0033800D01*
X0122838Y0033697D01*
X0122712Y0033597D01*
X0122584Y0033501D01*
X0122453Y0033408D01*
X0122319Y0033318D01*
X0122184Y0033231D01*
X0122046Y0033148D01*
X0121907Y0033068D01*
X0121765Y0032992D01*
X0121622Y0032919D01*
X0121477Y0032850D01*
X0121330Y0032784D01*
X0121182Y0032722D01*
X0121032Y0032664D01*
X0120881Y0032609D01*
X0120728Y0032558D01*
X0120574Y0032511D01*
X0120419Y0032468D01*
X0120263Y0032429D01*
X0120107Y0032393D01*
X0119949Y0032362D01*
X0119791Y0032334D01*
X0119632Y0032310D01*
X0119472Y0032290D01*
X0119312Y0032274D01*
X0119152Y0032262D01*
X0118991Y0032254D01*
X0118830Y0032250D01*
X0118670Y0032250D01*
X0118509Y0032254D01*
X0118348Y0032262D01*
X0118188Y0032274D01*
X0118028Y0032290D01*
X0117868Y0032310D01*
X0117709Y0032334D01*
X0117551Y0032362D01*
X0117393Y0032393D01*
X0117237Y0032429D01*
X0117081Y0032468D01*
X0116926Y0032511D01*
X0116772Y0032558D01*
X0116619Y0032609D01*
X0116468Y0032664D01*
X0116318Y0032722D01*
X0116170Y0032784D01*
X0116023Y0032850D01*
X0115878Y0032919D01*
X0115735Y0032992D01*
X0115593Y0033068D01*
X0115454Y0033148D01*
X0115316Y0033231D01*
X0115181Y0033318D01*
X0115047Y0033408D01*
X0114916Y0033501D01*
X0114788Y0033597D01*
X0114662Y0033697D01*
X0114538Y0033800D01*
X0114417Y0033905D01*
X0114298Y0034014D01*
X0114182Y0034125D01*
X0114069Y0034240D01*
X0113959Y0034357D01*
X0113852Y0034477D01*
X0113748Y0034599D01*
X0113647Y0034724D01*
X0113549Y0034852D01*
X0113454Y0034982D01*
X0113362Y0035114D01*
X0113274Y0035248D01*
X0113189Y0035385D01*
X0113107Y0035523D01*
X0113029Y0035664D01*
X0112955Y0035806D01*
X0112884Y0035950D01*
X0112816Y0036096D01*
X0112753Y0036244D01*
X0112692Y0036393D01*
X0112636Y0036544D01*
X0112583Y0036696D01*
X0112534Y0036849D01*
X0112489Y0037003D01*
X0112448Y0037158D01*
X0112410Y0037315D01*
X0112377Y0037472D01*
X0112347Y0037630D01*
X0112321Y0037789D01*
X0112300Y0037948D01*
X0112282Y0038108D01*
X0112268Y0038268D01*
X0112258Y0038429D01*
X0112252Y0038589D01*
X0112250Y0038750D01*
X0134250Y0038750D02*
X0134252Y0038911D01*
X0134258Y0039071D01*
X0134268Y0039232D01*
X0134282Y0039392D01*
X0134300Y0039552D01*
X0134321Y0039711D01*
X0134347Y0039870D01*
X0134377Y0040028D01*
X0134410Y0040185D01*
X0134448Y0040342D01*
X0134489Y0040497D01*
X0134534Y0040651D01*
X0134583Y0040804D01*
X0134636Y0040956D01*
X0134692Y0041107D01*
X0134753Y0041256D01*
X0134816Y0041404D01*
X0134884Y0041550D01*
X0134955Y0041694D01*
X0135029Y0041836D01*
X0135107Y0041977D01*
X0135189Y0042115D01*
X0135274Y0042252D01*
X0135362Y0042386D01*
X0135454Y0042518D01*
X0135549Y0042648D01*
X0135647Y0042776D01*
X0135748Y0042901D01*
X0135852Y0043023D01*
X0135959Y0043143D01*
X0136069Y0043260D01*
X0136182Y0043375D01*
X0136298Y0043486D01*
X0136417Y0043595D01*
X0136538Y0043700D01*
X0136662Y0043803D01*
X0136788Y0043903D01*
X0136916Y0043999D01*
X0137047Y0044092D01*
X0137181Y0044182D01*
X0137316Y0044269D01*
X0137454Y0044352D01*
X0137593Y0044432D01*
X0137735Y0044508D01*
X0137878Y0044581D01*
X0138023Y0044650D01*
X0138170Y0044716D01*
X0138318Y0044778D01*
X0138468Y0044836D01*
X0138619Y0044891D01*
X0138772Y0044942D01*
X0138926Y0044989D01*
X0139081Y0045032D01*
X0139237Y0045071D01*
X0139393Y0045107D01*
X0139551Y0045138D01*
X0139709Y0045166D01*
X0139868Y0045190D01*
X0140028Y0045210D01*
X0140188Y0045226D01*
X0140348Y0045238D01*
X0140509Y0045246D01*
X0140670Y0045250D01*
X0140830Y0045250D01*
X0140991Y0045246D01*
X0141152Y0045238D01*
X0141312Y0045226D01*
X0141472Y0045210D01*
X0141632Y0045190D01*
X0141791Y0045166D01*
X0141949Y0045138D01*
X0142107Y0045107D01*
X0142263Y0045071D01*
X0142419Y0045032D01*
X0142574Y0044989D01*
X0142728Y0044942D01*
X0142881Y0044891D01*
X0143032Y0044836D01*
X0143182Y0044778D01*
X0143330Y0044716D01*
X0143477Y0044650D01*
X0143622Y0044581D01*
X0143765Y0044508D01*
X0143907Y0044432D01*
X0144046Y0044352D01*
X0144184Y0044269D01*
X0144319Y0044182D01*
X0144453Y0044092D01*
X0144584Y0043999D01*
X0144712Y0043903D01*
X0144838Y0043803D01*
X0144962Y0043700D01*
X0145083Y0043595D01*
X0145202Y0043486D01*
X0145318Y0043375D01*
X0145431Y0043260D01*
X0145541Y0043143D01*
X0145648Y0043023D01*
X0145752Y0042901D01*
X0145853Y0042776D01*
X0145951Y0042648D01*
X0146046Y0042518D01*
X0146138Y0042386D01*
X0146226Y0042252D01*
X0146311Y0042115D01*
X0146393Y0041977D01*
X0146471Y0041836D01*
X0146545Y0041694D01*
X0146616Y0041550D01*
X0146684Y0041404D01*
X0146747Y0041256D01*
X0146808Y0041107D01*
X0146864Y0040956D01*
X0146917Y0040804D01*
X0146966Y0040651D01*
X0147011Y0040497D01*
X0147052Y0040342D01*
X0147090Y0040185D01*
X0147123Y0040028D01*
X0147153Y0039870D01*
X0147179Y0039711D01*
X0147200Y0039552D01*
X0147218Y0039392D01*
X0147232Y0039232D01*
X0147242Y0039071D01*
X0147248Y0038911D01*
X0147250Y0038750D01*
X0147248Y0038589D01*
X0147242Y0038429D01*
X0147232Y0038268D01*
X0147218Y0038108D01*
X0147200Y0037948D01*
X0147179Y0037789D01*
X0147153Y0037630D01*
X0147123Y0037472D01*
X0147090Y0037315D01*
X0147052Y0037158D01*
X0147011Y0037003D01*
X0146966Y0036849D01*
X0146917Y0036696D01*
X0146864Y0036544D01*
X0146808Y0036393D01*
X0146747Y0036244D01*
X0146684Y0036096D01*
X0146616Y0035950D01*
X0146545Y0035806D01*
X0146471Y0035664D01*
X0146393Y0035523D01*
X0146311Y0035385D01*
X0146226Y0035248D01*
X0146138Y0035114D01*
X0146046Y0034982D01*
X0145951Y0034852D01*
X0145853Y0034724D01*
X0145752Y0034599D01*
X0145648Y0034477D01*
X0145541Y0034357D01*
X0145431Y0034240D01*
X0145318Y0034125D01*
X0145202Y0034014D01*
X0145083Y0033905D01*
X0144962Y0033800D01*
X0144838Y0033697D01*
X0144712Y0033597D01*
X0144584Y0033501D01*
X0144453Y0033408D01*
X0144319Y0033318D01*
X0144184Y0033231D01*
X0144046Y0033148D01*
X0143907Y0033068D01*
X0143765Y0032992D01*
X0143622Y0032919D01*
X0143477Y0032850D01*
X0143330Y0032784D01*
X0143182Y0032722D01*
X0143032Y0032664D01*
X0142881Y0032609D01*
X0142728Y0032558D01*
X0142574Y0032511D01*
X0142419Y0032468D01*
X0142263Y0032429D01*
X0142107Y0032393D01*
X0141949Y0032362D01*
X0141791Y0032334D01*
X0141632Y0032310D01*
X0141472Y0032290D01*
X0141312Y0032274D01*
X0141152Y0032262D01*
X0140991Y0032254D01*
X0140830Y0032250D01*
X0140670Y0032250D01*
X0140509Y0032254D01*
X0140348Y0032262D01*
X0140188Y0032274D01*
X0140028Y0032290D01*
X0139868Y0032310D01*
X0139709Y0032334D01*
X0139551Y0032362D01*
X0139393Y0032393D01*
X0139237Y0032429D01*
X0139081Y0032468D01*
X0138926Y0032511D01*
X0138772Y0032558D01*
X0138619Y0032609D01*
X0138468Y0032664D01*
X0138318Y0032722D01*
X0138170Y0032784D01*
X0138023Y0032850D01*
X0137878Y0032919D01*
X0137735Y0032992D01*
X0137593Y0033068D01*
X0137454Y0033148D01*
X0137316Y0033231D01*
X0137181Y0033318D01*
X0137047Y0033408D01*
X0136916Y0033501D01*
X0136788Y0033597D01*
X0136662Y0033697D01*
X0136538Y0033800D01*
X0136417Y0033905D01*
X0136298Y0034014D01*
X0136182Y0034125D01*
X0136069Y0034240D01*
X0135959Y0034357D01*
X0135852Y0034477D01*
X0135748Y0034599D01*
X0135647Y0034724D01*
X0135549Y0034852D01*
X0135454Y0034982D01*
X0135362Y0035114D01*
X0135274Y0035248D01*
X0135189Y0035385D01*
X0135107Y0035523D01*
X0135029Y0035664D01*
X0134955Y0035806D01*
X0134884Y0035950D01*
X0134816Y0036096D01*
X0134753Y0036244D01*
X0134692Y0036393D01*
X0134636Y0036544D01*
X0134583Y0036696D01*
X0134534Y0036849D01*
X0134489Y0037003D01*
X0134448Y0037158D01*
X0134410Y0037315D01*
X0134377Y0037472D01*
X0134347Y0037630D01*
X0134321Y0037789D01*
X0134300Y0037948D01*
X0134282Y0038108D01*
X0134268Y0038268D01*
X0134258Y0038429D01*
X0134252Y0038589D01*
X0134250Y0038750D01*
X0214250Y0038750D02*
X0214252Y0038911D01*
X0214258Y0039071D01*
X0214268Y0039232D01*
X0214282Y0039392D01*
X0214300Y0039552D01*
X0214321Y0039711D01*
X0214347Y0039870D01*
X0214377Y0040028D01*
X0214410Y0040185D01*
X0214448Y0040342D01*
X0214489Y0040497D01*
X0214534Y0040651D01*
X0214583Y0040804D01*
X0214636Y0040956D01*
X0214692Y0041107D01*
X0214753Y0041256D01*
X0214816Y0041404D01*
X0214884Y0041550D01*
X0214955Y0041694D01*
X0215029Y0041836D01*
X0215107Y0041977D01*
X0215189Y0042115D01*
X0215274Y0042252D01*
X0215362Y0042386D01*
X0215454Y0042518D01*
X0215549Y0042648D01*
X0215647Y0042776D01*
X0215748Y0042901D01*
X0215852Y0043023D01*
X0215959Y0043143D01*
X0216069Y0043260D01*
X0216182Y0043375D01*
X0216298Y0043486D01*
X0216417Y0043595D01*
X0216538Y0043700D01*
X0216662Y0043803D01*
X0216788Y0043903D01*
X0216916Y0043999D01*
X0217047Y0044092D01*
X0217181Y0044182D01*
X0217316Y0044269D01*
X0217454Y0044352D01*
X0217593Y0044432D01*
X0217735Y0044508D01*
X0217878Y0044581D01*
X0218023Y0044650D01*
X0218170Y0044716D01*
X0218318Y0044778D01*
X0218468Y0044836D01*
X0218619Y0044891D01*
X0218772Y0044942D01*
X0218926Y0044989D01*
X0219081Y0045032D01*
X0219237Y0045071D01*
X0219393Y0045107D01*
X0219551Y0045138D01*
X0219709Y0045166D01*
X0219868Y0045190D01*
X0220028Y0045210D01*
X0220188Y0045226D01*
X0220348Y0045238D01*
X0220509Y0045246D01*
X0220670Y0045250D01*
X0220830Y0045250D01*
X0220991Y0045246D01*
X0221152Y0045238D01*
X0221312Y0045226D01*
X0221472Y0045210D01*
X0221632Y0045190D01*
X0221791Y0045166D01*
X0221949Y0045138D01*
X0222107Y0045107D01*
X0222263Y0045071D01*
X0222419Y0045032D01*
X0222574Y0044989D01*
X0222728Y0044942D01*
X0222881Y0044891D01*
X0223032Y0044836D01*
X0223182Y0044778D01*
X0223330Y0044716D01*
X0223477Y0044650D01*
X0223622Y0044581D01*
X0223765Y0044508D01*
X0223907Y0044432D01*
X0224046Y0044352D01*
X0224184Y0044269D01*
X0224319Y0044182D01*
X0224453Y0044092D01*
X0224584Y0043999D01*
X0224712Y0043903D01*
X0224838Y0043803D01*
X0224962Y0043700D01*
X0225083Y0043595D01*
X0225202Y0043486D01*
X0225318Y0043375D01*
X0225431Y0043260D01*
X0225541Y0043143D01*
X0225648Y0043023D01*
X0225752Y0042901D01*
X0225853Y0042776D01*
X0225951Y0042648D01*
X0226046Y0042518D01*
X0226138Y0042386D01*
X0226226Y0042252D01*
X0226311Y0042115D01*
X0226393Y0041977D01*
X0226471Y0041836D01*
X0226545Y0041694D01*
X0226616Y0041550D01*
X0226684Y0041404D01*
X0226747Y0041256D01*
X0226808Y0041107D01*
X0226864Y0040956D01*
X0226917Y0040804D01*
X0226966Y0040651D01*
X0227011Y0040497D01*
X0227052Y0040342D01*
X0227090Y0040185D01*
X0227123Y0040028D01*
X0227153Y0039870D01*
X0227179Y0039711D01*
X0227200Y0039552D01*
X0227218Y0039392D01*
X0227232Y0039232D01*
X0227242Y0039071D01*
X0227248Y0038911D01*
X0227250Y0038750D01*
X0227248Y0038589D01*
X0227242Y0038429D01*
X0227232Y0038268D01*
X0227218Y0038108D01*
X0227200Y0037948D01*
X0227179Y0037789D01*
X0227153Y0037630D01*
X0227123Y0037472D01*
X0227090Y0037315D01*
X0227052Y0037158D01*
X0227011Y0037003D01*
X0226966Y0036849D01*
X0226917Y0036696D01*
X0226864Y0036544D01*
X0226808Y0036393D01*
X0226747Y0036244D01*
X0226684Y0036096D01*
X0226616Y0035950D01*
X0226545Y0035806D01*
X0226471Y0035664D01*
X0226393Y0035523D01*
X0226311Y0035385D01*
X0226226Y0035248D01*
X0226138Y0035114D01*
X0226046Y0034982D01*
X0225951Y0034852D01*
X0225853Y0034724D01*
X0225752Y0034599D01*
X0225648Y0034477D01*
X0225541Y0034357D01*
X0225431Y0034240D01*
X0225318Y0034125D01*
X0225202Y0034014D01*
X0225083Y0033905D01*
X0224962Y0033800D01*
X0224838Y0033697D01*
X0224712Y0033597D01*
X0224584Y0033501D01*
X0224453Y0033408D01*
X0224319Y0033318D01*
X0224184Y0033231D01*
X0224046Y0033148D01*
X0223907Y0033068D01*
X0223765Y0032992D01*
X0223622Y0032919D01*
X0223477Y0032850D01*
X0223330Y0032784D01*
X0223182Y0032722D01*
X0223032Y0032664D01*
X0222881Y0032609D01*
X0222728Y0032558D01*
X0222574Y0032511D01*
X0222419Y0032468D01*
X0222263Y0032429D01*
X0222107Y0032393D01*
X0221949Y0032362D01*
X0221791Y0032334D01*
X0221632Y0032310D01*
X0221472Y0032290D01*
X0221312Y0032274D01*
X0221152Y0032262D01*
X0220991Y0032254D01*
X0220830Y0032250D01*
X0220670Y0032250D01*
X0220509Y0032254D01*
X0220348Y0032262D01*
X0220188Y0032274D01*
X0220028Y0032290D01*
X0219868Y0032310D01*
X0219709Y0032334D01*
X0219551Y0032362D01*
X0219393Y0032393D01*
X0219237Y0032429D01*
X0219081Y0032468D01*
X0218926Y0032511D01*
X0218772Y0032558D01*
X0218619Y0032609D01*
X0218468Y0032664D01*
X0218318Y0032722D01*
X0218170Y0032784D01*
X0218023Y0032850D01*
X0217878Y0032919D01*
X0217735Y0032992D01*
X0217593Y0033068D01*
X0217454Y0033148D01*
X0217316Y0033231D01*
X0217181Y0033318D01*
X0217047Y0033408D01*
X0216916Y0033501D01*
X0216788Y0033597D01*
X0216662Y0033697D01*
X0216538Y0033800D01*
X0216417Y0033905D01*
X0216298Y0034014D01*
X0216182Y0034125D01*
X0216069Y0034240D01*
X0215959Y0034357D01*
X0215852Y0034477D01*
X0215748Y0034599D01*
X0215647Y0034724D01*
X0215549Y0034852D01*
X0215454Y0034982D01*
X0215362Y0035114D01*
X0215274Y0035248D01*
X0215189Y0035385D01*
X0215107Y0035523D01*
X0215029Y0035664D01*
X0214955Y0035806D01*
X0214884Y0035950D01*
X0214816Y0036096D01*
X0214753Y0036244D01*
X0214692Y0036393D01*
X0214636Y0036544D01*
X0214583Y0036696D01*
X0214534Y0036849D01*
X0214489Y0037003D01*
X0214448Y0037158D01*
X0214410Y0037315D01*
X0214377Y0037472D01*
X0214347Y0037630D01*
X0214321Y0037789D01*
X0214300Y0037948D01*
X0214282Y0038108D01*
X0214268Y0038268D01*
X0214258Y0038429D01*
X0214252Y0038589D01*
X0214250Y0038750D01*
X0236250Y0038750D02*
X0236252Y0038911D01*
X0236258Y0039071D01*
X0236268Y0039232D01*
X0236282Y0039392D01*
X0236300Y0039552D01*
X0236321Y0039711D01*
X0236347Y0039870D01*
X0236377Y0040028D01*
X0236410Y0040185D01*
X0236448Y0040342D01*
X0236489Y0040497D01*
X0236534Y0040651D01*
X0236583Y0040804D01*
X0236636Y0040956D01*
X0236692Y0041107D01*
X0236753Y0041256D01*
X0236816Y0041404D01*
X0236884Y0041550D01*
X0236955Y0041694D01*
X0237029Y0041836D01*
X0237107Y0041977D01*
X0237189Y0042115D01*
X0237274Y0042252D01*
X0237362Y0042386D01*
X0237454Y0042518D01*
X0237549Y0042648D01*
X0237647Y0042776D01*
X0237748Y0042901D01*
X0237852Y0043023D01*
X0237959Y0043143D01*
X0238069Y0043260D01*
X0238182Y0043375D01*
X0238298Y0043486D01*
X0238417Y0043595D01*
X0238538Y0043700D01*
X0238662Y0043803D01*
X0238788Y0043903D01*
X0238916Y0043999D01*
X0239047Y0044092D01*
X0239181Y0044182D01*
X0239316Y0044269D01*
X0239454Y0044352D01*
X0239593Y0044432D01*
X0239735Y0044508D01*
X0239878Y0044581D01*
X0240023Y0044650D01*
X0240170Y0044716D01*
X0240318Y0044778D01*
X0240468Y0044836D01*
X0240619Y0044891D01*
X0240772Y0044942D01*
X0240926Y0044989D01*
X0241081Y0045032D01*
X0241237Y0045071D01*
X0241393Y0045107D01*
X0241551Y0045138D01*
X0241709Y0045166D01*
X0241868Y0045190D01*
X0242028Y0045210D01*
X0242188Y0045226D01*
X0242348Y0045238D01*
X0242509Y0045246D01*
X0242670Y0045250D01*
X0242830Y0045250D01*
X0242991Y0045246D01*
X0243152Y0045238D01*
X0243312Y0045226D01*
X0243472Y0045210D01*
X0243632Y0045190D01*
X0243791Y0045166D01*
X0243949Y0045138D01*
X0244107Y0045107D01*
X0244263Y0045071D01*
X0244419Y0045032D01*
X0244574Y0044989D01*
X0244728Y0044942D01*
X0244881Y0044891D01*
X0245032Y0044836D01*
X0245182Y0044778D01*
X0245330Y0044716D01*
X0245477Y0044650D01*
X0245622Y0044581D01*
X0245765Y0044508D01*
X0245907Y0044432D01*
X0246046Y0044352D01*
X0246184Y0044269D01*
X0246319Y0044182D01*
X0246453Y0044092D01*
X0246584Y0043999D01*
X0246712Y0043903D01*
X0246838Y0043803D01*
X0246962Y0043700D01*
X0247083Y0043595D01*
X0247202Y0043486D01*
X0247318Y0043375D01*
X0247431Y0043260D01*
X0247541Y0043143D01*
X0247648Y0043023D01*
X0247752Y0042901D01*
X0247853Y0042776D01*
X0247951Y0042648D01*
X0248046Y0042518D01*
X0248138Y0042386D01*
X0248226Y0042252D01*
X0248311Y0042115D01*
X0248393Y0041977D01*
X0248471Y0041836D01*
X0248545Y0041694D01*
X0248616Y0041550D01*
X0248684Y0041404D01*
X0248747Y0041256D01*
X0248808Y0041107D01*
X0248864Y0040956D01*
X0248917Y0040804D01*
X0248966Y0040651D01*
X0249011Y0040497D01*
X0249052Y0040342D01*
X0249090Y0040185D01*
X0249123Y0040028D01*
X0249153Y0039870D01*
X0249179Y0039711D01*
X0249200Y0039552D01*
X0249218Y0039392D01*
X0249232Y0039232D01*
X0249242Y0039071D01*
X0249248Y0038911D01*
X0249250Y0038750D01*
X0249248Y0038589D01*
X0249242Y0038429D01*
X0249232Y0038268D01*
X0249218Y0038108D01*
X0249200Y0037948D01*
X0249179Y0037789D01*
X0249153Y0037630D01*
X0249123Y0037472D01*
X0249090Y0037315D01*
X0249052Y0037158D01*
X0249011Y0037003D01*
X0248966Y0036849D01*
X0248917Y0036696D01*
X0248864Y0036544D01*
X0248808Y0036393D01*
X0248747Y0036244D01*
X0248684Y0036096D01*
X0248616Y0035950D01*
X0248545Y0035806D01*
X0248471Y0035664D01*
X0248393Y0035523D01*
X0248311Y0035385D01*
X0248226Y0035248D01*
X0248138Y0035114D01*
X0248046Y0034982D01*
X0247951Y0034852D01*
X0247853Y0034724D01*
X0247752Y0034599D01*
X0247648Y0034477D01*
X0247541Y0034357D01*
X0247431Y0034240D01*
X0247318Y0034125D01*
X0247202Y0034014D01*
X0247083Y0033905D01*
X0246962Y0033800D01*
X0246838Y0033697D01*
X0246712Y0033597D01*
X0246584Y0033501D01*
X0246453Y0033408D01*
X0246319Y0033318D01*
X0246184Y0033231D01*
X0246046Y0033148D01*
X0245907Y0033068D01*
X0245765Y0032992D01*
X0245622Y0032919D01*
X0245477Y0032850D01*
X0245330Y0032784D01*
X0245182Y0032722D01*
X0245032Y0032664D01*
X0244881Y0032609D01*
X0244728Y0032558D01*
X0244574Y0032511D01*
X0244419Y0032468D01*
X0244263Y0032429D01*
X0244107Y0032393D01*
X0243949Y0032362D01*
X0243791Y0032334D01*
X0243632Y0032310D01*
X0243472Y0032290D01*
X0243312Y0032274D01*
X0243152Y0032262D01*
X0242991Y0032254D01*
X0242830Y0032250D01*
X0242670Y0032250D01*
X0242509Y0032254D01*
X0242348Y0032262D01*
X0242188Y0032274D01*
X0242028Y0032290D01*
X0241868Y0032310D01*
X0241709Y0032334D01*
X0241551Y0032362D01*
X0241393Y0032393D01*
X0241237Y0032429D01*
X0241081Y0032468D01*
X0240926Y0032511D01*
X0240772Y0032558D01*
X0240619Y0032609D01*
X0240468Y0032664D01*
X0240318Y0032722D01*
X0240170Y0032784D01*
X0240023Y0032850D01*
X0239878Y0032919D01*
X0239735Y0032992D01*
X0239593Y0033068D01*
X0239454Y0033148D01*
X0239316Y0033231D01*
X0239181Y0033318D01*
X0239047Y0033408D01*
X0238916Y0033501D01*
X0238788Y0033597D01*
X0238662Y0033697D01*
X0238538Y0033800D01*
X0238417Y0033905D01*
X0238298Y0034014D01*
X0238182Y0034125D01*
X0238069Y0034240D01*
X0237959Y0034357D01*
X0237852Y0034477D01*
X0237748Y0034599D01*
X0237647Y0034724D01*
X0237549Y0034852D01*
X0237454Y0034982D01*
X0237362Y0035114D01*
X0237274Y0035248D01*
X0237189Y0035385D01*
X0237107Y0035523D01*
X0237029Y0035664D01*
X0236955Y0035806D01*
X0236884Y0035950D01*
X0236816Y0036096D01*
X0236753Y0036244D01*
X0236692Y0036393D01*
X0236636Y0036544D01*
X0236583Y0036696D01*
X0236534Y0036849D01*
X0236489Y0037003D01*
X0236448Y0037158D01*
X0236410Y0037315D01*
X0236377Y0037472D01*
X0236347Y0037630D01*
X0236321Y0037789D01*
X0236300Y0037948D01*
X0236282Y0038108D01*
X0236268Y0038268D01*
X0236258Y0038429D01*
X0236252Y0038589D01*
X0236250Y0038750D01*
X0316250Y0038750D02*
X0316252Y0038911D01*
X0316258Y0039071D01*
X0316268Y0039232D01*
X0316282Y0039392D01*
X0316300Y0039552D01*
X0316321Y0039711D01*
X0316347Y0039870D01*
X0316377Y0040028D01*
X0316410Y0040185D01*
X0316448Y0040342D01*
X0316489Y0040497D01*
X0316534Y0040651D01*
X0316583Y0040804D01*
X0316636Y0040956D01*
X0316692Y0041107D01*
X0316753Y0041256D01*
X0316816Y0041404D01*
X0316884Y0041550D01*
X0316955Y0041694D01*
X0317029Y0041836D01*
X0317107Y0041977D01*
X0317189Y0042115D01*
X0317274Y0042252D01*
X0317362Y0042386D01*
X0317454Y0042518D01*
X0317549Y0042648D01*
X0317647Y0042776D01*
X0317748Y0042901D01*
X0317852Y0043023D01*
X0317959Y0043143D01*
X0318069Y0043260D01*
X0318182Y0043375D01*
X0318298Y0043486D01*
X0318417Y0043595D01*
X0318538Y0043700D01*
X0318662Y0043803D01*
X0318788Y0043903D01*
X0318916Y0043999D01*
X0319047Y0044092D01*
X0319181Y0044182D01*
X0319316Y0044269D01*
X0319454Y0044352D01*
X0319593Y0044432D01*
X0319735Y0044508D01*
X0319878Y0044581D01*
X0320023Y0044650D01*
X0320170Y0044716D01*
X0320318Y0044778D01*
X0320468Y0044836D01*
X0320619Y0044891D01*
X0320772Y0044942D01*
X0320926Y0044989D01*
X0321081Y0045032D01*
X0321237Y0045071D01*
X0321393Y0045107D01*
X0321551Y0045138D01*
X0321709Y0045166D01*
X0321868Y0045190D01*
X0322028Y0045210D01*
X0322188Y0045226D01*
X0322348Y0045238D01*
X0322509Y0045246D01*
X0322670Y0045250D01*
X0322830Y0045250D01*
X0322991Y0045246D01*
X0323152Y0045238D01*
X0323312Y0045226D01*
X0323472Y0045210D01*
X0323632Y0045190D01*
X0323791Y0045166D01*
X0323949Y0045138D01*
X0324107Y0045107D01*
X0324263Y0045071D01*
X0324419Y0045032D01*
X0324574Y0044989D01*
X0324728Y0044942D01*
X0324881Y0044891D01*
X0325032Y0044836D01*
X0325182Y0044778D01*
X0325330Y0044716D01*
X0325477Y0044650D01*
X0325622Y0044581D01*
X0325765Y0044508D01*
X0325907Y0044432D01*
X0326046Y0044352D01*
X0326184Y0044269D01*
X0326319Y0044182D01*
X0326453Y0044092D01*
X0326584Y0043999D01*
X0326712Y0043903D01*
X0326838Y0043803D01*
X0326962Y0043700D01*
X0327083Y0043595D01*
X0327202Y0043486D01*
X0327318Y0043375D01*
X0327431Y0043260D01*
X0327541Y0043143D01*
X0327648Y0043023D01*
X0327752Y0042901D01*
X0327853Y0042776D01*
X0327951Y0042648D01*
X0328046Y0042518D01*
X0328138Y0042386D01*
X0328226Y0042252D01*
X0328311Y0042115D01*
X0328393Y0041977D01*
X0328471Y0041836D01*
X0328545Y0041694D01*
X0328616Y0041550D01*
X0328684Y0041404D01*
X0328747Y0041256D01*
X0328808Y0041107D01*
X0328864Y0040956D01*
X0328917Y0040804D01*
X0328966Y0040651D01*
X0329011Y0040497D01*
X0329052Y0040342D01*
X0329090Y0040185D01*
X0329123Y0040028D01*
X0329153Y0039870D01*
X0329179Y0039711D01*
X0329200Y0039552D01*
X0329218Y0039392D01*
X0329232Y0039232D01*
X0329242Y0039071D01*
X0329248Y0038911D01*
X0329250Y0038750D01*
X0329248Y0038589D01*
X0329242Y0038429D01*
X0329232Y0038268D01*
X0329218Y0038108D01*
X0329200Y0037948D01*
X0329179Y0037789D01*
X0329153Y0037630D01*
X0329123Y0037472D01*
X0329090Y0037315D01*
X0329052Y0037158D01*
X0329011Y0037003D01*
X0328966Y0036849D01*
X0328917Y0036696D01*
X0328864Y0036544D01*
X0328808Y0036393D01*
X0328747Y0036244D01*
X0328684Y0036096D01*
X0328616Y0035950D01*
X0328545Y0035806D01*
X0328471Y0035664D01*
X0328393Y0035523D01*
X0328311Y0035385D01*
X0328226Y0035248D01*
X0328138Y0035114D01*
X0328046Y0034982D01*
X0327951Y0034852D01*
X0327853Y0034724D01*
X0327752Y0034599D01*
X0327648Y0034477D01*
X0327541Y0034357D01*
X0327431Y0034240D01*
X0327318Y0034125D01*
X0327202Y0034014D01*
X0327083Y0033905D01*
X0326962Y0033800D01*
X0326838Y0033697D01*
X0326712Y0033597D01*
X0326584Y0033501D01*
X0326453Y0033408D01*
X0326319Y0033318D01*
X0326184Y0033231D01*
X0326046Y0033148D01*
X0325907Y0033068D01*
X0325765Y0032992D01*
X0325622Y0032919D01*
X0325477Y0032850D01*
X0325330Y0032784D01*
X0325182Y0032722D01*
X0325032Y0032664D01*
X0324881Y0032609D01*
X0324728Y0032558D01*
X0324574Y0032511D01*
X0324419Y0032468D01*
X0324263Y0032429D01*
X0324107Y0032393D01*
X0323949Y0032362D01*
X0323791Y0032334D01*
X0323632Y0032310D01*
X0323472Y0032290D01*
X0323312Y0032274D01*
X0323152Y0032262D01*
X0322991Y0032254D01*
X0322830Y0032250D01*
X0322670Y0032250D01*
X0322509Y0032254D01*
X0322348Y0032262D01*
X0322188Y0032274D01*
X0322028Y0032290D01*
X0321868Y0032310D01*
X0321709Y0032334D01*
X0321551Y0032362D01*
X0321393Y0032393D01*
X0321237Y0032429D01*
X0321081Y0032468D01*
X0320926Y0032511D01*
X0320772Y0032558D01*
X0320619Y0032609D01*
X0320468Y0032664D01*
X0320318Y0032722D01*
X0320170Y0032784D01*
X0320023Y0032850D01*
X0319878Y0032919D01*
X0319735Y0032992D01*
X0319593Y0033068D01*
X0319454Y0033148D01*
X0319316Y0033231D01*
X0319181Y0033318D01*
X0319047Y0033408D01*
X0318916Y0033501D01*
X0318788Y0033597D01*
X0318662Y0033697D01*
X0318538Y0033800D01*
X0318417Y0033905D01*
X0318298Y0034014D01*
X0318182Y0034125D01*
X0318069Y0034240D01*
X0317959Y0034357D01*
X0317852Y0034477D01*
X0317748Y0034599D01*
X0317647Y0034724D01*
X0317549Y0034852D01*
X0317454Y0034982D01*
X0317362Y0035114D01*
X0317274Y0035248D01*
X0317189Y0035385D01*
X0317107Y0035523D01*
X0317029Y0035664D01*
X0316955Y0035806D01*
X0316884Y0035950D01*
X0316816Y0036096D01*
X0316753Y0036244D01*
X0316692Y0036393D01*
X0316636Y0036544D01*
X0316583Y0036696D01*
X0316534Y0036849D01*
X0316489Y0037003D01*
X0316448Y0037158D01*
X0316410Y0037315D01*
X0316377Y0037472D01*
X0316347Y0037630D01*
X0316321Y0037789D01*
X0316300Y0037948D01*
X0316282Y0038108D01*
X0316268Y0038268D01*
X0316258Y0038429D01*
X0316252Y0038589D01*
X0316250Y0038750D01*
M02*
