G75*
%MOIN*%
%OFA0B0*%
%FSLAX25Y25*%
%IPPOS*%
%LPD*%
%AMOC8*
5,1,8,0,0,1.08239X$1,22.5*
%
%ADD10R,0.05315X0.11417*%
%ADD11C,0.00394*%
%ADD12C,0.03937*%
%ADD13C,0.05906*%
%ADD14C,0.01000*%
%ADD15C,0.02700*%
%ADD16C,0.06000*%
%ADD17C,0.00800*%
D10*
X0073007Y0118605D03*
X0084581Y0118605D03*
X0175007Y0118605D03*
X0186581Y0118605D03*
X0277007Y0118605D03*
X0288581Y0118605D03*
D11*
X0286180Y0118567D02*
X0300158Y0118567D01*
X0300747Y0118841D02*
X0297794Y0117463D01*
X0294802Y0116400D01*
X0291416Y0115456D01*
X0288739Y0114944D01*
X0286180Y0114668D01*
X0286180Y0124274D01*
X0287873Y0124471D01*
X0290156Y0124944D01*
X0293070Y0125849D01*
X0295707Y0126952D01*
X0298345Y0128408D01*
X0301101Y0130298D01*
X0303896Y0132818D01*
X0305944Y0135062D01*
X0308030Y0138015D01*
X0309605Y0140928D01*
X0310786Y0143684D01*
X0311731Y0147109D01*
X0312282Y0149747D01*
X0312479Y0153369D01*
X0312361Y0156479D01*
X0311889Y0159668D01*
X0311259Y0162345D01*
X0310156Y0165298D01*
X0308739Y0168251D01*
X0306770Y0171282D01*
X0304802Y0173644D01*
X0303030Y0175456D01*
X0300235Y0177778D01*
X0298109Y0179156D01*
X0296022Y0180298D01*
X0293621Y0181400D01*
X0291377Y0182148D01*
X0288621Y0182818D01*
X0284881Y0183330D01*
X0282479Y0183408D01*
X0279920Y0183290D01*
X0276967Y0182857D01*
X0274408Y0182188D01*
X0271416Y0181125D01*
X0268385Y0179707D01*
X0265235Y0177660D01*
X0262952Y0175849D01*
X0260747Y0173605D01*
X0258621Y0171007D01*
X0257204Y0168763D01*
X0255865Y0166322D01*
X0254566Y0163093D01*
X0253621Y0159314D01*
X0253188Y0156322D01*
X0253109Y0153133D01*
X0253306Y0150180D01*
X0253818Y0146991D01*
X0254920Y0143448D01*
X0256180Y0140495D01*
X0257479Y0138054D01*
X0259920Y0134707D01*
X0262164Y0132306D01*
X0264290Y0130495D01*
X0265865Y0129314D01*
X0267046Y0128526D01*
X0269802Y0126952D01*
X0273739Y0125377D01*
X0276889Y0124589D01*
X0279251Y0124196D01*
X0279251Y0114747D01*
X0278503Y0114747D01*
X0275117Y0115259D01*
X0271770Y0116085D01*
X0268463Y0117188D01*
X0263936Y0119314D01*
X0261062Y0121085D01*
X0258267Y0123133D01*
X0255432Y0125692D01*
X0252952Y0128251D01*
X0250589Y0131322D01*
X0247873Y0135849D01*
X0245983Y0140219D01*
X0244526Y0145141D01*
X0243660Y0150731D01*
X0243581Y0154550D01*
X0243857Y0158369D01*
X0244330Y0161400D01*
X0244920Y0163881D01*
X0245826Y0166833D01*
X0247046Y0169865D01*
X0248542Y0172818D01*
X0250550Y0176085D01*
X0252912Y0179117D01*
X0255117Y0181519D01*
X0258306Y0184353D01*
X0260471Y0185967D01*
X0263070Y0187621D01*
X0266141Y0189235D01*
X0268818Y0190416D01*
X0271416Y0191282D01*
X0274251Y0192030D01*
X0277558Y0192621D01*
X0281337Y0192896D01*
X0284644Y0192896D01*
X0287912Y0192581D01*
X0290826Y0192109D01*
X0294330Y0191204D01*
X0297676Y0190022D01*
X0301022Y0188487D01*
X0303857Y0186833D01*
X0307400Y0184274D01*
X0309723Y0182267D01*
X0311928Y0179983D01*
X0314369Y0177030D01*
X0316062Y0174550D01*
X0317597Y0171833D01*
X0318975Y0168959D01*
X0320196Y0165692D01*
X0321141Y0162070D01*
X0321692Y0158999D01*
X0321967Y0155928D01*
X0322046Y0153054D01*
X0321849Y0149904D01*
X0321416Y0146715D01*
X0320747Y0143763D01*
X0319959Y0141164D01*
X0318621Y0137700D01*
X0317282Y0135022D01*
X0315747Y0132463D01*
X0314448Y0130534D01*
X0312873Y0128566D01*
X0310747Y0126204D01*
X0308739Y0124314D01*
X0306416Y0122424D01*
X0304015Y0120731D01*
X0300747Y0118841D01*
X0300950Y0118959D02*
X0286180Y0118959D01*
X0286180Y0119351D02*
X0301628Y0119351D01*
X0302306Y0119743D02*
X0286180Y0119743D01*
X0286180Y0120135D02*
X0302985Y0120135D01*
X0303663Y0120528D02*
X0286180Y0120528D01*
X0286180Y0120920D02*
X0304282Y0120920D01*
X0304839Y0121312D02*
X0286180Y0121312D01*
X0286180Y0121704D02*
X0305395Y0121704D01*
X0305951Y0122096D02*
X0286180Y0122096D01*
X0286180Y0122489D02*
X0306496Y0122489D01*
X0306978Y0122881D02*
X0286180Y0122881D01*
X0286180Y0123273D02*
X0307460Y0123273D01*
X0307942Y0123665D02*
X0286180Y0123665D01*
X0286180Y0124058D02*
X0308424Y0124058D01*
X0308883Y0124450D02*
X0287688Y0124450D01*
X0289665Y0124842D02*
X0309300Y0124842D01*
X0309717Y0125234D02*
X0291091Y0125234D01*
X0292353Y0125626D02*
X0310134Y0125626D01*
X0310550Y0126019D02*
X0293475Y0126019D01*
X0294414Y0126411D02*
X0310933Y0126411D01*
X0311286Y0126803D02*
X0295352Y0126803D01*
X0296149Y0127195D02*
X0311639Y0127195D01*
X0311992Y0127587D02*
X0296859Y0127587D01*
X0297569Y0127980D02*
X0312345Y0127980D01*
X0312698Y0128372D02*
X0298279Y0128372D01*
X0298864Y0128764D02*
X0313031Y0128764D01*
X0313345Y0129156D02*
X0299436Y0129156D01*
X0300008Y0129549D02*
X0313659Y0129549D01*
X0313973Y0129941D02*
X0300580Y0129941D01*
X0301140Y0130333D02*
X0314287Y0130333D01*
X0314576Y0130725D02*
X0301575Y0130725D01*
X0302010Y0131117D02*
X0314840Y0131117D01*
X0315104Y0131510D02*
X0302445Y0131510D01*
X0302880Y0131902D02*
X0315369Y0131902D01*
X0315633Y0132294D02*
X0303315Y0132294D01*
X0303751Y0132686D02*
X0315881Y0132686D01*
X0316116Y0133078D02*
X0304134Y0133078D01*
X0304492Y0133471D02*
X0316351Y0133471D01*
X0316587Y0133863D02*
X0304850Y0133863D01*
X0305208Y0134255D02*
X0316822Y0134255D01*
X0317057Y0134647D02*
X0305566Y0134647D01*
X0305923Y0135039D02*
X0317291Y0135039D01*
X0317487Y0135432D02*
X0306205Y0135432D01*
X0306482Y0135824D02*
X0317683Y0135824D01*
X0317879Y0136216D02*
X0306759Y0136216D01*
X0307037Y0136608D02*
X0318075Y0136608D01*
X0318271Y0137001D02*
X0307314Y0137001D01*
X0307591Y0137393D02*
X0318467Y0137393D01*
X0318654Y0137785D02*
X0307868Y0137785D01*
X0308118Y0138177D02*
X0318805Y0138177D01*
X0318957Y0138569D02*
X0308330Y0138569D01*
X0308542Y0138962D02*
X0319108Y0138962D01*
X0319260Y0139354D02*
X0308754Y0139354D01*
X0308966Y0139746D02*
X0319412Y0139746D01*
X0319563Y0140138D02*
X0309178Y0140138D01*
X0309390Y0140530D02*
X0319715Y0140530D01*
X0319866Y0140923D02*
X0309602Y0140923D01*
X0309771Y0141315D02*
X0320005Y0141315D01*
X0320124Y0141707D02*
X0309939Y0141707D01*
X0310107Y0142099D02*
X0320243Y0142099D01*
X0320362Y0142492D02*
X0310275Y0142492D01*
X0310443Y0142884D02*
X0320481Y0142884D01*
X0320599Y0143276D02*
X0310611Y0143276D01*
X0310779Y0143668D02*
X0320718Y0143668D01*
X0320814Y0144060D02*
X0310890Y0144060D01*
X0310998Y0144453D02*
X0320903Y0144453D01*
X0320992Y0144845D02*
X0311106Y0144845D01*
X0311215Y0145237D02*
X0321081Y0145237D01*
X0321170Y0145629D02*
X0311323Y0145629D01*
X0311431Y0146021D02*
X0321259Y0146021D01*
X0321348Y0146414D02*
X0311539Y0146414D01*
X0311647Y0146806D02*
X0321428Y0146806D01*
X0321482Y0147198D02*
X0311750Y0147198D01*
X0311832Y0147590D02*
X0321535Y0147590D01*
X0321588Y0147982D02*
X0311914Y0147982D01*
X0311996Y0148375D02*
X0321641Y0148375D01*
X0321695Y0148767D02*
X0312078Y0148767D01*
X0312159Y0149159D02*
X0321748Y0149159D01*
X0321801Y0149551D02*
X0312241Y0149551D01*
X0312293Y0149944D02*
X0321852Y0149944D01*
X0321876Y0150336D02*
X0312314Y0150336D01*
X0312336Y0150728D02*
X0321901Y0150728D01*
X0321925Y0151120D02*
X0312357Y0151120D01*
X0312378Y0151512D02*
X0321950Y0151512D01*
X0321974Y0151905D02*
X0312400Y0151905D01*
X0312421Y0152297D02*
X0321999Y0152297D01*
X0322023Y0152689D02*
X0312442Y0152689D01*
X0312464Y0153081D02*
X0322045Y0153081D01*
X0322035Y0153473D02*
X0312475Y0153473D01*
X0312460Y0153866D02*
X0322024Y0153866D01*
X0322013Y0154258D02*
X0312445Y0154258D01*
X0312430Y0154650D02*
X0322002Y0154650D01*
X0321992Y0155042D02*
X0312416Y0155042D01*
X0312401Y0155435D02*
X0321981Y0155435D01*
X0321970Y0155827D02*
X0312386Y0155827D01*
X0312371Y0156219D02*
X0321941Y0156219D01*
X0321906Y0156611D02*
X0312341Y0156611D01*
X0312283Y0157003D02*
X0321871Y0157003D01*
X0321836Y0157396D02*
X0312225Y0157396D01*
X0312167Y0157788D02*
X0321800Y0157788D01*
X0321765Y0158180D02*
X0312109Y0158180D01*
X0312051Y0158572D02*
X0321730Y0158572D01*
X0321695Y0158964D02*
X0311993Y0158964D01*
X0311935Y0159357D02*
X0321628Y0159357D01*
X0321557Y0159749D02*
X0311870Y0159749D01*
X0311777Y0160141D02*
X0321487Y0160141D01*
X0321416Y0160533D02*
X0311685Y0160533D01*
X0311593Y0160925D02*
X0321346Y0160925D01*
X0321276Y0161318D02*
X0311500Y0161318D01*
X0311408Y0161710D02*
X0321205Y0161710D01*
X0321132Y0162102D02*
X0311316Y0162102D01*
X0311203Y0162494D02*
X0321030Y0162494D01*
X0320927Y0162887D02*
X0311057Y0162887D01*
X0310910Y0163279D02*
X0320825Y0163279D01*
X0320723Y0163671D02*
X0310764Y0163671D01*
X0310617Y0164063D02*
X0320621Y0164063D01*
X0320518Y0164455D02*
X0310471Y0164455D01*
X0310324Y0164848D02*
X0320416Y0164848D01*
X0320314Y0165240D02*
X0310178Y0165240D01*
X0309996Y0165632D02*
X0320211Y0165632D01*
X0320071Y0166024D02*
X0309808Y0166024D01*
X0309619Y0166416D02*
X0319925Y0166416D01*
X0319779Y0166809D02*
X0309431Y0166809D01*
X0309243Y0167201D02*
X0319632Y0167201D01*
X0319486Y0167593D02*
X0309055Y0167593D01*
X0308866Y0167985D02*
X0319339Y0167985D01*
X0319193Y0168378D02*
X0308657Y0168378D01*
X0308402Y0168770D02*
X0319046Y0168770D01*
X0318878Y0169162D02*
X0308147Y0169162D01*
X0307893Y0169554D02*
X0318690Y0169554D01*
X0318502Y0169946D02*
X0307638Y0169946D01*
X0307383Y0170339D02*
X0318314Y0170339D01*
X0318126Y0170731D02*
X0307129Y0170731D01*
X0306874Y0171123D02*
X0317938Y0171123D01*
X0317750Y0171515D02*
X0306576Y0171515D01*
X0306250Y0171907D02*
X0317555Y0171907D01*
X0317334Y0172300D02*
X0305923Y0172300D01*
X0305596Y0172692D02*
X0317112Y0172692D01*
X0316890Y0173084D02*
X0305269Y0173084D01*
X0304942Y0173476D02*
X0316669Y0173476D01*
X0316447Y0173868D02*
X0304583Y0173868D01*
X0304199Y0174261D02*
X0316225Y0174261D01*
X0315992Y0174653D02*
X0303815Y0174653D01*
X0303432Y0175045D02*
X0315724Y0175045D01*
X0315456Y0175437D02*
X0303048Y0175437D01*
X0302580Y0175830D02*
X0315188Y0175830D01*
X0314921Y0176222D02*
X0302108Y0176222D01*
X0301636Y0176614D02*
X0314653Y0176614D01*
X0314385Y0177006D02*
X0301164Y0177006D01*
X0300692Y0177398D02*
X0314065Y0177398D01*
X0313740Y0177791D02*
X0300216Y0177791D01*
X0299611Y0178183D02*
X0313416Y0178183D01*
X0313092Y0178575D02*
X0299006Y0178575D01*
X0298401Y0178967D02*
X0312768Y0178967D01*
X0312443Y0179359D02*
X0297738Y0179359D01*
X0297021Y0179752D02*
X0312119Y0179752D01*
X0311773Y0180144D02*
X0296304Y0180144D01*
X0295504Y0180536D02*
X0311394Y0180536D01*
X0311015Y0180928D02*
X0294649Y0180928D01*
X0293795Y0181321D02*
X0310637Y0181321D01*
X0310258Y0181713D02*
X0292684Y0181713D01*
X0291507Y0182105D02*
X0309879Y0182105D01*
X0309456Y0182497D02*
X0289941Y0182497D01*
X0288097Y0182889D02*
X0309003Y0182889D01*
X0308549Y0183282D02*
X0285231Y0183282D01*
X0279862Y0183282D02*
X0257100Y0183282D01*
X0256659Y0182889D02*
X0277187Y0182889D01*
X0275591Y0182497D02*
X0256218Y0182497D01*
X0255777Y0182105D02*
X0274175Y0182105D01*
X0273071Y0181713D02*
X0255335Y0181713D01*
X0254935Y0181321D02*
X0271967Y0181321D01*
X0270996Y0180928D02*
X0254575Y0180928D01*
X0254215Y0180536D02*
X0270157Y0180536D01*
X0269318Y0180144D02*
X0253855Y0180144D01*
X0253495Y0179752D02*
X0268479Y0179752D01*
X0267849Y0179359D02*
X0253135Y0179359D01*
X0252796Y0178967D02*
X0267246Y0178967D01*
X0266642Y0178575D02*
X0252490Y0178575D01*
X0252184Y0178183D02*
X0266039Y0178183D01*
X0265436Y0177791D02*
X0251879Y0177791D01*
X0251573Y0177398D02*
X0264905Y0177398D01*
X0264410Y0177006D02*
X0251267Y0177006D01*
X0250962Y0176614D02*
X0263916Y0176614D01*
X0263421Y0176222D02*
X0250656Y0176222D01*
X0250393Y0175830D02*
X0262932Y0175830D01*
X0262547Y0175437D02*
X0250152Y0175437D01*
X0249911Y0175045D02*
X0262162Y0175045D01*
X0261776Y0174653D02*
X0249670Y0174653D01*
X0249429Y0174261D02*
X0261391Y0174261D01*
X0261006Y0173868D02*
X0249188Y0173868D01*
X0248947Y0173476D02*
X0260641Y0173476D01*
X0260321Y0173084D02*
X0248706Y0173084D01*
X0248478Y0172692D02*
X0260000Y0172692D01*
X0259679Y0172300D02*
X0248280Y0172300D01*
X0248081Y0171907D02*
X0259358Y0171907D01*
X0259037Y0171515D02*
X0247882Y0171515D01*
X0247683Y0171123D02*
X0258716Y0171123D01*
X0258447Y0170731D02*
X0247485Y0170731D01*
X0247286Y0170339D02*
X0258199Y0170339D01*
X0257951Y0169946D02*
X0247087Y0169946D01*
X0246921Y0169554D02*
X0257703Y0169554D01*
X0257456Y0169162D02*
X0246763Y0169162D01*
X0246605Y0168770D02*
X0257208Y0168770D01*
X0256992Y0168378D02*
X0246447Y0168378D01*
X0246289Y0167985D02*
X0256777Y0167985D01*
X0256562Y0167593D02*
X0246131Y0167593D01*
X0245974Y0167201D02*
X0256347Y0167201D01*
X0256132Y0166809D02*
X0245818Y0166809D01*
X0245698Y0166416D02*
X0255917Y0166416D01*
X0255745Y0166024D02*
X0245577Y0166024D01*
X0245457Y0165632D02*
X0255587Y0165632D01*
X0255430Y0165240D02*
X0245337Y0165240D01*
X0245217Y0164848D02*
X0255272Y0164848D01*
X0255114Y0164455D02*
X0245096Y0164455D01*
X0244976Y0164063D02*
X0254956Y0164063D01*
X0254798Y0163671D02*
X0244870Y0163671D01*
X0244777Y0163279D02*
X0254640Y0163279D01*
X0254514Y0162887D02*
X0244683Y0162887D01*
X0244590Y0162494D02*
X0254416Y0162494D01*
X0254318Y0162102D02*
X0244497Y0162102D01*
X0244403Y0161710D02*
X0254220Y0161710D01*
X0254122Y0161318D02*
X0244317Y0161318D01*
X0244256Y0160925D02*
X0254024Y0160925D01*
X0253926Y0160533D02*
X0244194Y0160533D01*
X0244133Y0160141D02*
X0253828Y0160141D01*
X0253730Y0159749D02*
X0244072Y0159749D01*
X0244011Y0159357D02*
X0253632Y0159357D01*
X0253570Y0158964D02*
X0243950Y0158964D01*
X0243889Y0158572D02*
X0253514Y0158572D01*
X0253457Y0158180D02*
X0243843Y0158180D01*
X0243815Y0157788D02*
X0253400Y0157788D01*
X0253343Y0157396D02*
X0243787Y0157396D01*
X0243759Y0157003D02*
X0253286Y0157003D01*
X0253230Y0156611D02*
X0243730Y0156611D01*
X0243702Y0156219D02*
X0253185Y0156219D01*
X0253176Y0155827D02*
X0243674Y0155827D01*
X0243645Y0155435D02*
X0253166Y0155435D01*
X0253156Y0155042D02*
X0243617Y0155042D01*
X0243589Y0154650D02*
X0253147Y0154650D01*
X0253137Y0154258D02*
X0243588Y0154258D01*
X0243596Y0153866D02*
X0253127Y0153866D01*
X0253117Y0153473D02*
X0243604Y0153473D01*
X0243612Y0153081D02*
X0253112Y0153081D01*
X0253139Y0152689D02*
X0243620Y0152689D01*
X0243628Y0152297D02*
X0253165Y0152297D01*
X0253191Y0151905D02*
X0243636Y0151905D01*
X0243644Y0151512D02*
X0253217Y0151512D01*
X0253243Y0151120D02*
X0243652Y0151120D01*
X0243661Y0150728D02*
X0253269Y0150728D01*
X0253296Y0150336D02*
X0243721Y0150336D01*
X0243782Y0149944D02*
X0253344Y0149944D01*
X0253407Y0149551D02*
X0243843Y0149551D01*
X0243904Y0149159D02*
X0253470Y0149159D01*
X0253533Y0148767D02*
X0243965Y0148767D01*
X0244025Y0148375D02*
X0253596Y0148375D01*
X0253659Y0147982D02*
X0244086Y0147982D01*
X0244147Y0147590D02*
X0253722Y0147590D01*
X0253784Y0147198D02*
X0244208Y0147198D01*
X0244268Y0146806D02*
X0253875Y0146806D01*
X0253997Y0146414D02*
X0244329Y0146414D01*
X0244390Y0146021D02*
X0254119Y0146021D01*
X0254241Y0145629D02*
X0244451Y0145629D01*
X0244511Y0145237D02*
X0254363Y0145237D01*
X0254485Y0144845D02*
X0244614Y0144845D01*
X0244730Y0144453D02*
X0254607Y0144453D01*
X0254729Y0144060D02*
X0244846Y0144060D01*
X0244962Y0143668D02*
X0254851Y0143668D01*
X0254993Y0143276D02*
X0245078Y0143276D01*
X0245194Y0142884D02*
X0255161Y0142884D01*
X0255328Y0142492D02*
X0245310Y0142492D01*
X0245427Y0142099D02*
X0255495Y0142099D01*
X0255663Y0141707D02*
X0245543Y0141707D01*
X0245659Y0141315D02*
X0255830Y0141315D01*
X0255997Y0140923D02*
X0245775Y0140923D01*
X0245891Y0140530D02*
X0256165Y0140530D01*
X0256370Y0140138D02*
X0246018Y0140138D01*
X0246188Y0139746D02*
X0256579Y0139746D01*
X0256787Y0139354D02*
X0246357Y0139354D01*
X0246527Y0138962D02*
X0256996Y0138962D01*
X0257205Y0138569D02*
X0246697Y0138569D01*
X0246866Y0138177D02*
X0257414Y0138177D01*
X0257675Y0137785D02*
X0247036Y0137785D01*
X0247205Y0137393D02*
X0257961Y0137393D01*
X0258248Y0137001D02*
X0247375Y0137001D01*
X0247545Y0136608D02*
X0258534Y0136608D01*
X0258820Y0136216D02*
X0247714Y0136216D01*
X0247888Y0135824D02*
X0259106Y0135824D01*
X0259392Y0135432D02*
X0248123Y0135432D01*
X0248359Y0135039D02*
X0259678Y0135039D01*
X0259976Y0134647D02*
X0248594Y0134647D01*
X0248829Y0134255D02*
X0260343Y0134255D01*
X0260709Y0133863D02*
X0249065Y0133863D01*
X0249300Y0133471D02*
X0261076Y0133471D01*
X0261442Y0133078D02*
X0249535Y0133078D01*
X0249771Y0132686D02*
X0261809Y0132686D01*
X0262178Y0132294D02*
X0250006Y0132294D01*
X0250241Y0131902D02*
X0262639Y0131902D01*
X0263099Y0131510D02*
X0250477Y0131510D01*
X0250747Y0131117D02*
X0263559Y0131117D01*
X0264020Y0130725D02*
X0251048Y0130725D01*
X0251350Y0130333D02*
X0264506Y0130333D01*
X0265029Y0129941D02*
X0251652Y0129941D01*
X0251953Y0129549D02*
X0265552Y0129549D01*
X0266101Y0129156D02*
X0252255Y0129156D01*
X0252557Y0128764D02*
X0266690Y0128764D01*
X0267316Y0128372D02*
X0252858Y0128372D01*
X0253214Y0127980D02*
X0268003Y0127980D01*
X0268689Y0127587D02*
X0253595Y0127587D01*
X0253975Y0127195D02*
X0269376Y0127195D01*
X0270173Y0126803D02*
X0254355Y0126803D01*
X0254735Y0126411D02*
X0271154Y0126411D01*
X0272134Y0126019D02*
X0255115Y0126019D01*
X0255504Y0125626D02*
X0273115Y0125626D01*
X0274309Y0125234D02*
X0255939Y0125234D01*
X0256373Y0124842D02*
X0275878Y0124842D01*
X0277726Y0124450D02*
X0256808Y0124450D01*
X0257242Y0124058D02*
X0279251Y0124058D01*
X0279251Y0123665D02*
X0257677Y0123665D01*
X0258111Y0123273D02*
X0279251Y0123273D01*
X0279251Y0122881D02*
X0258610Y0122881D01*
X0259146Y0122489D02*
X0279251Y0122489D01*
X0279251Y0122096D02*
X0259681Y0122096D01*
X0260217Y0121704D02*
X0279251Y0121704D01*
X0279251Y0121312D02*
X0260752Y0121312D01*
X0261330Y0120920D02*
X0279251Y0120920D01*
X0279251Y0120528D02*
X0261967Y0120528D01*
X0262603Y0120135D02*
X0279251Y0120135D01*
X0279251Y0119743D02*
X0263239Y0119743D01*
X0263875Y0119351D02*
X0279251Y0119351D01*
X0279251Y0118959D02*
X0264692Y0118959D01*
X0265527Y0118567D02*
X0279251Y0118567D01*
X0279251Y0118174D02*
X0266362Y0118174D01*
X0267198Y0117782D02*
X0279251Y0117782D01*
X0279251Y0117390D02*
X0268033Y0117390D01*
X0269034Y0116998D02*
X0279251Y0116998D01*
X0279251Y0116606D02*
X0270210Y0116606D01*
X0271387Y0116213D02*
X0279251Y0116213D01*
X0279251Y0115821D02*
X0272840Y0115821D01*
X0274428Y0115429D02*
X0279251Y0115429D01*
X0279251Y0115037D02*
X0276586Y0115037D01*
X0286180Y0115037D02*
X0289225Y0115037D01*
X0291277Y0115429D02*
X0286180Y0115429D01*
X0286180Y0115821D02*
X0292726Y0115821D01*
X0294132Y0116213D02*
X0286180Y0116213D01*
X0286180Y0116606D02*
X0295379Y0116606D01*
X0296483Y0116998D02*
X0286180Y0116998D01*
X0286180Y0117390D02*
X0297587Y0117390D01*
X0298477Y0117782D02*
X0286180Y0117782D01*
X0286180Y0118174D02*
X0299318Y0118174D01*
X0218481Y0142884D02*
X0208443Y0142884D01*
X0208611Y0143276D02*
X0218599Y0143276D01*
X0218718Y0143668D02*
X0208779Y0143668D01*
X0208786Y0143684D02*
X0207605Y0140928D01*
X0206030Y0138015D01*
X0203944Y0135062D01*
X0201896Y0132818D01*
X0199101Y0130298D01*
X0196345Y0128408D01*
X0193707Y0126952D01*
X0191070Y0125849D01*
X0188156Y0124944D01*
X0185873Y0124471D01*
X0184180Y0124274D01*
X0184180Y0114668D01*
X0186739Y0114944D01*
X0189416Y0115456D01*
X0192802Y0116400D01*
X0195794Y0117463D01*
X0198747Y0118841D01*
X0202015Y0120731D01*
X0204416Y0122424D01*
X0206739Y0124314D01*
X0208747Y0126204D01*
X0210873Y0128566D01*
X0212448Y0130534D01*
X0213747Y0132463D01*
X0215282Y0135022D01*
X0216621Y0137700D01*
X0217959Y0141164D01*
X0218747Y0143763D01*
X0219416Y0146715D01*
X0219849Y0149904D01*
X0220046Y0153054D01*
X0219967Y0155928D01*
X0219692Y0158999D01*
X0219141Y0162070D01*
X0218196Y0165692D01*
X0216975Y0168959D01*
X0215597Y0171833D01*
X0214062Y0174550D01*
X0212369Y0177030D01*
X0209928Y0179983D01*
X0207723Y0182267D01*
X0205400Y0184274D01*
X0201857Y0186833D01*
X0199022Y0188487D01*
X0195676Y0190022D01*
X0192330Y0191204D01*
X0188826Y0192109D01*
X0185912Y0192581D01*
X0182644Y0192896D01*
X0179337Y0192896D01*
X0175558Y0192621D01*
X0172251Y0192030D01*
X0169416Y0191282D01*
X0166818Y0190416D01*
X0164141Y0189235D01*
X0161070Y0187621D01*
X0158471Y0185967D01*
X0156306Y0184353D01*
X0153117Y0181519D01*
X0150912Y0179117D01*
X0148550Y0176085D01*
X0146542Y0172818D01*
X0145046Y0169865D01*
X0143826Y0166833D01*
X0142920Y0163881D01*
X0142330Y0161400D01*
X0141857Y0158369D01*
X0141581Y0154550D01*
X0141660Y0150731D01*
X0142526Y0145141D01*
X0143983Y0140219D01*
X0145873Y0135849D01*
X0148589Y0131322D01*
X0150952Y0128251D01*
X0153432Y0125692D01*
X0156267Y0123133D01*
X0159062Y0121085D01*
X0161936Y0119314D01*
X0166463Y0117188D01*
X0169770Y0116085D01*
X0173117Y0115259D01*
X0176503Y0114747D01*
X0177251Y0114747D01*
X0177251Y0124196D01*
X0174889Y0124589D01*
X0171739Y0125377D01*
X0167802Y0126952D01*
X0165046Y0128526D01*
X0163865Y0129314D01*
X0162290Y0130495D01*
X0160164Y0132306D01*
X0157920Y0134707D01*
X0155479Y0138054D01*
X0154180Y0140495D01*
X0152920Y0143448D01*
X0151818Y0146991D01*
X0151306Y0150180D01*
X0151109Y0153133D01*
X0151188Y0156322D01*
X0151621Y0159314D01*
X0152566Y0163093D01*
X0153865Y0166322D01*
X0155204Y0168763D01*
X0156621Y0171007D01*
X0158747Y0173605D01*
X0160952Y0175849D01*
X0163235Y0177660D01*
X0166385Y0179707D01*
X0169416Y0181125D01*
X0172408Y0182188D01*
X0174967Y0182857D01*
X0177920Y0183290D01*
X0180479Y0183408D01*
X0182881Y0183330D01*
X0186621Y0182818D01*
X0189377Y0182148D01*
X0191621Y0181400D01*
X0194022Y0180298D01*
X0196109Y0179156D01*
X0198235Y0177778D01*
X0201030Y0175456D01*
X0202802Y0173644D01*
X0204770Y0171282D01*
X0206739Y0168251D01*
X0208156Y0165298D01*
X0209259Y0162345D01*
X0209889Y0159668D01*
X0210361Y0156479D01*
X0210479Y0153369D01*
X0210282Y0149747D01*
X0209731Y0147109D01*
X0208786Y0143684D01*
X0208890Y0144060D02*
X0218814Y0144060D01*
X0218903Y0144453D02*
X0208998Y0144453D01*
X0209106Y0144845D02*
X0218992Y0144845D01*
X0219081Y0145237D02*
X0209215Y0145237D01*
X0209323Y0145629D02*
X0219170Y0145629D01*
X0219259Y0146021D02*
X0209431Y0146021D01*
X0209539Y0146414D02*
X0219348Y0146414D01*
X0219428Y0146806D02*
X0209647Y0146806D01*
X0209750Y0147198D02*
X0219482Y0147198D01*
X0219535Y0147590D02*
X0209832Y0147590D01*
X0209914Y0147982D02*
X0219588Y0147982D01*
X0219641Y0148375D02*
X0209996Y0148375D01*
X0210078Y0148767D02*
X0219695Y0148767D01*
X0219748Y0149159D02*
X0210159Y0149159D01*
X0210241Y0149551D02*
X0219801Y0149551D01*
X0219852Y0149944D02*
X0210293Y0149944D01*
X0210314Y0150336D02*
X0219876Y0150336D01*
X0219901Y0150728D02*
X0210336Y0150728D01*
X0210357Y0151120D02*
X0219925Y0151120D01*
X0219950Y0151512D02*
X0210378Y0151512D01*
X0210400Y0151905D02*
X0219974Y0151905D01*
X0219999Y0152297D02*
X0210421Y0152297D01*
X0210442Y0152689D02*
X0220023Y0152689D01*
X0220045Y0153081D02*
X0210464Y0153081D01*
X0210475Y0153473D02*
X0220035Y0153473D01*
X0220024Y0153866D02*
X0210460Y0153866D01*
X0210445Y0154258D02*
X0220013Y0154258D01*
X0220002Y0154650D02*
X0210430Y0154650D01*
X0210416Y0155042D02*
X0219992Y0155042D01*
X0219981Y0155435D02*
X0210401Y0155435D01*
X0210386Y0155827D02*
X0219970Y0155827D01*
X0219941Y0156219D02*
X0210371Y0156219D01*
X0210341Y0156611D02*
X0219906Y0156611D01*
X0219871Y0157003D02*
X0210283Y0157003D01*
X0210225Y0157396D02*
X0219836Y0157396D01*
X0219800Y0157788D02*
X0210167Y0157788D01*
X0210109Y0158180D02*
X0219765Y0158180D01*
X0219730Y0158572D02*
X0210051Y0158572D01*
X0209993Y0158964D02*
X0219695Y0158964D01*
X0219628Y0159357D02*
X0209935Y0159357D01*
X0209870Y0159749D02*
X0219557Y0159749D01*
X0219487Y0160141D02*
X0209777Y0160141D01*
X0209685Y0160533D02*
X0219416Y0160533D01*
X0219346Y0160925D02*
X0209593Y0160925D01*
X0209500Y0161318D02*
X0219276Y0161318D01*
X0219205Y0161710D02*
X0209408Y0161710D01*
X0209316Y0162102D02*
X0219132Y0162102D01*
X0219030Y0162494D02*
X0209203Y0162494D01*
X0209057Y0162887D02*
X0218927Y0162887D01*
X0218825Y0163279D02*
X0208910Y0163279D01*
X0208764Y0163671D02*
X0218723Y0163671D01*
X0218621Y0164063D02*
X0208617Y0164063D01*
X0208471Y0164455D02*
X0218518Y0164455D01*
X0218416Y0164848D02*
X0208324Y0164848D01*
X0208178Y0165240D02*
X0218314Y0165240D01*
X0218211Y0165632D02*
X0207996Y0165632D01*
X0207808Y0166024D02*
X0218071Y0166024D01*
X0217925Y0166416D02*
X0207619Y0166416D01*
X0207431Y0166809D02*
X0217779Y0166809D01*
X0217632Y0167201D02*
X0207243Y0167201D01*
X0207055Y0167593D02*
X0217486Y0167593D01*
X0217339Y0167985D02*
X0206866Y0167985D01*
X0206657Y0168378D02*
X0217193Y0168378D01*
X0217046Y0168770D02*
X0206402Y0168770D01*
X0206147Y0169162D02*
X0216878Y0169162D01*
X0216690Y0169554D02*
X0205893Y0169554D01*
X0205638Y0169946D02*
X0216502Y0169946D01*
X0216314Y0170339D02*
X0205383Y0170339D01*
X0205129Y0170731D02*
X0216126Y0170731D01*
X0215938Y0171123D02*
X0204874Y0171123D01*
X0204576Y0171515D02*
X0215750Y0171515D01*
X0215555Y0171907D02*
X0204250Y0171907D01*
X0203923Y0172300D02*
X0215334Y0172300D01*
X0215112Y0172692D02*
X0203596Y0172692D01*
X0203269Y0173084D02*
X0214890Y0173084D01*
X0214669Y0173476D02*
X0202942Y0173476D01*
X0202583Y0173868D02*
X0214447Y0173868D01*
X0214225Y0174261D02*
X0202199Y0174261D01*
X0201815Y0174653D02*
X0213992Y0174653D01*
X0213724Y0175045D02*
X0201432Y0175045D01*
X0201048Y0175437D02*
X0213456Y0175437D01*
X0213188Y0175830D02*
X0200580Y0175830D01*
X0200108Y0176222D02*
X0212921Y0176222D01*
X0212653Y0176614D02*
X0199636Y0176614D01*
X0199164Y0177006D02*
X0212385Y0177006D01*
X0212065Y0177398D02*
X0198692Y0177398D01*
X0198216Y0177791D02*
X0211740Y0177791D01*
X0211416Y0178183D02*
X0197611Y0178183D01*
X0197006Y0178575D02*
X0211092Y0178575D01*
X0210768Y0178967D02*
X0196401Y0178967D01*
X0195738Y0179359D02*
X0210443Y0179359D01*
X0210119Y0179752D02*
X0195021Y0179752D01*
X0194304Y0180144D02*
X0209773Y0180144D01*
X0209394Y0180536D02*
X0193504Y0180536D01*
X0192649Y0180928D02*
X0209015Y0180928D01*
X0208637Y0181321D02*
X0191795Y0181321D01*
X0190684Y0181713D02*
X0208258Y0181713D01*
X0207879Y0182105D02*
X0189507Y0182105D01*
X0187941Y0182497D02*
X0207456Y0182497D01*
X0207003Y0182889D02*
X0186097Y0182889D01*
X0183231Y0183282D02*
X0206549Y0183282D01*
X0206095Y0183674D02*
X0155542Y0183674D01*
X0155983Y0184066D02*
X0205642Y0184066D01*
X0205146Y0184458D02*
X0156447Y0184458D01*
X0156973Y0184850D02*
X0204603Y0184850D01*
X0204060Y0185243D02*
X0157499Y0185243D01*
X0158025Y0185635D02*
X0203517Y0185635D01*
X0202974Y0186027D02*
X0158565Y0186027D01*
X0159181Y0186419D02*
X0202431Y0186419D01*
X0201888Y0186811D02*
X0159798Y0186811D01*
X0160414Y0187204D02*
X0201222Y0187204D01*
X0200550Y0187596D02*
X0161030Y0187596D01*
X0161768Y0187988D02*
X0199878Y0187988D01*
X0199205Y0188380D02*
X0162515Y0188380D01*
X0163261Y0188773D02*
X0198400Y0188773D01*
X0197545Y0189165D02*
X0164007Y0189165D01*
X0164870Y0189557D02*
X0196690Y0189557D01*
X0195836Y0189949D02*
X0165759Y0189949D01*
X0166648Y0190341D02*
X0194772Y0190341D01*
X0193661Y0190734D02*
X0167770Y0190734D01*
X0168947Y0191126D02*
X0192550Y0191126D01*
X0191113Y0191518D02*
X0170309Y0191518D01*
X0171796Y0191910D02*
X0189595Y0191910D01*
X0187633Y0192302D02*
X0173775Y0192302D01*
X0176570Y0192695D02*
X0184738Y0192695D01*
X0177862Y0183282D02*
X0155100Y0183282D01*
X0154659Y0182889D02*
X0175187Y0182889D01*
X0173591Y0182497D02*
X0154218Y0182497D01*
X0153777Y0182105D02*
X0172175Y0182105D01*
X0171071Y0181713D02*
X0153335Y0181713D01*
X0152935Y0181321D02*
X0169967Y0181321D01*
X0168996Y0180928D02*
X0152575Y0180928D01*
X0152215Y0180536D02*
X0168157Y0180536D01*
X0167318Y0180144D02*
X0151855Y0180144D01*
X0151495Y0179752D02*
X0166479Y0179752D01*
X0165849Y0179359D02*
X0151135Y0179359D01*
X0150796Y0178967D02*
X0165246Y0178967D01*
X0164642Y0178575D02*
X0150490Y0178575D01*
X0150184Y0178183D02*
X0164039Y0178183D01*
X0163436Y0177791D02*
X0149879Y0177791D01*
X0149573Y0177398D02*
X0162905Y0177398D01*
X0162410Y0177006D02*
X0149267Y0177006D01*
X0148962Y0176614D02*
X0161916Y0176614D01*
X0161421Y0176222D02*
X0148656Y0176222D01*
X0148393Y0175830D02*
X0160932Y0175830D01*
X0160547Y0175437D02*
X0148152Y0175437D01*
X0147911Y0175045D02*
X0160162Y0175045D01*
X0159776Y0174653D02*
X0147670Y0174653D01*
X0147429Y0174261D02*
X0159391Y0174261D01*
X0159006Y0173868D02*
X0147188Y0173868D01*
X0146947Y0173476D02*
X0158641Y0173476D01*
X0158321Y0173084D02*
X0146706Y0173084D01*
X0146478Y0172692D02*
X0158000Y0172692D01*
X0157679Y0172300D02*
X0146280Y0172300D01*
X0146081Y0171907D02*
X0157358Y0171907D01*
X0157037Y0171515D02*
X0145882Y0171515D01*
X0145683Y0171123D02*
X0156716Y0171123D01*
X0156447Y0170731D02*
X0145485Y0170731D01*
X0145286Y0170339D02*
X0156199Y0170339D01*
X0155951Y0169946D02*
X0145087Y0169946D01*
X0144921Y0169554D02*
X0155703Y0169554D01*
X0155456Y0169162D02*
X0144763Y0169162D01*
X0144605Y0168770D02*
X0155208Y0168770D01*
X0154992Y0168378D02*
X0144447Y0168378D01*
X0144289Y0167985D02*
X0154777Y0167985D01*
X0154562Y0167593D02*
X0144131Y0167593D01*
X0143974Y0167201D02*
X0154347Y0167201D01*
X0154132Y0166809D02*
X0143818Y0166809D01*
X0143698Y0166416D02*
X0153917Y0166416D01*
X0153745Y0166024D02*
X0143577Y0166024D01*
X0143457Y0165632D02*
X0153587Y0165632D01*
X0153430Y0165240D02*
X0143337Y0165240D01*
X0143217Y0164848D02*
X0153272Y0164848D01*
X0153114Y0164455D02*
X0143096Y0164455D01*
X0142976Y0164063D02*
X0152956Y0164063D01*
X0152798Y0163671D02*
X0142870Y0163671D01*
X0142777Y0163279D02*
X0152640Y0163279D01*
X0152514Y0162887D02*
X0142683Y0162887D01*
X0142590Y0162494D02*
X0152416Y0162494D01*
X0152318Y0162102D02*
X0142497Y0162102D01*
X0142403Y0161710D02*
X0152220Y0161710D01*
X0152122Y0161318D02*
X0142317Y0161318D01*
X0142256Y0160925D02*
X0152024Y0160925D01*
X0151926Y0160533D02*
X0142194Y0160533D01*
X0142133Y0160141D02*
X0151828Y0160141D01*
X0151730Y0159749D02*
X0142072Y0159749D01*
X0142011Y0159357D02*
X0151632Y0159357D01*
X0151570Y0158964D02*
X0141950Y0158964D01*
X0141889Y0158572D02*
X0151514Y0158572D01*
X0151457Y0158180D02*
X0141843Y0158180D01*
X0141815Y0157788D02*
X0151400Y0157788D01*
X0151343Y0157396D02*
X0141787Y0157396D01*
X0141759Y0157003D02*
X0151286Y0157003D01*
X0151230Y0156611D02*
X0141730Y0156611D01*
X0141702Y0156219D02*
X0151185Y0156219D01*
X0151176Y0155827D02*
X0141674Y0155827D01*
X0141645Y0155435D02*
X0151166Y0155435D01*
X0151156Y0155042D02*
X0141617Y0155042D01*
X0141589Y0154650D02*
X0151147Y0154650D01*
X0151137Y0154258D02*
X0141588Y0154258D01*
X0141596Y0153866D02*
X0151127Y0153866D01*
X0151117Y0153473D02*
X0141604Y0153473D01*
X0141612Y0153081D02*
X0151112Y0153081D01*
X0151139Y0152689D02*
X0141620Y0152689D01*
X0141628Y0152297D02*
X0151165Y0152297D01*
X0151191Y0151905D02*
X0141636Y0151905D01*
X0141644Y0151512D02*
X0151217Y0151512D01*
X0151243Y0151120D02*
X0141652Y0151120D01*
X0141661Y0150728D02*
X0151269Y0150728D01*
X0151296Y0150336D02*
X0141721Y0150336D01*
X0141782Y0149944D02*
X0151344Y0149944D01*
X0151407Y0149551D02*
X0141843Y0149551D01*
X0141904Y0149159D02*
X0151470Y0149159D01*
X0151533Y0148767D02*
X0141965Y0148767D01*
X0142025Y0148375D02*
X0151596Y0148375D01*
X0151659Y0147982D02*
X0142086Y0147982D01*
X0142147Y0147590D02*
X0151722Y0147590D01*
X0151784Y0147198D02*
X0142208Y0147198D01*
X0142268Y0146806D02*
X0151875Y0146806D01*
X0151997Y0146414D02*
X0142329Y0146414D01*
X0142390Y0146021D02*
X0152119Y0146021D01*
X0152241Y0145629D02*
X0142451Y0145629D01*
X0142511Y0145237D02*
X0152363Y0145237D01*
X0152485Y0144845D02*
X0142614Y0144845D01*
X0142730Y0144453D02*
X0152607Y0144453D01*
X0152729Y0144060D02*
X0142846Y0144060D01*
X0142962Y0143668D02*
X0152851Y0143668D01*
X0152993Y0143276D02*
X0143078Y0143276D01*
X0143194Y0142884D02*
X0153161Y0142884D01*
X0153328Y0142492D02*
X0143310Y0142492D01*
X0143427Y0142099D02*
X0153495Y0142099D01*
X0153663Y0141707D02*
X0143543Y0141707D01*
X0143659Y0141315D02*
X0153830Y0141315D01*
X0153997Y0140923D02*
X0143775Y0140923D01*
X0143891Y0140530D02*
X0154165Y0140530D01*
X0154370Y0140138D02*
X0144018Y0140138D01*
X0144188Y0139746D02*
X0154579Y0139746D01*
X0154787Y0139354D02*
X0144357Y0139354D01*
X0144527Y0138962D02*
X0154996Y0138962D01*
X0155205Y0138569D02*
X0144697Y0138569D01*
X0144866Y0138177D02*
X0155414Y0138177D01*
X0155675Y0137785D02*
X0145036Y0137785D01*
X0145205Y0137393D02*
X0155961Y0137393D01*
X0156248Y0137001D02*
X0145375Y0137001D01*
X0145545Y0136608D02*
X0156534Y0136608D01*
X0156820Y0136216D02*
X0145714Y0136216D01*
X0145888Y0135824D02*
X0157106Y0135824D01*
X0157392Y0135432D02*
X0146123Y0135432D01*
X0146359Y0135039D02*
X0157678Y0135039D01*
X0157976Y0134647D02*
X0146594Y0134647D01*
X0146829Y0134255D02*
X0158343Y0134255D01*
X0158709Y0133863D02*
X0147065Y0133863D01*
X0147300Y0133471D02*
X0159076Y0133471D01*
X0159442Y0133078D02*
X0147535Y0133078D01*
X0147771Y0132686D02*
X0159809Y0132686D01*
X0160178Y0132294D02*
X0148006Y0132294D01*
X0148241Y0131902D02*
X0160639Y0131902D01*
X0161099Y0131510D02*
X0148477Y0131510D01*
X0148747Y0131117D02*
X0161559Y0131117D01*
X0162020Y0130725D02*
X0149048Y0130725D01*
X0149350Y0130333D02*
X0162506Y0130333D01*
X0163029Y0129941D02*
X0149652Y0129941D01*
X0149953Y0129549D02*
X0163552Y0129549D01*
X0164101Y0129156D02*
X0150255Y0129156D01*
X0150557Y0128764D02*
X0164690Y0128764D01*
X0165316Y0128372D02*
X0150858Y0128372D01*
X0151214Y0127980D02*
X0166003Y0127980D01*
X0166689Y0127587D02*
X0151595Y0127587D01*
X0151975Y0127195D02*
X0167376Y0127195D01*
X0168173Y0126803D02*
X0152355Y0126803D01*
X0152735Y0126411D02*
X0169154Y0126411D01*
X0170134Y0126019D02*
X0153115Y0126019D01*
X0153504Y0125626D02*
X0171115Y0125626D01*
X0172309Y0125234D02*
X0153939Y0125234D01*
X0154373Y0124842D02*
X0173878Y0124842D01*
X0175726Y0124450D02*
X0154808Y0124450D01*
X0155242Y0124058D02*
X0177251Y0124058D01*
X0177251Y0123665D02*
X0155677Y0123665D01*
X0156111Y0123273D02*
X0177251Y0123273D01*
X0177251Y0122881D02*
X0156610Y0122881D01*
X0157146Y0122489D02*
X0177251Y0122489D01*
X0177251Y0122096D02*
X0157681Y0122096D01*
X0158217Y0121704D02*
X0177251Y0121704D01*
X0177251Y0121312D02*
X0158752Y0121312D01*
X0159330Y0120920D02*
X0177251Y0120920D01*
X0177251Y0120528D02*
X0159967Y0120528D01*
X0160603Y0120135D02*
X0177251Y0120135D01*
X0177251Y0119743D02*
X0161239Y0119743D01*
X0161875Y0119351D02*
X0177251Y0119351D01*
X0177251Y0118959D02*
X0162692Y0118959D01*
X0163527Y0118567D02*
X0177251Y0118567D01*
X0177251Y0118174D02*
X0164362Y0118174D01*
X0165198Y0117782D02*
X0177251Y0117782D01*
X0177251Y0117390D02*
X0166033Y0117390D01*
X0167034Y0116998D02*
X0177251Y0116998D01*
X0177251Y0116606D02*
X0168210Y0116606D01*
X0169387Y0116213D02*
X0177251Y0116213D01*
X0177251Y0115821D02*
X0170840Y0115821D01*
X0172428Y0115429D02*
X0177251Y0115429D01*
X0177251Y0115037D02*
X0174586Y0115037D01*
X0184180Y0115037D02*
X0187225Y0115037D01*
X0189277Y0115429D02*
X0184180Y0115429D01*
X0184180Y0115821D02*
X0190726Y0115821D01*
X0192132Y0116213D02*
X0184180Y0116213D01*
X0184180Y0116606D02*
X0193379Y0116606D01*
X0194483Y0116998D02*
X0184180Y0116998D01*
X0184180Y0117390D02*
X0195587Y0117390D01*
X0196477Y0117782D02*
X0184180Y0117782D01*
X0184180Y0118174D02*
X0197318Y0118174D01*
X0198158Y0118567D02*
X0184180Y0118567D01*
X0184180Y0118959D02*
X0198950Y0118959D01*
X0199628Y0119351D02*
X0184180Y0119351D01*
X0184180Y0119743D02*
X0200306Y0119743D01*
X0200985Y0120135D02*
X0184180Y0120135D01*
X0184180Y0120528D02*
X0201663Y0120528D01*
X0202282Y0120920D02*
X0184180Y0120920D01*
X0184180Y0121312D02*
X0202839Y0121312D01*
X0203395Y0121704D02*
X0184180Y0121704D01*
X0184180Y0122096D02*
X0203951Y0122096D01*
X0204496Y0122489D02*
X0184180Y0122489D01*
X0184180Y0122881D02*
X0204978Y0122881D01*
X0205460Y0123273D02*
X0184180Y0123273D01*
X0184180Y0123665D02*
X0205942Y0123665D01*
X0206424Y0124058D02*
X0184180Y0124058D01*
X0185688Y0124450D02*
X0206883Y0124450D01*
X0207300Y0124842D02*
X0187665Y0124842D01*
X0189091Y0125234D02*
X0207717Y0125234D01*
X0208134Y0125626D02*
X0190353Y0125626D01*
X0191475Y0126019D02*
X0208550Y0126019D01*
X0208933Y0126411D02*
X0192414Y0126411D01*
X0193352Y0126803D02*
X0209286Y0126803D01*
X0209639Y0127195D02*
X0194149Y0127195D01*
X0194859Y0127587D02*
X0209992Y0127587D01*
X0210345Y0127980D02*
X0195569Y0127980D01*
X0196279Y0128372D02*
X0210698Y0128372D01*
X0211031Y0128764D02*
X0196864Y0128764D01*
X0197436Y0129156D02*
X0211345Y0129156D01*
X0211659Y0129549D02*
X0198008Y0129549D01*
X0198580Y0129941D02*
X0211973Y0129941D01*
X0212287Y0130333D02*
X0199140Y0130333D01*
X0199575Y0130725D02*
X0212576Y0130725D01*
X0212840Y0131117D02*
X0200010Y0131117D01*
X0200445Y0131510D02*
X0213104Y0131510D01*
X0213369Y0131902D02*
X0200880Y0131902D01*
X0201315Y0132294D02*
X0213633Y0132294D01*
X0213881Y0132686D02*
X0201751Y0132686D01*
X0202134Y0133078D02*
X0214116Y0133078D01*
X0214351Y0133471D02*
X0202492Y0133471D01*
X0202850Y0133863D02*
X0214587Y0133863D01*
X0214822Y0134255D02*
X0203208Y0134255D01*
X0203566Y0134647D02*
X0215057Y0134647D01*
X0215291Y0135039D02*
X0203923Y0135039D01*
X0204205Y0135432D02*
X0215487Y0135432D01*
X0215683Y0135824D02*
X0204482Y0135824D01*
X0204759Y0136216D02*
X0215879Y0136216D01*
X0216075Y0136608D02*
X0205037Y0136608D01*
X0205314Y0137001D02*
X0216271Y0137001D01*
X0216467Y0137393D02*
X0205591Y0137393D01*
X0205868Y0137785D02*
X0216654Y0137785D01*
X0216805Y0138177D02*
X0206118Y0138177D01*
X0206330Y0138569D02*
X0216957Y0138569D01*
X0217108Y0138962D02*
X0206542Y0138962D01*
X0206754Y0139354D02*
X0217260Y0139354D01*
X0217412Y0139746D02*
X0206966Y0139746D01*
X0207178Y0140138D02*
X0217563Y0140138D01*
X0217715Y0140530D02*
X0207390Y0140530D01*
X0207602Y0140923D02*
X0217866Y0140923D01*
X0218005Y0141315D02*
X0207771Y0141315D01*
X0207939Y0141707D02*
X0218124Y0141707D01*
X0218243Y0142099D02*
X0208107Y0142099D01*
X0208275Y0142492D02*
X0218362Y0142492D01*
X0257542Y0183674D02*
X0308095Y0183674D01*
X0307642Y0184066D02*
X0257983Y0184066D01*
X0258447Y0184458D02*
X0307146Y0184458D01*
X0306603Y0184850D02*
X0258973Y0184850D01*
X0259499Y0185243D02*
X0306060Y0185243D01*
X0305517Y0185635D02*
X0260025Y0185635D01*
X0260565Y0186027D02*
X0304974Y0186027D01*
X0304431Y0186419D02*
X0261181Y0186419D01*
X0261798Y0186811D02*
X0303888Y0186811D01*
X0303222Y0187204D02*
X0262414Y0187204D01*
X0263030Y0187596D02*
X0302550Y0187596D01*
X0301878Y0187988D02*
X0263768Y0187988D01*
X0264515Y0188380D02*
X0301205Y0188380D01*
X0300400Y0188773D02*
X0265261Y0188773D01*
X0266007Y0189165D02*
X0299545Y0189165D01*
X0298690Y0189557D02*
X0266870Y0189557D01*
X0267759Y0189949D02*
X0297836Y0189949D01*
X0296772Y0190341D02*
X0268648Y0190341D01*
X0269770Y0190734D02*
X0295661Y0190734D01*
X0294550Y0191126D02*
X0270947Y0191126D01*
X0272309Y0191518D02*
X0293113Y0191518D01*
X0291595Y0191910D02*
X0273796Y0191910D01*
X0275775Y0192302D02*
X0289633Y0192302D01*
X0286738Y0192695D02*
X0278570Y0192695D01*
X0117141Y0162070D02*
X0117692Y0158999D01*
X0117967Y0155928D01*
X0118046Y0153054D01*
X0117849Y0149904D01*
X0117416Y0146715D01*
X0116747Y0143763D01*
X0115959Y0141164D01*
X0114621Y0137700D01*
X0113282Y0135022D01*
X0111747Y0132463D01*
X0110448Y0130534D01*
X0108873Y0128566D01*
X0106747Y0126204D01*
X0104739Y0124314D01*
X0102416Y0122424D01*
X0100015Y0120731D01*
X0096747Y0118841D01*
X0093794Y0117463D01*
X0090802Y0116400D01*
X0087416Y0115456D01*
X0084739Y0114944D01*
X0082180Y0114668D01*
X0082180Y0124274D01*
X0083873Y0124471D01*
X0086156Y0124944D01*
X0089070Y0125849D01*
X0091707Y0126952D01*
X0094345Y0128408D01*
X0097101Y0130298D01*
X0099896Y0132818D01*
X0101944Y0135062D01*
X0104030Y0138015D01*
X0105605Y0140928D01*
X0106786Y0143684D01*
X0107731Y0147109D01*
X0108282Y0149747D01*
X0108479Y0153369D01*
X0108361Y0156479D01*
X0107889Y0159668D01*
X0107259Y0162345D01*
X0106156Y0165298D01*
X0104739Y0168251D01*
X0102770Y0171282D01*
X0100802Y0173644D01*
X0099030Y0175456D01*
X0096235Y0177778D01*
X0094109Y0179156D01*
X0092022Y0180298D01*
X0089621Y0181400D01*
X0087377Y0182148D01*
X0084621Y0182818D01*
X0080881Y0183330D01*
X0078479Y0183408D01*
X0075920Y0183290D01*
X0072967Y0182857D01*
X0070408Y0182188D01*
X0067416Y0181125D01*
X0064385Y0179707D01*
X0061235Y0177660D01*
X0058952Y0175849D01*
X0056747Y0173605D01*
X0054621Y0171007D01*
X0053204Y0168763D01*
X0051865Y0166322D01*
X0050566Y0163093D01*
X0049621Y0159314D01*
X0049188Y0156322D01*
X0049109Y0153133D01*
X0049306Y0150180D01*
X0049818Y0146991D01*
X0050920Y0143448D01*
X0052180Y0140495D01*
X0053479Y0138054D01*
X0055920Y0134707D01*
X0058164Y0132306D01*
X0060290Y0130495D01*
X0061865Y0129314D01*
X0063046Y0128526D01*
X0065802Y0126952D01*
X0069739Y0125377D01*
X0072889Y0124589D01*
X0075251Y0124196D01*
X0075251Y0114747D01*
X0074503Y0114747D01*
X0071117Y0115259D01*
X0067770Y0116085D01*
X0064463Y0117188D01*
X0059936Y0119314D01*
X0057062Y0121085D01*
X0054267Y0123133D01*
X0051432Y0125692D01*
X0048952Y0128251D01*
X0046589Y0131322D01*
X0043873Y0135849D01*
X0041983Y0140219D01*
X0040526Y0145141D01*
X0039660Y0150731D01*
X0039581Y0154550D01*
X0039857Y0158369D01*
X0040330Y0161400D01*
X0040920Y0163881D01*
X0041826Y0166833D01*
X0043046Y0169865D01*
X0044542Y0172818D01*
X0046550Y0176085D01*
X0048912Y0179117D01*
X0051117Y0181519D01*
X0054306Y0184353D01*
X0056471Y0185967D01*
X0059070Y0187621D01*
X0062141Y0189235D01*
X0064818Y0190416D01*
X0067416Y0191282D01*
X0070251Y0192030D01*
X0073558Y0192621D01*
X0077337Y0192896D01*
X0080644Y0192896D01*
X0083912Y0192581D01*
X0086826Y0192109D01*
X0090330Y0191204D01*
X0093676Y0190022D01*
X0097022Y0188487D01*
X0099857Y0186833D01*
X0103400Y0184274D01*
X0105723Y0182267D01*
X0107928Y0179983D01*
X0110369Y0177030D01*
X0112062Y0174550D01*
X0113597Y0171833D01*
X0114975Y0168959D01*
X0116196Y0165692D01*
X0117141Y0162070D01*
X0117132Y0162102D02*
X0107316Y0162102D01*
X0107408Y0161710D02*
X0117205Y0161710D01*
X0117276Y0161318D02*
X0107500Y0161318D01*
X0107593Y0160925D02*
X0117346Y0160925D01*
X0117416Y0160533D02*
X0107685Y0160533D01*
X0107777Y0160141D02*
X0117487Y0160141D01*
X0117557Y0159749D02*
X0107870Y0159749D01*
X0107935Y0159357D02*
X0117628Y0159357D01*
X0117695Y0158964D02*
X0107993Y0158964D01*
X0108051Y0158572D02*
X0117730Y0158572D01*
X0117765Y0158180D02*
X0108109Y0158180D01*
X0108167Y0157788D02*
X0117800Y0157788D01*
X0117836Y0157396D02*
X0108225Y0157396D01*
X0108283Y0157003D02*
X0117871Y0157003D01*
X0117906Y0156611D02*
X0108341Y0156611D01*
X0108371Y0156219D02*
X0117941Y0156219D01*
X0117970Y0155827D02*
X0108386Y0155827D01*
X0108401Y0155435D02*
X0117981Y0155435D01*
X0117992Y0155042D02*
X0108416Y0155042D01*
X0108430Y0154650D02*
X0118002Y0154650D01*
X0118013Y0154258D02*
X0108445Y0154258D01*
X0108460Y0153866D02*
X0118024Y0153866D01*
X0118035Y0153473D02*
X0108475Y0153473D01*
X0108464Y0153081D02*
X0118045Y0153081D01*
X0118023Y0152689D02*
X0108442Y0152689D01*
X0108421Y0152297D02*
X0117999Y0152297D01*
X0117974Y0151905D02*
X0108400Y0151905D01*
X0108378Y0151512D02*
X0117950Y0151512D01*
X0117925Y0151120D02*
X0108357Y0151120D01*
X0108336Y0150728D02*
X0117901Y0150728D01*
X0117876Y0150336D02*
X0108314Y0150336D01*
X0108293Y0149944D02*
X0117852Y0149944D01*
X0117801Y0149551D02*
X0108241Y0149551D01*
X0108159Y0149159D02*
X0117748Y0149159D01*
X0117695Y0148767D02*
X0108078Y0148767D01*
X0107996Y0148375D02*
X0117641Y0148375D01*
X0117588Y0147982D02*
X0107914Y0147982D01*
X0107832Y0147590D02*
X0117535Y0147590D01*
X0117482Y0147198D02*
X0107750Y0147198D01*
X0107647Y0146806D02*
X0117428Y0146806D01*
X0117348Y0146414D02*
X0107539Y0146414D01*
X0107431Y0146021D02*
X0117259Y0146021D01*
X0117170Y0145629D02*
X0107323Y0145629D01*
X0107215Y0145237D02*
X0117081Y0145237D01*
X0116992Y0144845D02*
X0107106Y0144845D01*
X0106998Y0144453D02*
X0116903Y0144453D01*
X0116814Y0144060D02*
X0106890Y0144060D01*
X0106779Y0143668D02*
X0116718Y0143668D01*
X0116599Y0143276D02*
X0106611Y0143276D01*
X0106443Y0142884D02*
X0116481Y0142884D01*
X0116362Y0142492D02*
X0106275Y0142492D01*
X0106107Y0142099D02*
X0116243Y0142099D01*
X0116124Y0141707D02*
X0105939Y0141707D01*
X0105771Y0141315D02*
X0116005Y0141315D01*
X0115866Y0140923D02*
X0105602Y0140923D01*
X0105390Y0140530D02*
X0115715Y0140530D01*
X0115563Y0140138D02*
X0105178Y0140138D01*
X0104966Y0139746D02*
X0115412Y0139746D01*
X0115260Y0139354D02*
X0104754Y0139354D01*
X0104542Y0138962D02*
X0115108Y0138962D01*
X0114957Y0138569D02*
X0104330Y0138569D01*
X0104118Y0138177D02*
X0114805Y0138177D01*
X0114654Y0137785D02*
X0103868Y0137785D01*
X0103591Y0137393D02*
X0114467Y0137393D01*
X0114271Y0137001D02*
X0103314Y0137001D01*
X0103037Y0136608D02*
X0114075Y0136608D01*
X0113879Y0136216D02*
X0102759Y0136216D01*
X0102482Y0135824D02*
X0113683Y0135824D01*
X0113487Y0135432D02*
X0102205Y0135432D01*
X0101923Y0135039D02*
X0113291Y0135039D01*
X0113057Y0134647D02*
X0101566Y0134647D01*
X0101208Y0134255D02*
X0112822Y0134255D01*
X0112587Y0133863D02*
X0100850Y0133863D01*
X0100492Y0133471D02*
X0112351Y0133471D01*
X0112116Y0133078D02*
X0100134Y0133078D01*
X0099751Y0132686D02*
X0111881Y0132686D01*
X0111633Y0132294D02*
X0099315Y0132294D01*
X0098880Y0131902D02*
X0111369Y0131902D01*
X0111104Y0131510D02*
X0098445Y0131510D01*
X0098010Y0131117D02*
X0110840Y0131117D01*
X0110576Y0130725D02*
X0097575Y0130725D01*
X0097140Y0130333D02*
X0110287Y0130333D01*
X0109973Y0129941D02*
X0096580Y0129941D01*
X0096008Y0129549D02*
X0109659Y0129549D01*
X0109345Y0129156D02*
X0095436Y0129156D01*
X0094864Y0128764D02*
X0109031Y0128764D01*
X0108698Y0128372D02*
X0094279Y0128372D01*
X0093569Y0127980D02*
X0108345Y0127980D01*
X0107992Y0127587D02*
X0092859Y0127587D01*
X0092149Y0127195D02*
X0107639Y0127195D01*
X0107286Y0126803D02*
X0091352Y0126803D01*
X0090414Y0126411D02*
X0106933Y0126411D01*
X0106550Y0126019D02*
X0089475Y0126019D01*
X0088353Y0125626D02*
X0106134Y0125626D01*
X0105717Y0125234D02*
X0087091Y0125234D01*
X0085665Y0124842D02*
X0105300Y0124842D01*
X0104883Y0124450D02*
X0083688Y0124450D01*
X0082180Y0124058D02*
X0104424Y0124058D01*
X0103942Y0123665D02*
X0082180Y0123665D01*
X0082180Y0123273D02*
X0103460Y0123273D01*
X0102978Y0122881D02*
X0082180Y0122881D01*
X0082180Y0122489D02*
X0102496Y0122489D01*
X0101951Y0122096D02*
X0082180Y0122096D01*
X0082180Y0121704D02*
X0101395Y0121704D01*
X0100839Y0121312D02*
X0082180Y0121312D01*
X0082180Y0120920D02*
X0100282Y0120920D01*
X0099663Y0120528D02*
X0082180Y0120528D01*
X0082180Y0120135D02*
X0098985Y0120135D01*
X0098306Y0119743D02*
X0082180Y0119743D01*
X0082180Y0119351D02*
X0097628Y0119351D01*
X0096950Y0118959D02*
X0082180Y0118959D01*
X0082180Y0118567D02*
X0096158Y0118567D01*
X0095318Y0118174D02*
X0082180Y0118174D01*
X0082180Y0117782D02*
X0094477Y0117782D01*
X0093587Y0117390D02*
X0082180Y0117390D01*
X0082180Y0116998D02*
X0092483Y0116998D01*
X0091379Y0116606D02*
X0082180Y0116606D01*
X0082180Y0116213D02*
X0090132Y0116213D01*
X0088726Y0115821D02*
X0082180Y0115821D01*
X0082180Y0115429D02*
X0087277Y0115429D01*
X0085225Y0115037D02*
X0082180Y0115037D01*
X0075251Y0115037D02*
X0072586Y0115037D01*
X0070428Y0115429D02*
X0075251Y0115429D01*
X0075251Y0115821D02*
X0068840Y0115821D01*
X0067387Y0116213D02*
X0075251Y0116213D01*
X0075251Y0116606D02*
X0066210Y0116606D01*
X0065034Y0116998D02*
X0075251Y0116998D01*
X0075251Y0117390D02*
X0064033Y0117390D01*
X0063198Y0117782D02*
X0075251Y0117782D01*
X0075251Y0118174D02*
X0062362Y0118174D01*
X0061527Y0118567D02*
X0075251Y0118567D01*
X0075251Y0118959D02*
X0060692Y0118959D01*
X0059875Y0119351D02*
X0075251Y0119351D01*
X0075251Y0119743D02*
X0059239Y0119743D01*
X0058603Y0120135D02*
X0075251Y0120135D01*
X0075251Y0120528D02*
X0057967Y0120528D01*
X0057330Y0120920D02*
X0075251Y0120920D01*
X0075251Y0121312D02*
X0056752Y0121312D01*
X0056217Y0121704D02*
X0075251Y0121704D01*
X0075251Y0122096D02*
X0055681Y0122096D01*
X0055146Y0122489D02*
X0075251Y0122489D01*
X0075251Y0122881D02*
X0054610Y0122881D01*
X0054111Y0123273D02*
X0075251Y0123273D01*
X0075251Y0123665D02*
X0053677Y0123665D01*
X0053242Y0124058D02*
X0075251Y0124058D01*
X0073726Y0124450D02*
X0052808Y0124450D01*
X0052373Y0124842D02*
X0071878Y0124842D01*
X0070309Y0125234D02*
X0051939Y0125234D01*
X0051504Y0125626D02*
X0069115Y0125626D01*
X0068134Y0126019D02*
X0051115Y0126019D01*
X0050735Y0126411D02*
X0067154Y0126411D01*
X0066173Y0126803D02*
X0050355Y0126803D01*
X0049975Y0127195D02*
X0065376Y0127195D01*
X0064689Y0127587D02*
X0049595Y0127587D01*
X0049214Y0127980D02*
X0064003Y0127980D01*
X0063316Y0128372D02*
X0048858Y0128372D01*
X0048557Y0128764D02*
X0062690Y0128764D01*
X0062101Y0129156D02*
X0048255Y0129156D01*
X0047953Y0129549D02*
X0061552Y0129549D01*
X0061029Y0129941D02*
X0047652Y0129941D01*
X0047350Y0130333D02*
X0060506Y0130333D01*
X0060020Y0130725D02*
X0047048Y0130725D01*
X0046747Y0131117D02*
X0059559Y0131117D01*
X0059099Y0131510D02*
X0046477Y0131510D01*
X0046241Y0131902D02*
X0058639Y0131902D01*
X0058178Y0132294D02*
X0046006Y0132294D01*
X0045771Y0132686D02*
X0057809Y0132686D01*
X0057442Y0133078D02*
X0045535Y0133078D01*
X0045300Y0133471D02*
X0057076Y0133471D01*
X0056709Y0133863D02*
X0045065Y0133863D01*
X0044829Y0134255D02*
X0056343Y0134255D01*
X0055976Y0134647D02*
X0044594Y0134647D01*
X0044359Y0135039D02*
X0055678Y0135039D01*
X0055392Y0135432D02*
X0044123Y0135432D01*
X0043888Y0135824D02*
X0055106Y0135824D01*
X0054820Y0136216D02*
X0043714Y0136216D01*
X0043545Y0136608D02*
X0054534Y0136608D01*
X0054248Y0137001D02*
X0043375Y0137001D01*
X0043205Y0137393D02*
X0053961Y0137393D01*
X0053675Y0137785D02*
X0043036Y0137785D01*
X0042866Y0138177D02*
X0053414Y0138177D01*
X0053205Y0138569D02*
X0042697Y0138569D01*
X0042527Y0138962D02*
X0052996Y0138962D01*
X0052787Y0139354D02*
X0042357Y0139354D01*
X0042188Y0139746D02*
X0052579Y0139746D01*
X0052370Y0140138D02*
X0042018Y0140138D01*
X0041891Y0140530D02*
X0052165Y0140530D01*
X0051997Y0140923D02*
X0041775Y0140923D01*
X0041659Y0141315D02*
X0051830Y0141315D01*
X0051663Y0141707D02*
X0041543Y0141707D01*
X0041427Y0142099D02*
X0051495Y0142099D01*
X0051328Y0142492D02*
X0041310Y0142492D01*
X0041194Y0142884D02*
X0051161Y0142884D01*
X0050993Y0143276D02*
X0041078Y0143276D01*
X0040962Y0143668D02*
X0050851Y0143668D01*
X0050729Y0144060D02*
X0040846Y0144060D01*
X0040730Y0144453D02*
X0050607Y0144453D01*
X0050485Y0144845D02*
X0040614Y0144845D01*
X0040511Y0145237D02*
X0050363Y0145237D01*
X0050241Y0145629D02*
X0040451Y0145629D01*
X0040390Y0146021D02*
X0050119Y0146021D01*
X0049997Y0146414D02*
X0040329Y0146414D01*
X0040268Y0146806D02*
X0049875Y0146806D01*
X0049784Y0147198D02*
X0040208Y0147198D01*
X0040147Y0147590D02*
X0049722Y0147590D01*
X0049659Y0147982D02*
X0040086Y0147982D01*
X0040025Y0148375D02*
X0049596Y0148375D01*
X0049533Y0148767D02*
X0039965Y0148767D01*
X0039904Y0149159D02*
X0049470Y0149159D01*
X0049407Y0149551D02*
X0039843Y0149551D01*
X0039782Y0149944D02*
X0049344Y0149944D01*
X0049296Y0150336D02*
X0039721Y0150336D01*
X0039661Y0150728D02*
X0049269Y0150728D01*
X0049243Y0151120D02*
X0039652Y0151120D01*
X0039644Y0151512D02*
X0049217Y0151512D01*
X0049191Y0151905D02*
X0039636Y0151905D01*
X0039628Y0152297D02*
X0049165Y0152297D01*
X0049139Y0152689D02*
X0039620Y0152689D01*
X0039612Y0153081D02*
X0049112Y0153081D01*
X0049117Y0153473D02*
X0039604Y0153473D01*
X0039596Y0153866D02*
X0049127Y0153866D01*
X0049137Y0154258D02*
X0039588Y0154258D01*
X0039589Y0154650D02*
X0049147Y0154650D01*
X0049156Y0155042D02*
X0039617Y0155042D01*
X0039645Y0155435D02*
X0049166Y0155435D01*
X0049176Y0155827D02*
X0039674Y0155827D01*
X0039702Y0156219D02*
X0049185Y0156219D01*
X0049230Y0156611D02*
X0039730Y0156611D01*
X0039759Y0157003D02*
X0049286Y0157003D01*
X0049343Y0157396D02*
X0039787Y0157396D01*
X0039815Y0157788D02*
X0049400Y0157788D01*
X0049457Y0158180D02*
X0039843Y0158180D01*
X0039889Y0158572D02*
X0049514Y0158572D01*
X0049570Y0158964D02*
X0039950Y0158964D01*
X0040011Y0159357D02*
X0049632Y0159357D01*
X0049730Y0159749D02*
X0040072Y0159749D01*
X0040133Y0160141D02*
X0049828Y0160141D01*
X0049926Y0160533D02*
X0040194Y0160533D01*
X0040256Y0160925D02*
X0050024Y0160925D01*
X0050122Y0161318D02*
X0040317Y0161318D01*
X0040403Y0161710D02*
X0050220Y0161710D01*
X0050318Y0162102D02*
X0040497Y0162102D01*
X0040590Y0162494D02*
X0050416Y0162494D01*
X0050514Y0162887D02*
X0040683Y0162887D01*
X0040777Y0163279D02*
X0050640Y0163279D01*
X0050798Y0163671D02*
X0040870Y0163671D01*
X0040976Y0164063D02*
X0050956Y0164063D01*
X0051114Y0164455D02*
X0041096Y0164455D01*
X0041217Y0164848D02*
X0051272Y0164848D01*
X0051430Y0165240D02*
X0041337Y0165240D01*
X0041457Y0165632D02*
X0051587Y0165632D01*
X0051745Y0166024D02*
X0041577Y0166024D01*
X0041698Y0166416D02*
X0051917Y0166416D01*
X0052132Y0166809D02*
X0041818Y0166809D01*
X0041974Y0167201D02*
X0052347Y0167201D01*
X0052562Y0167593D02*
X0042131Y0167593D01*
X0042289Y0167985D02*
X0052777Y0167985D01*
X0052992Y0168378D02*
X0042447Y0168378D01*
X0042605Y0168770D02*
X0053208Y0168770D01*
X0053456Y0169162D02*
X0042763Y0169162D01*
X0042921Y0169554D02*
X0053703Y0169554D01*
X0053951Y0169946D02*
X0043087Y0169946D01*
X0043286Y0170339D02*
X0054199Y0170339D01*
X0054447Y0170731D02*
X0043485Y0170731D01*
X0043683Y0171123D02*
X0054716Y0171123D01*
X0055037Y0171515D02*
X0043882Y0171515D01*
X0044081Y0171907D02*
X0055358Y0171907D01*
X0055679Y0172300D02*
X0044280Y0172300D01*
X0044478Y0172692D02*
X0056000Y0172692D01*
X0056321Y0173084D02*
X0044706Y0173084D01*
X0044947Y0173476D02*
X0056641Y0173476D01*
X0057006Y0173868D02*
X0045188Y0173868D01*
X0045429Y0174261D02*
X0057391Y0174261D01*
X0057776Y0174653D02*
X0045670Y0174653D01*
X0045911Y0175045D02*
X0058162Y0175045D01*
X0058547Y0175437D02*
X0046152Y0175437D01*
X0046393Y0175830D02*
X0058932Y0175830D01*
X0059421Y0176222D02*
X0046656Y0176222D01*
X0046962Y0176614D02*
X0059916Y0176614D01*
X0060410Y0177006D02*
X0047267Y0177006D01*
X0047573Y0177398D02*
X0060905Y0177398D01*
X0061436Y0177791D02*
X0047879Y0177791D01*
X0048184Y0178183D02*
X0062039Y0178183D01*
X0062642Y0178575D02*
X0048490Y0178575D01*
X0048796Y0178967D02*
X0063246Y0178967D01*
X0063849Y0179359D02*
X0049135Y0179359D01*
X0049495Y0179752D02*
X0064479Y0179752D01*
X0065318Y0180144D02*
X0049855Y0180144D01*
X0050215Y0180536D02*
X0066157Y0180536D01*
X0066996Y0180928D02*
X0050575Y0180928D01*
X0050935Y0181321D02*
X0067967Y0181321D01*
X0069071Y0181713D02*
X0051335Y0181713D01*
X0051777Y0182105D02*
X0070175Y0182105D01*
X0071591Y0182497D02*
X0052218Y0182497D01*
X0052659Y0182889D02*
X0073187Y0182889D01*
X0075862Y0183282D02*
X0053100Y0183282D01*
X0053542Y0183674D02*
X0104095Y0183674D01*
X0103642Y0184066D02*
X0053983Y0184066D01*
X0054447Y0184458D02*
X0103146Y0184458D01*
X0102603Y0184850D02*
X0054973Y0184850D01*
X0055499Y0185243D02*
X0102060Y0185243D01*
X0101517Y0185635D02*
X0056025Y0185635D01*
X0056565Y0186027D02*
X0100974Y0186027D01*
X0100431Y0186419D02*
X0057181Y0186419D01*
X0057798Y0186811D02*
X0099888Y0186811D01*
X0099222Y0187204D02*
X0058414Y0187204D01*
X0059030Y0187596D02*
X0098550Y0187596D01*
X0097878Y0187988D02*
X0059768Y0187988D01*
X0060515Y0188380D02*
X0097205Y0188380D01*
X0096400Y0188773D02*
X0061261Y0188773D01*
X0062007Y0189165D02*
X0095545Y0189165D01*
X0094690Y0189557D02*
X0062870Y0189557D01*
X0063759Y0189949D02*
X0093836Y0189949D01*
X0092772Y0190341D02*
X0064648Y0190341D01*
X0065770Y0190734D02*
X0091661Y0190734D01*
X0090550Y0191126D02*
X0066947Y0191126D01*
X0068309Y0191518D02*
X0089113Y0191518D01*
X0087595Y0191910D02*
X0069796Y0191910D01*
X0071775Y0192302D02*
X0085633Y0192302D01*
X0082738Y0192695D02*
X0074570Y0192695D01*
X0081231Y0183282D02*
X0104549Y0183282D01*
X0105003Y0182889D02*
X0084097Y0182889D01*
X0085941Y0182497D02*
X0105456Y0182497D01*
X0105879Y0182105D02*
X0087507Y0182105D01*
X0088684Y0181713D02*
X0106258Y0181713D01*
X0106637Y0181321D02*
X0089795Y0181321D01*
X0090649Y0180928D02*
X0107015Y0180928D01*
X0107394Y0180536D02*
X0091504Y0180536D01*
X0092304Y0180144D02*
X0107773Y0180144D01*
X0108119Y0179752D02*
X0093021Y0179752D01*
X0093738Y0179359D02*
X0108443Y0179359D01*
X0108768Y0178967D02*
X0094401Y0178967D01*
X0095006Y0178575D02*
X0109092Y0178575D01*
X0109416Y0178183D02*
X0095611Y0178183D01*
X0096216Y0177791D02*
X0109740Y0177791D01*
X0110065Y0177398D02*
X0096692Y0177398D01*
X0097164Y0177006D02*
X0110385Y0177006D01*
X0110653Y0176614D02*
X0097636Y0176614D01*
X0098108Y0176222D02*
X0110921Y0176222D01*
X0111188Y0175830D02*
X0098580Y0175830D01*
X0099048Y0175437D02*
X0111456Y0175437D01*
X0111724Y0175045D02*
X0099432Y0175045D01*
X0099815Y0174653D02*
X0111992Y0174653D01*
X0112225Y0174261D02*
X0100199Y0174261D01*
X0100583Y0173868D02*
X0112447Y0173868D01*
X0112669Y0173476D02*
X0100942Y0173476D01*
X0101269Y0173084D02*
X0112890Y0173084D01*
X0113112Y0172692D02*
X0101596Y0172692D01*
X0101923Y0172300D02*
X0113334Y0172300D01*
X0113555Y0171907D02*
X0102250Y0171907D01*
X0102576Y0171515D02*
X0113750Y0171515D01*
X0113938Y0171123D02*
X0102874Y0171123D01*
X0103129Y0170731D02*
X0114126Y0170731D01*
X0114314Y0170339D02*
X0103383Y0170339D01*
X0103638Y0169946D02*
X0114502Y0169946D01*
X0114690Y0169554D02*
X0103893Y0169554D01*
X0104147Y0169162D02*
X0114878Y0169162D01*
X0115046Y0168770D02*
X0104402Y0168770D01*
X0104657Y0168378D02*
X0115193Y0168378D01*
X0115339Y0167985D02*
X0104866Y0167985D01*
X0105055Y0167593D02*
X0115486Y0167593D01*
X0115632Y0167201D02*
X0105243Y0167201D01*
X0105431Y0166809D02*
X0115779Y0166809D01*
X0115925Y0166416D02*
X0105619Y0166416D01*
X0105808Y0166024D02*
X0116071Y0166024D01*
X0116211Y0165632D02*
X0105996Y0165632D01*
X0106178Y0165240D02*
X0116314Y0165240D01*
X0116416Y0164848D02*
X0106324Y0164848D01*
X0106471Y0164455D02*
X0116518Y0164455D01*
X0116621Y0164063D02*
X0106617Y0164063D01*
X0106764Y0163671D02*
X0116723Y0163671D01*
X0116825Y0163279D02*
X0106910Y0163279D01*
X0107057Y0162887D02*
X0116927Y0162887D01*
X0117030Y0162494D02*
X0107203Y0162494D01*
D12*
X0055750Y0207000D03*
X0305750Y0207000D03*
D13*
X0055750Y0020500D03*
D14*
X0058750Y0063750D02*
X0058750Y0109589D01*
X0098750Y0109589D01*
X0098750Y0063750D01*
X0058750Y0063750D01*
X0058750Y0064696D02*
X0098750Y0064696D01*
X0098750Y0065695D02*
X0058750Y0065695D01*
X0058750Y0066693D02*
X0098750Y0066693D01*
X0098750Y0067692D02*
X0058750Y0067692D01*
X0058750Y0068690D02*
X0098750Y0068690D01*
X0098750Y0069689D02*
X0058750Y0069689D01*
X0058750Y0070687D02*
X0098750Y0070687D01*
X0098750Y0071686D02*
X0058750Y0071686D01*
X0058750Y0072684D02*
X0098750Y0072684D01*
X0098750Y0073683D02*
X0058750Y0073683D01*
X0058750Y0074682D02*
X0098750Y0074682D01*
X0098750Y0075680D02*
X0058750Y0075680D01*
X0058750Y0076679D02*
X0098750Y0076679D01*
X0098750Y0077677D02*
X0058750Y0077677D01*
X0058750Y0078676D02*
X0098750Y0078676D01*
X0098750Y0079674D02*
X0058750Y0079674D01*
X0058750Y0080673D02*
X0098750Y0080673D01*
X0098750Y0081671D02*
X0058750Y0081671D01*
X0058750Y0082670D02*
X0098750Y0082670D01*
X0098750Y0083668D02*
X0058750Y0083668D01*
X0058750Y0084667D02*
X0098750Y0084667D01*
X0098750Y0085665D02*
X0058750Y0085665D01*
X0058750Y0086664D02*
X0098750Y0086664D01*
X0098750Y0087662D02*
X0058750Y0087662D01*
X0058750Y0088661D02*
X0098750Y0088661D01*
X0098750Y0089659D02*
X0058750Y0089659D01*
X0058750Y0090658D02*
X0098750Y0090658D01*
X0098750Y0091656D02*
X0058750Y0091656D01*
X0058750Y0092655D02*
X0098750Y0092655D01*
X0098750Y0093653D02*
X0058750Y0093653D01*
X0058750Y0094652D02*
X0098750Y0094652D01*
X0098750Y0095650D02*
X0058750Y0095650D01*
X0058750Y0096649D02*
X0098750Y0096649D01*
X0098750Y0097647D02*
X0058750Y0097647D01*
X0058750Y0098646D02*
X0098750Y0098646D01*
X0098750Y0099644D02*
X0058750Y0099644D01*
X0058750Y0100643D02*
X0098750Y0100643D01*
X0098750Y0101641D02*
X0058750Y0101641D01*
X0058750Y0102640D02*
X0098750Y0102640D01*
X0098750Y0103638D02*
X0058750Y0103638D01*
X0058750Y0104637D02*
X0098750Y0104637D01*
X0098750Y0105635D02*
X0058750Y0105635D01*
X0058750Y0106634D02*
X0098750Y0106634D01*
X0098750Y0107632D02*
X0058750Y0107632D01*
X0058750Y0108631D02*
X0098750Y0108631D01*
X0160750Y0108631D02*
X0200750Y0108631D01*
X0200750Y0109589D02*
X0160750Y0109589D01*
X0160750Y0063750D01*
X0200750Y0063750D01*
X0200750Y0109589D01*
X0200750Y0107632D02*
X0160750Y0107632D01*
X0160750Y0106634D02*
X0200750Y0106634D01*
X0200750Y0105635D02*
X0160750Y0105635D01*
X0160750Y0104637D02*
X0200750Y0104637D01*
X0200750Y0103638D02*
X0160750Y0103638D01*
X0160750Y0102640D02*
X0200750Y0102640D01*
X0200750Y0101641D02*
X0160750Y0101641D01*
X0160750Y0100643D02*
X0200750Y0100643D01*
X0200750Y0099644D02*
X0160750Y0099644D01*
X0160750Y0098646D02*
X0200750Y0098646D01*
X0200750Y0097647D02*
X0160750Y0097647D01*
X0160750Y0096649D02*
X0200750Y0096649D01*
X0200750Y0095650D02*
X0160750Y0095650D01*
X0160750Y0094652D02*
X0200750Y0094652D01*
X0200750Y0093653D02*
X0160750Y0093653D01*
X0160750Y0092655D02*
X0200750Y0092655D01*
X0200750Y0091656D02*
X0160750Y0091656D01*
X0160750Y0090658D02*
X0200750Y0090658D01*
X0200750Y0089659D02*
X0160750Y0089659D01*
X0160750Y0088661D02*
X0200750Y0088661D01*
X0200750Y0087662D02*
X0160750Y0087662D01*
X0160750Y0086664D02*
X0200750Y0086664D01*
X0200750Y0085665D02*
X0160750Y0085665D01*
X0160750Y0084667D02*
X0200750Y0084667D01*
X0200750Y0083668D02*
X0160750Y0083668D01*
X0160750Y0082670D02*
X0200750Y0082670D01*
X0200750Y0081671D02*
X0160750Y0081671D01*
X0160750Y0080673D02*
X0200750Y0080673D01*
X0200750Y0079674D02*
X0160750Y0079674D01*
X0160750Y0078676D02*
X0200750Y0078676D01*
X0200750Y0077677D02*
X0160750Y0077677D01*
X0160750Y0076679D02*
X0200750Y0076679D01*
X0200750Y0075680D02*
X0160750Y0075680D01*
X0160750Y0074682D02*
X0200750Y0074682D01*
X0200750Y0073683D02*
X0160750Y0073683D01*
X0160750Y0072684D02*
X0200750Y0072684D01*
X0200750Y0071686D02*
X0160750Y0071686D01*
X0160750Y0070687D02*
X0200750Y0070687D01*
X0200750Y0069689D02*
X0160750Y0069689D01*
X0160750Y0068690D02*
X0200750Y0068690D01*
X0200750Y0067692D02*
X0160750Y0067692D01*
X0160750Y0066693D02*
X0200750Y0066693D01*
X0200750Y0065695D02*
X0160750Y0065695D01*
X0160750Y0064696D02*
X0200750Y0064696D01*
X0262750Y0064696D02*
X0302750Y0064696D01*
X0302750Y0063750D02*
X0262750Y0063750D01*
X0262750Y0109589D01*
X0302750Y0109589D01*
X0302750Y0063750D01*
X0302750Y0065695D02*
X0262750Y0065695D01*
X0262750Y0066693D02*
X0302750Y0066693D01*
X0302750Y0067692D02*
X0262750Y0067692D01*
X0262750Y0068690D02*
X0302750Y0068690D01*
X0302750Y0069689D02*
X0262750Y0069689D01*
X0262750Y0070687D02*
X0302750Y0070687D01*
X0302750Y0071686D02*
X0262750Y0071686D01*
X0262750Y0072684D02*
X0302750Y0072684D01*
X0302750Y0073683D02*
X0262750Y0073683D01*
X0262750Y0074682D02*
X0302750Y0074682D01*
X0302750Y0075680D02*
X0262750Y0075680D01*
X0262750Y0076679D02*
X0302750Y0076679D01*
X0302750Y0077677D02*
X0262750Y0077677D01*
X0262750Y0078676D02*
X0302750Y0078676D01*
X0302750Y0079674D02*
X0262750Y0079674D01*
X0262750Y0080673D02*
X0302750Y0080673D01*
X0302750Y0081671D02*
X0262750Y0081671D01*
X0262750Y0082670D02*
X0302750Y0082670D01*
X0302750Y0083668D02*
X0262750Y0083668D01*
X0262750Y0084667D02*
X0302750Y0084667D01*
X0302750Y0085665D02*
X0262750Y0085665D01*
X0262750Y0086664D02*
X0302750Y0086664D01*
X0302750Y0087662D02*
X0262750Y0087662D01*
X0262750Y0088661D02*
X0302750Y0088661D01*
X0302750Y0089659D02*
X0262750Y0089659D01*
X0262750Y0090658D02*
X0302750Y0090658D01*
X0302750Y0091656D02*
X0262750Y0091656D01*
X0262750Y0092655D02*
X0302750Y0092655D01*
X0302750Y0093653D02*
X0262750Y0093653D01*
X0262750Y0094652D02*
X0302750Y0094652D01*
X0302750Y0095650D02*
X0262750Y0095650D01*
X0262750Y0096649D02*
X0302750Y0096649D01*
X0302750Y0097647D02*
X0262750Y0097647D01*
X0262750Y0098646D02*
X0302750Y0098646D01*
X0302750Y0099644D02*
X0262750Y0099644D01*
X0262750Y0100643D02*
X0302750Y0100643D01*
X0302750Y0101641D02*
X0262750Y0101641D01*
X0262750Y0102640D02*
X0302750Y0102640D01*
X0302750Y0103638D02*
X0262750Y0103638D01*
X0262750Y0104637D02*
X0302750Y0104637D01*
X0302750Y0105635D02*
X0262750Y0105635D01*
X0262750Y0106634D02*
X0302750Y0106634D01*
X0302750Y0107632D02*
X0262750Y0107632D01*
X0262750Y0108631D02*
X0302750Y0108631D01*
D15*
X0298350Y0106850D03*
X0298350Y0101850D03*
X0298350Y0096850D03*
X0298350Y0091850D03*
X0298350Y0086850D03*
X0298350Y0081850D03*
X0298350Y0076850D03*
X0298350Y0071850D03*
X0298350Y0066850D03*
X0266550Y0066850D03*
X0266550Y0071850D03*
X0266550Y0076850D03*
X0266550Y0081850D03*
X0266550Y0086850D03*
X0266550Y0091850D03*
X0266550Y0096850D03*
X0266550Y0101850D03*
X0266550Y0106850D03*
X0277676Y0115495D03*
X0287912Y0115495D03*
X0300117Y0123763D03*
X0312322Y0135967D03*
X0317440Y0153684D03*
X0312322Y0171794D03*
X0300117Y0183999D03*
X0282794Y0188330D03*
X0265865Y0183999D03*
X0253267Y0171794D03*
X0248148Y0153684D03*
X0253267Y0135967D03*
X0265865Y0123763D03*
X0215440Y0153684D03*
X0210322Y0135967D03*
X0198117Y0123763D03*
X0185912Y0115495D03*
X0175676Y0115495D03*
X0163865Y0123763D03*
X0151267Y0135967D03*
X0146148Y0153684D03*
X0151267Y0171794D03*
X0163865Y0183999D03*
X0180794Y0188330D03*
X0198117Y0183999D03*
X0210322Y0171794D03*
X0113440Y0153684D03*
X0108322Y0135967D03*
X0096117Y0123763D03*
X0083912Y0115495D03*
X0073676Y0115495D03*
X0061865Y0123763D03*
X0049267Y0135967D03*
X0044148Y0153684D03*
X0049267Y0171794D03*
X0061865Y0183999D03*
X0078794Y0188330D03*
X0096117Y0183999D03*
X0108322Y0171794D03*
X0094350Y0106850D03*
X0094350Y0101850D03*
X0094350Y0096850D03*
X0094350Y0091850D03*
X0094350Y0086850D03*
X0094350Y0081850D03*
X0094350Y0076850D03*
X0094350Y0071850D03*
X0094350Y0066850D03*
X0062550Y0066850D03*
X0062550Y0071850D03*
X0062550Y0076850D03*
X0062550Y0081850D03*
X0062550Y0086850D03*
X0062550Y0091850D03*
X0062550Y0096850D03*
X0062550Y0101850D03*
X0062550Y0106850D03*
X0076850Y0089350D03*
X0164550Y0086850D03*
X0164550Y0081850D03*
X0164550Y0076850D03*
X0164550Y0071850D03*
X0164550Y0066850D03*
X0178850Y0089350D03*
X0164550Y0091850D03*
X0164550Y0096850D03*
X0164550Y0101850D03*
X0164550Y0106850D03*
X0196350Y0106850D03*
X0196350Y0101850D03*
X0196350Y0096850D03*
X0196350Y0091850D03*
X0196350Y0086850D03*
X0196350Y0081850D03*
X0196350Y0076850D03*
X0196350Y0071850D03*
X0196350Y0066850D03*
X0280850Y0089350D03*
D16*
X0277750Y0038750D03*
X0287750Y0038750D03*
X0185750Y0038750D03*
X0175750Y0038750D03*
X0083750Y0038750D03*
X0073750Y0038750D03*
D17*
X0048750Y0033750D02*
X0108750Y0033750D01*
X0108750Y0043750D01*
X0048750Y0043750D01*
X0048750Y0033750D01*
X0048750Y0034340D02*
X0108750Y0034340D01*
X0108750Y0035138D02*
X0048750Y0035138D01*
X0048750Y0035937D02*
X0108750Y0035937D01*
X0108750Y0036735D02*
X0048750Y0036735D01*
X0048750Y0037534D02*
X0108750Y0037534D01*
X0108750Y0038332D02*
X0048750Y0038332D01*
X0048750Y0039131D02*
X0108750Y0039131D01*
X0108750Y0039929D02*
X0048750Y0039929D01*
X0048750Y0040728D02*
X0108750Y0040728D01*
X0108750Y0041526D02*
X0048750Y0041526D01*
X0048750Y0042325D02*
X0108750Y0042325D01*
X0108750Y0043123D02*
X0048750Y0043123D01*
X0150750Y0043123D02*
X0210750Y0043123D01*
X0210750Y0043750D02*
X0210750Y0033750D01*
X0150750Y0033750D01*
X0150750Y0043750D01*
X0210750Y0043750D01*
X0210750Y0042325D02*
X0150750Y0042325D01*
X0150750Y0041526D02*
X0210750Y0041526D01*
X0210750Y0040728D02*
X0150750Y0040728D01*
X0150750Y0039929D02*
X0210750Y0039929D01*
X0210750Y0039131D02*
X0150750Y0039131D01*
X0150750Y0038332D02*
X0210750Y0038332D01*
X0210750Y0037534D02*
X0150750Y0037534D01*
X0150750Y0036735D02*
X0210750Y0036735D01*
X0210750Y0035937D02*
X0150750Y0035937D01*
X0150750Y0035138D02*
X0210750Y0035138D01*
X0210750Y0034340D02*
X0150750Y0034340D01*
X0252750Y0034340D02*
X0312750Y0034340D01*
X0312750Y0033750D02*
X0252750Y0033750D01*
X0252750Y0043750D01*
X0312750Y0043750D01*
X0312750Y0033750D01*
X0312750Y0035138D02*
X0252750Y0035138D01*
X0252750Y0035937D02*
X0312750Y0035937D01*
X0312750Y0036735D02*
X0252750Y0036735D01*
X0252750Y0037534D02*
X0312750Y0037534D01*
X0312750Y0038332D02*
X0252750Y0038332D01*
X0252750Y0039131D02*
X0312750Y0039131D01*
X0312750Y0039929D02*
X0252750Y0039929D01*
X0252750Y0040728D02*
X0312750Y0040728D01*
X0312750Y0041526D02*
X0252750Y0041526D01*
X0252750Y0042325D02*
X0312750Y0042325D01*
X0312750Y0043123D02*
X0252750Y0043123D01*
M02*
