G75*
%MOIN*%
%OFA0B0*%
%FSLAX25Y25*%
%IPPOS*%
%LPD*%
%AMOC8*
5,1,8,0,0,1.08239X$1,22.5*
%
%ADD10R,0.03346X0.03543*%
%ADD11R,0.03543X0.03346*%
%ADD12R,0.03346X0.08661*%
%ADD13R,0.03937X0.04134*%
%ADD14R,0.03937X0.04331*%
%ADD15R,0.04331X0.03937*%
D10*
X0082767Y0083550D03*
X0087333Y0083550D03*
X0080833Y0095050D03*
X0076267Y0095050D03*
X0073578Y0089223D03*
X0069011Y0089223D03*
X0071511Y0110223D03*
X0076078Y0110223D03*
X0081511Y0110223D03*
X0086078Y0110223D03*
X0081078Y0122223D03*
X0076511Y0122223D03*
X0171011Y0089223D03*
X0175578Y0089223D03*
X0178267Y0095050D03*
X0182833Y0095050D03*
X0184767Y0083550D03*
X0189333Y0083550D03*
X0188078Y0110223D03*
X0183511Y0110223D03*
X0178078Y0110223D03*
X0173511Y0110223D03*
X0178511Y0122223D03*
X0183078Y0122223D03*
X0273011Y0089223D03*
X0277578Y0089223D03*
X0280267Y0095050D03*
X0284833Y0095050D03*
X0286767Y0083550D03*
X0291333Y0083550D03*
X0290078Y0110223D03*
X0285511Y0110223D03*
X0280078Y0110223D03*
X0275511Y0110223D03*
X0280511Y0122223D03*
X0285078Y0122223D03*
X0375011Y0089223D03*
X0379578Y0089223D03*
X0382267Y0095050D03*
X0386833Y0095050D03*
X0388767Y0083550D03*
X0393333Y0083550D03*
X0392078Y0110223D03*
X0387511Y0110223D03*
X0382078Y0110223D03*
X0377511Y0110223D03*
X0382511Y0122223D03*
X0387078Y0122223D03*
X0388767Y0255550D03*
X0393333Y0255550D03*
X0386833Y0267050D03*
X0382267Y0267050D03*
X0379578Y0261223D03*
X0375011Y0261223D03*
X0377511Y0282223D03*
X0382078Y0282223D03*
X0387511Y0282223D03*
X0392078Y0282223D03*
X0387078Y0294223D03*
X0382511Y0294223D03*
X0291333Y0255550D03*
X0286767Y0255550D03*
X0277578Y0261223D03*
X0273011Y0261223D03*
X0280267Y0267050D03*
X0284833Y0267050D03*
X0285511Y0282223D03*
X0290078Y0282223D03*
X0280078Y0282223D03*
X0275511Y0282223D03*
X0280511Y0294223D03*
X0285078Y0294223D03*
X0189333Y0255550D03*
X0184767Y0255550D03*
X0175578Y0261223D03*
X0171011Y0261223D03*
X0178267Y0267050D03*
X0182833Y0267050D03*
X0183511Y0282223D03*
X0188078Y0282223D03*
X0178078Y0282223D03*
X0173511Y0282223D03*
X0178511Y0294223D03*
X0183078Y0294223D03*
X0086078Y0282223D03*
X0081511Y0282223D03*
X0076078Y0282223D03*
X0071511Y0282223D03*
X0076511Y0294223D03*
X0081078Y0294223D03*
X0080833Y0267050D03*
X0076267Y0267050D03*
X0073578Y0261223D03*
X0069011Y0261223D03*
X0082767Y0255550D03*
X0087333Y0255550D03*
D11*
X0081550Y0272267D03*
X0076050Y0272267D03*
X0076050Y0276833D03*
X0081550Y0276833D03*
X0178050Y0276833D03*
X0183550Y0276833D03*
X0183550Y0272267D03*
X0178050Y0272267D03*
X0280050Y0272267D03*
X0285550Y0272267D03*
X0285550Y0276833D03*
X0280050Y0276833D03*
X0382050Y0276833D03*
X0387550Y0276833D03*
X0387550Y0272267D03*
X0382050Y0272267D03*
X0382050Y0104833D03*
X0382050Y0100267D03*
X0387550Y0100267D03*
X0387550Y0104833D03*
X0285550Y0104833D03*
X0285550Y0100267D03*
X0280050Y0100267D03*
X0280050Y0104833D03*
X0183550Y0104833D03*
X0183550Y0100267D03*
X0178050Y0100267D03*
X0178050Y0104833D03*
X0081550Y0104833D03*
X0081550Y0100267D03*
X0076050Y0100267D03*
X0076050Y0104833D03*
D12*
X0073137Y0072050D03*
X0083963Y0072050D03*
X0175137Y0072050D03*
X0185963Y0072050D03*
X0277137Y0072050D03*
X0287963Y0072050D03*
X0379137Y0072050D03*
X0389963Y0072050D03*
X0389963Y0244050D03*
X0379137Y0244050D03*
X0287963Y0244050D03*
X0277137Y0244050D03*
X0185963Y0244050D03*
X0175137Y0244050D03*
X0083963Y0244050D03*
X0073137Y0244050D03*
D13*
X0078550Y0066046D03*
X0078550Y0078054D03*
X0180550Y0078054D03*
X0180550Y0066046D03*
X0282550Y0066046D03*
X0282550Y0078054D03*
X0384550Y0078054D03*
X0384550Y0066046D03*
X0384550Y0238046D03*
X0384550Y0250054D03*
X0282550Y0250054D03*
X0282550Y0238046D03*
X0180550Y0238046D03*
X0180550Y0250054D03*
X0078550Y0250054D03*
X0078550Y0238046D03*
D14*
X0070550Y0269704D03*
X0070550Y0276396D03*
X0087050Y0276396D03*
X0087050Y0269704D03*
X0172550Y0269704D03*
X0172550Y0276396D03*
X0189050Y0276396D03*
X0189050Y0269704D03*
X0274550Y0269704D03*
X0274550Y0276396D03*
X0291050Y0276396D03*
X0291050Y0269704D03*
X0376550Y0269704D03*
X0376550Y0276396D03*
X0393050Y0276396D03*
X0393050Y0269704D03*
X0393050Y0104396D03*
X0393050Y0097704D03*
X0376550Y0097704D03*
X0376550Y0104396D03*
X0291050Y0104396D03*
X0291050Y0097704D03*
X0274550Y0097704D03*
X0274550Y0104396D03*
X0189050Y0104396D03*
X0189050Y0097704D03*
X0172550Y0097704D03*
X0172550Y0104396D03*
X0087050Y0104396D03*
X0087050Y0097704D03*
X0070550Y0097704D03*
X0070550Y0104396D03*
D15*
X0080704Y0089550D03*
X0087396Y0089550D03*
X0076896Y0083550D03*
X0070204Y0083550D03*
X0172204Y0083550D03*
X0178896Y0083550D03*
X0182704Y0089550D03*
X0189396Y0089550D03*
X0274204Y0083550D03*
X0280896Y0083550D03*
X0284704Y0089550D03*
X0291396Y0089550D03*
X0376204Y0083550D03*
X0382896Y0083550D03*
X0386704Y0089550D03*
X0393396Y0089550D03*
X0382896Y0255550D03*
X0386704Y0261550D03*
X0393396Y0261550D03*
X0376204Y0255550D03*
X0291396Y0261550D03*
X0284704Y0261550D03*
X0280896Y0255550D03*
X0274204Y0255550D03*
X0189396Y0261550D03*
X0182704Y0261550D03*
X0178896Y0255550D03*
X0172204Y0255550D03*
X0087396Y0261550D03*
X0080704Y0261550D03*
X0076896Y0255550D03*
X0070204Y0255550D03*
M02*
