%
M48
M72
T01C0.0150
T02C0.0400
T03C0.1300
%
T01
X6255Y6685
X6255Y7185
X6255Y7685
X6255Y8185
X6255Y8685
X6255Y9185
X6255Y9685
X6255Y10185
X6255Y10685
X7368Y11549
X8391Y11549
X9612Y12376
X10832Y13597
X11344Y15368
X10832Y17179
X9612Y18400
X7879Y18833
X6186Y18400
X4927Y17179
X4415Y15368
X4927Y13597
X6186Y12376
X9435Y10685
X9435Y10185
X9435Y9685
X9435Y9185
X9435Y8685
X9435Y8185
X9435Y7685
X9435Y7185
X9435Y6685
X7685Y8935
X15127Y13597
X16386Y12376
X17568Y11549
X18591Y11549
X19812Y12376
X21032Y13597
X21544Y15368
X21032Y17179
X19812Y18400
X18079Y18833
X16386Y18400
X15127Y17179
X14615Y15368
X16455Y10685
X16455Y10185
X16455Y9685
X16455Y9185
X16455Y8685
X16455Y8185
X16455Y7685
X16455Y7185
X16455Y6685
X17885Y8935
X19635Y8685
X19635Y8185
X19635Y7685
X19635Y7185
X19635Y6685
X19635Y9185
X19635Y9685
X19635Y10185
X19635Y10685
X25327Y13597
X26586Y12376
X27768Y11549
X28791Y11549
X30012Y12376
X31232Y13597
X31744Y15368
X31232Y17179
X30012Y18400
X28279Y18833
X26586Y18400
X25327Y17179
X24815Y15368
X26655Y10685
X26655Y10185
X26655Y9685
X26655Y9185
X26655Y8685
X26655Y8185
X26655Y7685
X26655Y7185
X26655Y6685
X29835Y6685
X29835Y7185
X29835Y7685
X29835Y8185
X29835Y8685
X29835Y9185
X29835Y9685
X29835Y10185
X29835Y10685
X28085Y8935
T02
X27775Y3875
X28775Y3875
X18575Y3875
X17575Y3875
X8375Y3875
X7375Y3875
T03
X3875Y3875
X11875Y3875
X14075Y3875
X22075Y3875
X24275Y3875
X32275Y3875
X32275Y11875
X24275Y11875
X22075Y11875
X14075Y11875
X11875Y11875
X3875Y11875
M30
