G75*
%MOIN*%
%OFA0B0*%
%FSLAX25Y25*%
%IPPOS*%
%LPD*%
%AMOC8*
5,1,8,0,0,1.08239X$1,22.5*
%
%ADD10R,0.05315X0.11417*%
%ADD11C,0.00394*%
%ADD12C,0.03937*%
%ADD13C,0.05906*%
%ADD14C,0.01000*%
%ADD15C,0.02700*%
%ADD16C,0.06000*%
%ADD17C,0.00800*%
D10*
X0073007Y0118605D03*
X0084581Y0118605D03*
X0175007Y0118605D03*
X0186581Y0118605D03*
X0277007Y0118605D03*
X0288581Y0118605D03*
X0379007Y0118605D03*
X0390581Y0118605D03*
X0390581Y0290605D03*
X0379007Y0290605D03*
X0288581Y0290605D03*
X0277007Y0290605D03*
X0186581Y0290605D03*
X0175007Y0290605D03*
X0084581Y0290605D03*
X0073007Y0290605D03*
D11*
X0075251Y0290748D02*
X0061141Y0290748D01*
X0060306Y0291140D02*
X0075251Y0291140D01*
X0075251Y0291532D02*
X0059582Y0291532D01*
X0059936Y0291314D02*
X0064463Y0289188D01*
X0067770Y0288085D01*
X0071117Y0287259D01*
X0074503Y0286747D01*
X0075251Y0286747D01*
X0075251Y0296196D01*
X0072889Y0296589D01*
X0069739Y0297377D01*
X0065802Y0298952D01*
X0063046Y0300526D01*
X0061865Y0301314D01*
X0060290Y0302495D01*
X0058164Y0304306D01*
X0055920Y0306707D01*
X0053479Y0310054D01*
X0052180Y0312495D01*
X0050920Y0315448D01*
X0049818Y0318991D01*
X0049306Y0322180D01*
X0049109Y0325133D01*
X0049188Y0328322D01*
X0049621Y0331314D01*
X0050566Y0335093D01*
X0051865Y0338322D01*
X0053204Y0340763D01*
X0054621Y0343007D01*
X0056747Y0345605D01*
X0058952Y0347849D01*
X0061235Y0349660D01*
X0064385Y0351707D01*
X0067416Y0353125D01*
X0070408Y0354188D01*
X0072967Y0354857D01*
X0075920Y0355290D01*
X0078479Y0355408D01*
X0080881Y0355330D01*
X0084621Y0354818D01*
X0087377Y0354148D01*
X0089621Y0353400D01*
X0092022Y0352298D01*
X0094109Y0351156D01*
X0096235Y0349778D01*
X0099030Y0347456D01*
X0100802Y0345644D01*
X0102770Y0343282D01*
X0104739Y0340251D01*
X0106156Y0337298D01*
X0107259Y0334345D01*
X0107889Y0331668D01*
X0108361Y0328479D01*
X0108479Y0325369D01*
X0108282Y0321747D01*
X0107731Y0319109D01*
X0106786Y0315684D01*
X0105605Y0312928D01*
X0104030Y0310015D01*
X0101944Y0307062D01*
X0099896Y0304818D01*
X0097101Y0302298D01*
X0094345Y0300408D01*
X0091707Y0298952D01*
X0089070Y0297849D01*
X0086156Y0296944D01*
X0083873Y0296471D01*
X0082180Y0296274D01*
X0082180Y0286668D01*
X0084739Y0286944D01*
X0087416Y0287456D01*
X0090802Y0288400D01*
X0093794Y0289463D01*
X0096747Y0290841D01*
X0100015Y0292731D01*
X0102416Y0294424D01*
X0104739Y0296314D01*
X0106747Y0298204D01*
X0108873Y0300566D01*
X0110448Y0302534D01*
X0111747Y0304463D01*
X0113282Y0307022D01*
X0114621Y0309700D01*
X0115959Y0313164D01*
X0116747Y0315763D01*
X0117416Y0318715D01*
X0117849Y0321904D01*
X0118046Y0325054D01*
X0117967Y0327928D01*
X0117692Y0330999D01*
X0117141Y0334070D01*
X0116196Y0337692D01*
X0114975Y0340959D01*
X0113597Y0343833D01*
X0112062Y0346550D01*
X0110369Y0349030D01*
X0107928Y0351983D01*
X0105723Y0354267D01*
X0103400Y0356274D01*
X0099857Y0358833D01*
X0097022Y0360487D01*
X0093676Y0362022D01*
X0090330Y0363204D01*
X0086826Y0364109D01*
X0083912Y0364581D01*
X0080644Y0364896D01*
X0077337Y0364896D01*
X0073558Y0364621D01*
X0070251Y0364030D01*
X0067416Y0363282D01*
X0064818Y0362416D01*
X0062141Y0361235D01*
X0059070Y0359621D01*
X0056471Y0357967D01*
X0054306Y0356353D01*
X0051117Y0353519D01*
X0048912Y0351117D01*
X0046550Y0348085D01*
X0044542Y0344818D01*
X0043046Y0341865D01*
X0041826Y0338833D01*
X0040920Y0335881D01*
X0040330Y0333400D01*
X0039857Y0330369D01*
X0039581Y0326550D01*
X0039660Y0322731D01*
X0040526Y0317141D01*
X0041983Y0312219D01*
X0043873Y0307849D01*
X0046589Y0303322D01*
X0048952Y0300251D01*
X0051432Y0297692D01*
X0054267Y0295133D01*
X0057062Y0293085D01*
X0059936Y0291314D01*
X0058945Y0291924D02*
X0075251Y0291924D01*
X0075251Y0292317D02*
X0058309Y0292317D01*
X0057673Y0292709D02*
X0075251Y0292709D01*
X0075251Y0293101D02*
X0057041Y0293101D01*
X0056505Y0293493D02*
X0075251Y0293493D01*
X0075251Y0293885D02*
X0055970Y0293885D01*
X0055434Y0294278D02*
X0075251Y0294278D01*
X0075251Y0294670D02*
X0054899Y0294670D01*
X0054363Y0295062D02*
X0075251Y0295062D01*
X0075251Y0295454D02*
X0053910Y0295454D01*
X0053476Y0295846D02*
X0075251Y0295846D01*
X0074993Y0296239D02*
X0053041Y0296239D01*
X0052607Y0296631D02*
X0072723Y0296631D01*
X0071154Y0297023D02*
X0052173Y0297023D01*
X0051738Y0297415D02*
X0069643Y0297415D01*
X0068662Y0297808D02*
X0051320Y0297808D01*
X0050940Y0298200D02*
X0067682Y0298200D01*
X0066701Y0298592D02*
X0050559Y0298592D01*
X0050179Y0298984D02*
X0065745Y0298984D01*
X0065059Y0299376D02*
X0049799Y0299376D01*
X0049419Y0299769D02*
X0064372Y0299769D01*
X0063686Y0300161D02*
X0049039Y0300161D01*
X0048719Y0300553D02*
X0063006Y0300553D01*
X0062418Y0300945D02*
X0048417Y0300945D01*
X0048116Y0301337D02*
X0061833Y0301337D01*
X0061311Y0301730D02*
X0047814Y0301730D01*
X0047512Y0302122D02*
X0060788Y0302122D01*
X0060268Y0302514D02*
X0047211Y0302514D01*
X0046909Y0302906D02*
X0059807Y0302906D01*
X0059347Y0303298D02*
X0046607Y0303298D01*
X0046368Y0303691D02*
X0058886Y0303691D01*
X0058426Y0304083D02*
X0046133Y0304083D01*
X0045897Y0304475D02*
X0058006Y0304475D01*
X0057640Y0304867D02*
X0045662Y0304867D01*
X0045427Y0305260D02*
X0057273Y0305260D01*
X0056907Y0305652D02*
X0045191Y0305652D01*
X0044956Y0306044D02*
X0056540Y0306044D01*
X0056174Y0306436D02*
X0044721Y0306436D01*
X0044485Y0306828D02*
X0055832Y0306828D01*
X0055546Y0307221D02*
X0044250Y0307221D01*
X0044015Y0307613D02*
X0055260Y0307613D01*
X0054974Y0308005D02*
X0043805Y0308005D01*
X0043636Y0308397D02*
X0054688Y0308397D01*
X0054401Y0308789D02*
X0043466Y0308789D01*
X0043297Y0309182D02*
X0054115Y0309182D01*
X0053829Y0309574D02*
X0043127Y0309574D01*
X0042957Y0309966D02*
X0053543Y0309966D01*
X0053317Y0310358D02*
X0042788Y0310358D01*
X0042618Y0310751D02*
X0053108Y0310751D01*
X0052900Y0311143D02*
X0042449Y0311143D01*
X0042279Y0311535D02*
X0052691Y0311535D01*
X0052482Y0311927D02*
X0042109Y0311927D01*
X0041953Y0312319D02*
X0052273Y0312319D01*
X0052087Y0312712D02*
X0041837Y0312712D01*
X0041721Y0313104D02*
X0051920Y0313104D01*
X0051753Y0313496D02*
X0041605Y0313496D01*
X0041489Y0313888D02*
X0051585Y0313888D01*
X0051418Y0314280D02*
X0041373Y0314280D01*
X0041257Y0314673D02*
X0051251Y0314673D01*
X0051083Y0315065D02*
X0041141Y0315065D01*
X0041025Y0315457D02*
X0050917Y0315457D01*
X0050795Y0315849D02*
X0040909Y0315849D01*
X0040792Y0316241D02*
X0050673Y0316241D01*
X0050551Y0316634D02*
X0040676Y0316634D01*
X0040560Y0317026D02*
X0050429Y0317026D01*
X0050307Y0317418D02*
X0040483Y0317418D01*
X0040423Y0317810D02*
X0050185Y0317810D01*
X0050063Y0318203D02*
X0040362Y0318203D01*
X0040301Y0318595D02*
X0049941Y0318595D01*
X0049819Y0318987D02*
X0040240Y0318987D01*
X0040180Y0319379D02*
X0049755Y0319379D01*
X0049692Y0319771D02*
X0040119Y0319771D01*
X0040058Y0320164D02*
X0049630Y0320164D01*
X0049567Y0320556D02*
X0039997Y0320556D01*
X0039936Y0320948D02*
X0049504Y0320948D01*
X0049441Y0321340D02*
X0039876Y0321340D01*
X0039815Y0321732D02*
X0049378Y0321732D01*
X0049315Y0322125D02*
X0039754Y0322125D01*
X0039693Y0322517D02*
X0049283Y0322517D01*
X0049257Y0322909D02*
X0039657Y0322909D01*
X0039648Y0323301D02*
X0049231Y0323301D01*
X0049205Y0323694D02*
X0039640Y0323694D01*
X0039632Y0324086D02*
X0049179Y0324086D01*
X0049153Y0324478D02*
X0039624Y0324478D01*
X0039616Y0324870D02*
X0049127Y0324870D01*
X0049112Y0325262D02*
X0039608Y0325262D01*
X0039600Y0325655D02*
X0049122Y0325655D01*
X0049132Y0326047D02*
X0039592Y0326047D01*
X0039584Y0326439D02*
X0049141Y0326439D01*
X0049151Y0326831D02*
X0039602Y0326831D01*
X0039630Y0327223D02*
X0049161Y0327223D01*
X0049170Y0327616D02*
X0039658Y0327616D01*
X0039687Y0328008D02*
X0049180Y0328008D01*
X0049199Y0328400D02*
X0039715Y0328400D01*
X0039743Y0328792D02*
X0049256Y0328792D01*
X0049313Y0329184D02*
X0039772Y0329184D01*
X0039800Y0329577D02*
X0049369Y0329577D01*
X0049426Y0329969D02*
X0039828Y0329969D01*
X0039857Y0330361D02*
X0049483Y0330361D01*
X0049540Y0330753D02*
X0039917Y0330753D01*
X0039978Y0331146D02*
X0049597Y0331146D01*
X0049677Y0331538D02*
X0040039Y0331538D01*
X0040100Y0331930D02*
X0049775Y0331930D01*
X0049873Y0332322D02*
X0040162Y0332322D01*
X0040223Y0332714D02*
X0049971Y0332714D01*
X0050069Y0333107D02*
X0040284Y0333107D01*
X0040353Y0333499D02*
X0050167Y0333499D01*
X0050265Y0333891D02*
X0040446Y0333891D01*
X0040540Y0334283D02*
X0050363Y0334283D01*
X0050461Y0334675D02*
X0040633Y0334675D01*
X0040727Y0335068D02*
X0050559Y0335068D01*
X0050713Y0335460D02*
X0040820Y0335460D01*
X0040913Y0335852D02*
X0050871Y0335852D01*
X0051029Y0336244D02*
X0041032Y0336244D01*
X0041152Y0336637D02*
X0051187Y0336637D01*
X0051345Y0337029D02*
X0041272Y0337029D01*
X0041392Y0337421D02*
X0051502Y0337421D01*
X0051660Y0337813D02*
X0041513Y0337813D01*
X0041633Y0338205D02*
X0051818Y0338205D01*
X0052016Y0338598D02*
X0041753Y0338598D01*
X0041889Y0338990D02*
X0052231Y0338990D01*
X0052446Y0339382D02*
X0042046Y0339382D01*
X0042204Y0339774D02*
X0052662Y0339774D01*
X0052877Y0340166D02*
X0042362Y0340166D01*
X0042520Y0340559D02*
X0053092Y0340559D01*
X0053322Y0340951D02*
X0042678Y0340951D01*
X0042836Y0341343D02*
X0053570Y0341343D01*
X0053818Y0341735D02*
X0042994Y0341735D01*
X0043179Y0342127D02*
X0054066Y0342127D01*
X0054313Y0342520D02*
X0043378Y0342520D01*
X0043577Y0342912D02*
X0054561Y0342912D01*
X0054864Y0343304D02*
X0043775Y0343304D01*
X0043974Y0343696D02*
X0055185Y0343696D01*
X0055506Y0344089D02*
X0044173Y0344089D01*
X0044371Y0344481D02*
X0055827Y0344481D01*
X0056148Y0344873D02*
X0044576Y0344873D01*
X0044817Y0345265D02*
X0056469Y0345265D01*
X0056798Y0345657D02*
X0045058Y0345657D01*
X0045299Y0346050D02*
X0057184Y0346050D01*
X0057569Y0346442D02*
X0045540Y0346442D01*
X0045781Y0346834D02*
X0057954Y0346834D01*
X0058340Y0347226D02*
X0046022Y0347226D01*
X0046263Y0347618D02*
X0058725Y0347618D01*
X0059155Y0348011D02*
X0046504Y0348011D01*
X0046797Y0348403D02*
X0059650Y0348403D01*
X0060144Y0348795D02*
X0047103Y0348795D01*
X0047409Y0349187D02*
X0060639Y0349187D01*
X0061133Y0349580D02*
X0047714Y0349580D01*
X0048020Y0349972D02*
X0061714Y0349972D01*
X0062318Y0350364D02*
X0048325Y0350364D01*
X0048631Y0350756D02*
X0062921Y0350756D01*
X0063524Y0351148D02*
X0048941Y0351148D01*
X0049301Y0351541D02*
X0064128Y0351541D01*
X0064867Y0351933D02*
X0049661Y0351933D01*
X0050021Y0352325D02*
X0065705Y0352325D01*
X0066544Y0352717D02*
X0050381Y0352717D01*
X0050741Y0353109D02*
X0067383Y0353109D01*
X0068477Y0353502D02*
X0051101Y0353502D01*
X0051539Y0353894D02*
X0069581Y0353894D01*
X0070784Y0354286D02*
X0051980Y0354286D01*
X0052422Y0354678D02*
X0072284Y0354678D01*
X0074422Y0355070D02*
X0052863Y0355070D01*
X0053304Y0355463D02*
X0104339Y0355463D01*
X0103886Y0355855D02*
X0053745Y0355855D01*
X0054187Y0356247D02*
X0103432Y0356247D01*
X0102895Y0356639D02*
X0054690Y0356639D01*
X0055216Y0357032D02*
X0102352Y0357032D01*
X0101809Y0357424D02*
X0055742Y0357424D01*
X0056268Y0357816D02*
X0101266Y0357816D01*
X0100723Y0358208D02*
X0056850Y0358208D01*
X0057466Y0358600D02*
X0100180Y0358600D01*
X0099584Y0358993D02*
X0058082Y0358993D01*
X0058699Y0359385D02*
X0098912Y0359385D01*
X0098240Y0359777D02*
X0059367Y0359777D01*
X0060113Y0360169D02*
X0097567Y0360169D01*
X0096860Y0360561D02*
X0060859Y0360561D01*
X0061605Y0360954D02*
X0096005Y0360954D01*
X0095151Y0361346D02*
X0062392Y0361346D01*
X0063281Y0361738D02*
X0094296Y0361738D01*
X0093370Y0362130D02*
X0064170Y0362130D01*
X0065137Y0362523D02*
X0092259Y0362523D01*
X0091148Y0362915D02*
X0066313Y0362915D01*
X0067510Y0363307D02*
X0089929Y0363307D01*
X0088412Y0363699D02*
X0068996Y0363699D01*
X0070593Y0364091D02*
X0086894Y0364091D01*
X0084516Y0364484D02*
X0072789Y0364484D01*
X0077054Y0364876D02*
X0080859Y0364876D01*
X0082774Y0355070D02*
X0104793Y0355070D01*
X0105247Y0354678D02*
X0085195Y0354678D01*
X0086810Y0354286D02*
X0105701Y0354286D01*
X0106083Y0353894D02*
X0088141Y0353894D01*
X0089317Y0353502D02*
X0106462Y0353502D01*
X0106840Y0353109D02*
X0090255Y0353109D01*
X0091109Y0352717D02*
X0107219Y0352717D01*
X0107598Y0352325D02*
X0091964Y0352325D01*
X0092690Y0351933D02*
X0107970Y0351933D01*
X0108294Y0351541D02*
X0093407Y0351541D01*
X0094121Y0351148D02*
X0108618Y0351148D01*
X0108942Y0350756D02*
X0094726Y0350756D01*
X0095332Y0350364D02*
X0109266Y0350364D01*
X0109591Y0349972D02*
X0095937Y0349972D01*
X0096474Y0349580D02*
X0109915Y0349580D01*
X0110239Y0349187D02*
X0096946Y0349187D01*
X0097418Y0348795D02*
X0110529Y0348795D01*
X0110797Y0348403D02*
X0097890Y0348403D01*
X0098362Y0348011D02*
X0111065Y0348011D01*
X0111333Y0347618D02*
X0098834Y0347618D01*
X0099255Y0347226D02*
X0111600Y0347226D01*
X0111868Y0346834D02*
X0099638Y0346834D01*
X0100022Y0346442D02*
X0112123Y0346442D01*
X0112345Y0346050D02*
X0100406Y0346050D01*
X0100789Y0345657D02*
X0112566Y0345657D01*
X0112788Y0345265D02*
X0101118Y0345265D01*
X0101445Y0344873D02*
X0113010Y0344873D01*
X0113231Y0344481D02*
X0101772Y0344481D01*
X0102099Y0344089D02*
X0113453Y0344089D01*
X0113663Y0343696D02*
X0102425Y0343696D01*
X0102752Y0343304D02*
X0113851Y0343304D01*
X0114039Y0342912D02*
X0103011Y0342912D01*
X0103266Y0342520D02*
X0114227Y0342520D01*
X0114415Y0342127D02*
X0103520Y0342127D01*
X0103775Y0341735D02*
X0114603Y0341735D01*
X0114791Y0341343D02*
X0104030Y0341343D01*
X0104284Y0340951D02*
X0114978Y0340951D01*
X0115125Y0340559D02*
X0104539Y0340559D01*
X0104779Y0340166D02*
X0115271Y0340166D01*
X0115418Y0339774D02*
X0104968Y0339774D01*
X0105156Y0339382D02*
X0115564Y0339382D01*
X0115711Y0338990D02*
X0105344Y0338990D01*
X0105533Y0338598D02*
X0115857Y0338598D01*
X0116004Y0338205D02*
X0105721Y0338205D01*
X0105909Y0337813D02*
X0116150Y0337813D01*
X0116266Y0337421D02*
X0106097Y0337421D01*
X0106257Y0337029D02*
X0116369Y0337029D01*
X0116471Y0336637D02*
X0106403Y0336637D01*
X0106550Y0336244D02*
X0116573Y0336244D01*
X0116676Y0335852D02*
X0106696Y0335852D01*
X0106843Y0335460D02*
X0116778Y0335460D01*
X0116880Y0335068D02*
X0106989Y0335068D01*
X0107135Y0334675D02*
X0116983Y0334675D01*
X0117085Y0334283D02*
X0107273Y0334283D01*
X0107366Y0333891D02*
X0117173Y0333891D01*
X0117243Y0333499D02*
X0107458Y0333499D01*
X0107550Y0333107D02*
X0117313Y0333107D01*
X0117384Y0332714D02*
X0107642Y0332714D01*
X0107735Y0332322D02*
X0117454Y0332322D01*
X0117525Y0331930D02*
X0107827Y0331930D01*
X0107908Y0331538D02*
X0117595Y0331538D01*
X0117665Y0331146D02*
X0107966Y0331146D01*
X0108024Y0330753D02*
X0117714Y0330753D01*
X0117749Y0330361D02*
X0108082Y0330361D01*
X0108140Y0329969D02*
X0117784Y0329969D01*
X0117819Y0329577D02*
X0108198Y0329577D01*
X0108257Y0329184D02*
X0117855Y0329184D01*
X0117890Y0328792D02*
X0108315Y0328792D01*
X0108364Y0328400D02*
X0117925Y0328400D01*
X0117960Y0328008D02*
X0108379Y0328008D01*
X0108394Y0327616D02*
X0117976Y0327616D01*
X0117987Y0327223D02*
X0108409Y0327223D01*
X0108424Y0326831D02*
X0117997Y0326831D01*
X0118008Y0326439D02*
X0108438Y0326439D01*
X0108453Y0326047D02*
X0118019Y0326047D01*
X0118030Y0325655D02*
X0108468Y0325655D01*
X0108473Y0325262D02*
X0118040Y0325262D01*
X0118035Y0324870D02*
X0108452Y0324870D01*
X0108431Y0324478D02*
X0118010Y0324478D01*
X0117986Y0324086D02*
X0108409Y0324086D01*
X0108388Y0323694D02*
X0117961Y0323694D01*
X0117937Y0323301D02*
X0108367Y0323301D01*
X0108345Y0322909D02*
X0117912Y0322909D01*
X0117887Y0322517D02*
X0108324Y0322517D01*
X0108303Y0322125D02*
X0117863Y0322125D01*
X0117826Y0321732D02*
X0108279Y0321732D01*
X0108197Y0321340D02*
X0117773Y0321340D01*
X0117719Y0320948D02*
X0108115Y0320948D01*
X0108033Y0320556D02*
X0117666Y0320556D01*
X0117613Y0320164D02*
X0107951Y0320164D01*
X0107870Y0319771D02*
X0117560Y0319771D01*
X0117506Y0319379D02*
X0107788Y0319379D01*
X0107697Y0318987D02*
X0117453Y0318987D01*
X0117389Y0318595D02*
X0107589Y0318595D01*
X0107481Y0318203D02*
X0117300Y0318203D01*
X0117211Y0317810D02*
X0107373Y0317810D01*
X0107265Y0317418D02*
X0117122Y0317418D01*
X0117033Y0317026D02*
X0107156Y0317026D01*
X0107048Y0316634D02*
X0116944Y0316634D01*
X0116855Y0316241D02*
X0106940Y0316241D01*
X0106832Y0315849D02*
X0116766Y0315849D01*
X0116654Y0315457D02*
X0106689Y0315457D01*
X0106521Y0315065D02*
X0116535Y0315065D01*
X0116417Y0314673D02*
X0106353Y0314673D01*
X0106185Y0314280D02*
X0116298Y0314280D01*
X0116179Y0313888D02*
X0106017Y0313888D01*
X0105849Y0313496D02*
X0116060Y0313496D01*
X0115936Y0313104D02*
X0105680Y0313104D01*
X0105488Y0312712D02*
X0115785Y0312712D01*
X0115633Y0312319D02*
X0105276Y0312319D01*
X0105064Y0311927D02*
X0115481Y0311927D01*
X0115330Y0311535D02*
X0104852Y0311535D01*
X0104640Y0311143D02*
X0115178Y0311143D01*
X0115027Y0310751D02*
X0104428Y0310751D01*
X0104216Y0310358D02*
X0114875Y0310358D01*
X0114724Y0309966D02*
X0103996Y0309966D01*
X0103719Y0309574D02*
X0114558Y0309574D01*
X0114362Y0309182D02*
X0103442Y0309182D01*
X0103165Y0308789D02*
X0114166Y0308789D01*
X0113970Y0308397D02*
X0102887Y0308397D01*
X0102610Y0308005D02*
X0113774Y0308005D01*
X0113577Y0307613D02*
X0102333Y0307613D01*
X0102056Y0307221D02*
X0113381Y0307221D01*
X0113166Y0306828D02*
X0101731Y0306828D01*
X0101373Y0306436D02*
X0112931Y0306436D01*
X0112695Y0306044D02*
X0101015Y0306044D01*
X0100657Y0305652D02*
X0112460Y0305652D01*
X0112225Y0305260D02*
X0100300Y0305260D01*
X0099942Y0304867D02*
X0111989Y0304867D01*
X0111754Y0304475D02*
X0099516Y0304475D01*
X0099081Y0304083D02*
X0111491Y0304083D01*
X0111226Y0303691D02*
X0098646Y0303691D01*
X0098211Y0303298D02*
X0110962Y0303298D01*
X0110698Y0302906D02*
X0097776Y0302906D01*
X0097341Y0302514D02*
X0110431Y0302514D01*
X0110118Y0302122D02*
X0096844Y0302122D01*
X0096272Y0301730D02*
X0109804Y0301730D01*
X0109490Y0301337D02*
X0095700Y0301337D01*
X0095128Y0300945D02*
X0109176Y0300945D01*
X0108861Y0300553D02*
X0094556Y0300553D01*
X0093897Y0300161D02*
X0108508Y0300161D01*
X0108155Y0299769D02*
X0093187Y0299769D01*
X0092477Y0299376D02*
X0107802Y0299376D01*
X0107449Y0298984D02*
X0091766Y0298984D01*
X0090847Y0298592D02*
X0107096Y0298592D01*
X0106743Y0298200D02*
X0089908Y0298200D01*
X0088936Y0297808D02*
X0106326Y0297808D01*
X0105909Y0297415D02*
X0087674Y0297415D01*
X0086412Y0297023D02*
X0105493Y0297023D01*
X0105076Y0296631D02*
X0084644Y0296631D01*
X0082180Y0296239D02*
X0104647Y0296239D01*
X0104165Y0295846D02*
X0082180Y0295846D01*
X0082180Y0295454D02*
X0103682Y0295454D01*
X0103200Y0295062D02*
X0082180Y0295062D01*
X0082180Y0294670D02*
X0102718Y0294670D01*
X0102208Y0294278D02*
X0082180Y0294278D01*
X0082180Y0293885D02*
X0101652Y0293885D01*
X0101096Y0293493D02*
X0082180Y0293493D01*
X0082180Y0293101D02*
X0100539Y0293101D01*
X0099976Y0292709D02*
X0082180Y0292709D01*
X0082180Y0292317D02*
X0099298Y0292317D01*
X0098620Y0291924D02*
X0082180Y0291924D01*
X0082180Y0291532D02*
X0097941Y0291532D01*
X0097263Y0291140D02*
X0082180Y0291140D01*
X0082180Y0290748D02*
X0096546Y0290748D01*
X0095706Y0290355D02*
X0082180Y0290355D01*
X0082180Y0289963D02*
X0094865Y0289963D01*
X0094025Y0289571D02*
X0082180Y0289571D01*
X0082180Y0289179D02*
X0092993Y0289179D01*
X0091889Y0288787D02*
X0082180Y0288787D01*
X0082180Y0288394D02*
X0090781Y0288394D01*
X0089375Y0288002D02*
X0082180Y0288002D01*
X0082180Y0287610D02*
X0087970Y0287610D01*
X0086173Y0287218D02*
X0082180Y0287218D01*
X0082180Y0286826D02*
X0083642Y0286826D01*
X0075251Y0286826D02*
X0073982Y0286826D01*
X0075251Y0287218D02*
X0071387Y0287218D01*
X0069695Y0287610D02*
X0075251Y0287610D01*
X0075251Y0288002D02*
X0068107Y0288002D01*
X0066844Y0288394D02*
X0075251Y0288394D01*
X0075251Y0288787D02*
X0065667Y0288787D01*
X0064490Y0289179D02*
X0075251Y0289179D01*
X0075251Y0289571D02*
X0063647Y0289571D01*
X0062812Y0289963D02*
X0075251Y0289963D01*
X0075251Y0290355D02*
X0061977Y0290355D01*
X0143373Y0314280D02*
X0153418Y0314280D01*
X0153585Y0313888D02*
X0143489Y0313888D01*
X0143605Y0313496D02*
X0153753Y0313496D01*
X0153920Y0313104D02*
X0143721Y0313104D01*
X0143837Y0312712D02*
X0154087Y0312712D01*
X0154180Y0312495D02*
X0152920Y0315448D01*
X0151818Y0318991D01*
X0151306Y0322180D01*
X0151109Y0325133D01*
X0151188Y0328322D01*
X0151621Y0331314D01*
X0152566Y0335093D01*
X0153865Y0338322D01*
X0155204Y0340763D01*
X0156621Y0343007D01*
X0158747Y0345605D01*
X0160952Y0347849D01*
X0163235Y0349660D01*
X0166385Y0351707D01*
X0169416Y0353125D01*
X0172408Y0354188D01*
X0174967Y0354857D01*
X0177920Y0355290D01*
X0180479Y0355408D01*
X0182881Y0355330D01*
X0186621Y0354818D01*
X0189377Y0354148D01*
X0191621Y0353400D01*
X0194022Y0352298D01*
X0196109Y0351156D01*
X0198235Y0349778D01*
X0201030Y0347456D01*
X0202802Y0345644D01*
X0204770Y0343282D01*
X0206739Y0340251D01*
X0208156Y0337298D01*
X0209259Y0334345D01*
X0209889Y0331668D01*
X0210361Y0328479D01*
X0210479Y0325369D01*
X0210282Y0321747D01*
X0209731Y0319109D01*
X0208786Y0315684D01*
X0207605Y0312928D01*
X0206030Y0310015D01*
X0203944Y0307062D01*
X0201896Y0304818D01*
X0199101Y0302298D01*
X0196345Y0300408D01*
X0193707Y0298952D01*
X0191070Y0297849D01*
X0188156Y0296944D01*
X0185873Y0296471D01*
X0184180Y0296274D01*
X0184180Y0286668D01*
X0186739Y0286944D01*
X0189416Y0287456D01*
X0192802Y0288400D01*
X0195794Y0289463D01*
X0198747Y0290841D01*
X0202015Y0292731D01*
X0204416Y0294424D01*
X0206739Y0296314D01*
X0208747Y0298204D01*
X0210873Y0300566D01*
X0212448Y0302534D01*
X0213747Y0304463D01*
X0215282Y0307022D01*
X0216621Y0309700D01*
X0217959Y0313164D01*
X0218747Y0315763D01*
X0219416Y0318715D01*
X0219849Y0321904D01*
X0220046Y0325054D01*
X0219967Y0327928D01*
X0219692Y0330999D01*
X0219141Y0334070D01*
X0218196Y0337692D01*
X0216975Y0340959D01*
X0215597Y0343833D01*
X0214062Y0346550D01*
X0212369Y0349030D01*
X0209928Y0351983D01*
X0207723Y0354267D01*
X0205400Y0356274D01*
X0201857Y0358833D01*
X0199022Y0360487D01*
X0195676Y0362022D01*
X0192330Y0363204D01*
X0188826Y0364109D01*
X0185912Y0364581D01*
X0182644Y0364896D01*
X0179337Y0364896D01*
X0175558Y0364621D01*
X0172251Y0364030D01*
X0169416Y0363282D01*
X0166818Y0362416D01*
X0164141Y0361235D01*
X0161070Y0359621D01*
X0158471Y0357967D01*
X0156306Y0356353D01*
X0153117Y0353519D01*
X0150912Y0351117D01*
X0148550Y0348085D01*
X0146542Y0344818D01*
X0145046Y0341865D01*
X0143826Y0338833D01*
X0142920Y0335881D01*
X0142330Y0333400D01*
X0141857Y0330369D01*
X0141581Y0326550D01*
X0141660Y0322731D01*
X0142526Y0317141D01*
X0143983Y0312219D01*
X0145873Y0307849D01*
X0148589Y0303322D01*
X0150952Y0300251D01*
X0153432Y0297692D01*
X0156267Y0295133D01*
X0159062Y0293085D01*
X0161936Y0291314D01*
X0166463Y0289188D01*
X0169770Y0288085D01*
X0173117Y0287259D01*
X0176503Y0286747D01*
X0177251Y0286747D01*
X0177251Y0296196D01*
X0174889Y0296589D01*
X0171739Y0297377D01*
X0167802Y0298952D01*
X0165046Y0300526D01*
X0163865Y0301314D01*
X0162290Y0302495D01*
X0160164Y0304306D01*
X0157920Y0306707D01*
X0155479Y0310054D01*
X0154180Y0312495D01*
X0154273Y0312319D02*
X0143953Y0312319D01*
X0144109Y0311927D02*
X0154482Y0311927D01*
X0154691Y0311535D02*
X0144279Y0311535D01*
X0144449Y0311143D02*
X0154900Y0311143D01*
X0155108Y0310751D02*
X0144618Y0310751D01*
X0144788Y0310358D02*
X0155317Y0310358D01*
X0155543Y0309966D02*
X0144957Y0309966D01*
X0145127Y0309574D02*
X0155829Y0309574D01*
X0156115Y0309182D02*
X0145297Y0309182D01*
X0145466Y0308789D02*
X0156401Y0308789D01*
X0156688Y0308397D02*
X0145636Y0308397D01*
X0145805Y0308005D02*
X0156974Y0308005D01*
X0157260Y0307613D02*
X0146015Y0307613D01*
X0146250Y0307221D02*
X0157546Y0307221D01*
X0157832Y0306828D02*
X0146485Y0306828D01*
X0146721Y0306436D02*
X0158174Y0306436D01*
X0158540Y0306044D02*
X0146956Y0306044D01*
X0147191Y0305652D02*
X0158907Y0305652D01*
X0159273Y0305260D02*
X0147427Y0305260D01*
X0147662Y0304867D02*
X0159640Y0304867D01*
X0160006Y0304475D02*
X0147897Y0304475D01*
X0148133Y0304083D02*
X0160426Y0304083D01*
X0160886Y0303691D02*
X0148368Y0303691D01*
X0148607Y0303298D02*
X0161347Y0303298D01*
X0161807Y0302906D02*
X0148909Y0302906D01*
X0149211Y0302514D02*
X0162268Y0302514D01*
X0162788Y0302122D02*
X0149512Y0302122D01*
X0149814Y0301730D02*
X0163311Y0301730D01*
X0163833Y0301337D02*
X0150116Y0301337D01*
X0150417Y0300945D02*
X0164418Y0300945D01*
X0165006Y0300553D02*
X0150719Y0300553D01*
X0151039Y0300161D02*
X0165686Y0300161D01*
X0166372Y0299769D02*
X0151419Y0299769D01*
X0151799Y0299376D02*
X0167059Y0299376D01*
X0167745Y0298984D02*
X0152179Y0298984D01*
X0152559Y0298592D02*
X0168701Y0298592D01*
X0169682Y0298200D02*
X0152940Y0298200D01*
X0153320Y0297808D02*
X0170662Y0297808D01*
X0171643Y0297415D02*
X0153738Y0297415D01*
X0154173Y0297023D02*
X0173154Y0297023D01*
X0174723Y0296631D02*
X0154607Y0296631D01*
X0155041Y0296239D02*
X0176993Y0296239D01*
X0177251Y0295846D02*
X0155476Y0295846D01*
X0155910Y0295454D02*
X0177251Y0295454D01*
X0177251Y0295062D02*
X0156363Y0295062D01*
X0156899Y0294670D02*
X0177251Y0294670D01*
X0177251Y0294278D02*
X0157434Y0294278D01*
X0157970Y0293885D02*
X0177251Y0293885D01*
X0177251Y0293493D02*
X0158505Y0293493D01*
X0159041Y0293101D02*
X0177251Y0293101D01*
X0177251Y0292709D02*
X0159673Y0292709D01*
X0160309Y0292317D02*
X0177251Y0292317D01*
X0177251Y0291924D02*
X0160945Y0291924D01*
X0161582Y0291532D02*
X0177251Y0291532D01*
X0177251Y0291140D02*
X0162306Y0291140D01*
X0163141Y0290748D02*
X0177251Y0290748D01*
X0177251Y0290355D02*
X0163977Y0290355D01*
X0164812Y0289963D02*
X0177251Y0289963D01*
X0177251Y0289571D02*
X0165647Y0289571D01*
X0166490Y0289179D02*
X0177251Y0289179D01*
X0177251Y0288787D02*
X0167667Y0288787D01*
X0168844Y0288394D02*
X0177251Y0288394D01*
X0177251Y0288002D02*
X0170107Y0288002D01*
X0171695Y0287610D02*
X0177251Y0287610D01*
X0177251Y0287218D02*
X0173387Y0287218D01*
X0175982Y0286826D02*
X0177251Y0286826D01*
X0184180Y0286826D02*
X0185642Y0286826D01*
X0184180Y0287218D02*
X0188173Y0287218D01*
X0189970Y0287610D02*
X0184180Y0287610D01*
X0184180Y0288002D02*
X0191375Y0288002D01*
X0192781Y0288394D02*
X0184180Y0288394D01*
X0184180Y0288787D02*
X0193889Y0288787D01*
X0194993Y0289179D02*
X0184180Y0289179D01*
X0184180Y0289571D02*
X0196025Y0289571D01*
X0196865Y0289963D02*
X0184180Y0289963D01*
X0184180Y0290355D02*
X0197706Y0290355D01*
X0198546Y0290748D02*
X0184180Y0290748D01*
X0184180Y0291140D02*
X0199263Y0291140D01*
X0199941Y0291532D02*
X0184180Y0291532D01*
X0184180Y0291924D02*
X0200620Y0291924D01*
X0201298Y0292317D02*
X0184180Y0292317D01*
X0184180Y0292709D02*
X0201976Y0292709D01*
X0202539Y0293101D02*
X0184180Y0293101D01*
X0184180Y0293493D02*
X0203096Y0293493D01*
X0203652Y0293885D02*
X0184180Y0293885D01*
X0184180Y0294278D02*
X0204208Y0294278D01*
X0204718Y0294670D02*
X0184180Y0294670D01*
X0184180Y0295062D02*
X0205200Y0295062D01*
X0205682Y0295454D02*
X0184180Y0295454D01*
X0184180Y0295846D02*
X0206165Y0295846D01*
X0206647Y0296239D02*
X0184180Y0296239D01*
X0186644Y0296631D02*
X0207076Y0296631D01*
X0207493Y0297023D02*
X0188412Y0297023D01*
X0189674Y0297415D02*
X0207909Y0297415D01*
X0208326Y0297808D02*
X0190936Y0297808D01*
X0191908Y0298200D02*
X0208743Y0298200D01*
X0209096Y0298592D02*
X0192847Y0298592D01*
X0193766Y0298984D02*
X0209449Y0298984D01*
X0209802Y0299376D02*
X0194477Y0299376D01*
X0195187Y0299769D02*
X0210155Y0299769D01*
X0210508Y0300161D02*
X0195897Y0300161D01*
X0196556Y0300553D02*
X0210861Y0300553D01*
X0211176Y0300945D02*
X0197128Y0300945D01*
X0197700Y0301337D02*
X0211490Y0301337D01*
X0211804Y0301730D02*
X0198272Y0301730D01*
X0198844Y0302122D02*
X0212118Y0302122D01*
X0212431Y0302514D02*
X0199341Y0302514D01*
X0199776Y0302906D02*
X0212698Y0302906D01*
X0212962Y0303298D02*
X0200211Y0303298D01*
X0200646Y0303691D02*
X0213226Y0303691D01*
X0213491Y0304083D02*
X0201081Y0304083D01*
X0201516Y0304475D02*
X0213754Y0304475D01*
X0213989Y0304867D02*
X0201942Y0304867D01*
X0202300Y0305260D02*
X0214225Y0305260D01*
X0214460Y0305652D02*
X0202657Y0305652D01*
X0203015Y0306044D02*
X0214695Y0306044D01*
X0214931Y0306436D02*
X0203373Y0306436D01*
X0203731Y0306828D02*
X0215166Y0306828D01*
X0215381Y0307221D02*
X0204056Y0307221D01*
X0204333Y0307613D02*
X0215577Y0307613D01*
X0215774Y0308005D02*
X0204610Y0308005D01*
X0204887Y0308397D02*
X0215970Y0308397D01*
X0216166Y0308789D02*
X0205165Y0308789D01*
X0205442Y0309182D02*
X0216362Y0309182D01*
X0216558Y0309574D02*
X0205719Y0309574D01*
X0205996Y0309966D02*
X0216724Y0309966D01*
X0216875Y0310358D02*
X0206216Y0310358D01*
X0206428Y0310751D02*
X0217027Y0310751D01*
X0217178Y0311143D02*
X0206640Y0311143D01*
X0206852Y0311535D02*
X0217330Y0311535D01*
X0217481Y0311927D02*
X0207064Y0311927D01*
X0207276Y0312319D02*
X0217633Y0312319D01*
X0217785Y0312712D02*
X0207488Y0312712D01*
X0207680Y0313104D02*
X0217936Y0313104D01*
X0218060Y0313496D02*
X0207849Y0313496D01*
X0208017Y0313888D02*
X0218179Y0313888D01*
X0218298Y0314280D02*
X0208185Y0314280D01*
X0208353Y0314673D02*
X0218417Y0314673D01*
X0218535Y0315065D02*
X0208521Y0315065D01*
X0208689Y0315457D02*
X0218654Y0315457D01*
X0218766Y0315849D02*
X0208832Y0315849D01*
X0208940Y0316241D02*
X0218855Y0316241D01*
X0218944Y0316634D02*
X0209048Y0316634D01*
X0209156Y0317026D02*
X0219033Y0317026D01*
X0219122Y0317418D02*
X0209265Y0317418D01*
X0209373Y0317810D02*
X0219211Y0317810D01*
X0219300Y0318203D02*
X0209481Y0318203D01*
X0209589Y0318595D02*
X0219389Y0318595D01*
X0219453Y0318987D02*
X0209697Y0318987D01*
X0209788Y0319379D02*
X0219506Y0319379D01*
X0219560Y0319771D02*
X0209870Y0319771D01*
X0209951Y0320164D02*
X0219613Y0320164D01*
X0219666Y0320556D02*
X0210033Y0320556D01*
X0210115Y0320948D02*
X0219719Y0320948D01*
X0219773Y0321340D02*
X0210197Y0321340D01*
X0210279Y0321732D02*
X0219826Y0321732D01*
X0219863Y0322125D02*
X0210303Y0322125D01*
X0210324Y0322517D02*
X0219887Y0322517D01*
X0219912Y0322909D02*
X0210345Y0322909D01*
X0210367Y0323301D02*
X0219937Y0323301D01*
X0219961Y0323694D02*
X0210388Y0323694D01*
X0210409Y0324086D02*
X0219986Y0324086D01*
X0220010Y0324478D02*
X0210431Y0324478D01*
X0210452Y0324870D02*
X0220035Y0324870D01*
X0220040Y0325262D02*
X0210473Y0325262D01*
X0210468Y0325655D02*
X0220030Y0325655D01*
X0220019Y0326047D02*
X0210453Y0326047D01*
X0210438Y0326439D02*
X0220008Y0326439D01*
X0219997Y0326831D02*
X0210424Y0326831D01*
X0210409Y0327223D02*
X0219987Y0327223D01*
X0219976Y0327616D02*
X0210394Y0327616D01*
X0210379Y0328008D02*
X0219960Y0328008D01*
X0219925Y0328400D02*
X0210364Y0328400D01*
X0210315Y0328792D02*
X0219890Y0328792D01*
X0219855Y0329184D02*
X0210257Y0329184D01*
X0210198Y0329577D02*
X0219819Y0329577D01*
X0219784Y0329969D02*
X0210140Y0329969D01*
X0210082Y0330361D02*
X0219749Y0330361D01*
X0219714Y0330753D02*
X0210024Y0330753D01*
X0209966Y0331146D02*
X0219665Y0331146D01*
X0219595Y0331538D02*
X0209908Y0331538D01*
X0209827Y0331930D02*
X0219525Y0331930D01*
X0219454Y0332322D02*
X0209735Y0332322D01*
X0209642Y0332714D02*
X0219384Y0332714D01*
X0219313Y0333107D02*
X0209550Y0333107D01*
X0209458Y0333499D02*
X0219243Y0333499D01*
X0219173Y0333891D02*
X0209366Y0333891D01*
X0209273Y0334283D02*
X0219085Y0334283D01*
X0218983Y0334675D02*
X0209135Y0334675D01*
X0208989Y0335068D02*
X0218880Y0335068D01*
X0218778Y0335460D02*
X0208843Y0335460D01*
X0208696Y0335852D02*
X0218676Y0335852D01*
X0218573Y0336244D02*
X0208550Y0336244D01*
X0208403Y0336637D02*
X0218471Y0336637D01*
X0218369Y0337029D02*
X0208257Y0337029D01*
X0208097Y0337421D02*
X0218266Y0337421D01*
X0218150Y0337813D02*
X0207909Y0337813D01*
X0207721Y0338205D02*
X0218004Y0338205D01*
X0217857Y0338598D02*
X0207533Y0338598D01*
X0207344Y0338990D02*
X0217711Y0338990D01*
X0217564Y0339382D02*
X0207156Y0339382D01*
X0206968Y0339774D02*
X0217418Y0339774D01*
X0217271Y0340166D02*
X0206779Y0340166D01*
X0206539Y0340559D02*
X0217125Y0340559D01*
X0216978Y0340951D02*
X0206284Y0340951D01*
X0206030Y0341343D02*
X0216791Y0341343D01*
X0216603Y0341735D02*
X0205775Y0341735D01*
X0205520Y0342127D02*
X0216415Y0342127D01*
X0216227Y0342520D02*
X0205266Y0342520D01*
X0205011Y0342912D02*
X0216039Y0342912D01*
X0215851Y0343304D02*
X0204752Y0343304D01*
X0204425Y0343696D02*
X0215663Y0343696D01*
X0215453Y0344089D02*
X0204099Y0344089D01*
X0203772Y0344481D02*
X0215231Y0344481D01*
X0215010Y0344873D02*
X0203445Y0344873D01*
X0203118Y0345265D02*
X0214788Y0345265D01*
X0214566Y0345657D02*
X0202789Y0345657D01*
X0202406Y0346050D02*
X0214345Y0346050D01*
X0214123Y0346442D02*
X0202022Y0346442D01*
X0201638Y0346834D02*
X0213868Y0346834D01*
X0213600Y0347226D02*
X0201255Y0347226D01*
X0200834Y0347618D02*
X0213333Y0347618D01*
X0213065Y0348011D02*
X0200362Y0348011D01*
X0199890Y0348403D02*
X0212797Y0348403D01*
X0212529Y0348795D02*
X0199418Y0348795D01*
X0198946Y0349187D02*
X0212239Y0349187D01*
X0211915Y0349580D02*
X0198474Y0349580D01*
X0197937Y0349972D02*
X0211591Y0349972D01*
X0211266Y0350364D02*
X0197332Y0350364D01*
X0196726Y0350756D02*
X0210942Y0350756D01*
X0210618Y0351148D02*
X0196121Y0351148D01*
X0195407Y0351541D02*
X0210294Y0351541D01*
X0209970Y0351933D02*
X0194690Y0351933D01*
X0193964Y0352325D02*
X0209598Y0352325D01*
X0209219Y0352717D02*
X0193109Y0352717D01*
X0192255Y0353109D02*
X0208840Y0353109D01*
X0208462Y0353502D02*
X0191317Y0353502D01*
X0190141Y0353894D02*
X0208083Y0353894D01*
X0207701Y0354286D02*
X0188810Y0354286D01*
X0187195Y0354678D02*
X0207247Y0354678D01*
X0206793Y0355070D02*
X0184774Y0355070D01*
X0176422Y0355070D02*
X0154863Y0355070D01*
X0154422Y0354678D02*
X0174284Y0354678D01*
X0172784Y0354286D02*
X0153980Y0354286D01*
X0153539Y0353894D02*
X0171581Y0353894D01*
X0170477Y0353502D02*
X0153101Y0353502D01*
X0152741Y0353109D02*
X0169383Y0353109D01*
X0168544Y0352717D02*
X0152381Y0352717D01*
X0152021Y0352325D02*
X0167705Y0352325D01*
X0166867Y0351933D02*
X0151661Y0351933D01*
X0151301Y0351541D02*
X0166128Y0351541D01*
X0165524Y0351148D02*
X0150941Y0351148D01*
X0150631Y0350756D02*
X0164921Y0350756D01*
X0164318Y0350364D02*
X0150325Y0350364D01*
X0150020Y0349972D02*
X0163714Y0349972D01*
X0163133Y0349580D02*
X0149714Y0349580D01*
X0149409Y0349187D02*
X0162639Y0349187D01*
X0162144Y0348795D02*
X0149103Y0348795D01*
X0148797Y0348403D02*
X0161650Y0348403D01*
X0161155Y0348011D02*
X0148504Y0348011D01*
X0148263Y0347618D02*
X0160725Y0347618D01*
X0160340Y0347226D02*
X0148022Y0347226D01*
X0147781Y0346834D02*
X0159954Y0346834D01*
X0159569Y0346442D02*
X0147540Y0346442D01*
X0147299Y0346050D02*
X0159184Y0346050D01*
X0158798Y0345657D02*
X0147058Y0345657D01*
X0146817Y0345265D02*
X0158469Y0345265D01*
X0158148Y0344873D02*
X0146576Y0344873D01*
X0146371Y0344481D02*
X0157827Y0344481D01*
X0157506Y0344089D02*
X0146173Y0344089D01*
X0145974Y0343696D02*
X0157185Y0343696D01*
X0156864Y0343304D02*
X0145775Y0343304D01*
X0145577Y0342912D02*
X0156561Y0342912D01*
X0156313Y0342520D02*
X0145378Y0342520D01*
X0145179Y0342127D02*
X0156066Y0342127D01*
X0155818Y0341735D02*
X0144994Y0341735D01*
X0144836Y0341343D02*
X0155570Y0341343D01*
X0155322Y0340951D02*
X0144678Y0340951D01*
X0144520Y0340559D02*
X0155092Y0340559D01*
X0154877Y0340166D02*
X0144362Y0340166D01*
X0144204Y0339774D02*
X0154662Y0339774D01*
X0154446Y0339382D02*
X0144046Y0339382D01*
X0143889Y0338990D02*
X0154231Y0338990D01*
X0154016Y0338598D02*
X0143753Y0338598D01*
X0143633Y0338205D02*
X0153818Y0338205D01*
X0153660Y0337813D02*
X0143513Y0337813D01*
X0143392Y0337421D02*
X0153502Y0337421D01*
X0153345Y0337029D02*
X0143272Y0337029D01*
X0143152Y0336637D02*
X0153187Y0336637D01*
X0153029Y0336244D02*
X0143032Y0336244D01*
X0142913Y0335852D02*
X0152871Y0335852D01*
X0152713Y0335460D02*
X0142820Y0335460D01*
X0142727Y0335068D02*
X0152559Y0335068D01*
X0152461Y0334675D02*
X0142633Y0334675D01*
X0142540Y0334283D02*
X0152363Y0334283D01*
X0152265Y0333891D02*
X0142446Y0333891D01*
X0142353Y0333499D02*
X0152167Y0333499D01*
X0152069Y0333107D02*
X0142284Y0333107D01*
X0142223Y0332714D02*
X0151971Y0332714D01*
X0151873Y0332322D02*
X0142162Y0332322D01*
X0142100Y0331930D02*
X0151775Y0331930D01*
X0151677Y0331538D02*
X0142039Y0331538D01*
X0141978Y0331146D02*
X0151597Y0331146D01*
X0151540Y0330753D02*
X0141917Y0330753D01*
X0141857Y0330361D02*
X0151483Y0330361D01*
X0151426Y0329969D02*
X0141828Y0329969D01*
X0141800Y0329577D02*
X0151369Y0329577D01*
X0151313Y0329184D02*
X0141772Y0329184D01*
X0141743Y0328792D02*
X0151256Y0328792D01*
X0151199Y0328400D02*
X0141715Y0328400D01*
X0141687Y0328008D02*
X0151180Y0328008D01*
X0151170Y0327616D02*
X0141658Y0327616D01*
X0141630Y0327223D02*
X0151161Y0327223D01*
X0151151Y0326831D02*
X0141602Y0326831D01*
X0141584Y0326439D02*
X0151141Y0326439D01*
X0151132Y0326047D02*
X0141592Y0326047D01*
X0141600Y0325655D02*
X0151122Y0325655D01*
X0151112Y0325262D02*
X0141608Y0325262D01*
X0141616Y0324870D02*
X0151127Y0324870D01*
X0151153Y0324478D02*
X0141624Y0324478D01*
X0141632Y0324086D02*
X0151179Y0324086D01*
X0151205Y0323694D02*
X0141640Y0323694D01*
X0141648Y0323301D02*
X0151231Y0323301D01*
X0151257Y0322909D02*
X0141657Y0322909D01*
X0141693Y0322517D02*
X0151283Y0322517D01*
X0151315Y0322125D02*
X0141754Y0322125D01*
X0141815Y0321732D02*
X0151378Y0321732D01*
X0151441Y0321340D02*
X0141876Y0321340D01*
X0141936Y0320948D02*
X0151504Y0320948D01*
X0151567Y0320556D02*
X0141997Y0320556D01*
X0142058Y0320164D02*
X0151630Y0320164D01*
X0151692Y0319771D02*
X0142119Y0319771D01*
X0142180Y0319379D02*
X0151755Y0319379D01*
X0151819Y0318987D02*
X0142240Y0318987D01*
X0142301Y0318595D02*
X0151941Y0318595D01*
X0152063Y0318203D02*
X0142362Y0318203D01*
X0142423Y0317810D02*
X0152185Y0317810D01*
X0152307Y0317418D02*
X0142483Y0317418D01*
X0142560Y0317026D02*
X0152429Y0317026D01*
X0152551Y0316634D02*
X0142676Y0316634D01*
X0142792Y0316241D02*
X0152673Y0316241D01*
X0152795Y0315849D02*
X0142909Y0315849D01*
X0143025Y0315457D02*
X0152917Y0315457D01*
X0153083Y0315065D02*
X0143141Y0315065D01*
X0143257Y0314673D02*
X0153251Y0314673D01*
X0155304Y0355463D02*
X0206339Y0355463D01*
X0205886Y0355855D02*
X0155745Y0355855D01*
X0156187Y0356247D02*
X0205432Y0356247D01*
X0204895Y0356639D02*
X0156690Y0356639D01*
X0157216Y0357032D02*
X0204352Y0357032D01*
X0203809Y0357424D02*
X0157742Y0357424D01*
X0158268Y0357816D02*
X0203266Y0357816D01*
X0202723Y0358208D02*
X0158850Y0358208D01*
X0159466Y0358600D02*
X0202180Y0358600D01*
X0201584Y0358993D02*
X0160082Y0358993D01*
X0160699Y0359385D02*
X0200912Y0359385D01*
X0200240Y0359777D02*
X0161367Y0359777D01*
X0162113Y0360169D02*
X0199567Y0360169D01*
X0198860Y0360561D02*
X0162859Y0360561D01*
X0163605Y0360954D02*
X0198005Y0360954D01*
X0197151Y0361346D02*
X0164392Y0361346D01*
X0165281Y0361738D02*
X0196296Y0361738D01*
X0195370Y0362130D02*
X0166170Y0362130D01*
X0167137Y0362523D02*
X0194259Y0362523D01*
X0193148Y0362915D02*
X0168313Y0362915D01*
X0169510Y0363307D02*
X0191929Y0363307D01*
X0190412Y0363699D02*
X0170996Y0363699D01*
X0172593Y0364091D02*
X0188894Y0364091D01*
X0186516Y0364484D02*
X0174789Y0364484D01*
X0179054Y0364876D02*
X0182859Y0364876D01*
X0246046Y0339382D02*
X0256446Y0339382D01*
X0256231Y0338990D02*
X0245889Y0338990D01*
X0245826Y0338833D02*
X0244920Y0335881D01*
X0244330Y0333400D01*
X0243857Y0330369D01*
X0243581Y0326550D01*
X0243660Y0322731D01*
X0244526Y0317141D01*
X0245983Y0312219D01*
X0247873Y0307849D01*
X0250589Y0303322D01*
X0252952Y0300251D01*
X0255432Y0297692D01*
X0258267Y0295133D01*
X0261062Y0293085D01*
X0263936Y0291314D01*
X0268463Y0289188D01*
X0271770Y0288085D01*
X0275117Y0287259D01*
X0278503Y0286747D01*
X0279251Y0286747D01*
X0279251Y0296196D01*
X0276889Y0296589D01*
X0273739Y0297377D01*
X0269802Y0298952D01*
X0267046Y0300526D01*
X0265865Y0301314D01*
X0264290Y0302495D01*
X0262164Y0304306D01*
X0259920Y0306707D01*
X0257479Y0310054D01*
X0256180Y0312495D01*
X0254920Y0315448D01*
X0253818Y0318991D01*
X0253306Y0322180D01*
X0253109Y0325133D01*
X0253188Y0328322D01*
X0253621Y0331314D01*
X0254566Y0335093D01*
X0255865Y0338322D01*
X0257204Y0340763D01*
X0258621Y0343007D01*
X0260747Y0345605D01*
X0262952Y0347849D01*
X0265235Y0349660D01*
X0268385Y0351707D01*
X0271416Y0353125D01*
X0274408Y0354188D01*
X0276967Y0354857D01*
X0279920Y0355290D01*
X0282479Y0355408D01*
X0284881Y0355330D01*
X0288621Y0354818D01*
X0291377Y0354148D01*
X0293621Y0353400D01*
X0296022Y0352298D01*
X0298109Y0351156D01*
X0300235Y0349778D01*
X0303030Y0347456D01*
X0304802Y0345644D01*
X0306770Y0343282D01*
X0308739Y0340251D01*
X0310156Y0337298D01*
X0311259Y0334345D01*
X0311889Y0331668D01*
X0312361Y0328479D01*
X0312479Y0325369D01*
X0312282Y0321747D01*
X0311731Y0319109D01*
X0310786Y0315684D01*
X0309605Y0312928D01*
X0308030Y0310015D01*
X0305944Y0307062D01*
X0303896Y0304818D01*
X0301101Y0302298D01*
X0298345Y0300408D01*
X0295707Y0298952D01*
X0293070Y0297849D01*
X0290156Y0296944D01*
X0287873Y0296471D01*
X0286180Y0296274D01*
X0286180Y0286668D01*
X0288739Y0286944D01*
X0291416Y0287456D01*
X0294802Y0288400D01*
X0297794Y0289463D01*
X0300747Y0290841D01*
X0304015Y0292731D01*
X0306416Y0294424D01*
X0308739Y0296314D01*
X0310747Y0298204D01*
X0312873Y0300566D01*
X0314448Y0302534D01*
X0315747Y0304463D01*
X0317282Y0307022D01*
X0318621Y0309700D01*
X0319959Y0313164D01*
X0320747Y0315763D01*
X0321416Y0318715D01*
X0321849Y0321904D01*
X0322046Y0325054D01*
X0321967Y0327928D01*
X0321692Y0330999D01*
X0321141Y0334070D01*
X0320196Y0337692D01*
X0318975Y0340959D01*
X0317597Y0343833D01*
X0316062Y0346550D01*
X0314369Y0349030D01*
X0311928Y0351983D01*
X0309723Y0354267D01*
X0307400Y0356274D01*
X0303857Y0358833D01*
X0301022Y0360487D01*
X0297676Y0362022D01*
X0294330Y0363204D01*
X0290826Y0364109D01*
X0287912Y0364581D01*
X0284644Y0364896D01*
X0281337Y0364896D01*
X0277558Y0364621D01*
X0274251Y0364030D01*
X0271416Y0363282D01*
X0268818Y0362416D01*
X0266141Y0361235D01*
X0263070Y0359621D01*
X0260471Y0357967D01*
X0258306Y0356353D01*
X0255117Y0353519D01*
X0252912Y0351117D01*
X0250550Y0348085D01*
X0248542Y0344818D01*
X0247046Y0341865D01*
X0245826Y0338833D01*
X0245753Y0338598D02*
X0256016Y0338598D01*
X0255818Y0338205D02*
X0245633Y0338205D01*
X0245513Y0337813D02*
X0255660Y0337813D01*
X0255502Y0337421D02*
X0245392Y0337421D01*
X0245272Y0337029D02*
X0255345Y0337029D01*
X0255187Y0336637D02*
X0245152Y0336637D01*
X0245032Y0336244D02*
X0255029Y0336244D01*
X0254871Y0335852D02*
X0244913Y0335852D01*
X0244820Y0335460D02*
X0254713Y0335460D01*
X0254559Y0335068D02*
X0244727Y0335068D01*
X0244633Y0334675D02*
X0254461Y0334675D01*
X0254363Y0334283D02*
X0244540Y0334283D01*
X0244446Y0333891D02*
X0254265Y0333891D01*
X0254167Y0333499D02*
X0244353Y0333499D01*
X0244284Y0333107D02*
X0254069Y0333107D01*
X0253971Y0332714D02*
X0244223Y0332714D01*
X0244162Y0332322D02*
X0253873Y0332322D01*
X0253775Y0331930D02*
X0244100Y0331930D01*
X0244039Y0331538D02*
X0253677Y0331538D01*
X0253597Y0331146D02*
X0243978Y0331146D01*
X0243917Y0330753D02*
X0253540Y0330753D01*
X0253483Y0330361D02*
X0243857Y0330361D01*
X0243828Y0329969D02*
X0253426Y0329969D01*
X0253369Y0329577D02*
X0243800Y0329577D01*
X0243772Y0329184D02*
X0253313Y0329184D01*
X0253256Y0328792D02*
X0243743Y0328792D01*
X0243715Y0328400D02*
X0253199Y0328400D01*
X0253180Y0328008D02*
X0243687Y0328008D01*
X0243658Y0327616D02*
X0253170Y0327616D01*
X0253161Y0327223D02*
X0243630Y0327223D01*
X0243602Y0326831D02*
X0253151Y0326831D01*
X0253141Y0326439D02*
X0243584Y0326439D01*
X0243592Y0326047D02*
X0253132Y0326047D01*
X0253122Y0325655D02*
X0243600Y0325655D01*
X0243608Y0325262D02*
X0253112Y0325262D01*
X0253127Y0324870D02*
X0243616Y0324870D01*
X0243624Y0324478D02*
X0253153Y0324478D01*
X0253179Y0324086D02*
X0243632Y0324086D01*
X0243640Y0323694D02*
X0253205Y0323694D01*
X0253231Y0323301D02*
X0243648Y0323301D01*
X0243657Y0322909D02*
X0253257Y0322909D01*
X0253283Y0322517D02*
X0243693Y0322517D01*
X0243754Y0322125D02*
X0253315Y0322125D01*
X0253378Y0321732D02*
X0243815Y0321732D01*
X0243876Y0321340D02*
X0253441Y0321340D01*
X0253504Y0320948D02*
X0243936Y0320948D01*
X0243997Y0320556D02*
X0253567Y0320556D01*
X0253630Y0320164D02*
X0244058Y0320164D01*
X0244119Y0319771D02*
X0253692Y0319771D01*
X0253755Y0319379D02*
X0244180Y0319379D01*
X0244240Y0318987D02*
X0253819Y0318987D01*
X0253941Y0318595D02*
X0244301Y0318595D01*
X0244362Y0318203D02*
X0254063Y0318203D01*
X0254185Y0317810D02*
X0244423Y0317810D01*
X0244483Y0317418D02*
X0254307Y0317418D01*
X0254429Y0317026D02*
X0244560Y0317026D01*
X0244676Y0316634D02*
X0254551Y0316634D01*
X0254673Y0316241D02*
X0244792Y0316241D01*
X0244909Y0315849D02*
X0254795Y0315849D01*
X0254917Y0315457D02*
X0245025Y0315457D01*
X0245141Y0315065D02*
X0255083Y0315065D01*
X0255251Y0314673D02*
X0245257Y0314673D01*
X0245373Y0314280D02*
X0255418Y0314280D01*
X0255585Y0313888D02*
X0245489Y0313888D01*
X0245605Y0313496D02*
X0255753Y0313496D01*
X0255920Y0313104D02*
X0245721Y0313104D01*
X0245837Y0312712D02*
X0256087Y0312712D01*
X0256273Y0312319D02*
X0245953Y0312319D01*
X0246109Y0311927D02*
X0256482Y0311927D01*
X0256691Y0311535D02*
X0246279Y0311535D01*
X0246449Y0311143D02*
X0256900Y0311143D01*
X0257108Y0310751D02*
X0246618Y0310751D01*
X0246788Y0310358D02*
X0257317Y0310358D01*
X0257543Y0309966D02*
X0246957Y0309966D01*
X0247127Y0309574D02*
X0257829Y0309574D01*
X0258115Y0309182D02*
X0247297Y0309182D01*
X0247466Y0308789D02*
X0258401Y0308789D01*
X0258688Y0308397D02*
X0247636Y0308397D01*
X0247805Y0308005D02*
X0258974Y0308005D01*
X0259260Y0307613D02*
X0248015Y0307613D01*
X0248250Y0307221D02*
X0259546Y0307221D01*
X0259832Y0306828D02*
X0248485Y0306828D01*
X0248721Y0306436D02*
X0260174Y0306436D01*
X0260540Y0306044D02*
X0248956Y0306044D01*
X0249191Y0305652D02*
X0260907Y0305652D01*
X0261273Y0305260D02*
X0249427Y0305260D01*
X0249662Y0304867D02*
X0261640Y0304867D01*
X0262006Y0304475D02*
X0249897Y0304475D01*
X0250133Y0304083D02*
X0262426Y0304083D01*
X0262886Y0303691D02*
X0250368Y0303691D01*
X0250607Y0303298D02*
X0263347Y0303298D01*
X0263807Y0302906D02*
X0250909Y0302906D01*
X0251211Y0302514D02*
X0264268Y0302514D01*
X0264788Y0302122D02*
X0251512Y0302122D01*
X0251814Y0301730D02*
X0265311Y0301730D01*
X0265833Y0301337D02*
X0252116Y0301337D01*
X0252417Y0300945D02*
X0266418Y0300945D01*
X0267006Y0300553D02*
X0252719Y0300553D01*
X0253039Y0300161D02*
X0267686Y0300161D01*
X0268372Y0299769D02*
X0253419Y0299769D01*
X0253799Y0299376D02*
X0269059Y0299376D01*
X0269745Y0298984D02*
X0254179Y0298984D01*
X0254559Y0298592D02*
X0270701Y0298592D01*
X0271682Y0298200D02*
X0254940Y0298200D01*
X0255320Y0297808D02*
X0272662Y0297808D01*
X0273643Y0297415D02*
X0255738Y0297415D01*
X0256173Y0297023D02*
X0275154Y0297023D01*
X0276723Y0296631D02*
X0256607Y0296631D01*
X0257041Y0296239D02*
X0278993Y0296239D01*
X0279251Y0295846D02*
X0257476Y0295846D01*
X0257910Y0295454D02*
X0279251Y0295454D01*
X0279251Y0295062D02*
X0258363Y0295062D01*
X0258899Y0294670D02*
X0279251Y0294670D01*
X0279251Y0294278D02*
X0259434Y0294278D01*
X0259970Y0293885D02*
X0279251Y0293885D01*
X0279251Y0293493D02*
X0260505Y0293493D01*
X0261041Y0293101D02*
X0279251Y0293101D01*
X0279251Y0292709D02*
X0261673Y0292709D01*
X0262309Y0292317D02*
X0279251Y0292317D01*
X0279251Y0291924D02*
X0262945Y0291924D01*
X0263582Y0291532D02*
X0279251Y0291532D01*
X0279251Y0291140D02*
X0264306Y0291140D01*
X0265141Y0290748D02*
X0279251Y0290748D01*
X0279251Y0290355D02*
X0265977Y0290355D01*
X0266812Y0289963D02*
X0279251Y0289963D01*
X0279251Y0289571D02*
X0267647Y0289571D01*
X0268490Y0289179D02*
X0279251Y0289179D01*
X0279251Y0288787D02*
X0269667Y0288787D01*
X0270844Y0288394D02*
X0279251Y0288394D01*
X0279251Y0288002D02*
X0272107Y0288002D01*
X0273695Y0287610D02*
X0279251Y0287610D01*
X0279251Y0287218D02*
X0275387Y0287218D01*
X0277982Y0286826D02*
X0279251Y0286826D01*
X0286180Y0286826D02*
X0287642Y0286826D01*
X0286180Y0287218D02*
X0290173Y0287218D01*
X0291970Y0287610D02*
X0286180Y0287610D01*
X0286180Y0288002D02*
X0293375Y0288002D01*
X0294781Y0288394D02*
X0286180Y0288394D01*
X0286180Y0288787D02*
X0295889Y0288787D01*
X0296993Y0289179D02*
X0286180Y0289179D01*
X0286180Y0289571D02*
X0298025Y0289571D01*
X0298865Y0289963D02*
X0286180Y0289963D01*
X0286180Y0290355D02*
X0299706Y0290355D01*
X0300546Y0290748D02*
X0286180Y0290748D01*
X0286180Y0291140D02*
X0301263Y0291140D01*
X0301941Y0291532D02*
X0286180Y0291532D01*
X0286180Y0291924D02*
X0302620Y0291924D01*
X0303298Y0292317D02*
X0286180Y0292317D01*
X0286180Y0292709D02*
X0303976Y0292709D01*
X0304539Y0293101D02*
X0286180Y0293101D01*
X0286180Y0293493D02*
X0305096Y0293493D01*
X0305652Y0293885D02*
X0286180Y0293885D01*
X0286180Y0294278D02*
X0306208Y0294278D01*
X0306718Y0294670D02*
X0286180Y0294670D01*
X0286180Y0295062D02*
X0307200Y0295062D01*
X0307682Y0295454D02*
X0286180Y0295454D01*
X0286180Y0295846D02*
X0308165Y0295846D01*
X0308647Y0296239D02*
X0286180Y0296239D01*
X0288644Y0296631D02*
X0309076Y0296631D01*
X0309493Y0297023D02*
X0290412Y0297023D01*
X0291674Y0297415D02*
X0309909Y0297415D01*
X0310326Y0297808D02*
X0292936Y0297808D01*
X0293908Y0298200D02*
X0310743Y0298200D01*
X0311096Y0298592D02*
X0294847Y0298592D01*
X0295766Y0298984D02*
X0311449Y0298984D01*
X0311802Y0299376D02*
X0296477Y0299376D01*
X0297187Y0299769D02*
X0312155Y0299769D01*
X0312508Y0300161D02*
X0297897Y0300161D01*
X0298556Y0300553D02*
X0312861Y0300553D01*
X0313176Y0300945D02*
X0299128Y0300945D01*
X0299700Y0301337D02*
X0313490Y0301337D01*
X0313804Y0301730D02*
X0300272Y0301730D01*
X0300844Y0302122D02*
X0314118Y0302122D01*
X0314431Y0302514D02*
X0301341Y0302514D01*
X0301776Y0302906D02*
X0314698Y0302906D01*
X0314962Y0303298D02*
X0302211Y0303298D01*
X0302646Y0303691D02*
X0315226Y0303691D01*
X0315491Y0304083D02*
X0303081Y0304083D01*
X0303516Y0304475D02*
X0315754Y0304475D01*
X0315989Y0304867D02*
X0303942Y0304867D01*
X0304300Y0305260D02*
X0316225Y0305260D01*
X0316460Y0305652D02*
X0304657Y0305652D01*
X0305015Y0306044D02*
X0316695Y0306044D01*
X0316931Y0306436D02*
X0305373Y0306436D01*
X0305731Y0306828D02*
X0317166Y0306828D01*
X0317381Y0307221D02*
X0306056Y0307221D01*
X0306333Y0307613D02*
X0317577Y0307613D01*
X0317774Y0308005D02*
X0306610Y0308005D01*
X0306887Y0308397D02*
X0317970Y0308397D01*
X0318166Y0308789D02*
X0307165Y0308789D01*
X0307442Y0309182D02*
X0318362Y0309182D01*
X0318558Y0309574D02*
X0307719Y0309574D01*
X0307996Y0309966D02*
X0318724Y0309966D01*
X0318875Y0310358D02*
X0308216Y0310358D01*
X0308428Y0310751D02*
X0319027Y0310751D01*
X0319178Y0311143D02*
X0308640Y0311143D01*
X0308852Y0311535D02*
X0319330Y0311535D01*
X0319481Y0311927D02*
X0309064Y0311927D01*
X0309276Y0312319D02*
X0319633Y0312319D01*
X0319785Y0312712D02*
X0309488Y0312712D01*
X0309680Y0313104D02*
X0319936Y0313104D01*
X0320060Y0313496D02*
X0309849Y0313496D01*
X0310017Y0313888D02*
X0320179Y0313888D01*
X0320298Y0314280D02*
X0310185Y0314280D01*
X0310353Y0314673D02*
X0320417Y0314673D01*
X0320535Y0315065D02*
X0310521Y0315065D01*
X0310689Y0315457D02*
X0320654Y0315457D01*
X0320766Y0315849D02*
X0310832Y0315849D01*
X0310940Y0316241D02*
X0320855Y0316241D01*
X0320944Y0316634D02*
X0311048Y0316634D01*
X0311156Y0317026D02*
X0321033Y0317026D01*
X0321122Y0317418D02*
X0311265Y0317418D01*
X0311373Y0317810D02*
X0321211Y0317810D01*
X0321300Y0318203D02*
X0311481Y0318203D01*
X0311589Y0318595D02*
X0321389Y0318595D01*
X0321453Y0318987D02*
X0311697Y0318987D01*
X0311788Y0319379D02*
X0321506Y0319379D01*
X0321560Y0319771D02*
X0311870Y0319771D01*
X0311951Y0320164D02*
X0321613Y0320164D01*
X0321666Y0320556D02*
X0312033Y0320556D01*
X0312115Y0320948D02*
X0321719Y0320948D01*
X0321773Y0321340D02*
X0312197Y0321340D01*
X0312279Y0321732D02*
X0321826Y0321732D01*
X0321863Y0322125D02*
X0312303Y0322125D01*
X0312324Y0322517D02*
X0321887Y0322517D01*
X0321912Y0322909D02*
X0312345Y0322909D01*
X0312367Y0323301D02*
X0321937Y0323301D01*
X0321961Y0323694D02*
X0312388Y0323694D01*
X0312409Y0324086D02*
X0321986Y0324086D01*
X0322010Y0324478D02*
X0312431Y0324478D01*
X0312452Y0324870D02*
X0322035Y0324870D01*
X0322040Y0325262D02*
X0312473Y0325262D01*
X0312468Y0325655D02*
X0322030Y0325655D01*
X0322019Y0326047D02*
X0312453Y0326047D01*
X0312438Y0326439D02*
X0322008Y0326439D01*
X0321997Y0326831D02*
X0312424Y0326831D01*
X0312409Y0327223D02*
X0321987Y0327223D01*
X0321976Y0327616D02*
X0312394Y0327616D01*
X0312379Y0328008D02*
X0321960Y0328008D01*
X0321925Y0328400D02*
X0312364Y0328400D01*
X0312315Y0328792D02*
X0321890Y0328792D01*
X0321855Y0329184D02*
X0312257Y0329184D01*
X0312198Y0329577D02*
X0321819Y0329577D01*
X0321784Y0329969D02*
X0312140Y0329969D01*
X0312082Y0330361D02*
X0321749Y0330361D01*
X0321714Y0330753D02*
X0312024Y0330753D01*
X0311966Y0331146D02*
X0321665Y0331146D01*
X0321595Y0331538D02*
X0311908Y0331538D01*
X0311827Y0331930D02*
X0321525Y0331930D01*
X0321454Y0332322D02*
X0311735Y0332322D01*
X0311642Y0332714D02*
X0321384Y0332714D01*
X0321313Y0333107D02*
X0311550Y0333107D01*
X0311458Y0333499D02*
X0321243Y0333499D01*
X0321173Y0333891D02*
X0311366Y0333891D01*
X0311273Y0334283D02*
X0321085Y0334283D01*
X0320983Y0334675D02*
X0311135Y0334675D01*
X0310989Y0335068D02*
X0320880Y0335068D01*
X0320778Y0335460D02*
X0310843Y0335460D01*
X0310696Y0335852D02*
X0320676Y0335852D01*
X0320573Y0336244D02*
X0310550Y0336244D01*
X0310403Y0336637D02*
X0320471Y0336637D01*
X0320369Y0337029D02*
X0310257Y0337029D01*
X0310097Y0337421D02*
X0320266Y0337421D01*
X0320150Y0337813D02*
X0309909Y0337813D01*
X0309721Y0338205D02*
X0320004Y0338205D01*
X0319857Y0338598D02*
X0309533Y0338598D01*
X0309344Y0338990D02*
X0319711Y0338990D01*
X0319564Y0339382D02*
X0309156Y0339382D01*
X0308968Y0339774D02*
X0319418Y0339774D01*
X0319271Y0340166D02*
X0308779Y0340166D01*
X0308539Y0340559D02*
X0319125Y0340559D01*
X0318978Y0340951D02*
X0308284Y0340951D01*
X0308030Y0341343D02*
X0318791Y0341343D01*
X0318603Y0341735D02*
X0307775Y0341735D01*
X0307520Y0342127D02*
X0318415Y0342127D01*
X0318227Y0342520D02*
X0307266Y0342520D01*
X0307011Y0342912D02*
X0318039Y0342912D01*
X0317851Y0343304D02*
X0306752Y0343304D01*
X0306425Y0343696D02*
X0317663Y0343696D01*
X0317453Y0344089D02*
X0306099Y0344089D01*
X0305772Y0344481D02*
X0317231Y0344481D01*
X0317010Y0344873D02*
X0305445Y0344873D01*
X0305118Y0345265D02*
X0316788Y0345265D01*
X0316566Y0345657D02*
X0304789Y0345657D01*
X0304406Y0346050D02*
X0316345Y0346050D01*
X0316123Y0346442D02*
X0304022Y0346442D01*
X0303638Y0346834D02*
X0315868Y0346834D01*
X0315600Y0347226D02*
X0303255Y0347226D01*
X0302834Y0347618D02*
X0315333Y0347618D01*
X0315065Y0348011D02*
X0302362Y0348011D01*
X0301890Y0348403D02*
X0314797Y0348403D01*
X0314529Y0348795D02*
X0301418Y0348795D01*
X0300946Y0349187D02*
X0314239Y0349187D01*
X0313915Y0349580D02*
X0300474Y0349580D01*
X0299937Y0349972D02*
X0313591Y0349972D01*
X0313266Y0350364D02*
X0299332Y0350364D01*
X0298726Y0350756D02*
X0312942Y0350756D01*
X0312618Y0351148D02*
X0298121Y0351148D01*
X0297407Y0351541D02*
X0312294Y0351541D01*
X0311970Y0351933D02*
X0296690Y0351933D01*
X0295964Y0352325D02*
X0311598Y0352325D01*
X0311219Y0352717D02*
X0295109Y0352717D01*
X0294255Y0353109D02*
X0310840Y0353109D01*
X0310462Y0353502D02*
X0293317Y0353502D01*
X0292141Y0353894D02*
X0310083Y0353894D01*
X0309701Y0354286D02*
X0290810Y0354286D01*
X0289195Y0354678D02*
X0309247Y0354678D01*
X0308793Y0355070D02*
X0286774Y0355070D01*
X0278422Y0355070D02*
X0256863Y0355070D01*
X0256422Y0354678D02*
X0276284Y0354678D01*
X0274784Y0354286D02*
X0255980Y0354286D01*
X0255539Y0353894D02*
X0273581Y0353894D01*
X0272477Y0353502D02*
X0255101Y0353502D01*
X0254741Y0353109D02*
X0271383Y0353109D01*
X0270544Y0352717D02*
X0254381Y0352717D01*
X0254021Y0352325D02*
X0269705Y0352325D01*
X0268867Y0351933D02*
X0253661Y0351933D01*
X0253301Y0351541D02*
X0268128Y0351541D01*
X0267524Y0351148D02*
X0252941Y0351148D01*
X0252631Y0350756D02*
X0266921Y0350756D01*
X0266318Y0350364D02*
X0252325Y0350364D01*
X0252020Y0349972D02*
X0265714Y0349972D01*
X0265133Y0349580D02*
X0251714Y0349580D01*
X0251409Y0349187D02*
X0264639Y0349187D01*
X0264144Y0348795D02*
X0251103Y0348795D01*
X0250797Y0348403D02*
X0263650Y0348403D01*
X0263155Y0348011D02*
X0250504Y0348011D01*
X0250263Y0347618D02*
X0262725Y0347618D01*
X0262340Y0347226D02*
X0250022Y0347226D01*
X0249781Y0346834D02*
X0261954Y0346834D01*
X0261569Y0346442D02*
X0249540Y0346442D01*
X0249299Y0346050D02*
X0261184Y0346050D01*
X0260798Y0345657D02*
X0249058Y0345657D01*
X0248817Y0345265D02*
X0260469Y0345265D01*
X0260148Y0344873D02*
X0248576Y0344873D01*
X0248371Y0344481D02*
X0259827Y0344481D01*
X0259506Y0344089D02*
X0248173Y0344089D01*
X0247974Y0343696D02*
X0259185Y0343696D01*
X0258864Y0343304D02*
X0247775Y0343304D01*
X0247577Y0342912D02*
X0258561Y0342912D01*
X0258313Y0342520D02*
X0247378Y0342520D01*
X0247179Y0342127D02*
X0258066Y0342127D01*
X0257818Y0341735D02*
X0246994Y0341735D01*
X0246836Y0341343D02*
X0257570Y0341343D01*
X0257322Y0340951D02*
X0246678Y0340951D01*
X0246520Y0340559D02*
X0257092Y0340559D01*
X0256877Y0340166D02*
X0246362Y0340166D01*
X0246204Y0339774D02*
X0256662Y0339774D01*
X0257304Y0355463D02*
X0308339Y0355463D01*
X0307886Y0355855D02*
X0257745Y0355855D01*
X0258187Y0356247D02*
X0307432Y0356247D01*
X0306895Y0356639D02*
X0258690Y0356639D01*
X0259216Y0357032D02*
X0306352Y0357032D01*
X0305809Y0357424D02*
X0259742Y0357424D01*
X0260268Y0357816D02*
X0305266Y0357816D01*
X0304723Y0358208D02*
X0260850Y0358208D01*
X0261466Y0358600D02*
X0304180Y0358600D01*
X0303584Y0358993D02*
X0262082Y0358993D01*
X0262699Y0359385D02*
X0302912Y0359385D01*
X0302240Y0359777D02*
X0263367Y0359777D01*
X0264113Y0360169D02*
X0301567Y0360169D01*
X0300860Y0360561D02*
X0264859Y0360561D01*
X0265605Y0360954D02*
X0300005Y0360954D01*
X0299151Y0361346D02*
X0266392Y0361346D01*
X0267281Y0361738D02*
X0298296Y0361738D01*
X0297370Y0362130D02*
X0268170Y0362130D01*
X0269137Y0362523D02*
X0296259Y0362523D01*
X0295148Y0362915D02*
X0270313Y0362915D01*
X0271510Y0363307D02*
X0293929Y0363307D01*
X0292412Y0363699D02*
X0272996Y0363699D01*
X0274593Y0364091D02*
X0290894Y0364091D01*
X0288516Y0364484D02*
X0276789Y0364484D01*
X0281054Y0364876D02*
X0284859Y0364876D01*
X0348046Y0339382D02*
X0358446Y0339382D01*
X0358231Y0338990D02*
X0347889Y0338990D01*
X0347826Y0338833D02*
X0346920Y0335881D01*
X0346330Y0333400D01*
X0345857Y0330369D01*
X0345581Y0326550D01*
X0345660Y0322731D01*
X0346526Y0317141D01*
X0347983Y0312219D01*
X0349873Y0307849D01*
X0352589Y0303322D01*
X0354952Y0300251D01*
X0357432Y0297692D01*
X0360267Y0295133D01*
X0363062Y0293085D01*
X0365936Y0291314D01*
X0370463Y0289188D01*
X0373770Y0288085D01*
X0377117Y0287259D01*
X0380503Y0286747D01*
X0381251Y0286747D01*
X0381251Y0296196D01*
X0378889Y0296589D01*
X0375739Y0297377D01*
X0371802Y0298952D01*
X0369046Y0300526D01*
X0367865Y0301314D01*
X0366290Y0302495D01*
X0364164Y0304306D01*
X0361920Y0306707D01*
X0359479Y0310054D01*
X0358180Y0312495D01*
X0356920Y0315448D01*
X0355818Y0318991D01*
X0355306Y0322180D01*
X0355109Y0325133D01*
X0355188Y0328322D01*
X0355621Y0331314D01*
X0356566Y0335093D01*
X0357865Y0338322D01*
X0359204Y0340763D01*
X0360621Y0343007D01*
X0362747Y0345605D01*
X0364952Y0347849D01*
X0367235Y0349660D01*
X0370385Y0351707D01*
X0373416Y0353125D01*
X0376408Y0354188D01*
X0378967Y0354857D01*
X0381920Y0355290D01*
X0384479Y0355408D01*
X0386881Y0355330D01*
X0390621Y0354818D01*
X0393377Y0354148D01*
X0395621Y0353400D01*
X0398022Y0352298D01*
X0400109Y0351156D01*
X0402235Y0349778D01*
X0405030Y0347456D01*
X0406802Y0345644D01*
X0408770Y0343282D01*
X0410739Y0340251D01*
X0412156Y0337298D01*
X0413259Y0334345D01*
X0413889Y0331668D01*
X0414361Y0328479D01*
X0414479Y0325369D01*
X0414282Y0321747D01*
X0413731Y0319109D01*
X0412786Y0315684D01*
X0411605Y0312928D01*
X0410030Y0310015D01*
X0407944Y0307062D01*
X0405896Y0304818D01*
X0403101Y0302298D01*
X0400345Y0300408D01*
X0397707Y0298952D01*
X0395070Y0297849D01*
X0392156Y0296944D01*
X0389873Y0296471D01*
X0388180Y0296274D01*
X0388180Y0286668D01*
X0390739Y0286944D01*
X0393416Y0287456D01*
X0396802Y0288400D01*
X0399794Y0289463D01*
X0402747Y0290841D01*
X0406015Y0292731D01*
X0408416Y0294424D01*
X0410739Y0296314D01*
X0412747Y0298204D01*
X0414873Y0300566D01*
X0416448Y0302534D01*
X0417747Y0304463D01*
X0419282Y0307022D01*
X0420621Y0309700D01*
X0421959Y0313164D01*
X0422747Y0315763D01*
X0423416Y0318715D01*
X0423849Y0321904D01*
X0424046Y0325054D01*
X0423967Y0327928D01*
X0423692Y0330999D01*
X0423141Y0334070D01*
X0422196Y0337692D01*
X0420975Y0340959D01*
X0419597Y0343833D01*
X0418062Y0346550D01*
X0416369Y0349030D01*
X0413928Y0351983D01*
X0411723Y0354267D01*
X0409400Y0356274D01*
X0405857Y0358833D01*
X0403022Y0360487D01*
X0399676Y0362022D01*
X0396330Y0363204D01*
X0392826Y0364109D01*
X0389912Y0364581D01*
X0386644Y0364896D01*
X0383337Y0364896D01*
X0379558Y0364621D01*
X0376251Y0364030D01*
X0373416Y0363282D01*
X0370818Y0362416D01*
X0368141Y0361235D01*
X0365070Y0359621D01*
X0362471Y0357967D01*
X0360306Y0356353D01*
X0357117Y0353519D01*
X0354912Y0351117D01*
X0352550Y0348085D01*
X0350542Y0344818D01*
X0349046Y0341865D01*
X0347826Y0338833D01*
X0347753Y0338598D02*
X0358016Y0338598D01*
X0357818Y0338205D02*
X0347633Y0338205D01*
X0347513Y0337813D02*
X0357660Y0337813D01*
X0357502Y0337421D02*
X0347392Y0337421D01*
X0347272Y0337029D02*
X0357345Y0337029D01*
X0357187Y0336637D02*
X0347152Y0336637D01*
X0347032Y0336244D02*
X0357029Y0336244D01*
X0356871Y0335852D02*
X0346913Y0335852D01*
X0346820Y0335460D02*
X0356713Y0335460D01*
X0356559Y0335068D02*
X0346727Y0335068D01*
X0346633Y0334675D02*
X0356461Y0334675D01*
X0356363Y0334283D02*
X0346540Y0334283D01*
X0346446Y0333891D02*
X0356265Y0333891D01*
X0356167Y0333499D02*
X0346353Y0333499D01*
X0346284Y0333107D02*
X0356069Y0333107D01*
X0355971Y0332714D02*
X0346223Y0332714D01*
X0346162Y0332322D02*
X0355873Y0332322D01*
X0355775Y0331930D02*
X0346100Y0331930D01*
X0346039Y0331538D02*
X0355677Y0331538D01*
X0355597Y0331146D02*
X0345978Y0331146D01*
X0345917Y0330753D02*
X0355540Y0330753D01*
X0355483Y0330361D02*
X0345857Y0330361D01*
X0345828Y0329969D02*
X0355426Y0329969D01*
X0355369Y0329577D02*
X0345800Y0329577D01*
X0345772Y0329184D02*
X0355313Y0329184D01*
X0355256Y0328792D02*
X0345743Y0328792D01*
X0345715Y0328400D02*
X0355199Y0328400D01*
X0355180Y0328008D02*
X0345687Y0328008D01*
X0345658Y0327616D02*
X0355170Y0327616D01*
X0355161Y0327223D02*
X0345630Y0327223D01*
X0345602Y0326831D02*
X0355151Y0326831D01*
X0355141Y0326439D02*
X0345584Y0326439D01*
X0345592Y0326047D02*
X0355132Y0326047D01*
X0355122Y0325655D02*
X0345600Y0325655D01*
X0345608Y0325262D02*
X0355112Y0325262D01*
X0355127Y0324870D02*
X0345616Y0324870D01*
X0345624Y0324478D02*
X0355153Y0324478D01*
X0355179Y0324086D02*
X0345632Y0324086D01*
X0345640Y0323694D02*
X0355205Y0323694D01*
X0355231Y0323301D02*
X0345648Y0323301D01*
X0345657Y0322909D02*
X0355257Y0322909D01*
X0355283Y0322517D02*
X0345693Y0322517D01*
X0345754Y0322125D02*
X0355315Y0322125D01*
X0355378Y0321732D02*
X0345815Y0321732D01*
X0345876Y0321340D02*
X0355441Y0321340D01*
X0355504Y0320948D02*
X0345936Y0320948D01*
X0345997Y0320556D02*
X0355567Y0320556D01*
X0355630Y0320164D02*
X0346058Y0320164D01*
X0346119Y0319771D02*
X0355692Y0319771D01*
X0355755Y0319379D02*
X0346180Y0319379D01*
X0346240Y0318987D02*
X0355819Y0318987D01*
X0355941Y0318595D02*
X0346301Y0318595D01*
X0346362Y0318203D02*
X0356063Y0318203D01*
X0356185Y0317810D02*
X0346423Y0317810D01*
X0346483Y0317418D02*
X0356307Y0317418D01*
X0356429Y0317026D02*
X0346560Y0317026D01*
X0346676Y0316634D02*
X0356551Y0316634D01*
X0356673Y0316241D02*
X0346792Y0316241D01*
X0346909Y0315849D02*
X0356795Y0315849D01*
X0356917Y0315457D02*
X0347025Y0315457D01*
X0347141Y0315065D02*
X0357083Y0315065D01*
X0357251Y0314673D02*
X0347257Y0314673D01*
X0347373Y0314280D02*
X0357418Y0314280D01*
X0357585Y0313888D02*
X0347489Y0313888D01*
X0347605Y0313496D02*
X0357753Y0313496D01*
X0357920Y0313104D02*
X0347721Y0313104D01*
X0347837Y0312712D02*
X0358087Y0312712D01*
X0358273Y0312319D02*
X0347953Y0312319D01*
X0348109Y0311927D02*
X0358482Y0311927D01*
X0358691Y0311535D02*
X0348279Y0311535D01*
X0348449Y0311143D02*
X0358900Y0311143D01*
X0359108Y0310751D02*
X0348618Y0310751D01*
X0348788Y0310358D02*
X0359317Y0310358D01*
X0359543Y0309966D02*
X0348957Y0309966D01*
X0349127Y0309574D02*
X0359829Y0309574D01*
X0360115Y0309182D02*
X0349297Y0309182D01*
X0349466Y0308789D02*
X0360401Y0308789D01*
X0360688Y0308397D02*
X0349636Y0308397D01*
X0349805Y0308005D02*
X0360974Y0308005D01*
X0361260Y0307613D02*
X0350015Y0307613D01*
X0350250Y0307221D02*
X0361546Y0307221D01*
X0361832Y0306828D02*
X0350485Y0306828D01*
X0350721Y0306436D02*
X0362174Y0306436D01*
X0362540Y0306044D02*
X0350956Y0306044D01*
X0351191Y0305652D02*
X0362907Y0305652D01*
X0363273Y0305260D02*
X0351427Y0305260D01*
X0351662Y0304867D02*
X0363640Y0304867D01*
X0364006Y0304475D02*
X0351897Y0304475D01*
X0352133Y0304083D02*
X0364426Y0304083D01*
X0364886Y0303691D02*
X0352368Y0303691D01*
X0352607Y0303298D02*
X0365347Y0303298D01*
X0365807Y0302906D02*
X0352909Y0302906D01*
X0353211Y0302514D02*
X0366268Y0302514D01*
X0366788Y0302122D02*
X0353512Y0302122D01*
X0353814Y0301730D02*
X0367311Y0301730D01*
X0367833Y0301337D02*
X0354116Y0301337D01*
X0354417Y0300945D02*
X0368418Y0300945D01*
X0369006Y0300553D02*
X0354719Y0300553D01*
X0355039Y0300161D02*
X0369686Y0300161D01*
X0370372Y0299769D02*
X0355419Y0299769D01*
X0355799Y0299376D02*
X0371059Y0299376D01*
X0371745Y0298984D02*
X0356179Y0298984D01*
X0356559Y0298592D02*
X0372701Y0298592D01*
X0373682Y0298200D02*
X0356940Y0298200D01*
X0357320Y0297808D02*
X0374662Y0297808D01*
X0375643Y0297415D02*
X0357738Y0297415D01*
X0358173Y0297023D02*
X0377154Y0297023D01*
X0378723Y0296631D02*
X0358607Y0296631D01*
X0359041Y0296239D02*
X0380993Y0296239D01*
X0381251Y0295846D02*
X0359476Y0295846D01*
X0359910Y0295454D02*
X0381251Y0295454D01*
X0381251Y0295062D02*
X0360363Y0295062D01*
X0360899Y0294670D02*
X0381251Y0294670D01*
X0381251Y0294278D02*
X0361434Y0294278D01*
X0361970Y0293885D02*
X0381251Y0293885D01*
X0381251Y0293493D02*
X0362505Y0293493D01*
X0363041Y0293101D02*
X0381251Y0293101D01*
X0381251Y0292709D02*
X0363673Y0292709D01*
X0364309Y0292317D02*
X0381251Y0292317D01*
X0381251Y0291924D02*
X0364945Y0291924D01*
X0365582Y0291532D02*
X0381251Y0291532D01*
X0381251Y0291140D02*
X0366306Y0291140D01*
X0367141Y0290748D02*
X0381251Y0290748D01*
X0381251Y0290355D02*
X0367977Y0290355D01*
X0368812Y0289963D02*
X0381251Y0289963D01*
X0381251Y0289571D02*
X0369647Y0289571D01*
X0370490Y0289179D02*
X0381251Y0289179D01*
X0381251Y0288787D02*
X0371667Y0288787D01*
X0372844Y0288394D02*
X0381251Y0288394D01*
X0381251Y0288002D02*
X0374107Y0288002D01*
X0375695Y0287610D02*
X0381251Y0287610D01*
X0381251Y0287218D02*
X0377387Y0287218D01*
X0379982Y0286826D02*
X0381251Y0286826D01*
X0388180Y0286826D02*
X0389642Y0286826D01*
X0388180Y0287218D02*
X0392173Y0287218D01*
X0393970Y0287610D02*
X0388180Y0287610D01*
X0388180Y0288002D02*
X0395375Y0288002D01*
X0396781Y0288394D02*
X0388180Y0288394D01*
X0388180Y0288787D02*
X0397889Y0288787D01*
X0398993Y0289179D02*
X0388180Y0289179D01*
X0388180Y0289571D02*
X0400025Y0289571D01*
X0400865Y0289963D02*
X0388180Y0289963D01*
X0388180Y0290355D02*
X0401706Y0290355D01*
X0402546Y0290748D02*
X0388180Y0290748D01*
X0388180Y0291140D02*
X0403263Y0291140D01*
X0403941Y0291532D02*
X0388180Y0291532D01*
X0388180Y0291924D02*
X0404620Y0291924D01*
X0405298Y0292317D02*
X0388180Y0292317D01*
X0388180Y0292709D02*
X0405976Y0292709D01*
X0406539Y0293101D02*
X0388180Y0293101D01*
X0388180Y0293493D02*
X0407096Y0293493D01*
X0407652Y0293885D02*
X0388180Y0293885D01*
X0388180Y0294278D02*
X0408208Y0294278D01*
X0408718Y0294670D02*
X0388180Y0294670D01*
X0388180Y0295062D02*
X0409200Y0295062D01*
X0409682Y0295454D02*
X0388180Y0295454D01*
X0388180Y0295846D02*
X0410165Y0295846D01*
X0410647Y0296239D02*
X0388180Y0296239D01*
X0390644Y0296631D02*
X0411076Y0296631D01*
X0411493Y0297023D02*
X0392412Y0297023D01*
X0393674Y0297415D02*
X0411909Y0297415D01*
X0412326Y0297808D02*
X0394936Y0297808D01*
X0395908Y0298200D02*
X0412743Y0298200D01*
X0413096Y0298592D02*
X0396847Y0298592D01*
X0397766Y0298984D02*
X0413449Y0298984D01*
X0413802Y0299376D02*
X0398477Y0299376D01*
X0399187Y0299769D02*
X0414155Y0299769D01*
X0414508Y0300161D02*
X0399897Y0300161D01*
X0400556Y0300553D02*
X0414861Y0300553D01*
X0415176Y0300945D02*
X0401128Y0300945D01*
X0401700Y0301337D02*
X0415490Y0301337D01*
X0415804Y0301730D02*
X0402272Y0301730D01*
X0402844Y0302122D02*
X0416118Y0302122D01*
X0416431Y0302514D02*
X0403341Y0302514D01*
X0403776Y0302906D02*
X0416698Y0302906D01*
X0416962Y0303298D02*
X0404211Y0303298D01*
X0404646Y0303691D02*
X0417226Y0303691D01*
X0417491Y0304083D02*
X0405081Y0304083D01*
X0405516Y0304475D02*
X0417754Y0304475D01*
X0417989Y0304867D02*
X0405942Y0304867D01*
X0406300Y0305260D02*
X0418225Y0305260D01*
X0418460Y0305652D02*
X0406657Y0305652D01*
X0407015Y0306044D02*
X0418695Y0306044D01*
X0418931Y0306436D02*
X0407373Y0306436D01*
X0407731Y0306828D02*
X0419166Y0306828D01*
X0419381Y0307221D02*
X0408056Y0307221D01*
X0408333Y0307613D02*
X0419577Y0307613D01*
X0419774Y0308005D02*
X0408610Y0308005D01*
X0408887Y0308397D02*
X0419970Y0308397D01*
X0420166Y0308789D02*
X0409165Y0308789D01*
X0409442Y0309182D02*
X0420362Y0309182D01*
X0420558Y0309574D02*
X0409719Y0309574D01*
X0409996Y0309966D02*
X0420724Y0309966D01*
X0420875Y0310358D02*
X0410216Y0310358D01*
X0410428Y0310751D02*
X0421027Y0310751D01*
X0421178Y0311143D02*
X0410640Y0311143D01*
X0410852Y0311535D02*
X0421330Y0311535D01*
X0421481Y0311927D02*
X0411064Y0311927D01*
X0411276Y0312319D02*
X0421633Y0312319D01*
X0421785Y0312712D02*
X0411488Y0312712D01*
X0411680Y0313104D02*
X0421936Y0313104D01*
X0422060Y0313496D02*
X0411849Y0313496D01*
X0412017Y0313888D02*
X0422179Y0313888D01*
X0422298Y0314280D02*
X0412185Y0314280D01*
X0412353Y0314673D02*
X0422417Y0314673D01*
X0422535Y0315065D02*
X0412521Y0315065D01*
X0412689Y0315457D02*
X0422654Y0315457D01*
X0422766Y0315849D02*
X0412832Y0315849D01*
X0412940Y0316241D02*
X0422855Y0316241D01*
X0422944Y0316634D02*
X0413048Y0316634D01*
X0413156Y0317026D02*
X0423033Y0317026D01*
X0423122Y0317418D02*
X0413265Y0317418D01*
X0413373Y0317810D02*
X0423211Y0317810D01*
X0423300Y0318203D02*
X0413481Y0318203D01*
X0413589Y0318595D02*
X0423389Y0318595D01*
X0423453Y0318987D02*
X0413697Y0318987D01*
X0413788Y0319379D02*
X0423506Y0319379D01*
X0423560Y0319771D02*
X0413870Y0319771D01*
X0413951Y0320164D02*
X0423613Y0320164D01*
X0423666Y0320556D02*
X0414033Y0320556D01*
X0414115Y0320948D02*
X0423719Y0320948D01*
X0423773Y0321340D02*
X0414197Y0321340D01*
X0414279Y0321732D02*
X0423826Y0321732D01*
X0423863Y0322125D02*
X0414303Y0322125D01*
X0414324Y0322517D02*
X0423887Y0322517D01*
X0423912Y0322909D02*
X0414345Y0322909D01*
X0414367Y0323301D02*
X0423937Y0323301D01*
X0423961Y0323694D02*
X0414388Y0323694D01*
X0414409Y0324086D02*
X0423986Y0324086D01*
X0424010Y0324478D02*
X0414431Y0324478D01*
X0414452Y0324870D02*
X0424035Y0324870D01*
X0424040Y0325262D02*
X0414473Y0325262D01*
X0414468Y0325655D02*
X0424030Y0325655D01*
X0424019Y0326047D02*
X0414453Y0326047D01*
X0414438Y0326439D02*
X0424008Y0326439D01*
X0423997Y0326831D02*
X0414424Y0326831D01*
X0414409Y0327223D02*
X0423987Y0327223D01*
X0423976Y0327616D02*
X0414394Y0327616D01*
X0414379Y0328008D02*
X0423960Y0328008D01*
X0423925Y0328400D02*
X0414364Y0328400D01*
X0414315Y0328792D02*
X0423890Y0328792D01*
X0423855Y0329184D02*
X0414257Y0329184D01*
X0414198Y0329577D02*
X0423819Y0329577D01*
X0423784Y0329969D02*
X0414140Y0329969D01*
X0414082Y0330361D02*
X0423749Y0330361D01*
X0423714Y0330753D02*
X0414024Y0330753D01*
X0413966Y0331146D02*
X0423665Y0331146D01*
X0423595Y0331538D02*
X0413908Y0331538D01*
X0413827Y0331930D02*
X0423525Y0331930D01*
X0423454Y0332322D02*
X0413735Y0332322D01*
X0413642Y0332714D02*
X0423384Y0332714D01*
X0423313Y0333107D02*
X0413550Y0333107D01*
X0413458Y0333499D02*
X0423243Y0333499D01*
X0423173Y0333891D02*
X0413366Y0333891D01*
X0413273Y0334283D02*
X0423085Y0334283D01*
X0422983Y0334675D02*
X0413135Y0334675D01*
X0412989Y0335068D02*
X0422880Y0335068D01*
X0422778Y0335460D02*
X0412843Y0335460D01*
X0412696Y0335852D02*
X0422676Y0335852D01*
X0422573Y0336244D02*
X0412550Y0336244D01*
X0412403Y0336637D02*
X0422471Y0336637D01*
X0422369Y0337029D02*
X0412257Y0337029D01*
X0412097Y0337421D02*
X0422266Y0337421D01*
X0422150Y0337813D02*
X0411909Y0337813D01*
X0411721Y0338205D02*
X0422004Y0338205D01*
X0421857Y0338598D02*
X0411533Y0338598D01*
X0411344Y0338990D02*
X0421711Y0338990D01*
X0421564Y0339382D02*
X0411156Y0339382D01*
X0410968Y0339774D02*
X0421418Y0339774D01*
X0421271Y0340166D02*
X0410779Y0340166D01*
X0410539Y0340559D02*
X0421125Y0340559D01*
X0420978Y0340951D02*
X0410284Y0340951D01*
X0410030Y0341343D02*
X0420791Y0341343D01*
X0420603Y0341735D02*
X0409775Y0341735D01*
X0409520Y0342127D02*
X0420415Y0342127D01*
X0420227Y0342520D02*
X0409266Y0342520D01*
X0409011Y0342912D02*
X0420039Y0342912D01*
X0419851Y0343304D02*
X0408752Y0343304D01*
X0408425Y0343696D02*
X0419663Y0343696D01*
X0419453Y0344089D02*
X0408099Y0344089D01*
X0407772Y0344481D02*
X0419231Y0344481D01*
X0419010Y0344873D02*
X0407445Y0344873D01*
X0407118Y0345265D02*
X0418788Y0345265D01*
X0418566Y0345657D02*
X0406789Y0345657D01*
X0406406Y0346050D02*
X0418345Y0346050D01*
X0418123Y0346442D02*
X0406022Y0346442D01*
X0405638Y0346834D02*
X0417868Y0346834D01*
X0417600Y0347226D02*
X0405255Y0347226D01*
X0404834Y0347618D02*
X0417333Y0347618D01*
X0417065Y0348011D02*
X0404362Y0348011D01*
X0403890Y0348403D02*
X0416797Y0348403D01*
X0416529Y0348795D02*
X0403418Y0348795D01*
X0402946Y0349187D02*
X0416239Y0349187D01*
X0415915Y0349580D02*
X0402474Y0349580D01*
X0401937Y0349972D02*
X0415591Y0349972D01*
X0415266Y0350364D02*
X0401332Y0350364D01*
X0400726Y0350756D02*
X0414942Y0350756D01*
X0414618Y0351148D02*
X0400121Y0351148D01*
X0399407Y0351541D02*
X0414294Y0351541D01*
X0413970Y0351933D02*
X0398690Y0351933D01*
X0397964Y0352325D02*
X0413598Y0352325D01*
X0413219Y0352717D02*
X0397109Y0352717D01*
X0396255Y0353109D02*
X0412840Y0353109D01*
X0412462Y0353502D02*
X0395317Y0353502D01*
X0394141Y0353894D02*
X0412083Y0353894D01*
X0411701Y0354286D02*
X0392810Y0354286D01*
X0391195Y0354678D02*
X0411247Y0354678D01*
X0410793Y0355070D02*
X0388774Y0355070D01*
X0380422Y0355070D02*
X0358863Y0355070D01*
X0358422Y0354678D02*
X0378284Y0354678D01*
X0376784Y0354286D02*
X0357980Y0354286D01*
X0357539Y0353894D02*
X0375581Y0353894D01*
X0374477Y0353502D02*
X0357101Y0353502D01*
X0356741Y0353109D02*
X0373383Y0353109D01*
X0372544Y0352717D02*
X0356381Y0352717D01*
X0356021Y0352325D02*
X0371705Y0352325D01*
X0370867Y0351933D02*
X0355661Y0351933D01*
X0355301Y0351541D02*
X0370128Y0351541D01*
X0369524Y0351148D02*
X0354941Y0351148D01*
X0354631Y0350756D02*
X0368921Y0350756D01*
X0368318Y0350364D02*
X0354325Y0350364D01*
X0354020Y0349972D02*
X0367714Y0349972D01*
X0367133Y0349580D02*
X0353714Y0349580D01*
X0353409Y0349187D02*
X0366639Y0349187D01*
X0366144Y0348795D02*
X0353103Y0348795D01*
X0352797Y0348403D02*
X0365650Y0348403D01*
X0365155Y0348011D02*
X0352504Y0348011D01*
X0352263Y0347618D02*
X0364725Y0347618D01*
X0364340Y0347226D02*
X0352022Y0347226D01*
X0351781Y0346834D02*
X0363954Y0346834D01*
X0363569Y0346442D02*
X0351540Y0346442D01*
X0351299Y0346050D02*
X0363184Y0346050D01*
X0362798Y0345657D02*
X0351058Y0345657D01*
X0350817Y0345265D02*
X0362469Y0345265D01*
X0362148Y0344873D02*
X0350576Y0344873D01*
X0350371Y0344481D02*
X0361827Y0344481D01*
X0361506Y0344089D02*
X0350173Y0344089D01*
X0349974Y0343696D02*
X0361185Y0343696D01*
X0360864Y0343304D02*
X0349775Y0343304D01*
X0349577Y0342912D02*
X0360561Y0342912D01*
X0360313Y0342520D02*
X0349378Y0342520D01*
X0349179Y0342127D02*
X0360066Y0342127D01*
X0359818Y0341735D02*
X0348994Y0341735D01*
X0348836Y0341343D02*
X0359570Y0341343D01*
X0359322Y0340951D02*
X0348678Y0340951D01*
X0348520Y0340559D02*
X0359092Y0340559D01*
X0358877Y0340166D02*
X0348362Y0340166D01*
X0348204Y0339774D02*
X0358662Y0339774D01*
X0359304Y0355463D02*
X0410339Y0355463D01*
X0409886Y0355855D02*
X0359745Y0355855D01*
X0360187Y0356247D02*
X0409432Y0356247D01*
X0408895Y0356639D02*
X0360690Y0356639D01*
X0361216Y0357032D02*
X0408352Y0357032D01*
X0407809Y0357424D02*
X0361742Y0357424D01*
X0362268Y0357816D02*
X0407266Y0357816D01*
X0406723Y0358208D02*
X0362850Y0358208D01*
X0363466Y0358600D02*
X0406180Y0358600D01*
X0405584Y0358993D02*
X0364082Y0358993D01*
X0364699Y0359385D02*
X0404912Y0359385D01*
X0404240Y0359777D02*
X0365367Y0359777D01*
X0366113Y0360169D02*
X0403567Y0360169D01*
X0402860Y0360561D02*
X0366859Y0360561D01*
X0367605Y0360954D02*
X0402005Y0360954D01*
X0401151Y0361346D02*
X0368392Y0361346D01*
X0369281Y0361738D02*
X0400296Y0361738D01*
X0399370Y0362130D02*
X0370170Y0362130D01*
X0371137Y0362523D02*
X0398259Y0362523D01*
X0397148Y0362915D02*
X0372313Y0362915D01*
X0373510Y0363307D02*
X0395929Y0363307D01*
X0394412Y0363699D02*
X0374996Y0363699D01*
X0376593Y0364091D02*
X0392894Y0364091D01*
X0390516Y0364484D02*
X0378789Y0364484D01*
X0383054Y0364876D02*
X0386859Y0364876D01*
X0386644Y0192896D02*
X0383337Y0192896D01*
X0379558Y0192621D01*
X0376251Y0192030D01*
X0373416Y0191282D01*
X0370818Y0190416D01*
X0368141Y0189235D01*
X0365070Y0187621D01*
X0362471Y0185967D01*
X0360306Y0184353D01*
X0357117Y0181519D01*
X0354912Y0179117D01*
X0352550Y0176085D01*
X0350542Y0172818D01*
X0349046Y0169865D01*
X0347826Y0166833D01*
X0346920Y0163881D01*
X0346330Y0161400D01*
X0345857Y0158369D01*
X0345581Y0154550D01*
X0345660Y0150731D01*
X0346526Y0145141D01*
X0347983Y0140219D01*
X0349873Y0135849D01*
X0352589Y0131322D01*
X0354952Y0128251D01*
X0357432Y0125692D01*
X0360267Y0123133D01*
X0363062Y0121085D01*
X0365936Y0119314D01*
X0370463Y0117188D01*
X0373770Y0116085D01*
X0377117Y0115259D01*
X0380503Y0114747D01*
X0381251Y0114747D01*
X0381251Y0124196D01*
X0378889Y0124589D01*
X0375739Y0125377D01*
X0371802Y0126952D01*
X0369046Y0128526D01*
X0367865Y0129314D01*
X0366290Y0130495D01*
X0364164Y0132306D01*
X0361920Y0134707D01*
X0359479Y0138054D01*
X0358180Y0140495D01*
X0356920Y0143448D01*
X0355818Y0146991D01*
X0355306Y0150180D01*
X0355109Y0153133D01*
X0355188Y0156322D01*
X0355621Y0159314D01*
X0356566Y0163093D01*
X0357865Y0166322D01*
X0359204Y0168763D01*
X0360621Y0171007D01*
X0362747Y0173605D01*
X0364952Y0175849D01*
X0367235Y0177660D01*
X0370385Y0179707D01*
X0373416Y0181125D01*
X0376408Y0182188D01*
X0378967Y0182857D01*
X0381920Y0183290D01*
X0384479Y0183408D01*
X0386881Y0183330D01*
X0390621Y0182818D01*
X0393377Y0182148D01*
X0395621Y0181400D01*
X0398022Y0180298D01*
X0400109Y0179156D01*
X0402235Y0177778D01*
X0405030Y0175456D01*
X0406802Y0173644D01*
X0408770Y0171282D01*
X0410739Y0168251D01*
X0412156Y0165298D01*
X0413259Y0162345D01*
X0413889Y0159668D01*
X0414361Y0156479D01*
X0414479Y0153369D01*
X0414282Y0149747D01*
X0413731Y0147109D01*
X0412786Y0143684D01*
X0411605Y0140928D01*
X0410030Y0138015D01*
X0407944Y0135062D01*
X0405896Y0132818D01*
X0403101Y0130298D01*
X0400345Y0128408D01*
X0397707Y0126952D01*
X0395070Y0125849D01*
X0392156Y0124944D01*
X0389873Y0124471D01*
X0388180Y0124274D01*
X0388180Y0114668D01*
X0390739Y0114944D01*
X0393416Y0115456D01*
X0396802Y0116400D01*
X0399794Y0117463D01*
X0402747Y0118841D01*
X0406015Y0120731D01*
X0408416Y0122424D01*
X0410739Y0124314D01*
X0412747Y0126204D01*
X0414873Y0128566D01*
X0416448Y0130534D01*
X0417747Y0132463D01*
X0419282Y0135022D01*
X0420621Y0137700D01*
X0421959Y0141164D01*
X0422747Y0143763D01*
X0423416Y0146715D01*
X0423849Y0149904D01*
X0424046Y0153054D01*
X0423967Y0155928D01*
X0423692Y0158999D01*
X0423141Y0162070D01*
X0422196Y0165692D01*
X0420975Y0168959D01*
X0419597Y0171833D01*
X0418062Y0174550D01*
X0416369Y0177030D01*
X0413928Y0179983D01*
X0411723Y0182267D01*
X0409400Y0184274D01*
X0405857Y0186833D01*
X0403022Y0188487D01*
X0399676Y0190022D01*
X0396330Y0191204D01*
X0392826Y0192109D01*
X0389912Y0192581D01*
X0386644Y0192896D01*
X0388738Y0192695D02*
X0380570Y0192695D01*
X0377775Y0192302D02*
X0391633Y0192302D01*
X0393595Y0191910D02*
X0375796Y0191910D01*
X0374309Y0191518D02*
X0395113Y0191518D01*
X0396550Y0191126D02*
X0372947Y0191126D01*
X0371770Y0190734D02*
X0397661Y0190734D01*
X0398772Y0190341D02*
X0370648Y0190341D01*
X0369759Y0189949D02*
X0399836Y0189949D01*
X0400690Y0189557D02*
X0368870Y0189557D01*
X0368007Y0189165D02*
X0401545Y0189165D01*
X0402400Y0188773D02*
X0367261Y0188773D01*
X0366515Y0188380D02*
X0403205Y0188380D01*
X0403878Y0187988D02*
X0365768Y0187988D01*
X0365030Y0187596D02*
X0404550Y0187596D01*
X0405222Y0187204D02*
X0364414Y0187204D01*
X0363798Y0186811D02*
X0405888Y0186811D01*
X0406431Y0186419D02*
X0363181Y0186419D01*
X0362565Y0186027D02*
X0406974Y0186027D01*
X0407517Y0185635D02*
X0362025Y0185635D01*
X0361499Y0185243D02*
X0408060Y0185243D01*
X0408603Y0184850D02*
X0360973Y0184850D01*
X0360447Y0184458D02*
X0409146Y0184458D01*
X0409642Y0184066D02*
X0359983Y0184066D01*
X0359542Y0183674D02*
X0410095Y0183674D01*
X0410549Y0183282D02*
X0387231Y0183282D01*
X0390097Y0182889D02*
X0411003Y0182889D01*
X0411456Y0182497D02*
X0391941Y0182497D01*
X0393507Y0182105D02*
X0411879Y0182105D01*
X0412258Y0181713D02*
X0394684Y0181713D01*
X0395795Y0181321D02*
X0412637Y0181321D01*
X0413015Y0180928D02*
X0396649Y0180928D01*
X0397504Y0180536D02*
X0413394Y0180536D01*
X0413773Y0180144D02*
X0398304Y0180144D01*
X0399021Y0179752D02*
X0414119Y0179752D01*
X0414443Y0179359D02*
X0399738Y0179359D01*
X0400401Y0178967D02*
X0414768Y0178967D01*
X0415092Y0178575D02*
X0401006Y0178575D01*
X0401611Y0178183D02*
X0415416Y0178183D01*
X0415740Y0177791D02*
X0402216Y0177791D01*
X0402692Y0177398D02*
X0416065Y0177398D01*
X0416385Y0177006D02*
X0403164Y0177006D01*
X0403636Y0176614D02*
X0416653Y0176614D01*
X0416921Y0176222D02*
X0404108Y0176222D01*
X0404580Y0175830D02*
X0417188Y0175830D01*
X0417456Y0175437D02*
X0405048Y0175437D01*
X0405432Y0175045D02*
X0417724Y0175045D01*
X0417992Y0174653D02*
X0405815Y0174653D01*
X0406199Y0174261D02*
X0418225Y0174261D01*
X0418447Y0173868D02*
X0406583Y0173868D01*
X0406942Y0173476D02*
X0418669Y0173476D01*
X0418890Y0173084D02*
X0407269Y0173084D01*
X0407596Y0172692D02*
X0419112Y0172692D01*
X0419334Y0172300D02*
X0407923Y0172300D01*
X0408250Y0171907D02*
X0419555Y0171907D01*
X0419750Y0171515D02*
X0408576Y0171515D01*
X0408874Y0171123D02*
X0419938Y0171123D01*
X0420126Y0170731D02*
X0409129Y0170731D01*
X0409383Y0170339D02*
X0420314Y0170339D01*
X0420502Y0169946D02*
X0409638Y0169946D01*
X0409893Y0169554D02*
X0420690Y0169554D01*
X0420878Y0169162D02*
X0410147Y0169162D01*
X0410402Y0168770D02*
X0421046Y0168770D01*
X0421193Y0168378D02*
X0410657Y0168378D01*
X0410866Y0167985D02*
X0421339Y0167985D01*
X0421486Y0167593D02*
X0411055Y0167593D01*
X0411243Y0167201D02*
X0421632Y0167201D01*
X0421779Y0166809D02*
X0411431Y0166809D01*
X0411619Y0166416D02*
X0421925Y0166416D01*
X0422071Y0166024D02*
X0411808Y0166024D01*
X0411996Y0165632D02*
X0422211Y0165632D01*
X0422314Y0165240D02*
X0412178Y0165240D01*
X0412324Y0164848D02*
X0422416Y0164848D01*
X0422518Y0164455D02*
X0412471Y0164455D01*
X0412617Y0164063D02*
X0422621Y0164063D01*
X0422723Y0163671D02*
X0412764Y0163671D01*
X0412910Y0163279D02*
X0422825Y0163279D01*
X0422927Y0162887D02*
X0413057Y0162887D01*
X0413203Y0162494D02*
X0423030Y0162494D01*
X0423132Y0162102D02*
X0413316Y0162102D01*
X0413408Y0161710D02*
X0423205Y0161710D01*
X0423276Y0161318D02*
X0413500Y0161318D01*
X0413593Y0160925D02*
X0423346Y0160925D01*
X0423416Y0160533D02*
X0413685Y0160533D01*
X0413777Y0160141D02*
X0423487Y0160141D01*
X0423557Y0159749D02*
X0413870Y0159749D01*
X0413935Y0159357D02*
X0423628Y0159357D01*
X0423695Y0158964D02*
X0413993Y0158964D01*
X0414051Y0158572D02*
X0423730Y0158572D01*
X0423765Y0158180D02*
X0414109Y0158180D01*
X0414167Y0157788D02*
X0423800Y0157788D01*
X0423836Y0157396D02*
X0414225Y0157396D01*
X0414283Y0157003D02*
X0423871Y0157003D01*
X0423906Y0156611D02*
X0414341Y0156611D01*
X0414371Y0156219D02*
X0423941Y0156219D01*
X0423970Y0155827D02*
X0414386Y0155827D01*
X0414401Y0155435D02*
X0423981Y0155435D01*
X0423992Y0155042D02*
X0414416Y0155042D01*
X0414430Y0154650D02*
X0424002Y0154650D01*
X0424013Y0154258D02*
X0414445Y0154258D01*
X0414460Y0153866D02*
X0424024Y0153866D01*
X0424035Y0153473D02*
X0414475Y0153473D01*
X0414464Y0153081D02*
X0424045Y0153081D01*
X0424023Y0152689D02*
X0414442Y0152689D01*
X0414421Y0152297D02*
X0423999Y0152297D01*
X0423974Y0151905D02*
X0414400Y0151905D01*
X0414378Y0151512D02*
X0423950Y0151512D01*
X0423925Y0151120D02*
X0414357Y0151120D01*
X0414336Y0150728D02*
X0423901Y0150728D01*
X0423876Y0150336D02*
X0414314Y0150336D01*
X0414293Y0149944D02*
X0423852Y0149944D01*
X0423801Y0149551D02*
X0414241Y0149551D01*
X0414159Y0149159D02*
X0423748Y0149159D01*
X0423695Y0148767D02*
X0414078Y0148767D01*
X0413996Y0148375D02*
X0423641Y0148375D01*
X0423588Y0147982D02*
X0413914Y0147982D01*
X0413832Y0147590D02*
X0423535Y0147590D01*
X0423482Y0147198D02*
X0413750Y0147198D01*
X0413647Y0146806D02*
X0423428Y0146806D01*
X0423348Y0146414D02*
X0413539Y0146414D01*
X0413431Y0146021D02*
X0423259Y0146021D01*
X0423170Y0145629D02*
X0413323Y0145629D01*
X0413215Y0145237D02*
X0423081Y0145237D01*
X0422992Y0144845D02*
X0413106Y0144845D01*
X0412998Y0144453D02*
X0422903Y0144453D01*
X0422814Y0144060D02*
X0412890Y0144060D01*
X0412779Y0143668D02*
X0422718Y0143668D01*
X0422599Y0143276D02*
X0412611Y0143276D01*
X0412443Y0142884D02*
X0422481Y0142884D01*
X0422362Y0142492D02*
X0412275Y0142492D01*
X0412107Y0142099D02*
X0422243Y0142099D01*
X0422124Y0141707D02*
X0411939Y0141707D01*
X0411771Y0141315D02*
X0422005Y0141315D01*
X0421866Y0140923D02*
X0411602Y0140923D01*
X0411390Y0140530D02*
X0421715Y0140530D01*
X0421563Y0140138D02*
X0411178Y0140138D01*
X0410966Y0139746D02*
X0421412Y0139746D01*
X0421260Y0139354D02*
X0410754Y0139354D01*
X0410542Y0138962D02*
X0421108Y0138962D01*
X0420957Y0138569D02*
X0410330Y0138569D01*
X0410118Y0138177D02*
X0420805Y0138177D01*
X0420654Y0137785D02*
X0409868Y0137785D01*
X0409591Y0137393D02*
X0420467Y0137393D01*
X0420271Y0137001D02*
X0409314Y0137001D01*
X0409037Y0136608D02*
X0420075Y0136608D01*
X0419879Y0136216D02*
X0408759Y0136216D01*
X0408482Y0135824D02*
X0419683Y0135824D01*
X0419487Y0135432D02*
X0408205Y0135432D01*
X0407923Y0135039D02*
X0419291Y0135039D01*
X0419057Y0134647D02*
X0407566Y0134647D01*
X0407208Y0134255D02*
X0418822Y0134255D01*
X0418587Y0133863D02*
X0406850Y0133863D01*
X0406492Y0133471D02*
X0418351Y0133471D01*
X0418116Y0133078D02*
X0406134Y0133078D01*
X0405751Y0132686D02*
X0417881Y0132686D01*
X0417633Y0132294D02*
X0405315Y0132294D01*
X0404880Y0131902D02*
X0417369Y0131902D01*
X0417104Y0131510D02*
X0404445Y0131510D01*
X0404010Y0131117D02*
X0416840Y0131117D01*
X0416576Y0130725D02*
X0403575Y0130725D01*
X0403140Y0130333D02*
X0416287Y0130333D01*
X0415973Y0129941D02*
X0402580Y0129941D01*
X0402008Y0129549D02*
X0415659Y0129549D01*
X0415345Y0129156D02*
X0401436Y0129156D01*
X0400864Y0128764D02*
X0415031Y0128764D01*
X0414698Y0128372D02*
X0400279Y0128372D01*
X0399569Y0127980D02*
X0414345Y0127980D01*
X0413992Y0127587D02*
X0398859Y0127587D01*
X0398149Y0127195D02*
X0413639Y0127195D01*
X0413286Y0126803D02*
X0397352Y0126803D01*
X0396414Y0126411D02*
X0412933Y0126411D01*
X0412550Y0126019D02*
X0395475Y0126019D01*
X0394353Y0125626D02*
X0412134Y0125626D01*
X0411717Y0125234D02*
X0393091Y0125234D01*
X0391665Y0124842D02*
X0411300Y0124842D01*
X0410883Y0124450D02*
X0389688Y0124450D01*
X0388180Y0124058D02*
X0410424Y0124058D01*
X0409942Y0123665D02*
X0388180Y0123665D01*
X0388180Y0123273D02*
X0409460Y0123273D01*
X0408978Y0122881D02*
X0388180Y0122881D01*
X0388180Y0122489D02*
X0408496Y0122489D01*
X0407951Y0122096D02*
X0388180Y0122096D01*
X0388180Y0121704D02*
X0407395Y0121704D01*
X0406839Y0121312D02*
X0388180Y0121312D01*
X0388180Y0120920D02*
X0406282Y0120920D01*
X0405663Y0120528D02*
X0388180Y0120528D01*
X0388180Y0120135D02*
X0404985Y0120135D01*
X0404306Y0119743D02*
X0388180Y0119743D01*
X0388180Y0119351D02*
X0403628Y0119351D01*
X0402950Y0118959D02*
X0388180Y0118959D01*
X0388180Y0118567D02*
X0402158Y0118567D01*
X0401318Y0118174D02*
X0388180Y0118174D01*
X0388180Y0117782D02*
X0400477Y0117782D01*
X0399587Y0117390D02*
X0388180Y0117390D01*
X0388180Y0116998D02*
X0398483Y0116998D01*
X0397379Y0116606D02*
X0388180Y0116606D01*
X0388180Y0116213D02*
X0396132Y0116213D01*
X0394726Y0115821D02*
X0388180Y0115821D01*
X0388180Y0115429D02*
X0393277Y0115429D01*
X0391225Y0115037D02*
X0388180Y0115037D01*
X0381251Y0115037D02*
X0378586Y0115037D01*
X0376428Y0115429D02*
X0381251Y0115429D01*
X0381251Y0115821D02*
X0374840Y0115821D01*
X0373387Y0116213D02*
X0381251Y0116213D01*
X0381251Y0116606D02*
X0372210Y0116606D01*
X0371034Y0116998D02*
X0381251Y0116998D01*
X0381251Y0117390D02*
X0370033Y0117390D01*
X0369198Y0117782D02*
X0381251Y0117782D01*
X0381251Y0118174D02*
X0368362Y0118174D01*
X0367527Y0118567D02*
X0381251Y0118567D01*
X0381251Y0118959D02*
X0366692Y0118959D01*
X0365875Y0119351D02*
X0381251Y0119351D01*
X0381251Y0119743D02*
X0365239Y0119743D01*
X0364603Y0120135D02*
X0381251Y0120135D01*
X0381251Y0120528D02*
X0363967Y0120528D01*
X0363330Y0120920D02*
X0381251Y0120920D01*
X0381251Y0121312D02*
X0362752Y0121312D01*
X0362217Y0121704D02*
X0381251Y0121704D01*
X0381251Y0122096D02*
X0361681Y0122096D01*
X0361146Y0122489D02*
X0381251Y0122489D01*
X0381251Y0122881D02*
X0360610Y0122881D01*
X0360111Y0123273D02*
X0381251Y0123273D01*
X0381251Y0123665D02*
X0359677Y0123665D01*
X0359242Y0124058D02*
X0381251Y0124058D01*
X0379726Y0124450D02*
X0358808Y0124450D01*
X0358373Y0124842D02*
X0377878Y0124842D01*
X0376309Y0125234D02*
X0357939Y0125234D01*
X0357504Y0125626D02*
X0375115Y0125626D01*
X0374134Y0126019D02*
X0357115Y0126019D01*
X0356735Y0126411D02*
X0373154Y0126411D01*
X0372173Y0126803D02*
X0356355Y0126803D01*
X0355975Y0127195D02*
X0371376Y0127195D01*
X0370689Y0127587D02*
X0355595Y0127587D01*
X0355214Y0127980D02*
X0370003Y0127980D01*
X0369316Y0128372D02*
X0354858Y0128372D01*
X0354557Y0128764D02*
X0368690Y0128764D01*
X0368101Y0129156D02*
X0354255Y0129156D01*
X0353953Y0129549D02*
X0367552Y0129549D01*
X0367029Y0129941D02*
X0353652Y0129941D01*
X0353350Y0130333D02*
X0366506Y0130333D01*
X0366020Y0130725D02*
X0353048Y0130725D01*
X0352747Y0131117D02*
X0365559Y0131117D01*
X0365099Y0131510D02*
X0352477Y0131510D01*
X0352241Y0131902D02*
X0364639Y0131902D01*
X0364178Y0132294D02*
X0352006Y0132294D01*
X0351771Y0132686D02*
X0363809Y0132686D01*
X0363442Y0133078D02*
X0351535Y0133078D01*
X0351300Y0133471D02*
X0363076Y0133471D01*
X0362709Y0133863D02*
X0351065Y0133863D01*
X0350829Y0134255D02*
X0362343Y0134255D01*
X0361976Y0134647D02*
X0350594Y0134647D01*
X0350359Y0135039D02*
X0361678Y0135039D01*
X0361392Y0135432D02*
X0350123Y0135432D01*
X0349888Y0135824D02*
X0361106Y0135824D01*
X0360820Y0136216D02*
X0349714Y0136216D01*
X0349545Y0136608D02*
X0360534Y0136608D01*
X0360248Y0137001D02*
X0349375Y0137001D01*
X0349205Y0137393D02*
X0359961Y0137393D01*
X0359675Y0137785D02*
X0349036Y0137785D01*
X0348866Y0138177D02*
X0359414Y0138177D01*
X0359205Y0138569D02*
X0348697Y0138569D01*
X0348527Y0138962D02*
X0358996Y0138962D01*
X0358787Y0139354D02*
X0348357Y0139354D01*
X0348188Y0139746D02*
X0358579Y0139746D01*
X0358370Y0140138D02*
X0348018Y0140138D01*
X0347891Y0140530D02*
X0358165Y0140530D01*
X0357997Y0140923D02*
X0347775Y0140923D01*
X0347659Y0141315D02*
X0357830Y0141315D01*
X0357663Y0141707D02*
X0347543Y0141707D01*
X0347427Y0142099D02*
X0357495Y0142099D01*
X0357328Y0142492D02*
X0347310Y0142492D01*
X0347194Y0142884D02*
X0357161Y0142884D01*
X0356993Y0143276D02*
X0347078Y0143276D01*
X0346962Y0143668D02*
X0356851Y0143668D01*
X0356729Y0144060D02*
X0346846Y0144060D01*
X0346730Y0144453D02*
X0356607Y0144453D01*
X0356485Y0144845D02*
X0346614Y0144845D01*
X0346511Y0145237D02*
X0356363Y0145237D01*
X0356241Y0145629D02*
X0346451Y0145629D01*
X0346390Y0146021D02*
X0356119Y0146021D01*
X0355997Y0146414D02*
X0346329Y0146414D01*
X0346268Y0146806D02*
X0355875Y0146806D01*
X0355784Y0147198D02*
X0346208Y0147198D01*
X0346147Y0147590D02*
X0355722Y0147590D01*
X0355659Y0147982D02*
X0346086Y0147982D01*
X0346025Y0148375D02*
X0355596Y0148375D01*
X0355533Y0148767D02*
X0345965Y0148767D01*
X0345904Y0149159D02*
X0355470Y0149159D01*
X0355407Y0149551D02*
X0345843Y0149551D01*
X0345782Y0149944D02*
X0355344Y0149944D01*
X0355296Y0150336D02*
X0345721Y0150336D01*
X0345661Y0150728D02*
X0355269Y0150728D01*
X0355243Y0151120D02*
X0345652Y0151120D01*
X0345644Y0151512D02*
X0355217Y0151512D01*
X0355191Y0151905D02*
X0345636Y0151905D01*
X0345628Y0152297D02*
X0355165Y0152297D01*
X0355139Y0152689D02*
X0345620Y0152689D01*
X0345612Y0153081D02*
X0355112Y0153081D01*
X0355117Y0153473D02*
X0345604Y0153473D01*
X0345596Y0153866D02*
X0355127Y0153866D01*
X0355137Y0154258D02*
X0345588Y0154258D01*
X0345589Y0154650D02*
X0355147Y0154650D01*
X0355156Y0155042D02*
X0345617Y0155042D01*
X0345645Y0155435D02*
X0355166Y0155435D01*
X0355176Y0155827D02*
X0345674Y0155827D01*
X0345702Y0156219D02*
X0355185Y0156219D01*
X0355230Y0156611D02*
X0345730Y0156611D01*
X0345759Y0157003D02*
X0355286Y0157003D01*
X0355343Y0157396D02*
X0345787Y0157396D01*
X0345815Y0157788D02*
X0355400Y0157788D01*
X0355457Y0158180D02*
X0345843Y0158180D01*
X0345889Y0158572D02*
X0355514Y0158572D01*
X0355570Y0158964D02*
X0345950Y0158964D01*
X0346011Y0159357D02*
X0355632Y0159357D01*
X0355730Y0159749D02*
X0346072Y0159749D01*
X0346133Y0160141D02*
X0355828Y0160141D01*
X0355926Y0160533D02*
X0346194Y0160533D01*
X0346256Y0160925D02*
X0356024Y0160925D01*
X0356122Y0161318D02*
X0346317Y0161318D01*
X0346403Y0161710D02*
X0356220Y0161710D01*
X0356318Y0162102D02*
X0346497Y0162102D01*
X0346590Y0162494D02*
X0356416Y0162494D01*
X0356514Y0162887D02*
X0346683Y0162887D01*
X0346777Y0163279D02*
X0356640Y0163279D01*
X0356798Y0163671D02*
X0346870Y0163671D01*
X0346976Y0164063D02*
X0356956Y0164063D01*
X0357114Y0164455D02*
X0347096Y0164455D01*
X0347217Y0164848D02*
X0357272Y0164848D01*
X0357430Y0165240D02*
X0347337Y0165240D01*
X0347457Y0165632D02*
X0357587Y0165632D01*
X0357745Y0166024D02*
X0347577Y0166024D01*
X0347698Y0166416D02*
X0357917Y0166416D01*
X0358132Y0166809D02*
X0347818Y0166809D01*
X0347974Y0167201D02*
X0358347Y0167201D01*
X0358562Y0167593D02*
X0348131Y0167593D01*
X0348289Y0167985D02*
X0358777Y0167985D01*
X0358992Y0168378D02*
X0348447Y0168378D01*
X0348605Y0168770D02*
X0359208Y0168770D01*
X0359456Y0169162D02*
X0348763Y0169162D01*
X0348921Y0169554D02*
X0359703Y0169554D01*
X0359951Y0169946D02*
X0349087Y0169946D01*
X0349286Y0170339D02*
X0360199Y0170339D01*
X0360447Y0170731D02*
X0349485Y0170731D01*
X0349683Y0171123D02*
X0360716Y0171123D01*
X0361037Y0171515D02*
X0349882Y0171515D01*
X0350081Y0171907D02*
X0361358Y0171907D01*
X0361679Y0172300D02*
X0350280Y0172300D01*
X0350478Y0172692D02*
X0362000Y0172692D01*
X0362321Y0173084D02*
X0350706Y0173084D01*
X0350947Y0173476D02*
X0362641Y0173476D01*
X0363006Y0173868D02*
X0351188Y0173868D01*
X0351429Y0174261D02*
X0363391Y0174261D01*
X0363776Y0174653D02*
X0351670Y0174653D01*
X0351911Y0175045D02*
X0364162Y0175045D01*
X0364547Y0175437D02*
X0352152Y0175437D01*
X0352393Y0175830D02*
X0364932Y0175830D01*
X0365421Y0176222D02*
X0352656Y0176222D01*
X0352962Y0176614D02*
X0365916Y0176614D01*
X0366410Y0177006D02*
X0353267Y0177006D01*
X0353573Y0177398D02*
X0366905Y0177398D01*
X0367436Y0177791D02*
X0353879Y0177791D01*
X0354184Y0178183D02*
X0368039Y0178183D01*
X0368642Y0178575D02*
X0354490Y0178575D01*
X0354796Y0178967D02*
X0369246Y0178967D01*
X0369849Y0179359D02*
X0355135Y0179359D01*
X0355495Y0179752D02*
X0370479Y0179752D01*
X0371318Y0180144D02*
X0355855Y0180144D01*
X0356215Y0180536D02*
X0372157Y0180536D01*
X0372996Y0180928D02*
X0356575Y0180928D01*
X0356935Y0181321D02*
X0373967Y0181321D01*
X0375071Y0181713D02*
X0357335Y0181713D01*
X0357777Y0182105D02*
X0376175Y0182105D01*
X0377591Y0182497D02*
X0358218Y0182497D01*
X0358659Y0182889D02*
X0379187Y0182889D01*
X0381862Y0183282D02*
X0359100Y0183282D01*
X0319193Y0168378D02*
X0308657Y0168378D01*
X0308739Y0168251D02*
X0310156Y0165298D01*
X0311259Y0162345D01*
X0311889Y0159668D01*
X0312361Y0156479D01*
X0312479Y0153369D01*
X0312282Y0149747D01*
X0311731Y0147109D01*
X0310786Y0143684D01*
X0309605Y0140928D01*
X0308030Y0138015D01*
X0305944Y0135062D01*
X0303896Y0132818D01*
X0301101Y0130298D01*
X0298345Y0128408D01*
X0295707Y0126952D01*
X0293070Y0125849D01*
X0290156Y0124944D01*
X0287873Y0124471D01*
X0286180Y0124274D01*
X0286180Y0114668D01*
X0288739Y0114944D01*
X0291416Y0115456D01*
X0294802Y0116400D01*
X0297794Y0117463D01*
X0300747Y0118841D01*
X0304015Y0120731D01*
X0306416Y0122424D01*
X0308739Y0124314D01*
X0310747Y0126204D01*
X0312873Y0128566D01*
X0314448Y0130534D01*
X0315747Y0132463D01*
X0317282Y0135022D01*
X0318621Y0137700D01*
X0319959Y0141164D01*
X0320747Y0143763D01*
X0321416Y0146715D01*
X0321849Y0149904D01*
X0322046Y0153054D01*
X0321967Y0155928D01*
X0321692Y0158999D01*
X0321141Y0162070D01*
X0320196Y0165692D01*
X0318975Y0168959D01*
X0317597Y0171833D01*
X0316062Y0174550D01*
X0314369Y0177030D01*
X0311928Y0179983D01*
X0309723Y0182267D01*
X0307400Y0184274D01*
X0303857Y0186833D01*
X0301022Y0188487D01*
X0297676Y0190022D01*
X0294330Y0191204D01*
X0290826Y0192109D01*
X0287912Y0192581D01*
X0284644Y0192896D01*
X0281337Y0192896D01*
X0277558Y0192621D01*
X0274251Y0192030D01*
X0271416Y0191282D01*
X0268818Y0190416D01*
X0266141Y0189235D01*
X0263070Y0187621D01*
X0260471Y0185967D01*
X0258306Y0184353D01*
X0255117Y0181519D01*
X0252912Y0179117D01*
X0250550Y0176085D01*
X0248542Y0172818D01*
X0247046Y0169865D01*
X0245826Y0166833D01*
X0244920Y0163881D01*
X0244330Y0161400D01*
X0243857Y0158369D01*
X0243581Y0154550D01*
X0243660Y0150731D01*
X0244526Y0145141D01*
X0245983Y0140219D01*
X0247873Y0135849D01*
X0250589Y0131322D01*
X0252952Y0128251D01*
X0255432Y0125692D01*
X0258267Y0123133D01*
X0261062Y0121085D01*
X0263936Y0119314D01*
X0268463Y0117188D01*
X0271770Y0116085D01*
X0275117Y0115259D01*
X0278503Y0114747D01*
X0279251Y0114747D01*
X0279251Y0124196D01*
X0276889Y0124589D01*
X0273739Y0125377D01*
X0269802Y0126952D01*
X0267046Y0128526D01*
X0265865Y0129314D01*
X0264290Y0130495D01*
X0262164Y0132306D01*
X0259920Y0134707D01*
X0257479Y0138054D01*
X0256180Y0140495D01*
X0254920Y0143448D01*
X0253818Y0146991D01*
X0253306Y0150180D01*
X0253109Y0153133D01*
X0253188Y0156322D01*
X0253621Y0159314D01*
X0254566Y0163093D01*
X0255865Y0166322D01*
X0257204Y0168763D01*
X0258621Y0171007D01*
X0260747Y0173605D01*
X0262952Y0175849D01*
X0265235Y0177660D01*
X0268385Y0179707D01*
X0271416Y0181125D01*
X0274408Y0182188D01*
X0276967Y0182857D01*
X0279920Y0183290D01*
X0282479Y0183408D01*
X0284881Y0183330D01*
X0288621Y0182818D01*
X0291377Y0182148D01*
X0293621Y0181400D01*
X0296022Y0180298D01*
X0298109Y0179156D01*
X0300235Y0177778D01*
X0303030Y0175456D01*
X0304802Y0173644D01*
X0306770Y0171282D01*
X0308739Y0168251D01*
X0308866Y0167985D02*
X0319339Y0167985D01*
X0319486Y0167593D02*
X0309055Y0167593D01*
X0309243Y0167201D02*
X0319632Y0167201D01*
X0319779Y0166809D02*
X0309431Y0166809D01*
X0309619Y0166416D02*
X0319925Y0166416D01*
X0320071Y0166024D02*
X0309808Y0166024D01*
X0309996Y0165632D02*
X0320211Y0165632D01*
X0320314Y0165240D02*
X0310178Y0165240D01*
X0310324Y0164848D02*
X0320416Y0164848D01*
X0320518Y0164455D02*
X0310471Y0164455D01*
X0310617Y0164063D02*
X0320621Y0164063D01*
X0320723Y0163671D02*
X0310764Y0163671D01*
X0310910Y0163279D02*
X0320825Y0163279D01*
X0320927Y0162887D02*
X0311057Y0162887D01*
X0311203Y0162494D02*
X0321030Y0162494D01*
X0321132Y0162102D02*
X0311316Y0162102D01*
X0311408Y0161710D02*
X0321205Y0161710D01*
X0321276Y0161318D02*
X0311500Y0161318D01*
X0311593Y0160925D02*
X0321346Y0160925D01*
X0321416Y0160533D02*
X0311685Y0160533D01*
X0311777Y0160141D02*
X0321487Y0160141D01*
X0321557Y0159749D02*
X0311870Y0159749D01*
X0311935Y0159357D02*
X0321628Y0159357D01*
X0321695Y0158964D02*
X0311993Y0158964D01*
X0312051Y0158572D02*
X0321730Y0158572D01*
X0321765Y0158180D02*
X0312109Y0158180D01*
X0312167Y0157788D02*
X0321800Y0157788D01*
X0321836Y0157396D02*
X0312225Y0157396D01*
X0312283Y0157003D02*
X0321871Y0157003D01*
X0321906Y0156611D02*
X0312341Y0156611D01*
X0312371Y0156219D02*
X0321941Y0156219D01*
X0321970Y0155827D02*
X0312386Y0155827D01*
X0312401Y0155435D02*
X0321981Y0155435D01*
X0321992Y0155042D02*
X0312416Y0155042D01*
X0312430Y0154650D02*
X0322002Y0154650D01*
X0322013Y0154258D02*
X0312445Y0154258D01*
X0312460Y0153866D02*
X0322024Y0153866D01*
X0322035Y0153473D02*
X0312475Y0153473D01*
X0312464Y0153081D02*
X0322045Y0153081D01*
X0322023Y0152689D02*
X0312442Y0152689D01*
X0312421Y0152297D02*
X0321999Y0152297D01*
X0321974Y0151905D02*
X0312400Y0151905D01*
X0312378Y0151512D02*
X0321950Y0151512D01*
X0321925Y0151120D02*
X0312357Y0151120D01*
X0312336Y0150728D02*
X0321901Y0150728D01*
X0321876Y0150336D02*
X0312314Y0150336D01*
X0312293Y0149944D02*
X0321852Y0149944D01*
X0321801Y0149551D02*
X0312241Y0149551D01*
X0312159Y0149159D02*
X0321748Y0149159D01*
X0321695Y0148767D02*
X0312078Y0148767D01*
X0311996Y0148375D02*
X0321641Y0148375D01*
X0321588Y0147982D02*
X0311914Y0147982D01*
X0311832Y0147590D02*
X0321535Y0147590D01*
X0321482Y0147198D02*
X0311750Y0147198D01*
X0311647Y0146806D02*
X0321428Y0146806D01*
X0321348Y0146414D02*
X0311539Y0146414D01*
X0311431Y0146021D02*
X0321259Y0146021D01*
X0321170Y0145629D02*
X0311323Y0145629D01*
X0311215Y0145237D02*
X0321081Y0145237D01*
X0320992Y0144845D02*
X0311106Y0144845D01*
X0310998Y0144453D02*
X0320903Y0144453D01*
X0320814Y0144060D02*
X0310890Y0144060D01*
X0310779Y0143668D02*
X0320718Y0143668D01*
X0320599Y0143276D02*
X0310611Y0143276D01*
X0310443Y0142884D02*
X0320481Y0142884D01*
X0320362Y0142492D02*
X0310275Y0142492D01*
X0310107Y0142099D02*
X0320243Y0142099D01*
X0320124Y0141707D02*
X0309939Y0141707D01*
X0309771Y0141315D02*
X0320005Y0141315D01*
X0319866Y0140923D02*
X0309602Y0140923D01*
X0309390Y0140530D02*
X0319715Y0140530D01*
X0319563Y0140138D02*
X0309178Y0140138D01*
X0308966Y0139746D02*
X0319412Y0139746D01*
X0319260Y0139354D02*
X0308754Y0139354D01*
X0308542Y0138962D02*
X0319108Y0138962D01*
X0318957Y0138569D02*
X0308330Y0138569D01*
X0308118Y0138177D02*
X0318805Y0138177D01*
X0318654Y0137785D02*
X0307868Y0137785D01*
X0307591Y0137393D02*
X0318467Y0137393D01*
X0318271Y0137001D02*
X0307314Y0137001D01*
X0307037Y0136608D02*
X0318075Y0136608D01*
X0317879Y0136216D02*
X0306759Y0136216D01*
X0306482Y0135824D02*
X0317683Y0135824D01*
X0317487Y0135432D02*
X0306205Y0135432D01*
X0305923Y0135039D02*
X0317291Y0135039D01*
X0317057Y0134647D02*
X0305566Y0134647D01*
X0305208Y0134255D02*
X0316822Y0134255D01*
X0316587Y0133863D02*
X0304850Y0133863D01*
X0304492Y0133471D02*
X0316351Y0133471D01*
X0316116Y0133078D02*
X0304134Y0133078D01*
X0303751Y0132686D02*
X0315881Y0132686D01*
X0315633Y0132294D02*
X0303315Y0132294D01*
X0302880Y0131902D02*
X0315369Y0131902D01*
X0315104Y0131510D02*
X0302445Y0131510D01*
X0302010Y0131117D02*
X0314840Y0131117D01*
X0314576Y0130725D02*
X0301575Y0130725D01*
X0301140Y0130333D02*
X0314287Y0130333D01*
X0313973Y0129941D02*
X0300580Y0129941D01*
X0300008Y0129549D02*
X0313659Y0129549D01*
X0313345Y0129156D02*
X0299436Y0129156D01*
X0298864Y0128764D02*
X0313031Y0128764D01*
X0312698Y0128372D02*
X0298279Y0128372D01*
X0297569Y0127980D02*
X0312345Y0127980D01*
X0311992Y0127587D02*
X0296859Y0127587D01*
X0296149Y0127195D02*
X0311639Y0127195D01*
X0311286Y0126803D02*
X0295352Y0126803D01*
X0294414Y0126411D02*
X0310933Y0126411D01*
X0310550Y0126019D02*
X0293475Y0126019D01*
X0292353Y0125626D02*
X0310134Y0125626D01*
X0309717Y0125234D02*
X0291091Y0125234D01*
X0289665Y0124842D02*
X0309300Y0124842D01*
X0308883Y0124450D02*
X0287688Y0124450D01*
X0286180Y0124058D02*
X0308424Y0124058D01*
X0307942Y0123665D02*
X0286180Y0123665D01*
X0286180Y0123273D02*
X0307460Y0123273D01*
X0306978Y0122881D02*
X0286180Y0122881D01*
X0286180Y0122489D02*
X0306496Y0122489D01*
X0305951Y0122096D02*
X0286180Y0122096D01*
X0286180Y0121704D02*
X0305395Y0121704D01*
X0304839Y0121312D02*
X0286180Y0121312D01*
X0286180Y0120920D02*
X0304282Y0120920D01*
X0303663Y0120528D02*
X0286180Y0120528D01*
X0286180Y0120135D02*
X0302985Y0120135D01*
X0302306Y0119743D02*
X0286180Y0119743D01*
X0286180Y0119351D02*
X0301628Y0119351D01*
X0300950Y0118959D02*
X0286180Y0118959D01*
X0286180Y0118567D02*
X0300158Y0118567D01*
X0299318Y0118174D02*
X0286180Y0118174D01*
X0286180Y0117782D02*
X0298477Y0117782D01*
X0297587Y0117390D02*
X0286180Y0117390D01*
X0286180Y0116998D02*
X0296483Y0116998D01*
X0295379Y0116606D02*
X0286180Y0116606D01*
X0286180Y0116213D02*
X0294132Y0116213D01*
X0292726Y0115821D02*
X0286180Y0115821D01*
X0286180Y0115429D02*
X0291277Y0115429D01*
X0289225Y0115037D02*
X0286180Y0115037D01*
X0279251Y0115037D02*
X0276586Y0115037D01*
X0274428Y0115429D02*
X0279251Y0115429D01*
X0279251Y0115821D02*
X0272840Y0115821D01*
X0271387Y0116213D02*
X0279251Y0116213D01*
X0279251Y0116606D02*
X0270210Y0116606D01*
X0269034Y0116998D02*
X0279251Y0116998D01*
X0279251Y0117390D02*
X0268033Y0117390D01*
X0267198Y0117782D02*
X0279251Y0117782D01*
X0279251Y0118174D02*
X0266362Y0118174D01*
X0265527Y0118567D02*
X0279251Y0118567D01*
X0279251Y0118959D02*
X0264692Y0118959D01*
X0263875Y0119351D02*
X0279251Y0119351D01*
X0279251Y0119743D02*
X0263239Y0119743D01*
X0262603Y0120135D02*
X0279251Y0120135D01*
X0279251Y0120528D02*
X0261967Y0120528D01*
X0261330Y0120920D02*
X0279251Y0120920D01*
X0279251Y0121312D02*
X0260752Y0121312D01*
X0260217Y0121704D02*
X0279251Y0121704D01*
X0279251Y0122096D02*
X0259681Y0122096D01*
X0259146Y0122489D02*
X0279251Y0122489D01*
X0279251Y0122881D02*
X0258610Y0122881D01*
X0258111Y0123273D02*
X0279251Y0123273D01*
X0279251Y0123665D02*
X0257677Y0123665D01*
X0257242Y0124058D02*
X0279251Y0124058D01*
X0277726Y0124450D02*
X0256808Y0124450D01*
X0256373Y0124842D02*
X0275878Y0124842D01*
X0274309Y0125234D02*
X0255939Y0125234D01*
X0255504Y0125626D02*
X0273115Y0125626D01*
X0272134Y0126019D02*
X0255115Y0126019D01*
X0254735Y0126411D02*
X0271154Y0126411D01*
X0270173Y0126803D02*
X0254355Y0126803D01*
X0253975Y0127195D02*
X0269376Y0127195D01*
X0268689Y0127587D02*
X0253595Y0127587D01*
X0253214Y0127980D02*
X0268003Y0127980D01*
X0267316Y0128372D02*
X0252858Y0128372D01*
X0252557Y0128764D02*
X0266690Y0128764D01*
X0266101Y0129156D02*
X0252255Y0129156D01*
X0251953Y0129549D02*
X0265552Y0129549D01*
X0265029Y0129941D02*
X0251652Y0129941D01*
X0251350Y0130333D02*
X0264506Y0130333D01*
X0264020Y0130725D02*
X0251048Y0130725D01*
X0250747Y0131117D02*
X0263559Y0131117D01*
X0263099Y0131510D02*
X0250477Y0131510D01*
X0250241Y0131902D02*
X0262639Y0131902D01*
X0262178Y0132294D02*
X0250006Y0132294D01*
X0249771Y0132686D02*
X0261809Y0132686D01*
X0261442Y0133078D02*
X0249535Y0133078D01*
X0249300Y0133471D02*
X0261076Y0133471D01*
X0260709Y0133863D02*
X0249065Y0133863D01*
X0248829Y0134255D02*
X0260343Y0134255D01*
X0259976Y0134647D02*
X0248594Y0134647D01*
X0248359Y0135039D02*
X0259678Y0135039D01*
X0259392Y0135432D02*
X0248123Y0135432D01*
X0247888Y0135824D02*
X0259106Y0135824D01*
X0258820Y0136216D02*
X0247714Y0136216D01*
X0247545Y0136608D02*
X0258534Y0136608D01*
X0258248Y0137001D02*
X0247375Y0137001D01*
X0247205Y0137393D02*
X0257961Y0137393D01*
X0257675Y0137785D02*
X0247036Y0137785D01*
X0246866Y0138177D02*
X0257414Y0138177D01*
X0257205Y0138569D02*
X0246697Y0138569D01*
X0246527Y0138962D02*
X0256996Y0138962D01*
X0256787Y0139354D02*
X0246357Y0139354D01*
X0246188Y0139746D02*
X0256579Y0139746D01*
X0256370Y0140138D02*
X0246018Y0140138D01*
X0245891Y0140530D02*
X0256165Y0140530D01*
X0255997Y0140923D02*
X0245775Y0140923D01*
X0245659Y0141315D02*
X0255830Y0141315D01*
X0255663Y0141707D02*
X0245543Y0141707D01*
X0245427Y0142099D02*
X0255495Y0142099D01*
X0255328Y0142492D02*
X0245310Y0142492D01*
X0245194Y0142884D02*
X0255161Y0142884D01*
X0254993Y0143276D02*
X0245078Y0143276D01*
X0244962Y0143668D02*
X0254851Y0143668D01*
X0254729Y0144060D02*
X0244846Y0144060D01*
X0244730Y0144453D02*
X0254607Y0144453D01*
X0254485Y0144845D02*
X0244614Y0144845D01*
X0244511Y0145237D02*
X0254363Y0145237D01*
X0254241Y0145629D02*
X0244451Y0145629D01*
X0244390Y0146021D02*
X0254119Y0146021D01*
X0253997Y0146414D02*
X0244329Y0146414D01*
X0244268Y0146806D02*
X0253875Y0146806D01*
X0253784Y0147198D02*
X0244208Y0147198D01*
X0244147Y0147590D02*
X0253722Y0147590D01*
X0253659Y0147982D02*
X0244086Y0147982D01*
X0244025Y0148375D02*
X0253596Y0148375D01*
X0253533Y0148767D02*
X0243965Y0148767D01*
X0243904Y0149159D02*
X0253470Y0149159D01*
X0253407Y0149551D02*
X0243843Y0149551D01*
X0243782Y0149944D02*
X0253344Y0149944D01*
X0253296Y0150336D02*
X0243721Y0150336D01*
X0243661Y0150728D02*
X0253269Y0150728D01*
X0253243Y0151120D02*
X0243652Y0151120D01*
X0243644Y0151512D02*
X0253217Y0151512D01*
X0253191Y0151905D02*
X0243636Y0151905D01*
X0243628Y0152297D02*
X0253165Y0152297D01*
X0253139Y0152689D02*
X0243620Y0152689D01*
X0243612Y0153081D02*
X0253112Y0153081D01*
X0253117Y0153473D02*
X0243604Y0153473D01*
X0243596Y0153866D02*
X0253127Y0153866D01*
X0253137Y0154258D02*
X0243588Y0154258D01*
X0243589Y0154650D02*
X0253147Y0154650D01*
X0253156Y0155042D02*
X0243617Y0155042D01*
X0243645Y0155435D02*
X0253166Y0155435D01*
X0253176Y0155827D02*
X0243674Y0155827D01*
X0243702Y0156219D02*
X0253185Y0156219D01*
X0253230Y0156611D02*
X0243730Y0156611D01*
X0243759Y0157003D02*
X0253286Y0157003D01*
X0253343Y0157396D02*
X0243787Y0157396D01*
X0243815Y0157788D02*
X0253400Y0157788D01*
X0253457Y0158180D02*
X0243843Y0158180D01*
X0243889Y0158572D02*
X0253514Y0158572D01*
X0253570Y0158964D02*
X0243950Y0158964D01*
X0244011Y0159357D02*
X0253632Y0159357D01*
X0253730Y0159749D02*
X0244072Y0159749D01*
X0244133Y0160141D02*
X0253828Y0160141D01*
X0253926Y0160533D02*
X0244194Y0160533D01*
X0244256Y0160925D02*
X0254024Y0160925D01*
X0254122Y0161318D02*
X0244317Y0161318D01*
X0244403Y0161710D02*
X0254220Y0161710D01*
X0254318Y0162102D02*
X0244497Y0162102D01*
X0244590Y0162494D02*
X0254416Y0162494D01*
X0254514Y0162887D02*
X0244683Y0162887D01*
X0244777Y0163279D02*
X0254640Y0163279D01*
X0254798Y0163671D02*
X0244870Y0163671D01*
X0244976Y0164063D02*
X0254956Y0164063D01*
X0255114Y0164455D02*
X0245096Y0164455D01*
X0245217Y0164848D02*
X0255272Y0164848D01*
X0255430Y0165240D02*
X0245337Y0165240D01*
X0245457Y0165632D02*
X0255587Y0165632D01*
X0255745Y0166024D02*
X0245577Y0166024D01*
X0245698Y0166416D02*
X0255917Y0166416D01*
X0256132Y0166809D02*
X0245818Y0166809D01*
X0245974Y0167201D02*
X0256347Y0167201D01*
X0256562Y0167593D02*
X0246131Y0167593D01*
X0246289Y0167985D02*
X0256777Y0167985D01*
X0256992Y0168378D02*
X0246447Y0168378D01*
X0246605Y0168770D02*
X0257208Y0168770D01*
X0257456Y0169162D02*
X0246763Y0169162D01*
X0246921Y0169554D02*
X0257703Y0169554D01*
X0257951Y0169946D02*
X0247087Y0169946D01*
X0247286Y0170339D02*
X0258199Y0170339D01*
X0258447Y0170731D02*
X0247485Y0170731D01*
X0247683Y0171123D02*
X0258716Y0171123D01*
X0259037Y0171515D02*
X0247882Y0171515D01*
X0248081Y0171907D02*
X0259358Y0171907D01*
X0259679Y0172300D02*
X0248280Y0172300D01*
X0248478Y0172692D02*
X0260000Y0172692D01*
X0260321Y0173084D02*
X0248706Y0173084D01*
X0248947Y0173476D02*
X0260641Y0173476D01*
X0261006Y0173868D02*
X0249188Y0173868D01*
X0249429Y0174261D02*
X0261391Y0174261D01*
X0261776Y0174653D02*
X0249670Y0174653D01*
X0249911Y0175045D02*
X0262162Y0175045D01*
X0262547Y0175437D02*
X0250152Y0175437D01*
X0250393Y0175830D02*
X0262932Y0175830D01*
X0263421Y0176222D02*
X0250656Y0176222D01*
X0250962Y0176614D02*
X0263916Y0176614D01*
X0264410Y0177006D02*
X0251267Y0177006D01*
X0251573Y0177398D02*
X0264905Y0177398D01*
X0265436Y0177791D02*
X0251879Y0177791D01*
X0252184Y0178183D02*
X0266039Y0178183D01*
X0266642Y0178575D02*
X0252490Y0178575D01*
X0252796Y0178967D02*
X0267246Y0178967D01*
X0267849Y0179359D02*
X0253135Y0179359D01*
X0253495Y0179752D02*
X0268479Y0179752D01*
X0269318Y0180144D02*
X0253855Y0180144D01*
X0254215Y0180536D02*
X0270157Y0180536D01*
X0270996Y0180928D02*
X0254575Y0180928D01*
X0254935Y0181321D02*
X0271967Y0181321D01*
X0273071Y0181713D02*
X0255335Y0181713D01*
X0255777Y0182105D02*
X0274175Y0182105D01*
X0275591Y0182497D02*
X0256218Y0182497D01*
X0256659Y0182889D02*
X0277187Y0182889D01*
X0279862Y0183282D02*
X0257100Y0183282D01*
X0257542Y0183674D02*
X0308095Y0183674D01*
X0307642Y0184066D02*
X0257983Y0184066D01*
X0258447Y0184458D02*
X0307146Y0184458D01*
X0306603Y0184850D02*
X0258973Y0184850D01*
X0259499Y0185243D02*
X0306060Y0185243D01*
X0305517Y0185635D02*
X0260025Y0185635D01*
X0260565Y0186027D02*
X0304974Y0186027D01*
X0304431Y0186419D02*
X0261181Y0186419D01*
X0261798Y0186811D02*
X0303888Y0186811D01*
X0303222Y0187204D02*
X0262414Y0187204D01*
X0263030Y0187596D02*
X0302550Y0187596D01*
X0301878Y0187988D02*
X0263768Y0187988D01*
X0264515Y0188380D02*
X0301205Y0188380D01*
X0300400Y0188773D02*
X0265261Y0188773D01*
X0266007Y0189165D02*
X0299545Y0189165D01*
X0298690Y0189557D02*
X0266870Y0189557D01*
X0267759Y0189949D02*
X0297836Y0189949D01*
X0296772Y0190341D02*
X0268648Y0190341D01*
X0269770Y0190734D02*
X0295661Y0190734D01*
X0294550Y0191126D02*
X0270947Y0191126D01*
X0272309Y0191518D02*
X0293113Y0191518D01*
X0291595Y0191910D02*
X0273796Y0191910D01*
X0275775Y0192302D02*
X0289633Y0192302D01*
X0286738Y0192695D02*
X0278570Y0192695D01*
X0285231Y0183282D02*
X0308549Y0183282D01*
X0309003Y0182889D02*
X0288097Y0182889D01*
X0289941Y0182497D02*
X0309456Y0182497D01*
X0309879Y0182105D02*
X0291507Y0182105D01*
X0292684Y0181713D02*
X0310258Y0181713D01*
X0310637Y0181321D02*
X0293795Y0181321D01*
X0294649Y0180928D02*
X0311015Y0180928D01*
X0311394Y0180536D02*
X0295504Y0180536D01*
X0296304Y0180144D02*
X0311773Y0180144D01*
X0312119Y0179752D02*
X0297021Y0179752D01*
X0297738Y0179359D02*
X0312443Y0179359D01*
X0312768Y0178967D02*
X0298401Y0178967D01*
X0299006Y0178575D02*
X0313092Y0178575D01*
X0313416Y0178183D02*
X0299611Y0178183D01*
X0300216Y0177791D02*
X0313740Y0177791D01*
X0314065Y0177398D02*
X0300692Y0177398D01*
X0301164Y0177006D02*
X0314385Y0177006D01*
X0314653Y0176614D02*
X0301636Y0176614D01*
X0302108Y0176222D02*
X0314921Y0176222D01*
X0315188Y0175830D02*
X0302580Y0175830D01*
X0303048Y0175437D02*
X0315456Y0175437D01*
X0315724Y0175045D02*
X0303432Y0175045D01*
X0303815Y0174653D02*
X0315992Y0174653D01*
X0316225Y0174261D02*
X0304199Y0174261D01*
X0304583Y0173868D02*
X0316447Y0173868D01*
X0316669Y0173476D02*
X0304942Y0173476D01*
X0305269Y0173084D02*
X0316890Y0173084D01*
X0317112Y0172692D02*
X0305596Y0172692D01*
X0305923Y0172300D02*
X0317334Y0172300D01*
X0317555Y0171907D02*
X0306250Y0171907D01*
X0306576Y0171515D02*
X0317750Y0171515D01*
X0317938Y0171123D02*
X0306874Y0171123D01*
X0307129Y0170731D02*
X0318126Y0170731D01*
X0318314Y0170339D02*
X0307383Y0170339D01*
X0307638Y0169946D02*
X0318502Y0169946D01*
X0318690Y0169554D02*
X0307893Y0169554D01*
X0308147Y0169162D02*
X0318878Y0169162D01*
X0319046Y0168770D02*
X0308402Y0168770D01*
X0219692Y0158999D02*
X0219967Y0155928D01*
X0220046Y0153054D01*
X0219849Y0149904D01*
X0219416Y0146715D01*
X0218747Y0143763D01*
X0217959Y0141164D01*
X0216621Y0137700D01*
X0215282Y0135022D01*
X0213747Y0132463D01*
X0212448Y0130534D01*
X0210873Y0128566D01*
X0208747Y0126204D01*
X0206739Y0124314D01*
X0204416Y0122424D01*
X0202015Y0120731D01*
X0198747Y0118841D01*
X0195794Y0117463D01*
X0192802Y0116400D01*
X0189416Y0115456D01*
X0186739Y0114944D01*
X0184180Y0114668D01*
X0184180Y0124274D01*
X0185873Y0124471D01*
X0188156Y0124944D01*
X0191070Y0125849D01*
X0193707Y0126952D01*
X0196345Y0128408D01*
X0199101Y0130298D01*
X0201896Y0132818D01*
X0203944Y0135062D01*
X0206030Y0138015D01*
X0207605Y0140928D01*
X0208786Y0143684D01*
X0209731Y0147109D01*
X0210282Y0149747D01*
X0210479Y0153369D01*
X0210361Y0156479D01*
X0209889Y0159668D01*
X0209259Y0162345D01*
X0208156Y0165298D01*
X0206739Y0168251D01*
X0204770Y0171282D01*
X0202802Y0173644D01*
X0201030Y0175456D01*
X0198235Y0177778D01*
X0196109Y0179156D01*
X0194022Y0180298D01*
X0191621Y0181400D01*
X0189377Y0182148D01*
X0186621Y0182818D01*
X0182881Y0183330D01*
X0180479Y0183408D01*
X0177920Y0183290D01*
X0174967Y0182857D01*
X0172408Y0182188D01*
X0169416Y0181125D01*
X0166385Y0179707D01*
X0163235Y0177660D01*
X0160952Y0175849D01*
X0158747Y0173605D01*
X0156621Y0171007D01*
X0155204Y0168763D01*
X0153865Y0166322D01*
X0152566Y0163093D01*
X0151621Y0159314D01*
X0151188Y0156322D01*
X0151109Y0153133D01*
X0151306Y0150180D01*
X0151818Y0146991D01*
X0152920Y0143448D01*
X0154180Y0140495D01*
X0155479Y0138054D01*
X0157920Y0134707D01*
X0160164Y0132306D01*
X0162290Y0130495D01*
X0163865Y0129314D01*
X0165046Y0128526D01*
X0167802Y0126952D01*
X0171739Y0125377D01*
X0174889Y0124589D01*
X0177251Y0124196D01*
X0177251Y0114747D01*
X0176503Y0114747D01*
X0173117Y0115259D01*
X0169770Y0116085D01*
X0166463Y0117188D01*
X0161936Y0119314D01*
X0159062Y0121085D01*
X0156267Y0123133D01*
X0153432Y0125692D01*
X0150952Y0128251D01*
X0148589Y0131322D01*
X0145873Y0135849D01*
X0143983Y0140219D01*
X0142526Y0145141D01*
X0141660Y0150731D01*
X0141581Y0154550D01*
X0141857Y0158369D01*
X0142330Y0161400D01*
X0142920Y0163881D01*
X0143826Y0166833D01*
X0145046Y0169865D01*
X0146542Y0172818D01*
X0148550Y0176085D01*
X0150912Y0179117D01*
X0153117Y0181519D01*
X0156306Y0184353D01*
X0158471Y0185967D01*
X0161070Y0187621D01*
X0164141Y0189235D01*
X0166818Y0190416D01*
X0169416Y0191282D01*
X0172251Y0192030D01*
X0175558Y0192621D01*
X0179337Y0192896D01*
X0182644Y0192896D01*
X0185912Y0192581D01*
X0188826Y0192109D01*
X0192330Y0191204D01*
X0195676Y0190022D01*
X0199022Y0188487D01*
X0201857Y0186833D01*
X0205400Y0184274D01*
X0207723Y0182267D01*
X0209928Y0179983D01*
X0212369Y0177030D01*
X0214062Y0174550D01*
X0215597Y0171833D01*
X0216975Y0168959D01*
X0218196Y0165692D01*
X0219141Y0162070D01*
X0219692Y0158999D01*
X0219695Y0158964D02*
X0209993Y0158964D01*
X0210051Y0158572D02*
X0219730Y0158572D01*
X0219765Y0158180D02*
X0210109Y0158180D01*
X0210167Y0157788D02*
X0219800Y0157788D01*
X0219836Y0157396D02*
X0210225Y0157396D01*
X0210283Y0157003D02*
X0219871Y0157003D01*
X0219906Y0156611D02*
X0210341Y0156611D01*
X0210371Y0156219D02*
X0219941Y0156219D01*
X0219970Y0155827D02*
X0210386Y0155827D01*
X0210401Y0155435D02*
X0219981Y0155435D01*
X0219992Y0155042D02*
X0210416Y0155042D01*
X0210430Y0154650D02*
X0220002Y0154650D01*
X0220013Y0154258D02*
X0210445Y0154258D01*
X0210460Y0153866D02*
X0220024Y0153866D01*
X0220035Y0153473D02*
X0210475Y0153473D01*
X0210464Y0153081D02*
X0220045Y0153081D01*
X0220023Y0152689D02*
X0210442Y0152689D01*
X0210421Y0152297D02*
X0219999Y0152297D01*
X0219974Y0151905D02*
X0210400Y0151905D01*
X0210378Y0151512D02*
X0219950Y0151512D01*
X0219925Y0151120D02*
X0210357Y0151120D01*
X0210336Y0150728D02*
X0219901Y0150728D01*
X0219876Y0150336D02*
X0210314Y0150336D01*
X0210293Y0149944D02*
X0219852Y0149944D01*
X0219801Y0149551D02*
X0210241Y0149551D01*
X0210159Y0149159D02*
X0219748Y0149159D01*
X0219695Y0148767D02*
X0210078Y0148767D01*
X0209996Y0148375D02*
X0219641Y0148375D01*
X0219588Y0147982D02*
X0209914Y0147982D01*
X0209832Y0147590D02*
X0219535Y0147590D01*
X0219482Y0147198D02*
X0209750Y0147198D01*
X0209647Y0146806D02*
X0219428Y0146806D01*
X0219348Y0146414D02*
X0209539Y0146414D01*
X0209431Y0146021D02*
X0219259Y0146021D01*
X0219170Y0145629D02*
X0209323Y0145629D01*
X0209215Y0145237D02*
X0219081Y0145237D01*
X0218992Y0144845D02*
X0209106Y0144845D01*
X0208998Y0144453D02*
X0218903Y0144453D01*
X0218814Y0144060D02*
X0208890Y0144060D01*
X0208779Y0143668D02*
X0218718Y0143668D01*
X0218599Y0143276D02*
X0208611Y0143276D01*
X0208443Y0142884D02*
X0218481Y0142884D01*
X0218362Y0142492D02*
X0208275Y0142492D01*
X0208107Y0142099D02*
X0218243Y0142099D01*
X0218124Y0141707D02*
X0207939Y0141707D01*
X0207771Y0141315D02*
X0218005Y0141315D01*
X0217866Y0140923D02*
X0207602Y0140923D01*
X0207390Y0140530D02*
X0217715Y0140530D01*
X0217563Y0140138D02*
X0207178Y0140138D01*
X0206966Y0139746D02*
X0217412Y0139746D01*
X0217260Y0139354D02*
X0206754Y0139354D01*
X0206542Y0138962D02*
X0217108Y0138962D01*
X0216957Y0138569D02*
X0206330Y0138569D01*
X0206118Y0138177D02*
X0216805Y0138177D01*
X0216654Y0137785D02*
X0205868Y0137785D01*
X0205591Y0137393D02*
X0216467Y0137393D01*
X0216271Y0137001D02*
X0205314Y0137001D01*
X0205037Y0136608D02*
X0216075Y0136608D01*
X0215879Y0136216D02*
X0204759Y0136216D01*
X0204482Y0135824D02*
X0215683Y0135824D01*
X0215487Y0135432D02*
X0204205Y0135432D01*
X0203923Y0135039D02*
X0215291Y0135039D01*
X0215057Y0134647D02*
X0203566Y0134647D01*
X0203208Y0134255D02*
X0214822Y0134255D01*
X0214587Y0133863D02*
X0202850Y0133863D01*
X0202492Y0133471D02*
X0214351Y0133471D01*
X0214116Y0133078D02*
X0202134Y0133078D01*
X0201751Y0132686D02*
X0213881Y0132686D01*
X0213633Y0132294D02*
X0201315Y0132294D01*
X0200880Y0131902D02*
X0213369Y0131902D01*
X0213104Y0131510D02*
X0200445Y0131510D01*
X0200010Y0131117D02*
X0212840Y0131117D01*
X0212576Y0130725D02*
X0199575Y0130725D01*
X0199140Y0130333D02*
X0212287Y0130333D01*
X0211973Y0129941D02*
X0198580Y0129941D01*
X0198008Y0129549D02*
X0211659Y0129549D01*
X0211345Y0129156D02*
X0197436Y0129156D01*
X0196864Y0128764D02*
X0211031Y0128764D01*
X0210698Y0128372D02*
X0196279Y0128372D01*
X0195569Y0127980D02*
X0210345Y0127980D01*
X0209992Y0127587D02*
X0194859Y0127587D01*
X0194149Y0127195D02*
X0209639Y0127195D01*
X0209286Y0126803D02*
X0193352Y0126803D01*
X0192414Y0126411D02*
X0208933Y0126411D01*
X0208550Y0126019D02*
X0191475Y0126019D01*
X0190353Y0125626D02*
X0208134Y0125626D01*
X0207717Y0125234D02*
X0189091Y0125234D01*
X0187665Y0124842D02*
X0207300Y0124842D01*
X0206883Y0124450D02*
X0185688Y0124450D01*
X0184180Y0124058D02*
X0206424Y0124058D01*
X0205942Y0123665D02*
X0184180Y0123665D01*
X0184180Y0123273D02*
X0205460Y0123273D01*
X0204978Y0122881D02*
X0184180Y0122881D01*
X0184180Y0122489D02*
X0204496Y0122489D01*
X0203951Y0122096D02*
X0184180Y0122096D01*
X0184180Y0121704D02*
X0203395Y0121704D01*
X0202839Y0121312D02*
X0184180Y0121312D01*
X0184180Y0120920D02*
X0202282Y0120920D01*
X0201663Y0120528D02*
X0184180Y0120528D01*
X0184180Y0120135D02*
X0200985Y0120135D01*
X0200306Y0119743D02*
X0184180Y0119743D01*
X0184180Y0119351D02*
X0199628Y0119351D01*
X0198950Y0118959D02*
X0184180Y0118959D01*
X0184180Y0118567D02*
X0198158Y0118567D01*
X0197318Y0118174D02*
X0184180Y0118174D01*
X0184180Y0117782D02*
X0196477Y0117782D01*
X0195587Y0117390D02*
X0184180Y0117390D01*
X0184180Y0116998D02*
X0194483Y0116998D01*
X0193379Y0116606D02*
X0184180Y0116606D01*
X0184180Y0116213D02*
X0192132Y0116213D01*
X0190726Y0115821D02*
X0184180Y0115821D01*
X0184180Y0115429D02*
X0189277Y0115429D01*
X0187225Y0115037D02*
X0184180Y0115037D01*
X0177251Y0115037D02*
X0174586Y0115037D01*
X0172428Y0115429D02*
X0177251Y0115429D01*
X0177251Y0115821D02*
X0170840Y0115821D01*
X0169387Y0116213D02*
X0177251Y0116213D01*
X0177251Y0116606D02*
X0168210Y0116606D01*
X0167034Y0116998D02*
X0177251Y0116998D01*
X0177251Y0117390D02*
X0166033Y0117390D01*
X0165198Y0117782D02*
X0177251Y0117782D01*
X0177251Y0118174D02*
X0164362Y0118174D01*
X0163527Y0118567D02*
X0177251Y0118567D01*
X0177251Y0118959D02*
X0162692Y0118959D01*
X0161875Y0119351D02*
X0177251Y0119351D01*
X0177251Y0119743D02*
X0161239Y0119743D01*
X0160603Y0120135D02*
X0177251Y0120135D01*
X0177251Y0120528D02*
X0159967Y0120528D01*
X0159330Y0120920D02*
X0177251Y0120920D01*
X0177251Y0121312D02*
X0158752Y0121312D01*
X0158217Y0121704D02*
X0177251Y0121704D01*
X0177251Y0122096D02*
X0157681Y0122096D01*
X0157146Y0122489D02*
X0177251Y0122489D01*
X0177251Y0122881D02*
X0156610Y0122881D01*
X0156111Y0123273D02*
X0177251Y0123273D01*
X0177251Y0123665D02*
X0155677Y0123665D01*
X0155242Y0124058D02*
X0177251Y0124058D01*
X0175726Y0124450D02*
X0154808Y0124450D01*
X0154373Y0124842D02*
X0173878Y0124842D01*
X0172309Y0125234D02*
X0153939Y0125234D01*
X0153504Y0125626D02*
X0171115Y0125626D01*
X0170134Y0126019D02*
X0153115Y0126019D01*
X0152735Y0126411D02*
X0169154Y0126411D01*
X0168173Y0126803D02*
X0152355Y0126803D01*
X0151975Y0127195D02*
X0167376Y0127195D01*
X0166689Y0127587D02*
X0151595Y0127587D01*
X0151214Y0127980D02*
X0166003Y0127980D01*
X0165316Y0128372D02*
X0150858Y0128372D01*
X0150557Y0128764D02*
X0164690Y0128764D01*
X0164101Y0129156D02*
X0150255Y0129156D01*
X0149953Y0129549D02*
X0163552Y0129549D01*
X0163029Y0129941D02*
X0149652Y0129941D01*
X0149350Y0130333D02*
X0162506Y0130333D01*
X0162020Y0130725D02*
X0149048Y0130725D01*
X0148747Y0131117D02*
X0161559Y0131117D01*
X0161099Y0131510D02*
X0148477Y0131510D01*
X0148241Y0131902D02*
X0160639Y0131902D01*
X0160178Y0132294D02*
X0148006Y0132294D01*
X0147771Y0132686D02*
X0159809Y0132686D01*
X0159442Y0133078D02*
X0147535Y0133078D01*
X0147300Y0133471D02*
X0159076Y0133471D01*
X0158709Y0133863D02*
X0147065Y0133863D01*
X0146829Y0134255D02*
X0158343Y0134255D01*
X0157976Y0134647D02*
X0146594Y0134647D01*
X0146359Y0135039D02*
X0157678Y0135039D01*
X0157392Y0135432D02*
X0146123Y0135432D01*
X0145888Y0135824D02*
X0157106Y0135824D01*
X0156820Y0136216D02*
X0145714Y0136216D01*
X0145545Y0136608D02*
X0156534Y0136608D01*
X0156248Y0137001D02*
X0145375Y0137001D01*
X0145205Y0137393D02*
X0155961Y0137393D01*
X0155675Y0137785D02*
X0145036Y0137785D01*
X0144866Y0138177D02*
X0155414Y0138177D01*
X0155205Y0138569D02*
X0144697Y0138569D01*
X0144527Y0138962D02*
X0154996Y0138962D01*
X0154787Y0139354D02*
X0144357Y0139354D01*
X0144188Y0139746D02*
X0154579Y0139746D01*
X0154370Y0140138D02*
X0144018Y0140138D01*
X0143891Y0140530D02*
X0154165Y0140530D01*
X0153997Y0140923D02*
X0143775Y0140923D01*
X0143659Y0141315D02*
X0153830Y0141315D01*
X0153663Y0141707D02*
X0143543Y0141707D01*
X0143427Y0142099D02*
X0153495Y0142099D01*
X0153328Y0142492D02*
X0143310Y0142492D01*
X0143194Y0142884D02*
X0153161Y0142884D01*
X0152993Y0143276D02*
X0143078Y0143276D01*
X0142962Y0143668D02*
X0152851Y0143668D01*
X0152729Y0144060D02*
X0142846Y0144060D01*
X0142730Y0144453D02*
X0152607Y0144453D01*
X0152485Y0144845D02*
X0142614Y0144845D01*
X0142511Y0145237D02*
X0152363Y0145237D01*
X0152241Y0145629D02*
X0142451Y0145629D01*
X0142390Y0146021D02*
X0152119Y0146021D01*
X0151997Y0146414D02*
X0142329Y0146414D01*
X0142268Y0146806D02*
X0151875Y0146806D01*
X0151784Y0147198D02*
X0142208Y0147198D01*
X0142147Y0147590D02*
X0151722Y0147590D01*
X0151659Y0147982D02*
X0142086Y0147982D01*
X0142025Y0148375D02*
X0151596Y0148375D01*
X0151533Y0148767D02*
X0141965Y0148767D01*
X0141904Y0149159D02*
X0151470Y0149159D01*
X0151407Y0149551D02*
X0141843Y0149551D01*
X0141782Y0149944D02*
X0151344Y0149944D01*
X0151296Y0150336D02*
X0141721Y0150336D01*
X0141661Y0150728D02*
X0151269Y0150728D01*
X0151243Y0151120D02*
X0141652Y0151120D01*
X0141644Y0151512D02*
X0151217Y0151512D01*
X0151191Y0151905D02*
X0141636Y0151905D01*
X0141628Y0152297D02*
X0151165Y0152297D01*
X0151139Y0152689D02*
X0141620Y0152689D01*
X0141612Y0153081D02*
X0151112Y0153081D01*
X0151117Y0153473D02*
X0141604Y0153473D01*
X0141596Y0153866D02*
X0151127Y0153866D01*
X0151137Y0154258D02*
X0141588Y0154258D01*
X0141589Y0154650D02*
X0151147Y0154650D01*
X0151156Y0155042D02*
X0141617Y0155042D01*
X0141645Y0155435D02*
X0151166Y0155435D01*
X0151176Y0155827D02*
X0141674Y0155827D01*
X0141702Y0156219D02*
X0151185Y0156219D01*
X0151230Y0156611D02*
X0141730Y0156611D01*
X0141759Y0157003D02*
X0151286Y0157003D01*
X0151343Y0157396D02*
X0141787Y0157396D01*
X0141815Y0157788D02*
X0151400Y0157788D01*
X0151457Y0158180D02*
X0141843Y0158180D01*
X0141889Y0158572D02*
X0151514Y0158572D01*
X0151570Y0158964D02*
X0141950Y0158964D01*
X0142011Y0159357D02*
X0151632Y0159357D01*
X0151730Y0159749D02*
X0142072Y0159749D01*
X0142133Y0160141D02*
X0151828Y0160141D01*
X0151926Y0160533D02*
X0142194Y0160533D01*
X0142256Y0160925D02*
X0152024Y0160925D01*
X0152122Y0161318D02*
X0142317Y0161318D01*
X0142403Y0161710D02*
X0152220Y0161710D01*
X0152318Y0162102D02*
X0142497Y0162102D01*
X0142590Y0162494D02*
X0152416Y0162494D01*
X0152514Y0162887D02*
X0142683Y0162887D01*
X0142777Y0163279D02*
X0152640Y0163279D01*
X0152798Y0163671D02*
X0142870Y0163671D01*
X0142976Y0164063D02*
X0152956Y0164063D01*
X0153114Y0164455D02*
X0143096Y0164455D01*
X0143217Y0164848D02*
X0153272Y0164848D01*
X0153430Y0165240D02*
X0143337Y0165240D01*
X0143457Y0165632D02*
X0153587Y0165632D01*
X0153745Y0166024D02*
X0143577Y0166024D01*
X0143698Y0166416D02*
X0153917Y0166416D01*
X0154132Y0166809D02*
X0143818Y0166809D01*
X0143974Y0167201D02*
X0154347Y0167201D01*
X0154562Y0167593D02*
X0144131Y0167593D01*
X0144289Y0167985D02*
X0154777Y0167985D01*
X0154992Y0168378D02*
X0144447Y0168378D01*
X0144605Y0168770D02*
X0155208Y0168770D01*
X0155456Y0169162D02*
X0144763Y0169162D01*
X0144921Y0169554D02*
X0155703Y0169554D01*
X0155951Y0169946D02*
X0145087Y0169946D01*
X0145286Y0170339D02*
X0156199Y0170339D01*
X0156447Y0170731D02*
X0145485Y0170731D01*
X0145683Y0171123D02*
X0156716Y0171123D01*
X0157037Y0171515D02*
X0145882Y0171515D01*
X0146081Y0171907D02*
X0157358Y0171907D01*
X0157679Y0172300D02*
X0146280Y0172300D01*
X0146478Y0172692D02*
X0158000Y0172692D01*
X0158321Y0173084D02*
X0146706Y0173084D01*
X0146947Y0173476D02*
X0158641Y0173476D01*
X0159006Y0173868D02*
X0147188Y0173868D01*
X0147429Y0174261D02*
X0159391Y0174261D01*
X0159776Y0174653D02*
X0147670Y0174653D01*
X0147911Y0175045D02*
X0160162Y0175045D01*
X0160547Y0175437D02*
X0148152Y0175437D01*
X0148393Y0175830D02*
X0160932Y0175830D01*
X0161421Y0176222D02*
X0148656Y0176222D01*
X0148962Y0176614D02*
X0161916Y0176614D01*
X0162410Y0177006D02*
X0149267Y0177006D01*
X0149573Y0177398D02*
X0162905Y0177398D01*
X0163436Y0177791D02*
X0149879Y0177791D01*
X0150184Y0178183D02*
X0164039Y0178183D01*
X0164642Y0178575D02*
X0150490Y0178575D01*
X0150796Y0178967D02*
X0165246Y0178967D01*
X0165849Y0179359D02*
X0151135Y0179359D01*
X0151495Y0179752D02*
X0166479Y0179752D01*
X0167318Y0180144D02*
X0151855Y0180144D01*
X0152215Y0180536D02*
X0168157Y0180536D01*
X0168996Y0180928D02*
X0152575Y0180928D01*
X0152935Y0181321D02*
X0169967Y0181321D01*
X0171071Y0181713D02*
X0153335Y0181713D01*
X0153777Y0182105D02*
X0172175Y0182105D01*
X0173591Y0182497D02*
X0154218Y0182497D01*
X0154659Y0182889D02*
X0175187Y0182889D01*
X0177862Y0183282D02*
X0155100Y0183282D01*
X0155542Y0183674D02*
X0206095Y0183674D01*
X0205642Y0184066D02*
X0155983Y0184066D01*
X0156447Y0184458D02*
X0205146Y0184458D01*
X0204603Y0184850D02*
X0156973Y0184850D01*
X0157499Y0185243D02*
X0204060Y0185243D01*
X0203517Y0185635D02*
X0158025Y0185635D01*
X0158565Y0186027D02*
X0202974Y0186027D01*
X0202431Y0186419D02*
X0159181Y0186419D01*
X0159798Y0186811D02*
X0201888Y0186811D01*
X0201222Y0187204D02*
X0160414Y0187204D01*
X0161030Y0187596D02*
X0200550Y0187596D01*
X0199878Y0187988D02*
X0161768Y0187988D01*
X0162515Y0188380D02*
X0199205Y0188380D01*
X0198400Y0188773D02*
X0163261Y0188773D01*
X0164007Y0189165D02*
X0197545Y0189165D01*
X0196690Y0189557D02*
X0164870Y0189557D01*
X0165759Y0189949D02*
X0195836Y0189949D01*
X0194772Y0190341D02*
X0166648Y0190341D01*
X0167770Y0190734D02*
X0193661Y0190734D01*
X0192550Y0191126D02*
X0168947Y0191126D01*
X0170309Y0191518D02*
X0191113Y0191518D01*
X0189595Y0191910D02*
X0171796Y0191910D01*
X0173775Y0192302D02*
X0187633Y0192302D01*
X0184738Y0192695D02*
X0176570Y0192695D01*
X0183231Y0183282D02*
X0206549Y0183282D01*
X0207003Y0182889D02*
X0186097Y0182889D01*
X0187941Y0182497D02*
X0207456Y0182497D01*
X0207879Y0182105D02*
X0189507Y0182105D01*
X0190684Y0181713D02*
X0208258Y0181713D01*
X0208637Y0181321D02*
X0191795Y0181321D01*
X0192649Y0180928D02*
X0209015Y0180928D01*
X0209394Y0180536D02*
X0193504Y0180536D01*
X0194304Y0180144D02*
X0209773Y0180144D01*
X0210119Y0179752D02*
X0195021Y0179752D01*
X0195738Y0179359D02*
X0210443Y0179359D01*
X0210768Y0178967D02*
X0196401Y0178967D01*
X0197006Y0178575D02*
X0211092Y0178575D01*
X0211416Y0178183D02*
X0197611Y0178183D01*
X0198216Y0177791D02*
X0211740Y0177791D01*
X0212065Y0177398D02*
X0198692Y0177398D01*
X0199164Y0177006D02*
X0212385Y0177006D01*
X0212653Y0176614D02*
X0199636Y0176614D01*
X0200108Y0176222D02*
X0212921Y0176222D01*
X0213188Y0175830D02*
X0200580Y0175830D01*
X0201048Y0175437D02*
X0213456Y0175437D01*
X0213724Y0175045D02*
X0201432Y0175045D01*
X0201815Y0174653D02*
X0213992Y0174653D01*
X0214225Y0174261D02*
X0202199Y0174261D01*
X0202583Y0173868D02*
X0214447Y0173868D01*
X0214669Y0173476D02*
X0202942Y0173476D01*
X0203269Y0173084D02*
X0214890Y0173084D01*
X0215112Y0172692D02*
X0203596Y0172692D01*
X0203923Y0172300D02*
X0215334Y0172300D01*
X0215555Y0171907D02*
X0204250Y0171907D01*
X0204576Y0171515D02*
X0215750Y0171515D01*
X0215938Y0171123D02*
X0204874Y0171123D01*
X0205129Y0170731D02*
X0216126Y0170731D01*
X0216314Y0170339D02*
X0205383Y0170339D01*
X0205638Y0169946D02*
X0216502Y0169946D01*
X0216690Y0169554D02*
X0205893Y0169554D01*
X0206147Y0169162D02*
X0216878Y0169162D01*
X0217046Y0168770D02*
X0206402Y0168770D01*
X0206657Y0168378D02*
X0217193Y0168378D01*
X0217339Y0167985D02*
X0206866Y0167985D01*
X0207055Y0167593D02*
X0217486Y0167593D01*
X0217632Y0167201D02*
X0207243Y0167201D01*
X0207431Y0166809D02*
X0217779Y0166809D01*
X0217925Y0166416D02*
X0207619Y0166416D01*
X0207808Y0166024D02*
X0218071Y0166024D01*
X0218211Y0165632D02*
X0207996Y0165632D01*
X0208178Y0165240D02*
X0218314Y0165240D01*
X0218416Y0164848D02*
X0208324Y0164848D01*
X0208471Y0164455D02*
X0218518Y0164455D01*
X0218621Y0164063D02*
X0208617Y0164063D01*
X0208764Y0163671D02*
X0218723Y0163671D01*
X0218825Y0163279D02*
X0208910Y0163279D01*
X0209057Y0162887D02*
X0218927Y0162887D01*
X0219030Y0162494D02*
X0209203Y0162494D01*
X0209316Y0162102D02*
X0219132Y0162102D01*
X0219205Y0161710D02*
X0209408Y0161710D01*
X0209500Y0161318D02*
X0219276Y0161318D01*
X0219346Y0160925D02*
X0209593Y0160925D01*
X0209685Y0160533D02*
X0219416Y0160533D01*
X0219487Y0160141D02*
X0209777Y0160141D01*
X0209870Y0159749D02*
X0219557Y0159749D01*
X0219628Y0159357D02*
X0209935Y0159357D01*
X0117967Y0155928D02*
X0118046Y0153054D01*
X0117849Y0149904D01*
X0117416Y0146715D01*
X0116747Y0143763D01*
X0115959Y0141164D01*
X0114621Y0137700D01*
X0113282Y0135022D01*
X0111747Y0132463D01*
X0110448Y0130534D01*
X0108873Y0128566D01*
X0106747Y0126204D01*
X0104739Y0124314D01*
X0102416Y0122424D01*
X0100015Y0120731D01*
X0096747Y0118841D01*
X0093794Y0117463D01*
X0090802Y0116400D01*
X0087416Y0115456D01*
X0084739Y0114944D01*
X0082180Y0114668D01*
X0082180Y0124274D01*
X0083873Y0124471D01*
X0086156Y0124944D01*
X0089070Y0125849D01*
X0091707Y0126952D01*
X0094345Y0128408D01*
X0097101Y0130298D01*
X0099896Y0132818D01*
X0101944Y0135062D01*
X0104030Y0138015D01*
X0105605Y0140928D01*
X0106786Y0143684D01*
X0107731Y0147109D01*
X0108282Y0149747D01*
X0108479Y0153369D01*
X0108361Y0156479D01*
X0107889Y0159668D01*
X0107259Y0162345D01*
X0106156Y0165298D01*
X0104739Y0168251D01*
X0102770Y0171282D01*
X0100802Y0173644D01*
X0099030Y0175456D01*
X0096235Y0177778D01*
X0094109Y0179156D01*
X0092022Y0180298D01*
X0089621Y0181400D01*
X0087377Y0182148D01*
X0084621Y0182818D01*
X0080881Y0183330D01*
X0078479Y0183408D01*
X0075920Y0183290D01*
X0072967Y0182857D01*
X0070408Y0182188D01*
X0067416Y0181125D01*
X0064385Y0179707D01*
X0061235Y0177660D01*
X0058952Y0175849D01*
X0056747Y0173605D01*
X0054621Y0171007D01*
X0053204Y0168763D01*
X0051865Y0166322D01*
X0050566Y0163093D01*
X0049621Y0159314D01*
X0049188Y0156322D01*
X0049109Y0153133D01*
X0049306Y0150180D01*
X0049818Y0146991D01*
X0050920Y0143448D01*
X0052180Y0140495D01*
X0053479Y0138054D01*
X0055920Y0134707D01*
X0058164Y0132306D01*
X0060290Y0130495D01*
X0061865Y0129314D01*
X0063046Y0128526D01*
X0065802Y0126952D01*
X0069739Y0125377D01*
X0072889Y0124589D01*
X0075251Y0124196D01*
X0075251Y0114747D01*
X0074503Y0114747D01*
X0071117Y0115259D01*
X0067770Y0116085D01*
X0064463Y0117188D01*
X0059936Y0119314D01*
X0057062Y0121085D01*
X0054267Y0123133D01*
X0051432Y0125692D01*
X0048952Y0128251D01*
X0046589Y0131322D01*
X0043873Y0135849D01*
X0041983Y0140219D01*
X0040526Y0145141D01*
X0039660Y0150731D01*
X0039581Y0154550D01*
X0039857Y0158369D01*
X0040330Y0161400D01*
X0040920Y0163881D01*
X0041826Y0166833D01*
X0043046Y0169865D01*
X0044542Y0172818D01*
X0046550Y0176085D01*
X0048912Y0179117D01*
X0051117Y0181519D01*
X0054306Y0184353D01*
X0056471Y0185967D01*
X0059070Y0187621D01*
X0062141Y0189235D01*
X0064818Y0190416D01*
X0067416Y0191282D01*
X0070251Y0192030D01*
X0073558Y0192621D01*
X0077337Y0192896D01*
X0080644Y0192896D01*
X0083912Y0192581D01*
X0086826Y0192109D01*
X0090330Y0191204D01*
X0093676Y0190022D01*
X0097022Y0188487D01*
X0099857Y0186833D01*
X0103400Y0184274D01*
X0105723Y0182267D01*
X0107928Y0179983D01*
X0110369Y0177030D01*
X0112062Y0174550D01*
X0113597Y0171833D01*
X0114975Y0168959D01*
X0116196Y0165692D01*
X0117141Y0162070D01*
X0117692Y0158999D01*
X0117967Y0155928D01*
X0117970Y0155827D02*
X0108386Y0155827D01*
X0108371Y0156219D02*
X0117941Y0156219D01*
X0117906Y0156611D02*
X0108341Y0156611D01*
X0108283Y0157003D02*
X0117871Y0157003D01*
X0117836Y0157396D02*
X0108225Y0157396D01*
X0108167Y0157788D02*
X0117800Y0157788D01*
X0117765Y0158180D02*
X0108109Y0158180D01*
X0108051Y0158572D02*
X0117730Y0158572D01*
X0117695Y0158964D02*
X0107993Y0158964D01*
X0107935Y0159357D02*
X0117628Y0159357D01*
X0117557Y0159749D02*
X0107870Y0159749D01*
X0107777Y0160141D02*
X0117487Y0160141D01*
X0117416Y0160533D02*
X0107685Y0160533D01*
X0107593Y0160925D02*
X0117346Y0160925D01*
X0117276Y0161318D02*
X0107500Y0161318D01*
X0107408Y0161710D02*
X0117205Y0161710D01*
X0117132Y0162102D02*
X0107316Y0162102D01*
X0107203Y0162494D02*
X0117030Y0162494D01*
X0116927Y0162887D02*
X0107057Y0162887D01*
X0106910Y0163279D02*
X0116825Y0163279D01*
X0116723Y0163671D02*
X0106764Y0163671D01*
X0106617Y0164063D02*
X0116621Y0164063D01*
X0116518Y0164455D02*
X0106471Y0164455D01*
X0106324Y0164848D02*
X0116416Y0164848D01*
X0116314Y0165240D02*
X0106178Y0165240D01*
X0105996Y0165632D02*
X0116211Y0165632D01*
X0116071Y0166024D02*
X0105808Y0166024D01*
X0105619Y0166416D02*
X0115925Y0166416D01*
X0115779Y0166809D02*
X0105431Y0166809D01*
X0105243Y0167201D02*
X0115632Y0167201D01*
X0115486Y0167593D02*
X0105055Y0167593D01*
X0104866Y0167985D02*
X0115339Y0167985D01*
X0115193Y0168378D02*
X0104657Y0168378D01*
X0104402Y0168770D02*
X0115046Y0168770D01*
X0114878Y0169162D02*
X0104147Y0169162D01*
X0103893Y0169554D02*
X0114690Y0169554D01*
X0114502Y0169946D02*
X0103638Y0169946D01*
X0103383Y0170339D02*
X0114314Y0170339D01*
X0114126Y0170731D02*
X0103129Y0170731D01*
X0102874Y0171123D02*
X0113938Y0171123D01*
X0113750Y0171515D02*
X0102576Y0171515D01*
X0102250Y0171907D02*
X0113555Y0171907D01*
X0113334Y0172300D02*
X0101923Y0172300D01*
X0101596Y0172692D02*
X0113112Y0172692D01*
X0112890Y0173084D02*
X0101269Y0173084D01*
X0100942Y0173476D02*
X0112669Y0173476D01*
X0112447Y0173868D02*
X0100583Y0173868D01*
X0100199Y0174261D02*
X0112225Y0174261D01*
X0111992Y0174653D02*
X0099815Y0174653D01*
X0099432Y0175045D02*
X0111724Y0175045D01*
X0111456Y0175437D02*
X0099048Y0175437D01*
X0098580Y0175830D02*
X0111188Y0175830D01*
X0110921Y0176222D02*
X0098108Y0176222D01*
X0097636Y0176614D02*
X0110653Y0176614D01*
X0110385Y0177006D02*
X0097164Y0177006D01*
X0096692Y0177398D02*
X0110065Y0177398D01*
X0109740Y0177791D02*
X0096216Y0177791D01*
X0095611Y0178183D02*
X0109416Y0178183D01*
X0109092Y0178575D02*
X0095006Y0178575D01*
X0094401Y0178967D02*
X0108768Y0178967D01*
X0108443Y0179359D02*
X0093738Y0179359D01*
X0093021Y0179752D02*
X0108119Y0179752D01*
X0107773Y0180144D02*
X0092304Y0180144D01*
X0091504Y0180536D02*
X0107394Y0180536D01*
X0107015Y0180928D02*
X0090649Y0180928D01*
X0089795Y0181321D02*
X0106637Y0181321D01*
X0106258Y0181713D02*
X0088684Y0181713D01*
X0087507Y0182105D02*
X0105879Y0182105D01*
X0105456Y0182497D02*
X0085941Y0182497D01*
X0084097Y0182889D02*
X0105003Y0182889D01*
X0104549Y0183282D02*
X0081231Y0183282D01*
X0075862Y0183282D02*
X0053100Y0183282D01*
X0053542Y0183674D02*
X0104095Y0183674D01*
X0103642Y0184066D02*
X0053983Y0184066D01*
X0054447Y0184458D02*
X0103146Y0184458D01*
X0102603Y0184850D02*
X0054973Y0184850D01*
X0055499Y0185243D02*
X0102060Y0185243D01*
X0101517Y0185635D02*
X0056025Y0185635D01*
X0056565Y0186027D02*
X0100974Y0186027D01*
X0100431Y0186419D02*
X0057181Y0186419D01*
X0057798Y0186811D02*
X0099888Y0186811D01*
X0099222Y0187204D02*
X0058414Y0187204D01*
X0059030Y0187596D02*
X0098550Y0187596D01*
X0097878Y0187988D02*
X0059768Y0187988D01*
X0060515Y0188380D02*
X0097205Y0188380D01*
X0096400Y0188773D02*
X0061261Y0188773D01*
X0062007Y0189165D02*
X0095545Y0189165D01*
X0094690Y0189557D02*
X0062870Y0189557D01*
X0063759Y0189949D02*
X0093836Y0189949D01*
X0092772Y0190341D02*
X0064648Y0190341D01*
X0065770Y0190734D02*
X0091661Y0190734D01*
X0090550Y0191126D02*
X0066947Y0191126D01*
X0068309Y0191518D02*
X0089113Y0191518D01*
X0087595Y0191910D02*
X0069796Y0191910D01*
X0071775Y0192302D02*
X0085633Y0192302D01*
X0082738Y0192695D02*
X0074570Y0192695D01*
X0073187Y0182889D02*
X0052659Y0182889D01*
X0052218Y0182497D02*
X0071591Y0182497D01*
X0070175Y0182105D02*
X0051777Y0182105D01*
X0051335Y0181713D02*
X0069071Y0181713D01*
X0067967Y0181321D02*
X0050935Y0181321D01*
X0050575Y0180928D02*
X0066996Y0180928D01*
X0066157Y0180536D02*
X0050215Y0180536D01*
X0049855Y0180144D02*
X0065318Y0180144D01*
X0064479Y0179752D02*
X0049495Y0179752D01*
X0049135Y0179359D02*
X0063849Y0179359D01*
X0063246Y0178967D02*
X0048796Y0178967D01*
X0048490Y0178575D02*
X0062642Y0178575D01*
X0062039Y0178183D02*
X0048184Y0178183D01*
X0047879Y0177791D02*
X0061436Y0177791D01*
X0060905Y0177398D02*
X0047573Y0177398D01*
X0047267Y0177006D02*
X0060410Y0177006D01*
X0059916Y0176614D02*
X0046962Y0176614D01*
X0046656Y0176222D02*
X0059421Y0176222D01*
X0058932Y0175830D02*
X0046393Y0175830D01*
X0046152Y0175437D02*
X0058547Y0175437D01*
X0058162Y0175045D02*
X0045911Y0175045D01*
X0045670Y0174653D02*
X0057776Y0174653D01*
X0057391Y0174261D02*
X0045429Y0174261D01*
X0045188Y0173868D02*
X0057006Y0173868D01*
X0056641Y0173476D02*
X0044947Y0173476D01*
X0044706Y0173084D02*
X0056321Y0173084D01*
X0056000Y0172692D02*
X0044478Y0172692D01*
X0044280Y0172300D02*
X0055679Y0172300D01*
X0055358Y0171907D02*
X0044081Y0171907D01*
X0043882Y0171515D02*
X0055037Y0171515D01*
X0054716Y0171123D02*
X0043683Y0171123D01*
X0043485Y0170731D02*
X0054447Y0170731D01*
X0054199Y0170339D02*
X0043286Y0170339D01*
X0043087Y0169946D02*
X0053951Y0169946D01*
X0053703Y0169554D02*
X0042921Y0169554D01*
X0042763Y0169162D02*
X0053456Y0169162D01*
X0053208Y0168770D02*
X0042605Y0168770D01*
X0042447Y0168378D02*
X0052992Y0168378D01*
X0052777Y0167985D02*
X0042289Y0167985D01*
X0042131Y0167593D02*
X0052562Y0167593D01*
X0052347Y0167201D02*
X0041974Y0167201D01*
X0041818Y0166809D02*
X0052132Y0166809D01*
X0051917Y0166416D02*
X0041698Y0166416D01*
X0041577Y0166024D02*
X0051745Y0166024D01*
X0051587Y0165632D02*
X0041457Y0165632D01*
X0041337Y0165240D02*
X0051430Y0165240D01*
X0051272Y0164848D02*
X0041217Y0164848D01*
X0041096Y0164455D02*
X0051114Y0164455D01*
X0050956Y0164063D02*
X0040976Y0164063D01*
X0040870Y0163671D02*
X0050798Y0163671D01*
X0050640Y0163279D02*
X0040777Y0163279D01*
X0040683Y0162887D02*
X0050514Y0162887D01*
X0050416Y0162494D02*
X0040590Y0162494D01*
X0040497Y0162102D02*
X0050318Y0162102D01*
X0050220Y0161710D02*
X0040403Y0161710D01*
X0040317Y0161318D02*
X0050122Y0161318D01*
X0050024Y0160925D02*
X0040256Y0160925D01*
X0040194Y0160533D02*
X0049926Y0160533D01*
X0049828Y0160141D02*
X0040133Y0160141D01*
X0040072Y0159749D02*
X0049730Y0159749D01*
X0049632Y0159357D02*
X0040011Y0159357D01*
X0039950Y0158964D02*
X0049570Y0158964D01*
X0049514Y0158572D02*
X0039889Y0158572D01*
X0039843Y0158180D02*
X0049457Y0158180D01*
X0049400Y0157788D02*
X0039815Y0157788D01*
X0039787Y0157396D02*
X0049343Y0157396D01*
X0049286Y0157003D02*
X0039759Y0157003D01*
X0039730Y0156611D02*
X0049230Y0156611D01*
X0049185Y0156219D02*
X0039702Y0156219D01*
X0039674Y0155827D02*
X0049176Y0155827D01*
X0049166Y0155435D02*
X0039645Y0155435D01*
X0039617Y0155042D02*
X0049156Y0155042D01*
X0049147Y0154650D02*
X0039589Y0154650D01*
X0039588Y0154258D02*
X0049137Y0154258D01*
X0049127Y0153866D02*
X0039596Y0153866D01*
X0039604Y0153473D02*
X0049117Y0153473D01*
X0049112Y0153081D02*
X0039612Y0153081D01*
X0039620Y0152689D02*
X0049139Y0152689D01*
X0049165Y0152297D02*
X0039628Y0152297D01*
X0039636Y0151905D02*
X0049191Y0151905D01*
X0049217Y0151512D02*
X0039644Y0151512D01*
X0039652Y0151120D02*
X0049243Y0151120D01*
X0049269Y0150728D02*
X0039661Y0150728D01*
X0039721Y0150336D02*
X0049296Y0150336D01*
X0049344Y0149944D02*
X0039782Y0149944D01*
X0039843Y0149551D02*
X0049407Y0149551D01*
X0049470Y0149159D02*
X0039904Y0149159D01*
X0039965Y0148767D02*
X0049533Y0148767D01*
X0049596Y0148375D02*
X0040025Y0148375D01*
X0040086Y0147982D02*
X0049659Y0147982D01*
X0049722Y0147590D02*
X0040147Y0147590D01*
X0040208Y0147198D02*
X0049784Y0147198D01*
X0049875Y0146806D02*
X0040268Y0146806D01*
X0040329Y0146414D02*
X0049997Y0146414D01*
X0050119Y0146021D02*
X0040390Y0146021D01*
X0040451Y0145629D02*
X0050241Y0145629D01*
X0050363Y0145237D02*
X0040511Y0145237D01*
X0040614Y0144845D02*
X0050485Y0144845D01*
X0050607Y0144453D02*
X0040730Y0144453D01*
X0040846Y0144060D02*
X0050729Y0144060D01*
X0050851Y0143668D02*
X0040962Y0143668D01*
X0041078Y0143276D02*
X0050993Y0143276D01*
X0051161Y0142884D02*
X0041194Y0142884D01*
X0041310Y0142492D02*
X0051328Y0142492D01*
X0051495Y0142099D02*
X0041427Y0142099D01*
X0041543Y0141707D02*
X0051663Y0141707D01*
X0051830Y0141315D02*
X0041659Y0141315D01*
X0041775Y0140923D02*
X0051997Y0140923D01*
X0052165Y0140530D02*
X0041891Y0140530D01*
X0042018Y0140138D02*
X0052370Y0140138D01*
X0052579Y0139746D02*
X0042188Y0139746D01*
X0042357Y0139354D02*
X0052787Y0139354D01*
X0052996Y0138962D02*
X0042527Y0138962D01*
X0042697Y0138569D02*
X0053205Y0138569D01*
X0053414Y0138177D02*
X0042866Y0138177D01*
X0043036Y0137785D02*
X0053675Y0137785D01*
X0053961Y0137393D02*
X0043205Y0137393D01*
X0043375Y0137001D02*
X0054248Y0137001D01*
X0054534Y0136608D02*
X0043545Y0136608D01*
X0043714Y0136216D02*
X0054820Y0136216D01*
X0055106Y0135824D02*
X0043888Y0135824D01*
X0044123Y0135432D02*
X0055392Y0135432D01*
X0055678Y0135039D02*
X0044359Y0135039D01*
X0044594Y0134647D02*
X0055976Y0134647D01*
X0056343Y0134255D02*
X0044829Y0134255D01*
X0045065Y0133863D02*
X0056709Y0133863D01*
X0057076Y0133471D02*
X0045300Y0133471D01*
X0045535Y0133078D02*
X0057442Y0133078D01*
X0057809Y0132686D02*
X0045771Y0132686D01*
X0046006Y0132294D02*
X0058178Y0132294D01*
X0058639Y0131902D02*
X0046241Y0131902D01*
X0046477Y0131510D02*
X0059099Y0131510D01*
X0059559Y0131117D02*
X0046747Y0131117D01*
X0047048Y0130725D02*
X0060020Y0130725D01*
X0060506Y0130333D02*
X0047350Y0130333D01*
X0047652Y0129941D02*
X0061029Y0129941D01*
X0061552Y0129549D02*
X0047953Y0129549D01*
X0048255Y0129156D02*
X0062101Y0129156D01*
X0062690Y0128764D02*
X0048557Y0128764D01*
X0048858Y0128372D02*
X0063316Y0128372D01*
X0064003Y0127980D02*
X0049214Y0127980D01*
X0049595Y0127587D02*
X0064689Y0127587D01*
X0065376Y0127195D02*
X0049975Y0127195D01*
X0050355Y0126803D02*
X0066173Y0126803D01*
X0067154Y0126411D02*
X0050735Y0126411D01*
X0051115Y0126019D02*
X0068134Y0126019D01*
X0069115Y0125626D02*
X0051504Y0125626D01*
X0051939Y0125234D02*
X0070309Y0125234D01*
X0071878Y0124842D02*
X0052373Y0124842D01*
X0052808Y0124450D02*
X0073726Y0124450D01*
X0075251Y0124058D02*
X0053242Y0124058D01*
X0053677Y0123665D02*
X0075251Y0123665D01*
X0075251Y0123273D02*
X0054111Y0123273D01*
X0054610Y0122881D02*
X0075251Y0122881D01*
X0075251Y0122489D02*
X0055146Y0122489D01*
X0055681Y0122096D02*
X0075251Y0122096D01*
X0075251Y0121704D02*
X0056217Y0121704D01*
X0056752Y0121312D02*
X0075251Y0121312D01*
X0075251Y0120920D02*
X0057330Y0120920D01*
X0057967Y0120528D02*
X0075251Y0120528D01*
X0075251Y0120135D02*
X0058603Y0120135D01*
X0059239Y0119743D02*
X0075251Y0119743D01*
X0075251Y0119351D02*
X0059875Y0119351D01*
X0060692Y0118959D02*
X0075251Y0118959D01*
X0075251Y0118567D02*
X0061527Y0118567D01*
X0062362Y0118174D02*
X0075251Y0118174D01*
X0075251Y0117782D02*
X0063198Y0117782D01*
X0064033Y0117390D02*
X0075251Y0117390D01*
X0075251Y0116998D02*
X0065034Y0116998D01*
X0066210Y0116606D02*
X0075251Y0116606D01*
X0075251Y0116213D02*
X0067387Y0116213D01*
X0068840Y0115821D02*
X0075251Y0115821D01*
X0075251Y0115429D02*
X0070428Y0115429D01*
X0072586Y0115037D02*
X0075251Y0115037D01*
X0082180Y0115037D02*
X0085225Y0115037D01*
X0087277Y0115429D02*
X0082180Y0115429D01*
X0082180Y0115821D02*
X0088726Y0115821D01*
X0090132Y0116213D02*
X0082180Y0116213D01*
X0082180Y0116606D02*
X0091379Y0116606D01*
X0092483Y0116998D02*
X0082180Y0116998D01*
X0082180Y0117390D02*
X0093587Y0117390D01*
X0094477Y0117782D02*
X0082180Y0117782D01*
X0082180Y0118174D02*
X0095318Y0118174D01*
X0096158Y0118567D02*
X0082180Y0118567D01*
X0082180Y0118959D02*
X0096950Y0118959D01*
X0097628Y0119351D02*
X0082180Y0119351D01*
X0082180Y0119743D02*
X0098306Y0119743D01*
X0098985Y0120135D02*
X0082180Y0120135D01*
X0082180Y0120528D02*
X0099663Y0120528D01*
X0100282Y0120920D02*
X0082180Y0120920D01*
X0082180Y0121312D02*
X0100839Y0121312D01*
X0101395Y0121704D02*
X0082180Y0121704D01*
X0082180Y0122096D02*
X0101951Y0122096D01*
X0102496Y0122489D02*
X0082180Y0122489D01*
X0082180Y0122881D02*
X0102978Y0122881D01*
X0103460Y0123273D02*
X0082180Y0123273D01*
X0082180Y0123665D02*
X0103942Y0123665D01*
X0104424Y0124058D02*
X0082180Y0124058D01*
X0083688Y0124450D02*
X0104883Y0124450D01*
X0105300Y0124842D02*
X0085665Y0124842D01*
X0087091Y0125234D02*
X0105717Y0125234D01*
X0106134Y0125626D02*
X0088353Y0125626D01*
X0089475Y0126019D02*
X0106550Y0126019D01*
X0106933Y0126411D02*
X0090414Y0126411D01*
X0091352Y0126803D02*
X0107286Y0126803D01*
X0107639Y0127195D02*
X0092149Y0127195D01*
X0092859Y0127587D02*
X0107992Y0127587D01*
X0108345Y0127980D02*
X0093569Y0127980D01*
X0094279Y0128372D02*
X0108698Y0128372D01*
X0109031Y0128764D02*
X0094864Y0128764D01*
X0095436Y0129156D02*
X0109345Y0129156D01*
X0109659Y0129549D02*
X0096008Y0129549D01*
X0096580Y0129941D02*
X0109973Y0129941D01*
X0110287Y0130333D02*
X0097140Y0130333D01*
X0097575Y0130725D02*
X0110576Y0130725D01*
X0110840Y0131117D02*
X0098010Y0131117D01*
X0098445Y0131510D02*
X0111104Y0131510D01*
X0111369Y0131902D02*
X0098880Y0131902D01*
X0099315Y0132294D02*
X0111633Y0132294D01*
X0111881Y0132686D02*
X0099751Y0132686D01*
X0100134Y0133078D02*
X0112116Y0133078D01*
X0112351Y0133471D02*
X0100492Y0133471D01*
X0100850Y0133863D02*
X0112587Y0133863D01*
X0112822Y0134255D02*
X0101208Y0134255D01*
X0101566Y0134647D02*
X0113057Y0134647D01*
X0113291Y0135039D02*
X0101923Y0135039D01*
X0102205Y0135432D02*
X0113487Y0135432D01*
X0113683Y0135824D02*
X0102482Y0135824D01*
X0102759Y0136216D02*
X0113879Y0136216D01*
X0114075Y0136608D02*
X0103037Y0136608D01*
X0103314Y0137001D02*
X0114271Y0137001D01*
X0114467Y0137393D02*
X0103591Y0137393D01*
X0103868Y0137785D02*
X0114654Y0137785D01*
X0114805Y0138177D02*
X0104118Y0138177D01*
X0104330Y0138569D02*
X0114957Y0138569D01*
X0115108Y0138962D02*
X0104542Y0138962D01*
X0104754Y0139354D02*
X0115260Y0139354D01*
X0115412Y0139746D02*
X0104966Y0139746D01*
X0105178Y0140138D02*
X0115563Y0140138D01*
X0115715Y0140530D02*
X0105390Y0140530D01*
X0105602Y0140923D02*
X0115866Y0140923D01*
X0116005Y0141315D02*
X0105771Y0141315D01*
X0105939Y0141707D02*
X0116124Y0141707D01*
X0116243Y0142099D02*
X0106107Y0142099D01*
X0106275Y0142492D02*
X0116362Y0142492D01*
X0116481Y0142884D02*
X0106443Y0142884D01*
X0106611Y0143276D02*
X0116599Y0143276D01*
X0116718Y0143668D02*
X0106779Y0143668D01*
X0106890Y0144060D02*
X0116814Y0144060D01*
X0116903Y0144453D02*
X0106998Y0144453D01*
X0107106Y0144845D02*
X0116992Y0144845D01*
X0117081Y0145237D02*
X0107215Y0145237D01*
X0107323Y0145629D02*
X0117170Y0145629D01*
X0117259Y0146021D02*
X0107431Y0146021D01*
X0107539Y0146414D02*
X0117348Y0146414D01*
X0117428Y0146806D02*
X0107647Y0146806D01*
X0107750Y0147198D02*
X0117482Y0147198D01*
X0117535Y0147590D02*
X0107832Y0147590D01*
X0107914Y0147982D02*
X0117588Y0147982D01*
X0117641Y0148375D02*
X0107996Y0148375D01*
X0108078Y0148767D02*
X0117695Y0148767D01*
X0117748Y0149159D02*
X0108159Y0149159D01*
X0108241Y0149551D02*
X0117801Y0149551D01*
X0117852Y0149944D02*
X0108293Y0149944D01*
X0108314Y0150336D02*
X0117876Y0150336D01*
X0117901Y0150728D02*
X0108336Y0150728D01*
X0108357Y0151120D02*
X0117925Y0151120D01*
X0117950Y0151512D02*
X0108378Y0151512D01*
X0108400Y0151905D02*
X0117974Y0151905D01*
X0117999Y0152297D02*
X0108421Y0152297D01*
X0108442Y0152689D02*
X0118023Y0152689D01*
X0118045Y0153081D02*
X0108464Y0153081D01*
X0108475Y0153473D02*
X0118035Y0153473D01*
X0118024Y0153866D02*
X0108460Y0153866D01*
X0108445Y0154258D02*
X0118013Y0154258D01*
X0118002Y0154650D02*
X0108430Y0154650D01*
X0108416Y0155042D02*
X0117992Y0155042D01*
X0117981Y0155435D02*
X0108401Y0155435D01*
D12*
X0055750Y0379000D03*
X0407750Y0379000D03*
D13*
X0055750Y0020500D03*
D14*
X0058750Y0063750D02*
X0058750Y0109589D01*
X0098750Y0109589D01*
X0098750Y0063750D01*
X0058750Y0063750D01*
X0058750Y0064696D02*
X0098750Y0064696D01*
X0098750Y0065695D02*
X0058750Y0065695D01*
X0058750Y0066693D02*
X0098750Y0066693D01*
X0098750Y0067692D02*
X0058750Y0067692D01*
X0058750Y0068690D02*
X0098750Y0068690D01*
X0098750Y0069689D02*
X0058750Y0069689D01*
X0058750Y0070687D02*
X0098750Y0070687D01*
X0098750Y0071686D02*
X0058750Y0071686D01*
X0058750Y0072684D02*
X0098750Y0072684D01*
X0098750Y0073683D02*
X0058750Y0073683D01*
X0058750Y0074682D02*
X0098750Y0074682D01*
X0098750Y0075680D02*
X0058750Y0075680D01*
X0058750Y0076679D02*
X0098750Y0076679D01*
X0098750Y0077677D02*
X0058750Y0077677D01*
X0058750Y0078676D02*
X0098750Y0078676D01*
X0098750Y0079674D02*
X0058750Y0079674D01*
X0058750Y0080673D02*
X0098750Y0080673D01*
X0098750Y0081671D02*
X0058750Y0081671D01*
X0058750Y0082670D02*
X0098750Y0082670D01*
X0098750Y0083668D02*
X0058750Y0083668D01*
X0058750Y0084667D02*
X0098750Y0084667D01*
X0098750Y0085665D02*
X0058750Y0085665D01*
X0058750Y0086664D02*
X0098750Y0086664D01*
X0098750Y0087662D02*
X0058750Y0087662D01*
X0058750Y0088661D02*
X0098750Y0088661D01*
X0098750Y0089659D02*
X0058750Y0089659D01*
X0058750Y0090658D02*
X0098750Y0090658D01*
X0098750Y0091656D02*
X0058750Y0091656D01*
X0058750Y0092655D02*
X0098750Y0092655D01*
X0098750Y0093653D02*
X0058750Y0093653D01*
X0058750Y0094652D02*
X0098750Y0094652D01*
X0098750Y0095650D02*
X0058750Y0095650D01*
X0058750Y0096649D02*
X0098750Y0096649D01*
X0098750Y0097647D02*
X0058750Y0097647D01*
X0058750Y0098646D02*
X0098750Y0098646D01*
X0098750Y0099644D02*
X0058750Y0099644D01*
X0058750Y0100643D02*
X0098750Y0100643D01*
X0098750Y0101641D02*
X0058750Y0101641D01*
X0058750Y0102640D02*
X0098750Y0102640D01*
X0098750Y0103638D02*
X0058750Y0103638D01*
X0058750Y0104637D02*
X0098750Y0104637D01*
X0098750Y0105635D02*
X0058750Y0105635D01*
X0058750Y0106634D02*
X0098750Y0106634D01*
X0098750Y0107632D02*
X0058750Y0107632D01*
X0058750Y0108631D02*
X0098750Y0108631D01*
X0160750Y0108631D02*
X0200750Y0108631D01*
X0200750Y0109589D02*
X0160750Y0109589D01*
X0160750Y0063750D01*
X0200750Y0063750D01*
X0200750Y0109589D01*
X0200750Y0107632D02*
X0160750Y0107632D01*
X0160750Y0106634D02*
X0200750Y0106634D01*
X0200750Y0105635D02*
X0160750Y0105635D01*
X0160750Y0104637D02*
X0200750Y0104637D01*
X0200750Y0103638D02*
X0160750Y0103638D01*
X0160750Y0102640D02*
X0200750Y0102640D01*
X0200750Y0101641D02*
X0160750Y0101641D01*
X0160750Y0100643D02*
X0200750Y0100643D01*
X0200750Y0099644D02*
X0160750Y0099644D01*
X0160750Y0098646D02*
X0200750Y0098646D01*
X0200750Y0097647D02*
X0160750Y0097647D01*
X0160750Y0096649D02*
X0200750Y0096649D01*
X0200750Y0095650D02*
X0160750Y0095650D01*
X0160750Y0094652D02*
X0200750Y0094652D01*
X0200750Y0093653D02*
X0160750Y0093653D01*
X0160750Y0092655D02*
X0200750Y0092655D01*
X0200750Y0091656D02*
X0160750Y0091656D01*
X0160750Y0090658D02*
X0200750Y0090658D01*
X0200750Y0089659D02*
X0160750Y0089659D01*
X0160750Y0088661D02*
X0200750Y0088661D01*
X0200750Y0087662D02*
X0160750Y0087662D01*
X0160750Y0086664D02*
X0200750Y0086664D01*
X0200750Y0085665D02*
X0160750Y0085665D01*
X0160750Y0084667D02*
X0200750Y0084667D01*
X0200750Y0083668D02*
X0160750Y0083668D01*
X0160750Y0082670D02*
X0200750Y0082670D01*
X0200750Y0081671D02*
X0160750Y0081671D01*
X0160750Y0080673D02*
X0200750Y0080673D01*
X0200750Y0079674D02*
X0160750Y0079674D01*
X0160750Y0078676D02*
X0200750Y0078676D01*
X0200750Y0077677D02*
X0160750Y0077677D01*
X0160750Y0076679D02*
X0200750Y0076679D01*
X0200750Y0075680D02*
X0160750Y0075680D01*
X0160750Y0074682D02*
X0200750Y0074682D01*
X0200750Y0073683D02*
X0160750Y0073683D01*
X0160750Y0072684D02*
X0200750Y0072684D01*
X0200750Y0071686D02*
X0160750Y0071686D01*
X0160750Y0070687D02*
X0200750Y0070687D01*
X0200750Y0069689D02*
X0160750Y0069689D01*
X0160750Y0068690D02*
X0200750Y0068690D01*
X0200750Y0067692D02*
X0160750Y0067692D01*
X0160750Y0066693D02*
X0200750Y0066693D01*
X0200750Y0065695D02*
X0160750Y0065695D01*
X0160750Y0064696D02*
X0200750Y0064696D01*
X0262750Y0064696D02*
X0302750Y0064696D01*
X0302750Y0063750D02*
X0262750Y0063750D01*
X0262750Y0109589D01*
X0302750Y0109589D01*
X0302750Y0063750D01*
X0302750Y0065695D02*
X0262750Y0065695D01*
X0262750Y0066693D02*
X0302750Y0066693D01*
X0302750Y0067692D02*
X0262750Y0067692D01*
X0262750Y0068690D02*
X0302750Y0068690D01*
X0302750Y0069689D02*
X0262750Y0069689D01*
X0262750Y0070687D02*
X0302750Y0070687D01*
X0302750Y0071686D02*
X0262750Y0071686D01*
X0262750Y0072684D02*
X0302750Y0072684D01*
X0302750Y0073683D02*
X0262750Y0073683D01*
X0262750Y0074682D02*
X0302750Y0074682D01*
X0302750Y0075680D02*
X0262750Y0075680D01*
X0262750Y0076679D02*
X0302750Y0076679D01*
X0302750Y0077677D02*
X0262750Y0077677D01*
X0262750Y0078676D02*
X0302750Y0078676D01*
X0302750Y0079674D02*
X0262750Y0079674D01*
X0262750Y0080673D02*
X0302750Y0080673D01*
X0302750Y0081671D02*
X0262750Y0081671D01*
X0262750Y0082670D02*
X0302750Y0082670D01*
X0302750Y0083668D02*
X0262750Y0083668D01*
X0262750Y0084667D02*
X0302750Y0084667D01*
X0302750Y0085665D02*
X0262750Y0085665D01*
X0262750Y0086664D02*
X0302750Y0086664D01*
X0302750Y0087662D02*
X0262750Y0087662D01*
X0262750Y0088661D02*
X0302750Y0088661D01*
X0302750Y0089659D02*
X0262750Y0089659D01*
X0262750Y0090658D02*
X0302750Y0090658D01*
X0302750Y0091656D02*
X0262750Y0091656D01*
X0262750Y0092655D02*
X0302750Y0092655D01*
X0302750Y0093653D02*
X0262750Y0093653D01*
X0262750Y0094652D02*
X0302750Y0094652D01*
X0302750Y0095650D02*
X0262750Y0095650D01*
X0262750Y0096649D02*
X0302750Y0096649D01*
X0302750Y0097647D02*
X0262750Y0097647D01*
X0262750Y0098646D02*
X0302750Y0098646D01*
X0302750Y0099644D02*
X0262750Y0099644D01*
X0262750Y0100643D02*
X0302750Y0100643D01*
X0302750Y0101641D02*
X0262750Y0101641D01*
X0262750Y0102640D02*
X0302750Y0102640D01*
X0302750Y0103638D02*
X0262750Y0103638D01*
X0262750Y0104637D02*
X0302750Y0104637D01*
X0302750Y0105635D02*
X0262750Y0105635D01*
X0262750Y0106634D02*
X0302750Y0106634D01*
X0302750Y0107632D02*
X0262750Y0107632D01*
X0262750Y0108631D02*
X0302750Y0108631D01*
X0364750Y0108631D02*
X0404750Y0108631D01*
X0404750Y0109589D02*
X0364750Y0109589D01*
X0364750Y0063750D01*
X0404750Y0063750D01*
X0404750Y0109589D01*
X0404750Y0107632D02*
X0364750Y0107632D01*
X0364750Y0106634D02*
X0404750Y0106634D01*
X0404750Y0105635D02*
X0364750Y0105635D01*
X0364750Y0104637D02*
X0404750Y0104637D01*
X0404750Y0103638D02*
X0364750Y0103638D01*
X0364750Y0102640D02*
X0404750Y0102640D01*
X0404750Y0101641D02*
X0364750Y0101641D01*
X0364750Y0100643D02*
X0404750Y0100643D01*
X0404750Y0099644D02*
X0364750Y0099644D01*
X0364750Y0098646D02*
X0404750Y0098646D01*
X0404750Y0097647D02*
X0364750Y0097647D01*
X0364750Y0096649D02*
X0404750Y0096649D01*
X0404750Y0095650D02*
X0364750Y0095650D01*
X0364750Y0094652D02*
X0404750Y0094652D01*
X0404750Y0093653D02*
X0364750Y0093653D01*
X0364750Y0092655D02*
X0404750Y0092655D01*
X0404750Y0091656D02*
X0364750Y0091656D01*
X0364750Y0090658D02*
X0404750Y0090658D01*
X0404750Y0089659D02*
X0364750Y0089659D01*
X0364750Y0088661D02*
X0404750Y0088661D01*
X0404750Y0087662D02*
X0364750Y0087662D01*
X0364750Y0086664D02*
X0404750Y0086664D01*
X0404750Y0085665D02*
X0364750Y0085665D01*
X0364750Y0084667D02*
X0404750Y0084667D01*
X0404750Y0083668D02*
X0364750Y0083668D01*
X0364750Y0082670D02*
X0404750Y0082670D01*
X0404750Y0081671D02*
X0364750Y0081671D01*
X0364750Y0080673D02*
X0404750Y0080673D01*
X0404750Y0079674D02*
X0364750Y0079674D01*
X0364750Y0078676D02*
X0404750Y0078676D01*
X0404750Y0077677D02*
X0364750Y0077677D01*
X0364750Y0076679D02*
X0404750Y0076679D01*
X0404750Y0075680D02*
X0364750Y0075680D01*
X0364750Y0074682D02*
X0404750Y0074682D01*
X0404750Y0073683D02*
X0364750Y0073683D01*
X0364750Y0072684D02*
X0404750Y0072684D01*
X0404750Y0071686D02*
X0364750Y0071686D01*
X0364750Y0070687D02*
X0404750Y0070687D01*
X0404750Y0069689D02*
X0364750Y0069689D01*
X0364750Y0068690D02*
X0404750Y0068690D01*
X0404750Y0067692D02*
X0364750Y0067692D01*
X0364750Y0066693D02*
X0404750Y0066693D01*
X0404750Y0065695D02*
X0364750Y0065695D01*
X0364750Y0064696D02*
X0404750Y0064696D01*
X0404750Y0235750D02*
X0364750Y0235750D01*
X0364750Y0281589D01*
X0404750Y0281589D01*
X0404750Y0235750D01*
X0404750Y0236440D02*
X0364750Y0236440D01*
X0364750Y0237439D02*
X0404750Y0237439D01*
X0404750Y0238437D02*
X0364750Y0238437D01*
X0364750Y0239436D02*
X0404750Y0239436D01*
X0404750Y0240434D02*
X0364750Y0240434D01*
X0364750Y0241433D02*
X0404750Y0241433D01*
X0404750Y0242431D02*
X0364750Y0242431D01*
X0364750Y0243430D02*
X0404750Y0243430D01*
X0404750Y0244428D02*
X0364750Y0244428D01*
X0364750Y0245427D02*
X0404750Y0245427D01*
X0404750Y0246425D02*
X0364750Y0246425D01*
X0364750Y0247424D02*
X0404750Y0247424D01*
X0404750Y0248422D02*
X0364750Y0248422D01*
X0364750Y0249421D02*
X0404750Y0249421D01*
X0404750Y0250420D02*
X0364750Y0250420D01*
X0364750Y0251418D02*
X0404750Y0251418D01*
X0404750Y0252417D02*
X0364750Y0252417D01*
X0364750Y0253415D02*
X0404750Y0253415D01*
X0404750Y0254414D02*
X0364750Y0254414D01*
X0364750Y0255412D02*
X0404750Y0255412D01*
X0404750Y0256411D02*
X0364750Y0256411D01*
X0364750Y0257409D02*
X0404750Y0257409D01*
X0404750Y0258408D02*
X0364750Y0258408D01*
X0364750Y0259406D02*
X0404750Y0259406D01*
X0404750Y0260405D02*
X0364750Y0260405D01*
X0364750Y0261403D02*
X0404750Y0261403D01*
X0404750Y0262402D02*
X0364750Y0262402D01*
X0364750Y0263400D02*
X0404750Y0263400D01*
X0404750Y0264399D02*
X0364750Y0264399D01*
X0364750Y0265397D02*
X0404750Y0265397D01*
X0404750Y0266396D02*
X0364750Y0266396D01*
X0364750Y0267394D02*
X0404750Y0267394D01*
X0404750Y0268393D02*
X0364750Y0268393D01*
X0364750Y0269391D02*
X0404750Y0269391D01*
X0404750Y0270390D02*
X0364750Y0270390D01*
X0364750Y0271388D02*
X0404750Y0271388D01*
X0404750Y0272387D02*
X0364750Y0272387D01*
X0364750Y0273385D02*
X0404750Y0273385D01*
X0404750Y0274384D02*
X0364750Y0274384D01*
X0364750Y0275382D02*
X0404750Y0275382D01*
X0404750Y0276381D02*
X0364750Y0276381D01*
X0364750Y0277379D02*
X0404750Y0277379D01*
X0404750Y0278378D02*
X0364750Y0278378D01*
X0364750Y0279376D02*
X0404750Y0279376D01*
X0404750Y0280375D02*
X0364750Y0280375D01*
X0364750Y0281373D02*
X0404750Y0281373D01*
X0302750Y0281373D02*
X0262750Y0281373D01*
X0262750Y0281589D02*
X0302750Y0281589D01*
X0302750Y0235750D01*
X0262750Y0235750D01*
X0262750Y0281589D01*
X0262750Y0280375D02*
X0302750Y0280375D01*
X0302750Y0279376D02*
X0262750Y0279376D01*
X0262750Y0278378D02*
X0302750Y0278378D01*
X0302750Y0277379D02*
X0262750Y0277379D01*
X0262750Y0276381D02*
X0302750Y0276381D01*
X0302750Y0275382D02*
X0262750Y0275382D01*
X0262750Y0274384D02*
X0302750Y0274384D01*
X0302750Y0273385D02*
X0262750Y0273385D01*
X0262750Y0272387D02*
X0302750Y0272387D01*
X0302750Y0271388D02*
X0262750Y0271388D01*
X0262750Y0270390D02*
X0302750Y0270390D01*
X0302750Y0269391D02*
X0262750Y0269391D01*
X0262750Y0268393D02*
X0302750Y0268393D01*
X0302750Y0267394D02*
X0262750Y0267394D01*
X0262750Y0266396D02*
X0302750Y0266396D01*
X0302750Y0265397D02*
X0262750Y0265397D01*
X0262750Y0264399D02*
X0302750Y0264399D01*
X0302750Y0263400D02*
X0262750Y0263400D01*
X0262750Y0262402D02*
X0302750Y0262402D01*
X0302750Y0261403D02*
X0262750Y0261403D01*
X0262750Y0260405D02*
X0302750Y0260405D01*
X0302750Y0259406D02*
X0262750Y0259406D01*
X0262750Y0258408D02*
X0302750Y0258408D01*
X0302750Y0257409D02*
X0262750Y0257409D01*
X0262750Y0256411D02*
X0302750Y0256411D01*
X0302750Y0255412D02*
X0262750Y0255412D01*
X0262750Y0254414D02*
X0302750Y0254414D01*
X0302750Y0253415D02*
X0262750Y0253415D01*
X0262750Y0252417D02*
X0302750Y0252417D01*
X0302750Y0251418D02*
X0262750Y0251418D01*
X0262750Y0250420D02*
X0302750Y0250420D01*
X0302750Y0249421D02*
X0262750Y0249421D01*
X0262750Y0248422D02*
X0302750Y0248422D01*
X0302750Y0247424D02*
X0262750Y0247424D01*
X0262750Y0246425D02*
X0302750Y0246425D01*
X0302750Y0245427D02*
X0262750Y0245427D01*
X0262750Y0244428D02*
X0302750Y0244428D01*
X0302750Y0243430D02*
X0262750Y0243430D01*
X0262750Y0242431D02*
X0302750Y0242431D01*
X0302750Y0241433D02*
X0262750Y0241433D01*
X0262750Y0240434D02*
X0302750Y0240434D01*
X0302750Y0239436D02*
X0262750Y0239436D01*
X0262750Y0238437D02*
X0302750Y0238437D01*
X0302750Y0237439D02*
X0262750Y0237439D01*
X0262750Y0236440D02*
X0302750Y0236440D01*
X0200750Y0236440D02*
X0160750Y0236440D01*
X0160750Y0235750D02*
X0160750Y0281589D01*
X0200750Y0281589D01*
X0200750Y0235750D01*
X0160750Y0235750D01*
X0160750Y0237439D02*
X0200750Y0237439D01*
X0200750Y0238437D02*
X0160750Y0238437D01*
X0160750Y0239436D02*
X0200750Y0239436D01*
X0200750Y0240434D02*
X0160750Y0240434D01*
X0160750Y0241433D02*
X0200750Y0241433D01*
X0200750Y0242431D02*
X0160750Y0242431D01*
X0160750Y0243430D02*
X0200750Y0243430D01*
X0200750Y0244428D02*
X0160750Y0244428D01*
X0160750Y0245427D02*
X0200750Y0245427D01*
X0200750Y0246425D02*
X0160750Y0246425D01*
X0160750Y0247424D02*
X0200750Y0247424D01*
X0200750Y0248422D02*
X0160750Y0248422D01*
X0160750Y0249421D02*
X0200750Y0249421D01*
X0200750Y0250420D02*
X0160750Y0250420D01*
X0160750Y0251418D02*
X0200750Y0251418D01*
X0200750Y0252417D02*
X0160750Y0252417D01*
X0160750Y0253415D02*
X0200750Y0253415D01*
X0200750Y0254414D02*
X0160750Y0254414D01*
X0160750Y0255412D02*
X0200750Y0255412D01*
X0200750Y0256411D02*
X0160750Y0256411D01*
X0160750Y0257409D02*
X0200750Y0257409D01*
X0200750Y0258408D02*
X0160750Y0258408D01*
X0160750Y0259406D02*
X0200750Y0259406D01*
X0200750Y0260405D02*
X0160750Y0260405D01*
X0160750Y0261403D02*
X0200750Y0261403D01*
X0200750Y0262402D02*
X0160750Y0262402D01*
X0160750Y0263400D02*
X0200750Y0263400D01*
X0200750Y0264399D02*
X0160750Y0264399D01*
X0160750Y0265397D02*
X0200750Y0265397D01*
X0200750Y0266396D02*
X0160750Y0266396D01*
X0160750Y0267394D02*
X0200750Y0267394D01*
X0200750Y0268393D02*
X0160750Y0268393D01*
X0160750Y0269391D02*
X0200750Y0269391D01*
X0200750Y0270390D02*
X0160750Y0270390D01*
X0160750Y0271388D02*
X0200750Y0271388D01*
X0200750Y0272387D02*
X0160750Y0272387D01*
X0160750Y0273385D02*
X0200750Y0273385D01*
X0200750Y0274384D02*
X0160750Y0274384D01*
X0160750Y0275382D02*
X0200750Y0275382D01*
X0200750Y0276381D02*
X0160750Y0276381D01*
X0160750Y0277379D02*
X0200750Y0277379D01*
X0200750Y0278378D02*
X0160750Y0278378D01*
X0160750Y0279376D02*
X0200750Y0279376D01*
X0200750Y0280375D02*
X0160750Y0280375D01*
X0160750Y0281373D02*
X0200750Y0281373D01*
X0098750Y0281373D02*
X0058750Y0281373D01*
X0058750Y0281589D02*
X0098750Y0281589D01*
X0098750Y0235750D01*
X0058750Y0235750D01*
X0058750Y0281589D01*
X0058750Y0280375D02*
X0098750Y0280375D01*
X0098750Y0279376D02*
X0058750Y0279376D01*
X0058750Y0278378D02*
X0098750Y0278378D01*
X0098750Y0277379D02*
X0058750Y0277379D01*
X0058750Y0276381D02*
X0098750Y0276381D01*
X0098750Y0275382D02*
X0058750Y0275382D01*
X0058750Y0274384D02*
X0098750Y0274384D01*
X0098750Y0273385D02*
X0058750Y0273385D01*
X0058750Y0272387D02*
X0098750Y0272387D01*
X0098750Y0271388D02*
X0058750Y0271388D01*
X0058750Y0270390D02*
X0098750Y0270390D01*
X0098750Y0269391D02*
X0058750Y0269391D01*
X0058750Y0268393D02*
X0098750Y0268393D01*
X0098750Y0267394D02*
X0058750Y0267394D01*
X0058750Y0266396D02*
X0098750Y0266396D01*
X0098750Y0265397D02*
X0058750Y0265397D01*
X0058750Y0264399D02*
X0098750Y0264399D01*
X0098750Y0263400D02*
X0058750Y0263400D01*
X0058750Y0262402D02*
X0098750Y0262402D01*
X0098750Y0261403D02*
X0058750Y0261403D01*
X0058750Y0260405D02*
X0098750Y0260405D01*
X0098750Y0259406D02*
X0058750Y0259406D01*
X0058750Y0258408D02*
X0098750Y0258408D01*
X0098750Y0257409D02*
X0058750Y0257409D01*
X0058750Y0256411D02*
X0098750Y0256411D01*
X0098750Y0255412D02*
X0058750Y0255412D01*
X0058750Y0254414D02*
X0098750Y0254414D01*
X0098750Y0253415D02*
X0058750Y0253415D01*
X0058750Y0252417D02*
X0098750Y0252417D01*
X0098750Y0251418D02*
X0058750Y0251418D01*
X0058750Y0250420D02*
X0098750Y0250420D01*
X0098750Y0249421D02*
X0058750Y0249421D01*
X0058750Y0248422D02*
X0098750Y0248422D01*
X0098750Y0247424D02*
X0058750Y0247424D01*
X0058750Y0246425D02*
X0098750Y0246425D01*
X0098750Y0245427D02*
X0058750Y0245427D01*
X0058750Y0244428D02*
X0098750Y0244428D01*
X0098750Y0243430D02*
X0058750Y0243430D01*
X0058750Y0242431D02*
X0098750Y0242431D01*
X0098750Y0241433D02*
X0058750Y0241433D01*
X0058750Y0240434D02*
X0098750Y0240434D01*
X0098750Y0239436D02*
X0058750Y0239436D01*
X0058750Y0238437D02*
X0098750Y0238437D01*
X0098750Y0237439D02*
X0058750Y0237439D01*
X0058750Y0236440D02*
X0098750Y0236440D01*
D15*
X0094350Y0238850D03*
X0094350Y0243850D03*
X0094350Y0248850D03*
X0094350Y0253850D03*
X0094350Y0258850D03*
X0094350Y0263850D03*
X0094350Y0268850D03*
X0094350Y0273850D03*
X0094350Y0278850D03*
X0083912Y0287495D03*
X0073676Y0287495D03*
X0062550Y0278850D03*
X0062550Y0273850D03*
X0062550Y0268850D03*
X0062550Y0263850D03*
X0062550Y0258850D03*
X0062550Y0253850D03*
X0062550Y0248850D03*
X0062550Y0243850D03*
X0062550Y0238850D03*
X0076850Y0261350D03*
X0061865Y0295763D03*
X0049267Y0307967D03*
X0044148Y0325684D03*
X0049267Y0343794D03*
X0061865Y0355999D03*
X0078794Y0360330D03*
X0096117Y0355999D03*
X0108322Y0343794D03*
X0113440Y0325684D03*
X0108322Y0307967D03*
X0096117Y0295763D03*
X0146148Y0325684D03*
X0151267Y0307967D03*
X0163865Y0295763D03*
X0175676Y0287495D03*
X0185912Y0287495D03*
X0196350Y0278850D03*
X0196350Y0273850D03*
X0196350Y0268850D03*
X0196350Y0263850D03*
X0196350Y0258850D03*
X0196350Y0253850D03*
X0196350Y0248850D03*
X0196350Y0243850D03*
X0196350Y0238850D03*
X0178850Y0261350D03*
X0164550Y0258850D03*
X0164550Y0253850D03*
X0164550Y0248850D03*
X0164550Y0243850D03*
X0164550Y0238850D03*
X0164550Y0263850D03*
X0164550Y0268850D03*
X0164550Y0273850D03*
X0164550Y0278850D03*
X0198117Y0295763D03*
X0210322Y0307967D03*
X0215440Y0325684D03*
X0210322Y0343794D03*
X0198117Y0355999D03*
X0180794Y0360330D03*
X0163865Y0355999D03*
X0151267Y0343794D03*
X0248148Y0325684D03*
X0253267Y0307967D03*
X0265865Y0295763D03*
X0277676Y0287495D03*
X0287912Y0287495D03*
X0298350Y0278850D03*
X0298350Y0273850D03*
X0298350Y0268850D03*
X0298350Y0263850D03*
X0298350Y0258850D03*
X0298350Y0253850D03*
X0298350Y0248850D03*
X0298350Y0243850D03*
X0298350Y0238850D03*
X0280850Y0261350D03*
X0266550Y0258850D03*
X0266550Y0253850D03*
X0266550Y0248850D03*
X0266550Y0243850D03*
X0266550Y0238850D03*
X0266550Y0263850D03*
X0266550Y0268850D03*
X0266550Y0273850D03*
X0266550Y0278850D03*
X0300117Y0295763D03*
X0312322Y0307967D03*
X0317440Y0325684D03*
X0312322Y0343794D03*
X0300117Y0355999D03*
X0282794Y0360330D03*
X0265865Y0355999D03*
X0253267Y0343794D03*
X0350148Y0325684D03*
X0355267Y0307967D03*
X0367865Y0295763D03*
X0379676Y0287495D03*
X0389912Y0287495D03*
X0400350Y0278850D03*
X0400350Y0273850D03*
X0400350Y0268850D03*
X0400350Y0263850D03*
X0400350Y0258850D03*
X0400350Y0253850D03*
X0400350Y0248850D03*
X0400350Y0243850D03*
X0400350Y0238850D03*
X0382850Y0261350D03*
X0368550Y0258850D03*
X0368550Y0253850D03*
X0368550Y0248850D03*
X0368550Y0243850D03*
X0368550Y0238850D03*
X0368550Y0263850D03*
X0368550Y0268850D03*
X0368550Y0273850D03*
X0368550Y0278850D03*
X0402117Y0295763D03*
X0414322Y0307967D03*
X0419440Y0325684D03*
X0414322Y0343794D03*
X0402117Y0355999D03*
X0384794Y0360330D03*
X0367865Y0355999D03*
X0355267Y0343794D03*
X0384794Y0188330D03*
X0367865Y0183999D03*
X0355267Y0171794D03*
X0350148Y0153684D03*
X0355267Y0135967D03*
X0367865Y0123763D03*
X0379676Y0115495D03*
X0389912Y0115495D03*
X0400350Y0106850D03*
X0400350Y0101850D03*
X0400350Y0096850D03*
X0400350Y0091850D03*
X0400350Y0086850D03*
X0400350Y0081850D03*
X0400350Y0076850D03*
X0400350Y0071850D03*
X0400350Y0066850D03*
X0382850Y0089350D03*
X0368550Y0086850D03*
X0368550Y0081850D03*
X0368550Y0076850D03*
X0368550Y0071850D03*
X0368550Y0066850D03*
X0368550Y0091850D03*
X0368550Y0096850D03*
X0368550Y0101850D03*
X0368550Y0106850D03*
X0402117Y0123763D03*
X0414322Y0135967D03*
X0419440Y0153684D03*
X0414322Y0171794D03*
X0402117Y0183999D03*
X0317440Y0153684D03*
X0312322Y0135967D03*
X0300117Y0123763D03*
X0287912Y0115495D03*
X0277676Y0115495D03*
X0266550Y0106850D03*
X0266550Y0101850D03*
X0266550Y0096850D03*
X0266550Y0091850D03*
X0266550Y0086850D03*
X0266550Y0081850D03*
X0266550Y0076850D03*
X0266550Y0071850D03*
X0266550Y0066850D03*
X0280850Y0089350D03*
X0298350Y0086850D03*
X0298350Y0081850D03*
X0298350Y0076850D03*
X0298350Y0071850D03*
X0298350Y0066850D03*
X0298350Y0091850D03*
X0298350Y0096850D03*
X0298350Y0101850D03*
X0298350Y0106850D03*
X0265865Y0123763D03*
X0253267Y0135967D03*
X0248148Y0153684D03*
X0253267Y0171794D03*
X0265865Y0183999D03*
X0282794Y0188330D03*
X0300117Y0183999D03*
X0312322Y0171794D03*
X0215440Y0153684D03*
X0210322Y0135967D03*
X0198117Y0123763D03*
X0185912Y0115495D03*
X0175676Y0115495D03*
X0164550Y0106850D03*
X0164550Y0101850D03*
X0164550Y0096850D03*
X0164550Y0091850D03*
X0164550Y0086850D03*
X0164550Y0081850D03*
X0164550Y0076850D03*
X0164550Y0071850D03*
X0164550Y0066850D03*
X0178850Y0089350D03*
X0196350Y0086850D03*
X0196350Y0081850D03*
X0196350Y0076850D03*
X0196350Y0071850D03*
X0196350Y0066850D03*
X0196350Y0091850D03*
X0196350Y0096850D03*
X0196350Y0101850D03*
X0196350Y0106850D03*
X0163865Y0123763D03*
X0151267Y0135967D03*
X0146148Y0153684D03*
X0151267Y0171794D03*
X0163865Y0183999D03*
X0180794Y0188330D03*
X0198117Y0183999D03*
X0210322Y0171794D03*
X0113440Y0153684D03*
X0108322Y0135967D03*
X0096117Y0123763D03*
X0083912Y0115495D03*
X0073676Y0115495D03*
X0062550Y0106850D03*
X0062550Y0101850D03*
X0062550Y0096850D03*
X0062550Y0091850D03*
X0062550Y0086850D03*
X0062550Y0081850D03*
X0062550Y0076850D03*
X0062550Y0071850D03*
X0062550Y0066850D03*
X0076850Y0089350D03*
X0094350Y0086850D03*
X0094350Y0081850D03*
X0094350Y0076850D03*
X0094350Y0071850D03*
X0094350Y0066850D03*
X0094350Y0091850D03*
X0094350Y0096850D03*
X0094350Y0101850D03*
X0094350Y0106850D03*
X0061865Y0123763D03*
X0049267Y0135967D03*
X0044148Y0153684D03*
X0049267Y0171794D03*
X0061865Y0183999D03*
X0078794Y0188330D03*
X0096117Y0183999D03*
X0108322Y0171794D03*
D16*
X0083750Y0210750D03*
X0073750Y0210750D03*
X0175750Y0210750D03*
X0185750Y0210750D03*
X0277750Y0210750D03*
X0287750Y0210750D03*
X0379750Y0210750D03*
X0389750Y0210750D03*
X0389750Y0038750D03*
X0379750Y0038750D03*
X0287750Y0038750D03*
X0277750Y0038750D03*
X0185750Y0038750D03*
X0175750Y0038750D03*
X0083750Y0038750D03*
X0073750Y0038750D03*
D17*
X0048750Y0033750D02*
X0048750Y0043750D01*
X0108750Y0043750D01*
X0108750Y0033750D01*
X0048750Y0033750D01*
X0048750Y0034340D02*
X0108750Y0034340D01*
X0108750Y0035138D02*
X0048750Y0035138D01*
X0048750Y0035937D02*
X0108750Y0035937D01*
X0108750Y0036735D02*
X0048750Y0036735D01*
X0048750Y0037534D02*
X0108750Y0037534D01*
X0108750Y0038332D02*
X0048750Y0038332D01*
X0048750Y0039131D02*
X0108750Y0039131D01*
X0108750Y0039929D02*
X0048750Y0039929D01*
X0048750Y0040728D02*
X0108750Y0040728D01*
X0108750Y0041526D02*
X0048750Y0041526D01*
X0048750Y0042325D02*
X0108750Y0042325D01*
X0108750Y0043123D02*
X0048750Y0043123D01*
X0150750Y0043123D02*
X0210750Y0043123D01*
X0210750Y0043750D02*
X0210750Y0033750D01*
X0150750Y0033750D01*
X0150750Y0043750D01*
X0210750Y0043750D01*
X0210750Y0042325D02*
X0150750Y0042325D01*
X0150750Y0041526D02*
X0210750Y0041526D01*
X0210750Y0040728D02*
X0150750Y0040728D01*
X0150750Y0039929D02*
X0210750Y0039929D01*
X0210750Y0039131D02*
X0150750Y0039131D01*
X0150750Y0038332D02*
X0210750Y0038332D01*
X0210750Y0037534D02*
X0150750Y0037534D01*
X0150750Y0036735D02*
X0210750Y0036735D01*
X0210750Y0035937D02*
X0150750Y0035937D01*
X0150750Y0035138D02*
X0210750Y0035138D01*
X0210750Y0034340D02*
X0150750Y0034340D01*
X0252750Y0034340D02*
X0312750Y0034340D01*
X0312750Y0033750D02*
X0252750Y0033750D01*
X0252750Y0043750D01*
X0312750Y0043750D01*
X0312750Y0033750D01*
X0312750Y0035138D02*
X0252750Y0035138D01*
X0252750Y0035937D02*
X0312750Y0035937D01*
X0312750Y0036735D02*
X0252750Y0036735D01*
X0252750Y0037534D02*
X0312750Y0037534D01*
X0312750Y0038332D02*
X0252750Y0038332D01*
X0252750Y0039131D02*
X0312750Y0039131D01*
X0312750Y0039929D02*
X0252750Y0039929D01*
X0252750Y0040728D02*
X0312750Y0040728D01*
X0312750Y0041526D02*
X0252750Y0041526D01*
X0252750Y0042325D02*
X0312750Y0042325D01*
X0312750Y0043123D02*
X0252750Y0043123D01*
X0354750Y0043123D02*
X0414750Y0043123D01*
X0414750Y0043750D02*
X0414750Y0033750D01*
X0354750Y0033750D01*
X0354750Y0043750D01*
X0414750Y0043750D01*
X0414750Y0042325D02*
X0354750Y0042325D01*
X0354750Y0041526D02*
X0414750Y0041526D01*
X0414750Y0040728D02*
X0354750Y0040728D01*
X0354750Y0039929D02*
X0414750Y0039929D01*
X0414750Y0039131D02*
X0354750Y0039131D01*
X0354750Y0038332D02*
X0414750Y0038332D01*
X0414750Y0037534D02*
X0354750Y0037534D01*
X0354750Y0036735D02*
X0414750Y0036735D01*
X0414750Y0035937D02*
X0354750Y0035937D01*
X0354750Y0035138D02*
X0414750Y0035138D01*
X0414750Y0034340D02*
X0354750Y0034340D01*
X0354750Y0205750D02*
X0414750Y0205750D01*
X0414750Y0215750D01*
X0354750Y0215750D01*
X0354750Y0205750D01*
X0354750Y0206020D02*
X0414750Y0206020D01*
X0414750Y0206818D02*
X0354750Y0206818D01*
X0354750Y0207617D02*
X0414750Y0207617D01*
X0414750Y0208415D02*
X0354750Y0208415D01*
X0354750Y0209214D02*
X0414750Y0209214D01*
X0414750Y0210012D02*
X0354750Y0210012D01*
X0354750Y0210811D02*
X0414750Y0210811D01*
X0414750Y0211609D02*
X0354750Y0211609D01*
X0354750Y0212408D02*
X0414750Y0212408D01*
X0414750Y0213206D02*
X0354750Y0213206D01*
X0354750Y0214005D02*
X0414750Y0214005D01*
X0414750Y0214803D02*
X0354750Y0214803D01*
X0354750Y0215602D02*
X0414750Y0215602D01*
X0312750Y0215602D02*
X0252750Y0215602D01*
X0252750Y0215750D02*
X0312750Y0215750D01*
X0312750Y0205750D01*
X0252750Y0205750D01*
X0252750Y0215750D01*
X0252750Y0214803D02*
X0312750Y0214803D01*
X0312750Y0214005D02*
X0252750Y0214005D01*
X0252750Y0213206D02*
X0312750Y0213206D01*
X0312750Y0212408D02*
X0252750Y0212408D01*
X0252750Y0211609D02*
X0312750Y0211609D01*
X0312750Y0210811D02*
X0252750Y0210811D01*
X0252750Y0210012D02*
X0312750Y0210012D01*
X0312750Y0209214D02*
X0252750Y0209214D01*
X0252750Y0208415D02*
X0312750Y0208415D01*
X0312750Y0207617D02*
X0252750Y0207617D01*
X0252750Y0206818D02*
X0312750Y0206818D01*
X0312750Y0206020D02*
X0252750Y0206020D01*
X0210750Y0206020D02*
X0150750Y0206020D01*
X0150750Y0205750D02*
X0210750Y0205750D01*
X0210750Y0215750D01*
X0150750Y0215750D01*
X0150750Y0205750D01*
X0150750Y0206818D02*
X0210750Y0206818D01*
X0210750Y0207617D02*
X0150750Y0207617D01*
X0150750Y0208415D02*
X0210750Y0208415D01*
X0210750Y0209214D02*
X0150750Y0209214D01*
X0150750Y0210012D02*
X0210750Y0210012D01*
X0210750Y0210811D02*
X0150750Y0210811D01*
X0150750Y0211609D02*
X0210750Y0211609D01*
X0210750Y0212408D02*
X0150750Y0212408D01*
X0150750Y0213206D02*
X0210750Y0213206D01*
X0210750Y0214005D02*
X0150750Y0214005D01*
X0150750Y0214803D02*
X0210750Y0214803D01*
X0210750Y0215602D02*
X0150750Y0215602D01*
X0108750Y0215602D02*
X0048750Y0215602D01*
X0048750Y0215750D02*
X0108750Y0215750D01*
X0108750Y0205750D01*
X0048750Y0205750D01*
X0048750Y0215750D01*
X0048750Y0214803D02*
X0108750Y0214803D01*
X0108750Y0214005D02*
X0048750Y0214005D01*
X0048750Y0213206D02*
X0108750Y0213206D01*
X0108750Y0212408D02*
X0048750Y0212408D01*
X0048750Y0211609D02*
X0108750Y0211609D01*
X0108750Y0210811D02*
X0048750Y0210811D01*
X0048750Y0210012D02*
X0108750Y0210012D01*
X0108750Y0209214D02*
X0048750Y0209214D01*
X0048750Y0208415D02*
X0108750Y0208415D01*
X0108750Y0207617D02*
X0048750Y0207617D01*
X0048750Y0206818D02*
X0108750Y0206818D01*
X0108750Y0206020D02*
X0048750Y0206020D01*
M02*
