G75*
%MOIN*%
%OFA0B0*%
%FSLAX25Y25*%
%IPPOS*%
%LPD*%
%AMOC8*
5,1,8,0,0,1.08239X$1,22.5*
%
%ADD10R,0.01575X0.02362*%
%ADD11R,0.02362X0.01575*%
%ADD12R,0.03346X0.08661*%
%ADD13R,0.03937X0.04134*%
%ADD14R,0.03937X0.01969*%
%ADD15R,0.01969X0.03937*%
D10*
X0187511Y0352221D03*
X0190661Y0352221D03*
X0192976Y0356394D03*
X0196125Y0356394D03*
X0198433Y0347060D03*
X0201582Y0347060D03*
X0199027Y0367138D03*
X0195877Y0367138D03*
X0192728Y0367158D03*
X0189578Y0367158D03*
X0192846Y0370752D03*
X0195996Y0370752D03*
X0289511Y0352221D03*
X0292661Y0352221D03*
X0294976Y0356394D03*
X0298125Y0356394D03*
X0300433Y0347060D03*
X0303582Y0347060D03*
X0301027Y0367138D03*
X0297877Y0367138D03*
X0294728Y0367158D03*
X0291578Y0367158D03*
X0294846Y0370752D03*
X0297996Y0370752D03*
X0391511Y0352221D03*
X0394661Y0352221D03*
X0396976Y0356394D03*
X0400125Y0356394D03*
X0402433Y0347060D03*
X0405582Y0347060D03*
X0403027Y0367138D03*
X0399877Y0367138D03*
X0396728Y0367158D03*
X0393578Y0367158D03*
X0396846Y0370752D03*
X0399996Y0370752D03*
X0402433Y0499060D03*
X0405582Y0499060D03*
X0400125Y0508394D03*
X0396976Y0508394D03*
X0394661Y0504221D03*
X0391511Y0504221D03*
X0393578Y0519158D03*
X0396728Y0519158D03*
X0399877Y0519138D03*
X0403027Y0519138D03*
X0399996Y0522752D03*
X0396846Y0522752D03*
X0303582Y0499060D03*
X0300433Y0499060D03*
X0292661Y0504221D03*
X0289511Y0504221D03*
X0294976Y0508394D03*
X0298125Y0508394D03*
X0297877Y0519138D03*
X0294728Y0519158D03*
X0291578Y0519158D03*
X0294846Y0522752D03*
X0297996Y0522752D03*
X0301027Y0519138D03*
X0201582Y0499060D03*
X0198433Y0499060D03*
X0190661Y0504221D03*
X0187511Y0504221D03*
X0192976Y0508394D03*
X0196125Y0508394D03*
X0195877Y0519138D03*
X0192728Y0519158D03*
X0189578Y0519158D03*
X0192846Y0522752D03*
X0195996Y0522752D03*
X0199027Y0519138D03*
D11*
X0195858Y0516189D03*
X0195858Y0513040D03*
X0192622Y0513001D03*
X0192622Y0516150D03*
X0294622Y0516150D03*
X0294622Y0513001D03*
X0297858Y0513040D03*
X0297858Y0516189D03*
X0396622Y0516150D03*
X0396622Y0513001D03*
X0399858Y0513040D03*
X0399858Y0516189D03*
X0399858Y0364189D03*
X0399858Y0361040D03*
X0396622Y0361001D03*
X0396622Y0364150D03*
X0297858Y0364189D03*
X0297858Y0361040D03*
X0294622Y0361001D03*
X0294622Y0364150D03*
X0195858Y0364189D03*
X0195858Y0361040D03*
X0192622Y0361001D03*
X0192622Y0364150D03*
D12*
X0187326Y0332863D03*
X0198153Y0332863D03*
X0289326Y0332863D03*
X0300153Y0332863D03*
X0391326Y0332863D03*
X0402153Y0332863D03*
X0402153Y0484863D03*
X0391326Y0484863D03*
X0300153Y0484863D03*
X0289326Y0484863D03*
X0198153Y0484863D03*
X0187326Y0484863D03*
D13*
X0192740Y0326859D03*
X0192740Y0338867D03*
X0294740Y0338867D03*
X0294740Y0326859D03*
X0396740Y0326859D03*
X0396740Y0338867D03*
X0396740Y0478859D03*
X0396740Y0490867D03*
X0294740Y0490867D03*
X0294740Y0478859D03*
X0192740Y0478859D03*
X0192740Y0490867D03*
D14*
X0188412Y0508295D03*
X0188412Y0513708D03*
X0200715Y0513748D03*
X0200715Y0508334D03*
X0290412Y0508295D03*
X0290412Y0513708D03*
X0302715Y0513748D03*
X0302715Y0508334D03*
X0392412Y0508295D03*
X0392412Y0513708D03*
X0404715Y0513748D03*
X0404715Y0508334D03*
X0404715Y0361748D03*
X0404715Y0356334D03*
X0392412Y0356295D03*
X0392412Y0361708D03*
X0302715Y0361748D03*
X0302715Y0356334D03*
X0290412Y0356295D03*
X0290412Y0361708D03*
X0200715Y0361748D03*
X0200715Y0356334D03*
X0188412Y0356295D03*
X0188412Y0361708D03*
D15*
X0196133Y0352193D03*
X0201547Y0352193D03*
X0192779Y0347119D03*
X0187366Y0347119D03*
X0289366Y0347119D03*
X0294779Y0347119D03*
X0298133Y0352193D03*
X0303547Y0352193D03*
X0391366Y0347119D03*
X0396779Y0347119D03*
X0400133Y0352193D03*
X0405547Y0352193D03*
X0396779Y0499119D03*
X0391366Y0499119D03*
X0400133Y0504193D03*
X0405547Y0504193D03*
X0303547Y0504193D03*
X0298133Y0504193D03*
X0294779Y0499119D03*
X0289366Y0499119D03*
X0201547Y0504193D03*
X0196133Y0504193D03*
X0192779Y0499119D03*
X0187366Y0499119D03*
M02*
